<?xml version="1.0" encoding="UTF-8"?><svg version="1.1" width="125px" height="28px" viewBox="0 0 125.0 28.0" xmlns="http://www.w3.org/2000/svg" xmlns:xlink="http://www.w3.org/1999/xlink"><defs><clipPath id="i0"><path d="M20.8188667,3.02935201 C22.1024905,3.02935201 23.069487,3.41016038 23.7198564,4.17177713 C24.3702257,4.93339388 24.6954104,5.9731291 24.6954104,7.2909828 L24.6954104,15.8399169 C24.6954104,16.0110667 24.6098355,16.0966416 24.4386857,16.0966416 L24.1819609,16.0966416 C24.0108111,16.0966416 23.9252362,16.0110667 23.9252362,15.8399169 L23.9252362,14.6076381 C23.9252362,14.5562931 23.9081212,14.5263419 23.8738912,14.5177844 C23.8396613,14.5092269 23.8139888,14.5306207 23.7968738,14.5819656 C23.4203442,15.14676 22.9068947,15.5746346 22.2565253,15.8655893 C21.606156,16.156544 20.8873267,16.3020214 20.1000375,16.3020214 C19.0731385,16.3020214 18.2045531,16.0281817 17.4942813,15.4805022 C16.7840095,14.9328228 16.4288736,14.0342861 16.4288736,12.7848924 C16.4288736,11.4841537 16.8439119,10.4914846 17.6739886,9.80688532 C18.5040653,9.12228599 19.6379329,8.77998633 21.0755915,8.77998633 L23.8225463,8.77998633 C23.8910062,8.77998633 23.9252362,8.74575636 23.9252362,8.67729643 L23.9252362,7.23963785 C23.9252362,6.1785089 23.6642327,5.33131724 23.1422257,4.69806286 C22.6202187,4.06480849 21.8286507,3.7481813 20.7675218,3.7481813 C19.9460026,3.7481813 19.2528458,3.94928235 18.6880513,4.35148445 C18.1232569,4.75368656 17.7809572,5.29708727 17.6611524,5.98168659 C17.6269224,6.16995141 17.53279,6.24696883 17.3787551,6.21273887 L17.0963579,6.16139392 C16.9252081,6.12716395 16.8481907,6.04158903 16.8653056,5.90466917 C17.0022255,5.03180503 17.4343788,4.33436947 18.1617656,3.81236249 C18.8891524,3.2903555 19.7748528,3.02935201 20.8188667,3.02935201 Z M46.8975704,3.02935201 C48.0613893,3.02935201 49.0112708,3.36737293 49.7472151,4.04341476 C50.4831594,4.71945659 50.9024764,5.60515697 51.0051663,6.70051588 L51.0243351,6.93921285 C51.0629009,7.51374381 51.0821838,8.46107715 51.0821838,9.78121284 C51.0821838,9.95236267 50.9966089,10.0379376 50.825459,10.0379376 L43.6371661,10.0379376 C43.5687062,10.0379376 43.5344762,10.0721676 43.5344762,10.1406275 L43.5419197,11.7335362 C43.5461732,12.0908241 43.5522495,12.3642588 43.5601487,12.5538401 C43.6457236,13.4609342 43.992302,14.1925997 44.5998839,14.7488367 C45.2074658,15.3050736 45.9819188,15.5831921 46.9232429,15.5831921 C47.7105321,15.5831921 48.3908527,15.3778123 48.9642046,14.9670527 C49.5375565,14.5562931 49.9354799,14.0086137 50.1579747,13.3240143 C50.2007621,13.195652 50.2792058,13.1326593 50.3933057,13.1350364 L50.6970967,13.1699795 C50.7655566,13.1870945 50.8211803,13.2213244 50.8639677,13.2726694 C50.9067552,13.3240143 50.9195914,13.3924743 50.9024764,13.4780492 C50.6628667,14.3337983 50.1836472,15.0183977 49.4648179,15.5318472 C48.7459886,16.0452967 47.8902394,16.3020214 46.8975704,16.3020214 C45.8193265,16.3020214 44.9165111,15.9811155 44.1891243,15.3393036 C43.4617375,14.6974917 43.0295842,13.8631363 42.8926644,12.8362373 C42.8070894,12.2372129 42.764302,11.4670387 42.764302,10.5257146 L42.764302,9.65285047 C42.764302,8.3019893 42.7938166,7.32743946 42.8528458,6.72920094 L42.8669919,6.59782599 C42.9696818,5.55381202 43.3889989,4.69806286 44.1249431,4.03057852 C44.8608874,3.36309418 45.7850965,3.02935201 46.8975704,3.02935201 Z M82.7639048,2.82397221 C84.1844484,2.82397221 85.3311523,3.22617431 86.2040164,4.03057852 C87.0768806,4.83498273 87.5646576,5.89611168 87.6673475,7.21396538 L87.6950738,7.62164427 C87.7279345,8.24326046 87.7443649,9.17705394 87.7443649,10.4230247 C87.7443649,10.5941745 87.65879,10.6797495 87.4876402,10.6797495 L80.4533821,10.6797495 C80.3849222,10.6797495 80.3506922,10.7139794 80.3506922,10.7824394 C80.3506922,11.2616589 80.3763647,11.680976 80.4277096,12.0403906 C80.5132845,12.673645 80.7785668,13.1870945 81.2235563,13.5807391 C81.6685459,13.9743837 82.2333403,14.171206 82.9179397,14.171206 C83.4998491,14.171206 83.9919049,14.0300074 84.394107,13.7476102 C84.7388516,13.5055554 85.0112942,13.1849114 85.2114347,12.7856783 L85.3054798,12.5795126 C85.3568248,12.4254777 85.4595147,12.3655753 85.6135495,12.3998053 L87.3592778,12.7848924 C87.5304276,12.8362373 87.5903301,12.9389272 87.5389851,13.0929621 C87.2138004,14.1027461 86.649006,14.8900353 85.8446018,15.4548297 C85.0401976,16.0196242 84.056086,16.3020214 82.8922672,16.3020214 C81.5572985,16.3020214 80.4790546,15.9682792 79.6575354,15.3007949 C78.8360162,14.6333106 78.3140092,13.717659 78.0915144,12.5538401 C78.0059395,12.0746206 77.9503158,11.5654498 77.9246434,11.0263279 L77.9077958,10.5890935 C77.8957618,10.1973209 77.888742,9.73702142 77.8867363,9.20819519 L77.8861346,8.88267623 C77.8861346,8.11892011 77.9188938,7.49275241 77.9844121,7.00417312 L78.014497,6.80320578 C78.1685319,5.60515697 78.6734239,4.64243917 79.529173,3.91505238 C80.3849222,3.1876656 81.4631661,2.82397221 82.7639048,2.82397221 Z M30.7012593,3.13204191 C31.8479632,3.13204191 32.7721722,3.43583286 33.4738866,4.04341476 C34.1756009,4.65099666 34.526458,5.43400713 34.526458,6.39244619 L34.526458,6.46946361 C34.526458,6.64061344 34.4408831,6.72618836 34.2697333,6.72618836 L34.0643535,6.72618836 C33.8932036,6.72618836 33.8076287,6.64061344 33.8076287,6.46946361 L33.8076287,6.39244619 C33.8076287,5.65650191 33.5209528,5.04464127 32.9476008,4.55686425 C32.3742489,4.06908723 31.6169109,3.82519872 30.6755868,3.82519872 C29.7513777,3.82519872 29.0154335,4.06052974 28.467754,4.53119178 C27.9200745,5.00185381 27.6462348,5.62227195 27.6462348,6.39244619 C27.6462348,6.90589568 27.7788759,7.33377026 28.0441582,7.67606992 C28.3094404,8.01836958 28.6517401,8.29648806 29.0710572,8.51042535 C29.4903742,8.72436264 30.0508899,8.95113616 30.7526042,9.19074592 L31.3059887,9.40056294 C31.9183248,9.63721456 32.4141838,9.84539403 32.793566,10.0251014 C33.281343,10.2561536 33.7049388,10.5984533 34.0643535,11.0520003 C34.4237681,11.5055474 34.6034754,12.0917356 34.6034754,12.8105649 C34.6034754,13.8203489 34.2526183,14.6375893 33.550904,15.2622862 C32.8491897,15.8869831 31.9164231,16.1993315 30.7526042,16.1993315 C29.5887854,16.1993315 28.6431826,15.8955406 27.9157958,15.2879587 C27.188409,14.6803768 26.8247156,13.9230388 26.8247156,13.0159446 L26.8247156,12.7592199 C26.8247156,12.5880701 26.9102905,12.5024952 27.0814404,12.5024952 L27.3124926,12.5024952 C27.4836425,12.5024952 27.5692174,12.5880701 27.5692174,12.7592199 L27.5692174,12.9902722 C27.5692174,13.6919865 27.8644508,14.2910109 28.4549178,14.7873454 C29.0453847,15.2836799 29.8112802,15.5318472 30.7526042,15.5318472 C31.6768133,15.5318472 32.4213151,15.2794012 32.9861095,14.7745092 C33.550904,14.2696172 33.8333012,13.6235265 33.8333012,12.8362373 C33.8333012,12.2714429 33.6878238,11.8136171 33.3968691,11.4627599 C33.1059144,11.1119028 32.7550573,10.838063 32.3442977,10.6412407 C31.9335381,10.4444184 31.3259562,10.2005299 30.521552,9.90957522 C29.7171478,9.63573549 29.0710572,9.37473199 28.5832801,9.12656474 C28.0955031,8.87839748 27.6890223,8.53609782 27.3638376,8.09966575 C27.0386529,7.66323368 26.8760606,7.10271799 26.8760606,6.41811866 C26.8760606,5.42544964 27.2269177,4.62960293 27.928632,4.03057852 C28.6303463,3.43155411 29.5545554,3.13204191 30.7012593,3.13204191 Z M10.9621467,3.05502448 C12.0403906,3.05502448 12.9132547,3.42727537 13.5807391,4.17177713 C14.2482234,4.9162789 14.5819656,5.92178415 14.5819656,7.1882929 L14.5819656,15.8399169 C14.5819656,16.0110667 14.4963907,16.0966416 14.3252409,16.0966416 L14.0685161,16.0966416 C13.8973663,16.0966416 13.8117914,16.0110667 13.8117914,15.8399169 L13.8117914,7.2909828 C13.8117914,6.21273887 13.5336729,5.35698971 12.9774359,4.72373534 C12.421199,4.09048096 11.6980909,3.77385377 10.8081118,3.77385377 C9.84967277,3.77385377 9.08805603,4.08192347 8.52326158,4.69806286 C7.95846714,5.31420225 7.67606992,6.16139392 7.67606992,7.23963785 L7.67606992,15.8399169 C7.67606992,16.0110667 7.59049501,16.0966416 7.41934517,16.0966416 L7.16262043,16.0966416 C6.9914706,16.0966416 6.90589568,16.0110667 6.90589568,15.8399169 L6.90589568,7.2909828 C6.90589568,6.21273887 6.63205595,5.35698971 6.08437649,4.72373534 C5.53669703,4.09048096 4.81786774,3.77385377 3.92788862,3.77385377 C2.95233458,3.77385377 2.18216035,4.08192347 1.6173659,4.69806286 C1.05257146,5.31420225 0.77017424,6.16139392 0.77017424,7.23963785 L0.77017424,15.8399169 C0.77017424,16.0110667 0.684599324,16.0966416 0.513449493,16.0966416 L0.256724747,16.0966416 C0.0855749155,16.0966416 0,16.0110667 0,15.8399169 L0,3.49145655 C0,3.32030672 0.0855749155,3.23473181 0.256724747,3.23473181 L0.513449493,3.23473181 C0.684599324,3.23473181 0.77017424,3.32030672 0.77017424,3.49145655 L0.77017424,4.72373534 C0.77017424,4.77508029 0.783010477,4.80503151 0.808682951,4.813589 C0.834355426,4.82214649 0.864306647,4.80931025 0.898536613,4.77508029 C1.22372129,4.21028584 1.65587461,3.78241127 2.19499658,3.49145655 C2.73411855,3.20050184 3.36309418,3.05502448 4.08192347,3.05502448 C4.86921269,3.05502448 5.54525452,3.25184679 6.11004897,3.6454914 C6.61208847,3.99539772 6.9991829,4.47377206 7.27133226,5.08061443 L7.36800022,5.31420225 C7.38511521,5.3655472 7.40223019,5.39121968 7.41934517,5.39121968 C7.43075516,5.39121968 7.44216515,5.37980969 7.45357514,5.35698971 L7.47069012,5.31420225 C7.76164484,4.57825798 8.21091314,4.01774228 8.81849504,3.63265516 C9.42607694,3.24756804 10.1406275,3.05502448 10.9621467,3.05502448 Z M37.836697,0 C38.0078469,0 38.0934218,0.0855749155 38.0934218,0.256724747 L38.0934218,3.13204191 C38.0934218,3.20050184 38.1276518,3.23473181 38.1961117,3.23473181 L40.8660491,3.23473181 C41.0371989,3.23473181 41.1227738,3.32030672 41.1227738,3.49145655 L41.1227738,3.67116388 C41.1227738,3.84231371 41.0371989,3.92788862 40.8660491,3.92788862 L38.1961117,3.92788862 C38.1276518,3.92788862 38.0934218,3.96211859 38.0934218,4.03057852 L38.0934218,12.8362373 C38.0934218,13.7946764 38.2816866,14.457882 38.6582162,14.8258541 C39.0347459,15.1938262 39.6337703,15.3778123 40.4552895,15.3778123 L40.8660491,15.3778123 C41.0371989,15.3778123 41.1227738,15.4633872 41.1227738,15.6345371 L41.1227738,15.8399169 C41.1227738,16.0110667 41.0371989,16.0966416 40.8660491,16.0966416 L40.378272,16.0966416 C39.385603,16.0966416 38.628265,15.8698681 38.106258,15.416321 C37.584251,14.962774 37.3232476,14.1284185 37.3232476,12.9132547 L37.3232476,4.03057852 C37.3232476,3.96211859 37.2890176,3.92788862 37.2205577,3.92788862 L35.9112614,3.92788862 C35.7401116,3.92788862 35.6545367,3.84231371 35.6545367,3.67116388 L35.6545367,3.49145655 C35.6545367,3.32030672 35.7401116,3.23473181 35.9112614,3.23473181 L37.2205577,3.23473181 C37.2890176,3.23473181 37.3232476,3.20050184 37.3232476,3.13204191 L37.3232476,0.256724747 C37.3232476,0.0855749155 37.4088225,0 37.5799723,0 L37.836697,0 Z M57.6784996,3.13204191 C58.1919491,3.13204191 58.6198236,3.22617431 58.9621233,3.41443913 C59.0305832,3.43155411 59.0776494,3.47434157 59.1033219,3.5428015 C59.1204369,3.58844146 59.1242402,3.63408141 59.1147319,3.67972137 L58.9877958,4.05625099 C58.9437858,4.20295085 58.8557659,4.25534366 58.723736,4.21342941 L58.6540536,4.18461337 C58.3459839,4.0476935 57.9780118,3.97923357 57.5501372,3.97923357 C56.6601581,3.99634855 55.9242138,4.38571442 55.3423044,5.14733117 C54.7603949,5.90894792 54.4694402,6.84599324 54.4694402,7.95846714 L54.4694402,15.8399169 C54.4694402,16.0110667 54.3838653,16.0966416 54.2127155,16.0966416 L53.9559907,16.0966416 C53.7848409,16.0966416 53.699266,16.0110667 53.699266,15.8399169 L53.699266,3.49145655 C53.699266,3.32030672 53.7848409,3.23473181 53.9559907,3.23473181 L54.2127155,3.23473181 C54.3838653,3.23473181 54.4694402,3.32030672 54.4694402,3.49145655 L54.4694402,5.31420225 C54.4694402,5.3655472 54.4822765,5.39121968 54.5079489,5.39121968 C54.5336214,5.39121968 54.5635726,5.37410469 54.5978026,5.33987473 C54.9058723,4.63816042 55.3209106,4.09475971 55.8429176,3.70967259 C56.3649246,3.32458547 56.9767853,3.13204191 57.6784996,3.13204191 Z M72.6746222,2.84964469 C73.8726711,2.84964469 74.8011589,3.23473181 75.4600857,4.00490605 C76.1190126,4.77508029 76.448476,5.84476673 76.448476,7.21396538 L76.448476,15.8399169 C76.448476,16.0110667 76.3629011,16.0966416 76.1917513,16.0966416 L74.2663157,16.0966416 C74.0951658,16.0966416 74.0095909,16.0110667 74.0095909,15.8399169 L74.0095909,7.57338002 C74.0095909,6.76897582 73.8170474,6.13572144 73.4319602,5.6736169 C73.0468731,5.21151235 72.5205874,4.98046008 71.853103,4.98046008 C71.1856187,4.98046008 70.6507755,5.20723361 70.2485734,5.66078066 C69.8463713,6.11432771 69.6452702,6.73474585 69.6452702,7.52203507 L69.6452702,15.8399169 C69.6452702,16.0110667 69.5596953,16.0966416 69.3885455,16.0966416 L67.4631099,16.0966416 C67.2919601,16.0966416 67.2063851,16.0110667 67.2063851,15.8399169 L67.2063851,7.57338002 C67.2063851,6.76897582 67.0095628,6.13572144 66.6159182,5.6736169 C66.2222736,5.21151235 65.7002666,4.98046008 65.0498973,4.98046008 C64.3824129,4.98046008 63.8475697,5.20723361 63.4453676,5.66078066 C63.0431655,6.11432771 62.8420644,6.73474585 62.8420644,7.52203507 L62.8420644,15.8399169 C62.8420644,16.0110667 62.7564895,16.0966416 62.5853397,16.0966416 L60.6599041,16.0966416 C60.4887543,16.0966416 60.4031794,16.0110667 60.4031794,15.8399169 L60.4031794,3.28607676 C60.4031794,3.11492692 60.4887543,3.02935201 60.6599041,3.02935201 L62.5853397,3.02935201 C62.7564895,3.02935201 62.8420644,3.11492692 62.8420644,3.28607676 L62.8420644,4.05625099 C62.8420644,4.09048096 62.8549007,4.11615344 62.8805732,4.13326842 C62.9062456,4.1503834 62.9361969,4.14182591 62.9704268,4.10759594 C63.6721411,3.26896177 64.6476952,2.84964469 65.8970889,2.84964469 C66.6501482,2.84964469 67.3005175,3.00367953 67.848197,3.31174923 C68.3958765,3.61981893 68.8151935,4.07336598 69.1061483,4.67239039 C69.1574932,4.74085032 69.2088382,4.73229283 69.2601831,4.64671791 C69.6367127,4.03057852 70.1287685,3.57703147 70.7363504,3.28607676 C71.3439323,2.99512204 71.9900229,2.84964469 72.6746222,2.84964469 Z M23.8225463,9.47314315 L21.101264,9.47314315 C19.9203301,9.47314315 18.9747273,9.75554037 18.2644555,10.3203348 C17.5541837,10.8851293 17.1990478,11.6980909 17.1990478,12.7592199 C17.1990478,13.717659 17.4728875,14.4279308 18.020567,14.8900353 C18.5682465,15.3521398 19.2870758,15.5831921 20.1770549,15.5831921 C21.2039539,15.5831921 22.0853755,15.3093524 22.8213198,14.7616729 C23.557264,14.2139935 23.9252362,13.4181468 23.9252362,12.3741328 L23.9252362,9.57583304 C23.9252362,9.50737311 23.8910062,9.47314315 23.8225463,9.47314315 Z M46.9232429,3.72250882 C45.9819188,3.72250882 45.2117446,4.0006273 44.6127202,4.55686425 C44.0136958,5.1131012 43.6628386,5.84476673 43.5601487,6.75186083 L43.5458862,7.2881303 C43.5382796,7.71790655 43.5344762,8.29220931 43.5344762,9.0110386 C43.5344762,9.07949853 43.5687062,9.1137285 43.6371661,9.1137285 L50.2093196,9.1137285 C50.2777796,9.1137285 50.3120095,9.07949853 50.3120095,9.0110386 L50.3030955,7.8326007 C50.2947757,7.36170096 50.2806321,7.00145434 50.2606646,6.75186083 C50.1579747,5.86188171 49.8028388,5.13449493 49.1952569,4.56970049 C48.587675,4.00490605 47.830337,3.72250882 46.9232429,3.72250882 Z M82.7895773,4.95478761 C82.1392079,4.95478761 81.6043647,5.15160991 81.1850476,5.54525452 C80.7657305,5.93889914 80.5132845,6.45234863 80.4277096,7.085603 C80.3763647,7.54770755 80.3506922,8.05259955 80.3506922,8.60027901 C80.3506922,8.66873894 80.3849222,8.70296891 80.4533821,8.70296891 L85.1771174,8.70296891 C85.2455774,8.70296891 85.2798073,8.66873894 85.2798073,8.60027901 L85.2412986,7.90952899 C85.2199049,7.56990354 85.1985112,7.30381904 85.1771174,7.11127548 C85.0915425,6.4780211 84.8348178,5.96029286 84.4069432,5.55809076 C83.9790686,5.15588866 83.4399467,4.95478761 82.7895773,4.95478761 Z"></path></clipPath><clipPath id="i1"><path d="M14,0 C18.2895359,0 22.1284923,1.92916055 24.6965849,4.96719747 L17.9859836,4.96774194 C17.226885,4.96774194 16.5077798,5.30809807 16.026539,5.89515687 C15.1394304,6.97732824 15.29756,8.57374512 16.3797313,9.46085377 L21.3099586,13.5024015 C21.3427374,13.5292719 21.372781,13.5593154 21.3996514,13.5920942 C21.6249315,13.8669103 21.5847747,14.2723184 21.3099586,14.4975985 L16.3797313,18.5391462 C15.7926725,19.020387 15.4522415,19.7394922 15.4522415,20.4985908 C15.4522415,21.8978966 16.5866779,23.0322581 17.9859836,23.0322581 L24.6965849,23.0328025 C22.1284923,26.0708394 18.2895359,28 14,28 C9.71046405,28 5.8715077,26.0708394 3.30341511,23.0328025 L10.0140164,23.0322581 C11.4133221,23.0322581 12.5477585,21.8978966 12.5477585,20.4985908 C12.5477585,19.7394922 12.2073275,19.020387 11.6202687,18.5391462 L6.69004137,14.4975985 C6.4152253,14.2723184 6.37506849,13.8669103 6.60034863,13.5920942 C6.62721902,13.5593154 6.65726256,13.5292719 6.69004137,13.5024015 L11.6202687,9.46085377 C12.70244,8.57374512 12.8605696,6.97732824 11.973461,5.89515687 C11.4922202,5.30809807 10.773115,4.96774194 10.0140164,4.96774194 L3.30341511,4.96719747 C5.8715077,1.92916055 9.71046405,0 14,0 Z M26.0432005,6.85701198 C27.2861929,8.94820818 28,11.3907448 28,14 C28,16.6092552 27.2861929,19.0517918 26.0432005,21.142988 L17.9859836,21.1420125 C17.6306317,21.1420125 17.342562,20.8539428 17.342562,20.4985908 C17.342562,20.3058187 17.428995,20.1232028 17.5780779,20.0009923 L22.5083052,15.9594446 C23.5904765,15.072336 23.7486061,13.4759191 22.8614975,12.3937477 C22.7556872,12.2646712 22.6373817,12.1463657 22.5083052,12.0405554 L17.5780779,7.99900767 C17.3032618,7.77372754 17.263105,7.36831946 17.4883851,7.09350339 C17.6105956,6.94442054 17.7932115,6.85798753 17.9859836,6.85798753 L26.0432005,6.85701198 Z M10.0140164,6.85798753 C10.2067885,6.85798753 10.3894044,6.94442054 10.5116149,7.09350339 C10.736895,7.36831946 10.6967382,7.77372754 10.4219221,7.99900767 L5.49169485,12.0405554 C5.36261835,12.1463657 5.24431284,12.2646712 5.13850253,12.3937477 C4.25139389,13.4759191 4.40952347,15.072336 5.49169485,15.9594446 L10.4219221,20.0009923 C10.571005,20.1232028 10.657438,20.3058187 10.657438,20.4985908 C10.657438,20.8539428 10.3693683,21.1420125 10.0140164,21.1420125 L1.95679947,21.142988 C0.713807104,19.0517918 0,16.6092552 0,14 C0,11.3907448 0.713807104,8.94820818 1.95679947,6.85701198 L10.0140164,6.85798753 Z M14,11.7419355 C12.7529054,11.7419355 11.7419355,12.7529054 11.7419355,14 C11.7419355,15.2470946 12.7529054,16.2580645 14,16.2580645 C15.2470946,16.2580645 16.2580645,15.2470946 16.2580645,14 C16.2580645,12.7529054 15.2470946,11.7419355 14,11.7419355 Z"></path></clipPath></defs><g transform="translate(0.30806969580879695 0.0)"><g transform="translate(0.0 4.848989298391979)"><g clip-path="url(#i0)"><polygon points="0,0 87.7443649,0 87.7443649,16.3020214 0,16.3020214 0,0" stroke="none" fill="#000000"></polygon></g></g><g transform="translate(96.1919303041912 0.0)"><g clip-path="url(#i1)"><polygon points="0,0 28,0 28,28 0,28 0,0" stroke="none" fill="#000000"></polygon></g></g></g></svg>