<?xml version="1.0" encoding="UTF-8"?><svg version="1.1" width="1024px" height="1024px" viewBox="0 0 1024.0 1024.0" xmlns="http://www.w3.org/2000/svg" xmlns:xlink="http://www.w3.org/1999/xlink"><defs><clipPath id="i0"><path d="M1024,0 L1024,1024 L0,1024 L0,0 L1024,0 Z"></path></clipPath><clipPath id="i1"><path d="M512,0 C668.879363,0 809.279356,70.5565699 903.198201,181.667931 L657.773116,181.677419 C630.011796,181.677419 603.713088,194.124729 586.113427,215.594308 C553.670597,255.170861 559.453622,313.554107 599.030175,345.996938 L779.33563,493.802111 C780.534398,494.7848 781.633133,495.883535 782.615822,497.082303 C790.854638,507.13272 789.386046,521.959072 779.33563,530.197889 L599.030175,678.003062 C577.560596,695.602723 565.110545,721.901431 565.110545,749.662751 C565.110545,800.837362 606.598505,842.322581 657.773116,842.322581 L903.198201,842.332069 C809.279356,953.44343 668.879363,1024 512,1024 C355.120637,1024 214.720644,953.44343 120.801799,842.332069 L366.226884,842.322581 C417.401495,842.322581 458.889455,800.837362 458.889455,749.662751 C458.889455,721.901431 446.439404,695.602723 424.969825,678.003062 L244.66437,530.197889 C234.613954,521.959072 233.145362,507.13272 241.384178,497.082303 C242.366867,495.883535 243.465602,494.7848 244.66437,493.802111 L424.969825,345.996938 C464.546378,313.554107 470.329403,255.170861 437.886573,215.594308 C420.286912,194.124729 393.988204,181.677419 366.226884,181.677419 L120.801799,181.667931 C214.720644,70.5565699 355.120637,0 512,0 Z M952.454487,250.800065 C997.901731,327.271603 1024,416.588013 1024,512 C1024,607.411987 997.901731,696.728397 952.454487,773.199935 L657.773116,773.193599 C644.777387,773.193599 634.242268,762.658479 634.242268,749.662751 C634.242268,742.612798 637.403246,735.934274 642.855419,731.464862 L823.160874,583.659689 C862.737427,551.216858 868.520452,492.833612 836.077622,453.257059 C832.207988,448.536547 827.881386,444.209945 823.160874,440.340311 L642.855419,292.535138 C632.805003,284.296321 631.336411,269.469969 639.575227,259.419553 C644.044639,253.96738 650.723163,250.806401 657.773116,250.806401 L952.454487,250.800065 Z M71.5455135,250.800065 L366.226884,250.806401 C373.276837,250.806401 379.955361,253.96738 384.424773,259.419553 C392.663589,269.469969 391.194997,284.296321 381.144581,292.535138 L200.839126,440.340311 C196.118614,444.209945 191.792012,448.536547 187.922378,453.257059 C155.479548,492.833612 161.262573,551.216858 200.839126,583.659689 L381.144581,731.464862 C386.596754,735.934274 389.757732,742.612798 389.757732,749.662751 C389.757732,762.658479 379.222613,773.193599 366.226884,773.193599 L71.5455135,773.199935 C26.0982693,696.728397 0,607.411987 0,512 C0,416.588013 26.0982693,327.271603 71.5455135,250.800065 Z M512,429.419355 C466.391969,429.419355 429.419355,466.391969 429.419355,512 C429.419355,557.608031 466.391969,594.580645 512,594.580645 C557.608031,594.580645 594.580645,557.608031 594.580645,512 C594.580645,466.391969 557.608031,429.419355 512,429.419355 Z"></path></clipPath></defs><g clip-path="url(#i0)"><g clip-path="url(#i1)"><polygon points="0,0 1024,0 1024,1024 0,1024 0,0" stroke="none" fill="#000000"></polygon></g></g></svg>