<?xml version="1.0"?>
<svg xmlns="http://www.w3.org/2000/svg" xmlns:xlink="http://www.w3.org/1999/xlink" viewBox="0 0 300.000000 292.000000" width="150.000000mm" height="146.000000mm" version="1.1">
<a xlink:href="stage2-0x60002c38eb50.svg">
<rect x="1.000000" y="1.000000" width="299.000000" height="291.000000" rx="0" ry="0" style="stroke:none;fill:#cccccc;"/>
<rect x="0.000000" y="0.000000" width="299.000000" height="291.000000" rx="0" ry="0" style="stroke:none;fill:#ffffff;"/>
</a>
<text x="10.000000" y="7.000000" font-family="Arial" font-size="7"></text>
<a xlink:href="K-0x60002c39ddd0.svg">
<rect x="35.000000" y="25.000000" width="24.000000" height="24.000000" rx="0" ry="0" style="stroke:none;fill:#cccccc;"/>
<rect x="34.000000" y="24.000000" width="24.000000" height="24.000000" rx="0" ry="0" style="stroke:none;fill:#003366;"/>
</a>
<a xlink:href="K-0x60002c39ddd0.svg">
<text x="46.000000" y="38.000000" font-family="Arial" font-size="7" text-anchor="middle" fill="#FFFFFF">K</text>
</a>
<circle cx="36.000000" cy="26.000000" r="1"/>
<rect x="35.000000" y="67.000000" width="24.000000" height="24.000000" rx="0" ry="0" style="stroke:none;fill:#cccccc;"/>
<rect x="34.000000" y="66.000000" width="24.000000" height="24.000000" rx="0" ry="0" style="stroke:none;fill:#f44800;"/>
<text x="46.000000" y="80.000000" font-family="Arial" font-size="7" text-anchor="middle" fill="#FFFFFF">2</text>
<circle cx="36.000000" cy="68.000000" r="1"/>
<line x1="25.000000" y1="57.000000" x2="25.000000" y2="99.000000"  style="stroke: black; stroke-linecap:round; stroke-width:0.25; stroke-dasharray:3,3;"/>
<line x1="25.000000" y1="99.000000" x2="67.000000" y2="99.000000"  style="stroke: black; stroke-linecap:round; stroke-width:0.25; stroke-dasharray:3,3;"/>
<line x1="67.000000" y1="99.000000" x2="67.000000" y2="57.000000"  style="stroke: black; stroke-linecap:round; stroke-width:0.25; stroke-dasharray:3,3;"/>
<line x1="25.000000" y1="57.000000" x2="30.000000" y2="57.000000"  style="stroke: black; stroke-linecap:round; stroke-width:0.25; stroke-dasharray:3,3;"/>
<line x1="39.675000" y1="57.000000" x2="67.000000" y2="57.000000"  style="stroke: black; stroke-linecap:round; stroke-width:0.25; stroke-dasharray:3,3;"/>
<text x="30.000000" y="59.000000" font-family="Arial" font-size="7">N</text>
<rect x="85.000000" y="51.000000" width="24.000000" height="24.000000" rx="0" ry="0" style="stroke:none;fill:#cccccc;"/>
<rect x="84.000000" y="50.000000" width="24.000000" height="24.000000" rx="0" ry="0" style="stroke:none;fill:#4B71A1;"/>
<text x="96.000000" y="64.000000" font-family="Arial" font-size="7" text-anchor="middle" fill="#FFFFFF">pow</text>
<circle cx="86.000000" cy="52.000000" r="1"/>
<line x1="81.000000" y1="57.000000" x2="84.000000" y2="58.000000"  transform="rotate(0.000000,84.000000,58.000000)" style="stroke: black; stroke-width:0.25;"/>
<line x1="81.000000" y1="59.000000" x2="84.000000" y2="58.000000"  transform="rotate(0.000000,84.000000,58.000000)" style="stroke: black; stroke-width:0.25;"/>
<line x1="81.000000" y1="65.000000" x2="84.000000" y2="66.000000"  transform="rotate(0.000000,84.000000,66.000000)" style="stroke: black; stroke-width:0.25;"/>
<line x1="81.000000" y1="67.000000" x2="84.000000" y2="66.000000"  transform="rotate(0.000000,84.000000,66.000000)" style="stroke: black; stroke-width:0.25;"/>
<rect x="47.650000" y="119.000000" width="38.700000" height="24.000000" rx="0" ry="0" style="stroke:none;fill:#cccccc;"/>
<rect x="46.650000" y="118.000000" width="38.700000" height="24.000000" rx="0" ry="0" style="stroke:none;fill:#f44800;"/>
<text x="66.000000" y="132.000000" font-family="Arial" font-size="7" text-anchor="middle" fill="#FFFFFF">0.500327</text>
<circle cx="48.650000" cy="120.000000" r="1"/>
<line x1="37.650000" y1="109.000000" x2="37.650000" y2="151.000000"  style="stroke: black; stroke-linecap:round; stroke-width:0.25; stroke-dasharray:3,3;"/>
<line x1="37.650000" y1="151.000000" x2="94.350000" y2="151.000000"  style="stroke: black; stroke-linecap:round; stroke-width:0.25; stroke-dasharray:3,3;"/>
<line x1="94.350000" y1="151.000000" x2="94.350000" y2="109.000000"  style="stroke: black; stroke-linecap:round; stroke-width:0.25; stroke-dasharray:3,3;"/>
<line x1="37.650000" y1="109.000000" x2="42.650000" y2="109.000000"  style="stroke: black; stroke-linecap:round; stroke-width:0.25; stroke-dasharray:3,3;"/>
<line x1="52.325000" y1="109.000000" x2="94.350000" y2="109.000000"  style="stroke: black; stroke-linecap:round; stroke-width:0.25; stroke-dasharray:3,3;"/>
<text x="42.650000" y="111.000000" font-family="Arial" font-size="7">Q</text>
<rect x="125.000000" y="77.000000" width="24.000000" height="24.000000" rx="0" ry="0" style="stroke:none;fill:#cccccc;"/>
<rect x="124.000000" y="76.000000" width="24.000000" height="24.000000" rx="0" ry="0" style="stroke:none;fill:#4B71A1;"/>
<text x="136.000000" y="90.000000" font-family="Arial" font-size="7" text-anchor="middle" fill="#FFFFFF">*</text>
<circle cx="126.000000" cy="78.000000" r="1"/>
<line x1="121.000000" y1="83.000000" x2="124.000000" y2="84.000000"  transform="rotate(0.000000,124.000000,84.000000)" style="stroke: black; stroke-width:0.25;"/>
<line x1="121.000000" y1="85.000000" x2="124.000000" y2="84.000000"  transform="rotate(0.000000,124.000000,84.000000)" style="stroke: black; stroke-width:0.25;"/>
<line x1="121.000000" y1="91.000000" x2="124.000000" y2="92.000000"  transform="rotate(0.000000,124.000000,92.000000)" style="stroke: black; stroke-width:0.25;"/>
<line x1="121.000000" y1="93.000000" x2="124.000000" y2="92.000000"  transform="rotate(0.000000,124.000000,92.000000)" style="stroke: black; stroke-width:0.25;"/>
<a xlink:href="K-0x60002c39ddd0.svg">
<rect x="75.000000" y="161.000000" width="24.000000" height="24.000000" rx="0" ry="0" style="stroke:none;fill:#cccccc;"/>
<rect x="74.000000" y="160.000000" width="24.000000" height="24.000000" rx="0" ry="0" style="stroke:none;fill:#003366;"/>
</a>
<a xlink:href="K-0x60002c39ddd0.svg">
<text x="86.000000" y="174.000000" font-family="Arial" font-size="7" text-anchor="middle" fill="#FFFFFF">K</text>
</a>
<circle cx="76.000000" cy="162.000000" r="1"/>
<rect x="165.000000" y="93.000000" width="24.000000" height="24.000000" rx="0" ry="0" style="stroke:none;fill:#cccccc;"/>
<rect x="164.000000" y="92.000000" width="24.000000" height="24.000000" rx="0" ry="0" style="stroke:none;fill:#4B71A1;"/>
<text x="176.000000" y="106.000000" font-family="Arial" font-size="7" text-anchor="middle" fill="#FFFFFF">-</text>
<circle cx="166.000000" cy="94.000000" r="1"/>
<line x1="161.000000" y1="99.000000" x2="164.000000" y2="100.000000"  transform="rotate(0.000000,164.000000,100.000000)" style="stroke: black; stroke-width:0.25;"/>
<line x1="161.000000" y1="101.000000" x2="164.000000" y2="100.000000"  transform="rotate(0.000000,164.000000,100.000000)" style="stroke: black; stroke-width:0.25;"/>
<line x1="161.000000" y1="107.000000" x2="164.000000" y2="108.000000"  transform="rotate(0.000000,164.000000,108.000000)" style="stroke: black; stroke-width:0.25;"/>
<line x1="161.000000" y1="109.000000" x2="164.000000" y2="108.000000"  transform="rotate(0.000000,164.000000,108.000000)" style="stroke: black; stroke-width:0.25;"/>
<rect x="87.650000" y="203.000000" width="38.700000" height="24.000000" rx="0" ry="0" style="stroke:none;fill:#cccccc;"/>
<rect x="86.650000" y="202.000000" width="38.700000" height="24.000000" rx="0" ry="0" style="stroke:none;fill:#f44800;"/>
<text x="106.000000" y="216.000000" font-family="Arial" font-size="7" text-anchor="middle" fill="#FFFFFF">0.500327</text>
<circle cx="88.650000" cy="204.000000" r="1"/>
<line x1="77.650000" y1="193.000000" x2="77.650000" y2="235.000000"  style="stroke: black; stroke-linecap:round; stroke-width:0.25; stroke-dasharray:3,3;"/>
<line x1="77.650000" y1="235.000000" x2="134.350000" y2="235.000000"  style="stroke: black; stroke-linecap:round; stroke-width:0.25; stroke-dasharray:3,3;"/>
<line x1="134.350000" y1="235.000000" x2="134.350000" y2="193.000000"  style="stroke: black; stroke-linecap:round; stroke-width:0.25; stroke-dasharray:3,3;"/>
<line x1="77.650000" y1="193.000000" x2="82.650000" y2="193.000000"  style="stroke: black; stroke-linecap:round; stroke-width:0.25; stroke-dasharray:3,3;"/>
<line x1="92.325000" y1="193.000000" x2="134.350000" y2="193.000000"  style="stroke: black; stroke-linecap:round; stroke-width:0.25; stroke-dasharray:3,3;"/>
<text x="82.650000" y="195.000000" font-family="Arial" font-size="7">Q</text>
<rect x="205.000000" y="119.000000" width="24.000000" height="24.000000" rx="0" ry="0" style="stroke:none;fill:#cccccc;"/>
<rect x="204.000000" y="118.000000" width="24.000000" height="24.000000" rx="0" ry="0" style="stroke:none;fill:#4B71A1;"/>
<text x="216.000000" y="132.000000" font-family="Arial" font-size="7" text-anchor="middle" fill="#FFFFFF">+</text>
<circle cx="206.000000" cy="120.000000" r="1"/>
<line x1="201.000000" y1="125.000000" x2="204.000000" y2="126.000000"  transform="rotate(0.000000,204.000000,126.000000)" style="stroke: black; stroke-width:0.25;"/>
<line x1="201.000000" y1="127.000000" x2="204.000000" y2="126.000000"  transform="rotate(0.000000,204.000000,126.000000)" style="stroke: black; stroke-width:0.25;"/>
<line x1="201.000000" y1="133.000000" x2="204.000000" y2="134.000000"  transform="rotate(0.000000,204.000000,134.000000)" style="stroke: black; stroke-width:0.25;"/>
<line x1="201.000000" y1="135.000000" x2="204.000000" y2="134.000000"  transform="rotate(0.000000,204.000000,134.000000)" style="stroke: black; stroke-width:0.25;"/>
<a xlink:href="denominator-0x60002c39f600.svg">
<rect x="101.200000" y="245.000000" width="51.600000" height="24.000000" rx="0" ry="0" style="stroke:none;fill:#cccccc;"/>
<rect x="100.200000" y="244.000000" width="51.600000" height="24.000000" rx="0" ry="0" style="stroke:none;fill:#003366;"/>
</a>
<a xlink:href="denominator-0x60002c39f600.svg">
<text x="126.000000" y="258.000000" font-family="Arial" font-size="7" text-anchor="middle" fill="#FFFFFF">denominator</text>
</a>
<circle cx="102.200000" cy="246.000000" r="1"/>
<rect x="245.000000" y="135.000000" width="24.000000" height="24.000000" rx="0" ry="0" style="stroke:none;fill:#cccccc;"/>
<rect x="244.000000" y="134.000000" width="24.000000" height="24.000000" rx="0" ry="0" style="stroke:none;fill:#4B71A1;"/>
<text x="256.000000" y="148.000000" font-family="Arial" font-size="7" text-anchor="middle" fill="#FFFFFF">/</text>
<circle cx="246.000000" cy="136.000000" r="1"/>
<line x1="241.000000" y1="141.000000" x2="244.000000" y2="142.000000"  transform="rotate(0.000000,244.000000,142.000000)" style="stroke: black; stroke-width:0.25;"/>
<line x1="241.000000" y1="143.000000" x2="244.000000" y2="142.000000"  transform="rotate(0.000000,244.000000,142.000000)" style="stroke: black; stroke-width:0.25;"/>
<line x1="241.000000" y1="149.000000" x2="244.000000" y2="150.000000"  transform="rotate(0.000000,244.000000,150.000000)" style="stroke: black; stroke-width:0.25;"/>
<line x1="241.000000" y1="151.000000" x2="244.000000" y2="150.000000"  transform="rotate(0.000000,244.000000,150.000000)" style="stroke: black; stroke-width:0.25;"/>
<line x1="15.000000" y1="15.000000" x2="15.000000" y2="277.000000"  style="stroke: black; stroke-linecap:round; stroke-width:0.25; stroke-dasharray:3,3;"/>
<line x1="15.000000" y1="277.000000" x2="285.000000" y2="277.000000"  style="stroke: black; stroke-linecap:round; stroke-width:0.25; stroke-dasharray:3,3;"/>
<line x1="285.000000" y1="277.000000" x2="285.000000" y2="15.000000"  style="stroke: black; stroke-linecap:round; stroke-width:0.25; stroke-dasharray:3,3;"/>
<line x1="15.000000" y1="15.000000" x2="20.000000" y2="15.000000"  style="stroke: black; stroke-linecap:round; stroke-width:0.25; stroke-dasharray:3,3;"/>
<line x1="32.900000" y1="15.000000" x2="285.000000" y2="15.000000"  style="stroke: black; stroke-linecap:round; stroke-width:0.25; stroke-dasharray:3,3;"/>
<text x="20.000000" y="17.000000" font-family="Arial" font-size="7">a2</text>
<line x1="287.000000" y1="145.000000" x2="290.000000" y2="146.000000"  transform="rotate(0.000000,290.000000,146.000000)" style="stroke: black; stroke-width:0.25;"/>
<line x1="287.000000" y1="147.000000" x2="290.000000" y2="146.000000"  transform="rotate(0.000000,290.000000,146.000000)" style="stroke: black; stroke-width:0.25;"/>
<line x1="58.000000" y1="36.000000" x2="62.000000" y2="36.000000"  style="stroke:black; stroke-linecap:round; stroke-width:0.25;"/>
<line x1="58.000000" y1="78.000000" x2="62.000000" y2="78.000000"  style="stroke:black; stroke-linecap:round; stroke-width:0.25;"/>
<line x1="62.000000" y1="36.000000" x2="72.000000" y2="36.000000"  style="stroke:black; stroke-linecap:round; stroke-width:0.25;"/>
<line x1="62.000000" y1="78.000000" x2="72.000000" y2="78.000000"  style="stroke:black; stroke-linecap:round; stroke-width:0.25;"/>
<line x1="72.000000" y1="36.000000" x2="80.000000" y2="36.000000"  style="stroke:black; stroke-linecap:round; stroke-width:0.25;"/>
<line x1="72.000000" y1="66.000000" x2="80.000000" y2="66.000000"  style="stroke:black; stroke-linecap:round; stroke-width:0.25;"/>
<line x1="72.000000" y1="78.000000" x2="72.000000" y2="66.000000"  style="stroke:black; stroke-linecap:round; stroke-width:0.25;"/>
<line x1="72.000000" y1="78.000000" x2="72.000000" y2="78.000000"  style="stroke:black; stroke-linecap:round; stroke-width:0.25;"/>
<line x1="80.000000" y1="36.000000" x2="80.000000" y2="58.000000"  style="stroke:black; stroke-linecap:round; stroke-width:0.25;"/>
<line x1="80.000000" y1="58.000000" x2="80.000000" y2="58.000000"  style="stroke:black; stroke-linecap:round; stroke-width:0.25;"/>
<line x1="80.000000" y1="58.000000" x2="84.000000" y2="58.000000"  style="stroke:black; stroke-linecap:round; stroke-width:0.25;"/>
<line x1="80.000000" y1="66.000000" x2="84.000000" y2="66.000000"  style="stroke:black; stroke-linecap:round; stroke-width:0.25;"/>
<line x1="85.350000" y1="130.000000" x2="89.350000" y2="130.000000"  style="stroke:black; stroke-linecap:round; stroke-width:0.25;"/>
<line x1="89.350000" y1="130.000000" x2="99.350000" y2="130.000000"  style="stroke:black; stroke-linecap:round; stroke-width:0.25;"/>
<line x1="98.000000" y1="172.000000" x2="102.000000" y2="172.000000"  style="stroke:black; stroke-linecap:round; stroke-width:0.25;"/>
<line x1="99.350000" y1="130.000000" x2="112.000000" y2="130.000000"  style="stroke:black; stroke-linecap:round; stroke-width:0.25;"/>
<line x1="102.000000" y1="172.000000" x2="152.000000" y2="172.000000"  style="stroke:black; stroke-linecap:round; stroke-width:0.25;"/>
<line x1="108.000000" y1="62.000000" x2="112.000000" y2="62.000000"  style="stroke:black; stroke-linecap:round; stroke-width:0.25;"/>
<line x1="112.000000" y1="62.000000" x2="120.000000" y2="62.000000"  style="stroke:black; stroke-linecap:round; stroke-width:0.25;"/>
<line x1="112.000000" y1="92.000000" x2="120.000000" y2="92.000000"  style="stroke:black; stroke-linecap:round; stroke-width:0.25;"/>
<line x1="112.000000" y1="130.000000" x2="112.000000" y2="92.000000"  style="stroke:black; stroke-linecap:round; stroke-width:0.25;"/>
<line x1="112.000000" y1="130.000000" x2="112.000000" y2="130.000000"  style="stroke:black; stroke-linecap:round; stroke-width:0.25;"/>
<line x1="120.000000" y1="62.000000" x2="120.000000" y2="84.000000"  style="stroke:black; stroke-linecap:round; stroke-width:0.25;"/>
<line x1="120.000000" y1="84.000000" x2="120.000000" y2="84.000000"  style="stroke:black; stroke-linecap:round; stroke-width:0.25;"/>
<line x1="120.000000" y1="84.000000" x2="124.000000" y2="84.000000"  style="stroke:black; stroke-linecap:round; stroke-width:0.25;"/>
<line x1="120.000000" y1="92.000000" x2="124.000000" y2="92.000000"  style="stroke:black; stroke-linecap:round; stroke-width:0.25;"/>
<line x1="125.350000" y1="214.000000" x2="129.350000" y2="214.000000"  style="stroke:black; stroke-linecap:round; stroke-width:0.25;"/>
<line x1="129.350000" y1="214.000000" x2="139.350000" y2="214.000000"  style="stroke:black; stroke-linecap:round; stroke-width:0.25;"/>
<line x1="139.350000" y1="214.000000" x2="192.000000" y2="214.000000"  style="stroke:black; stroke-linecap:round; stroke-width:0.25;"/>
<line x1="148.000000" y1="88.000000" x2="152.000000" y2="88.000000"  style="stroke:black; stroke-linecap:round; stroke-width:0.25;"/>
<line x1="151.800000" y1="256.000000" x2="155.800000" y2="256.000000"  style="stroke:black; stroke-linecap:round; stroke-width:0.25;"/>
<line x1="152.000000" y1="88.000000" x2="160.000000" y2="88.000000"  style="stroke:black; stroke-linecap:round; stroke-width:0.25;"/>
<line x1="152.000000" y1="108.000000" x2="160.000000" y2="108.000000"  style="stroke:black; stroke-linecap:round; stroke-width:0.25;"/>
<line x1="152.000000" y1="172.000000" x2="152.000000" y2="108.000000"  style="stroke:black; stroke-linecap:round; stroke-width:0.25;"/>
<line x1="152.000000" y1="172.000000" x2="152.000000" y2="172.000000"  style="stroke:black; stroke-linecap:round; stroke-width:0.25;"/>
<line x1="155.800000" y1="256.000000" x2="232.000000" y2="256.000000"  style="stroke:black; stroke-linecap:round; stroke-width:0.25;"/>
<line x1="160.000000" y1="88.000000" x2="160.000000" y2="100.000000"  style="stroke:black; stroke-linecap:round; stroke-width:0.25;"/>
<line x1="160.000000" y1="100.000000" x2="160.000000" y2="100.000000"  style="stroke:black; stroke-linecap:round; stroke-width:0.25;"/>
<line x1="160.000000" y1="100.000000" x2="164.000000" y2="100.000000"  style="stroke:black; stroke-linecap:round; stroke-width:0.25;"/>
<line x1="160.000000" y1="108.000000" x2="164.000000" y2="108.000000"  style="stroke:black; stroke-linecap:round; stroke-width:0.25;"/>
<line x1="188.000000" y1="104.000000" x2="192.000000" y2="104.000000"  style="stroke:black; stroke-linecap:round; stroke-width:0.25;"/>
<line x1="192.000000" y1="104.000000" x2="200.000000" y2="104.000000"  style="stroke:black; stroke-linecap:round; stroke-width:0.25;"/>
<line x1="192.000000" y1="134.000000" x2="200.000000" y2="134.000000"  style="stroke:black; stroke-linecap:round; stroke-width:0.25;"/>
<line x1="192.000000" y1="214.000000" x2="192.000000" y2="134.000000"  style="stroke:black; stroke-linecap:round; stroke-width:0.25;"/>
<line x1="192.000000" y1="214.000000" x2="192.000000" y2="214.000000"  style="stroke:black; stroke-linecap:round; stroke-width:0.25;"/>
<line x1="200.000000" y1="104.000000" x2="200.000000" y2="126.000000"  style="stroke:black; stroke-linecap:round; stroke-width:0.25;"/>
<line x1="200.000000" y1="126.000000" x2="200.000000" y2="126.000000"  style="stroke:black; stroke-linecap:round; stroke-width:0.25;"/>
<line x1="200.000000" y1="126.000000" x2="204.000000" y2="126.000000"  style="stroke:black; stroke-linecap:round; stroke-width:0.25;"/>
<line x1="200.000000" y1="134.000000" x2="204.000000" y2="134.000000"  style="stroke:black; stroke-linecap:round; stroke-width:0.25;"/>
<line x1="228.000000" y1="130.000000" x2="232.000000" y2="130.000000"  style="stroke:black; stroke-linecap:round; stroke-width:0.25;"/>
<line x1="232.000000" y1="130.000000" x2="240.000000" y2="130.000000"  style="stroke:black; stroke-linecap:round; stroke-width:0.25;"/>
<line x1="232.000000" y1="150.000000" x2="240.000000" y2="150.000000"  style="stroke:black; stroke-linecap:round; stroke-width:0.25;"/>
<line x1="232.000000" y1="256.000000" x2="232.000000" y2="150.000000"  style="stroke:black; stroke-linecap:round; stroke-width:0.25;"/>
<line x1="232.000000" y1="256.000000" x2="232.000000" y2="256.000000"  style="stroke:black; stroke-linecap:round; stroke-width:0.25;"/>
<line x1="240.000000" y1="130.000000" x2="240.000000" y2="142.000000"  style="stroke:black; stroke-linecap:round; stroke-width:0.25;"/>
<line x1="240.000000" y1="142.000000" x2="240.000000" y2="142.000000"  style="stroke:black; stroke-linecap:round; stroke-width:0.25;"/>
<line x1="240.000000" y1="142.000000" x2="244.000000" y2="142.000000"  style="stroke:black; stroke-linecap:round; stroke-width:0.25;"/>
<line x1="240.000000" y1="150.000000" x2="244.000000" y2="150.000000"  style="stroke:black; stroke-linecap:round; stroke-width:0.25;"/>
<line x1="268.000000" y1="146.000000" x2="272.000000" y2="146.000000"  style="stroke:black; stroke-linecap:round; stroke-width:0.25;"/>
<line x1="272.000000" y1="146.000000" x2="272.000000" y2="146.000000"  style="stroke:black; stroke-linecap:round; stroke-width:0.25;"/>
<line x1="272.000000" y1="146.000000" x2="276.000000" y2="146.000000"  style="stroke:black; stroke-linecap:round; stroke-width:0.25;"/>
<line x1="276.000000" y1="146.000000" x2="280.000000" y2="146.000000"  style="stroke:black; stroke-linecap:round; stroke-width:0.25;"/>
<line x1="280.000000" y1="146.000000" x2="290.000000" y2="146.000000"  style="stroke:black; stroke-linecap:round; stroke-width:0.25;"/>
</svg>
