<?xml version="1.0"?>
<svg xmlns="http://www.w3.org/2000/svg" xmlns:xlink="http://www.w3.org/1999/xlink" viewBox="0 0 615.100000 168.000000" width="307.550000mm" height="84.000000mm" version="1.1">
<a xlink:href="gain-0x60014416d440.svg">
<rect x="1.000000" y="1.000000" width="614.100000" height="167.000000" rx="0" ry="0" style="stroke:none;fill:#cccccc;"/>
<rect x="0.000000" y="0.000000" width="614.100000" height="167.000000" rx="0" ry="0" style="stroke:none;fill:#ffffff;"/>
</a>
<text x="10.000000" y="7.000000" font-family="Arial" font-size="7"></text>
<rect x="25.000000" y="25.000000" width="451.500000" height="24.000000" rx="0" ry="0" style="stroke:none;fill:#cccccc;"/>
<rect x="24.000000" y="24.000000" width="451.500000" height="24.000000" rx="0" ry="0" style="stroke:none;fill:#477881;"/>
<text x="249.750000" y="38.000000" font-family="Arial" font-size="7" text-anchor="middle" fill="#FFFFFF">vslider(v:soundsgood/t:expert/h:mscomp/h:low band/low attack, 15.0f, 0.0f, 100.0f, 0.10000000000000001f)</text>
<circle cx="26.000000" cy="26.000000" r="1"/>
<rect x="237.850000" y="57.000000" width="25.800000" height="24.000000" rx="0" ry="0" style="stroke:none;fill:#cccccc;"/>
<rect x="236.850000" y="56.000000" width="25.800000" height="24.000000" rx="0" ry="0" style="stroke:none;fill:#f44800;"/>
<text x="249.750000" y="70.000000" font-family="Arial" font-size="7" text-anchor="middle" fill="#FFFFFF">0.001</text>
<circle cx="238.850000" cy="58.000000" r="1"/>
<rect x="492.500000" y="41.000000" width="24.000000" height="24.000000" rx="0" ry="0" style="stroke:none;fill:#cccccc;"/>
<rect x="491.500000" y="40.000000" width="24.000000" height="24.000000" rx="0" ry="0" style="stroke:none;fill:#4B71A1;"/>
<text x="503.500000" y="54.000000" font-family="Arial" font-size="7" text-anchor="middle" fill="#FFFFFF">*</text>
<circle cx="493.500000" cy="42.000000" r="1"/>
<line x1="488.500000" y1="47.000000" x2="491.500000" y2="48.000000"  transform="rotate(0.000000,491.500000,48.000000)" style="stroke: black; stroke-width:0.25;"/>
<line x1="488.500000" y1="49.000000" x2="491.500000" y2="48.000000"  transform="rotate(0.000000,491.500000,48.000000)" style="stroke: black; stroke-width:0.25;"/>
<line x1="488.500000" y1="55.000000" x2="491.500000" y2="56.000000"  transform="rotate(0.000000,491.500000,56.000000)" style="stroke: black; stroke-width:0.25;"/>
<line x1="488.500000" y1="57.000000" x2="491.500000" y2="56.000000"  transform="rotate(0.000000,491.500000,56.000000)" style="stroke: black; stroke-width:0.25;"/>
<rect x="25.000000" y="89.000000" width="451.500000" height="24.000000" rx="0" ry="0" style="stroke:none;fill:#cccccc;"/>
<rect x="24.000000" y="88.000000" width="451.500000" height="24.000000" rx="0" ry="0" style="stroke:none;fill:#477881;"/>
<text x="249.750000" y="102.000000" font-family="Arial" font-size="7" text-anchor="middle" fill="#FFFFFF">vslider(v:soundsgood/t:expert/h:mscomp/h:high band/high attack, 3.0f, 0.0f, 100.0f, 0.10000000000000001f)</text>
<circle cx="26.000000" cy="90.000000" r="1"/>
<rect x="237.850000" y="121.000000" width="25.800000" height="24.000000" rx="0" ry="0" style="stroke:none;fill:#cccccc;"/>
<rect x="236.850000" y="120.000000" width="25.800000" height="24.000000" rx="0" ry="0" style="stroke:none;fill:#f44800;"/>
<text x="249.750000" y="134.000000" font-family="Arial" font-size="7" text-anchor="middle" fill="#FFFFFF">0.001</text>
<circle cx="238.850000" cy="122.000000" r="1"/>
<rect x="492.500000" y="105.000000" width="24.000000" height="24.000000" rx="0" ry="0" style="stroke:none;fill:#cccccc;"/>
<rect x="491.500000" y="104.000000" width="24.000000" height="24.000000" rx="0" ry="0" style="stroke:none;fill:#4B71A1;"/>
<text x="503.500000" y="118.000000" font-family="Arial" font-size="7" text-anchor="middle" fill="#FFFFFF">*</text>
<circle cx="493.500000" cy="106.000000" r="1"/>
<line x1="488.500000" y1="111.000000" x2="491.500000" y2="112.000000"  transform="rotate(0.000000,491.500000,112.000000)" style="stroke: black; stroke-width:0.25;"/>
<line x1="488.500000" y1="113.000000" x2="491.500000" y2="112.000000"  transform="rotate(0.000000,491.500000,112.000000)" style="stroke: black; stroke-width:0.25;"/>
<line x1="488.500000" y1="119.000000" x2="491.500000" y2="120.000000"  transform="rotate(0.000000,491.500000,120.000000)" style="stroke: black; stroke-width:0.25;"/>
<line x1="488.500000" y1="121.000000" x2="491.500000" y2="120.000000"  transform="rotate(0.000000,491.500000,120.000000)" style="stroke: black; stroke-width:0.25;"/>
<a xlink:href="LogArray-0x60013c0cfcc0.svg">
<rect x="532.500000" y="53.000000" width="51.600000" height="64.000000" rx="0" ry="0" style="stroke:none;fill:#cccccc;"/>
<rect x="531.500000" y="52.000000" width="51.600000" height="64.000000" rx="0" ry="0" style="stroke:none;fill:#003366;"/>
</a>
<a xlink:href="LogArray-0x60013c0cfcc0.svg">
<text x="557.300000" y="86.000000" font-family="Arial" font-size="7" text-anchor="middle" fill="#FFFFFF">LogArray(8)</text>
</a>
<circle cx="533.500000" cy="54.000000" r="1"/>
<line x1="528.500000" y1="79.000000" x2="531.500000" y2="80.000000"  transform="rotate(0.000000,531.500000,80.000000)" style="stroke: black; stroke-width:0.25;"/>
<line x1="528.500000" y1="81.000000" x2="531.500000" y2="80.000000"  transform="rotate(0.000000,531.500000,80.000000)" style="stroke: black; stroke-width:0.25;"/>
<line x1="528.500000" y1="87.000000" x2="531.500000" y2="88.000000"  transform="rotate(0.000000,531.500000,88.000000)" style="stroke: black; stroke-width:0.25;"/>
<line x1="528.500000" y1="89.000000" x2="531.500000" y2="88.000000"  transform="rotate(0.000000,531.500000,88.000000)" style="stroke: black; stroke-width:0.25;"/>
<line x1="15.000000" y1="15.000000" x2="15.000000" y2="153.000000"  style="stroke: black; stroke-linecap:round; stroke-width:0.25; stroke-dasharray:3,3;"/>
<line x1="15.000000" y1="153.000000" x2="600.100000" y2="153.000000"  style="stroke: black; stroke-linecap:round; stroke-width:0.25; stroke-dasharray:3,3;"/>
<line x1="600.100000" y1="153.000000" x2="600.100000" y2="15.000000"  style="stroke: black; stroke-linecap:round; stroke-width:0.25; stroke-dasharray:3,3;"/>
<line x1="15.000000" y1="15.000000" x2="20.000000" y2="15.000000"  style="stroke: black; stroke-linecap:round; stroke-width:0.25; stroke-dasharray:3,3;"/>
<line x1="55.475000" y1="15.000000" x2="600.100000" y2="15.000000"  style="stroke: black; stroke-linecap:round; stroke-width:0.25; stroke-dasharray:3,3;"/>
<text x="20.000000" y="17.000000" font-family="Arial" font-size="7">att_array</text>
<line x1="602.100000" y1="55.000000" x2="605.100000" y2="56.000000"  transform="rotate(0.000000,605.100000,56.000000)" style="stroke: black; stroke-width:0.25;"/>
<line x1="602.100000" y1="57.000000" x2="605.100000" y2="56.000000"  transform="rotate(0.000000,605.100000,56.000000)" style="stroke: black; stroke-width:0.25;"/>
<line x1="602.100000" y1="63.000000" x2="605.100000" y2="64.000000"  transform="rotate(0.000000,605.100000,64.000000)" style="stroke: black; stroke-width:0.25;"/>
<line x1="602.100000" y1="65.000000" x2="605.100000" y2="64.000000"  transform="rotate(0.000000,605.100000,64.000000)" style="stroke: black; stroke-width:0.25;"/>
<line x1="602.100000" y1="71.000000" x2="605.100000" y2="72.000000"  transform="rotate(0.000000,605.100000,72.000000)" style="stroke: black; stroke-width:0.25;"/>
<line x1="602.100000" y1="73.000000" x2="605.100000" y2="72.000000"  transform="rotate(0.000000,605.100000,72.000000)" style="stroke: black; stroke-width:0.25;"/>
<line x1="602.100000" y1="79.000000" x2="605.100000" y2="80.000000"  transform="rotate(0.000000,605.100000,80.000000)" style="stroke: black; stroke-width:0.25;"/>
<line x1="602.100000" y1="81.000000" x2="605.100000" y2="80.000000"  transform="rotate(0.000000,605.100000,80.000000)" style="stroke: black; stroke-width:0.25;"/>
<line x1="602.100000" y1="87.000000" x2="605.100000" y2="88.000000"  transform="rotate(0.000000,605.100000,88.000000)" style="stroke: black; stroke-width:0.25;"/>
<line x1="602.100000" y1="89.000000" x2="605.100000" y2="88.000000"  transform="rotate(0.000000,605.100000,88.000000)" style="stroke: black; stroke-width:0.25;"/>
<line x1="602.100000" y1="95.000000" x2="605.100000" y2="96.000000"  transform="rotate(0.000000,605.100000,96.000000)" style="stroke: black; stroke-width:0.25;"/>
<line x1="602.100000" y1="97.000000" x2="605.100000" y2="96.000000"  transform="rotate(0.000000,605.100000,96.000000)" style="stroke: black; stroke-width:0.25;"/>
<line x1="602.100000" y1="103.000000" x2="605.100000" y2="104.000000"  transform="rotate(0.000000,605.100000,104.000000)" style="stroke: black; stroke-width:0.25;"/>
<line x1="602.100000" y1="105.000000" x2="605.100000" y2="104.000000"  transform="rotate(0.000000,605.100000,104.000000)" style="stroke: black; stroke-width:0.25;"/>
<line x1="602.100000" y1="111.000000" x2="605.100000" y2="112.000000"  transform="rotate(0.000000,605.100000,112.000000)" style="stroke: black; stroke-width:0.25;"/>
<line x1="602.100000" y1="113.000000" x2="605.100000" y2="112.000000"  transform="rotate(0.000000,605.100000,112.000000)" style="stroke: black; stroke-width:0.25;"/>
<line x1="262.650000" y1="68.000000" x2="266.650000" y2="68.000000"  style="stroke:black; stroke-linecap:round; stroke-width:0.25;"/>
<line x1="262.650000" y1="132.000000" x2="266.650000" y2="132.000000"  style="stroke:black; stroke-linecap:round; stroke-width:0.25;"/>
<line x1="266.650000" y1="68.000000" x2="479.500000" y2="68.000000"  style="stroke:black; stroke-linecap:round; stroke-width:0.25;"/>
<line x1="266.650000" y1="132.000000" x2="479.500000" y2="132.000000"  style="stroke:black; stroke-linecap:round; stroke-width:0.25;"/>
<line x1="475.500000" y1="36.000000" x2="479.500000" y2="36.000000"  style="stroke:black; stroke-linecap:round; stroke-width:0.25;"/>
<line x1="475.500000" y1="100.000000" x2="479.500000" y2="100.000000"  style="stroke:black; stroke-linecap:round; stroke-width:0.25;"/>
<line x1="479.500000" y1="36.000000" x2="487.500000" y2="36.000000"  style="stroke:black; stroke-linecap:round; stroke-width:0.25;"/>
<line x1="479.500000" y1="56.000000" x2="487.500000" y2="56.000000"  style="stroke:black; stroke-linecap:round; stroke-width:0.25;"/>
<line x1="479.500000" y1="68.000000" x2="479.500000" y2="56.000000"  style="stroke:black; stroke-linecap:round; stroke-width:0.25;"/>
<line x1="479.500000" y1="68.000000" x2="479.500000" y2="68.000000"  style="stroke:black; stroke-linecap:round; stroke-width:0.25;"/>
<line x1="479.500000" y1="100.000000" x2="487.500000" y2="100.000000"  style="stroke:black; stroke-linecap:round; stroke-width:0.25;"/>
<line x1="479.500000" y1="120.000000" x2="487.500000" y2="120.000000"  style="stroke:black; stroke-linecap:round; stroke-width:0.25;"/>
<line x1="479.500000" y1="132.000000" x2="479.500000" y2="120.000000"  style="stroke:black; stroke-linecap:round; stroke-width:0.25;"/>
<line x1="479.500000" y1="132.000000" x2="479.500000" y2="132.000000"  style="stroke:black; stroke-linecap:round; stroke-width:0.25;"/>
<line x1="487.500000" y1="36.000000" x2="487.500000" y2="48.000000"  style="stroke:black; stroke-linecap:round; stroke-width:0.25;"/>
<line x1="487.500000" y1="48.000000" x2="487.500000" y2="48.000000"  style="stroke:black; stroke-linecap:round; stroke-width:0.25;"/>
<line x1="487.500000" y1="48.000000" x2="491.500000" y2="48.000000"  style="stroke:black; stroke-linecap:round; stroke-width:0.25;"/>
<line x1="487.500000" y1="56.000000" x2="491.500000" y2="56.000000"  style="stroke:black; stroke-linecap:round; stroke-width:0.25;"/>
<line x1="487.500000" y1="100.000000" x2="487.500000" y2="112.000000"  style="stroke:black; stroke-linecap:round; stroke-width:0.25;"/>
<line x1="487.500000" y1="112.000000" x2="487.500000" y2="112.000000"  style="stroke:black; stroke-linecap:round; stroke-width:0.25;"/>
<line x1="487.500000" y1="112.000000" x2="491.500000" y2="112.000000"  style="stroke:black; stroke-linecap:round; stroke-width:0.25;"/>
<line x1="487.500000" y1="120.000000" x2="491.500000" y2="120.000000"  style="stroke:black; stroke-linecap:round; stroke-width:0.25;"/>
<line x1="515.500000" y1="52.000000" x2="519.500000" y2="52.000000"  style="stroke:black; stroke-linecap:round; stroke-width:0.25;"/>
<line x1="515.500000" y1="116.000000" x2="519.500000" y2="116.000000"  style="stroke:black; stroke-linecap:round; stroke-width:0.25;"/>
<line x1="519.500000" y1="52.000000" x2="527.500000" y2="52.000000"  style="stroke:black; stroke-linecap:round; stroke-width:0.25;"/>
<line x1="519.500000" y1="88.000000" x2="527.500000" y2="88.000000"  style="stroke:black; stroke-linecap:round; stroke-width:0.25;"/>
<line x1="519.500000" y1="116.000000" x2="519.500000" y2="88.000000"  style="stroke:black; stroke-linecap:round; stroke-width:0.25;"/>
<line x1="519.500000" y1="116.000000" x2="519.500000" y2="116.000000"  style="stroke:black; stroke-linecap:round; stroke-width:0.25;"/>
<line x1="527.500000" y1="52.000000" x2="527.500000" y2="80.000000"  style="stroke:black; stroke-linecap:round; stroke-width:0.25;"/>
<line x1="527.500000" y1="80.000000" x2="527.500000" y2="80.000000"  style="stroke:black; stroke-linecap:round; stroke-width:0.25;"/>
<line x1="527.500000" y1="80.000000" x2="531.500000" y2="80.000000"  style="stroke:black; stroke-linecap:round; stroke-width:0.25;"/>
<line x1="527.500000" y1="88.000000" x2="531.500000" y2="88.000000"  style="stroke:black; stroke-linecap:round; stroke-width:0.25;"/>
<line x1="583.100000" y1="56.000000" x2="587.100000" y2="56.000000"  style="stroke:black; stroke-linecap:round; stroke-width:0.25;"/>
<line x1="583.100000" y1="64.000000" x2="587.100000" y2="64.000000"  style="stroke:black; stroke-linecap:round; stroke-width:0.25;"/>
<line x1="583.100000" y1="72.000000" x2="587.100000" y2="72.000000"  style="stroke:black; stroke-linecap:round; stroke-width:0.25;"/>
<line x1="583.100000" y1="80.000000" x2="587.100000" y2="80.000000"  style="stroke:black; stroke-linecap:round; stroke-width:0.25;"/>
<line x1="583.100000" y1="88.000000" x2="587.100000" y2="88.000000"  style="stroke:black; stroke-linecap:round; stroke-width:0.25;"/>
<line x1="583.100000" y1="96.000000" x2="587.100000" y2="96.000000"  style="stroke:black; stroke-linecap:round; stroke-width:0.25;"/>
<line x1="583.100000" y1="104.000000" x2="587.100000" y2="104.000000"  style="stroke:black; stroke-linecap:round; stroke-width:0.25;"/>
<line x1="583.100000" y1="112.000000" x2="587.100000" y2="112.000000"  style="stroke:black; stroke-linecap:round; stroke-width:0.25;"/>
<line x1="587.100000" y1="56.000000" x2="587.100000" y2="56.000000"  style="stroke:black; stroke-linecap:round; stroke-width:0.25;"/>
<line x1="587.100000" y1="56.000000" x2="591.100000" y2="56.000000"  style="stroke:black; stroke-linecap:round; stroke-width:0.25;"/>
<line x1="587.100000" y1="64.000000" x2="587.100000" y2="64.000000"  style="stroke:black; stroke-linecap:round; stroke-width:0.25;"/>
<line x1="587.100000" y1="64.000000" x2="591.100000" y2="64.000000"  style="stroke:black; stroke-linecap:round; stroke-width:0.25;"/>
<line x1="587.100000" y1="72.000000" x2="587.100000" y2="72.000000"  style="stroke:black; stroke-linecap:round; stroke-width:0.25;"/>
<line x1="587.100000" y1="72.000000" x2="591.100000" y2="72.000000"  style="stroke:black; stroke-linecap:round; stroke-width:0.25;"/>
<line x1="587.100000" y1="80.000000" x2="587.100000" y2="80.000000"  style="stroke:black; stroke-linecap:round; stroke-width:0.25;"/>
<line x1="587.100000" y1="80.000000" x2="591.100000" y2="80.000000"  style="stroke:black; stroke-linecap:round; stroke-width:0.25;"/>
<line x1="587.100000" y1="88.000000" x2="587.100000" y2="88.000000"  style="stroke:black; stroke-linecap:round; stroke-width:0.25;"/>
<line x1="587.100000" y1="88.000000" x2="591.100000" y2="88.000000"  style="stroke:black; stroke-linecap:round; stroke-width:0.25;"/>
<line x1="587.100000" y1="96.000000" x2="587.100000" y2="96.000000"  style="stroke:black; stroke-linecap:round; stroke-width:0.25;"/>
<line x1="587.100000" y1="96.000000" x2="591.100000" y2="96.000000"  style="stroke:black; stroke-linecap:round; stroke-width:0.25;"/>
<line x1="587.100000" y1="104.000000" x2="587.100000" y2="104.000000"  style="stroke:black; stroke-linecap:round; stroke-width:0.25;"/>
<line x1="587.100000" y1="104.000000" x2="591.100000" y2="104.000000"  style="stroke:black; stroke-linecap:round; stroke-width:0.25;"/>
<line x1="587.100000" y1="112.000000" x2="587.100000" y2="112.000000"  style="stroke:black; stroke-linecap:round; stroke-width:0.25;"/>
<line x1="587.100000" y1="112.000000" x2="591.100000" y2="112.000000"  style="stroke:black; stroke-linecap:round; stroke-width:0.25;"/>
<line x1="591.100000" y1="56.000000" x2="595.100000" y2="56.000000"  style="stroke:black; stroke-linecap:round; stroke-width:0.25;"/>
<line x1="591.100000" y1="64.000000" x2="595.100000" y2="64.000000"  style="stroke:black; stroke-linecap:round; stroke-width:0.25;"/>
<line x1="591.100000" y1="72.000000" x2="595.100000" y2="72.000000"  style="stroke:black; stroke-linecap:round; stroke-width:0.25;"/>
<line x1="591.100000" y1="80.000000" x2="595.100000" y2="80.000000"  style="stroke:black; stroke-linecap:round; stroke-width:0.25;"/>
<line x1="591.100000" y1="88.000000" x2="595.100000" y2="88.000000"  style="stroke:black; stroke-linecap:round; stroke-width:0.25;"/>
<line x1="591.100000" y1="96.000000" x2="595.100000" y2="96.000000"  style="stroke:black; stroke-linecap:round; stroke-width:0.25;"/>
<line x1="591.100000" y1="104.000000" x2="595.100000" y2="104.000000"  style="stroke:black; stroke-linecap:round; stroke-width:0.25;"/>
<line x1="591.100000" y1="112.000000" x2="595.100000" y2="112.000000"  style="stroke:black; stroke-linecap:round; stroke-width:0.25;"/>
<line x1="595.100000" y1="56.000000" x2="605.100000" y2="56.000000"  style="stroke:black; stroke-linecap:round; stroke-width:0.25;"/>
<line x1="595.100000" y1="64.000000" x2="605.100000" y2="64.000000"  style="stroke:black; stroke-linecap:round; stroke-width:0.25;"/>
<line x1="595.100000" y1="72.000000" x2="605.100000" y2="72.000000"  style="stroke:black; stroke-linecap:round; stroke-width:0.25;"/>
<line x1="595.100000" y1="80.000000" x2="605.100000" y2="80.000000"  style="stroke:black; stroke-linecap:round; stroke-width:0.25;"/>
<line x1="595.100000" y1="88.000000" x2="605.100000" y2="88.000000"  style="stroke:black; stroke-linecap:round; stroke-width:0.25;"/>
<line x1="595.100000" y1="96.000000" x2="605.100000" y2="96.000000"  style="stroke:black; stroke-linecap:round; stroke-width:0.25;"/>
<line x1="595.100000" y1="104.000000" x2="605.100000" y2="104.000000"  style="stroke:black; stroke-linecap:round; stroke-width:0.25;"/>
<line x1="595.100000" y1="112.000000" x2="605.100000" y2="112.000000"  style="stroke:black; stroke-linecap:round; stroke-width:0.25;"/>
</svg>
