<?xml version="1.0"?>
<svg xmlns="http://www.w3.org/2000/svg" xmlns:xlink="http://www.w3.org/1999/xlink" viewBox="0 0 453.600000 188.000000" width="226.800000mm" height="94.000000mm" version="1.1">
<a xlink:href="corr-0x6000c40e9050.svg">
<rect x="1.000000" y="1.000000" width="452.600000" height="187.000000" rx="0" ry="0" style="stroke:none;fill:#cccccc;"/>
<rect x="0.000000" y="0.000000" width="452.600000" height="187.000000" rx="0" ry="0" style="stroke:none;fill:#ffffff;"/>
</a>
<text x="10.000000" y="7.000000" font-family="Arial" font-size="7"></text>
<rect x="103.300000" y="35.000000" width="24.000000" height="24.000000" rx="0" ry="0" style="stroke:none;fill:#cccccc;"/>
<rect x="102.300000" y="34.000000" width="24.000000" height="24.000000" rx="0" ry="0" style="stroke:none;fill:#f44800;"/>
<text x="114.300000" y="48.000000" font-family="Arial" font-size="7" text-anchor="middle" fill="#FFFFFF">1</text>
<circle cx="104.300000" cy="36.000000" r="1"/>
<line x1="93.300000" y1="25.000000" x2="93.300000" y2="67.000000"  style="stroke: black; stroke-linecap:round; stroke-width:0.25; stroke-dasharray:3,3;"/>
<line x1="93.300000" y1="67.000000" x2="135.300000" y2="67.000000"  style="stroke: black; stroke-linecap:round; stroke-width:0.25; stroke-dasharray:3,3;"/>
<line x1="135.300000" y1="67.000000" x2="135.300000" y2="25.000000"  style="stroke: black; stroke-linecap:round; stroke-width:0.25; stroke-dasharray:3,3;"/>
<line x1="93.300000" y1="25.000000" x2="98.300000" y2="25.000000"  style="stroke: black; stroke-linecap:round; stroke-width:0.25; stroke-dasharray:3,3;"/>
<line x1="127.325000" y1="25.000000" x2="135.300000" y2="25.000000"  style="stroke: black; stroke-linecap:round; stroke-width:0.25; stroke-dasharray:3,3;"/>
<text x="98.300000" y="27.000000" font-family="Arial" font-size="7">pow2(0)</text>
<a xlink:href="p-0x600038196490.svg">
<rect x="103.300000" y="77.000000" width="24.000000" height="24.000000" rx="0" ry="0" style="stroke:none;fill:#cccccc;"/>
<rect x="102.300000" y="76.000000" width="24.000000" height="24.000000" rx="0" ry="0" style="stroke:none;fill:#003366;"/>
</a>
<a xlink:href="p-0x600038196490.svg">
<text x="114.300000" y="90.000000" font-family="Arial" font-size="7" text-anchor="middle" fill="#FFFFFF">p</text>
</a>
<circle cx="104.300000" cy="78.000000" r="1"/>
<rect x="153.300000" y="51.000000" width="24.000000" height="24.000000" rx="0" ry="0" style="stroke:none;fill:#cccccc;"/>
<rect x="152.300000" y="50.000000" width="24.000000" height="24.000000" rx="0" ry="0" style="stroke:none;fill:#4B71A1;"/>
<text x="164.300000" y="64.000000" font-family="Arial" font-size="7" text-anchor="middle" fill="#FFFFFF">-</text>
<circle cx="154.300000" cy="52.000000" r="1"/>
<line x1="149.300000" y1="57.000000" x2="152.300000" y2="58.000000"  transform="rotate(0.000000,152.300000,58.000000)" style="stroke: black; stroke-width:0.25;"/>
<line x1="149.300000" y1="59.000000" x2="152.300000" y2="58.000000"  transform="rotate(0.000000,152.300000,58.000000)" style="stroke: black; stroke-width:0.25;"/>
<line x1="149.300000" y1="65.000000" x2="152.300000" y2="66.000000"  transform="rotate(0.000000,152.300000,66.000000)" style="stroke: black; stroke-width:0.25;"/>
<line x1="149.300000" y1="67.000000" x2="152.300000" y2="66.000000"  transform="rotate(0.000000,152.300000,66.000000)" style="stroke: black; stroke-width:0.25;"/>
<a xlink:href="corr-0x6000c40af450.svg">
<rect x="25.000000" y="109.000000" width="180.600000" height="24.000000" rx="0" ry="0" style="stroke:none;fill:#cccccc;"/>
<rect x="24.000000" y="108.000000" width="180.600000" height="24.000000" rx="0" ry="0" style="stroke:none;fill:#003366;"/>
</a>
<a xlink:href="corr-0x6000c40af450.svg">
<text x="114.300000" y="122.000000" font-family="Arial" font-size="7" text-anchor="middle" fill="#FFFFFF">corr(0.20000000000000001f)(x1115)(x1116)</text>
</a>
<circle cx="26.000000" cy="110.000000" r="1"/>
<rect x="95.950000" y="141.000000" width="38.700000" height="24.000000" rx="0" ry="0" style="stroke:none;fill:#cccccc;"/>
<rect x="94.950000" y="140.000000" width="38.700000" height="24.000000" rx="0" ry="0" style="stroke:none;fill:#f44800;"/>
<text x="114.300000" y="154.000000" font-family="Arial" font-size="7" text-anchor="middle" fill="#FFFFFF">-0.9999</text>
<circle cx="96.950000" cy="142.000000" r="1"/>
<rect x="221.600000" y="125.000000" width="24.000000" height="24.000000" rx="0" ry="0" style="stroke:none;fill:#cccccc;"/>
<rect x="220.600000" y="124.000000" width="24.000000" height="24.000000" rx="0" ry="0" style="stroke:none;fill:#4B71A1;"/>
<text x="232.600000" y="138.000000" font-family="Arial" font-size="7" text-anchor="middle" fill="#FFFFFF">&lt;</text>
<circle cx="222.600000" cy="126.000000" r="1"/>
<line x1="217.600000" y1="131.000000" x2="220.600000" y2="132.000000"  transform="rotate(0.000000,220.600000,132.000000)" style="stroke: black; stroke-width:0.25;"/>
<line x1="217.600000" y1="133.000000" x2="220.600000" y2="132.000000"  transform="rotate(0.000000,220.600000,132.000000)" style="stroke: black; stroke-width:0.25;"/>
<line x1="217.600000" y1="139.000000" x2="220.600000" y2="140.000000"  transform="rotate(0.000000,220.600000,140.000000)" style="stroke: black; stroke-width:0.25;"/>
<line x1="217.600000" y1="141.000000" x2="220.600000" y2="140.000000"  transform="rotate(0.000000,220.600000,140.000000)" style="stroke: black; stroke-width:0.25;"/>
<rect x="261.600000" y="83.000000" width="24.000000" height="24.000000" rx="0" ry="0" style="stroke:none;fill:#cccccc;"/>
<rect x="260.600000" y="82.000000" width="24.000000" height="24.000000" rx="0" ry="0" style="stroke:none;fill:#4B71A1;"/>
<text x="272.600000" y="96.000000" font-family="Arial" font-size="7" text-anchor="middle" fill="#FFFFFF">*</text>
<circle cx="262.600000" cy="84.000000" r="1"/>
<line x1="257.600000" y1="89.000000" x2="260.600000" y2="90.000000"  transform="rotate(0.000000,260.600000,90.000000)" style="stroke: black; stroke-width:0.25;"/>
<line x1="257.600000" y1="91.000000" x2="260.600000" y2="90.000000"  transform="rotate(0.000000,260.600000,90.000000)" style="stroke: black; stroke-width:0.25;"/>
<line x1="257.600000" y1="97.000000" x2="260.600000" y2="98.000000"  transform="rotate(0.000000,260.600000,98.000000)" style="stroke: black; stroke-width:0.25;"/>
<line x1="257.600000" y1="99.000000" x2="260.600000" y2="98.000000"  transform="rotate(0.000000,260.600000,98.000000)" style="stroke: black; stroke-width:0.25;"/>
<a xlink:href="pole-0x600038188240.svg">
<rect x="293.600000" y="83.000000" width="129.000000" height="24.000000" rx="0" ry="0" style="stroke:none;fill:#cccccc;"/>
<rect x="292.600000" y="82.000000" width="129.000000" height="24.000000" rx="0" ry="0" style="stroke:none;fill:#003366;"/>
</a>
<a xlink:href="pole-0x600038188240.svg">
<text x="357.100000" y="96.000000" font-family="Arial" font-size="7" text-anchor="middle" fill="#FFFFFF">pole(-31.4159...n) : / : exp)</text>
</a>
<circle cx="294.600000" cy="84.000000" r="1"/>
<line x1="289.600000" y1="93.000000" x2="292.600000" y2="94.000000"  transform="rotate(0.000000,292.600000,94.000000)" style="stroke: black; stroke-width:0.25;"/>
<line x1="289.600000" y1="95.000000" x2="292.600000" y2="94.000000"  transform="rotate(0.000000,292.600000,94.000000)" style="stroke: black; stroke-width:0.25;"/>
<line x1="15.000000" y1="15.000000" x2="15.000000" y2="173.000000"  style="stroke: black; stroke-linecap:round; stroke-width:0.25; stroke-dasharray:3,3;"/>
<line x1="15.000000" y1="173.000000" x2="438.600000" y2="173.000000"  style="stroke: black; stroke-linecap:round; stroke-width:0.25; stroke-dasharray:3,3;"/>
<line x1="438.600000" y1="173.000000" x2="438.600000" y2="15.000000"  style="stroke: black; stroke-linecap:round; stroke-width:0.25; stroke-dasharray:3,3;"/>
<line x1="15.000000" y1="15.000000" x2="20.000000" y2="15.000000"  style="stroke: black; stroke-linecap:round; stroke-width:0.25; stroke-dasharray:3,3;"/>
<line x1="119.975000" y1="15.000000" x2="438.600000" y2="15.000000"  style="stroke: black; stroke-linecap:round; stroke-width:0.25; stroke-dasharray:3,3;"/>
<text x="20.000000" y="17.000000" font-family="Arial" font-size="7">avg(0.2000000...0000001f : &lt;)</text>
<line x1="440.600000" y1="93.000000" x2="443.600000" y2="94.000000"  transform="rotate(0.000000,443.600000,94.000000)" style="stroke: black; stroke-width:0.25;"/>
<line x1="440.600000" y1="95.000000" x2="443.600000" y2="94.000000"  transform="rotate(0.000000,443.600000,94.000000)" style="stroke: black; stroke-width:0.25;"/>
<line x1="126.300000" y1="46.000000" x2="130.300000" y2="46.000000"  style="stroke:black; stroke-linecap:round; stroke-width:0.25;"/>
<line x1="126.300000" y1="88.000000" x2="130.300000" y2="88.000000"  style="stroke:black; stroke-linecap:round; stroke-width:0.25;"/>
<line x1="130.300000" y1="46.000000" x2="140.300000" y2="46.000000"  style="stroke:black; stroke-linecap:round; stroke-width:0.25;"/>
<line x1="130.300000" y1="88.000000" x2="140.300000" y2="88.000000"  style="stroke:black; stroke-linecap:round; stroke-width:0.25;"/>
<line x1="133.650000" y1="152.000000" x2="137.650000" y2="152.000000"  style="stroke:black; stroke-linecap:round; stroke-width:0.25;"/>
<line x1="137.650000" y1="152.000000" x2="208.600000" y2="152.000000"  style="stroke:black; stroke-linecap:round; stroke-width:0.25;"/>
<line x1="140.300000" y1="46.000000" x2="148.300000" y2="46.000000"  style="stroke:black; stroke-linecap:round; stroke-width:0.25;"/>
<line x1="140.300000" y1="66.000000" x2="148.300000" y2="66.000000"  style="stroke:black; stroke-linecap:round; stroke-width:0.25;"/>
<line x1="140.300000" y1="88.000000" x2="140.300000" y2="66.000000"  style="stroke:black; stroke-linecap:round; stroke-width:0.25;"/>
<line x1="140.300000" y1="88.000000" x2="140.300000" y2="88.000000"  style="stroke:black; stroke-linecap:round; stroke-width:0.25;"/>
<line x1="148.300000" y1="46.000000" x2="148.300000" y2="58.000000"  style="stroke:black; stroke-linecap:round; stroke-width:0.25;"/>
<line x1="148.300000" y1="58.000000" x2="148.300000" y2="58.000000"  style="stroke:black; stroke-linecap:round; stroke-width:0.25;"/>
<line x1="148.300000" y1="58.000000" x2="152.300000" y2="58.000000"  style="stroke:black; stroke-linecap:round; stroke-width:0.25;"/>
<line x1="148.300000" y1="66.000000" x2="152.300000" y2="66.000000"  style="stroke:black; stroke-linecap:round; stroke-width:0.25;"/>
<line x1="176.300000" y1="62.000000" x2="180.300000" y2="62.000000"  style="stroke:black; stroke-linecap:round; stroke-width:0.25;"/>
<line x1="180.300000" y1="62.000000" x2="248.600000" y2="62.000000"  style="stroke:black; stroke-linecap:round; stroke-width:0.25;"/>
<line x1="204.600000" y1="120.000000" x2="208.600000" y2="120.000000"  style="stroke:black; stroke-linecap:round; stroke-width:0.25;"/>
<line x1="208.600000" y1="120.000000" x2="216.600000" y2="120.000000"  style="stroke:black; stroke-linecap:round; stroke-width:0.25;"/>
<line x1="208.600000" y1="140.000000" x2="216.600000" y2="140.000000"  style="stroke:black; stroke-linecap:round; stroke-width:0.25;"/>
<line x1="208.600000" y1="152.000000" x2="208.600000" y2="140.000000"  style="stroke:black; stroke-linecap:round; stroke-width:0.25;"/>
<line x1="208.600000" y1="152.000000" x2="208.600000" y2="152.000000"  style="stroke:black; stroke-linecap:round; stroke-width:0.25;"/>
<line x1="216.600000" y1="120.000000" x2="216.600000" y2="132.000000"  style="stroke:black; stroke-linecap:round; stroke-width:0.25;"/>
<line x1="216.600000" y1="132.000000" x2="216.600000" y2="132.000000"  style="stroke:black; stroke-linecap:round; stroke-width:0.25;"/>
<line x1="216.600000" y1="132.000000" x2="220.600000" y2="132.000000"  style="stroke:black; stroke-linecap:round; stroke-width:0.25;"/>
<line x1="216.600000" y1="140.000000" x2="220.600000" y2="140.000000"  style="stroke:black; stroke-linecap:round; stroke-width:0.25;"/>
<line x1="244.600000" y1="136.000000" x2="248.600000" y2="136.000000"  style="stroke:black; stroke-linecap:round; stroke-width:0.25;"/>
<line x1="248.600000" y1="98.000000" x2="256.600000" y2="98.000000"  style="stroke:black; stroke-linecap:round; stroke-width:0.25;"/>
<line x1="248.600000" y1="136.000000" x2="248.600000" y2="98.000000"  style="stroke:black; stroke-linecap:round; stroke-width:0.25;"/>
<line x1="248.600000" y1="136.000000" x2="248.600000" y2="136.000000"  style="stroke:black; stroke-linecap:round; stroke-width:0.25;"/>
<line x1="248.600000" y1="62.000000" x2="256.600000" y2="62.000000"  style="stroke:black; stroke-linecap:round; stroke-width:0.25;"/>
<line x1="256.600000" y1="62.000000" x2="256.600000" y2="90.000000"  style="stroke:black; stroke-linecap:round; stroke-width:0.25;"/>
<line x1="256.600000" y1="90.000000" x2="256.600000" y2="90.000000"  style="stroke:black; stroke-linecap:round; stroke-width:0.25;"/>
<line x1="256.600000" y1="90.000000" x2="260.600000" y2="90.000000"  style="stroke:black; stroke-linecap:round; stroke-width:0.25;"/>
<line x1="256.600000" y1="98.000000" x2="260.600000" y2="98.000000"  style="stroke:black; stroke-linecap:round; stroke-width:0.25;"/>
<line x1="284.600000" y1="94.000000" x2="288.600000" y2="94.000000"  style="stroke:black; stroke-linecap:round; stroke-width:0.25;"/>
<line x1="288.600000" y1="94.000000" x2="288.600000" y2="94.000000"  style="stroke:black; stroke-linecap:round; stroke-width:0.25;"/>
<line x1="288.600000" y1="94.000000" x2="292.600000" y2="94.000000"  style="stroke:black; stroke-linecap:round; stroke-width:0.25;"/>
<line x1="421.600000" y1="94.000000" x2="425.600000" y2="94.000000"  style="stroke:black; stroke-linecap:round; stroke-width:0.25;"/>
<line x1="425.600000" y1="94.000000" x2="425.600000" y2="94.000000"  style="stroke:black; stroke-linecap:round; stroke-width:0.25;"/>
<line x1="425.600000" y1="94.000000" x2="429.600000" y2="94.000000"  style="stroke:black; stroke-linecap:round; stroke-width:0.25;"/>
<line x1="429.600000" y1="94.000000" x2="433.600000" y2="94.000000"  style="stroke:black; stroke-linecap:round; stroke-width:0.25;"/>
<line x1="433.600000" y1="94.000000" x2="443.600000" y2="94.000000"  style="stroke:black; stroke-linecap:round; stroke-width:0.25;"/>
</svg>
