<?xml version="1.0"?>
<svg xmlns="http://www.w3.org/2000/svg" xmlns:xlink="http://www.w3.org/1999/xlink" viewBox="0 0 260.000000 292.000000" width="130.000000mm" height="146.000000mm" version="1.1">
<a xlink:href="tf2s-0x60013c0e3b10.svg">
<rect x="1.000000" y="1.000000" width="259.000000" height="291.000000" rx="0" ry="0" style="stroke:none;fill:#cccccc;"/>
<rect x="0.000000" y="0.000000" width="259.000000" height="291.000000" rx="0" ry="0" style="stroke:none;fill:#ffffff;"/>
</a>
<text x="10.000000" y="7.000000" font-family="Arial" font-size="7"></text>
<rect x="55.000000" y="35.000000" width="24.000000" height="24.000000" rx="0" ry="0" style="stroke:none;fill:#cccccc;"/>
<rect x="54.000000" y="34.000000" width="24.000000" height="24.000000" rx="0" ry="0" style="stroke:none;fill:#f44800;"/>
<text x="66.000000" y="48.000000" font-family="Arial" font-size="7" text-anchor="middle" fill="#FFFFFF">1</text>
<circle cx="56.000000" cy="36.000000" r="1"/>
<line x1="45.000000" y1="25.000000" x2="45.000000" y2="67.000000"  style="stroke: black; stroke-linecap:round; stroke-width:0.25; stroke-dasharray:3,3;"/>
<line x1="45.000000" y1="67.000000" x2="87.000000" y2="67.000000"  style="stroke: black; stroke-linecap:round; stroke-width:0.25; stroke-dasharray:3,3;"/>
<line x1="87.000000" y1="67.000000" x2="87.000000" y2="25.000000"  style="stroke: black; stroke-linecap:round; stroke-width:0.25; stroke-dasharray:3,3;"/>
<line x1="45.000000" y1="25.000000" x2="50.000000" y2="25.000000"  style="stroke: black; stroke-linecap:round; stroke-width:0.25; stroke-dasharray:3,3;"/>
<line x1="79.025000" y1="25.000000" x2="87.000000" y2="25.000000"  style="stroke: black; stroke-linecap:round; stroke-width:0.25; stroke-dasharray:3,3;"/>
<text x="50.000000" y="27.000000" font-family="Arial" font-size="7">pow2(0)</text>
<rect x="35.000000" y="87.000000" width="24.000000" height="24.000000" rx="0" ry="0" style="stroke:none;fill:#cccccc;"/>
<rect x="34.000000" y="86.000000" width="24.000000" height="24.000000" rx="0" ry="0" style="stroke:none;fill:#f44800;"/>
<text x="46.000000" y="100.000000" font-family="Arial" font-size="7" text-anchor="middle" fill="#FFFFFF">0</text>
<circle cx="36.000000" cy="88.000000" r="1"/>
<line x1="25.000000" y1="77.000000" x2="25.000000" y2="119.000000"  style="stroke: black; stroke-linecap:round; stroke-width:0.25; stroke-dasharray:3,3;"/>
<line x1="25.000000" y1="119.000000" x2="67.000000" y2="119.000000"  style="stroke: black; stroke-linecap:round; stroke-width:0.25; stroke-dasharray:3,3;"/>
<line x1="67.000000" y1="119.000000" x2="67.000000" y2="77.000000"  style="stroke: black; stroke-linecap:round; stroke-width:0.25; stroke-dasharray:3,3;"/>
<line x1="25.000000" y1="77.000000" x2="30.000000" y2="77.000000"  style="stroke: black; stroke-linecap:round; stroke-width:0.25; stroke-dasharray:3,3;"/>
<line x1="62.250000" y1="77.000000" x2="67.000000" y2="77.000000"  style="stroke: black; stroke-linecap:round; stroke-width:0.25; stroke-dasharray:3,3;"/>
<text x="30.000000" y="79.000000" font-family="Arial" font-size="7">clipCond</text>
<a xlink:href="c-0x6000083f3d50.svg">
<rect x="35.000000" y="129.000000" width="24.000000" height="24.000000" rx="0" ry="0" style="stroke:none;fill:#cccccc;"/>
<rect x="34.000000" y="128.000000" width="24.000000" height="24.000000" rx="0" ry="0" style="stroke:none;fill:#003366;"/>
</a>
<a xlink:href="c-0x6000083f3d50.svg">
<text x="46.000000" y="142.000000" font-family="Arial" font-size="7" text-anchor="middle" fill="#FFFFFF">c</text>
</a>
<circle cx="36.000000" cy="130.000000" r="1"/>
<rect x="85.000000" y="103.000000" width="24.000000" height="24.000000" rx="0" ry="0" style="stroke:none;fill:#cccccc;"/>
<rect x="84.000000" y="102.000000" width="24.000000" height="24.000000" rx="0" ry="0" style="stroke:none;fill:#4B71A1;"/>
<text x="96.000000" y="116.000000" font-family="Arial" font-size="7" text-anchor="middle" fill="#FFFFFF">*</text>
<circle cx="86.000000" cy="104.000000" r="1"/>
<line x1="81.000000" y1="109.000000" x2="84.000000" y2="110.000000"  transform="rotate(0.000000,84.000000,110.000000)" style="stroke: black; stroke-width:0.25;"/>
<line x1="81.000000" y1="111.000000" x2="84.000000" y2="110.000000"  transform="rotate(0.000000,84.000000,110.000000)" style="stroke: black; stroke-width:0.25;"/>
<line x1="81.000000" y1="117.000000" x2="84.000000" y2="118.000000"  transform="rotate(0.000000,84.000000,118.000000)" style="stroke: black; stroke-width:0.25;"/>
<line x1="81.000000" y1="119.000000" x2="84.000000" y2="118.000000"  transform="rotate(0.000000,84.000000,118.000000)" style="stroke: black; stroke-width:0.25;"/>
<rect x="125.000000" y="77.000000" width="24.000000" height="24.000000" rx="0" ry="0" style="stroke:none;fill:#cccccc;"/>
<rect x="124.000000" y="76.000000" width="24.000000" height="24.000000" rx="0" ry="0" style="stroke:none;fill:#4B71A1;"/>
<text x="136.000000" y="90.000000" font-family="Arial" font-size="7" text-anchor="middle" fill="#FFFFFF">+</text>
<circle cx="126.000000" cy="78.000000" r="1"/>
<line x1="121.000000" y1="83.000000" x2="124.000000" y2="84.000000"  transform="rotate(0.000000,124.000000,84.000000)" style="stroke: black; stroke-width:0.25;"/>
<line x1="121.000000" y1="85.000000" x2="124.000000" y2="84.000000"  transform="rotate(0.000000,124.000000,84.000000)" style="stroke: black; stroke-width:0.25;"/>
<line x1="121.000000" y1="91.000000" x2="124.000000" y2="92.000000"  transform="rotate(0.000000,124.000000,92.000000)" style="stroke: black; stroke-width:0.25;"/>
<line x1="121.000000" y1="93.000000" x2="124.000000" y2="92.000000"  transform="rotate(0.000000,124.000000,92.000000)" style="stroke: black; stroke-width:0.25;"/>
<rect x="55.000000" y="171.000000" width="24.000000" height="24.000000" rx="0" ry="0" style="stroke:none;fill:#cccccc;"/>
<rect x="54.000000" y="170.000000" width="24.000000" height="24.000000" rx="0" ry="0" style="stroke:none;fill:#f44800;"/>
<text x="66.000000" y="184.000000" font-family="Arial" font-size="7" text-anchor="middle" fill="#FFFFFF">0</text>
<circle cx="56.000000" cy="172.000000" r="1"/>
<line x1="45.000000" y1="161.000000" x2="45.000000" y2="203.000000"  style="stroke: black; stroke-linecap:round; stroke-width:0.25; stroke-dasharray:3,3;"/>
<line x1="45.000000" y1="203.000000" x2="87.000000" y2="203.000000"  style="stroke: black; stroke-linecap:round; stroke-width:0.25; stroke-dasharray:3,3;"/>
<line x1="87.000000" y1="203.000000" x2="87.000000" y2="161.000000"  style="stroke: black; stroke-linecap:round; stroke-width:0.25; stroke-dasharray:3,3;"/>
<line x1="45.000000" y1="161.000000" x2="50.000000" y2="161.000000"  style="stroke: black; stroke-linecap:round; stroke-width:0.25; stroke-dasharray:3,3;"/>
<line x1="82.250000" y1="161.000000" x2="87.000000" y2="161.000000"  style="stroke: black; stroke-linecap:round; stroke-width:0.25; stroke-dasharray:3,3;"/>
<text x="50.000000" y="163.000000" font-family="Arial" font-size="7">clipCond</text>
<a xlink:href="csq-0x6000083f45a0.svg">
<rect x="55.000000" y="213.000000" width="24.000000" height="24.000000" rx="0" ry="0" style="stroke:none;fill:#cccccc;"/>
<rect x="54.000000" y="212.000000" width="24.000000" height="24.000000" rx="0" ry="0" style="stroke:none;fill:#003366;"/>
</a>
<a xlink:href="csq-0x6000083f45a0.svg">
<text x="66.000000" y="226.000000" font-family="Arial" font-size="7" text-anchor="middle" fill="#FFFFFF">csq</text>
</a>
<circle cx="56.000000" cy="214.000000" r="1"/>
<rect x="105.000000" y="187.000000" width="24.000000" height="24.000000" rx="0" ry="0" style="stroke:none;fill:#cccccc;"/>
<rect x="104.000000" y="186.000000" width="24.000000" height="24.000000" rx="0" ry="0" style="stroke:none;fill:#4B71A1;"/>
<text x="116.000000" y="200.000000" font-family="Arial" font-size="7" text-anchor="middle" fill="#FFFFFF">*</text>
<circle cx="106.000000" cy="188.000000" r="1"/>
<line x1="101.000000" y1="193.000000" x2="104.000000" y2="194.000000"  transform="rotate(0.000000,104.000000,194.000000)" style="stroke: black; stroke-width:0.25;"/>
<line x1="101.000000" y1="195.000000" x2="104.000000" y2="194.000000"  transform="rotate(0.000000,104.000000,194.000000)" style="stroke: black; stroke-width:0.25;"/>
<line x1="101.000000" y1="201.000000" x2="104.000000" y2="202.000000"  transform="rotate(0.000000,104.000000,202.000000)" style="stroke: black; stroke-width:0.25;"/>
<line x1="101.000000" y1="203.000000" x2="104.000000" y2="202.000000"  transform="rotate(0.000000,104.000000,202.000000)" style="stroke: black; stroke-width:0.25;"/>
<rect x="165.000000" y="119.000000" width="24.000000" height="24.000000" rx="0" ry="0" style="stroke:none;fill:#cccccc;"/>
<rect x="164.000000" y="118.000000" width="24.000000" height="24.000000" rx="0" ry="0" style="stroke:none;fill:#4B71A1;"/>
<text x="176.000000" y="132.000000" font-family="Arial" font-size="7" text-anchor="middle" fill="#FFFFFF">+</text>
<circle cx="166.000000" cy="120.000000" r="1"/>
<line x1="161.000000" y1="125.000000" x2="164.000000" y2="126.000000"  transform="rotate(0.000000,164.000000,126.000000)" style="stroke: black; stroke-width:0.25;"/>
<line x1="161.000000" y1="127.000000" x2="164.000000" y2="126.000000"  transform="rotate(0.000000,164.000000,126.000000)" style="stroke: black; stroke-width:0.25;"/>
<line x1="161.000000" y1="133.000000" x2="164.000000" y2="134.000000"  transform="rotate(0.000000,164.000000,134.000000)" style="stroke: black; stroke-width:0.25;"/>
<line x1="161.000000" y1="135.000000" x2="164.000000" y2="134.000000"  transform="rotate(0.000000,164.000000,134.000000)" style="stroke: black; stroke-width:0.25;"/>
<a xlink:href="d-0x6000083cf600.svg">
<rect x="95.000000" y="245.000000" width="24.000000" height="24.000000" rx="0" ry="0" style="stroke:none;fill:#cccccc;"/>
<rect x="94.000000" y="244.000000" width="24.000000" height="24.000000" rx="0" ry="0" style="stroke:none;fill:#003366;"/>
</a>
<a xlink:href="d-0x6000083cf600.svg">
<text x="106.000000" y="258.000000" font-family="Arial" font-size="7" text-anchor="middle" fill="#FFFFFF">d</text>
</a>
<circle cx="96.000000" cy="246.000000" r="1"/>
<rect x="205.000000" y="135.000000" width="24.000000" height="24.000000" rx="0" ry="0" style="stroke:none;fill:#cccccc;"/>
<rect x="204.000000" y="134.000000" width="24.000000" height="24.000000" rx="0" ry="0" style="stroke:none;fill:#4B71A1;"/>
<text x="216.000000" y="148.000000" font-family="Arial" font-size="7" text-anchor="middle" fill="#FFFFFF">/</text>
<circle cx="206.000000" cy="136.000000" r="1"/>
<line x1="201.000000" y1="141.000000" x2="204.000000" y2="142.000000"  transform="rotate(0.000000,204.000000,142.000000)" style="stroke: black; stroke-width:0.25;"/>
<line x1="201.000000" y1="143.000000" x2="204.000000" y2="142.000000"  transform="rotate(0.000000,204.000000,142.000000)" style="stroke: black; stroke-width:0.25;"/>
<line x1="201.000000" y1="149.000000" x2="204.000000" y2="150.000000"  transform="rotate(0.000000,204.000000,150.000000)" style="stroke: black; stroke-width:0.25;"/>
<line x1="201.000000" y1="151.000000" x2="204.000000" y2="150.000000"  transform="rotate(0.000000,204.000000,150.000000)" style="stroke: black; stroke-width:0.25;"/>
<line x1="15.000000" y1="15.000000" x2="15.000000" y2="277.000000"  style="stroke: black; stroke-linecap:round; stroke-width:0.25; stroke-dasharray:3,3;"/>
<line x1="15.000000" y1="277.000000" x2="245.000000" y2="277.000000"  style="stroke: black; stroke-linecap:round; stroke-width:0.25; stroke-dasharray:3,3;"/>
<line x1="245.000000" y1="277.000000" x2="245.000000" y2="15.000000"  style="stroke: black; stroke-linecap:round; stroke-width:0.25; stroke-dasharray:3,3;"/>
<line x1="15.000000" y1="15.000000" x2="20.000000" y2="15.000000"  style="stroke: black; stroke-linecap:round; stroke-width:0.25; stroke-dasharray:3,3;"/>
<line x1="36.125000" y1="15.000000" x2="245.000000" y2="15.000000"  style="stroke: black; stroke-linecap:round; stroke-width:0.25; stroke-dasharray:3,3;"/>
<text x="20.000000" y="17.000000" font-family="Arial" font-size="7">b0d</text>
<line x1="247.000000" y1="145.000000" x2="250.000000" y2="146.000000"  transform="rotate(0.000000,250.000000,146.000000)" style="stroke: black; stroke-width:0.25;"/>
<line x1="247.000000" y1="147.000000" x2="250.000000" y2="146.000000"  transform="rotate(0.000000,250.000000,146.000000)" style="stroke: black; stroke-width:0.25;"/>
<line x1="58.000000" y1="98.000000" x2="62.000000" y2="98.000000"  style="stroke:black; stroke-linecap:round; stroke-width:0.25;"/>
<line x1="58.000000" y1="140.000000" x2="62.000000" y2="140.000000"  style="stroke:black; stroke-linecap:round; stroke-width:0.25;"/>
<line x1="62.000000" y1="98.000000" x2="72.000000" y2="98.000000"  style="stroke:black; stroke-linecap:round; stroke-width:0.25;"/>
<line x1="62.000000" y1="140.000000" x2="72.000000" y2="140.000000"  style="stroke:black; stroke-linecap:round; stroke-width:0.25;"/>
<line x1="72.000000" y1="98.000000" x2="80.000000" y2="98.000000"  style="stroke:black; stroke-linecap:round; stroke-width:0.25;"/>
<line x1="72.000000" y1="118.000000" x2="80.000000" y2="118.000000"  style="stroke:black; stroke-linecap:round; stroke-width:0.25;"/>
<line x1="72.000000" y1="140.000000" x2="72.000000" y2="118.000000"  style="stroke:black; stroke-linecap:round; stroke-width:0.25;"/>
<line x1="72.000000" y1="140.000000" x2="72.000000" y2="140.000000"  style="stroke:black; stroke-linecap:round; stroke-width:0.25;"/>
<line x1="78.000000" y1="46.000000" x2="82.000000" y2="46.000000"  style="stroke:black; stroke-linecap:round; stroke-width:0.25;"/>
<line x1="78.000000" y1="182.000000" x2="82.000000" y2="182.000000"  style="stroke:black; stroke-linecap:round; stroke-width:0.25;"/>
<line x1="78.000000" y1="224.000000" x2="82.000000" y2="224.000000"  style="stroke:black; stroke-linecap:round; stroke-width:0.25;"/>
<line x1="80.000000" y1="98.000000" x2="80.000000" y2="110.000000"  style="stroke:black; stroke-linecap:round; stroke-width:0.25;"/>
<line x1="80.000000" y1="110.000000" x2="80.000000" y2="110.000000"  style="stroke:black; stroke-linecap:round; stroke-width:0.25;"/>
<line x1="80.000000" y1="110.000000" x2="84.000000" y2="110.000000"  style="stroke:black; stroke-linecap:round; stroke-width:0.25;"/>
<line x1="80.000000" y1="118.000000" x2="84.000000" y2="118.000000"  style="stroke:black; stroke-linecap:round; stroke-width:0.25;"/>
<line x1="82.000000" y1="46.000000" x2="92.000000" y2="46.000000"  style="stroke:black; stroke-linecap:round; stroke-width:0.25;"/>
<line x1="82.000000" y1="182.000000" x2="92.000000" y2="182.000000"  style="stroke:black; stroke-linecap:round; stroke-width:0.25;"/>
<line x1="82.000000" y1="224.000000" x2="92.000000" y2="224.000000"  style="stroke:black; stroke-linecap:round; stroke-width:0.25;"/>
<line x1="92.000000" y1="46.000000" x2="112.000000" y2="46.000000"  style="stroke:black; stroke-linecap:round; stroke-width:0.25;"/>
<line x1="92.000000" y1="182.000000" x2="100.000000" y2="182.000000"  style="stroke:black; stroke-linecap:round; stroke-width:0.25;"/>
<line x1="92.000000" y1="202.000000" x2="100.000000" y2="202.000000"  style="stroke:black; stroke-linecap:round; stroke-width:0.25;"/>
<line x1="92.000000" y1="224.000000" x2="92.000000" y2="202.000000"  style="stroke:black; stroke-linecap:round; stroke-width:0.25;"/>
<line x1="92.000000" y1="224.000000" x2="92.000000" y2="224.000000"  style="stroke:black; stroke-linecap:round; stroke-width:0.25;"/>
<line x1="100.000000" y1="182.000000" x2="100.000000" y2="194.000000"  style="stroke:black; stroke-linecap:round; stroke-width:0.25;"/>
<line x1="100.000000" y1="194.000000" x2="100.000000" y2="194.000000"  style="stroke:black; stroke-linecap:round; stroke-width:0.25;"/>
<line x1="100.000000" y1="194.000000" x2="104.000000" y2="194.000000"  style="stroke:black; stroke-linecap:round; stroke-width:0.25;"/>
<line x1="100.000000" y1="202.000000" x2="104.000000" y2="202.000000"  style="stroke:black; stroke-linecap:round; stroke-width:0.25;"/>
<line x1="108.000000" y1="114.000000" x2="112.000000" y2="114.000000"  style="stroke:black; stroke-linecap:round; stroke-width:0.25;"/>
<line x1="112.000000" y1="46.000000" x2="120.000000" y2="46.000000"  style="stroke:black; stroke-linecap:round; stroke-width:0.25;"/>
<line x1="112.000000" y1="92.000000" x2="120.000000" y2="92.000000"  style="stroke:black; stroke-linecap:round; stroke-width:0.25;"/>
<line x1="112.000000" y1="114.000000" x2="112.000000" y2="92.000000"  style="stroke:black; stroke-linecap:round; stroke-width:0.25;"/>
<line x1="112.000000" y1="114.000000" x2="112.000000" y2="114.000000"  style="stroke:black; stroke-linecap:round; stroke-width:0.25;"/>
<line x1="118.000000" y1="256.000000" x2="122.000000" y2="256.000000"  style="stroke:black; stroke-linecap:round; stroke-width:0.25;"/>
<line x1="120.000000" y1="46.000000" x2="120.000000" y2="84.000000"  style="stroke:black; stroke-linecap:round; stroke-width:0.25;"/>
<line x1="120.000000" y1="84.000000" x2="120.000000" y2="84.000000"  style="stroke:black; stroke-linecap:round; stroke-width:0.25;"/>
<line x1="120.000000" y1="84.000000" x2="124.000000" y2="84.000000"  style="stroke:black; stroke-linecap:round; stroke-width:0.25;"/>
<line x1="120.000000" y1="92.000000" x2="124.000000" y2="92.000000"  style="stroke:black; stroke-linecap:round; stroke-width:0.25;"/>
<line x1="122.000000" y1="256.000000" x2="192.000000" y2="256.000000"  style="stroke:black; stroke-linecap:round; stroke-width:0.25;"/>
<line x1="128.000000" y1="198.000000" x2="132.000000" y2="198.000000"  style="stroke:black; stroke-linecap:round; stroke-width:0.25;"/>
<line x1="132.000000" y1="198.000000" x2="152.000000" y2="198.000000"  style="stroke:black; stroke-linecap:round; stroke-width:0.25;"/>
<line x1="148.000000" y1="88.000000" x2="152.000000" y2="88.000000"  style="stroke:black; stroke-linecap:round; stroke-width:0.25;"/>
<line x1="152.000000" y1="88.000000" x2="160.000000" y2="88.000000"  style="stroke:black; stroke-linecap:round; stroke-width:0.25;"/>
<line x1="152.000000" y1="134.000000" x2="160.000000" y2="134.000000"  style="stroke:black; stroke-linecap:round; stroke-width:0.25;"/>
<line x1="152.000000" y1="198.000000" x2="152.000000" y2="134.000000"  style="stroke:black; stroke-linecap:round; stroke-width:0.25;"/>
<line x1="152.000000" y1="198.000000" x2="152.000000" y2="198.000000"  style="stroke:black; stroke-linecap:round; stroke-width:0.25;"/>
<line x1="160.000000" y1="88.000000" x2="160.000000" y2="126.000000"  style="stroke:black; stroke-linecap:round; stroke-width:0.25;"/>
<line x1="160.000000" y1="126.000000" x2="160.000000" y2="126.000000"  style="stroke:black; stroke-linecap:round; stroke-width:0.25;"/>
<line x1="160.000000" y1="126.000000" x2="164.000000" y2="126.000000"  style="stroke:black; stroke-linecap:round; stroke-width:0.25;"/>
<line x1="160.000000" y1="134.000000" x2="164.000000" y2="134.000000"  style="stroke:black; stroke-linecap:round; stroke-width:0.25;"/>
<line x1="188.000000" y1="130.000000" x2="192.000000" y2="130.000000"  style="stroke:black; stroke-linecap:round; stroke-width:0.25;"/>
<line x1="192.000000" y1="130.000000" x2="200.000000" y2="130.000000"  style="stroke:black; stroke-linecap:round; stroke-width:0.25;"/>
<line x1="192.000000" y1="150.000000" x2="200.000000" y2="150.000000"  style="stroke:black; stroke-linecap:round; stroke-width:0.25;"/>
<line x1="192.000000" y1="256.000000" x2="192.000000" y2="150.000000"  style="stroke:black; stroke-linecap:round; stroke-width:0.25;"/>
<line x1="192.000000" y1="256.000000" x2="192.000000" y2="256.000000"  style="stroke:black; stroke-linecap:round; stroke-width:0.25;"/>
<line x1="200.000000" y1="130.000000" x2="200.000000" y2="142.000000"  style="stroke:black; stroke-linecap:round; stroke-width:0.25;"/>
<line x1="200.000000" y1="142.000000" x2="200.000000" y2="142.000000"  style="stroke:black; stroke-linecap:round; stroke-width:0.25;"/>
<line x1="200.000000" y1="142.000000" x2="204.000000" y2="142.000000"  style="stroke:black; stroke-linecap:round; stroke-width:0.25;"/>
<line x1="200.000000" y1="150.000000" x2="204.000000" y2="150.000000"  style="stroke:black; stroke-linecap:round; stroke-width:0.25;"/>
<line x1="228.000000" y1="146.000000" x2="232.000000" y2="146.000000"  style="stroke:black; stroke-linecap:round; stroke-width:0.25;"/>
<line x1="232.000000" y1="146.000000" x2="232.000000" y2="146.000000"  style="stroke:black; stroke-linecap:round; stroke-width:0.25;"/>
<line x1="232.000000" y1="146.000000" x2="236.000000" y2="146.000000"  style="stroke:black; stroke-linecap:round; stroke-width:0.25;"/>
<line x1="236.000000" y1="146.000000" x2="240.000000" y2="146.000000"  style="stroke:black; stroke-linecap:round; stroke-width:0.25;"/>
<line x1="240.000000" y1="146.000000" x2="250.000000" y2="146.000000"  style="stroke:black; stroke-linecap:round; stroke-width:0.25;"/>
</svg>
