<?xml version="1.0"?>
<svg xmlns="http://www.w3.org/2000/svg" xmlns:xlink="http://www.w3.org/1999/xlink" viewBox="0 0 334.900000 72.000000" width="167.450000mm" height="36.000000mm" version="1.1">
<a xlink:href="leveler-0x60013c0158c0.svg">
<rect x="1.000000" y="1.000000" width="333.900000" height="71.000000" rx="0" ry="0" style="stroke:none;fill:#cccccc;"/>
<rect x="0.000000" y="0.000000" width="333.900000" height="71.000000" rx="0" ry="0" style="stroke:none;fill:#ffffff;"/>
</a>
<text x="10.000000" y="7.000000" font-family="Arial" font-size="7"></text>
<rect x="25.000000" y="25.000000" width="245.100000" height="24.000000" rx="0" ry="0" style="stroke:none;fill:#cccccc;"/>
<rect x="24.000000" y="24.000000" width="245.100000" height="24.000000" rx="0" ry="0" style="stroke:none;fill:#477881;"/>
<text x="146.550000" y="38.000000" font-family="Arial" font-size="7" text-anchor="middle" fill="#FFFFFF">checkbox(v:soundsgood/t:expert/h:leveler/leveler bypass)</text>
<circle cx="26.000000" cy="26.000000" r="1"/>
<a xlink:href="smoo-0x6000b00b7180.svg">
<rect x="278.100000" y="25.000000" width="25.800000" height="24.000000" rx="0" ry="0" style="stroke:none;fill:#cccccc;"/>
<rect x="277.100000" y="24.000000" width="25.800000" height="24.000000" rx="0" ry="0" style="stroke:none;fill:#003366;"/>
</a>
<a xlink:href="smoo-0x6000b00b7180.svg">
<text x="290.000000" y="38.000000" font-family="Arial" font-size="7" text-anchor="middle" fill="#FFFFFF">smoo</text>
</a>
<circle cx="279.100000" cy="26.000000" r="1"/>
<line x1="274.100000" y1="35.000000" x2="277.100000" y2="36.000000"  transform="rotate(0.000000,277.100000,36.000000)" style="stroke: black; stroke-width:0.25;"/>
<line x1="274.100000" y1="37.000000" x2="277.100000" y2="36.000000"  transform="rotate(0.000000,277.100000,36.000000)" style="stroke: black; stroke-width:0.25;"/>
<line x1="15.000000" y1="15.000000" x2="15.000000" y2="57.000000"  style="stroke: black; stroke-linecap:round; stroke-width:0.25; stroke-dasharray:3,3;"/>
<line x1="15.000000" y1="57.000000" x2="319.900000" y2="57.000000"  style="stroke: black; stroke-linecap:round; stroke-width:0.25; stroke-dasharray:3,3;"/>
<line x1="319.900000" y1="57.000000" x2="319.900000" y2="15.000000"  style="stroke: black; stroke-linecap:round; stroke-width:0.25; stroke-dasharray:3,3;"/>
<line x1="15.000000" y1="15.000000" x2="20.000000" y2="15.000000"  style="stroke: black; stroke-linecap:round; stroke-width:0.25; stroke-dasharray:3,3;"/>
<line x1="32.900000" y1="15.000000" x2="319.900000" y2="15.000000"  style="stroke: black; stroke-linecap:round; stroke-width:0.25; stroke-dasharray:3,3;"/>
<text x="20.000000" y="17.000000" font-family="Arial" font-size="7">bp</text>
<line x1="321.900000" y1="35.000000" x2="324.900000" y2="36.000000"  transform="rotate(0.000000,324.900000,36.000000)" style="stroke: black; stroke-width:0.25;"/>
<line x1="321.900000" y1="37.000000" x2="324.900000" y2="36.000000"  transform="rotate(0.000000,324.900000,36.000000)" style="stroke: black; stroke-width:0.25;"/>
<line x1="269.100000" y1="36.000000" x2="273.100000" y2="36.000000"  style="stroke:black; stroke-linecap:round; stroke-width:0.25;"/>
<line x1="273.100000" y1="36.000000" x2="273.100000" y2="36.000000"  style="stroke:black; stroke-linecap:round; stroke-width:0.25;"/>
<line x1="273.100000" y1="36.000000" x2="277.100000" y2="36.000000"  style="stroke:black; stroke-linecap:round; stroke-width:0.25;"/>
<line x1="302.900000" y1="36.000000" x2="306.900000" y2="36.000000"  style="stroke:black; stroke-linecap:round; stroke-width:0.25;"/>
<line x1="306.900000" y1="36.000000" x2="310.900000" y2="36.000000"  style="stroke:black; stroke-linecap:round; stroke-width:0.25;"/>
<line x1="306.900000" y1="36.000000" x2="306.900000" y2="36.000000"  style="stroke:black; stroke-linecap:round; stroke-width:0.25;"/>
<line x1="310.900000" y1="36.000000" x2="314.900000" y2="36.000000"  style="stroke:black; stroke-linecap:round; stroke-width:0.25;"/>
<line x1="314.900000" y1="36.000000" x2="324.900000" y2="36.000000"  style="stroke:black; stroke-linecap:round; stroke-width:0.25;"/>
</svg>
