<?xml version="1.0"?>
<svg xmlns="http://www.w3.org/2000/svg" xmlns:xlink="http://www.w3.org/1999/xlink" viewBox="0 0 466.300000 304.000000" width="233.150000mm" height="152.000000mm" version="1.1">
<a xlink:href="bp2-0x60015018a640.svg">
<rect x="1.000000" y="1.000000" width="465.300000" height="303.000000" rx="0" ry="0" style="stroke:none;fill:#cccccc;"/>
<rect x="0.000000" y="0.000000" width="465.300000" height="303.000000" rx="0" ry="0" style="stroke:none;fill:#ffffff;"/>
</a>
<text x="10.000000" y="7.000000" font-family="Arial" font-size="7"></text>
<a xlink:href="brickwall-0x600150188cf0.svg">
<rect x="111.000000" y="149.000000" width="90.300000" height="24.000000" rx="0" ry="0" style="stroke:none;fill:#cccccc;"/>
<rect x="110.000000" y="148.000000" width="90.300000" height="24.000000" rx="0" ry="0" style="stroke:none;fill:#003366;"/>
</a>
<a xlink:href="brickwall-0x600150188cf0.svg">
<text x="155.150000" y="162.000000" font-family="Arial" font-size="7" text-anchor="middle" fill="#FFFFFF">brickwall_no_latency</text>
</a>
<circle cx="112.000000" cy="150.000000" r="1"/>
<line x1="107.000000" y1="155.000000" x2="110.000000" y2="156.000000"  transform="rotate(0.000000,110.000000,156.000000)" style="stroke: black; stroke-width:0.25;"/>
<line x1="107.000000" y1="157.000000" x2="110.000000" y2="156.000000"  transform="rotate(0.000000,110.000000,156.000000)" style="stroke: black; stroke-width:0.25;"/>
<line x1="107.000000" y1="163.000000" x2="110.000000" y2="164.000000"  transform="rotate(0.000000,110.000000,164.000000)" style="stroke: black; stroke-width:0.25;"/>
<line x1="107.000000" y1="165.000000" x2="110.000000" y2="164.000000"  transform="rotate(0.000000,110.000000,164.000000)" style="stroke: black; stroke-width:0.25;"/>
<a xlink:href="sm-0x600150188ea0.svg">
<rect x="263.300000" y="33.000000" width="24.000000" height="24.000000" rx="0" ry="0" style="stroke:none;fill:#cccccc;"/>
<rect x="262.300000" y="32.000000" width="24.000000" height="24.000000" rx="0" ry="0" style="stroke:none;fill:#003366;"/>
</a>
<a xlink:href="sm-0x600150188ea0.svg">
<text x="274.300000" y="46.000000" font-family="Arial" font-size="7" text-anchor="middle" fill="#FFFFFF">sm</text>
</a>
<circle cx="264.300000" cy="34.000000" r="1"/>
<rect x="303.300000" y="29.000000" width="24.000000" height="24.000000" rx="0" ry="0" style="stroke:none;fill:#cccccc;"/>
<rect x="302.300000" y="28.000000" width="24.000000" height="24.000000" rx="0" ry="0" style="stroke:none;fill:#4B71A1;"/>
<text x="314.300000" y="42.000000" font-family="Arial" font-size="7" text-anchor="middle" fill="#FFFFFF">*</text>
<circle cx="304.300000" cy="30.000000" r="1"/>
<line x1="299.300000" y1="35.000000" x2="302.300000" y2="36.000000"  transform="rotate(0.000000,302.300000,36.000000)" style="stroke: black; stroke-width:0.25;"/>
<line x1="299.300000" y1="37.000000" x2="302.300000" y2="36.000000"  transform="rotate(0.000000,302.300000,36.000000)" style="stroke: black; stroke-width:0.25;"/>
<line x1="299.300000" y1="43.000000" x2="302.300000" y2="44.000000"  transform="rotate(0.000000,302.300000,44.000000)" style="stroke: black; stroke-width:0.25;"/>
<line x1="299.300000" y1="45.000000" x2="302.300000" y2="44.000000"  transform="rotate(0.000000,302.300000,44.000000)" style="stroke: black; stroke-width:0.25;"/>
<a xlink:href="sm-0x600150188ea0.svg">
<rect x="263.300000" y="73.000000" width="24.000000" height="24.000000" rx="0" ry="0" style="stroke:none;fill:#cccccc;"/>
<rect x="262.300000" y="72.000000" width="24.000000" height="24.000000" rx="0" ry="0" style="stroke:none;fill:#003366;"/>
</a>
<a xlink:href="sm-0x600150188ea0.svg">
<text x="274.300000" y="86.000000" font-family="Arial" font-size="7" text-anchor="middle" fill="#FFFFFF">sm</text>
</a>
<circle cx="264.300000" cy="74.000000" r="1"/>
<rect x="303.300000" y="69.000000" width="24.000000" height="24.000000" rx="0" ry="0" style="stroke:none;fill:#cccccc;"/>
<rect x="302.300000" y="68.000000" width="24.000000" height="24.000000" rx="0" ry="0" style="stroke:none;fill:#4B71A1;"/>
<text x="314.300000" y="82.000000" font-family="Arial" font-size="7" text-anchor="middle" fill="#FFFFFF">*</text>
<circle cx="304.300000" cy="70.000000" r="1"/>
<line x1="299.300000" y1="75.000000" x2="302.300000" y2="76.000000"  transform="rotate(0.000000,302.300000,76.000000)" style="stroke: black; stroke-width:0.25;"/>
<line x1="299.300000" y1="77.000000" x2="302.300000" y2="76.000000"  transform="rotate(0.000000,302.300000,76.000000)" style="stroke: black; stroke-width:0.25;"/>
<line x1="299.300000" y1="83.000000" x2="302.300000" y2="84.000000"  transform="rotate(0.000000,302.300000,84.000000)" style="stroke: black; stroke-width:0.25;"/>
<line x1="299.300000" y1="85.000000" x2="302.300000" y2="84.000000"  transform="rotate(0.000000,302.300000,84.000000)" style="stroke: black; stroke-width:0.25;"/>
<rect x="243.300000" y="123.000000" width="24.000000" height="24.000000" rx="0" ry="0" style="stroke:none;fill:#cccccc;"/>
<rect x="242.300000" y="122.000000" width="24.000000" height="24.000000" rx="0" ry="0" style="stroke:none;fill:#f44800;"/>
<text x="254.300000" y="136.000000" font-family="Arial" font-size="7" text-anchor="middle" fill="#FFFFFF">1</text>
<circle cx="244.300000" cy="124.000000" r="1"/>
<line x1="233.300000" y1="113.000000" x2="233.300000" y2="155.000000"  style="stroke: black; stroke-linecap:round; stroke-width:0.25; stroke-dasharray:3,3;"/>
<line x1="233.300000" y1="155.000000" x2="275.300000" y2="155.000000"  style="stroke: black; stroke-linecap:round; stroke-width:0.25; stroke-dasharray:3,3;"/>
<line x1="275.300000" y1="155.000000" x2="275.300000" y2="113.000000"  style="stroke: black; stroke-linecap:round; stroke-width:0.25; stroke-dasharray:3,3;"/>
<line x1="233.300000" y1="113.000000" x2="238.300000" y2="113.000000"  style="stroke: black; stroke-linecap:round; stroke-width:0.25; stroke-dasharray:3,3;"/>
<line x1="267.325000" y1="113.000000" x2="275.300000" y2="113.000000"  style="stroke: black; stroke-linecap:round; stroke-width:0.25; stroke-dasharray:3,3;"/>
<text x="238.300000" y="115.000000" font-family="Arial" font-size="7">pow2(0)</text>
<a xlink:href="sm-0x600150188ea0.svg">
<rect x="243.300000" y="165.000000" width="24.000000" height="24.000000" rx="0" ry="0" style="stroke:none;fill:#cccccc;"/>
<rect x="242.300000" y="164.000000" width="24.000000" height="24.000000" rx="0" ry="0" style="stroke:none;fill:#003366;"/>
</a>
<a xlink:href="sm-0x600150188ea0.svg">
<text x="254.300000" y="178.000000" font-family="Arial" font-size="7" text-anchor="middle" fill="#FFFFFF">sm</text>
</a>
<circle cx="244.300000" cy="166.000000" r="1"/>
<rect x="293.300000" y="139.000000" width="24.000000" height="24.000000" rx="0" ry="0" style="stroke:none;fill:#cccccc;"/>
<rect x="292.300000" y="138.000000" width="24.000000" height="24.000000" rx="0" ry="0" style="stroke:none;fill:#4B71A1;"/>
<text x="304.300000" y="152.000000" font-family="Arial" font-size="7" text-anchor="middle" fill="#FFFFFF">-</text>
<circle cx="294.300000" cy="140.000000" r="1"/>
<line x1="289.300000" y1="145.000000" x2="292.300000" y2="146.000000"  transform="rotate(0.000000,292.300000,146.000000)" style="stroke: black; stroke-width:0.25;"/>
<line x1="289.300000" y1="147.000000" x2="292.300000" y2="146.000000"  transform="rotate(0.000000,292.300000,146.000000)" style="stroke: black; stroke-width:0.25;"/>
<line x1="289.300000" y1="153.000000" x2="292.300000" y2="154.000000"  transform="rotate(0.000000,292.300000,154.000000)" style="stroke: black; stroke-width:0.25;"/>
<line x1="289.300000" y1="155.000000" x2="292.300000" y2="154.000000"  transform="rotate(0.000000,292.300000,154.000000)" style="stroke: black; stroke-width:0.25;"/>
<rect x="333.300000" y="135.000000" width="24.000000" height="24.000000" rx="0" ry="0" style="stroke:none;fill:#cccccc;"/>
<rect x="332.300000" y="134.000000" width="24.000000" height="24.000000" rx="0" ry="0" style="stroke:none;fill:#4B71A1;"/>
<text x="344.300000" y="148.000000" font-family="Arial" font-size="7" text-anchor="middle" fill="#FFFFFF">*</text>
<circle cx="334.300000" cy="136.000000" r="1"/>
<line x1="329.300000" y1="141.000000" x2="332.300000" y2="142.000000"  transform="rotate(0.000000,332.300000,142.000000)" style="stroke: black; stroke-width:0.25;"/>
<line x1="329.300000" y1="143.000000" x2="332.300000" y2="142.000000"  transform="rotate(0.000000,332.300000,142.000000)" style="stroke: black; stroke-width:0.25;"/>
<line x1="329.300000" y1="149.000000" x2="332.300000" y2="150.000000"  transform="rotate(0.000000,332.300000,150.000000)" style="stroke: black; stroke-width:0.25;"/>
<line x1="329.300000" y1="151.000000" x2="332.300000" y2="150.000000"  transform="rotate(0.000000,332.300000,150.000000)" style="stroke: black; stroke-width:0.25;"/>
<rect x="243.300000" y="215.000000" width="24.000000" height="24.000000" rx="0" ry="0" style="stroke:none;fill:#cccccc;"/>
<rect x="242.300000" y="214.000000" width="24.000000" height="24.000000" rx="0" ry="0" style="stroke:none;fill:#f44800;"/>
<text x="254.300000" y="228.000000" font-family="Arial" font-size="7" text-anchor="middle" fill="#FFFFFF">1</text>
<circle cx="244.300000" cy="216.000000" r="1"/>
<line x1="233.300000" y1="205.000000" x2="233.300000" y2="247.000000"  style="stroke: black; stroke-linecap:round; stroke-width:0.25; stroke-dasharray:3,3;"/>
<line x1="233.300000" y1="247.000000" x2="275.300000" y2="247.000000"  style="stroke: black; stroke-linecap:round; stroke-width:0.25; stroke-dasharray:3,3;"/>
<line x1="275.300000" y1="247.000000" x2="275.300000" y2="205.000000"  style="stroke: black; stroke-linecap:round; stroke-width:0.25; stroke-dasharray:3,3;"/>
<line x1="233.300000" y1="205.000000" x2="238.300000" y2="205.000000"  style="stroke: black; stroke-linecap:round; stroke-width:0.25; stroke-dasharray:3,3;"/>
<line x1="267.325000" y1="205.000000" x2="275.300000" y2="205.000000"  style="stroke: black; stroke-linecap:round; stroke-width:0.25; stroke-dasharray:3,3;"/>
<text x="238.300000" y="207.000000" font-family="Arial" font-size="7">pow2(0)</text>
<a xlink:href="sm-0x600150188ea0.svg">
<rect x="243.300000" y="257.000000" width="24.000000" height="24.000000" rx="0" ry="0" style="stroke:none;fill:#cccccc;"/>
<rect x="242.300000" y="256.000000" width="24.000000" height="24.000000" rx="0" ry="0" style="stroke:none;fill:#003366;"/>
</a>
<a xlink:href="sm-0x600150188ea0.svg">
<text x="254.300000" y="270.000000" font-family="Arial" font-size="7" text-anchor="middle" fill="#FFFFFF">sm</text>
</a>
<circle cx="244.300000" cy="258.000000" r="1"/>
<rect x="293.300000" y="231.000000" width="24.000000" height="24.000000" rx="0" ry="0" style="stroke:none;fill:#cccccc;"/>
<rect x="292.300000" y="230.000000" width="24.000000" height="24.000000" rx="0" ry="0" style="stroke:none;fill:#4B71A1;"/>
<text x="304.300000" y="244.000000" font-family="Arial" font-size="7" text-anchor="middle" fill="#FFFFFF">-</text>
<circle cx="294.300000" cy="232.000000" r="1"/>
<line x1="289.300000" y1="237.000000" x2="292.300000" y2="238.000000"  transform="rotate(0.000000,292.300000,238.000000)" style="stroke: black; stroke-width:0.25;"/>
<line x1="289.300000" y1="239.000000" x2="292.300000" y2="238.000000"  transform="rotate(0.000000,292.300000,238.000000)" style="stroke: black; stroke-width:0.25;"/>
<line x1="289.300000" y1="245.000000" x2="292.300000" y2="246.000000"  transform="rotate(0.000000,292.300000,246.000000)" style="stroke: black; stroke-width:0.25;"/>
<line x1="289.300000" y1="247.000000" x2="292.300000" y2="246.000000"  transform="rotate(0.000000,292.300000,246.000000)" style="stroke: black; stroke-width:0.25;"/>
<rect x="333.300000" y="227.000000" width="24.000000" height="24.000000" rx="0" ry="0" style="stroke:none;fill:#cccccc;"/>
<rect x="332.300000" y="226.000000" width="24.000000" height="24.000000" rx="0" ry="0" style="stroke:none;fill:#4B71A1;"/>
<text x="344.300000" y="240.000000" font-family="Arial" font-size="7" text-anchor="middle" fill="#FFFFFF">*</text>
<circle cx="334.300000" cy="228.000000" r="1"/>
<line x1="329.300000" y1="233.000000" x2="332.300000" y2="234.000000"  transform="rotate(0.000000,332.300000,234.000000)" style="stroke: black; stroke-width:0.25;"/>
<line x1="329.300000" y1="235.000000" x2="332.300000" y2="234.000000"  transform="rotate(0.000000,332.300000,234.000000)" style="stroke: black; stroke-width:0.25;"/>
<line x1="329.300000" y1="241.000000" x2="332.300000" y2="242.000000"  transform="rotate(0.000000,332.300000,242.000000)" style="stroke: black; stroke-width:0.25;"/>
<line x1="329.300000" y1="243.000000" x2="332.300000" y2="242.000000"  transform="rotate(0.000000,332.300000,242.000000)" style="stroke: black; stroke-width:0.25;"/>
<line x1="15.000000" y1="15.000000" x2="15.000000" y2="289.000000"  style="stroke: black; stroke-linecap:round; stroke-width:0.25; stroke-dasharray:3,3;"/>
<line x1="15.000000" y1="289.000000" x2="451.300000" y2="289.000000"  style="stroke: black; stroke-linecap:round; stroke-width:0.25; stroke-dasharray:3,3;"/>
<line x1="451.300000" y1="289.000000" x2="451.300000" y2="15.000000"  style="stroke: black; stroke-linecap:round; stroke-width:0.25; stroke-dasharray:3,3;"/>
<line x1="15.000000" y1="15.000000" x2="20.000000" y2="15.000000"  style="stroke: black; stroke-linecap:round; stroke-width:0.25; stroke-dasharray:3,3;"/>
<line x1="100.625000" y1="15.000000" x2="451.300000" y2="15.000000"  style="stroke: black; stroke-linecap:round; stroke-width:0.25; stroke-dasharray:3,3;"/>
<text x="20.000000" y="17.000000" font-family="Arial" font-size="7">brickwall_no_latency_bp</text>
<line x1="453.300000" y1="147.000000" x2="456.300000" y2="148.000000"  transform="rotate(0.000000,456.300000,148.000000)" style="stroke: black; stroke-width:0.25;"/>
<line x1="453.300000" y1="149.000000" x2="456.300000" y2="148.000000"  transform="rotate(0.000000,456.300000,148.000000)" style="stroke: black; stroke-width:0.25;"/>
<line x1="453.300000" y1="155.000000" x2="456.300000" y2="156.000000"  transform="rotate(0.000000,456.300000,156.000000)" style="stroke: black; stroke-width:0.25;"/>
<line x1="453.300000" y1="157.000000" x2="456.300000" y2="156.000000"  transform="rotate(0.000000,456.300000,156.000000)" style="stroke: black; stroke-width:0.25;"/>
<line x1="10.000000" y1="148.000000" x2="20.000000" y2="148.000000"  style="stroke:black; stroke-linecap:round; stroke-width:0.25;"/>
<line x1="10.000000" y1="156.000000" x2="20.000000" y2="156.000000"  style="stroke:black; stroke-linecap:round; stroke-width:0.25;"/>
<line x1="20.000000" y1="148.000000" x2="24.000000" y2="148.000000"  style="stroke:black; stroke-linecap:round; stroke-width:0.25;"/>
<line x1="20.000000" y1="156.000000" x2="24.000000" y2="156.000000"  style="stroke:black; stroke-linecap:round; stroke-width:0.25;"/>
<line x1="24.000000" y1="148.000000" x2="28.000000" y2="148.000000"  style="stroke:black; stroke-linecap:round; stroke-width:0.25;"/>
<line x1="24.000000" y1="156.000000" x2="28.000000" y2="156.000000"  style="stroke:black; stroke-linecap:round; stroke-width:0.25;"/>
<line x1="28.000000" y1="148.000000" x2="28.000000" y2="148.000000"  style="stroke:black; stroke-linecap:round; stroke-width:0.25;"/>
<line x1="28.000000" y1="148.000000" x2="32.000000" y2="148.000000"  style="stroke:black; stroke-linecap:round; stroke-width:0.25;"/>
<line x1="28.000000" y1="156.000000" x2="28.000000" y2="156.000000"  style="stroke:black; stroke-linecap:round; stroke-width:0.25;"/>
<line x1="28.000000" y1="156.000000" x2="32.000000" y2="156.000000"  style="stroke:black; stroke-linecap:round; stroke-width:0.25;"/>
<line x1="32.000000" y1="148.000000" x2="36.000000" y2="148.000000"  style="stroke:black; stroke-linecap:round; stroke-width:0.25;"/>
<line x1="32.000000" y1="156.000000" x2="36.000000" y2="156.000000"  style="stroke:black; stroke-linecap:round; stroke-width:0.25;"/>
<line x1="36.000000" y1="148.000000" x2="106.000000" y2="132.000000"  style="stroke:black; stroke-linecap:round; stroke-width:0.25;"/>
<line x1="36.000000" y1="148.000000" x2="106.000000" y2="156.000000"  style="stroke:black; stroke-linecap:round; stroke-width:0.25;"/>
<line x1="36.000000" y1="156.000000" x2="106.000000" y2="140.000000"  style="stroke:black; stroke-linecap:round; stroke-width:0.25;"/>
<line x1="36.000000" y1="156.000000" x2="106.000000" y2="164.000000"  style="stroke:black; stroke-linecap:round; stroke-width:0.25;"/>
<line x1="106.000000" y1="132.000000" x2="155.150000" y2="132.000000"  style="stroke:black; stroke-linecap:round; stroke-width:0.25;"/>
<line x1="106.000000" y1="140.000000" x2="155.150000" y2="140.000000"  style="stroke:black; stroke-linecap:round; stroke-width:0.25;"/>
<line x1="106.000000" y1="156.000000" x2="110.000000" y2="156.000000"  style="stroke:black; stroke-linecap:round; stroke-width:0.25;"/>
<line x1="106.000000" y1="164.000000" x2="110.000000" y2="164.000000"  style="stroke:black; stroke-linecap:round; stroke-width:0.25;"/>
<line x1="155.150000" y1="132.000000" x2="204.300000" y2="132.000000"  style="stroke:black; stroke-linecap:round; stroke-width:0.25;"/>
<line x1="155.150000" y1="140.000000" x2="204.300000" y2="140.000000"  style="stroke:black; stroke-linecap:round; stroke-width:0.25;"/>
<line x1="200.300000" y1="156.000000" x2="204.300000" y2="156.000000"  style="stroke:black; stroke-linecap:round; stroke-width:0.25;"/>
<line x1="200.300000" y1="164.000000" x2="204.300000" y2="164.000000"  style="stroke:black; stroke-linecap:round; stroke-width:0.25;"/>
<line x1="204.300000" y1="24.000000" x2="228.300000" y2="24.000000"  style="stroke:black; stroke-linecap:round; stroke-width:0.25;"/>
<line x1="204.300000" y1="132.000000" x2="204.300000" y2="24.000000"  style="stroke:black; stroke-linecap:round; stroke-width:0.25;"/>
<line x1="204.300000" y1="132.000000" x2="204.300000" y2="132.000000"  style="stroke:black; stroke-linecap:round; stroke-width:0.25;"/>
<line x1="204.300000" y1="140.000000" x2="212.300000" y2="140.000000"  style="stroke:black; stroke-linecap:round; stroke-width:0.25;"/>
<line x1="204.300000" y1="156.000000" x2="220.300000" y2="156.000000"  style="stroke:black; stroke-linecap:round; stroke-width:0.25;"/>
<line x1="204.300000" y1="164.000000" x2="228.300000" y2="164.000000"  style="stroke:black; stroke-linecap:round; stroke-width:0.25;"/>
<line x1="212.300000" y1="64.000000" x2="228.300000" y2="64.000000"  style="stroke:black; stroke-linecap:round; stroke-width:0.25;"/>
<line x1="212.300000" y1="140.000000" x2="212.300000" y2="64.000000"  style="stroke:black; stroke-linecap:round; stroke-width:0.25;"/>
<line x1="220.300000" y1="104.000000" x2="228.300000" y2="104.000000"  style="stroke:black; stroke-linecap:round; stroke-width:0.25;"/>
<line x1="220.300000" y1="156.000000" x2="220.300000" y2="104.000000"  style="stroke:black; stroke-linecap:round; stroke-width:0.25;"/>
<line x1="228.300000" y1="24.000000" x2="258.300000" y2="24.000000"  style="stroke:black; stroke-linecap:round; stroke-width:0.25;"/>
<line x1="228.300000" y1="64.000000" x2="258.300000" y2="64.000000"  style="stroke:black; stroke-linecap:round; stroke-width:0.25;"/>
<line x1="228.300000" y1="104.000000" x2="274.300000" y2="104.000000"  style="stroke:black; stroke-linecap:round; stroke-width:0.25;"/>
<line x1="228.300000" y1="164.000000" x2="228.300000" y2="196.000000"  style="stroke:black; stroke-linecap:round; stroke-width:0.25;"/>
<line x1="228.300000" y1="196.000000" x2="228.300000" y2="196.000000"  style="stroke:black; stroke-linecap:round; stroke-width:0.25;"/>
<line x1="228.300000" y1="196.000000" x2="274.300000" y2="196.000000"  style="stroke:black; stroke-linecap:round; stroke-width:0.25;"/>
<line x1="258.300000" y1="24.000000" x2="274.300000" y2="24.000000"  style="stroke:black; stroke-linecap:round; stroke-width:0.25;"/>
<line x1="258.300000" y1="64.000000" x2="274.300000" y2="64.000000"  style="stroke:black; stroke-linecap:round; stroke-width:0.25;"/>
<line x1="266.300000" y1="134.000000" x2="270.300000" y2="134.000000"  style="stroke:black; stroke-linecap:round; stroke-width:0.25;"/>
<line x1="266.300000" y1="176.000000" x2="270.300000" y2="176.000000"  style="stroke:black; stroke-linecap:round; stroke-width:0.25;"/>
<line x1="266.300000" y1="226.000000" x2="270.300000" y2="226.000000"  style="stroke:black; stroke-linecap:round; stroke-width:0.25;"/>
<line x1="266.300000" y1="268.000000" x2="270.300000" y2="268.000000"  style="stroke:black; stroke-linecap:round; stroke-width:0.25;"/>
<line x1="270.300000" y1="134.000000" x2="280.300000" y2="134.000000"  style="stroke:black; stroke-linecap:round; stroke-width:0.25;"/>
<line x1="270.300000" y1="176.000000" x2="280.300000" y2="176.000000"  style="stroke:black; stroke-linecap:round; stroke-width:0.25;"/>
<line x1="270.300000" y1="226.000000" x2="280.300000" y2="226.000000"  style="stroke:black; stroke-linecap:round; stroke-width:0.25;"/>
<line x1="270.300000" y1="268.000000" x2="280.300000" y2="268.000000"  style="stroke:black; stroke-linecap:round; stroke-width:0.25;"/>
<line x1="274.300000" y1="24.000000" x2="290.300000" y2="24.000000"  style="stroke:black; stroke-linecap:round; stroke-width:0.25;"/>
<line x1="274.300000" y1="64.000000" x2="290.300000" y2="64.000000"  style="stroke:black; stroke-linecap:round; stroke-width:0.25;"/>
<line x1="274.300000" y1="104.000000" x2="320.300000" y2="104.000000"  style="stroke:black; stroke-linecap:round; stroke-width:0.25;"/>
<line x1="274.300000" y1="196.000000" x2="320.300000" y2="196.000000"  style="stroke:black; stroke-linecap:round; stroke-width:0.25;"/>
<line x1="280.300000" y1="134.000000" x2="288.300000" y2="134.000000"  style="stroke:black; stroke-linecap:round; stroke-width:0.25;"/>
<line x1="280.300000" y1="154.000000" x2="288.300000" y2="154.000000"  style="stroke:black; stroke-linecap:round; stroke-width:0.25;"/>
<line x1="280.300000" y1="176.000000" x2="280.300000" y2="154.000000"  style="stroke:black; stroke-linecap:round; stroke-width:0.25;"/>
<line x1="280.300000" y1="176.000000" x2="280.300000" y2="176.000000"  style="stroke:black; stroke-linecap:round; stroke-width:0.25;"/>
<line x1="280.300000" y1="226.000000" x2="288.300000" y2="226.000000"  style="stroke:black; stroke-linecap:round; stroke-width:0.25;"/>
<line x1="280.300000" y1="246.000000" x2="288.300000" y2="246.000000"  style="stroke:black; stroke-linecap:round; stroke-width:0.25;"/>
<line x1="280.300000" y1="268.000000" x2="280.300000" y2="246.000000"  style="stroke:black; stroke-linecap:round; stroke-width:0.25;"/>
<line x1="280.300000" y1="268.000000" x2="280.300000" y2="268.000000"  style="stroke:black; stroke-linecap:round; stroke-width:0.25;"/>
<line x1="286.300000" y1="44.000000" x2="290.300000" y2="44.000000"  style="stroke:black; stroke-linecap:round; stroke-width:0.25;"/>
<line x1="286.300000" y1="84.000000" x2="290.300000" y2="84.000000"  style="stroke:black; stroke-linecap:round; stroke-width:0.25;"/>
<line x1="288.300000" y1="134.000000" x2="288.300000" y2="146.000000"  style="stroke:black; stroke-linecap:round; stroke-width:0.25;"/>
<line x1="288.300000" y1="146.000000" x2="288.300000" y2="146.000000"  style="stroke:black; stroke-linecap:round; stroke-width:0.25;"/>
<line x1="288.300000" y1="146.000000" x2="292.300000" y2="146.000000"  style="stroke:black; stroke-linecap:round; stroke-width:0.25;"/>
<line x1="288.300000" y1="154.000000" x2="292.300000" y2="154.000000"  style="stroke:black; stroke-linecap:round; stroke-width:0.25;"/>
<line x1="288.300000" y1="226.000000" x2="288.300000" y2="238.000000"  style="stroke:black; stroke-linecap:round; stroke-width:0.25;"/>
<line x1="288.300000" y1="238.000000" x2="288.300000" y2="238.000000"  style="stroke:black; stroke-linecap:round; stroke-width:0.25;"/>
<line x1="288.300000" y1="238.000000" x2="292.300000" y2="238.000000"  style="stroke:black; stroke-linecap:round; stroke-width:0.25;"/>
<line x1="288.300000" y1="246.000000" x2="292.300000" y2="246.000000"  style="stroke:black; stroke-linecap:round; stroke-width:0.25;"/>
<line x1="290.300000" y1="24.000000" x2="298.300000" y2="24.000000"  style="stroke:black; stroke-linecap:round; stroke-width:0.25;"/>
<line x1="290.300000" y1="44.000000" x2="298.300000" y2="44.000000"  style="stroke:black; stroke-linecap:round; stroke-width:0.25;"/>
<line x1="290.300000" y1="64.000000" x2="298.300000" y2="64.000000"  style="stroke:black; stroke-linecap:round; stroke-width:0.25;"/>
<line x1="290.300000" y1="84.000000" x2="298.300000" y2="84.000000"  style="stroke:black; stroke-linecap:round; stroke-width:0.25;"/>
<line x1="298.300000" y1="24.000000" x2="298.300000" y2="36.000000"  style="stroke:black; stroke-linecap:round; stroke-width:0.25;"/>
<line x1="298.300000" y1="36.000000" x2="298.300000" y2="36.000000"  style="stroke:black; stroke-linecap:round; stroke-width:0.25;"/>
<line x1="298.300000" y1="36.000000" x2="302.300000" y2="36.000000"  style="stroke:black; stroke-linecap:round; stroke-width:0.25;"/>
<line x1="298.300000" y1="44.000000" x2="302.300000" y2="44.000000"  style="stroke:black; stroke-linecap:round; stroke-width:0.25;"/>
<line x1="298.300000" y1="64.000000" x2="298.300000" y2="76.000000"  style="stroke:black; stroke-linecap:round; stroke-width:0.25;"/>
<line x1="298.300000" y1="76.000000" x2="298.300000" y2="76.000000"  style="stroke:black; stroke-linecap:round; stroke-width:0.25;"/>
<line x1="298.300000" y1="76.000000" x2="302.300000" y2="76.000000"  style="stroke:black; stroke-linecap:round; stroke-width:0.25;"/>
<line x1="298.300000" y1="84.000000" x2="302.300000" y2="84.000000"  style="stroke:black; stroke-linecap:round; stroke-width:0.25;"/>
<line x1="316.300000" y1="150.000000" x2="320.300000" y2="150.000000"  style="stroke:black; stroke-linecap:round; stroke-width:0.25;"/>
<line x1="316.300000" y1="242.000000" x2="320.300000" y2="242.000000"  style="stroke:black; stroke-linecap:round; stroke-width:0.25;"/>
<line x1="320.300000" y1="104.000000" x2="328.300000" y2="104.000000"  style="stroke:black; stroke-linecap:round; stroke-width:0.25;"/>
<line x1="320.300000" y1="150.000000" x2="328.300000" y2="150.000000"  style="stroke:black; stroke-linecap:round; stroke-width:0.25;"/>
<line x1="320.300000" y1="196.000000" x2="328.300000" y2="196.000000"  style="stroke:black; stroke-linecap:round; stroke-width:0.25;"/>
<line x1="320.300000" y1="242.000000" x2="328.300000" y2="242.000000"  style="stroke:black; stroke-linecap:round; stroke-width:0.25;"/>
<line x1="326.300000" y1="40.000000" x2="330.300000" y2="40.000000"  style="stroke:black; stroke-linecap:round; stroke-width:0.25;"/>
<line x1="326.300000" y1="80.000000" x2="330.300000" y2="80.000000"  style="stroke:black; stroke-linecap:round; stroke-width:0.25;"/>
<line x1="328.300000" y1="104.000000" x2="328.300000" y2="142.000000"  style="stroke:black; stroke-linecap:round; stroke-width:0.25;"/>
<line x1="328.300000" y1="142.000000" x2="328.300000" y2="142.000000"  style="stroke:black; stroke-linecap:round; stroke-width:0.25;"/>
<line x1="328.300000" y1="142.000000" x2="332.300000" y2="142.000000"  style="stroke:black; stroke-linecap:round; stroke-width:0.25;"/>
<line x1="328.300000" y1="150.000000" x2="332.300000" y2="150.000000"  style="stroke:black; stroke-linecap:round; stroke-width:0.25;"/>
<line x1="328.300000" y1="196.000000" x2="328.300000" y2="234.000000"  style="stroke:black; stroke-linecap:round; stroke-width:0.25;"/>
<line x1="328.300000" y1="234.000000" x2="328.300000" y2="234.000000"  style="stroke:black; stroke-linecap:round; stroke-width:0.25;"/>
<line x1="328.300000" y1="234.000000" x2="332.300000" y2="234.000000"  style="stroke:black; stroke-linecap:round; stroke-width:0.25;"/>
<line x1="328.300000" y1="242.000000" x2="332.300000" y2="242.000000"  style="stroke:black; stroke-linecap:round; stroke-width:0.25;"/>
<line x1="330.300000" y1="40.000000" x2="360.300000" y2="40.000000"  style="stroke:black; stroke-linecap:round; stroke-width:0.25;"/>
<line x1="330.300000" y1="80.000000" x2="360.300000" y2="80.000000"  style="stroke:black; stroke-linecap:round; stroke-width:0.25;"/>
<line x1="356.300000" y1="146.000000" x2="360.300000" y2="146.000000"  style="stroke:black; stroke-linecap:round; stroke-width:0.25;"/>
<line x1="356.300000" y1="238.000000" x2="360.300000" y2="238.000000"  style="stroke:black; stroke-linecap:round; stroke-width:0.25;"/>
<line x1="360.300000" y1="40.000000" x2="430.300000" y2="148.000000"  style="stroke:black; stroke-linecap:round; stroke-width:0.25;"/>
<line x1="360.300000" y1="80.000000" x2="430.300000" y2="156.000000"  style="stroke:black; stroke-linecap:round; stroke-width:0.25;"/>
<line x1="360.300000" y1="146.000000" x2="430.300000" y2="148.000000"  style="stroke:black; stroke-linecap:round; stroke-width:0.25;"/>
<line x1="360.300000" y1="238.000000" x2="430.300000" y2="156.000000"  style="stroke:black; stroke-linecap:round; stroke-width:0.25;"/>
<line x1="430.300000" y1="148.000000" x2="434.300000" y2="148.000000"  style="stroke:black; stroke-linecap:round; stroke-width:0.25;"/>
<line x1="430.300000" y1="156.000000" x2="434.300000" y2="156.000000"  style="stroke:black; stroke-linecap:round; stroke-width:0.25;"/>
<line x1="434.300000" y1="148.000000" x2="438.300000" y2="148.000000"  style="stroke:black; stroke-linecap:round; stroke-width:0.25;"/>
<line x1="434.300000" y1="156.000000" x2="438.300000" y2="156.000000"  style="stroke:black; stroke-linecap:round; stroke-width:0.25;"/>
<line x1="438.300000" y1="148.000000" x2="438.300000" y2="148.000000"  style="stroke:black; stroke-linecap:round; stroke-width:0.25;"/>
<line x1="438.300000" y1="148.000000" x2="442.300000" y2="148.000000"  style="stroke:black; stroke-linecap:round; stroke-width:0.25;"/>
<line x1="438.300000" y1="156.000000" x2="438.300000" y2="156.000000"  style="stroke:black; stroke-linecap:round; stroke-width:0.25;"/>
<line x1="438.300000" y1="156.000000" x2="442.300000" y2="156.000000"  style="stroke:black; stroke-linecap:round; stroke-width:0.25;"/>
<line x1="442.300000" y1="148.000000" x2="446.300000" y2="148.000000"  style="stroke:black; stroke-linecap:round; stroke-width:0.25;"/>
<line x1="442.300000" y1="156.000000" x2="446.300000" y2="156.000000"  style="stroke:black; stroke-linecap:round; stroke-width:0.25;"/>
<line x1="446.300000" y1="148.000000" x2="456.300000" y2="148.000000"  style="stroke:black; stroke-linecap:round; stroke-width:0.25;"/>
<line x1="446.300000" y1="156.000000" x2="456.300000" y2="156.000000"  style="stroke:black; stroke-linecap:round; stroke-width:0.25;"/>
</svg>
