<?xml version="1.0"?>
<svg xmlns="http://www.w3.org/2000/svg" xmlns:xlink="http://www.w3.org/1999/xlink" viewBox="0 0 728.600000 124.000000" width="364.300000mm" height="62.000000mm" version="1.1">
<a xlink:href="brickwall-0x600150189560.svg">
<rect x="1.000000" y="1.000000" width="727.600000" height="123.000000" rx="0" ry="0" style="stroke:none;fill:#cccccc;"/>
<rect x="0.000000" y="0.000000" width="727.600000" height="123.000000" rx="0" ry="0" style="stroke:none;fill:#ffffff;"/>
</a>
<text x="10.000000" y="7.000000" font-family="Arial" font-size="7"></text>
<a xlink:href="peak-0x600150140870.svg">
<rect x="66.000000" y="27.000000" width="154.800000" height="24.000000" rx="0" ry="0" style="stroke:none;fill:#cccccc;"/>
<rect x="65.000000" y="26.000000" width="154.800000" height="24.000000" rx="0" ry="0" style="stroke:none;fill:#003366;"/>
</a>
<a xlink:href="peak-0x600150140870.svg">
<text x="142.400000" y="40.000000" font-family="Arial" font-size="7" text-anchor="middle" fill="#FFFFFF">peak_compress...),0.001f : *)(0)(0)</text>
</a>
<circle cx="67.000000" cy="28.000000" r="1"/>
<line x1="62.000000" y1="37.000000" x2="65.000000" y2="38.000000"  transform="rotate(0.000000,65.000000,38.000000)" style="stroke: black; stroke-width:0.25;"/>
<line x1="62.000000" y1="39.000000" x2="65.000000" y2="38.000000"  transform="rotate(0.000000,65.000000,38.000000)" style="stroke: black; stroke-width:0.25;"/>
<a xlink:href="peak-0x600150192a30.svg">
<rect x="66.000000" y="59.000000" width="154.800000" height="24.000000" rx="0" ry="0" style="stroke:none;fill:#cccccc;"/>
<rect x="65.000000" y="58.000000" width="154.800000" height="24.000000" rx="0" ry="0" style="stroke:none;fill:#003366;"/>
</a>
<a xlink:href="peak-0x600150192a30.svg">
<text x="142.400000" y="72.000000" font-family="Arial" font-size="7" text-anchor="middle" fill="#FFFFFF">peak_compress...),0.001f : *)(0)(0)</text>
</a>
<circle cx="67.000000" cy="60.000000" r="1"/>
<line x1="62.000000" y1="69.000000" x2="65.000000" y2="70.000000"  transform="rotate(0.000000,65.000000,70.000000)" style="stroke: black; stroke-width:0.25;"/>
<line x1="62.000000" y1="71.000000" x2="65.000000" y2="70.000000"  transform="rotate(0.000000,65.000000,70.000000)" style="stroke: black; stroke-width:0.25;"/>
<rect x="271.800000" y="51.000000" width="24.000000" height="24.000000" rx="0" ry="0" style="stroke:none;fill:#cccccc;"/>
<rect x="270.800000" y="50.000000" width="24.000000" height="24.000000" rx="0" ry="0" style="stroke:none;fill:#4B71A1;"/>
<text x="282.800000" y="64.000000" font-family="Arial" font-size="7" text-anchor="middle" fill="#FFFFFF">min</text>
<circle cx="272.800000" cy="52.000000" r="1"/>
<line x1="267.800000" y1="57.000000" x2="270.800000" y2="58.000000"  transform="rotate(0.000000,270.800000,58.000000)" style="stroke: black; stroke-width:0.25;"/>
<line x1="267.800000" y1="59.000000" x2="270.800000" y2="58.000000"  transform="rotate(0.000000,270.800000,58.000000)" style="stroke: black; stroke-width:0.25;"/>
<line x1="267.800000" y1="65.000000" x2="270.800000" y2="66.000000"  transform="rotate(0.000000,270.800000,66.000000)" style="stroke: black; stroke-width:0.25;"/>
<line x1="267.800000" y1="67.000000" x2="270.800000" y2="66.000000"  transform="rotate(0.000000,270.800000,66.000000)" style="stroke: black; stroke-width:0.25;"/>
<line x1="261.800000" y1="41.000000" x2="261.800000" y2="83.000000"  style="stroke: black; stroke-linecap:round; stroke-width:0.25; stroke-dasharray:3,3;"/>
<line x1="261.800000" y1="83.000000" x2="303.800000" y2="83.000000"  style="stroke: black; stroke-linecap:round; stroke-width:0.25; stroke-dasharray:3,3;"/>
<line x1="303.800000" y1="83.000000" x2="303.800000" y2="41.000000"  style="stroke: black; stroke-linecap:round; stroke-width:0.25; stroke-dasharray:3,3;"/>
<line x1="261.800000" y1="41.000000" x2="266.800000" y2="41.000000"  style="stroke: black; stroke-linecap:round; stroke-width:0.25; stroke-dasharray:3,3;"/>
<line x1="303.800000" y1="41.000000" x2="303.800000" y2="41.000000"  style="stroke: black; stroke-linecap:round; stroke-width:0.25; stroke-dasharray:3,3;"/>
<text x="266.800000" y="43.000000" font-family="Arial" font-size="7">parallelMin(2)</text>
<a xlink:href="interpolate-0x600150194bd0.svg">
<rect x="408.800000" y="27.000000" width="90.300000" height="24.000000" rx="0" ry="0" style="stroke:none;fill:#cccccc;"/>
<rect x="407.800000" y="26.000000" width="90.300000" height="24.000000" rx="0" ry="0" style="stroke:none;fill:#003366;"/>
</a>
<a xlink:href="interpolate-0x600150194bd0.svg">
<text x="452.950000" y="40.000000" font-family="Arial" font-size="7" text-anchor="middle" fill="#FFFFFF">interpolate_linear(1)</text>
</a>
<circle cx="409.800000" cy="28.000000" r="1"/>
<line x1="404.800000" y1="33.000000" x2="407.800000" y2="34.000000"  transform="rotate(0.000000,407.800000,34.000000)" style="stroke: black; stroke-width:0.25;"/>
<line x1="404.800000" y1="35.000000" x2="407.800000" y2="34.000000"  transform="rotate(0.000000,407.800000,34.000000)" style="stroke: black; stroke-width:0.25;"/>
<line x1="404.800000" y1="41.000000" x2="407.800000" y2="42.000000"  transform="rotate(0.000000,407.800000,42.000000)" style="stroke: black; stroke-width:0.25;"/>
<line x1="404.800000" y1="43.000000" x2="407.800000" y2="42.000000"  transform="rotate(0.000000,407.800000,42.000000)" style="stroke: black; stroke-width:0.25;"/>
<a xlink:href="interpolate-0x600150196c70.svg">
<rect x="408.800000" y="59.000000" width="90.300000" height="24.000000" rx="0" ry="0" style="stroke:none;fill:#cccccc;"/>
<rect x="407.800000" y="58.000000" width="90.300000" height="24.000000" rx="0" ry="0" style="stroke:none;fill:#003366;"/>
</a>
<a xlink:href="interpolate-0x600150196c70.svg">
<text x="452.950000" y="72.000000" font-family="Arial" font-size="7" text-anchor="middle" fill="#FFFFFF">interpolate_linear(1)</text>
</a>
<circle cx="409.800000" cy="60.000000" r="1"/>
<line x1="404.800000" y1="65.000000" x2="407.800000" y2="66.000000"  transform="rotate(0.000000,407.800000,66.000000)" style="stroke: black; stroke-width:0.25;"/>
<line x1="404.800000" y1="67.000000" x2="407.800000" y2="66.000000"  transform="rotate(0.000000,407.800000,66.000000)" style="stroke: black; stroke-width:0.25;"/>
<line x1="404.800000" y1="73.000000" x2="407.800000" y2="74.000000"  transform="rotate(0.000000,407.800000,74.000000)" style="stroke: black; stroke-width:0.25;"/>
<line x1="404.800000" y1="75.000000" x2="407.800000" y2="74.000000"  transform="rotate(0.000000,407.800000,74.000000)" style="stroke: black; stroke-width:0.25;"/>
<a xlink:href="meter-0x600150188990.svg">
<rect x="585.100000" y="27.000000" width="64.500000" height="24.000000" rx="0" ry="0" style="stroke:none;fill:#cccccc;"/>
<rect x="584.100000" y="26.000000" width="64.500000" height="24.000000" rx="0" ry="0" style="stroke:none;fill:#003366;"/>
</a>
<a xlink:href="meter-0x600150188990.svg">
<text x="616.350000" y="40.000000" font-family="Arial" font-size="7" text-anchor="middle" fill="#FFFFFF">meter_brickwall</text>
</a>
<circle cx="586.100000" cy="28.000000" r="1"/>
<line x1="581.100000" y1="37.000000" x2="584.100000" y2="38.000000"  transform="rotate(0.000000,584.100000,38.000000)" style="stroke: black; stroke-width:0.25;"/>
<line x1="581.100000" y1="39.000000" x2="584.100000" y2="38.000000"  transform="rotate(0.000000,584.100000,38.000000)" style="stroke: black; stroke-width:0.25;"/>
<rect x="665.600000" y="31.000000" width="24.000000" height="24.000000" rx="0" ry="0" style="stroke:none;fill:#cccccc;"/>
<rect x="664.600000" y="30.000000" width="24.000000" height="24.000000" rx="0" ry="0" style="stroke:none;fill:#4B71A1;"/>
<text x="676.600000" y="44.000000" font-family="Arial" font-size="7" text-anchor="middle" fill="#FFFFFF">*</text>
<circle cx="666.600000" cy="32.000000" r="1"/>
<line x1="661.600000" y1="37.000000" x2="664.600000" y2="38.000000"  transform="rotate(0.000000,664.600000,38.000000)" style="stroke: black; stroke-width:0.25;"/>
<line x1="661.600000" y1="39.000000" x2="664.600000" y2="38.000000"  transform="rotate(0.000000,664.600000,38.000000)" style="stroke: black; stroke-width:0.25;"/>
<line x1="661.600000" y1="45.000000" x2="664.600000" y2="46.000000"  transform="rotate(0.000000,664.600000,46.000000)" style="stroke: black; stroke-width:0.25;"/>
<line x1="661.600000" y1="47.000000" x2="664.600000" y2="46.000000"  transform="rotate(0.000000,664.600000,46.000000)" style="stroke: black; stroke-width:0.25;"/>
<a xlink:href="meter-0x600150188990.svg">
<rect x="585.100000" y="67.000000" width="64.500000" height="24.000000" rx="0" ry="0" style="stroke:none;fill:#cccccc;"/>
<rect x="584.100000" y="66.000000" width="64.500000" height="24.000000" rx="0" ry="0" style="stroke:none;fill:#003366;"/>
</a>
<a xlink:href="meter-0x600150188990.svg">
<text x="616.350000" y="80.000000" font-family="Arial" font-size="7" text-anchor="middle" fill="#FFFFFF">meter_brickwall</text>
</a>
<circle cx="586.100000" cy="68.000000" r="1"/>
<line x1="581.100000" y1="77.000000" x2="584.100000" y2="78.000000"  transform="rotate(0.000000,584.100000,78.000000)" style="stroke: black; stroke-width:0.25;"/>
<line x1="581.100000" y1="79.000000" x2="584.100000" y2="78.000000"  transform="rotate(0.000000,584.100000,78.000000)" style="stroke: black; stroke-width:0.25;"/>
<rect x="665.600000" y="71.000000" width="24.000000" height="24.000000" rx="0" ry="0" style="stroke:none;fill:#cccccc;"/>
<rect x="664.600000" y="70.000000" width="24.000000" height="24.000000" rx="0" ry="0" style="stroke:none;fill:#4B71A1;"/>
<text x="676.600000" y="84.000000" font-family="Arial" font-size="7" text-anchor="middle" fill="#FFFFFF">*</text>
<circle cx="666.600000" cy="72.000000" r="1"/>
<line x1="661.600000" y1="77.000000" x2="664.600000" y2="78.000000"  transform="rotate(0.000000,664.600000,78.000000)" style="stroke: black; stroke-width:0.25;"/>
<line x1="661.600000" y1="79.000000" x2="664.600000" y2="78.000000"  transform="rotate(0.000000,664.600000,78.000000)" style="stroke: black; stroke-width:0.25;"/>
<line x1="661.600000" y1="85.000000" x2="664.600000" y2="86.000000"  transform="rotate(0.000000,664.600000,86.000000)" style="stroke: black; stroke-width:0.25;"/>
<line x1="661.600000" y1="87.000000" x2="664.600000" y2="86.000000"  transform="rotate(0.000000,664.600000,86.000000)" style="stroke: black; stroke-width:0.25;"/>
<line x1="15.000000" y1="15.000000" x2="15.000000" y2="109.000000"  style="stroke: black; stroke-linecap:round; stroke-width:0.25; stroke-dasharray:3,3;"/>
<line x1="15.000000" y1="109.000000" x2="713.600000" y2="109.000000"  style="stroke: black; stroke-linecap:round; stroke-width:0.25; stroke-dasharray:3,3;"/>
<line x1="713.600000" y1="109.000000" x2="713.600000" y2="15.000000"  style="stroke: black; stroke-linecap:round; stroke-width:0.25; stroke-dasharray:3,3;"/>
<line x1="15.000000" y1="15.000000" x2="20.000000" y2="15.000000"  style="stroke: black; stroke-linecap:round; stroke-width:0.25; stroke-dasharray:3,3;"/>
<line x1="90.950000" y1="15.000000" x2="713.600000" y2="15.000000"  style="stroke: black; stroke-linecap:round; stroke-width:0.25; stroke-dasharray:3,3;"/>
<text x="20.000000" y="17.000000" font-family="Arial" font-size="7">brickwall_no_latency</text>
<line x1="715.600000" y1="57.000000" x2="718.600000" y2="58.000000"  transform="rotate(0.000000,718.600000,58.000000)" style="stroke: black; stroke-width:0.25;"/>
<line x1="715.600000" y1="59.000000" x2="718.600000" y2="58.000000"  transform="rotate(0.000000,718.600000,58.000000)" style="stroke: black; stroke-width:0.25;"/>
<line x1="715.600000" y1="65.000000" x2="718.600000" y2="66.000000"  transform="rotate(0.000000,718.600000,66.000000)" style="stroke: black; stroke-width:0.25;"/>
<line x1="715.600000" y1="67.000000" x2="718.600000" y2="66.000000"  transform="rotate(0.000000,718.600000,66.000000)" style="stroke: black; stroke-width:0.25;"/>
<line x1="10.000000" y1="58.000000" x2="20.000000" y2="58.000000"  style="stroke:black; stroke-linecap:round; stroke-width:0.25;"/>
<line x1="10.000000" y1="66.000000" x2="20.000000" y2="66.000000"  style="stroke:black; stroke-linecap:round; stroke-width:0.25;"/>
<line x1="20.000000" y1="58.000000" x2="24.000000" y2="58.000000"  style="stroke:black; stroke-linecap:round; stroke-width:0.25;"/>
<line x1="20.000000" y1="66.000000" x2="24.000000" y2="66.000000"  style="stroke:black; stroke-linecap:round; stroke-width:0.25;"/>
<line x1="24.000000" y1="58.000000" x2="28.000000" y2="58.000000"  style="stroke:black; stroke-linecap:round; stroke-width:0.25;"/>
<line x1="24.000000" y1="66.000000" x2="28.000000" y2="66.000000"  style="stroke:black; stroke-linecap:round; stroke-width:0.25;"/>
<line x1="28.000000" y1="58.000000" x2="28.000000" y2="58.000000"  style="stroke:black; stroke-linecap:round; stroke-width:0.25;"/>
<line x1="28.000000" y1="58.000000" x2="32.000000" y2="58.000000"  style="stroke:black; stroke-linecap:round; stroke-width:0.25;"/>
<line x1="28.000000" y1="66.000000" x2="28.000000" y2="66.000000"  style="stroke:black; stroke-linecap:round; stroke-width:0.25;"/>
<line x1="28.000000" y1="66.000000" x2="32.000000" y2="66.000000"  style="stroke:black; stroke-linecap:round; stroke-width:0.25;"/>
<line x1="32.000000" y1="58.000000" x2="36.000000" y2="58.000000"  style="stroke:black; stroke-linecap:round; stroke-width:0.25;"/>
<line x1="32.000000" y1="66.000000" x2="36.000000" y2="66.000000"  style="stroke:black; stroke-linecap:round; stroke-width:0.25;"/>
<line x1="36.000000" y1="58.000000" x2="61.000000" y2="38.000000"  style="stroke:black; stroke-linecap:round; stroke-width:0.25;"/>
<line x1="36.000000" y1="58.000000" x2="61.000000" y2="92.000000"  style="stroke:black; stroke-linecap:round; stroke-width:0.25;"/>
<line x1="36.000000" y1="66.000000" x2="61.000000" y2="70.000000"  style="stroke:black; stroke-linecap:round; stroke-width:0.25;"/>
<line x1="36.000000" y1="66.000000" x2="61.000000" y2="100.000000"  style="stroke:black; stroke-linecap:round; stroke-width:0.25;"/>
<line x1="61.000000" y1="38.000000" x2="65.000000" y2="38.000000"  style="stroke:black; stroke-linecap:round; stroke-width:0.25;"/>
<line x1="61.000000" y1="70.000000" x2="65.000000" y2="70.000000"  style="stroke:black; stroke-linecap:round; stroke-width:0.25;"/>
<line x1="61.000000" y1="92.000000" x2="281.550000" y2="92.000000"  style="stroke:black; stroke-linecap:round; stroke-width:0.25;"/>
<line x1="61.000000" y1="100.000000" x2="281.550000" y2="100.000000"  style="stroke:black; stroke-linecap:round; stroke-width:0.25;"/>
<line x1="219.800000" y1="38.000000" x2="223.800000" y2="38.000000"  style="stroke:black; stroke-linecap:round; stroke-width:0.25;"/>
<line x1="219.800000" y1="70.000000" x2="223.800000" y2="70.000000"  style="stroke:black; stroke-linecap:round; stroke-width:0.25;"/>
<line x1="223.800000" y1="38.000000" x2="256.800000" y2="24.000000"  style="stroke:black; stroke-linecap:round; stroke-width:0.25;"/>
<line x1="223.800000" y1="38.000000" x2="256.800000" y2="58.000000"  style="stroke:black; stroke-linecap:round; stroke-width:0.25;"/>
<line x1="223.800000" y1="70.000000" x2="256.800000" y2="32.000000"  style="stroke:black; stroke-linecap:round; stroke-width:0.25;"/>
<line x1="223.800000" y1="70.000000" x2="256.800000" y2="66.000000"  style="stroke:black; stroke-linecap:round; stroke-width:0.25;"/>
<line x1="256.800000" y1="24.000000" x2="295.300000" y2="24.000000"  style="stroke:black; stroke-linecap:round; stroke-width:0.25;"/>
<line x1="256.800000" y1="32.000000" x2="295.300000" y2="32.000000"  style="stroke:black; stroke-linecap:round; stroke-width:0.25;"/>
<line x1="256.800000" y1="58.000000" x2="266.800000" y2="58.000000"  style="stroke:black; stroke-linecap:round; stroke-width:0.25;"/>
<line x1="256.800000" y1="66.000000" x2="266.800000" y2="66.000000"  style="stroke:black; stroke-linecap:round; stroke-width:0.25;"/>
<line x1="266.800000" y1="58.000000" x2="270.800000" y2="58.000000"  style="stroke:black; stroke-linecap:round; stroke-width:0.25;"/>
<line x1="266.800000" y1="66.000000" x2="270.800000" y2="66.000000"  style="stroke:black; stroke-linecap:round; stroke-width:0.25;"/>
<line x1="281.550000" y1="92.000000" x2="502.100000" y2="92.000000"  style="stroke:black; stroke-linecap:round; stroke-width:0.25;"/>
<line x1="281.550000" y1="100.000000" x2="502.100000" y2="100.000000"  style="stroke:black; stroke-linecap:round; stroke-width:0.25;"/>
<line x1="294.800000" y1="62.000000" x2="298.800000" y2="62.000000"  style="stroke:black; stroke-linecap:round; stroke-width:0.25;"/>
<line x1="295.300000" y1="24.000000" x2="333.800000" y2="24.000000"  style="stroke:black; stroke-linecap:round; stroke-width:0.25;"/>
<line x1="295.300000" y1="32.000000" x2="333.800000" y2="32.000000"  style="stroke:black; stroke-linecap:round; stroke-width:0.25;"/>
<line x1="298.800000" y1="62.000000" x2="308.800000" y2="62.000000"  style="stroke:black; stroke-linecap:round; stroke-width:0.25;"/>
<line x1="308.800000" y1="62.000000" x2="325.800000" y2="58.000000"  style="stroke:black; stroke-linecap:round; stroke-width:0.25;"/>
<line x1="308.800000" y1="62.000000" x2="325.800000" y2="66.000000"  style="stroke:black; stroke-linecap:round; stroke-width:0.25;"/>
<line x1="325.800000" y1="58.000000" x2="329.800000" y2="58.000000"  style="stroke:black; stroke-linecap:round; stroke-width:0.25;"/>
<line x1="325.800000" y1="66.000000" x2="329.800000" y2="66.000000"  style="stroke:black; stroke-linecap:round; stroke-width:0.25;"/>
<line x1="329.800000" y1="58.000000" x2="333.800000" y2="58.000000"  style="stroke:black; stroke-linecap:round; stroke-width:0.25;"/>
<line x1="329.800000" y1="66.000000" x2="333.800000" y2="66.000000"  style="stroke:black; stroke-linecap:round; stroke-width:0.25;"/>
<line x1="333.800000" y1="24.000000" x2="349.800000" y2="24.000000"  style="stroke:black; stroke-linecap:round; stroke-width:0.25;"/>
<line x1="333.800000" y1="32.000000" x2="341.800000" y2="32.000000"  style="stroke:black; stroke-linecap:round; stroke-width:0.25;"/>
<line x1="333.800000" y1="58.000000" x2="349.800000" y2="58.000000"  style="stroke:black; stroke-linecap:round; stroke-width:0.25;"/>
<line x1="333.800000" y1="66.000000" x2="349.800000" y2="66.000000"  style="stroke:black; stroke-linecap:round; stroke-width:0.25;"/>
<line x1="341.800000" y1="32.000000" x2="341.800000" y2="50.000000"  style="stroke:black; stroke-linecap:round; stroke-width:0.25;"/>
<line x1="341.800000" y1="50.000000" x2="349.800000" y2="50.000000"  style="stroke:black; stroke-linecap:round; stroke-width:0.25;"/>
<line x1="349.800000" y1="24.000000" x2="349.800000" y2="42.000000"  style="stroke:black; stroke-linecap:round; stroke-width:0.25;"/>
<line x1="349.800000" y1="42.000000" x2="349.800000" y2="42.000000"  style="stroke:black; stroke-linecap:round; stroke-width:0.25;"/>
<line x1="349.800000" y1="42.000000" x2="353.800000" y2="42.000000"  style="stroke:black; stroke-linecap:round; stroke-width:0.25;"/>
<line x1="349.800000" y1="50.000000" x2="353.800000" y2="50.000000"  style="stroke:black; stroke-linecap:round; stroke-width:0.25;"/>
<line x1="349.800000" y1="58.000000" x2="353.800000" y2="58.000000"  style="stroke:black; stroke-linecap:round; stroke-width:0.25;"/>
<line x1="349.800000" y1="66.000000" x2="353.800000" y2="66.000000"  style="stroke:black; stroke-linecap:round; stroke-width:0.25;"/>
<line x1="353.800000" y1="42.000000" x2="383.800000" y2="42.000000"  style="stroke:black; stroke-linecap:round; stroke-width:0.25;"/>
<line x1="353.800000" y1="50.000000" x2="383.800000" y2="58.000000"  style="stroke:black; stroke-linecap:round; stroke-width:0.25;"/>
<line x1="353.800000" y1="58.000000" x2="383.800000" y2="50.000000"  style="stroke:black; stroke-linecap:round; stroke-width:0.25;"/>
<line x1="353.800000" y1="66.000000" x2="383.800000" y2="66.000000"  style="stroke:black; stroke-linecap:round; stroke-width:0.25;"/>
<line x1="383.800000" y1="42.000000" x2="387.800000" y2="42.000000"  style="stroke:black; stroke-linecap:round; stroke-width:0.25;"/>
<line x1="383.800000" y1="50.000000" x2="387.800000" y2="50.000000"  style="stroke:black; stroke-linecap:round; stroke-width:0.25;"/>
<line x1="383.800000" y1="58.000000" x2="387.800000" y2="58.000000"  style="stroke:black; stroke-linecap:round; stroke-width:0.25;"/>
<line x1="383.800000" y1="66.000000" x2="387.800000" y2="66.000000"  style="stroke:black; stroke-linecap:round; stroke-width:0.25;"/>
<line x1="387.800000" y1="34.000000" x2="403.800000" y2="34.000000"  style="stroke:black; stroke-linecap:round; stroke-width:0.25;"/>
<line x1="387.800000" y1="42.000000" x2="387.800000" y2="34.000000"  style="stroke:black; stroke-linecap:round; stroke-width:0.25;"/>
<line x1="387.800000" y1="42.000000" x2="387.800000" y2="42.000000"  style="stroke:black; stroke-linecap:round; stroke-width:0.25;"/>
<line x1="387.800000" y1="50.000000" x2="395.800000" y2="50.000000"  style="stroke:black; stroke-linecap:round; stroke-width:0.25;"/>
<line x1="387.800000" y1="58.000000" x2="403.800000" y2="58.000000"  style="stroke:black; stroke-linecap:round; stroke-width:0.25;"/>
<line x1="387.800000" y1="66.000000" x2="395.800000" y2="66.000000"  style="stroke:black; stroke-linecap:round; stroke-width:0.25;"/>
<line x1="395.800000" y1="42.000000" x2="403.800000" y2="42.000000"  style="stroke:black; stroke-linecap:round; stroke-width:0.25;"/>
<line x1="395.800000" y1="50.000000" x2="395.800000" y2="42.000000"  style="stroke:black; stroke-linecap:round; stroke-width:0.25;"/>
<line x1="395.800000" y1="66.000000" x2="395.800000" y2="74.000000"  style="stroke:black; stroke-linecap:round; stroke-width:0.25;"/>
<line x1="395.800000" y1="74.000000" x2="403.800000" y2="74.000000"  style="stroke:black; stroke-linecap:round; stroke-width:0.25;"/>
<line x1="403.800000" y1="34.000000" x2="407.800000" y2="34.000000"  style="stroke:black; stroke-linecap:round; stroke-width:0.25;"/>
<line x1="403.800000" y1="42.000000" x2="407.800000" y2="42.000000"  style="stroke:black; stroke-linecap:round; stroke-width:0.25;"/>
<line x1="403.800000" y1="58.000000" x2="403.800000" y2="66.000000"  style="stroke:black; stroke-linecap:round; stroke-width:0.25;"/>
<line x1="403.800000" y1="66.000000" x2="403.800000" y2="66.000000"  style="stroke:black; stroke-linecap:round; stroke-width:0.25;"/>
<line x1="403.800000" y1="66.000000" x2="407.800000" y2="66.000000"  style="stroke:black; stroke-linecap:round; stroke-width:0.25;"/>
<line x1="403.800000" y1="74.000000" x2="407.800000" y2="74.000000"  style="stroke:black; stroke-linecap:round; stroke-width:0.25;"/>
<line x1="498.100000" y1="38.000000" x2="502.100000" y2="38.000000"  style="stroke:black; stroke-linecap:round; stroke-width:0.25;"/>
<line x1="498.100000" y1="70.000000" x2="502.100000" y2="70.000000"  style="stroke:black; stroke-linecap:round; stroke-width:0.25;"/>
<line x1="502.100000" y1="38.000000" x2="526.100000" y2="38.000000"  style="stroke:black; stroke-linecap:round; stroke-width:0.25;"/>
<line x1="502.100000" y1="58.000000" x2="526.100000" y2="58.000000"  style="stroke:black; stroke-linecap:round; stroke-width:0.25;"/>
<line x1="502.100000" y1="70.000000" x2="502.100000" y2="58.000000"  style="stroke:black; stroke-linecap:round; stroke-width:0.25;"/>
<line x1="502.100000" y1="70.000000" x2="502.100000" y2="70.000000"  style="stroke:black; stroke-linecap:round; stroke-width:0.25;"/>
<line x1="502.100000" y1="92.000000" x2="510.100000" y2="92.000000"  style="stroke:black; stroke-linecap:round; stroke-width:0.25;"/>
<line x1="502.100000" y1="100.000000" x2="518.100000" y2="100.000000"  style="stroke:black; stroke-linecap:round; stroke-width:0.25;"/>
<line x1="510.100000" y1="66.000000" x2="526.100000" y2="66.000000"  style="stroke:black; stroke-linecap:round; stroke-width:0.25;"/>
<line x1="510.100000" y1="92.000000" x2="510.100000" y2="66.000000"  style="stroke:black; stroke-linecap:round; stroke-width:0.25;"/>
<line x1="518.100000" y1="74.000000" x2="526.100000" y2="74.000000"  style="stroke:black; stroke-linecap:round; stroke-width:0.25;"/>
<line x1="518.100000" y1="100.000000" x2="518.100000" y2="74.000000"  style="stroke:black; stroke-linecap:round; stroke-width:0.25;"/>
<line x1="526.100000" y1="38.000000" x2="526.100000" y2="50.000000"  style="stroke:black; stroke-linecap:round; stroke-width:0.25;"/>
<line x1="526.100000" y1="50.000000" x2="526.100000" y2="50.000000"  style="stroke:black; stroke-linecap:round; stroke-width:0.25;"/>
<line x1="526.100000" y1="50.000000" x2="530.100000" y2="50.000000"  style="stroke:black; stroke-linecap:round; stroke-width:0.25;"/>
<line x1="526.100000" y1="58.000000" x2="530.100000" y2="58.000000"  style="stroke:black; stroke-linecap:round; stroke-width:0.25;"/>
<line x1="526.100000" y1="66.000000" x2="530.100000" y2="66.000000"  style="stroke:black; stroke-linecap:round; stroke-width:0.25;"/>
<line x1="526.100000" y1="74.000000" x2="530.100000" y2="74.000000"  style="stroke:black; stroke-linecap:round; stroke-width:0.25;"/>
<line x1="530.100000" y1="50.000000" x2="560.100000" y2="50.000000"  style="stroke:black; stroke-linecap:round; stroke-width:0.25;"/>
<line x1="530.100000" y1="58.000000" x2="560.100000" y2="66.000000"  style="stroke:black; stroke-linecap:round; stroke-width:0.25;"/>
<line x1="530.100000" y1="66.000000" x2="560.100000" y2="58.000000"  style="stroke:black; stroke-linecap:round; stroke-width:0.25;"/>
<line x1="530.100000" y1="74.000000" x2="560.100000" y2="74.000000"  style="stroke:black; stroke-linecap:round; stroke-width:0.25;"/>
<line x1="560.100000" y1="50.000000" x2="564.100000" y2="50.000000"  style="stroke:black; stroke-linecap:round; stroke-width:0.25;"/>
<line x1="560.100000" y1="58.000000" x2="564.100000" y2="58.000000"  style="stroke:black; stroke-linecap:round; stroke-width:0.25;"/>
<line x1="560.100000" y1="66.000000" x2="564.100000" y2="66.000000"  style="stroke:black; stroke-linecap:round; stroke-width:0.25;"/>
<line x1="560.100000" y1="74.000000" x2="564.100000" y2="74.000000"  style="stroke:black; stroke-linecap:round; stroke-width:0.25;"/>
<line x1="564.100000" y1="38.000000" x2="580.100000" y2="38.000000"  style="stroke:black; stroke-linecap:round; stroke-width:0.25;"/>
<line x1="564.100000" y1="50.000000" x2="564.100000" y2="38.000000"  style="stroke:black; stroke-linecap:round; stroke-width:0.25;"/>
<line x1="564.100000" y1="50.000000" x2="564.100000" y2="50.000000"  style="stroke:black; stroke-linecap:round; stroke-width:0.25;"/>
<line x1="564.100000" y1="58.000000" x2="580.100000" y2="58.000000"  style="stroke:black; stroke-linecap:round; stroke-width:0.25;"/>
<line x1="564.100000" y1="66.000000" x2="580.100000" y2="66.000000"  style="stroke:black; stroke-linecap:round; stroke-width:0.25;"/>
<line x1="564.100000" y1="74.000000" x2="572.100000" y2="74.000000"  style="stroke:black; stroke-linecap:round; stroke-width:0.25;"/>
<line x1="572.100000" y1="74.000000" x2="572.100000" y2="98.000000"  style="stroke:black; stroke-linecap:round; stroke-width:0.25;"/>
<line x1="572.100000" y1="98.000000" x2="580.100000" y2="98.000000"  style="stroke:black; stroke-linecap:round; stroke-width:0.25;"/>
<line x1="580.100000" y1="38.000000" x2="584.100000" y2="38.000000"  style="stroke:black; stroke-linecap:round; stroke-width:0.25;"/>
<line x1="580.100000" y1="58.000000" x2="616.350000" y2="58.000000"  style="stroke:black; stroke-linecap:round; stroke-width:0.25;"/>
<line x1="580.100000" y1="66.000000" x2="580.100000" y2="78.000000"  style="stroke:black; stroke-linecap:round; stroke-width:0.25;"/>
<line x1="580.100000" y1="78.000000" x2="580.100000" y2="78.000000"  style="stroke:black; stroke-linecap:round; stroke-width:0.25;"/>
<line x1="580.100000" y1="78.000000" x2="584.100000" y2="78.000000"  style="stroke:black; stroke-linecap:round; stroke-width:0.25;"/>
<line x1="580.100000" y1="98.000000" x2="616.350000" y2="98.000000"  style="stroke:black; stroke-linecap:round; stroke-width:0.25;"/>
<line x1="616.350000" y1="58.000000" x2="652.600000" y2="58.000000"  style="stroke:black; stroke-linecap:round; stroke-width:0.25;"/>
<line x1="616.350000" y1="98.000000" x2="652.600000" y2="98.000000"  style="stroke:black; stroke-linecap:round; stroke-width:0.25;"/>
<line x1="648.600000" y1="38.000000" x2="652.600000" y2="38.000000"  style="stroke:black; stroke-linecap:round; stroke-width:0.25;"/>
<line x1="648.600000" y1="78.000000" x2="652.600000" y2="78.000000"  style="stroke:black; stroke-linecap:round; stroke-width:0.25;"/>
<line x1="652.600000" y1="38.000000" x2="660.600000" y2="38.000000"  style="stroke:black; stroke-linecap:round; stroke-width:0.25;"/>
<line x1="652.600000" y1="46.000000" x2="660.600000" y2="46.000000"  style="stroke:black; stroke-linecap:round; stroke-width:0.25;"/>
<line x1="652.600000" y1="58.000000" x2="652.600000" y2="46.000000"  style="stroke:black; stroke-linecap:round; stroke-width:0.25;"/>
<line x1="652.600000" y1="58.000000" x2="652.600000" y2="58.000000"  style="stroke:black; stroke-linecap:round; stroke-width:0.25;"/>
<line x1="652.600000" y1="78.000000" x2="660.600000" y2="78.000000"  style="stroke:black; stroke-linecap:round; stroke-width:0.25;"/>
<line x1="652.600000" y1="86.000000" x2="660.600000" y2="86.000000"  style="stroke:black; stroke-linecap:round; stroke-width:0.25;"/>
<line x1="652.600000" y1="98.000000" x2="652.600000" y2="86.000000"  style="stroke:black; stroke-linecap:round; stroke-width:0.25;"/>
<line x1="652.600000" y1="98.000000" x2="652.600000" y2="98.000000"  style="stroke:black; stroke-linecap:round; stroke-width:0.25;"/>
<line x1="660.600000" y1="38.000000" x2="664.600000" y2="38.000000"  style="stroke:black; stroke-linecap:round; stroke-width:0.25;"/>
<line x1="660.600000" y1="46.000000" x2="664.600000" y2="46.000000"  style="stroke:black; stroke-linecap:round; stroke-width:0.25;"/>
<line x1="660.600000" y1="78.000000" x2="664.600000" y2="78.000000"  style="stroke:black; stroke-linecap:round; stroke-width:0.25;"/>
<line x1="660.600000" y1="86.000000" x2="664.600000" y2="86.000000"  style="stroke:black; stroke-linecap:round; stroke-width:0.25;"/>
<line x1="688.600000" y1="42.000000" x2="692.600000" y2="42.000000"  style="stroke:black; stroke-linecap:round; stroke-width:0.25;"/>
<line x1="688.600000" y1="82.000000" x2="692.600000" y2="82.000000"  style="stroke:black; stroke-linecap:round; stroke-width:0.25;"/>
<line x1="692.600000" y1="42.000000" x2="700.600000" y2="42.000000"  style="stroke:black; stroke-linecap:round; stroke-width:0.25;"/>
<line x1="692.600000" y1="66.000000" x2="700.600000" y2="66.000000"  style="stroke:black; stroke-linecap:round; stroke-width:0.25;"/>
<line x1="692.600000" y1="82.000000" x2="692.600000" y2="66.000000"  style="stroke:black; stroke-linecap:round; stroke-width:0.25;"/>
<line x1="692.600000" y1="82.000000" x2="692.600000" y2="82.000000"  style="stroke:black; stroke-linecap:round; stroke-width:0.25;"/>
<line x1="700.600000" y1="42.000000" x2="700.600000" y2="58.000000"  style="stroke:black; stroke-linecap:round; stroke-width:0.25;"/>
<line x1="700.600000" y1="58.000000" x2="700.600000" y2="58.000000"  style="stroke:black; stroke-linecap:round; stroke-width:0.25;"/>
<line x1="700.600000" y1="58.000000" x2="704.600000" y2="58.000000"  style="stroke:black; stroke-linecap:round; stroke-width:0.25;"/>
<line x1="700.600000" y1="66.000000" x2="704.600000" y2="66.000000"  style="stroke:black; stroke-linecap:round; stroke-width:0.25;"/>
<line x1="704.600000" y1="58.000000" x2="708.600000" y2="58.000000"  style="stroke:black; stroke-linecap:round; stroke-width:0.25;"/>
<line x1="704.600000" y1="66.000000" x2="708.600000" y2="66.000000"  style="stroke:black; stroke-linecap:round; stroke-width:0.25;"/>
<line x1="708.600000" y1="58.000000" x2="718.600000" y2="58.000000"  style="stroke:black; stroke-linecap:round; stroke-width:0.25;"/>
<line x1="708.600000" y1="66.000000" x2="718.600000" y2="66.000000"  style="stroke:black; stroke-linecap:round; stroke-width:0.25;"/>
</svg>
