<?xml version="1.0"?>
<svg xmlns="http://www.w3.org/2000/svg" xmlns:xlink="http://www.w3.org/1999/xlink" viewBox="0 0 348.300000 132.000000" width="174.150000mm" height="66.000000mm" version="1.1">
<a xlink:href="RMS-0x60013c0e9290.svg">
<rect x="1.000000" y="1.000000" width="347.300000" height="131.000000" rx="0" ry="0" style="stroke:none;fill:#cccccc;"/>
<rect x="0.000000" y="0.000000" width="347.300000" height="131.000000" rx="0" ry="0" style="stroke:none;fill:#ffffff;"/>
</a>
<text x="10.000000" y="7.000000" font-family="Arial" font-size="7"></text>
<rect x="148.300000" y="35.000000" width="24.000000" height="24.000000" rx="0" ry="0" style="stroke:none;fill:#cccccc;"/>
<rect x="147.300000" y="34.000000" width="24.000000" height="24.000000" rx="0" ry="0" style="stroke:none;fill:#f44800;"/>
<text x="159.300000" y="48.000000" font-family="Arial" font-size="7" text-anchor="middle" fill="#FFFFFF">0</text>
<circle cx="149.300000" cy="36.000000" r="1"/>
<line x1="138.300000" y1="25.000000" x2="138.300000" y2="67.000000"  style="stroke: black; stroke-linecap:round; stroke-width:0.25; stroke-dasharray:3,3;"/>
<line x1="138.300000" y1="67.000000" x2="180.300000" y2="67.000000"  style="stroke: black; stroke-linecap:round; stroke-width:0.25; stroke-dasharray:3,3;"/>
<line x1="180.300000" y1="67.000000" x2="180.300000" y2="25.000000"  style="stroke: black; stroke-linecap:round; stroke-width:0.25; stroke-dasharray:3,3;"/>
<line x1="138.300000" y1="25.000000" x2="143.300000" y2="25.000000"  style="stroke: black; stroke-linecap:round; stroke-width:0.25; stroke-dasharray:3,3;"/>
<line x1="175.550000" y1="25.000000" x2="180.300000" y2="25.000000"  style="stroke: black; stroke-linecap:round; stroke-width:0.25; stroke-dasharray:3,3;"/>
<text x="143.300000" y="27.000000" font-family="Arial" font-size="7">clipCond</text>
<a xlink:href="inswitch-0x600018051200.svg">
<rect x="66.000000" y="77.000000" width="38.700000" height="24.000000" rx="0" ry="0" style="stroke:none;fill:#cccccc;"/>
<rect x="65.000000" y="76.000000" width="38.700000" height="24.000000" rx="0" ry="0" style="stroke:none;fill:#003366;"/>
</a>
<a xlink:href="inswitch-0x600018051200.svg">
<text x="84.350000" y="90.000000" font-family="Arial" font-size="7" text-anchor="middle" fill="#FFFFFF">inswitch</text>
</a>
<circle cx="67.000000" cy="78.000000" r="1"/>
<line x1="62.000000" y1="87.000000" x2="65.000000" y2="88.000000"  transform="rotate(0.000000,65.000000,88.000000)" style="stroke: black; stroke-width:0.25;"/>
<line x1="62.000000" y1="89.000000" x2="65.000000" y2="88.000000"  transform="rotate(0.000000,65.000000,88.000000)" style="stroke: black; stroke-width:0.25;"/>
<a xlink:href="lag-0x60013c064510.svg">
<rect x="112.700000" y="77.000000" width="141.900000" height="24.000000" rx="0" ry="0" style="stroke:none;fill:#cccccc;"/>
<rect x="111.700000" y="76.000000" width="141.900000" height="24.000000" rx="0" ry="0" style="stroke:none;fill:#003366;"/>
</a>
<a xlink:href="lag-0x60013c064510.svg">
<text x="182.650000" y="90.000000" font-family="Arial" font-size="7" text-anchor="middle" fill="#FFFFFF">lag_ud(vslide...),0.001f : *)(0)</text>
</a>
<circle cx="113.700000" cy="78.000000" r="1"/>
<line x1="108.700000" y1="87.000000" x2="111.700000" y2="88.000000"  transform="rotate(0.000000,111.700000,88.000000)" style="stroke: black; stroke-width:0.25;"/>
<line x1="108.700000" y1="89.000000" x2="111.700000" y2="88.000000"  transform="rotate(0.000000,111.700000,88.000000)" style="stroke: black; stroke-width:0.25;"/>
<rect x="278.600000" y="55.000000" width="38.700000" height="24.000000" rx="0" ry="0" style="stroke:none;fill:#cccccc;"/>
<rect x="277.600000" y="54.000000" width="38.700000" height="24.000000" rx="0" ry="0" style="stroke:none;fill:#4B71A1;"/>
<text x="296.950000" y="68.000000" font-family="Arial" font-size="7" text-anchor="middle" fill="#FFFFFF">select2</text>
<circle cx="279.600000" cy="56.000000" r="1"/>
<line x1="274.600000" y1="57.000000" x2="277.600000" y2="58.000000"  transform="rotate(0.000000,277.600000,58.000000)" style="stroke: black; stroke-width:0.25;"/>
<line x1="274.600000" y1="59.000000" x2="277.600000" y2="58.000000"  transform="rotate(0.000000,277.600000,58.000000)" style="stroke: black; stroke-width:0.25;"/>
<line x1="274.600000" y1="65.000000" x2="277.600000" y2="66.000000"  transform="rotate(0.000000,277.600000,66.000000)" style="stroke: black; stroke-width:0.25;"/>
<line x1="274.600000" y1="67.000000" x2="277.600000" y2="66.000000"  transform="rotate(0.000000,277.600000,66.000000)" style="stroke: black; stroke-width:0.25;"/>
<line x1="274.600000" y1="73.000000" x2="277.600000" y2="74.000000"  transform="rotate(0.000000,277.600000,74.000000)" style="stroke: black; stroke-width:0.25;"/>
<line x1="274.600000" y1="75.000000" x2="277.600000" y2="74.000000"  transform="rotate(0.000000,277.600000,74.000000)" style="stroke: black; stroke-width:0.25;"/>
<line x1="15.000000" y1="15.000000" x2="15.000000" y2="117.000000"  style="stroke: black; stroke-linecap:round; stroke-width:0.25; stroke-dasharray:3,3;"/>
<line x1="15.000000" y1="117.000000" x2="333.300000" y2="117.000000"  style="stroke: black; stroke-linecap:round; stroke-width:0.25; stroke-dasharray:3,3;"/>
<line x1="333.300000" y1="117.000000" x2="333.300000" y2="15.000000"  style="stroke: black; stroke-linecap:round; stroke-width:0.25; stroke-dasharray:3,3;"/>
<line x1="15.000000" y1="15.000000" x2="20.000000" y2="15.000000"  style="stroke: black; stroke-linecap:round; stroke-width:0.25; stroke-dasharray:3,3;"/>
<line x1="119.975000" y1="15.000000" x2="333.300000" y2="15.000000"  style="stroke: black; stroke-linecap:round; stroke-width:0.25; stroke-dasharray:3,3;"/>
<text x="20.000000" y="17.000000" font-family="Arial" font-size="7">bypass1(0)(cl..., lenv = {}])</text>
<line x1="335.300000" y1="65.000000" x2="338.300000" y2="66.000000"  transform="rotate(0.000000,338.300000,66.000000)" style="stroke: black; stroke-width:0.25;"/>
<line x1="335.300000" y1="67.000000" x2="338.300000" y2="66.000000"  transform="rotate(0.000000,338.300000,66.000000)" style="stroke: black; stroke-width:0.25;"/>
<line x1="10.000000" y1="66.000000" x2="20.000000" y2="66.000000"  style="stroke:black; stroke-linecap:round; stroke-width:0.25;"/>
<line x1="20.000000" y1="66.000000" x2="24.000000" y2="66.000000"  style="stroke:black; stroke-linecap:round; stroke-width:0.25;"/>
<line x1="24.000000" y1="66.000000" x2="28.000000" y2="66.000000"  style="stroke:black; stroke-linecap:round; stroke-width:0.25;"/>
<line x1="28.000000" y1="66.000000" x2="28.000000" y2="66.000000"  style="stroke:black; stroke-linecap:round; stroke-width:0.25;"/>
<line x1="28.000000" y1="66.000000" x2="32.000000" y2="66.000000"  style="stroke:black; stroke-linecap:round; stroke-width:0.25;"/>
<line x1="32.000000" y1="66.000000" x2="36.000000" y2="66.000000"  style="stroke:black; stroke-linecap:round; stroke-width:0.25;"/>
<line x1="36.000000" y1="66.000000" x2="61.000000" y2="88.000000"  style="stroke:black; stroke-linecap:round; stroke-width:0.25;"/>
<line x1="36.000000" y1="66.000000" x2="61.000000" y2="108.000000"  style="stroke:black; stroke-linecap:round; stroke-width:0.25;"/>
<line x1="61.000000" y1="88.000000" x2="65.000000" y2="88.000000"  style="stroke:black; stroke-linecap:round; stroke-width:0.25;"/>
<line x1="61.000000" y1="108.000000" x2="159.300000" y2="108.000000"  style="stroke:black; stroke-linecap:round; stroke-width:0.25;"/>
<line x1="103.700000" y1="88.000000" x2="107.700000" y2="88.000000"  style="stroke:black; stroke-linecap:round; stroke-width:0.25;"/>
<line x1="107.700000" y1="88.000000" x2="107.700000" y2="88.000000"  style="stroke:black; stroke-linecap:round; stroke-width:0.25;"/>
<line x1="107.700000" y1="88.000000" x2="111.700000" y2="88.000000"  style="stroke:black; stroke-linecap:round; stroke-width:0.25;"/>
<line x1="159.300000" y1="108.000000" x2="257.600000" y2="108.000000"  style="stroke:black; stroke-linecap:round; stroke-width:0.25;"/>
<line x1="171.300000" y1="46.000000" x2="175.300000" y2="46.000000"  style="stroke:black; stroke-linecap:round; stroke-width:0.25;"/>
<line x1="175.300000" y1="46.000000" x2="185.300000" y2="46.000000"  style="stroke:black; stroke-linecap:round; stroke-width:0.25;"/>
<line x1="185.300000" y1="46.000000" x2="257.600000" y2="46.000000"  style="stroke:black; stroke-linecap:round; stroke-width:0.25;"/>
<line x1="253.600000" y1="88.000000" x2="257.600000" y2="88.000000"  style="stroke:black; stroke-linecap:round; stroke-width:0.25;"/>
<line x1="257.600000" y1="46.000000" x2="273.600000" y2="46.000000"  style="stroke:black; stroke-linecap:round; stroke-width:0.25;"/>
<line x1="257.600000" y1="66.000000" x2="273.600000" y2="66.000000"  style="stroke:black; stroke-linecap:round; stroke-width:0.25;"/>
<line x1="257.600000" y1="88.000000" x2="257.600000" y2="66.000000"  style="stroke:black; stroke-linecap:round; stroke-width:0.25;"/>
<line x1="257.600000" y1="88.000000" x2="257.600000" y2="88.000000"  style="stroke:black; stroke-linecap:round; stroke-width:0.25;"/>
<line x1="257.600000" y1="108.000000" x2="265.600000" y2="108.000000"  style="stroke:black; stroke-linecap:round; stroke-width:0.25;"/>
<line x1="265.600000" y1="74.000000" x2="273.600000" y2="74.000000"  style="stroke:black; stroke-linecap:round; stroke-width:0.25;"/>
<line x1="265.600000" y1="108.000000" x2="265.600000" y2="74.000000"  style="stroke:black; stroke-linecap:round; stroke-width:0.25;"/>
<line x1="273.600000" y1="46.000000" x2="273.600000" y2="58.000000"  style="stroke:black; stroke-linecap:round; stroke-width:0.25;"/>
<line x1="273.600000" y1="58.000000" x2="273.600000" y2="58.000000"  style="stroke:black; stroke-linecap:round; stroke-width:0.25;"/>
<line x1="273.600000" y1="58.000000" x2="277.600000" y2="58.000000"  style="stroke:black; stroke-linecap:round; stroke-width:0.25;"/>
<line x1="273.600000" y1="66.000000" x2="277.600000" y2="66.000000"  style="stroke:black; stroke-linecap:round; stroke-width:0.25;"/>
<line x1="273.600000" y1="74.000000" x2="277.600000" y2="74.000000"  style="stroke:black; stroke-linecap:round; stroke-width:0.25;"/>
<line x1="316.300000" y1="66.000000" x2="320.300000" y2="66.000000"  style="stroke:black; stroke-linecap:round; stroke-width:0.25;"/>
<line x1="320.300000" y1="66.000000" x2="320.300000" y2="66.000000"  style="stroke:black; stroke-linecap:round; stroke-width:0.25;"/>
<line x1="320.300000" y1="66.000000" x2="324.300000" y2="66.000000"  style="stroke:black; stroke-linecap:round; stroke-width:0.25;"/>
<line x1="324.300000" y1="66.000000" x2="328.300000" y2="66.000000"  style="stroke:black; stroke-linecap:round; stroke-width:0.25;"/>
<line x1="328.300000" y1="66.000000" x2="338.300000" y2="66.000000"  style="stroke:black; stroke-linecap:round; stroke-width:0.25;"/>
</svg>
