<?xml version="1.0"?>
<svg xmlns="http://www.w3.org/2000/svg" xmlns:xlink="http://www.w3.org/1999/xlink" viewBox="0 0 335.400000 132.000000" width="167.700000mm" height="66.000000mm" version="1.1">
<a xlink:href="peak-0x6001240a2b50.svg">
<rect x="1.000000" y="1.000000" width="334.400000" height="131.000000" rx="0" ry="0" style="stroke:none;fill:#cccccc;"/>
<rect x="0.000000" y="0.000000" width="334.400000" height="131.000000" rx="0" ry="0" style="stroke:none;fill:#ffffff;"/>
</a>
<text x="10.000000" y="7.000000" font-family="Arial" font-size="7"></text>
<rect x="141.850000" y="35.000000" width="24.000000" height="24.000000" rx="0" ry="0" style="stroke:none;fill:#cccccc;"/>
<rect x="140.850000" y="34.000000" width="24.000000" height="24.000000" rx="0" ry="0" style="stroke:none;fill:#f44800;"/>
<text x="152.850000" y="48.000000" font-family="Arial" font-size="7" text-anchor="middle" fill="#FFFFFF">1</text>
<circle cx="142.850000" cy="36.000000" r="1"/>
<line x1="131.850000" y1="25.000000" x2="131.850000" y2="67.000000"  style="stroke: black; stroke-linecap:round; stroke-width:0.25; stroke-dasharray:3,3;"/>
<line x1="131.850000" y1="67.000000" x2="173.850000" y2="67.000000"  style="stroke: black; stroke-linecap:round; stroke-width:0.25; stroke-dasharray:3,3;"/>
<line x1="173.850000" y1="67.000000" x2="173.850000" y2="25.000000"  style="stroke: black; stroke-linecap:round; stroke-width:0.25; stroke-dasharray:3,3;"/>
<line x1="131.850000" y1="25.000000" x2="136.850000" y2="25.000000"  style="stroke: black; stroke-linecap:round; stroke-width:0.25; stroke-dasharray:3,3;"/>
<line x1="165.875000" y1="25.000000" x2="173.850000" y2="25.000000"  style="stroke: black; stroke-linecap:round; stroke-width:0.25; stroke-dasharray:3,3;"/>
<text x="136.850000" y="27.000000" font-family="Arial" font-size="7">pow2(0)</text>
<a xlink:href="inswitch-0x6000180022e0.svg">
<rect x="66.000000" y="77.000000" width="38.700000" height="24.000000" rx="0" ry="0" style="stroke:none;fill:#cccccc;"/>
<rect x="65.000000" y="76.000000" width="38.700000" height="24.000000" rx="0" ry="0" style="stroke:none;fill:#003366;"/>
</a>
<a xlink:href="inswitch-0x6000180022e0.svg">
<text x="84.350000" y="90.000000" font-family="Arial" font-size="7" text-anchor="middle" fill="#FFFFFF">inswitch</text>
</a>
<circle cx="67.000000" cy="78.000000" r="1"/>
<line x1="62.000000" y1="87.000000" x2="65.000000" y2="88.000000"  transform="rotate(0.000000,65.000000,88.000000)" style="stroke: black; stroke-width:0.25;"/>
<line x1="62.000000" y1="89.000000" x2="65.000000" y2="88.000000"  transform="rotate(0.000000,65.000000,88.000000)" style="stroke: black; stroke-width:0.25;"/>
<a xlink:href="lag-0x6001240569a0.svg">
<rect x="112.700000" y="77.000000" width="129.000000" height="24.000000" rx="0" ry="0" style="stroke:none;fill:#cccccc;"/>
<rect x="111.700000" y="76.000000" width="129.000000" height="24.000000" rx="0" ry="0" style="stroke:none;fill:#003366;"/>
</a>
<a xlink:href="lag-0x6001240569a0.svg">
<text x="176.200000" y="90.000000" font-family="Arial" font-size="7" text-anchor="middle" fill="#FFFFFF">lag_ud(0.0500...99999999999f)</text>
</a>
<circle cx="113.700000" cy="78.000000" r="1"/>
<line x1="108.700000" y1="87.000000" x2="111.700000" y2="88.000000"  transform="rotate(0.000000,111.700000,88.000000)" style="stroke: black; stroke-width:0.25;"/>
<line x1="108.700000" y1="89.000000" x2="111.700000" y2="88.000000"  transform="rotate(0.000000,111.700000,88.000000)" style="stroke: black; stroke-width:0.25;"/>
<rect x="265.700000" y="55.000000" width="38.700000" height="24.000000" rx="0" ry="0" style="stroke:none;fill:#cccccc;"/>
<rect x="264.700000" y="54.000000" width="38.700000" height="24.000000" rx="0" ry="0" style="stroke:none;fill:#4B71A1;"/>
<text x="284.050000" y="68.000000" font-family="Arial" font-size="7" text-anchor="middle" fill="#FFFFFF">select2</text>
<circle cx="266.700000" cy="56.000000" r="1"/>
<line x1="261.700000" y1="57.000000" x2="264.700000" y2="58.000000"  transform="rotate(0.000000,264.700000,58.000000)" style="stroke: black; stroke-width:0.25;"/>
<line x1="261.700000" y1="59.000000" x2="264.700000" y2="58.000000"  transform="rotate(0.000000,264.700000,58.000000)" style="stroke: black; stroke-width:0.25;"/>
<line x1="261.700000" y1="65.000000" x2="264.700000" y2="66.000000"  transform="rotate(0.000000,264.700000,66.000000)" style="stroke: black; stroke-width:0.25;"/>
<line x1="261.700000" y1="67.000000" x2="264.700000" y2="66.000000"  transform="rotate(0.000000,264.700000,66.000000)" style="stroke: black; stroke-width:0.25;"/>
<line x1="261.700000" y1="73.000000" x2="264.700000" y2="74.000000"  transform="rotate(0.000000,264.700000,74.000000)" style="stroke: black; stroke-width:0.25;"/>
<line x1="261.700000" y1="75.000000" x2="264.700000" y2="74.000000"  transform="rotate(0.000000,264.700000,74.000000)" style="stroke: black; stroke-width:0.25;"/>
<line x1="15.000000" y1="15.000000" x2="15.000000" y2="117.000000"  style="stroke: black; stroke-linecap:round; stroke-width:0.25; stroke-dasharray:3,3;"/>
<line x1="15.000000" y1="117.000000" x2="320.400000" y2="117.000000"  style="stroke: black; stroke-linecap:round; stroke-width:0.25; stroke-dasharray:3,3;"/>
<line x1="320.400000" y1="117.000000" x2="320.400000" y2="15.000000"  style="stroke: black; stroke-linecap:round; stroke-width:0.25; stroke-dasharray:3,3;"/>
<line x1="15.000000" y1="15.000000" x2="20.000000" y2="15.000000"  style="stroke: black; stroke-linecap:round; stroke-width:0.25; stroke-dasharray:3,3;"/>
<line x1="119.975000" y1="15.000000" x2="320.400000" y2="15.000000"  style="stroke: black; stroke-linecap:round; stroke-width:0.25; stroke-dasharray:3,3;"/>
<text x="20.000000" y="17.000000" font-family="Arial" font-size="7">bypass1(1)(cl..., lenv = {}])</text>
<line x1="322.400000" y1="65.000000" x2="325.400000" y2="66.000000"  transform="rotate(0.000000,325.400000,66.000000)" style="stroke: black; stroke-width:0.25;"/>
<line x1="322.400000" y1="67.000000" x2="325.400000" y2="66.000000"  transform="rotate(0.000000,325.400000,66.000000)" style="stroke: black; stroke-width:0.25;"/>
<line x1="10.000000" y1="66.000000" x2="20.000000" y2="66.000000"  style="stroke:black; stroke-linecap:round; stroke-width:0.25;"/>
<line x1="20.000000" y1="66.000000" x2="24.000000" y2="66.000000"  style="stroke:black; stroke-linecap:round; stroke-width:0.25;"/>
<line x1="24.000000" y1="66.000000" x2="28.000000" y2="66.000000"  style="stroke:black; stroke-linecap:round; stroke-width:0.25;"/>
<line x1="28.000000" y1="66.000000" x2="28.000000" y2="66.000000"  style="stroke:black; stroke-linecap:round; stroke-width:0.25;"/>
<line x1="28.000000" y1="66.000000" x2="32.000000" y2="66.000000"  style="stroke:black; stroke-linecap:round; stroke-width:0.25;"/>
<line x1="32.000000" y1="66.000000" x2="36.000000" y2="66.000000"  style="stroke:black; stroke-linecap:round; stroke-width:0.25;"/>
<line x1="36.000000" y1="66.000000" x2="61.000000" y2="88.000000"  style="stroke:black; stroke-linecap:round; stroke-width:0.25;"/>
<line x1="36.000000" y1="66.000000" x2="61.000000" y2="108.000000"  style="stroke:black; stroke-linecap:round; stroke-width:0.25;"/>
<line x1="61.000000" y1="88.000000" x2="65.000000" y2="88.000000"  style="stroke:black; stroke-linecap:round; stroke-width:0.25;"/>
<line x1="61.000000" y1="108.000000" x2="152.850000" y2="108.000000"  style="stroke:black; stroke-linecap:round; stroke-width:0.25;"/>
<line x1="103.700000" y1="88.000000" x2="107.700000" y2="88.000000"  style="stroke:black; stroke-linecap:round; stroke-width:0.25;"/>
<line x1="107.700000" y1="88.000000" x2="107.700000" y2="88.000000"  style="stroke:black; stroke-linecap:round; stroke-width:0.25;"/>
<line x1="107.700000" y1="88.000000" x2="111.700000" y2="88.000000"  style="stroke:black; stroke-linecap:round; stroke-width:0.25;"/>
<line x1="152.850000" y1="108.000000" x2="244.700000" y2="108.000000"  style="stroke:black; stroke-linecap:round; stroke-width:0.25;"/>
<line x1="164.850000" y1="46.000000" x2="168.850000" y2="46.000000"  style="stroke:black; stroke-linecap:round; stroke-width:0.25;"/>
<line x1="168.850000" y1="46.000000" x2="178.850000" y2="46.000000"  style="stroke:black; stroke-linecap:round; stroke-width:0.25;"/>
<line x1="178.850000" y1="46.000000" x2="244.700000" y2="46.000000"  style="stroke:black; stroke-linecap:round; stroke-width:0.25;"/>
<line x1="240.700000" y1="88.000000" x2="244.700000" y2="88.000000"  style="stroke:black; stroke-linecap:round; stroke-width:0.25;"/>
<line x1="244.700000" y1="46.000000" x2="260.700000" y2="46.000000"  style="stroke:black; stroke-linecap:round; stroke-width:0.25;"/>
<line x1="244.700000" y1="66.000000" x2="260.700000" y2="66.000000"  style="stroke:black; stroke-linecap:round; stroke-width:0.25;"/>
<line x1="244.700000" y1="88.000000" x2="244.700000" y2="66.000000"  style="stroke:black; stroke-linecap:round; stroke-width:0.25;"/>
<line x1="244.700000" y1="88.000000" x2="244.700000" y2="88.000000"  style="stroke:black; stroke-linecap:round; stroke-width:0.25;"/>
<line x1="244.700000" y1="108.000000" x2="252.700000" y2="108.000000"  style="stroke:black; stroke-linecap:round; stroke-width:0.25;"/>
<line x1="252.700000" y1="74.000000" x2="260.700000" y2="74.000000"  style="stroke:black; stroke-linecap:round; stroke-width:0.25;"/>
<line x1="252.700000" y1="108.000000" x2="252.700000" y2="74.000000"  style="stroke:black; stroke-linecap:round; stroke-width:0.25;"/>
<line x1="260.700000" y1="46.000000" x2="260.700000" y2="58.000000"  style="stroke:black; stroke-linecap:round; stroke-width:0.25;"/>
<line x1="260.700000" y1="58.000000" x2="260.700000" y2="58.000000"  style="stroke:black; stroke-linecap:round; stroke-width:0.25;"/>
<line x1="260.700000" y1="58.000000" x2="264.700000" y2="58.000000"  style="stroke:black; stroke-linecap:round; stroke-width:0.25;"/>
<line x1="260.700000" y1="66.000000" x2="264.700000" y2="66.000000"  style="stroke:black; stroke-linecap:round; stroke-width:0.25;"/>
<line x1="260.700000" y1="74.000000" x2="264.700000" y2="74.000000"  style="stroke:black; stroke-linecap:round; stroke-width:0.25;"/>
<line x1="303.400000" y1="66.000000" x2="307.400000" y2="66.000000"  style="stroke:black; stroke-linecap:round; stroke-width:0.25;"/>
<line x1="307.400000" y1="66.000000" x2="307.400000" y2="66.000000"  style="stroke:black; stroke-linecap:round; stroke-width:0.25;"/>
<line x1="307.400000" y1="66.000000" x2="311.400000" y2="66.000000"  style="stroke:black; stroke-linecap:round; stroke-width:0.25;"/>
<line x1="311.400000" y1="66.000000" x2="315.400000" y2="66.000000"  style="stroke:black; stroke-linecap:round; stroke-width:0.25;"/>
<line x1="315.400000" y1="66.000000" x2="325.400000" y2="66.000000"  style="stroke:black; stroke-linecap:round; stroke-width:0.25;"/>
</svg>
