<?xml version="1.0"?>
<svg xmlns="http://www.w3.org/2000/svg" xmlns:xlink="http://www.w3.org/1999/xlink" viewBox="0 0 655.000000 260.000000" width="327.500000mm" height="130.000000mm" version="1.1">
<a xlink:href="a1d-0x6000003e4f30.svg">
<rect x="1.000000" y="1.000000" width="654.000000" height="259.000000" rx="0" ry="0" style="stroke:none;fill:#cccccc;"/>
<rect x="0.000000" y="0.000000" width="654.000000" height="259.000000" rx="0" ry="0" style="stroke:none;fill:#ffffff;"/>
</a>
<text x="10.000000" y="7.000000" font-family="Arial" font-size="7"></text>
<rect x="292.500000" y="35.000000" width="24.000000" height="24.000000" rx="0" ry="0" style="stroke:none;fill:#cccccc;"/>
<rect x="291.500000" y="34.000000" width="24.000000" height="24.000000" rx="0" ry="0" style="stroke:none;fill:#f44800;"/>
<text x="303.500000" y="48.000000" font-family="Arial" font-size="7" text-anchor="middle" fill="#FFFFFF">1</text>
<circle cx="293.500000" cy="36.000000" r="1"/>
<line x1="282.500000" y1="25.000000" x2="282.500000" y2="67.000000"  style="stroke: black; stroke-linecap:round; stroke-width:0.25; stroke-dasharray:3,3;"/>
<line x1="282.500000" y1="67.000000" x2="324.500000" y2="67.000000"  style="stroke: black; stroke-linecap:round; stroke-width:0.25; stroke-dasharray:3,3;"/>
<line x1="324.500000" y1="67.000000" x2="324.500000" y2="25.000000"  style="stroke: black; stroke-linecap:round; stroke-width:0.25; stroke-dasharray:3,3;"/>
<line x1="282.500000" y1="25.000000" x2="287.500000" y2="25.000000"  style="stroke: black; stroke-linecap:round; stroke-width:0.25; stroke-dasharray:3,3;"/>
<line x1="316.525000" y1="25.000000" x2="324.500000" y2="25.000000"  style="stroke: black; stroke-linecap:round; stroke-width:0.25; stroke-dasharray:3,3;"/>
<text x="287.500000" y="27.000000" font-family="Arial" font-size="7">pow2(0)</text>
<rect x="209.150000" y="77.000000" width="38.700000" height="24.000000" rx="0" ry="0" style="stroke:none;fill:#cccccc;"/>
<rect x="208.150000" y="76.000000" width="38.700000" height="24.000000" rx="0" ry="0" style="stroke:none;fill:#f44800;"/>
<text x="227.500000" y="90.000000" font-family="Arial" font-size="7" text-anchor="middle" fill="#FFFFFF">6.28319</text>
<circle cx="210.150000" cy="78.000000" r="1"/>
<rect x="35.000000" y="119.000000" width="387.000000" height="24.000000" rx="0" ry="0" style="stroke:none;fill:#cccccc;"/>
<rect x="34.000000" y="118.000000" width="387.000000" height="24.000000" rx="0" ry="0" style="stroke:none;fill:#477881;"/>
<text x="227.500000" y="132.000000" font-family="Arial" font-size="7" text-anchor="middle" fill="#FFFFFF">vslider(v:soundsgood/t:expert/h:eq/h:highpass/eq highpass freq, 5.0f, 5.0f, 1000.0f, 1.0f)</text>
<circle cx="36.000000" cy="120.000000" r="1"/>
<line x1="25.000000" y1="109.000000" x2="25.000000" y2="151.000000"  style="stroke: black; stroke-linecap:round; stroke-width:0.25; stroke-dasharray:3,3;"/>
<line x1="25.000000" y1="151.000000" x2="430.000000" y2="151.000000"  style="stroke: black; stroke-linecap:round; stroke-width:0.25; stroke-dasharray:3,3;"/>
<line x1="430.000000" y1="151.000000" x2="430.000000" y2="109.000000"  style="stroke: black; stroke-linecap:round; stroke-width:0.25; stroke-dasharray:3,3;"/>
<line x1="25.000000" y1="109.000000" x2="30.000000" y2="109.000000"  style="stroke: black; stroke-linecap:round; stroke-width:0.25; stroke-dasharray:3,3;"/>
<line x1="49.350000" y1="109.000000" x2="430.000000" y2="109.000000"  style="stroke: black; stroke-linecap:round; stroke-width:0.25; stroke-dasharray:3,3;"/>
<text x="30.000000" y="111.000000" font-family="Arial" font-size="7">freq</text>
<rect x="448.000000" y="103.000000" width="24.000000" height="24.000000" rx="0" ry="0" style="stroke:none;fill:#cccccc;"/>
<rect x="447.000000" y="102.000000" width="24.000000" height="24.000000" rx="0" ry="0" style="stroke:none;fill:#4B71A1;"/>
<text x="459.000000" y="116.000000" font-family="Arial" font-size="7" text-anchor="middle" fill="#FFFFFF">*</text>
<circle cx="449.000000" cy="104.000000" r="1"/>
<line x1="444.000000" y1="109.000000" x2="447.000000" y2="110.000000"  transform="rotate(0.000000,447.000000,110.000000)" style="stroke: black; stroke-width:0.25;"/>
<line x1="444.000000" y1="111.000000" x2="447.000000" y2="110.000000"  transform="rotate(0.000000,447.000000,110.000000)" style="stroke: black; stroke-width:0.25;"/>
<line x1="444.000000" y1="117.000000" x2="447.000000" y2="118.000000"  transform="rotate(0.000000,447.000000,118.000000)" style="stroke: black; stroke-width:0.25;"/>
<line x1="444.000000" y1="119.000000" x2="447.000000" y2="118.000000"  transform="rotate(0.000000,447.000000,118.000000)" style="stroke: black; stroke-width:0.25;"/>
<rect x="236.500000" y="171.000000" width="24.000000" height="24.000000" rx="0" ry="0" style="stroke:none;fill:#cccccc;"/>
<rect x="235.500000" y="170.000000" width="24.000000" height="24.000000" rx="0" ry="0" style="stroke:none;fill:#f44800;"/>
<text x="247.500000" y="184.000000" font-family="Arial" font-size="7" text-anchor="middle" fill="#FFFFFF">0.5</text>
<circle cx="237.500000" cy="172.000000" r="1"/>
<line x1="226.500000" y1="161.000000" x2="226.500000" y2="203.000000"  style="stroke: black; stroke-linecap:round; stroke-width:0.25; stroke-dasharray:3,3;"/>
<line x1="226.500000" y1="203.000000" x2="268.500000" y2="203.000000"  style="stroke: black; stroke-linecap:round; stroke-width:0.25; stroke-dasharray:3,3;"/>
<line x1="268.500000" y1="203.000000" x2="268.500000" y2="161.000000"  style="stroke: black; stroke-linecap:round; stroke-width:0.25; stroke-dasharray:3,3;"/>
<line x1="226.500000" y1="161.000000" x2="231.500000" y2="161.000000"  style="stroke: black; stroke-linecap:round; stroke-width:0.25; stroke-dasharray:3,3;"/>
<line x1="241.175000" y1="161.000000" x2="268.500000" y2="161.000000"  style="stroke: black; stroke-linecap:round; stroke-width:0.25; stroke-dasharray:3,3;"/>
<text x="231.500000" y="163.000000" font-family="Arial" font-size="7">k</text>
<rect x="488.000000" y="129.000000" width="24.000000" height="24.000000" rx="0" ry="0" style="stroke:none;fill:#cccccc;"/>
<rect x="487.000000" y="128.000000" width="24.000000" height="24.000000" rx="0" ry="0" style="stroke:none;fill:#4B71A1;"/>
<text x="499.000000" y="142.000000" font-family="Arial" font-size="7" text-anchor="middle" fill="#FFFFFF">*</text>
<circle cx="489.000000" cy="130.000000" r="1"/>
<line x1="484.000000" y1="135.000000" x2="487.000000" y2="136.000000"  transform="rotate(0.000000,487.000000,136.000000)" style="stroke: black; stroke-width:0.25;"/>
<line x1="484.000000" y1="137.000000" x2="487.000000" y2="136.000000"  transform="rotate(0.000000,487.000000,136.000000)" style="stroke: black; stroke-width:0.25;"/>
<line x1="484.000000" y1="143.000000" x2="487.000000" y2="144.000000"  transform="rotate(0.000000,487.000000,144.000000)" style="stroke: black; stroke-width:0.25;"/>
<line x1="484.000000" y1="145.000000" x2="487.000000" y2="144.000000"  transform="rotate(0.000000,487.000000,144.000000)" style="stroke: black; stroke-width:0.25;"/>
<a xlink:href="SR-0x6000003ba520.svg">
<rect x="256.500000" y="213.000000" width="24.000000" height="24.000000" rx="0" ry="0" style="stroke:none;fill:#cccccc;"/>
<rect x="255.500000" y="212.000000" width="24.000000" height="24.000000" rx="0" ry="0" style="stroke:none;fill:#003366;"/>
</a>
<a xlink:href="SR-0x6000003ba520.svg">
<text x="267.500000" y="226.000000" font-family="Arial" font-size="7" text-anchor="middle" fill="#FFFFFF">SR</text>
</a>
<circle cx="257.500000" cy="214.000000" r="1"/>
<rect x="528.000000" y="145.000000" width="24.000000" height="24.000000" rx="0" ry="0" style="stroke:none;fill:#cccccc;"/>
<rect x="527.000000" y="144.000000" width="24.000000" height="24.000000" rx="0" ry="0" style="stroke:none;fill:#4B71A1;"/>
<text x="539.000000" y="158.000000" font-family="Arial" font-size="7" text-anchor="middle" fill="#FFFFFF">/</text>
<circle cx="529.000000" cy="146.000000" r="1"/>
<line x1="524.000000" y1="151.000000" x2="527.000000" y2="152.000000"  transform="rotate(0.000000,527.000000,152.000000)" style="stroke: black; stroke-width:0.25;"/>
<line x1="524.000000" y1="153.000000" x2="527.000000" y2="152.000000"  transform="rotate(0.000000,527.000000,152.000000)" style="stroke: black; stroke-width:0.25;"/>
<line x1="524.000000" y1="159.000000" x2="527.000000" y2="160.000000"  transform="rotate(0.000000,527.000000,160.000000)" style="stroke: black; stroke-width:0.25;"/>
<line x1="524.000000" y1="161.000000" x2="527.000000" y2="160.000000"  transform="rotate(0.000000,527.000000,160.000000)" style="stroke: black; stroke-width:0.25;"/>
<rect x="560.000000" y="145.000000" width="24.000000" height="24.000000" rx="0" ry="0" style="stroke:none;fill:#cccccc;"/>
<rect x="559.000000" y="144.000000" width="24.000000" height="24.000000" rx="0" ry="0" style="stroke:none;fill:#4B71A1;"/>
<text x="571.000000" y="158.000000" font-family="Arial" font-size="7" text-anchor="middle" fill="#FFFFFF">tan</text>
<circle cx="561.000000" cy="146.000000" r="1"/>
<line x1="556.000000" y1="155.000000" x2="559.000000" y2="156.000000"  transform="rotate(0.000000,559.000000,156.000000)" style="stroke: black; stroke-width:0.25;"/>
<line x1="556.000000" y1="157.000000" x2="559.000000" y2="156.000000"  transform="rotate(0.000000,559.000000,156.000000)" style="stroke: black; stroke-width:0.25;"/>
<rect x="600.000000" y="119.000000" width="24.000000" height="24.000000" rx="0" ry="0" style="stroke:none;fill:#cccccc;"/>
<rect x="599.000000" y="118.000000" width="24.000000" height="24.000000" rx="0" ry="0" style="stroke:none;fill:#4B71A1;"/>
<text x="611.000000" y="132.000000" font-family="Arial" font-size="7" text-anchor="middle" fill="#FFFFFF">/</text>
<circle cx="601.000000" cy="120.000000" r="1"/>
<line x1="596.000000" y1="125.000000" x2="599.000000" y2="126.000000"  transform="rotate(0.000000,599.000000,126.000000)" style="stroke: black; stroke-width:0.25;"/>
<line x1="596.000000" y1="127.000000" x2="599.000000" y2="126.000000"  transform="rotate(0.000000,599.000000,126.000000)" style="stroke: black; stroke-width:0.25;"/>
<line x1="596.000000" y1="133.000000" x2="599.000000" y2="134.000000"  transform="rotate(0.000000,599.000000,134.000000)" style="stroke: black; stroke-width:0.25;"/>
<line x1="596.000000" y1="135.000000" x2="599.000000" y2="134.000000"  transform="rotate(0.000000,599.000000,134.000000)" style="stroke: black; stroke-width:0.25;"/>
<line x1="15.000000" y1="15.000000" x2="15.000000" y2="245.000000"  style="stroke: black; stroke-linecap:round; stroke-width:0.25; stroke-dasharray:3,3;"/>
<line x1="15.000000" y1="245.000000" x2="640.000000" y2="245.000000"  style="stroke: black; stroke-linecap:round; stroke-width:0.25; stroke-dasharray:3,3;"/>
<line x1="640.000000" y1="245.000000" x2="640.000000" y2="15.000000"  style="stroke: black; stroke-linecap:round; stroke-width:0.25; stroke-dasharray:3,3;"/>
<line x1="15.000000" y1="15.000000" x2="20.000000" y2="15.000000"  style="stroke: black; stroke-linecap:round; stroke-width:0.25; stroke-dasharray:3,3;"/>
<line x1="29.675000" y1="15.000000" x2="640.000000" y2="15.000000"  style="stroke: black; stroke-linecap:round; stroke-width:0.25; stroke-dasharray:3,3;"/>
<text x="20.000000" y="17.000000" font-family="Arial" font-size="7">c</text>
<line x1="642.000000" y1="129.000000" x2="645.000000" y2="130.000000"  transform="rotate(0.000000,645.000000,130.000000)" style="stroke: black; stroke-width:0.25;"/>
<line x1="642.000000" y1="131.000000" x2="645.000000" y2="130.000000"  transform="rotate(0.000000,645.000000,130.000000)" style="stroke: black; stroke-width:0.25;"/>
<line x1="246.850000" y1="88.000000" x2="250.850000" y2="88.000000"  style="stroke:black; stroke-linecap:round; stroke-width:0.25;"/>
<line x1="250.850000" y1="88.000000" x2="435.000000" y2="88.000000"  style="stroke:black; stroke-linecap:round; stroke-width:0.25;"/>
<line x1="259.500000" y1="182.000000" x2="263.500000" y2="182.000000"  style="stroke:black; stroke-linecap:round; stroke-width:0.25;"/>
<line x1="263.500000" y1="182.000000" x2="273.500000" y2="182.000000"  style="stroke:black; stroke-linecap:round; stroke-width:0.25;"/>
<line x1="273.500000" y1="182.000000" x2="475.000000" y2="182.000000"  style="stroke:black; stroke-linecap:round; stroke-width:0.25;"/>
<line x1="279.500000" y1="224.000000" x2="283.500000" y2="224.000000"  style="stroke:black; stroke-linecap:round; stroke-width:0.25;"/>
<line x1="283.500000" y1="224.000000" x2="515.000000" y2="224.000000"  style="stroke:black; stroke-linecap:round; stroke-width:0.25;"/>
<line x1="315.500000" y1="46.000000" x2="319.500000" y2="46.000000"  style="stroke:black; stroke-linecap:round; stroke-width:0.25;"/>
<line x1="319.500000" y1="46.000000" x2="329.500000" y2="46.000000"  style="stroke:black; stroke-linecap:round; stroke-width:0.25;"/>
<line x1="329.500000" y1="46.000000" x2="587.000000" y2="46.000000"  style="stroke:black; stroke-linecap:round; stroke-width:0.25;"/>
<line x1="421.000000" y1="130.000000" x2="425.000000" y2="130.000000"  style="stroke:black; stroke-linecap:round; stroke-width:0.25;"/>
<line x1="425.000000" y1="130.000000" x2="435.000000" y2="130.000000"  style="stroke:black; stroke-linecap:round; stroke-width:0.25;"/>
<line x1="435.000000" y1="88.000000" x2="443.000000" y2="88.000000"  style="stroke:black; stroke-linecap:round; stroke-width:0.25;"/>
<line x1="435.000000" y1="118.000000" x2="443.000000" y2="118.000000"  style="stroke:black; stroke-linecap:round; stroke-width:0.25;"/>
<line x1="435.000000" y1="130.000000" x2="435.000000" y2="118.000000"  style="stroke:black; stroke-linecap:round; stroke-width:0.25;"/>
<line x1="435.000000" y1="130.000000" x2="435.000000" y2="130.000000"  style="stroke:black; stroke-linecap:round; stroke-width:0.25;"/>
<line x1="443.000000" y1="88.000000" x2="443.000000" y2="110.000000"  style="stroke:black; stroke-linecap:round; stroke-width:0.25;"/>
<line x1="443.000000" y1="110.000000" x2="443.000000" y2="110.000000"  style="stroke:black; stroke-linecap:round; stroke-width:0.25;"/>
<line x1="443.000000" y1="110.000000" x2="447.000000" y2="110.000000"  style="stroke:black; stroke-linecap:round; stroke-width:0.25;"/>
<line x1="443.000000" y1="118.000000" x2="447.000000" y2="118.000000"  style="stroke:black; stroke-linecap:round; stroke-width:0.25;"/>
<line x1="471.000000" y1="114.000000" x2="475.000000" y2="114.000000"  style="stroke:black; stroke-linecap:round; stroke-width:0.25;"/>
<line x1="475.000000" y1="114.000000" x2="483.000000" y2="114.000000"  style="stroke:black; stroke-linecap:round; stroke-width:0.25;"/>
<line x1="475.000000" y1="144.000000" x2="483.000000" y2="144.000000"  style="stroke:black; stroke-linecap:round; stroke-width:0.25;"/>
<line x1="475.000000" y1="182.000000" x2="475.000000" y2="144.000000"  style="stroke:black; stroke-linecap:round; stroke-width:0.25;"/>
<line x1="475.000000" y1="182.000000" x2="475.000000" y2="182.000000"  style="stroke:black; stroke-linecap:round; stroke-width:0.25;"/>
<line x1="483.000000" y1="114.000000" x2="483.000000" y2="136.000000"  style="stroke:black; stroke-linecap:round; stroke-width:0.25;"/>
<line x1="483.000000" y1="136.000000" x2="483.000000" y2="136.000000"  style="stroke:black; stroke-linecap:round; stroke-width:0.25;"/>
<line x1="483.000000" y1="136.000000" x2="487.000000" y2="136.000000"  style="stroke:black; stroke-linecap:round; stroke-width:0.25;"/>
<line x1="483.000000" y1="144.000000" x2="487.000000" y2="144.000000"  style="stroke:black; stroke-linecap:round; stroke-width:0.25;"/>
<line x1="511.000000" y1="140.000000" x2="515.000000" y2="140.000000"  style="stroke:black; stroke-linecap:round; stroke-width:0.25;"/>
<line x1="515.000000" y1="140.000000" x2="523.000000" y2="140.000000"  style="stroke:black; stroke-linecap:round; stroke-width:0.25;"/>
<line x1="515.000000" y1="160.000000" x2="523.000000" y2="160.000000"  style="stroke:black; stroke-linecap:round; stroke-width:0.25;"/>
<line x1="515.000000" y1="224.000000" x2="515.000000" y2="160.000000"  style="stroke:black; stroke-linecap:round; stroke-width:0.25;"/>
<line x1="515.000000" y1="224.000000" x2="515.000000" y2="224.000000"  style="stroke:black; stroke-linecap:round; stroke-width:0.25;"/>
<line x1="523.000000" y1="140.000000" x2="523.000000" y2="152.000000"  style="stroke:black; stroke-linecap:round; stroke-width:0.25;"/>
<line x1="523.000000" y1="152.000000" x2="523.000000" y2="152.000000"  style="stroke:black; stroke-linecap:round; stroke-width:0.25;"/>
<line x1="523.000000" y1="152.000000" x2="527.000000" y2="152.000000"  style="stroke:black; stroke-linecap:round; stroke-width:0.25;"/>
<line x1="523.000000" y1="160.000000" x2="527.000000" y2="160.000000"  style="stroke:black; stroke-linecap:round; stroke-width:0.25;"/>
<line x1="551.000000" y1="156.000000" x2="555.000000" y2="156.000000"  style="stroke:black; stroke-linecap:round; stroke-width:0.25;"/>
<line x1="555.000000" y1="156.000000" x2="555.000000" y2="156.000000"  style="stroke:black; stroke-linecap:round; stroke-width:0.25;"/>
<line x1="555.000000" y1="156.000000" x2="559.000000" y2="156.000000"  style="stroke:black; stroke-linecap:round; stroke-width:0.25;"/>
<line x1="583.000000" y1="156.000000" x2="587.000000" y2="156.000000"  style="stroke:black; stroke-linecap:round; stroke-width:0.25;"/>
<line x1="587.000000" y1="46.000000" x2="595.000000" y2="46.000000"  style="stroke:black; stroke-linecap:round; stroke-width:0.25;"/>
<line x1="587.000000" y1="134.000000" x2="595.000000" y2="134.000000"  style="stroke:black; stroke-linecap:round; stroke-width:0.25;"/>
<line x1="587.000000" y1="156.000000" x2="587.000000" y2="134.000000"  style="stroke:black; stroke-linecap:round; stroke-width:0.25;"/>
<line x1="587.000000" y1="156.000000" x2="587.000000" y2="156.000000"  style="stroke:black; stroke-linecap:round; stroke-width:0.25;"/>
<line x1="595.000000" y1="46.000000" x2="595.000000" y2="126.000000"  style="stroke:black; stroke-linecap:round; stroke-width:0.25;"/>
<line x1="595.000000" y1="126.000000" x2="595.000000" y2="126.000000"  style="stroke:black; stroke-linecap:round; stroke-width:0.25;"/>
<line x1="595.000000" y1="126.000000" x2="599.000000" y2="126.000000"  style="stroke:black; stroke-linecap:round; stroke-width:0.25;"/>
<line x1="595.000000" y1="134.000000" x2="599.000000" y2="134.000000"  style="stroke:black; stroke-linecap:round; stroke-width:0.25;"/>
<line x1="623.000000" y1="130.000000" x2="627.000000" y2="130.000000"  style="stroke:black; stroke-linecap:round; stroke-width:0.25;"/>
<line x1="627.000000" y1="130.000000" x2="627.000000" y2="130.000000"  style="stroke:black; stroke-linecap:round; stroke-width:0.25;"/>
<line x1="627.000000" y1="130.000000" x2="631.000000" y2="130.000000"  style="stroke:black; stroke-linecap:round; stroke-width:0.25;"/>
<line x1="631.000000" y1="130.000000" x2="635.000000" y2="130.000000"  style="stroke:black; stroke-linecap:round; stroke-width:0.25;"/>
<line x1="635.000000" y1="130.000000" x2="645.000000" y2="130.000000"  style="stroke:black; stroke-linecap:round; stroke-width:0.25;"/>
</svg>
