<?xml version="1.0"?>
<svg xmlns="http://www.w3.org/2000/svg" xmlns:xlink="http://www.w3.org/1999/xlink" viewBox="0 0 362.800000 208.000000" width="181.400000mm" height="104.000000mm" version="1.1">
<a xlink:href="tauCenterClipped-0x60013c0145a0.svg">
<rect x="1.000000" y="1.000000" width="361.800000" height="207.000000" rx="0" ry="0" style="stroke:none;fill:#cccccc;"/>
<rect x="0.000000" y="0.000000" width="361.800000" height="207.000000" rx="0" ry="0" style="stroke:none;fill:#ffffff;"/>
</a>
<text x="10.000000" y="7.000000" font-family="Arial" font-size="7"></text>
<rect x="110.400000" y="35.000000" width="24.000000" height="24.000000" rx="0" ry="0" style="stroke:none;fill:#cccccc;"/>
<rect x="109.400000" y="34.000000" width="24.000000" height="24.000000" rx="0" ry="0" style="stroke:none;fill:#f44800;"/>
<text x="121.400000" y="48.000000" font-family="Arial" font-size="7" text-anchor="middle" fill="#FFFFFF">1</text>
<circle cx="111.400000" cy="36.000000" r="1"/>
<line x1="100.400000" y1="25.000000" x2="100.400000" y2="67.000000"  style="stroke: black; stroke-linecap:round; stroke-width:0.25; stroke-dasharray:3,3;"/>
<line x1="100.400000" y1="67.000000" x2="142.400000" y2="67.000000"  style="stroke: black; stroke-linecap:round; stroke-width:0.25; stroke-dasharray:3,3;"/>
<line x1="142.400000" y1="67.000000" x2="142.400000" y2="25.000000"  style="stroke: black; stroke-linecap:round; stroke-width:0.25; stroke-dasharray:3,3;"/>
<line x1="100.400000" y1="25.000000" x2="105.400000" y2="25.000000"  style="stroke: black; stroke-linecap:round; stroke-width:0.25; stroke-dasharray:3,3;"/>
<line x1="134.425000" y1="25.000000" x2="142.400000" y2="25.000000"  style="stroke: black; stroke-linecap:round; stroke-width:0.25; stroke-dasharray:3,3;"/>
<text x="105.400000" y="27.000000" font-family="Arial" font-size="7">pow2(0)</text>
<rect x="83.050000" y="77.000000" width="38.700000" height="24.000000" rx="0" ry="0" style="stroke:none;fill:#cccccc;"/>
<rect x="82.050000" y="76.000000" width="38.700000" height="24.000000" rx="0" ry="0" style="stroke:none;fill:#f44800;"/>
<text x="101.400000" y="90.000000" font-family="Arial" font-size="7" text-anchor="middle" fill="#FFFFFF">6.28319</text>
<circle cx="84.050000" cy="78.000000" r="1"/>
<a xlink:href="leveler-0x60013c014000.svg">
<rect x="25.000000" y="109.000000" width="154.800000" height="24.000000" rx="0" ry="0" style="stroke:none;fill:#cccccc;"/>
<rect x="24.000000" y="108.000000" width="154.800000" height="24.000000" rx="0" ry="0" style="stroke:none;fill:#003366;"/>
</a>
<a xlink:href="leveler-0x60013c014000.svg">
<text x="101.400000" y="122.000000" font-family="Arial" font-size="7" text-anchor="middle" fill="#FFFFFF">leveler_speed_brake(x1142,x1143 : +)</text>
</a>
<circle cx="26.000000" cy="110.000000" r="1"/>
<rect x="195.800000" y="93.000000" width="24.000000" height="24.000000" rx="0" ry="0" style="stroke:none;fill:#cccccc;"/>
<rect x="194.800000" y="92.000000" width="24.000000" height="24.000000" rx="0" ry="0" style="stroke:none;fill:#4B71A1;"/>
<text x="206.800000" y="106.000000" font-family="Arial" font-size="7" text-anchor="middle" fill="#FFFFFF">*</text>
<circle cx="196.800000" cy="94.000000" r="1"/>
<line x1="191.800000" y1="99.000000" x2="194.800000" y2="100.000000"  transform="rotate(0.000000,194.800000,100.000000)" style="stroke: black; stroke-width:0.25;"/>
<line x1="191.800000" y1="101.000000" x2="194.800000" y2="100.000000"  transform="rotate(0.000000,194.800000,100.000000)" style="stroke: black; stroke-width:0.25;"/>
<line x1="191.800000" y1="107.000000" x2="194.800000" y2="108.000000"  transform="rotate(0.000000,194.800000,108.000000)" style="stroke: black; stroke-width:0.25;"/>
<line x1="191.800000" y1="109.000000" x2="194.800000" y2="108.000000"  transform="rotate(0.000000,194.800000,108.000000)" style="stroke: black; stroke-width:0.25;"/>
<rect x="235.800000" y="67.000000" width="24.000000" height="24.000000" rx="0" ry="0" style="stroke:none;fill:#cccccc;"/>
<rect x="234.800000" y="66.000000" width="24.000000" height="24.000000" rx="0" ry="0" style="stroke:none;fill:#4B71A1;"/>
<text x="246.800000" y="80.000000" font-family="Arial" font-size="7" text-anchor="middle" fill="#FFFFFF">/</text>
<circle cx="236.800000" cy="68.000000" r="1"/>
<line x1="231.800000" y1="73.000000" x2="234.800000" y2="74.000000"  transform="rotate(0.000000,234.800000,74.000000)" style="stroke: black; stroke-width:0.25;"/>
<line x1="231.800000" y1="75.000000" x2="234.800000" y2="74.000000"  transform="rotate(0.000000,234.800000,74.000000)" style="stroke: black; stroke-width:0.25;"/>
<line x1="231.800000" y1="81.000000" x2="234.800000" y2="82.000000"  transform="rotate(0.000000,234.800000,82.000000)" style="stroke: black; stroke-width:0.25;"/>
<line x1="231.800000" y1="83.000000" x2="234.800000" y2="82.000000"  transform="rotate(0.000000,234.800000,82.000000)" style="stroke: black; stroke-width:0.25;"/>
<rect x="267.800000" y="67.000000" width="24.000000" height="24.000000" rx="0" ry="0" style="stroke:none;fill:#cccccc;"/>
<rect x="266.800000" y="66.000000" width="24.000000" height="24.000000" rx="0" ry="0" style="stroke:none;fill:#4B71A1;"/>
<text x="278.800000" y="80.000000" font-family="Arial" font-size="7" text-anchor="middle" fill="#FFFFFF">abs</text>
<circle cx="268.800000" cy="68.000000" r="1"/>
<line x1="263.800000" y1="77.000000" x2="266.800000" y2="78.000000"  transform="rotate(0.000000,266.800000,78.000000)" style="stroke: black; stroke-width:0.25;"/>
<line x1="263.800000" y1="79.000000" x2="266.800000" y2="78.000000"  transform="rotate(0.000000,266.800000,78.000000)" style="stroke: black; stroke-width:0.25;"/>
<rect x="132.600000" y="151.000000" width="51.600000" height="24.000000" rx="0" ry="0" style="stroke:none;fill:#cccccc;"/>
<rect x="131.600000" y="150.000000" width="51.600000" height="24.000000" rx="0" ry="0" style="stroke:none;fill:#f44800;"/>
<text x="157.400000" y="164.000000" font-family="Arial" font-size="7" text-anchor="middle" fill="#FFFFFF">1.19209e-07</text>
<circle cx="133.600000" cy="152.000000" r="1"/>
<line x1="122.600000" y1="141.000000" x2="122.600000" y2="183.000000"  style="stroke: black; stroke-linecap:round; stroke-width:0.25; stroke-dasharray:3,3;"/>
<line x1="122.600000" y1="183.000000" x2="192.200000" y2="183.000000"  style="stroke: black; stroke-linecap:round; stroke-width:0.25; stroke-dasharray:3,3;"/>
<line x1="192.200000" y1="183.000000" x2="192.200000" y2="141.000000"  style="stroke: black; stroke-linecap:round; stroke-width:0.25; stroke-dasharray:3,3;"/>
<line x1="122.600000" y1="141.000000" x2="127.600000" y2="141.000000"  style="stroke: black; stroke-linecap:round; stroke-width:0.25; stroke-dasharray:3,3;"/>
<line x1="156.625000" y1="141.000000" x2="192.200000" y2="141.000000"  style="stroke: black; stroke-linecap:round; stroke-width:0.25; stroke-dasharray:3,3;"/>
<text x="127.600000" y="143.000000" font-family="Arial" font-size="7">EPSILON</text>
<rect x="307.800000" y="93.000000" width="24.000000" height="24.000000" rx="0" ry="0" style="stroke:none;fill:#cccccc;"/>
<rect x="306.800000" y="92.000000" width="24.000000" height="24.000000" rx="0" ry="0" style="stroke:none;fill:#4B71A1;"/>
<text x="318.800000" y="106.000000" font-family="Arial" font-size="7" text-anchor="middle" fill="#FFFFFF">&lt;</text>
<circle cx="308.800000" cy="94.000000" r="1"/>
<line x1="303.800000" y1="99.000000" x2="306.800000" y2="100.000000"  transform="rotate(0.000000,306.800000,100.000000)" style="stroke: black; stroke-width:0.25;"/>
<line x1="303.800000" y1="101.000000" x2="306.800000" y2="100.000000"  transform="rotate(0.000000,306.800000,100.000000)" style="stroke: black; stroke-width:0.25;"/>
<line x1="303.800000" y1="107.000000" x2="306.800000" y2="108.000000"  transform="rotate(0.000000,306.800000,108.000000)" style="stroke: black; stroke-width:0.25;"/>
<line x1="303.800000" y1="109.000000" x2="306.800000" y2="108.000000"  transform="rotate(0.000000,306.800000,108.000000)" style="stroke: black; stroke-width:0.25;"/>
<line x1="15.000000" y1="15.000000" x2="15.000000" y2="193.000000"  style="stroke: black; stroke-linecap:round; stroke-width:0.25; stroke-dasharray:3,3;"/>
<line x1="15.000000" y1="193.000000" x2="347.800000" y2="193.000000"  style="stroke: black; stroke-linecap:round; stroke-width:0.25; stroke-dasharray:3,3;"/>
<line x1="347.800000" y1="193.000000" x2="347.800000" y2="15.000000"  style="stroke: black; stroke-linecap:round; stroke-width:0.25; stroke-dasharray:3,3;"/>
<line x1="15.000000" y1="15.000000" x2="20.000000" y2="15.000000"  style="stroke: black; stroke-linecap:round; stroke-width:0.25; stroke-dasharray:3,3;"/>
<line x1="52.250000" y1="15.000000" x2="347.800000" y2="15.000000"  style="stroke: black; stroke-linecap:round; stroke-width:0.25; stroke-dasharray:3,3;"/>
<text x="20.000000" y="17.000000" font-family="Arial" font-size="7">clipCond</text>
<line x1="349.800000" y1="103.000000" x2="352.800000" y2="104.000000"  transform="rotate(0.000000,352.800000,104.000000)" style="stroke: black; stroke-width:0.25;"/>
<line x1="349.800000" y1="105.000000" x2="352.800000" y2="104.000000"  transform="rotate(0.000000,352.800000,104.000000)" style="stroke: black; stroke-width:0.25;"/>
<line x1="120.750000" y1="88.000000" x2="124.750000" y2="88.000000"  style="stroke:black; stroke-linecap:round; stroke-width:0.25;"/>
<line x1="124.750000" y1="88.000000" x2="182.800000" y2="88.000000"  style="stroke:black; stroke-linecap:round; stroke-width:0.25;"/>
<line x1="133.400000" y1="46.000000" x2="137.400000" y2="46.000000"  style="stroke:black; stroke-linecap:round; stroke-width:0.25;"/>
<line x1="137.400000" y1="46.000000" x2="147.400000" y2="46.000000"  style="stroke:black; stroke-linecap:round; stroke-width:0.25;"/>
<line x1="147.400000" y1="46.000000" x2="222.800000" y2="46.000000"  style="stroke:black; stroke-linecap:round; stroke-width:0.25;"/>
<line x1="178.800000" y1="120.000000" x2="182.800000" y2="120.000000"  style="stroke:black; stroke-linecap:round; stroke-width:0.25;"/>
<line x1="182.800000" y1="108.000000" x2="190.800000" y2="108.000000"  style="stroke:black; stroke-linecap:round; stroke-width:0.25;"/>
<line x1="182.800000" y1="120.000000" x2="182.800000" y2="108.000000"  style="stroke:black; stroke-linecap:round; stroke-width:0.25;"/>
<line x1="182.800000" y1="120.000000" x2="182.800000" y2="120.000000"  style="stroke:black; stroke-linecap:round; stroke-width:0.25;"/>
<line x1="182.800000" y1="88.000000" x2="190.800000" y2="88.000000"  style="stroke:black; stroke-linecap:round; stroke-width:0.25;"/>
<line x1="183.200000" y1="162.000000" x2="187.200000" y2="162.000000"  style="stroke:black; stroke-linecap:round; stroke-width:0.25;"/>
<line x1="187.200000" y1="162.000000" x2="197.200000" y2="162.000000"  style="stroke:black; stroke-linecap:round; stroke-width:0.25;"/>
<line x1="190.800000" y1="100.000000" x2="194.800000" y2="100.000000"  style="stroke:black; stroke-linecap:round; stroke-width:0.25;"/>
<line x1="190.800000" y1="108.000000" x2="194.800000" y2="108.000000"  style="stroke:black; stroke-linecap:round; stroke-width:0.25;"/>
<line x1="190.800000" y1="88.000000" x2="190.800000" y2="100.000000"  style="stroke:black; stroke-linecap:round; stroke-width:0.25;"/>
<line x1="190.800000" y1="100.000000" x2="190.800000" y2="100.000000"  style="stroke:black; stroke-linecap:round; stroke-width:0.25;"/>
<line x1="197.200000" y1="162.000000" x2="294.800000" y2="162.000000"  style="stroke:black; stroke-linecap:round; stroke-width:0.25;"/>
<line x1="218.800000" y1="104.000000" x2="222.800000" y2="104.000000"  style="stroke:black; stroke-linecap:round; stroke-width:0.25;"/>
<line x1="222.800000" y1="46.000000" x2="230.800000" y2="46.000000"  style="stroke:black; stroke-linecap:round; stroke-width:0.25;"/>
<line x1="222.800000" y1="82.000000" x2="230.800000" y2="82.000000"  style="stroke:black; stroke-linecap:round; stroke-width:0.25;"/>
<line x1="222.800000" y1="104.000000" x2="222.800000" y2="82.000000"  style="stroke:black; stroke-linecap:round; stroke-width:0.25;"/>
<line x1="222.800000" y1="104.000000" x2="222.800000" y2="104.000000"  style="stroke:black; stroke-linecap:round; stroke-width:0.25;"/>
<line x1="230.800000" y1="46.000000" x2="230.800000" y2="74.000000"  style="stroke:black; stroke-linecap:round; stroke-width:0.25;"/>
<line x1="230.800000" y1="74.000000" x2="230.800000" y2="74.000000"  style="stroke:black; stroke-linecap:round; stroke-width:0.25;"/>
<line x1="230.800000" y1="74.000000" x2="234.800000" y2="74.000000"  style="stroke:black; stroke-linecap:round; stroke-width:0.25;"/>
<line x1="230.800000" y1="82.000000" x2="234.800000" y2="82.000000"  style="stroke:black; stroke-linecap:round; stroke-width:0.25;"/>
<line x1="258.800000" y1="78.000000" x2="262.800000" y2="78.000000"  style="stroke:black; stroke-linecap:round; stroke-width:0.25;"/>
<line x1="262.800000" y1="78.000000" x2="262.800000" y2="78.000000"  style="stroke:black; stroke-linecap:round; stroke-width:0.25;"/>
<line x1="262.800000" y1="78.000000" x2="266.800000" y2="78.000000"  style="stroke:black; stroke-linecap:round; stroke-width:0.25;"/>
<line x1="290.800000" y1="78.000000" x2="294.800000" y2="78.000000"  style="stroke:black; stroke-linecap:round; stroke-width:0.25;"/>
<line x1="294.800000" y1="78.000000" x2="302.800000" y2="78.000000"  style="stroke:black; stroke-linecap:round; stroke-width:0.25;"/>
<line x1="294.800000" y1="108.000000" x2="302.800000" y2="108.000000"  style="stroke:black; stroke-linecap:round; stroke-width:0.25;"/>
<line x1="294.800000" y1="162.000000" x2="294.800000" y2="108.000000"  style="stroke:black; stroke-linecap:round; stroke-width:0.25;"/>
<line x1="294.800000" y1="162.000000" x2="294.800000" y2="162.000000"  style="stroke:black; stroke-linecap:round; stroke-width:0.25;"/>
<line x1="302.800000" y1="78.000000" x2="302.800000" y2="100.000000"  style="stroke:black; stroke-linecap:round; stroke-width:0.25;"/>
<line x1="302.800000" y1="100.000000" x2="302.800000" y2="100.000000"  style="stroke:black; stroke-linecap:round; stroke-width:0.25;"/>
<line x1="302.800000" y1="100.000000" x2="306.800000" y2="100.000000"  style="stroke:black; stroke-linecap:round; stroke-width:0.25;"/>
<line x1="302.800000" y1="108.000000" x2="306.800000" y2="108.000000"  style="stroke:black; stroke-linecap:round; stroke-width:0.25;"/>
<line x1="330.800000" y1="104.000000" x2="334.800000" y2="104.000000"  style="stroke:black; stroke-linecap:round; stroke-width:0.25;"/>
<line x1="334.800000" y1="104.000000" x2="334.800000" y2="104.000000"  style="stroke:black; stroke-linecap:round; stroke-width:0.25;"/>
<line x1="334.800000" y1="104.000000" x2="338.800000" y2="104.000000"  style="stroke:black; stroke-linecap:round; stroke-width:0.25;"/>
<line x1="338.800000" y1="104.000000" x2="342.800000" y2="104.000000"  style="stroke:black; stroke-linecap:round; stroke-width:0.25;"/>
<line x1="342.800000" y1="104.000000" x2="352.800000" y2="104.000000"  style="stroke:black; stroke-linecap:round; stroke-width:0.25;"/>
</svg>
