<?xml version="1.0"?>
<svg xmlns="http://www.w3.org/2000/svg" xmlns:xlink="http://www.w3.org/1999/xlink" viewBox="0 0 260.600000 168.000000" width="130.300000mm" height="84.000000mm" version="1.1">
<a xlink:href="loop-0x60013c011c20.svg">
<rect x="1.000000" y="1.000000" width="259.600000" height="167.000000" rx="0" ry="0" style="stroke:none;fill:#cccccc;"/>
<rect x="0.000000" y="0.000000" width="259.600000" height="167.000000" rx="0" ry="0" style="stroke:none;fill:#ffffff;"/>
</a>
<text x="10.000000" y="7.000000" font-family="Arial" font-size="7"></text>
<rect x="63.950000" y="25.000000" width="24.000000" height="24.000000" rx="0" ry="0" style="stroke:none;fill:#cccccc;"/>
<rect x="62.950000" y="24.000000" width="24.000000" height="24.000000" rx="0" ry="0" style="stroke:none;fill:#47945E;"/>
<text x="74.950000" y="38.000000" font-family="Arial" font-size="7" text-anchor="middle" fill="#FFFFFF">x</text>
<circle cx="64.950000" cy="26.000000" r="1"/>
<rect x="63.050000" y="57.000000" width="25.800000" height="24.000000" rx="0" ry="0" style="stroke:none;fill:#cccccc;"/>
<rect x="62.050000" y="56.000000" width="25.800000" height="24.000000" rx="0" ry="0" style="stroke:none;fill:#47945E;"/>
<text x="74.950000" y="70.000000" font-family="Arial" font-size="7" text-anchor="middle" fill="#FFFFFF">yState</text>
<circle cx="64.050000" cy="58.000000" r="1"/>
<rect x="104.850000" y="41.000000" width="24.000000" height="24.000000" rx="0" ry="0" style="stroke:none;fill:#cccccc;"/>
<rect x="103.850000" y="40.000000" width="24.000000" height="24.000000" rx="0" ry="0" style="stroke:none;fill:#4B71A1;"/>
<text x="115.850000" y="54.000000" font-family="Arial" font-size="7" text-anchor="middle" fill="#FFFFFF">&gt;</text>
<circle cx="105.850000" cy="42.000000" r="1"/>
<line x1="100.850000" y1="47.000000" x2="103.850000" y2="48.000000"  transform="rotate(0.000000,103.850000,48.000000)" style="stroke: black; stroke-width:0.25;"/>
<line x1="100.850000" y1="49.000000" x2="103.850000" y2="48.000000"  transform="rotate(0.000000,103.850000,48.000000)" style="stroke: black; stroke-width:0.25;"/>
<line x1="100.850000" y1="55.000000" x2="103.850000" y2="56.000000"  transform="rotate(0.000000,103.850000,56.000000)" style="stroke: black; stroke-width:0.25;"/>
<line x1="100.850000" y1="57.000000" x2="103.850000" y2="56.000000"  transform="rotate(0.000000,103.850000,56.000000)" style="stroke: black; stroke-width:0.25;"/>
<a xlink:href="tau2pole-0x600070047600.svg">
<rect x="31.450000" y="89.000000" width="129.000000" height="24.000000" rx="0" ry="0" style="stroke:none;fill:#cccccc;"/>
<rect x="30.450000" y="88.000000" width="129.000000" height="24.000000" rx="0" ry="0" style="stroke:none;fill:#003366;"/>
</a>
<a xlink:href="tau2pole-0x600070047600.svg">
<text x="94.950000" y="102.000000" font-family="Arial" font-size="7" text-anchor="middle" fill="#FFFFFF">tau2pole(0.29999999999999999f)</text>
</a>
<circle cx="32.450000" cy="90.000000" r="1"/>
<a xlink:href="tau2pole-0x6000700b3a80.svg">
<rect x="25.000000" y="121.000000" width="141.900000" height="24.000000" rx="0" ry="0" style="stroke:none;fill:#cccccc;"/>
<rect x="24.000000" y="120.000000" width="141.900000" height="24.000000" rx="0" ry="0" style="stroke:none;fill:#003366;"/>
</a>
<a xlink:href="tau2pole-0x6000700b3a80.svg">
<text x="94.950000" y="134.000000" font-family="Arial" font-size="7" text-anchor="middle" fill="#FFFFFF">tau2pole(0.050000000000000003f)</text>
</a>
<circle cx="26.000000" cy="122.000000" r="1"/>
<rect x="190.900000" y="73.000000" width="38.700000" height="24.000000" rx="0" ry="0" style="stroke:none;fill:#cccccc;"/>
<rect x="189.900000" y="72.000000" width="38.700000" height="24.000000" rx="0" ry="0" style="stroke:none;fill:#4B71A1;"/>
<text x="209.250000" y="86.000000" font-family="Arial" font-size="7" text-anchor="middle" fill="#FFFFFF">select2</text>
<circle cx="191.900000" cy="74.000000" r="1"/>
<line x1="186.900000" y1="75.000000" x2="189.900000" y2="76.000000"  transform="rotate(0.000000,189.900000,76.000000)" style="stroke: black; stroke-width:0.25;"/>
<line x1="186.900000" y1="77.000000" x2="189.900000" y2="76.000000"  transform="rotate(0.000000,189.900000,76.000000)" style="stroke: black; stroke-width:0.25;"/>
<line x1="186.900000" y1="83.000000" x2="189.900000" y2="84.000000"  transform="rotate(0.000000,189.900000,84.000000)" style="stroke: black; stroke-width:0.25;"/>
<line x1="186.900000" y1="85.000000" x2="189.900000" y2="84.000000"  transform="rotate(0.000000,189.900000,84.000000)" style="stroke: black; stroke-width:0.25;"/>
<line x1="186.900000" y1="91.000000" x2="189.900000" y2="92.000000"  transform="rotate(0.000000,189.900000,92.000000)" style="stroke: black; stroke-width:0.25;"/>
<line x1="186.900000" y1="93.000000" x2="189.900000" y2="92.000000"  transform="rotate(0.000000,189.900000,92.000000)" style="stroke: black; stroke-width:0.25;"/>
<line x1="15.000000" y1="15.000000" x2="15.000000" y2="153.000000"  style="stroke: black; stroke-linecap:round; stroke-width:0.25; stroke-dasharray:3,3;"/>
<line x1="15.000000" y1="153.000000" x2="245.600000" y2="153.000000"  style="stroke: black; stroke-linecap:round; stroke-width:0.25; stroke-dasharray:3,3;"/>
<line x1="245.600000" y1="153.000000" x2="245.600000" y2="15.000000"  style="stroke: black; stroke-linecap:round; stroke-width:0.25; stroke-dasharray:3,3;"/>
<line x1="15.000000" y1="15.000000" x2="20.000000" y2="15.000000"  style="stroke: black; stroke-linecap:round; stroke-width:0.25; stroke-dasharray:3,3;"/>
<line x1="42.575000" y1="15.000000" x2="245.600000" y2="15.000000"  style="stroke: black; stroke-linecap:round; stroke-width:0.25; stroke-dasharray:3,3;"/>
<text x="20.000000" y="17.000000" font-family="Arial" font-size="7">coeff</text>
<line x1="247.600000" y1="83.000000" x2="250.600000" y2="84.000000"  transform="rotate(0.000000,250.600000,84.000000)" style="stroke: black; stroke-width:0.25;"/>
<line x1="247.600000" y1="85.000000" x2="250.600000" y2="84.000000"  transform="rotate(0.000000,250.600000,84.000000)" style="stroke: black; stroke-width:0.25;"/>
<line x1="86.950000" y1="36.000000" x2="90.950000" y2="36.000000"  style="stroke:black; stroke-linecap:round; stroke-width:0.25;"/>
<line x1="87.850000" y1="68.000000" x2="91.850000" y2="68.000000"  style="stroke:black; stroke-linecap:round; stroke-width:0.25;"/>
<line x1="90.950000" y1="36.000000" x2="91.850000" y2="36.000000"  style="stroke:black; stroke-linecap:round; stroke-width:0.25;"/>
<line x1="91.850000" y1="36.000000" x2="99.850000" y2="36.000000"  style="stroke:black; stroke-linecap:round; stroke-width:0.25;"/>
<line x1="91.850000" y1="56.000000" x2="99.850000" y2="56.000000"  style="stroke:black; stroke-linecap:round; stroke-width:0.25;"/>
<line x1="91.850000" y1="68.000000" x2="91.850000" y2="56.000000"  style="stroke:black; stroke-linecap:round; stroke-width:0.25;"/>
<line x1="91.850000" y1="68.000000" x2="91.850000" y2="68.000000"  style="stroke:black; stroke-linecap:round; stroke-width:0.25;"/>
<line x1="99.850000" y1="36.000000" x2="99.850000" y2="48.000000"  style="stroke:black; stroke-linecap:round; stroke-width:0.25;"/>
<line x1="99.850000" y1="48.000000" x2="99.850000" y2="48.000000"  style="stroke:black; stroke-linecap:round; stroke-width:0.25;"/>
<line x1="99.850000" y1="48.000000" x2="103.850000" y2="48.000000"  style="stroke:black; stroke-linecap:round; stroke-width:0.25;"/>
<line x1="99.850000" y1="56.000000" x2="103.850000" y2="56.000000"  style="stroke:black; stroke-linecap:round; stroke-width:0.25;"/>
<line x1="127.850000" y1="52.000000" x2="131.850000" y2="52.000000"  style="stroke:black; stroke-linecap:round; stroke-width:0.25;"/>
<line x1="131.850000" y1="52.000000" x2="169.900000" y2="52.000000"  style="stroke:black; stroke-linecap:round; stroke-width:0.25;"/>
<line x1="159.450000" y1="100.000000" x2="163.450000" y2="100.000000"  style="stroke:black; stroke-linecap:round; stroke-width:0.25;"/>
<line x1="163.450000" y1="100.000000" x2="169.900000" y2="100.000000"  style="stroke:black; stroke-linecap:round; stroke-width:0.25;"/>
<line x1="165.900000" y1="132.000000" x2="169.900000" y2="132.000000"  style="stroke:black; stroke-linecap:round; stroke-width:0.25;"/>
<line x1="169.900000" y1="84.000000" x2="185.900000" y2="84.000000"  style="stroke:black; stroke-linecap:round; stroke-width:0.25;"/>
<line x1="169.900000" y1="100.000000" x2="169.900000" y2="84.000000"  style="stroke:black; stroke-linecap:round; stroke-width:0.25;"/>
<line x1="169.900000" y1="100.000000" x2="169.900000" y2="100.000000"  style="stroke:black; stroke-linecap:round; stroke-width:0.25;"/>
<line x1="169.900000" y1="52.000000" x2="185.900000" y2="52.000000"  style="stroke:black; stroke-linecap:round; stroke-width:0.25;"/>
<line x1="169.900000" y1="132.000000" x2="177.900000" y2="132.000000"  style="stroke:black; stroke-linecap:round; stroke-width:0.25;"/>
<line x1="177.900000" y1="92.000000" x2="185.900000" y2="92.000000"  style="stroke:black; stroke-linecap:round; stroke-width:0.25;"/>
<line x1="177.900000" y1="132.000000" x2="177.900000" y2="92.000000"  style="stroke:black; stroke-linecap:round; stroke-width:0.25;"/>
<line x1="185.900000" y1="52.000000" x2="185.900000" y2="76.000000"  style="stroke:black; stroke-linecap:round; stroke-width:0.25;"/>
<line x1="185.900000" y1="76.000000" x2="185.900000" y2="76.000000"  style="stroke:black; stroke-linecap:round; stroke-width:0.25;"/>
<line x1="185.900000" y1="76.000000" x2="189.900000" y2="76.000000"  style="stroke:black; stroke-linecap:round; stroke-width:0.25;"/>
<line x1="185.900000" y1="84.000000" x2="189.900000" y2="84.000000"  style="stroke:black; stroke-linecap:round; stroke-width:0.25;"/>
<line x1="185.900000" y1="92.000000" x2="189.900000" y2="92.000000"  style="stroke:black; stroke-linecap:round; stroke-width:0.25;"/>
<line x1="228.600000" y1="84.000000" x2="232.600000" y2="84.000000"  style="stroke:black; stroke-linecap:round; stroke-width:0.25;"/>
<line x1="232.600000" y1="84.000000" x2="232.600000" y2="84.000000"  style="stroke:black; stroke-linecap:round; stroke-width:0.25;"/>
<line x1="232.600000" y1="84.000000" x2="236.600000" y2="84.000000"  style="stroke:black; stroke-linecap:round; stroke-width:0.25;"/>
<line x1="236.600000" y1="84.000000" x2="240.600000" y2="84.000000"  style="stroke:black; stroke-linecap:round; stroke-width:0.25;"/>
<line x1="240.600000" y1="84.000000" x2="250.600000" y2="84.000000"  style="stroke:black; stroke-linecap:round; stroke-width:0.25;"/>
</svg>
