<?xml version="1.0"?>
<svg xmlns="http://www.w3.org/2000/svg" xmlns:xlink="http://www.w3.org/1999/xlink" viewBox="0 0 200.000000 156.000000" width="100.000000mm" height="78.000000mm" version="1.1">
<a xlink:href="limiter-0x60015011b690.svg">
<rect x="1.000000" y="1.000000" width="199.000000" height="155.000000" rx="0" ry="0" style="stroke:none;fill:#cccccc;"/>
<rect x="0.000000" y="0.000000" width="199.000000" height="155.000000" rx="0" ry="0" style="stroke:none;fill:#ffffff;"/>
</a>
<text x="10.000000" y="7.000000" font-family="Arial" font-size="7"></text>
<rect x="33.000000" y="67.000000" width="24.000000" height="24.000000" rx="0" ry="0" style="stroke:none;fill:#cccccc;"/>
<rect x="32.000000" y="66.000000" width="24.000000" height="24.000000" rx="0" ry="0" style="stroke:none;fill:#47945E;"/>
<text x="44.000000" y="80.000000" font-family="Arial" font-size="7" text-anchor="middle" fill="#FFFFFF">l</text>
<circle cx="34.000000" cy="68.000000" r="1"/>
<line x1="29.000000" y1="77.000000" x2="32.000000" y2="78.000000"  transform="rotate(0.000000,32.000000,78.000000)" style="stroke: black; stroke-width:0.25;"/>
<line x1="29.000000" y1="79.000000" x2="32.000000" y2="78.000000"  transform="rotate(0.000000,32.000000,78.000000)" style="stroke: black; stroke-width:0.25;"/>
<rect x="85.000000" y="35.000000" width="24.000000" height="24.000000" rx="0" ry="0" style="stroke:none;fill:#cccccc;"/>
<rect x="84.000000" y="34.000000" width="24.000000" height="24.000000" rx="0" ry="0" style="stroke:none;fill:#f44800;"/>
<text x="96.000000" y="48.000000" font-family="Arial" font-size="7" text-anchor="middle" fill="#FFFFFF">10</text>
<circle cx="86.000000" cy="36.000000" r="1"/>
<line x1="75.000000" y1="25.000000" x2="75.000000" y2="67.000000"  style="stroke: black; stroke-linecap:round; stroke-width:0.25; stroke-dasharray:3,3;"/>
<line x1="75.000000" y1="67.000000" x2="117.000000" y2="67.000000"  style="stroke: black; stroke-linecap:round; stroke-width:0.25; stroke-dasharray:3,3;"/>
<line x1="117.000000" y1="67.000000" x2="117.000000" y2="25.000000"  style="stroke: black; stroke-linecap:round; stroke-width:0.25; stroke-dasharray:3,3;"/>
<line x1="75.000000" y1="25.000000" x2="80.000000" y2="25.000000"  style="stroke: black; stroke-linecap:round; stroke-width:0.25; stroke-dasharray:3,3;"/>
<line x1="117.000000" y1="25.000000" x2="117.000000" y2="25.000000"  style="stroke: black; stroke-linecap:round; stroke-width:0.25; stroke-dasharray:3,3;"/>
<text x="80.000000" y="27.000000" font-family="Arial" font-size="7">dc_filter_freq</text>
<rect x="65.000000" y="77.000000" width="24.000000" height="24.000000" rx="0" ry="0" style="stroke:none;fill:#cccccc;"/>
<rect x="64.000000" y="76.000000" width="24.000000" height="24.000000" rx="0" ry="0" style="stroke:none;fill:#47945E;"/>
<text x="76.000000" y="90.000000" font-family="Arial" font-size="7" text-anchor="middle" fill="#FFFFFF">l</text>
<circle cx="66.000000" cy="78.000000" r="1"/>
<rect x="65.000000" y="109.000000" width="24.000000" height="24.000000" rx="0" ry="0" style="stroke:none;fill:#cccccc;"/>
<rect x="64.000000" y="108.000000" width="24.000000" height="24.000000" rx="0" ry="0" style="stroke:none;fill:#f44800;"/>
<text x="76.000000" y="122.000000" font-family="Arial" font-size="7" text-anchor="middle" fill="#FFFFFF">20</text>
<circle cx="66.000000" cy="110.000000" r="1"/>
<rect x="105.000000" y="93.000000" width="24.000000" height="24.000000" rx="0" ry="0" style="stroke:none;fill:#cccccc;"/>
<rect x="104.000000" y="92.000000" width="24.000000" height="24.000000" rx="0" ry="0" style="stroke:none;fill:#4B71A1;"/>
<text x="116.000000" y="106.000000" font-family="Arial" font-size="7" text-anchor="middle" fill="#FFFFFF">/</text>
<circle cx="106.000000" cy="94.000000" r="1"/>
<line x1="101.000000" y1="99.000000" x2="104.000000" y2="100.000000"  transform="rotate(0.000000,104.000000,100.000000)" style="stroke: black; stroke-width:0.25;"/>
<line x1="101.000000" y1="101.000000" x2="104.000000" y2="100.000000"  transform="rotate(0.000000,104.000000,100.000000)" style="stroke: black; stroke-width:0.25;"/>
<line x1="101.000000" y1="107.000000" x2="104.000000" y2="108.000000"  transform="rotate(0.000000,104.000000,108.000000)" style="stroke: black; stroke-width:0.25;"/>
<line x1="101.000000" y1="109.000000" x2="104.000000" y2="108.000000"  transform="rotate(0.000000,104.000000,108.000000)" style="stroke: black; stroke-width:0.25;"/>
<rect x="145.000000" y="67.000000" width="24.000000" height="24.000000" rx="0" ry="0" style="stroke:none;fill:#cccccc;"/>
<rect x="144.000000" y="66.000000" width="24.000000" height="24.000000" rx="0" ry="0" style="stroke:none;fill:#4B71A1;"/>
<text x="156.000000" y="80.000000" font-family="Arial" font-size="7" text-anchor="middle" fill="#FFFFFF">pow</text>
<circle cx="146.000000" cy="68.000000" r="1"/>
<line x1="141.000000" y1="73.000000" x2="144.000000" y2="74.000000"  transform="rotate(0.000000,144.000000,74.000000)" style="stroke: black; stroke-width:0.25;"/>
<line x1="141.000000" y1="75.000000" x2="144.000000" y2="74.000000"  transform="rotate(0.000000,144.000000,74.000000)" style="stroke: black; stroke-width:0.25;"/>
<line x1="141.000000" y1="81.000000" x2="144.000000" y2="82.000000"  transform="rotate(0.000000,144.000000,82.000000)" style="stroke: black; stroke-width:0.25;"/>
<line x1="141.000000" y1="83.000000" x2="144.000000" y2="82.000000"  transform="rotate(0.000000,144.000000,82.000000)" style="stroke: black; stroke-width:0.25;"/>
<line x1="15.000000" y1="15.000000" x2="15.000000" y2="141.000000"  style="stroke: black; stroke-linecap:round; stroke-width:0.25; stroke-dasharray:3,3;"/>
<line x1="15.000000" y1="141.000000" x2="185.000000" y2="141.000000"  style="stroke: black; stroke-linecap:round; stroke-width:0.25; stroke-dasharray:3,3;"/>
<line x1="185.000000" y1="141.000000" x2="185.000000" y2="15.000000"  style="stroke: black; stroke-linecap:round; stroke-width:0.25; stroke-dasharray:3,3;"/>
<line x1="15.000000" y1="15.000000" x2="20.000000" y2="15.000000"  style="stroke: black; stroke-linecap:round; stroke-width:0.25; stroke-dasharray:3,3;"/>
<line x1="55.475000" y1="15.000000" x2="185.000000" y2="15.000000"  style="stroke: black; stroke-linecap:round; stroke-width:0.25; stroke-dasharray:3,3;"/>
<text x="20.000000" y="17.000000" font-family="Arial" font-size="7">db2linear</text>
<line x1="187.000000" y1="77.000000" x2="190.000000" y2="78.000000"  transform="rotate(0.000000,190.000000,78.000000)" style="stroke: black; stroke-width:0.25;"/>
<line x1="187.000000" y1="79.000000" x2="190.000000" y2="78.000000"  transform="rotate(0.000000,190.000000,78.000000)" style="stroke: black; stroke-width:0.25;"/>
<line x1="10.000000" y1="78.000000" x2="20.000000" y2="78.000000"  style="stroke:black; stroke-linecap:round; stroke-width:0.25;"/>
<line x1="20.000000" y1="78.000000" x2="24.000000" y2="78.000000"  style="stroke:black; stroke-linecap:round; stroke-width:0.25;"/>
<line x1="24.000000" y1="78.000000" x2="28.000000" y2="78.000000"  style="stroke:black; stroke-linecap:round; stroke-width:0.25;"/>
<line x1="28.000000" y1="78.000000" x2="28.000000" y2="78.000000"  style="stroke:black; stroke-linecap:round; stroke-width:0.25;"/>
<line x1="28.000000" y1="78.000000" x2="32.000000" y2="78.000000"  style="stroke:black; stroke-linecap:round; stroke-width:0.25;"/>
<line x1="88.000000" y1="88.000000" x2="92.000000" y2="88.000000"  style="stroke:black; stroke-linecap:round; stroke-width:0.25;"/>
<line x1="88.000000" y1="120.000000" x2="92.000000" y2="120.000000"  style="stroke:black; stroke-linecap:round; stroke-width:0.25;"/>
<line x1="92.000000" y1="88.000000" x2="100.000000" y2="88.000000"  style="stroke:black; stroke-linecap:round; stroke-width:0.25;"/>
<line x1="92.000000" y1="108.000000" x2="100.000000" y2="108.000000"  style="stroke:black; stroke-linecap:round; stroke-width:0.25;"/>
<line x1="92.000000" y1="120.000000" x2="92.000000" y2="108.000000"  style="stroke:black; stroke-linecap:round; stroke-width:0.25;"/>
<line x1="92.000000" y1="120.000000" x2="92.000000" y2="120.000000"  style="stroke:black; stroke-linecap:round; stroke-width:0.25;"/>
<line x1="100.000000" y1="88.000000" x2="100.000000" y2="100.000000"  style="stroke:black; stroke-linecap:round; stroke-width:0.25;"/>
<line x1="100.000000" y1="100.000000" x2="100.000000" y2="100.000000"  style="stroke:black; stroke-linecap:round; stroke-width:0.25;"/>
<line x1="100.000000" y1="100.000000" x2="104.000000" y2="100.000000"  style="stroke:black; stroke-linecap:round; stroke-width:0.25;"/>
<line x1="100.000000" y1="108.000000" x2="104.000000" y2="108.000000"  style="stroke:black; stroke-linecap:round; stroke-width:0.25;"/>
<line x1="108.000000" y1="46.000000" x2="112.000000" y2="46.000000"  style="stroke:black; stroke-linecap:round; stroke-width:0.25;"/>
<line x1="112.000000" y1="46.000000" x2="122.000000" y2="46.000000"  style="stroke:black; stroke-linecap:round; stroke-width:0.25;"/>
<line x1="122.000000" y1="46.000000" x2="132.000000" y2="46.000000"  style="stroke:black; stroke-linecap:round; stroke-width:0.25;"/>
<line x1="128.000000" y1="104.000000" x2="132.000000" y2="104.000000"  style="stroke:black; stroke-linecap:round; stroke-width:0.25;"/>
<line x1="132.000000" y1="46.000000" x2="140.000000" y2="46.000000"  style="stroke:black; stroke-linecap:round; stroke-width:0.25;"/>
<line x1="132.000000" y1="82.000000" x2="140.000000" y2="82.000000"  style="stroke:black; stroke-linecap:round; stroke-width:0.25;"/>
<line x1="132.000000" y1="104.000000" x2="132.000000" y2="82.000000"  style="stroke:black; stroke-linecap:round; stroke-width:0.25;"/>
<line x1="132.000000" y1="104.000000" x2="132.000000" y2="104.000000"  style="stroke:black; stroke-linecap:round; stroke-width:0.25;"/>
<line x1="140.000000" y1="46.000000" x2="140.000000" y2="74.000000"  style="stroke:black; stroke-linecap:round; stroke-width:0.25;"/>
<line x1="140.000000" y1="74.000000" x2="140.000000" y2="74.000000"  style="stroke:black; stroke-linecap:round; stroke-width:0.25;"/>
<line x1="140.000000" y1="74.000000" x2="144.000000" y2="74.000000"  style="stroke:black; stroke-linecap:round; stroke-width:0.25;"/>
<line x1="140.000000" y1="82.000000" x2="144.000000" y2="82.000000"  style="stroke:black; stroke-linecap:round; stroke-width:0.25;"/>
<line x1="168.000000" y1="78.000000" x2="172.000000" y2="78.000000"  style="stroke:black; stroke-linecap:round; stroke-width:0.25;"/>
<line x1="172.000000" y1="78.000000" x2="172.000000" y2="78.000000"  style="stroke:black; stroke-linecap:round; stroke-width:0.25;"/>
<line x1="172.000000" y1="78.000000" x2="176.000000" y2="78.000000"  style="stroke:black; stroke-linecap:round; stroke-width:0.25;"/>
<line x1="176.000000" y1="78.000000" x2="180.000000" y2="78.000000"  style="stroke:black; stroke-linecap:round; stroke-width:0.25;"/>
<line x1="180.000000" y1="78.000000" x2="190.000000" y2="78.000000"  style="stroke:black; stroke-linecap:round; stroke-width:0.25;"/>
</svg>
