<?xml version="1.0"?>
<svg xmlns="http://www.w3.org/2000/svg" xmlns:xlink="http://www.w3.org/1999/xlink" viewBox="0 0 504.300000 176.000000" width="252.150000mm" height="88.000000mm" version="1.1">
<a xlink:href="rawgatesig-0x6000c435b060.svg">
<rect x="1.000000" y="1.000000" width="503.300000" height="175.000000" rx="0" ry="0" style="stroke:none;fill:#cccccc;"/>
<rect x="0.000000" y="0.000000" width="503.300000" height="175.000000" rx="0" ry="0" style="stroke:none;fill:#ffffff;"/>
</a>
<text x="10.000000" y="7.000000" font-family="Arial" font-size="7"></text>
<rect x="217.150000" y="35.000000" width="24.000000" height="24.000000" rx="0" ry="0" style="stroke:none;fill:#cccccc;"/>
<rect x="216.150000" y="34.000000" width="24.000000" height="24.000000" rx="0" ry="0" style="stroke:none;fill:#f44800;"/>
<text x="228.150000" y="48.000000" font-family="Arial" font-size="7" text-anchor="middle" fill="#FFFFFF">10</text>
<circle cx="218.150000" cy="36.000000" r="1"/>
<line x1="207.150000" y1="25.000000" x2="207.150000" y2="67.000000"  style="stroke: black; stroke-linecap:round; stroke-width:0.25; stroke-dasharray:3,3;"/>
<line x1="207.150000" y1="67.000000" x2="249.150000" y2="67.000000"  style="stroke: black; stroke-linecap:round; stroke-width:0.25; stroke-dasharray:3,3;"/>
<line x1="249.150000" y1="67.000000" x2="249.150000" y2="25.000000"  style="stroke: black; stroke-linecap:round; stroke-width:0.25; stroke-dasharray:3,3;"/>
<line x1="207.150000" y1="25.000000" x2="212.150000" y2="25.000000"  style="stroke: black; stroke-linecap:round; stroke-width:0.25; stroke-dasharray:3,3;"/>
<line x1="249.150000" y1="25.000000" x2="249.150000" y2="25.000000"  style="stroke: black; stroke-linecap:round; stroke-width:0.25; stroke-dasharray:3,3;"/>
<text x="212.150000" y="27.000000" font-family="Arial" font-size="7">dc_filter_freq</text>
<rect x="35.000000" y="87.000000" width="348.300000" height="24.000000" rx="0" ry="0" style="stroke:none;fill:#cccccc;"/>
<rect x="34.000000" y="86.000000" width="348.300000" height="24.000000" rx="0" ry="0" style="stroke:none;fill:#477881;"/>
<text x="208.150000" y="100.000000" font-family="Arial" font-size="7" text-anchor="middle" fill="#FFFFFF">vslider(v:soundsgood/t:expert/h:gate/gate threshold, -90.0f, -90.0f, 0.0f, 1.0f)</text>
<circle cx="36.000000" cy="88.000000" r="1"/>
<line x1="25.000000" y1="77.000000" x2="25.000000" y2="119.000000"  style="stroke: black; stroke-linecap:round; stroke-width:0.25; stroke-dasharray:3,3;"/>
<line x1="25.000000" y1="119.000000" x2="391.300000" y2="119.000000"  style="stroke: black; stroke-linecap:round; stroke-width:0.25; stroke-dasharray:3,3;"/>
<line x1="391.300000" y1="119.000000" x2="391.300000" y2="77.000000"  style="stroke: black; stroke-linecap:round; stroke-width:0.25; stroke-dasharray:3,3;"/>
<line x1="25.000000" y1="77.000000" x2="30.000000" y2="77.000000"  style="stroke: black; stroke-linecap:round; stroke-width:0.25; stroke-dasharray:3,3;"/>
<line x1="71.925000" y1="77.000000" x2="391.300000" y2="77.000000"  style="stroke: black; stroke-linecap:round; stroke-width:0.25; stroke-dasharray:3,3;"/>
<text x="30.000000" y="79.000000" font-family="Arial" font-size="7">gate_thresh</text>
<rect x="197.150000" y="129.000000" width="24.000000" height="24.000000" rx="0" ry="0" style="stroke:none;fill:#cccccc;"/>
<rect x="196.150000" y="128.000000" width="24.000000" height="24.000000" rx="0" ry="0" style="stroke:none;fill:#f44800;"/>
<text x="208.150000" y="142.000000" font-family="Arial" font-size="7" text-anchor="middle" fill="#FFFFFF">20</text>
<circle cx="198.150000" cy="130.000000" r="1"/>
<rect x="409.300000" y="103.000000" width="24.000000" height="24.000000" rx="0" ry="0" style="stroke:none;fill:#cccccc;"/>
<rect x="408.300000" y="102.000000" width="24.000000" height="24.000000" rx="0" ry="0" style="stroke:none;fill:#4B71A1;"/>
<text x="420.300000" y="116.000000" font-family="Arial" font-size="7" text-anchor="middle" fill="#FFFFFF">/</text>
<circle cx="410.300000" cy="104.000000" r="1"/>
<line x1="405.300000" y1="109.000000" x2="408.300000" y2="110.000000"  transform="rotate(0.000000,408.300000,110.000000)" style="stroke: black; stroke-width:0.25;"/>
<line x1="405.300000" y1="111.000000" x2="408.300000" y2="110.000000"  transform="rotate(0.000000,408.300000,110.000000)" style="stroke: black; stroke-width:0.25;"/>
<line x1="405.300000" y1="117.000000" x2="408.300000" y2="118.000000"  transform="rotate(0.000000,408.300000,118.000000)" style="stroke: black; stroke-width:0.25;"/>
<line x1="405.300000" y1="119.000000" x2="408.300000" y2="118.000000"  transform="rotate(0.000000,408.300000,118.000000)" style="stroke: black; stroke-width:0.25;"/>
<rect x="449.300000" y="77.000000" width="24.000000" height="24.000000" rx="0" ry="0" style="stroke:none;fill:#cccccc;"/>
<rect x="448.300000" y="76.000000" width="24.000000" height="24.000000" rx="0" ry="0" style="stroke:none;fill:#4B71A1;"/>
<text x="460.300000" y="90.000000" font-family="Arial" font-size="7" text-anchor="middle" fill="#FFFFFF">pow</text>
<circle cx="450.300000" cy="78.000000" r="1"/>
<line x1="445.300000" y1="83.000000" x2="448.300000" y2="84.000000"  transform="rotate(0.000000,448.300000,84.000000)" style="stroke: black; stroke-width:0.25;"/>
<line x1="445.300000" y1="85.000000" x2="448.300000" y2="84.000000"  transform="rotate(0.000000,448.300000,84.000000)" style="stroke: black; stroke-width:0.25;"/>
<line x1="445.300000" y1="91.000000" x2="448.300000" y2="92.000000"  transform="rotate(0.000000,448.300000,92.000000)" style="stroke: black; stroke-width:0.25;"/>
<line x1="445.300000" y1="93.000000" x2="448.300000" y2="92.000000"  transform="rotate(0.000000,448.300000,92.000000)" style="stroke: black; stroke-width:0.25;"/>
<line x1="15.000000" y1="15.000000" x2="15.000000" y2="161.000000"  style="stroke: black; stroke-linecap:round; stroke-width:0.25; stroke-dasharray:3,3;"/>
<line x1="15.000000" y1="161.000000" x2="489.300000" y2="161.000000"  style="stroke: black; stroke-linecap:round; stroke-width:0.25; stroke-dasharray:3,3;"/>
<line x1="489.300000" y1="161.000000" x2="489.300000" y2="15.000000"  style="stroke: black; stroke-linecap:round; stroke-width:0.25; stroke-dasharray:3,3;"/>
<line x1="15.000000" y1="15.000000" x2="20.000000" y2="15.000000"  style="stroke: black; stroke-linecap:round; stroke-width:0.25; stroke-dasharray:3,3;"/>
<line x1="119.975000" y1="15.000000" x2="489.300000" y2="15.000000"  style="stroke: black; stroke-linecap:round; stroke-width:0.25; stroke-dasharray:3,3;"/>
<text x="20.000000" y="17.000000" font-family="Arial" font-size="7">db2linear(vsl... 0.0f, 1.0f))</text>
<line x1="491.300000" y1="87.000000" x2="494.300000" y2="88.000000"  transform="rotate(0.000000,494.300000,88.000000)" style="stroke: black; stroke-width:0.25;"/>
<line x1="491.300000" y1="89.000000" x2="494.300000" y2="88.000000"  transform="rotate(0.000000,494.300000,88.000000)" style="stroke: black; stroke-width:0.25;"/>
<line x1="220.150000" y1="140.000000" x2="224.150000" y2="140.000000"  style="stroke:black; stroke-linecap:round; stroke-width:0.25;"/>
<line x1="224.150000" y1="140.000000" x2="396.300000" y2="140.000000"  style="stroke:black; stroke-linecap:round; stroke-width:0.25;"/>
<line x1="240.150000" y1="46.000000" x2="244.150000" y2="46.000000"  style="stroke:black; stroke-linecap:round; stroke-width:0.25;"/>
<line x1="244.150000" y1="46.000000" x2="254.150000" y2="46.000000"  style="stroke:black; stroke-linecap:round; stroke-width:0.25;"/>
<line x1="254.150000" y1="46.000000" x2="436.300000" y2="46.000000"  style="stroke:black; stroke-linecap:round; stroke-width:0.25;"/>
<line x1="382.300000" y1="98.000000" x2="386.300000" y2="98.000000"  style="stroke:black; stroke-linecap:round; stroke-width:0.25;"/>
<line x1="386.300000" y1="98.000000" x2="396.300000" y2="98.000000"  style="stroke:black; stroke-linecap:round; stroke-width:0.25;"/>
<line x1="396.300000" y1="98.000000" x2="404.300000" y2="98.000000"  style="stroke:black; stroke-linecap:round; stroke-width:0.25;"/>
<line x1="396.300000" y1="118.000000" x2="404.300000" y2="118.000000"  style="stroke:black; stroke-linecap:round; stroke-width:0.25;"/>
<line x1="396.300000" y1="140.000000" x2="396.300000" y2="118.000000"  style="stroke:black; stroke-linecap:round; stroke-width:0.25;"/>
<line x1="396.300000" y1="140.000000" x2="396.300000" y2="140.000000"  style="stroke:black; stroke-linecap:round; stroke-width:0.25;"/>
<line x1="404.300000" y1="98.000000" x2="404.300000" y2="110.000000"  style="stroke:black; stroke-linecap:round; stroke-width:0.25;"/>
<line x1="404.300000" y1="110.000000" x2="404.300000" y2="110.000000"  style="stroke:black; stroke-linecap:round; stroke-width:0.25;"/>
<line x1="404.300000" y1="110.000000" x2="408.300000" y2="110.000000"  style="stroke:black; stroke-linecap:round; stroke-width:0.25;"/>
<line x1="404.300000" y1="118.000000" x2="408.300000" y2="118.000000"  style="stroke:black; stroke-linecap:round; stroke-width:0.25;"/>
<line x1="432.300000" y1="114.000000" x2="436.300000" y2="114.000000"  style="stroke:black; stroke-linecap:round; stroke-width:0.25;"/>
<line x1="436.300000" y1="46.000000" x2="444.300000" y2="46.000000"  style="stroke:black; stroke-linecap:round; stroke-width:0.25;"/>
<line x1="436.300000" y1="92.000000" x2="444.300000" y2="92.000000"  style="stroke:black; stroke-linecap:round; stroke-width:0.25;"/>
<line x1="436.300000" y1="114.000000" x2="436.300000" y2="92.000000"  style="stroke:black; stroke-linecap:round; stroke-width:0.25;"/>
<line x1="436.300000" y1="114.000000" x2="436.300000" y2="114.000000"  style="stroke:black; stroke-linecap:round; stroke-width:0.25;"/>
<line x1="444.300000" y1="46.000000" x2="444.300000" y2="84.000000"  style="stroke:black; stroke-linecap:round; stroke-width:0.25;"/>
<line x1="444.300000" y1="84.000000" x2="444.300000" y2="84.000000"  style="stroke:black; stroke-linecap:round; stroke-width:0.25;"/>
<line x1="444.300000" y1="84.000000" x2="448.300000" y2="84.000000"  style="stroke:black; stroke-linecap:round; stroke-width:0.25;"/>
<line x1="444.300000" y1="92.000000" x2="448.300000" y2="92.000000"  style="stroke:black; stroke-linecap:round; stroke-width:0.25;"/>
<line x1="472.300000" y1="88.000000" x2="476.300000" y2="88.000000"  style="stroke:black; stroke-linecap:round; stroke-width:0.25;"/>
<line x1="476.300000" y1="88.000000" x2="476.300000" y2="88.000000"  style="stroke:black; stroke-linecap:round; stroke-width:0.25;"/>
<line x1="476.300000" y1="88.000000" x2="480.300000" y2="88.000000"  style="stroke:black; stroke-linecap:round; stroke-width:0.25;"/>
<line x1="480.300000" y1="88.000000" x2="484.300000" y2="88.000000"  style="stroke:black; stroke-linecap:round; stroke-width:0.25;"/>
<line x1="484.300000" y1="88.000000" x2="494.300000" y2="88.000000"  style="stroke:black; stroke-linecap:round; stroke-width:0.25;"/>
</svg>
