<?xml version="1.0"?>
<svg xmlns="http://www.w3.org/2000/svg" xmlns:xlink="http://www.w3.org/1999/xlink" viewBox="0 0 319.700000 80.000000" width="159.850000mm" height="40.000000mm" version="1.1">
<a xlink:href="dc-0x60000038d0e0.svg">
<rect x="1.000000" y="1.000000" width="318.700000" height="79.000000" rx="0" ry="0" style="stroke:none;fill:#cccccc;"/>
<rect x="0.000000" y="0.000000" width="318.700000" height="79.000000" rx="0" ry="0" style="stroke:none;fill:#ffffff;"/>
</a>
<text x="10.000000" y="7.000000" font-family="Arial" font-size="7"></text>
<a xlink:href="b0-0x6000003ba9a0.svg">
<rect x="41.000000" y="33.000000" width="24.000000" height="24.000000" rx="0" ry="0" style="stroke:none;fill:#cccccc;"/>
<rect x="40.000000" y="32.000000" width="24.000000" height="24.000000" rx="0" ry="0" style="stroke:none;fill:#003366;"/>
</a>
<a xlink:href="b0-0x6000003ba9a0.svg">
<text x="52.000000" y="46.000000" font-family="Arial" font-size="7" text-anchor="middle" fill="#FFFFFF">b0</text>
</a>
<circle cx="42.000000" cy="34.000000" r="1"/>
<rect x="81.000000" y="29.000000" width="24.000000" height="24.000000" rx="0" ry="0" style="stroke:none;fill:#cccccc;"/>
<rect x="80.000000" y="28.000000" width="24.000000" height="24.000000" rx="0" ry="0" style="stroke:none;fill:#4B71A1;"/>
<text x="92.000000" y="42.000000" font-family="Arial" font-size="7" text-anchor="middle" fill="#FFFFFF">*</text>
<circle cx="82.000000" cy="30.000000" r="1"/>
<line x1="77.000000" y1="35.000000" x2="80.000000" y2="36.000000"  transform="rotate(0.000000,80.000000,36.000000)" style="stroke: black; stroke-width:0.25;"/>
<line x1="77.000000" y1="37.000000" x2="80.000000" y2="36.000000"  transform="rotate(0.000000,80.000000,36.000000)" style="stroke: black; stroke-width:0.25;"/>
<line x1="77.000000" y1="43.000000" x2="80.000000" y2="44.000000"  transform="rotate(0.000000,80.000000,44.000000)" style="stroke: black; stroke-width:0.25;"/>
<line x1="77.000000" y1="45.000000" x2="80.000000" y2="44.000000"  transform="rotate(0.000000,80.000000,44.000000)" style="stroke: black; stroke-width:0.25;"/>
<a xlink:href="zero-0x600000394360.svg">
<rect x="113.000000" y="29.000000" width="38.700000" height="24.000000" rx="0" ry="0" style="stroke:none;fill:#cccccc;"/>
<rect x="112.000000" y="28.000000" width="38.700000" height="24.000000" rx="0" ry="0" style="stroke:none;fill:#003366;"/>
</a>
<a xlink:href="zero-0x600000394360.svg">
<text x="131.350000" y="42.000000" font-family="Arial" font-size="7" text-anchor="middle" fill="#FFFFFF">zero(1)</text>
</a>
<circle cx="114.000000" cy="30.000000" r="1"/>
<line x1="109.000000" y1="39.000000" x2="112.000000" y2="40.000000"  transform="rotate(0.000000,112.000000,40.000000)" style="stroke: black; stroke-width:0.25;"/>
<line x1="109.000000" y1="41.000000" x2="112.000000" y2="40.000000"  transform="rotate(0.000000,112.000000,40.000000)" style="stroke: black; stroke-width:0.25;"/>
<a xlink:href="pole-0x600000388f30.svg">
<rect x="159.700000" y="29.000000" width="129.000000" height="24.000000" rx="0" ry="0" style="stroke:none;fill:#cccccc;"/>
<rect x="158.700000" y="28.000000" width="129.000000" height="24.000000" rx="0" ry="0" style="stroke:none;fill:#003366;"/>
</a>
<a xlink:href="pole-0x600000388f30.svg">
<text x="223.200000" y="42.000000" font-family="Arial" font-size="7" text-anchor="middle" fill="#FFFFFF">pole((1,(31.4... +) : /) : *)</text>
</a>
<circle cx="160.700000" cy="30.000000" r="1"/>
<line x1="155.700000" y1="39.000000" x2="158.700000" y2="40.000000"  transform="rotate(0.000000,158.700000,40.000000)" style="stroke: black; stroke-width:0.25;"/>
<line x1="155.700000" y1="41.000000" x2="158.700000" y2="40.000000"  transform="rotate(0.000000,158.700000,40.000000)" style="stroke: black; stroke-width:0.25;"/>
<line x1="15.000000" y1="15.000000" x2="15.000000" y2="65.000000"  style="stroke: black; stroke-linecap:round; stroke-width:0.25; stroke-dasharray:3,3;"/>
<line x1="15.000000" y1="65.000000" x2="304.700000" y2="65.000000"  style="stroke: black; stroke-linecap:round; stroke-width:0.25; stroke-dasharray:3,3;"/>
<line x1="304.700000" y1="65.000000" x2="304.700000" y2="15.000000"  style="stroke: black; stroke-linecap:round; stroke-width:0.25; stroke-dasharray:3,3;"/>
<line x1="15.000000" y1="15.000000" x2="20.000000" y2="15.000000"  style="stroke: black; stroke-linecap:round; stroke-width:0.25; stroke-dasharray:3,3;"/>
<line x1="84.500000" y1="15.000000" x2="304.700000" y2="15.000000"  style="stroke: black; stroke-linecap:round; stroke-width:0.25; stroke-dasharray:3,3;"/>
<text x="20.000000" y="17.000000" font-family="Arial" font-size="7">dcblockerat(10.0f)</text>
<line x1="306.700000" y1="39.000000" x2="309.700000" y2="40.000000"  transform="rotate(0.000000,309.700000,40.000000)" style="stroke: black; stroke-width:0.25;"/>
<line x1="306.700000" y1="41.000000" x2="309.700000" y2="40.000000"  transform="rotate(0.000000,309.700000,40.000000)" style="stroke: black; stroke-width:0.25;"/>
<line x1="10.000000" y1="40.000000" x2="20.000000" y2="40.000000"  style="stroke:black; stroke-linecap:round; stroke-width:0.25;"/>
<line x1="20.000000" y1="40.000000" x2="24.000000" y2="40.000000"  style="stroke:black; stroke-linecap:round; stroke-width:0.25;"/>
<line x1="24.000000" y1="40.000000" x2="28.000000" y2="40.000000"  style="stroke:black; stroke-linecap:round; stroke-width:0.25;"/>
<line x1="28.000000" y1="24.000000" x2="36.000000" y2="24.000000"  style="stroke:black; stroke-linecap:round; stroke-width:0.25;"/>
<line x1="28.000000" y1="40.000000" x2="28.000000" y2="24.000000"  style="stroke:black; stroke-linecap:round; stroke-width:0.25;"/>
<line x1="28.000000" y1="40.000000" x2="28.000000" y2="40.000000"  style="stroke:black; stroke-linecap:round; stroke-width:0.25;"/>
<line x1="36.000000" y1="24.000000" x2="52.000000" y2="24.000000"  style="stroke:black; stroke-linecap:round; stroke-width:0.25;"/>
<line x1="52.000000" y1="24.000000" x2="68.000000" y2="24.000000"  style="stroke:black; stroke-linecap:round; stroke-width:0.25;"/>
<line x1="64.000000" y1="44.000000" x2="68.000000" y2="44.000000"  style="stroke:black; stroke-linecap:round; stroke-width:0.25;"/>
<line x1="68.000000" y1="24.000000" x2="76.000000" y2="24.000000"  style="stroke:black; stroke-linecap:round; stroke-width:0.25;"/>
<line x1="68.000000" y1="44.000000" x2="76.000000" y2="44.000000"  style="stroke:black; stroke-linecap:round; stroke-width:0.25;"/>
<line x1="76.000000" y1="24.000000" x2="76.000000" y2="36.000000"  style="stroke:black; stroke-linecap:round; stroke-width:0.25;"/>
<line x1="76.000000" y1="36.000000" x2="76.000000" y2="36.000000"  style="stroke:black; stroke-linecap:round; stroke-width:0.25;"/>
<line x1="76.000000" y1="36.000000" x2="80.000000" y2="36.000000"  style="stroke:black; stroke-linecap:round; stroke-width:0.25;"/>
<line x1="76.000000" y1="44.000000" x2="80.000000" y2="44.000000"  style="stroke:black; stroke-linecap:round; stroke-width:0.25;"/>
<line x1="104.000000" y1="40.000000" x2="108.000000" y2="40.000000"  style="stroke:black; stroke-linecap:round; stroke-width:0.25;"/>
<line x1="108.000000" y1="40.000000" x2="108.000000" y2="40.000000"  style="stroke:black; stroke-linecap:round; stroke-width:0.25;"/>
<line x1="108.000000" y1="40.000000" x2="112.000000" y2="40.000000"  style="stroke:black; stroke-linecap:round; stroke-width:0.25;"/>
<line x1="150.700000" y1="40.000000" x2="154.700000" y2="40.000000"  style="stroke:black; stroke-linecap:round; stroke-width:0.25;"/>
<line x1="154.700000" y1="40.000000" x2="154.700000" y2="40.000000"  style="stroke:black; stroke-linecap:round; stroke-width:0.25;"/>
<line x1="154.700000" y1="40.000000" x2="158.700000" y2="40.000000"  style="stroke:black; stroke-linecap:round; stroke-width:0.25;"/>
<line x1="287.700000" y1="40.000000" x2="291.700000" y2="40.000000"  style="stroke:black; stroke-linecap:round; stroke-width:0.25;"/>
<line x1="291.700000" y1="40.000000" x2="291.700000" y2="40.000000"  style="stroke:black; stroke-linecap:round; stroke-width:0.25;"/>
<line x1="291.700000" y1="40.000000" x2="295.700000" y2="40.000000"  style="stroke:black; stroke-linecap:round; stroke-width:0.25;"/>
<line x1="295.700000" y1="40.000000" x2="299.700000" y2="40.000000"  style="stroke:black; stroke-linecap:round; stroke-width:0.25;"/>
<line x1="299.700000" y1="40.000000" x2="309.700000" y2="40.000000"  style="stroke:black; stroke-linecap:round; stroke-width:0.25;"/>
</svg>
