<?xml version="1.0"?>
<svg xmlns="http://www.w3.org/2000/svg" xmlns:xlink="http://www.w3.org/1999/xlink" viewBox="0 0 503.900000 104.000000" width="251.950000mm" height="52.000000mm" version="1.1">
<a xlink:href="interpolate-0x60013c0ef570.svg">
<rect x="1.000000" y="1.000000" width="502.900000" height="103.000000" rx="0" ry="0" style="stroke:none;fill:#cccccc;"/>
<rect x="0.000000" y="0.000000" width="502.900000" height="103.000000" rx="0" ry="0" style="stroke:none;fill:#ffffff;"/>
</a>
<text x="10.000000" y="7.000000" font-family="Arial" font-size="7"></text>
<rect x="25.000000" y="25.000000" width="374.100000" height="24.000000" rx="0" ry="0" style="stroke:none;fill:#cccccc;"/>
<rect x="24.000000" y="24.000000" width="374.100000" height="24.000000" rx="0" ry="0" style="stroke:none;fill:#477881;"/>
<text x="211.050000" y="38.000000" font-family="Arial" font-size="7" text-anchor="middle" fill="#FFFFFF">vslider(v:soundsgood/t:expert/h:kneecomp/kneecomp dry/wet, 100.0f, 0.0f, 100.0f, 1.0f)</text>
<circle cx="26.000000" cy="26.000000" r="1"/>
<rect x="199.150000" y="57.000000" width="25.800000" height="24.000000" rx="0" ry="0" style="stroke:none;fill:#cccccc;"/>
<rect x="198.150000" y="56.000000" width="25.800000" height="24.000000" rx="0" ry="0" style="stroke:none;fill:#f44800;"/>
<text x="211.050000" y="70.000000" font-family="Arial" font-size="7" text-anchor="middle" fill="#FFFFFF">0.01</text>
<circle cx="200.150000" cy="58.000000" r="1"/>
<rect x="415.100000" y="41.000000" width="24.000000" height="24.000000" rx="0" ry="0" style="stroke:none;fill:#cccccc;"/>
<rect x="414.100000" y="40.000000" width="24.000000" height="24.000000" rx="0" ry="0" style="stroke:none;fill:#4B71A1;"/>
<text x="426.100000" y="54.000000" font-family="Arial" font-size="7" text-anchor="middle" fill="#FFFFFF">*</text>
<circle cx="416.100000" cy="42.000000" r="1"/>
<line x1="411.100000" y1="47.000000" x2="414.100000" y2="48.000000"  transform="rotate(0.000000,414.100000,48.000000)" style="stroke: black; stroke-width:0.25;"/>
<line x1="411.100000" y1="49.000000" x2="414.100000" y2="48.000000"  transform="rotate(0.000000,414.100000,48.000000)" style="stroke: black; stroke-width:0.25;"/>
<line x1="411.100000" y1="55.000000" x2="414.100000" y2="56.000000"  transform="rotate(0.000000,414.100000,56.000000)" style="stroke: black; stroke-width:0.25;"/>
<line x1="411.100000" y1="57.000000" x2="414.100000" y2="56.000000"  transform="rotate(0.000000,414.100000,56.000000)" style="stroke: black; stroke-width:0.25;"/>
<a xlink:href="smoo-0x6000b036c5a0.svg">
<rect x="447.100000" y="41.000000" width="25.800000" height="24.000000" rx="0" ry="0" style="stroke:none;fill:#cccccc;"/>
<rect x="446.100000" y="40.000000" width="25.800000" height="24.000000" rx="0" ry="0" style="stroke:none;fill:#003366;"/>
</a>
<a xlink:href="smoo-0x6000b036c5a0.svg">
<text x="459.000000" y="54.000000" font-family="Arial" font-size="7" text-anchor="middle" fill="#FFFFFF">smoo</text>
</a>
<circle cx="448.100000" cy="42.000000" r="1"/>
<line x1="443.100000" y1="51.000000" x2="446.100000" y2="52.000000"  transform="rotate(0.000000,446.100000,52.000000)" style="stroke: black; stroke-width:0.25;"/>
<line x1="443.100000" y1="53.000000" x2="446.100000" y2="52.000000"  transform="rotate(0.000000,446.100000,52.000000)" style="stroke: black; stroke-width:0.25;"/>
<line x1="15.000000" y1="15.000000" x2="15.000000" y2="89.000000"  style="stroke: black; stroke-linecap:round; stroke-width:0.25; stroke-dasharray:3,3;"/>
<line x1="15.000000" y1="89.000000" x2="488.900000" y2="89.000000"  style="stroke: black; stroke-linecap:round; stroke-width:0.25; stroke-dasharray:3,3;"/>
<line x1="488.900000" y1="89.000000" x2="488.900000" y2="15.000000"  style="stroke: black; stroke-linecap:round; stroke-width:0.25; stroke-dasharray:3,3;"/>
<line x1="15.000000" y1="15.000000" x2="20.000000" y2="15.000000"  style="stroke: black; stroke-linecap:round; stroke-width:0.25; stroke-dasharray:3,3;"/>
<line x1="32.900000" y1="15.000000" x2="488.900000" y2="15.000000"  style="stroke: black; stroke-linecap:round; stroke-width:0.25; stroke-dasharray:3,3;"/>
<text x="20.000000" y="17.000000" font-family="Arial" font-size="7">dw</text>
<line x1="490.900000" y1="51.000000" x2="493.900000" y2="52.000000"  transform="rotate(0.000000,493.900000,52.000000)" style="stroke: black; stroke-width:0.25;"/>
<line x1="490.900000" y1="53.000000" x2="493.900000" y2="52.000000"  transform="rotate(0.000000,493.900000,52.000000)" style="stroke: black; stroke-width:0.25;"/>
<line x1="223.950000" y1="68.000000" x2="227.950000" y2="68.000000"  style="stroke:black; stroke-linecap:round; stroke-width:0.25;"/>
<line x1="227.950000" y1="68.000000" x2="402.100000" y2="68.000000"  style="stroke:black; stroke-linecap:round; stroke-width:0.25;"/>
<line x1="398.100000" y1="36.000000" x2="402.100000" y2="36.000000"  style="stroke:black; stroke-linecap:round; stroke-width:0.25;"/>
<line x1="402.100000" y1="36.000000" x2="410.100000" y2="36.000000"  style="stroke:black; stroke-linecap:round; stroke-width:0.25;"/>
<line x1="402.100000" y1="56.000000" x2="410.100000" y2="56.000000"  style="stroke:black; stroke-linecap:round; stroke-width:0.25;"/>
<line x1="402.100000" y1="68.000000" x2="402.100000" y2="56.000000"  style="stroke:black; stroke-linecap:round; stroke-width:0.25;"/>
<line x1="402.100000" y1="68.000000" x2="402.100000" y2="68.000000"  style="stroke:black; stroke-linecap:round; stroke-width:0.25;"/>
<line x1="410.100000" y1="36.000000" x2="410.100000" y2="48.000000"  style="stroke:black; stroke-linecap:round; stroke-width:0.25;"/>
<line x1="410.100000" y1="48.000000" x2="410.100000" y2="48.000000"  style="stroke:black; stroke-linecap:round; stroke-width:0.25;"/>
<line x1="410.100000" y1="48.000000" x2="414.100000" y2="48.000000"  style="stroke:black; stroke-linecap:round; stroke-width:0.25;"/>
<line x1="410.100000" y1="56.000000" x2="414.100000" y2="56.000000"  style="stroke:black; stroke-linecap:round; stroke-width:0.25;"/>
<line x1="438.100000" y1="52.000000" x2="442.100000" y2="52.000000"  style="stroke:black; stroke-linecap:round; stroke-width:0.25;"/>
<line x1="442.100000" y1="52.000000" x2="442.100000" y2="52.000000"  style="stroke:black; stroke-linecap:round; stroke-width:0.25;"/>
<line x1="442.100000" y1="52.000000" x2="446.100000" y2="52.000000"  style="stroke:black; stroke-linecap:round; stroke-width:0.25;"/>
<line x1="471.900000" y1="52.000000" x2="475.900000" y2="52.000000"  style="stroke:black; stroke-linecap:round; stroke-width:0.25;"/>
<line x1="475.900000" y1="52.000000" x2="475.900000" y2="52.000000"  style="stroke:black; stroke-linecap:round; stroke-width:0.25;"/>
<line x1="475.900000" y1="52.000000" x2="479.900000" y2="52.000000"  style="stroke:black; stroke-linecap:round; stroke-width:0.25;"/>
<line x1="479.900000" y1="52.000000" x2="483.900000" y2="52.000000"  style="stroke:black; stroke-linecap:round; stroke-width:0.25;"/>
<line x1="483.900000" y1="52.000000" x2="493.900000" y2="52.000000"  style="stroke:black; stroke-linecap:round; stroke-width:0.25;"/>
</svg>
