<?xml version="1.0"?>
<svg xmlns="http://www.w3.org/2000/svg" xmlns:xlink="http://www.w3.org/1999/xlink" viewBox="0 0 499.200000 144.000000" width="249.600000mm" height="72.000000mm" version="1.1">
<a xlink:href="out-0x60015013ba80.svg">
<rect x="1.000000" y="1.000000" width="498.200000" height="143.000000" rx="0" ry="0" style="stroke:none;fill:#cccccc;"/>
<rect x="0.000000" y="0.000000" width="498.200000" height="143.000000" rx="0" ry="0" style="stroke:none;fill:#ffffff;"/>
</a>
<text x="10.000000" y="7.000000" font-family="Arial" font-size="7"></text>
<rect x="33.000000" y="61.000000" width="24.000000" height="24.000000" rx="0" ry="0" style="stroke:none;fill:#cccccc;"/>
<rect x="32.000000" y="60.000000" width="24.000000" height="24.000000" rx="0" ry="0" style="stroke:none;fill:#4B71A1;"/>
<text x="44.000000" y="74.000000" font-family="Arial" font-size="7" text-anchor="middle" fill="#FFFFFF">abs</text>
<circle cx="34.000000" cy="62.000000" r="1"/>
<line x1="29.000000" y1="71.000000" x2="32.000000" y2="72.000000"  transform="rotate(0.000000,32.000000,72.000000)" style="stroke: black; stroke-width:0.25;"/>
<line x1="29.000000" y1="73.000000" x2="32.000000" y2="72.000000"  transform="rotate(0.000000,32.000000,72.000000)" style="stroke: black; stroke-width:0.25;"/>
<a xlink:href="db2linear-0x60002c358e10.svg">
<rect x="73.000000" y="57.000000" width="64.500000" height="24.000000" rx="0" ry="0" style="stroke:none;fill:#cccccc;"/>
<rect x="72.000000" y="56.000000" width="64.500000" height="24.000000" rx="0" ry="0" style="stroke:none;fill:#003366;"/>
</a>
<a xlink:href="db2linear-0x60002c358e10.svg">
<text x="104.250000" y="70.000000" font-family="Arial" font-size="7" text-anchor="middle" fill="#FFFFFF">db2linear(-70)</text>
</a>
<circle cx="74.000000" cy="58.000000" r="1"/>
<rect x="153.500000" y="61.000000" width="24.000000" height="24.000000" rx="0" ry="0" style="stroke:none;fill:#cccccc;"/>
<rect x="152.500000" y="60.000000" width="24.000000" height="24.000000" rx="0" ry="0" style="stroke:none;fill:#4B71A1;"/>
<text x="164.500000" y="74.000000" font-family="Arial" font-size="7" text-anchor="middle" fill="#FFFFFF">max</text>
<circle cx="154.500000" cy="62.000000" r="1"/>
<line x1="149.500000" y1="67.000000" x2="152.500000" y2="68.000000"  transform="rotate(0.000000,152.500000,68.000000)" style="stroke: black; stroke-width:0.25;"/>
<line x1="149.500000" y1="69.000000" x2="152.500000" y2="68.000000"  transform="rotate(0.000000,152.500000,68.000000)" style="stroke: black; stroke-width:0.25;"/>
<line x1="149.500000" y1="75.000000" x2="152.500000" y2="76.000000"  transform="rotate(0.000000,152.500000,76.000000)" style="stroke: black; stroke-width:0.25;"/>
<line x1="149.500000" y1="77.000000" x2="152.500000" y2="76.000000"  transform="rotate(0.000000,152.500000,76.000000)" style="stroke: black; stroke-width:0.25;"/>
<a xlink:href="linear2db-0x6000180d3210.svg">
<rect x="185.500000" y="61.000000" width="38.700000" height="24.000000" rx="0" ry="0" style="stroke:none;fill:#cccccc;"/>
<rect x="184.500000" y="60.000000" width="38.700000" height="24.000000" rx="0" ry="0" style="stroke:none;fill:#003366;"/>
</a>
<a xlink:href="linear2db-0x6000180d3210.svg">
<text x="203.850000" y="74.000000" font-family="Arial" font-size="7" text-anchor="middle" fill="#FFFFFF">linear2db</text>
</a>
<circle cx="186.500000" cy="62.000000" r="1"/>
<line x1="181.500000" y1="71.000000" x2="184.500000" y2="72.000000"  transform="rotate(0.000000,184.500000,72.000000)" style="stroke: black; stroke-width:0.25;"/>
<line x1="181.500000" y1="73.000000" x2="184.500000" y2="72.000000"  transform="rotate(0.000000,184.500000,72.000000)" style="stroke: black; stroke-width:0.25;"/>
<rect x="240.200000" y="57.000000" width="24.000000" height="24.000000" rx="0" ry="0" style="stroke:none;fill:#cccccc;"/>
<rect x="239.200000" y="56.000000" width="24.000000" height="24.000000" rx="0" ry="0" style="stroke:none;fill:#f44800;"/>
<text x="251.200000" y="70.000000" font-family="Arial" font-size="7" text-anchor="middle" fill="#FFFFFF">10</text>
<circle cx="241.200000" cy="58.000000" r="1"/>
<rect x="290.200000" y="61.000000" width="24.000000" height="24.000000" rx="0" ry="0" style="stroke:none;fill:#cccccc;"/>
<rect x="289.200000" y="60.000000" width="24.000000" height="24.000000" rx="0" ry="0" style="stroke:none;fill:#4B71A1;"/>
<text x="301.200000" y="74.000000" font-family="Arial" font-size="7" text-anchor="middle" fill="#FFFFFF">min</text>
<circle cx="291.200000" cy="62.000000" r="1"/>
<line x1="286.200000" y1="67.000000" x2="289.200000" y2="68.000000"  transform="rotate(0.000000,289.200000,68.000000)" style="stroke: black; stroke-width:0.25;"/>
<line x1="286.200000" y1="69.000000" x2="289.200000" y2="68.000000"  transform="rotate(0.000000,289.200000,68.000000)" style="stroke: black; stroke-width:0.25;"/>
<line x1="286.200000" y1="75.000000" x2="289.200000" y2="76.000000"  transform="rotate(0.000000,289.200000,76.000000)" style="stroke: black; stroke-width:0.25;"/>
<line x1="286.200000" y1="77.000000" x2="289.200000" y2="76.000000"  transform="rotate(0.000000,289.200000,76.000000)" style="stroke: black; stroke-width:0.25;"/>
<line x1="280.200000" y1="51.000000" x2="280.200000" y2="93.000000"  style="stroke: black; stroke-linecap:round; stroke-width:0.25; stroke-dasharray:3,3;"/>
<line x1="280.200000" y1="93.000000" x2="322.200000" y2="93.000000"  style="stroke: black; stroke-linecap:round; stroke-width:0.25; stroke-dasharray:3,3;"/>
<line x1="322.200000" y1="93.000000" x2="322.200000" y2="51.000000"  style="stroke: black; stroke-linecap:round; stroke-width:0.25; stroke-dasharray:3,3;"/>
<line x1="280.200000" y1="51.000000" x2="285.200000" y2="51.000000"  style="stroke: black; stroke-linecap:round; stroke-width:0.25; stroke-dasharray:3,3;"/>
<line x1="322.200000" y1="51.000000" x2="322.200000" y2="51.000000"  style="stroke: black; stroke-linecap:round; stroke-width:0.25; stroke-dasharray:3,3;"/>
<text x="285.200000" y="53.000000" font-family="Arial" font-size="7">parallelMin(2)</text>
<rect x="388.200000" y="97.000000" width="24.000000" height="24.000000" rx="0" ry="0" style="stroke:none;fill:#cccccc;"/>
<rect x="387.200000" y="96.000000" width="24.000000" height="24.000000" rx="0" ry="0" style="stroke:none;fill:#4B71A1;"/>
<text x="399.200000" y="110.000000" font-family="Arial" font-size="7" text-anchor="middle" fill="#FFFFFF">max</text>
<circle cx="389.200000" cy="98.000000" r="1"/>
<line x1="384.200000" y1="103.000000" x2="387.200000" y2="104.000000"  transform="rotate(0.000000,387.200000,104.000000)" style="stroke: black; stroke-width:0.25;"/>
<line x1="384.200000" y1="105.000000" x2="387.200000" y2="104.000000"  transform="rotate(0.000000,387.200000,104.000000)" style="stroke: black; stroke-width:0.25;"/>
<line x1="384.200000" y1="111.000000" x2="387.200000" y2="112.000000"  transform="rotate(0.000000,387.200000,112.000000)" style="stroke: black; stroke-width:0.25;"/>
<line x1="384.200000" y1="113.000000" x2="387.200000" y2="112.000000"  transform="rotate(0.000000,387.200000,112.000000)" style="stroke: black; stroke-width:0.25;"/>
<rect x="428.200000" y="57.000000" width="24.000000" height="24.000000" rx="0" ry="0" style="stroke:none;fill:#cccccc;"/>
<rect x="427.200000" y="56.000000" width="24.000000" height="24.000000" rx="0" ry="0" style="stroke:none;fill:#f44800;"/>
<text x="439.200000" y="70.000000" font-family="Arial" font-size="7" text-anchor="middle" fill="#FFFFFF">80</text>
<circle cx="449.200000" cy="78.000000" r="1"/>
<a xlink:href="SR-0x6000003ba520.svg">
<rect x="428.200000" y="25.000000" width="24.000000" height="24.000000" rx="0" ry="0" style="stroke:none;fill:#cccccc;"/>
<rect x="427.200000" y="24.000000" width="24.000000" height="24.000000" rx="0" ry="0" style="stroke:none;fill:#003366;"/>
</a>
<a xlink:href="SR-0x6000003ba520.svg">
<text x="439.200000" y="38.000000" font-family="Arial" font-size="7" text-anchor="middle" fill="#FFFFFF">SR</text>
</a>
<circle cx="449.200000" cy="46.000000" r="1"/>
<rect x="388.200000" y="41.000000" width="24.000000" height="24.000000" rx="0" ry="0" style="stroke:none;fill:#cccccc;"/>
<rect x="387.200000" y="40.000000" width="24.000000" height="24.000000" rx="0" ry="0" style="stroke:none;fill:#4B71A1;"/>
<text x="399.200000" y="54.000000" font-family="Arial" font-size="7" text-anchor="middle" fill="#FFFFFF">/</text>
<circle cx="409.200000" cy="62.000000" r="1"/>
<line x1="414.200000" y1="55.000000" x2="411.200000" y2="56.000000"  transform="rotate(0.000000,411.200000,56.000000)" style="stroke: black; stroke-width:0.25;"/>
<line x1="414.200000" y1="57.000000" x2="411.200000" y2="56.000000"  transform="rotate(0.000000,411.200000,56.000000)" style="stroke: black; stroke-width:0.25;"/>
<line x1="414.200000" y1="47.000000" x2="411.200000" y2="48.000000"  transform="rotate(0.000000,411.200000,48.000000)" style="stroke: black; stroke-width:0.25;"/>
<line x1="414.200000" y1="49.000000" x2="411.200000" y2="48.000000"  transform="rotate(0.000000,411.200000,48.000000)" style="stroke: black; stroke-width:0.25;"/>
<rect x="348.200000" y="45.000000" width="24.000000" height="24.000000" rx="0" ry="0" style="stroke:none;fill:#cccccc;"/>
<rect x="347.200000" y="44.000000" width="24.000000" height="24.000000" rx="0" ry="0" style="stroke:none;fill:#4B71A1;"/>
<text x="359.200000" y="58.000000" font-family="Arial" font-size="7" text-anchor="middle" fill="#FFFFFF">-</text>
<circle cx="369.200000" cy="66.000000" r="1"/>
<line x1="374.200000" y1="59.000000" x2="371.200000" y2="60.000000"  transform="rotate(0.000000,371.200000,60.000000)" style="stroke: black; stroke-width:0.25;"/>
<line x1="374.200000" y1="61.000000" x2="371.200000" y2="60.000000"  transform="rotate(0.000000,371.200000,60.000000)" style="stroke: black; stroke-width:0.25;"/>
<line x1="374.200000" y1="51.000000" x2="371.200000" y2="52.000000"  transform="rotate(0.000000,371.200000,52.000000)" style="stroke: black; stroke-width:0.25;"/>
<line x1="374.200000" y1="53.000000" x2="371.200000" y2="52.000000"  transform="rotate(0.000000,371.200000,52.000000)" style="stroke: black; stroke-width:0.25;"/>
<line x1="453.200000" y1="108.000000" x2="453.200000" y2="104.000000"  style="stroke:black; stroke-linecap:round; stroke-width:0.25;"/>
<line x1="453.200000" y1="104.000000" x2="457.200000" y2="104.000000"  style="stroke:black; stroke-linecap:round; stroke-width:0.25;"/>
<line x1="457.200000" y1="104.000000" x2="457.200000" y2="108.000000"  style="stroke:black; stroke-linecap:round; stroke-width:0.25;"/>
<line x1="15.000000" y1="15.000000" x2="15.000000" y2="129.000000"  style="stroke: black; stroke-linecap:round; stroke-width:0.25; stroke-dasharray:3,3;"/>
<line x1="15.000000" y1="129.000000" x2="484.200000" y2="129.000000"  style="stroke: black; stroke-linecap:round; stroke-width:0.25; stroke-dasharray:3,3;"/>
<line x1="484.200000" y1="129.000000" x2="484.200000" y2="15.000000"  style="stroke: black; stroke-linecap:round; stroke-width:0.25; stroke-dasharray:3,3;"/>
<line x1="15.000000" y1="15.000000" x2="20.000000" y2="15.000000"  style="stroke: black; stroke-linecap:round; stroke-width:0.25; stroke-dasharray:3,3;"/>
<line x1="49.025000" y1="15.000000" x2="484.200000" y2="15.000000"  style="stroke: black; stroke-linecap:round; stroke-width:0.25; stroke-dasharray:3,3;"/>
<text x="20.000000" y="17.000000" font-family="Arial" font-size="7">envelop</text>
<line x1="486.200000" y1="71.000000" x2="489.200000" y2="72.000000"  transform="rotate(0.000000,489.200000,72.000000)" style="stroke: black; stroke-width:0.25;"/>
<line x1="486.200000" y1="73.000000" x2="489.200000" y2="72.000000"  transform="rotate(0.000000,489.200000,72.000000)" style="stroke: black; stroke-width:0.25;"/>
<line x1="10.000000" y1="72.000000" x2="20.000000" y2="72.000000"  style="stroke:black; stroke-linecap:round; stroke-width:0.25;"/>
<line x1="20.000000" y1="72.000000" x2="24.000000" y2="72.000000"  style="stroke:black; stroke-linecap:round; stroke-width:0.25;"/>
<line x1="24.000000" y1="72.000000" x2="28.000000" y2="72.000000"  style="stroke:black; stroke-linecap:round; stroke-width:0.25;"/>
<line x1="28.000000" y1="72.000000" x2="28.000000" y2="72.000000"  style="stroke:black; stroke-linecap:round; stroke-width:0.25;"/>
<line x1="28.000000" y1="72.000000" x2="32.000000" y2="72.000000"  style="stroke:black; stroke-linecap:round; stroke-width:0.25;"/>
<line x1="56.000000" y1="72.000000" x2="60.000000" y2="72.000000"  style="stroke:black; stroke-linecap:round; stroke-width:0.25;"/>
<line x1="60.000000" y1="72.000000" x2="68.000000" y2="72.000000"  style="stroke:black; stroke-linecap:round; stroke-width:0.25;"/>
<line x1="68.000000" y1="72.000000" x2="68.000000" y2="88.000000"  style="stroke:black; stroke-linecap:round; stroke-width:0.25;"/>
<line x1="68.000000" y1="88.000000" x2="68.000000" y2="88.000000"  style="stroke:black; stroke-linecap:round; stroke-width:0.25;"/>
<line x1="68.000000" y1="88.000000" x2="104.250000" y2="88.000000"  style="stroke:black; stroke-linecap:round; stroke-width:0.25;"/>
<line x1="104.250000" y1="88.000000" x2="140.500000" y2="88.000000"  style="stroke:black; stroke-linecap:round; stroke-width:0.25;"/>
<line x1="136.500000" y1="68.000000" x2="140.500000" y2="68.000000"  style="stroke:black; stroke-linecap:round; stroke-width:0.25;"/>
<line x1="140.500000" y1="68.000000" x2="148.500000" y2="68.000000"  style="stroke:black; stroke-linecap:round; stroke-width:0.25;"/>
<line x1="140.500000" y1="76.000000" x2="148.500000" y2="76.000000"  style="stroke:black; stroke-linecap:round; stroke-width:0.25;"/>
<line x1="140.500000" y1="88.000000" x2="140.500000" y2="76.000000"  style="stroke:black; stroke-linecap:round; stroke-width:0.25;"/>
<line x1="140.500000" y1="88.000000" x2="140.500000" y2="88.000000"  style="stroke:black; stroke-linecap:round; stroke-width:0.25;"/>
<line x1="148.500000" y1="68.000000" x2="152.500000" y2="68.000000"  style="stroke:black; stroke-linecap:round; stroke-width:0.25;"/>
<line x1="148.500000" y1="76.000000" x2="152.500000" y2="76.000000"  style="stroke:black; stroke-linecap:round; stroke-width:0.25;"/>
<line x1="176.500000" y1="72.000000" x2="180.500000" y2="72.000000"  style="stroke:black; stroke-linecap:round; stroke-width:0.25;"/>
<line x1="180.500000" y1="72.000000" x2="180.500000" y2="72.000000"  style="stroke:black; stroke-linecap:round; stroke-width:0.25;"/>
<line x1="180.500000" y1="72.000000" x2="184.500000" y2="72.000000"  style="stroke:black; stroke-linecap:round; stroke-width:0.25;"/>
<line x1="223.200000" y1="72.000000" x2="227.200000" y2="72.000000"  style="stroke:black; stroke-linecap:round; stroke-width:0.25;"/>
<line x1="227.200000" y1="72.000000" x2="235.200000" y2="72.000000"  style="stroke:black; stroke-linecap:round; stroke-width:0.25;"/>
<line x1="235.200000" y1="72.000000" x2="235.200000" y2="88.000000"  style="stroke:black; stroke-linecap:round; stroke-width:0.25;"/>
<line x1="235.200000" y1="88.000000" x2="235.200000" y2="88.000000"  style="stroke:black; stroke-linecap:round; stroke-width:0.25;"/>
<line x1="235.200000" y1="88.000000" x2="251.200000" y2="88.000000"  style="stroke:black; stroke-linecap:round; stroke-width:0.25;"/>
<line x1="251.200000" y1="88.000000" x2="267.200000" y2="88.000000"  style="stroke:black; stroke-linecap:round; stroke-width:0.25;"/>
<line x1="263.200000" y1="68.000000" x2="267.200000" y2="68.000000"  style="stroke:black; stroke-linecap:round; stroke-width:0.25;"/>
<line x1="267.200000" y1="68.000000" x2="275.200000" y2="68.000000"  style="stroke:black; stroke-linecap:round; stroke-width:0.25;"/>
<line x1="267.200000" y1="76.000000" x2="275.200000" y2="76.000000"  style="stroke:black; stroke-linecap:round; stroke-width:0.25;"/>
<line x1="267.200000" y1="88.000000" x2="267.200000" y2="76.000000"  style="stroke:black; stroke-linecap:round; stroke-width:0.25;"/>
<line x1="267.200000" y1="88.000000" x2="267.200000" y2="88.000000"  style="stroke:black; stroke-linecap:round; stroke-width:0.25;"/>
<line x1="275.200000" y1="68.000000" x2="285.200000" y2="68.000000"  style="stroke:black; stroke-linecap:round; stroke-width:0.25;"/>
<line x1="275.200000" y1="76.000000" x2="285.200000" y2="76.000000"  style="stroke:black; stroke-linecap:round; stroke-width:0.25;"/>
<line x1="285.200000" y1="68.000000" x2="289.200000" y2="68.000000"  style="stroke:black; stroke-linecap:round; stroke-width:0.25;"/>
<line x1="285.200000" y1="76.000000" x2="289.200000" y2="76.000000"  style="stroke:black; stroke-linecap:round; stroke-width:0.25;"/>
<line x1="313.200000" y1="72.000000" x2="317.200000" y2="72.000000"  style="stroke:black; stroke-linecap:round; stroke-width:0.25;"/>
<line x1="317.200000" y1="72.000000" x2="327.200000" y2="72.000000"  style="stroke:black; stroke-linecap:round; stroke-width:0.25;"/>
<line x1="327.200000" y1="72.000000" x2="335.200000" y2="72.000000"  style="stroke:black; stroke-linecap:round; stroke-width:0.25;"/>
<line x1="335.200000" y1="72.000000" x2="335.200000" y2="112.000000"  style="stroke:black; stroke-linecap:round; stroke-width:0.25;"/>
<line x1="335.200000" y1="112.000000" x2="335.200000" y2="112.000000"  style="stroke:black; stroke-linecap:round; stroke-width:0.25;"/>
<line x1="335.200000" y1="112.000000" x2="343.200000" y2="112.000000"  style="stroke:black; stroke-linecap:round; stroke-width:0.25;"/>
<line x1="343.200000" y1="56.000000" x2="343.200000" y2="56.000000"  style="stroke:black; stroke-linecap:round; stroke-width:0.25;"/>
<line x1="343.200000" y1="56.000000" x2="343.200000" y2="104.000000"  style="stroke:black; stroke-linecap:round; stroke-width:0.25;"/>
<line x1="343.200000" y1="104.000000" x2="343.200000" y2="104.000000"  style="stroke:black; stroke-linecap:round; stroke-width:0.25;"/>
<line x1="343.200000" y1="104.000000" x2="383.200000" y2="104.000000"  style="stroke:black; stroke-linecap:round; stroke-width:0.25;"/>
<line x1="343.200000" y1="112.000000" x2="383.200000" y2="112.000000"  style="stroke:black; stroke-linecap:round; stroke-width:0.25;"/>
<line x1="347.200000" y1="56.000000" x2="343.200000" y2="56.000000"  style="stroke:black; stroke-linecap:round; stroke-width:0.25;"/>
<line x1="375.200000" y1="52.000000" x2="371.200000" y2="52.000000"  style="stroke:black; stroke-linecap:round; stroke-width:0.25;"/>
<line x1="375.200000" y1="60.000000" x2="371.200000" y2="60.000000"  style="stroke:black; stroke-linecap:round; stroke-width:0.25;"/>
<line x1="375.200000" y1="60.000000" x2="375.200000" y2="60.000000"  style="stroke:black; stroke-linecap:round; stroke-width:0.25;"/>
<line x1="375.200000" y1="88.000000" x2="375.200000" y2="60.000000"  style="stroke:black; stroke-linecap:round; stroke-width:0.25;"/>
<line x1="383.200000" y1="52.000000" x2="375.200000" y2="52.000000"  style="stroke:black; stroke-linecap:round; stroke-width:0.25;"/>
<line x1="383.200000" y1="88.000000" x2="375.200000" y2="88.000000"  style="stroke:black; stroke-linecap:round; stroke-width:0.25;"/>
<line x1="383.200000" y1="104.000000" x2="387.200000" y2="104.000000"  style="stroke:black; stroke-linecap:round; stroke-width:0.25;"/>
<line x1="383.200000" y1="112.000000" x2="387.200000" y2="112.000000"  style="stroke:black; stroke-linecap:round; stroke-width:0.25;"/>
<line x1="387.200000" y1="52.000000" x2="383.200000" y2="52.000000"  style="stroke:black; stroke-linecap:round; stroke-width:0.25;"/>
<line x1="411.200000" y1="108.000000" x2="415.200000" y2="108.000000"  style="stroke:black; stroke-linecap:round; stroke-width:0.25;"/>
<line x1="415.200000" y1="48.000000" x2="411.200000" y2="48.000000"  style="stroke:black; stroke-linecap:round; stroke-width:0.25;"/>
<line x1="415.200000" y1="56.000000" x2="411.200000" y2="56.000000"  style="stroke:black; stroke-linecap:round; stroke-width:0.25;"/>
<line x1="415.200000" y1="56.000000" x2="415.200000" y2="56.000000"  style="stroke:black; stroke-linecap:round; stroke-width:0.25;"/>
<line x1="415.200000" y1="68.000000" x2="415.200000" y2="56.000000"  style="stroke:black; stroke-linecap:round; stroke-width:0.25;"/>
<line x1="415.200000" y1="108.000000" x2="455.200000" y2="108.000000"  style="stroke:black; stroke-linecap:round; stroke-width:0.25;"/>
<line x1="419.200000" y1="88.000000" x2="383.200000" y2="88.000000"  style="stroke:black; stroke-linecap:round; stroke-width:0.25;"/>
<line x1="423.200000" y1="36.000000" x2="423.200000" y2="36.000000"  style="stroke:black; stroke-linecap:round; stroke-width:0.25;"/>
<line x1="423.200000" y1="36.000000" x2="423.200000" y2="48.000000"  style="stroke:black; stroke-linecap:round; stroke-width:0.25;"/>
<line x1="423.200000" y1="48.000000" x2="415.200000" y2="48.000000"  style="stroke:black; stroke-linecap:round; stroke-width:0.25;"/>
<line x1="423.200000" y1="68.000000" x2="415.200000" y2="68.000000"  style="stroke:black; stroke-linecap:round; stroke-width:0.25;"/>
<line x1="427.200000" y1="36.000000" x2="423.200000" y2="36.000000"  style="stroke:black; stroke-linecap:round; stroke-width:0.25;"/>
<line x1="427.200000" y1="68.000000" x2="423.200000" y2="68.000000"  style="stroke:black; stroke-linecap:round; stroke-width:0.25;"/>
<line x1="455.200000" y1="88.000000" x2="419.200000" y2="88.000000"  style="stroke:black; stroke-linecap:round; stroke-width:0.25;"/>
<line x1="455.200000" y1="88.000000" x2="455.200000" y2="88.000000"  style="stroke:black; stroke-linecap:round; stroke-width:0.25;"/>
<line x1="455.200000" y1="104.000000" x2="455.200000" y2="88.000000"  style="stroke:black; stroke-linecap:round; stroke-width:0.25;"/>
<line x1="455.200000" y1="108.000000" x2="457.200000" y2="108.000000"  style="stroke:black; stroke-linecap:round; stroke-width:0.25;"/>
<line x1="457.200000" y1="108.000000" x2="463.200000" y2="108.000000"  style="stroke:black; stroke-linecap:round; stroke-width:0.25;"/>
<line x1="463.200000" y1="72.000000" x2="471.200000" y2="72.000000"  style="stroke:black; stroke-linecap:round; stroke-width:0.25;"/>
<line x1="463.200000" y1="108.000000" x2="463.200000" y2="72.000000"  style="stroke:black; stroke-linecap:round; stroke-width:0.25;"/>
<line x1="463.200000" y1="108.000000" x2="463.200000" y2="108.000000"  style="stroke:black; stroke-linecap:round; stroke-width:0.25;"/>
<line x1="471.200000" y1="72.000000" x2="475.200000" y2="72.000000"  style="stroke:black; stroke-linecap:round; stroke-width:0.25;"/>
<line x1="475.200000" y1="72.000000" x2="479.200000" y2="72.000000"  style="stroke:black; stroke-linecap:round; stroke-width:0.25;"/>
<line x1="479.200000" y1="72.000000" x2="489.200000" y2="72.000000"  style="stroke:black; stroke-linecap:round; stroke-width:0.25;"/>
</svg>
