<?xml version="1.0"?>
<svg xmlns="http://www.w3.org/2000/svg" xmlns:xlink="http://www.w3.org/1999/xlink" viewBox="0 0 581.500000 104.000000" width="290.750000mm" height="52.000000mm" version="1.1">
<a xlink:href="leveler-0x60013c014000.svg">
<rect x="1.000000" y="1.000000" width="580.500000" height="103.000000" rx="0" ry="0" style="stroke:none;fill:#cccccc;"/>
<rect x="0.000000" y="0.000000" width="580.500000" height="103.000000" rx="0" ry="0" style="stroke:none;fill:#ffffff;"/>
</a>
<text x="10.000000" y="7.000000" font-family="Arial" font-size="7"></text>
<rect x="25.000000" y="25.000000" width="24.000000" height="24.000000" rx="0" ry="0" style="stroke:none;fill:#cccccc;"/>
<rect x="24.000000" y="24.000000" width="24.000000" height="24.000000" rx="0" ry="0" style="stroke:none;fill:#47945E;"/>
<text x="36.000000" y="38.000000" font-family="Arial" font-size="7" text-anchor="middle" fill="#FFFFFF">l</text>
<circle cx="26.000000" cy="26.000000" r="1"/>
<rect x="25.000000" y="57.000000" width="24.000000" height="24.000000" rx="0" ry="0" style="stroke:none;fill:#cccccc;"/>
<rect x="24.000000" y="56.000000" width="24.000000" height="24.000000" rx="0" ry="0" style="stroke:none;fill:#47945E;"/>
<text x="36.000000" y="70.000000" font-family="Arial" font-size="7" text-anchor="middle" fill="#FFFFFF">r</text>
<circle cx="26.000000" cy="58.000000" r="1"/>
<rect x="65.000000" y="41.000000" width="24.000000" height="24.000000" rx="0" ry="0" style="stroke:none;fill:#cccccc;"/>
<rect x="64.000000" y="40.000000" width="24.000000" height="24.000000" rx="0" ry="0" style="stroke:none;fill:#4B71A1;"/>
<text x="76.000000" y="54.000000" font-family="Arial" font-size="7" text-anchor="middle" fill="#FFFFFF">+</text>
<circle cx="66.000000" cy="42.000000" r="1"/>
<line x1="61.000000" y1="47.000000" x2="64.000000" y2="48.000000"  transform="rotate(0.000000,64.000000,48.000000)" style="stroke: black; stroke-width:0.25;"/>
<line x1="61.000000" y1="49.000000" x2="64.000000" y2="48.000000"  transform="rotate(0.000000,64.000000,48.000000)" style="stroke: black; stroke-width:0.25;"/>
<line x1="61.000000" y1="55.000000" x2="64.000000" y2="56.000000"  transform="rotate(0.000000,64.000000,56.000000)" style="stroke: black; stroke-width:0.25;"/>
<line x1="61.000000" y1="57.000000" x2="64.000000" y2="56.000000"  transform="rotate(0.000000,64.000000,56.000000)" style="stroke: black; stroke-width:0.25;"/>
<rect x="97.000000" y="41.000000" width="24.000000" height="24.000000" rx="0" ry="0" style="stroke:none;fill:#cccccc;"/>
<rect x="96.000000" y="40.000000" width="24.000000" height="24.000000" rx="0" ry="0" style="stroke:none;fill:#4B71A1;"/>
<text x="108.000000" y="54.000000" font-family="Arial" font-size="7" text-anchor="middle" fill="#FFFFFF">abs</text>
<circle cx="98.000000" cy="42.000000" r="1"/>
<line x1="93.000000" y1="51.000000" x2="96.000000" y2="52.000000"  transform="rotate(0.000000,96.000000,52.000000)" style="stroke: black; stroke-width:0.25;"/>
<line x1="93.000000" y1="53.000000" x2="96.000000" y2="52.000000"  transform="rotate(0.000000,96.000000,52.000000)" style="stroke: black; stroke-width:0.25;"/>
<a xlink:href="peak-0x60013c012250.svg">
<rect x="129.000000" y="41.000000" width="154.800000" height="24.000000" rx="0" ry="0" style="stroke:none;fill:#cccccc;"/>
<rect x="128.000000" y="40.000000" width="154.800000" height="24.000000" rx="0" ry="0" style="stroke:none;fill:#003366;"/>
</a>
<a xlink:href="peak-0x60013c012250.svg">
<text x="205.400000" y="54.000000" font-family="Arial" font-size="7" text-anchor="middle" fill="#FFFFFF">peak_expansio...99999999999f)(12)(1)</text>
</a>
<circle cx="130.000000" cy="42.000000" r="1"/>
<line x1="125.000000" y1="51.000000" x2="128.000000" y2="52.000000"  transform="rotate(0.000000,128.000000,52.000000)" style="stroke: black; stroke-width:0.25;"/>
<line x1="125.000000" y1="53.000000" x2="128.000000" y2="52.000000"  transform="rotate(0.000000,128.000000,52.000000)" style="stroke: black; stroke-width:0.25;"/>
<a xlink:href="db2linear-0x60013c013d50.svg">
<rect x="291.800000" y="41.000000" width="38.700000" height="24.000000" rx="0" ry="0" style="stroke:none;fill:#cccccc;"/>
<rect x="290.800000" y="40.000000" width="38.700000" height="24.000000" rx="0" ry="0" style="stroke:none;fill:#003366;"/>
</a>
<a xlink:href="db2linear-0x60013c013d50.svg">
<text x="310.150000" y="54.000000" font-family="Arial" font-size="7" text-anchor="middle" fill="#FFFFFF">db2linear</text>
</a>
<circle cx="292.800000" cy="42.000000" r="1"/>
<line x1="287.800000" y1="51.000000" x2="290.800000" y2="52.000000"  transform="rotate(0.000000,290.800000,52.000000)" style="stroke: black; stroke-width:0.25;"/>
<line x1="287.800000" y1="53.000000" x2="290.800000" y2="52.000000"  transform="rotate(0.000000,290.800000,52.000000)" style="stroke: black; stroke-width:0.25;"/>
<rect x="356.500000" y="37.000000" width="24.000000" height="24.000000" rx="0" ry="0" style="stroke:none;fill:#cccccc;"/>
<rect x="355.500000" y="36.000000" width="24.000000" height="24.000000" rx="0" ry="0" style="stroke:none;fill:#f44800;"/>
<text x="367.500000" y="50.000000" font-family="Arial" font-size="7" text-anchor="middle" fill="#FFFFFF">0</text>
<circle cx="357.500000" cy="38.000000" r="1"/>
<line x1="346.500000" y1="27.000000" x2="346.500000" y2="69.000000"  style="stroke: black; stroke-linecap:round; stroke-width:0.25; stroke-dasharray:3,3;"/>
<line x1="346.500000" y1="69.000000" x2="388.500000" y2="69.000000"  style="stroke: black; stroke-linecap:round; stroke-width:0.25; stroke-dasharray:3,3;"/>
<line x1="388.500000" y1="69.000000" x2="388.500000" y2="27.000000"  style="stroke: black; stroke-linecap:round; stroke-width:0.25; stroke-dasharray:3,3;"/>
<line x1="346.500000" y1="27.000000" x2="351.500000" y2="27.000000"  style="stroke: black; stroke-linecap:round; stroke-width:0.25; stroke-dasharray:3,3;"/>
<line x1="383.750000" y1="27.000000" x2="388.500000" y2="27.000000"  style="stroke: black; stroke-linecap:round; stroke-width:0.25; stroke-dasharray:3,3;"/>
<text x="351.500000" y="29.000000" font-family="Arial" font-size="7">clipCond</text>
<rect x="406.500000" y="41.000000" width="24.000000" height="24.000000" rx="0" ry="0" style="stroke:none;fill:#cccccc;"/>
<rect x="405.500000" y="40.000000" width="24.000000" height="24.000000" rx="0" ry="0" style="stroke:none;fill:#4B71A1;"/>
<text x="417.500000" y="54.000000" font-family="Arial" font-size="7" text-anchor="middle" fill="#FFFFFF">max</text>
<circle cx="407.500000" cy="42.000000" r="1"/>
<line x1="402.500000" y1="47.000000" x2="405.500000" y2="48.000000"  transform="rotate(0.000000,405.500000,48.000000)" style="stroke: black; stroke-width:0.25;"/>
<line x1="402.500000" y1="49.000000" x2="405.500000" y2="48.000000"  transform="rotate(0.000000,405.500000,48.000000)" style="stroke: black; stroke-width:0.25;"/>
<line x1="402.500000" y1="55.000000" x2="405.500000" y2="56.000000"  transform="rotate(0.000000,405.500000,56.000000)" style="stroke: black; stroke-width:0.25;"/>
<line x1="402.500000" y1="57.000000" x2="405.500000" y2="56.000000"  transform="rotate(0.000000,405.500000,56.000000)" style="stroke: black; stroke-width:0.25;"/>
<rect x="456.500000" y="37.000000" width="24.000000" height="24.000000" rx="0" ry="0" style="stroke:none;fill:#cccccc;"/>
<rect x="455.500000" y="36.000000" width="24.000000" height="24.000000" rx="0" ry="0" style="stroke:none;fill:#f44800;"/>
<text x="467.500000" y="50.000000" font-family="Arial" font-size="7" text-anchor="middle" fill="#FFFFFF">1</text>
<circle cx="457.500000" cy="38.000000" r="1"/>
<line x1="446.500000" y1="27.000000" x2="446.500000" y2="69.000000"  style="stroke: black; stroke-linecap:round; stroke-width:0.25; stroke-dasharray:3,3;"/>
<line x1="446.500000" y1="69.000000" x2="488.500000" y2="69.000000"  style="stroke: black; stroke-linecap:round; stroke-width:0.25; stroke-dasharray:3,3;"/>
<line x1="488.500000" y1="69.000000" x2="488.500000" y2="27.000000"  style="stroke: black; stroke-linecap:round; stroke-width:0.25; stroke-dasharray:3,3;"/>
<line x1="446.500000" y1="27.000000" x2="451.500000" y2="27.000000"  style="stroke: black; stroke-linecap:round; stroke-width:0.25; stroke-dasharray:3,3;"/>
<line x1="480.525000" y1="27.000000" x2="488.500000" y2="27.000000"  style="stroke: black; stroke-linecap:round; stroke-width:0.25; stroke-dasharray:3,3;"/>
<text x="451.500000" y="29.000000" font-family="Arial" font-size="7">pow2(0)</text>
<rect x="516.500000" y="41.000000" width="24.000000" height="24.000000" rx="0" ry="0" style="stroke:none;fill:#cccccc;"/>
<rect x="515.500000" y="40.000000" width="24.000000" height="24.000000" rx="0" ry="0" style="stroke:none;fill:#4B71A1;"/>
<text x="527.500000" y="54.000000" font-family="Arial" font-size="7" text-anchor="middle" fill="#FFFFFF">min</text>
<circle cx="517.500000" cy="42.000000" r="1"/>
<line x1="512.500000" y1="47.000000" x2="515.500000" y2="48.000000"  transform="rotate(0.000000,515.500000,48.000000)" style="stroke: black; stroke-width:0.25;"/>
<line x1="512.500000" y1="49.000000" x2="515.500000" y2="48.000000"  transform="rotate(0.000000,515.500000,48.000000)" style="stroke: black; stroke-width:0.25;"/>
<line x1="512.500000" y1="55.000000" x2="515.500000" y2="56.000000"  transform="rotate(0.000000,515.500000,56.000000)" style="stroke: black; stroke-width:0.25;"/>
<line x1="512.500000" y1="57.000000" x2="515.500000" y2="56.000000"  transform="rotate(0.000000,515.500000,56.000000)" style="stroke: black; stroke-width:0.25;"/>
<line x1="506.500000" y1="31.000000" x2="506.500000" y2="73.000000"  style="stroke: black; stroke-linecap:round; stroke-width:0.25; stroke-dasharray:3,3;"/>
<line x1="506.500000" y1="73.000000" x2="548.500000" y2="73.000000"  style="stroke: black; stroke-linecap:round; stroke-width:0.25; stroke-dasharray:3,3;"/>
<line x1="548.500000" y1="73.000000" x2="548.500000" y2="31.000000"  style="stroke: black; stroke-linecap:round; stroke-width:0.25; stroke-dasharray:3,3;"/>
<line x1="506.500000" y1="31.000000" x2="511.500000" y2="31.000000"  style="stroke: black; stroke-linecap:round; stroke-width:0.25; stroke-dasharray:3,3;"/>
<line x1="548.500000" y1="31.000000" x2="548.500000" y2="31.000000"  style="stroke: black; stroke-linecap:round; stroke-width:0.25; stroke-dasharray:3,3;"/>
<text x="511.500000" y="33.000000" font-family="Arial" font-size="7">parallelMin(2)</text>
<line x1="15.000000" y1="15.000000" x2="15.000000" y2="89.000000"  style="stroke: black; stroke-linecap:round; stroke-width:0.25; stroke-dasharray:3,3;"/>
<line x1="15.000000" y1="89.000000" x2="566.500000" y2="89.000000"  style="stroke: black; stroke-linecap:round; stroke-width:0.25; stroke-dasharray:3,3;"/>
<line x1="566.500000" y1="89.000000" x2="566.500000" y2="15.000000"  style="stroke: black; stroke-linecap:round; stroke-width:0.25; stroke-dasharray:3,3;"/>
<line x1="15.000000" y1="15.000000" x2="20.000000" y2="15.000000"  style="stroke: black; stroke-linecap:round; stroke-width:0.25; stroke-dasharray:3,3;"/>
<line x1="126.425000" y1="15.000000" x2="566.500000" y2="15.000000"  style="stroke: black; stroke-linecap:round; stroke-width:0.25; stroke-dasharray:3,3;"/>
<text x="20.000000" y="17.000000" font-family="Arial" font-size="7">expander(x1142,x1143 : + : abs)</text>
<line x1="568.500000" y1="51.000000" x2="571.500000" y2="52.000000"  transform="rotate(0.000000,571.500000,52.000000)" style="stroke: black; stroke-width:0.25;"/>
<line x1="568.500000" y1="53.000000" x2="571.500000" y2="52.000000"  transform="rotate(0.000000,571.500000,52.000000)" style="stroke: black; stroke-width:0.25;"/>
<line x1="48.000000" y1="36.000000" x2="52.000000" y2="36.000000"  style="stroke:black; stroke-linecap:round; stroke-width:0.25;"/>
<line x1="48.000000" y1="68.000000" x2="52.000000" y2="68.000000"  style="stroke:black; stroke-linecap:round; stroke-width:0.25;"/>
<line x1="52.000000" y1="36.000000" x2="60.000000" y2="36.000000"  style="stroke:black; stroke-linecap:round; stroke-width:0.25;"/>
<line x1="52.000000" y1="56.000000" x2="60.000000" y2="56.000000"  style="stroke:black; stroke-linecap:round; stroke-width:0.25;"/>
<line x1="52.000000" y1="68.000000" x2="52.000000" y2="56.000000"  style="stroke:black; stroke-linecap:round; stroke-width:0.25;"/>
<line x1="52.000000" y1="68.000000" x2="52.000000" y2="68.000000"  style="stroke:black; stroke-linecap:round; stroke-width:0.25;"/>
<line x1="60.000000" y1="36.000000" x2="60.000000" y2="48.000000"  style="stroke:black; stroke-linecap:round; stroke-width:0.25;"/>
<line x1="60.000000" y1="48.000000" x2="60.000000" y2="48.000000"  style="stroke:black; stroke-linecap:round; stroke-width:0.25;"/>
<line x1="60.000000" y1="48.000000" x2="64.000000" y2="48.000000"  style="stroke:black; stroke-linecap:round; stroke-width:0.25;"/>
<line x1="60.000000" y1="56.000000" x2="64.000000" y2="56.000000"  style="stroke:black; stroke-linecap:round; stroke-width:0.25;"/>
<line x1="88.000000" y1="52.000000" x2="92.000000" y2="52.000000"  style="stroke:black; stroke-linecap:round; stroke-width:0.25;"/>
<line x1="92.000000" y1="52.000000" x2="92.000000" y2="52.000000"  style="stroke:black; stroke-linecap:round; stroke-width:0.25;"/>
<line x1="92.000000" y1="52.000000" x2="96.000000" y2="52.000000"  style="stroke:black; stroke-linecap:round; stroke-width:0.25;"/>
<line x1="120.000000" y1="52.000000" x2="124.000000" y2="52.000000"  style="stroke:black; stroke-linecap:round; stroke-width:0.25;"/>
<line x1="124.000000" y1="52.000000" x2="124.000000" y2="52.000000"  style="stroke:black; stroke-linecap:round; stroke-width:0.25;"/>
<line x1="124.000000" y1="52.000000" x2="128.000000" y2="52.000000"  style="stroke:black; stroke-linecap:round; stroke-width:0.25;"/>
<line x1="282.800000" y1="52.000000" x2="286.800000" y2="52.000000"  style="stroke:black; stroke-linecap:round; stroke-width:0.25;"/>
<line x1="286.800000" y1="52.000000" x2="286.800000" y2="52.000000"  style="stroke:black; stroke-linecap:round; stroke-width:0.25;"/>
<line x1="286.800000" y1="52.000000" x2="290.800000" y2="52.000000"  style="stroke:black; stroke-linecap:round; stroke-width:0.25;"/>
<line x1="329.500000" y1="52.000000" x2="333.500000" y2="52.000000"  style="stroke:black; stroke-linecap:round; stroke-width:0.25;"/>
<line x1="333.500000" y1="52.000000" x2="341.500000" y2="52.000000"  style="stroke:black; stroke-linecap:round; stroke-width:0.25;"/>
<line x1="341.500000" y1="52.000000" x2="341.500000" y2="78.000000"  style="stroke:black; stroke-linecap:round; stroke-width:0.25;"/>
<line x1="341.500000" y1="78.000000" x2="341.500000" y2="78.000000"  style="stroke:black; stroke-linecap:round; stroke-width:0.25;"/>
<line x1="341.500000" y1="78.000000" x2="367.500000" y2="78.000000"  style="stroke:black; stroke-linecap:round; stroke-width:0.25;"/>
<line x1="367.500000" y1="78.000000" x2="393.500000" y2="78.000000"  style="stroke:black; stroke-linecap:round; stroke-width:0.25;"/>
<line x1="379.500000" y1="48.000000" x2="383.500000" y2="48.000000"  style="stroke:black; stroke-linecap:round; stroke-width:0.25;"/>
<line x1="383.500000" y1="48.000000" x2="393.500000" y2="48.000000"  style="stroke:black; stroke-linecap:round; stroke-width:0.25;"/>
<line x1="393.500000" y1="48.000000" x2="401.500000" y2="48.000000"  style="stroke:black; stroke-linecap:round; stroke-width:0.25;"/>
<line x1="393.500000" y1="56.000000" x2="401.500000" y2="56.000000"  style="stroke:black; stroke-linecap:round; stroke-width:0.25;"/>
<line x1="393.500000" y1="78.000000" x2="393.500000" y2="56.000000"  style="stroke:black; stroke-linecap:round; stroke-width:0.25;"/>
<line x1="393.500000" y1="78.000000" x2="393.500000" y2="78.000000"  style="stroke:black; stroke-linecap:round; stroke-width:0.25;"/>
<line x1="401.500000" y1="48.000000" x2="405.500000" y2="48.000000"  style="stroke:black; stroke-linecap:round; stroke-width:0.25;"/>
<line x1="401.500000" y1="56.000000" x2="405.500000" y2="56.000000"  style="stroke:black; stroke-linecap:round; stroke-width:0.25;"/>
<line x1="429.500000" y1="52.000000" x2="433.500000" y2="52.000000"  style="stroke:black; stroke-linecap:round; stroke-width:0.25;"/>
<line x1="433.500000" y1="52.000000" x2="441.500000" y2="52.000000"  style="stroke:black; stroke-linecap:round; stroke-width:0.25;"/>
<line x1="441.500000" y1="52.000000" x2="441.500000" y2="78.000000"  style="stroke:black; stroke-linecap:round; stroke-width:0.25;"/>
<line x1="441.500000" y1="78.000000" x2="441.500000" y2="78.000000"  style="stroke:black; stroke-linecap:round; stroke-width:0.25;"/>
<line x1="441.500000" y1="78.000000" x2="467.500000" y2="78.000000"  style="stroke:black; stroke-linecap:round; stroke-width:0.25;"/>
<line x1="467.500000" y1="78.000000" x2="493.500000" y2="78.000000"  style="stroke:black; stroke-linecap:round; stroke-width:0.25;"/>
<line x1="479.500000" y1="48.000000" x2="483.500000" y2="48.000000"  style="stroke:black; stroke-linecap:round; stroke-width:0.25;"/>
<line x1="483.500000" y1="48.000000" x2="493.500000" y2="48.000000"  style="stroke:black; stroke-linecap:round; stroke-width:0.25;"/>
<line x1="493.500000" y1="48.000000" x2="501.500000" y2="48.000000"  style="stroke:black; stroke-linecap:round; stroke-width:0.25;"/>
<line x1="493.500000" y1="56.000000" x2="501.500000" y2="56.000000"  style="stroke:black; stroke-linecap:round; stroke-width:0.25;"/>
<line x1="493.500000" y1="78.000000" x2="493.500000" y2="56.000000"  style="stroke:black; stroke-linecap:round; stroke-width:0.25;"/>
<line x1="493.500000" y1="78.000000" x2="493.500000" y2="78.000000"  style="stroke:black; stroke-linecap:round; stroke-width:0.25;"/>
<line x1="501.500000" y1="48.000000" x2="511.500000" y2="48.000000"  style="stroke:black; stroke-linecap:round; stroke-width:0.25;"/>
<line x1="501.500000" y1="56.000000" x2="511.500000" y2="56.000000"  style="stroke:black; stroke-linecap:round; stroke-width:0.25;"/>
<line x1="511.500000" y1="48.000000" x2="515.500000" y2="48.000000"  style="stroke:black; stroke-linecap:round; stroke-width:0.25;"/>
<line x1="511.500000" y1="56.000000" x2="515.500000" y2="56.000000"  style="stroke:black; stroke-linecap:round; stroke-width:0.25;"/>
<line x1="539.500000" y1="52.000000" x2="543.500000" y2="52.000000"  style="stroke:black; stroke-linecap:round; stroke-width:0.25;"/>
<line x1="543.500000" y1="52.000000" x2="553.500000" y2="52.000000"  style="stroke:black; stroke-linecap:round; stroke-width:0.25;"/>
<line x1="553.500000" y1="52.000000" x2="553.500000" y2="52.000000"  style="stroke:black; stroke-linecap:round; stroke-width:0.25;"/>
<line x1="553.500000" y1="52.000000" x2="557.500000" y2="52.000000"  style="stroke:black; stroke-linecap:round; stroke-width:0.25;"/>
<line x1="557.500000" y1="52.000000" x2="561.500000" y2="52.000000"  style="stroke:black; stroke-linecap:round; stroke-width:0.25;"/>
<line x1="561.500000" y1="52.000000" x2="571.500000" y2="52.000000"  style="stroke:black; stroke-linecap:round; stroke-width:0.25;"/>
</svg>
