<?xml version="1.0"?>
<svg xmlns="http://www.w3.org/2000/svg" xmlns:xlink="http://www.w3.org/1999/xlink" viewBox="0 0 321.800000 368.000000" width="160.900000mm" height="184.000000mm" version="1.1">
<a xlink:href="smoo-0x6000c405e490.svg">
<rect x="1.000000" y="1.000000" width="320.800000" height="367.000000" rx="0" ry="0" style="stroke:none;fill:#cccccc;"/>
<rect x="0.000000" y="0.000000" width="320.800000" height="367.000000" rx="0" ry="0" style="stroke:none;fill:#ffffff;"/>
</a>
<text x="10.000000" y="7.000000" font-family="Arial" font-size="7"></text>
<rect x="33.000000" y="173.000000" width="24.000000" height="24.000000" rx="0" ry="0" style="stroke:none;fill:#cccccc;"/>
<rect x="32.000000" y="172.000000" width="24.000000" height="24.000000" rx="0" ry="0" style="stroke:none;fill:#47945E;"/>
<text x="44.000000" y="186.000000" font-family="Arial" font-size="7" text-anchor="middle" fill="#FFFFFF">y</text>
<circle cx="34.000000" cy="174.000000" r="1"/>
<line x1="29.000000" y1="183.000000" x2="32.000000" y2="184.000000"  transform="rotate(0.000000,32.000000,184.000000)" style="stroke: black; stroke-width:0.25;"/>
<line x1="29.000000" y1="185.000000" x2="32.000000" y2="184.000000"  transform="rotate(0.000000,32.000000,184.000000)" style="stroke: black; stroke-width:0.25;"/>
<rect x="105.900000" y="25.000000" width="24.000000" height="24.000000" rx="0" ry="0" style="stroke:none;fill:#cccccc;"/>
<rect x="104.900000" y="24.000000" width="24.000000" height="24.000000" rx="0" ry="0" style="stroke:none;fill:#f44800;"/>
<text x="116.900000" y="38.000000" font-family="Arial" font-size="7" text-anchor="middle" fill="#FFFFFF">1</text>
<circle cx="106.900000" cy="26.000000" r="1"/>
<rect x="85.900000" y="67.000000" width="24.000000" height="24.000000" rx="0" ry="0" style="stroke:none;fill:#cccccc;"/>
<rect x="84.900000" y="66.000000" width="24.000000" height="24.000000" rx="0" ry="0" style="stroke:none;fill:#f44800;"/>
<text x="96.900000" y="80.000000" font-family="Arial" font-size="7" text-anchor="middle" fill="#FFFFFF">1</text>
<circle cx="86.900000" cy="68.000000" r="1"/>
<line x1="75.900000" y1="57.000000" x2="75.900000" y2="99.000000"  style="stroke: black; stroke-linecap:round; stroke-width:0.25; stroke-dasharray:3,3;"/>
<line x1="75.900000" y1="99.000000" x2="117.900000" y2="99.000000"  style="stroke: black; stroke-linecap:round; stroke-width:0.25; stroke-dasharray:3,3;"/>
<line x1="117.900000" y1="99.000000" x2="117.900000" y2="57.000000"  style="stroke: black; stroke-linecap:round; stroke-width:0.25; stroke-dasharray:3,3;"/>
<line x1="75.900000" y1="57.000000" x2="80.900000" y2="57.000000"  style="stroke: black; stroke-linecap:round; stroke-width:0.25; stroke-dasharray:3,3;"/>
<line x1="109.925000" y1="57.000000" x2="117.900000" y2="57.000000"  style="stroke: black; stroke-linecap:round; stroke-width:0.25; stroke-dasharray:3,3;"/>
<text x="80.900000" y="59.000000" font-family="Arial" font-size="7">pow2(0)</text>
<rect x="65.000000" y="109.000000" width="25.800000" height="24.000000" rx="0" ry="0" style="stroke:none;fill:#cccccc;"/>
<rect x="64.000000" y="108.000000" width="25.800000" height="24.000000" rx="0" ry="0" style="stroke:none;fill:#f44800;"/>
<text x="76.900000" y="122.000000" font-family="Arial" font-size="7" text-anchor="middle" fill="#FFFFFF">44.1</text>
<circle cx="66.000000" cy="110.000000" r="1"/>
<a xlink:href="SR-0x6000003ba520.svg">
<rect x="65.900000" y="141.000000" width="24.000000" height="24.000000" rx="0" ry="0" style="stroke:none;fill:#cccccc;"/>
<rect x="64.900000" y="140.000000" width="24.000000" height="24.000000" rx="0" ry="0" style="stroke:none;fill:#003366;"/>
</a>
<a xlink:href="SR-0x6000003ba520.svg">
<text x="76.900000" y="154.000000" font-family="Arial" font-size="7" text-anchor="middle" fill="#FFFFFF">SR</text>
</a>
<circle cx="66.900000" cy="142.000000" r="1"/>
<rect x="106.800000" y="125.000000" width="24.000000" height="24.000000" rx="0" ry="0" style="stroke:none;fill:#cccccc;"/>
<rect x="105.800000" y="124.000000" width="24.000000" height="24.000000" rx="0" ry="0" style="stroke:none;fill:#4B71A1;"/>
<text x="117.800000" y="138.000000" font-family="Arial" font-size="7" text-anchor="middle" fill="#FFFFFF">/</text>
<circle cx="107.800000" cy="126.000000" r="1"/>
<line x1="102.800000" y1="131.000000" x2="105.800000" y2="132.000000"  transform="rotate(0.000000,105.800000,132.000000)" style="stroke: black; stroke-width:0.25;"/>
<line x1="102.800000" y1="133.000000" x2="105.800000" y2="132.000000"  transform="rotate(0.000000,105.800000,132.000000)" style="stroke: black; stroke-width:0.25;"/>
<line x1="102.800000" y1="139.000000" x2="105.800000" y2="140.000000"  transform="rotate(0.000000,105.800000,140.000000)" style="stroke: black; stroke-width:0.25;"/>
<line x1="102.800000" y1="141.000000" x2="105.800000" y2="140.000000"  transform="rotate(0.000000,105.800000,140.000000)" style="stroke: black; stroke-width:0.25;"/>
<rect x="146.800000" y="99.000000" width="24.000000" height="24.000000" rx="0" ry="0" style="stroke:none;fill:#cccccc;"/>
<rect x="145.800000" y="98.000000" width="24.000000" height="24.000000" rx="0" ry="0" style="stroke:none;fill:#4B71A1;"/>
<text x="157.800000" y="112.000000" font-family="Arial" font-size="7" text-anchor="middle" fill="#FFFFFF">-</text>
<circle cx="147.800000" cy="100.000000" r="1"/>
<line x1="142.800000" y1="105.000000" x2="145.800000" y2="106.000000"  transform="rotate(0.000000,145.800000,106.000000)" style="stroke: black; stroke-width:0.25;"/>
<line x1="142.800000" y1="107.000000" x2="145.800000" y2="106.000000"  transform="rotate(0.000000,145.800000,106.000000)" style="stroke: black; stroke-width:0.25;"/>
<line x1="142.800000" y1="113.000000" x2="145.800000" y2="114.000000"  transform="rotate(0.000000,145.800000,114.000000)" style="stroke: black; stroke-width:0.25;"/>
<line x1="142.800000" y1="115.000000" x2="145.800000" y2="114.000000"  transform="rotate(0.000000,145.800000,114.000000)" style="stroke: black; stroke-width:0.25;"/>
<rect x="186.800000" y="83.000000" width="24.000000" height="24.000000" rx="0" ry="0" style="stroke:none;fill:#cccccc;"/>
<rect x="185.800000" y="82.000000" width="24.000000" height="24.000000" rx="0" ry="0" style="stroke:none;fill:#4B71A1;"/>
<text x="197.800000" y="96.000000" font-family="Arial" font-size="7" text-anchor="middle" fill="#FFFFFF">-</text>
<circle cx="187.800000" cy="84.000000" r="1"/>
<line x1="182.800000" y1="89.000000" x2="185.800000" y2="90.000000"  transform="rotate(0.000000,185.800000,90.000000)" style="stroke: black; stroke-width:0.25;"/>
<line x1="182.800000" y1="91.000000" x2="185.800000" y2="90.000000"  transform="rotate(0.000000,185.800000,90.000000)" style="stroke: black; stroke-width:0.25;"/>
<line x1="182.800000" y1="97.000000" x2="185.800000" y2="98.000000"  transform="rotate(0.000000,185.800000,98.000000)" style="stroke: black; stroke-width:0.25;"/>
<line x1="182.800000" y1="99.000000" x2="185.800000" y2="98.000000"  transform="rotate(0.000000,185.800000,98.000000)" style="stroke: black; stroke-width:0.25;"/>
<rect x="125.900000" y="173.000000" width="24.000000" height="24.000000" rx="0" ry="0" style="stroke:none;fill:#cccccc;"/>
<rect x="124.900000" y="172.000000" width="24.000000" height="24.000000" rx="0" ry="0" style="stroke:none;fill:#47945E;"/>
<text x="136.900000" y="186.000000" font-family="Arial" font-size="7" text-anchor="middle" fill="#FFFFFF">x</text>
<circle cx="126.900000" cy="174.000000" r="1"/>
<rect x="226.800000" y="99.000000" width="24.000000" height="24.000000" rx="0" ry="0" style="stroke:none;fill:#cccccc;"/>
<rect x="225.800000" y="98.000000" width="24.000000" height="24.000000" rx="0" ry="0" style="stroke:none;fill:#4B71A1;"/>
<text x="237.800000" y="112.000000" font-family="Arial" font-size="7" text-anchor="middle" fill="#FFFFFF">*</text>
<circle cx="227.800000" cy="100.000000" r="1"/>
<line x1="222.800000" y1="105.000000" x2="225.800000" y2="106.000000"  transform="rotate(0.000000,225.800000,106.000000)" style="stroke: black; stroke-width:0.25;"/>
<line x1="222.800000" y1="107.000000" x2="225.800000" y2="106.000000"  transform="rotate(0.000000,225.800000,106.000000)" style="stroke: black; stroke-width:0.25;"/>
<line x1="222.800000" y1="113.000000" x2="225.800000" y2="114.000000"  transform="rotate(0.000000,225.800000,114.000000)" style="stroke: black; stroke-width:0.25;"/>
<line x1="222.800000" y1="115.000000" x2="225.800000" y2="114.000000"  transform="rotate(0.000000,225.800000,114.000000)" style="stroke: black; stroke-width:0.25;"/>
<rect x="105.900000" y="215.000000" width="24.000000" height="24.000000" rx="0" ry="0" style="stroke:none;fill:#cccccc;"/>
<rect x="104.900000" y="214.000000" width="24.000000" height="24.000000" rx="0" ry="0" style="stroke:none;fill:#f44800;"/>
<text x="116.900000" y="228.000000" font-family="Arial" font-size="7" text-anchor="middle" fill="#FFFFFF">1</text>
<circle cx="106.900000" cy="216.000000" r="1"/>
<line x1="95.900000" y1="205.000000" x2="95.900000" y2="247.000000"  style="stroke: black; stroke-linecap:round; stroke-width:0.25; stroke-dasharray:3,3;"/>
<line x1="95.900000" y1="247.000000" x2="137.900000" y2="247.000000"  style="stroke: black; stroke-linecap:round; stroke-width:0.25; stroke-dasharray:3,3;"/>
<line x1="137.900000" y1="247.000000" x2="137.900000" y2="205.000000"  style="stroke: black; stroke-linecap:round; stroke-width:0.25; stroke-dasharray:3,3;"/>
<line x1="95.900000" y1="205.000000" x2="100.900000" y2="205.000000"  style="stroke: black; stroke-linecap:round; stroke-width:0.25; stroke-dasharray:3,3;"/>
<line x1="129.925000" y1="205.000000" x2="137.900000" y2="205.000000"  style="stroke: black; stroke-linecap:round; stroke-width:0.25; stroke-dasharray:3,3;"/>
<text x="100.900000" y="207.000000" font-family="Arial" font-size="7">pow2(0)</text>
<rect x="85.000000" y="257.000000" width="25.800000" height="24.000000" rx="0" ry="0" style="stroke:none;fill:#cccccc;"/>
<rect x="84.000000" y="256.000000" width="25.800000" height="24.000000" rx="0" ry="0" style="stroke:none;fill:#f44800;"/>
<text x="96.900000" y="270.000000" font-family="Arial" font-size="7" text-anchor="middle" fill="#FFFFFF">44.1</text>
<circle cx="86.000000" cy="258.000000" r="1"/>
<a xlink:href="SR-0x6000003ba520.svg">
<rect x="85.900000" y="289.000000" width="24.000000" height="24.000000" rx="0" ry="0" style="stroke:none;fill:#cccccc;"/>
<rect x="84.900000" y="288.000000" width="24.000000" height="24.000000" rx="0" ry="0" style="stroke:none;fill:#003366;"/>
</a>
<a xlink:href="SR-0x6000003ba520.svg">
<text x="96.900000" y="302.000000" font-family="Arial" font-size="7" text-anchor="middle" fill="#FFFFFF">SR</text>
</a>
<circle cx="86.900000" cy="290.000000" r="1"/>
<rect x="126.800000" y="273.000000" width="24.000000" height="24.000000" rx="0" ry="0" style="stroke:none;fill:#cccccc;"/>
<rect x="125.800000" y="272.000000" width="24.000000" height="24.000000" rx="0" ry="0" style="stroke:none;fill:#4B71A1;"/>
<text x="137.800000" y="286.000000" font-family="Arial" font-size="7" text-anchor="middle" fill="#FFFFFF">/</text>
<circle cx="127.800000" cy="274.000000" r="1"/>
<line x1="122.800000" y1="279.000000" x2="125.800000" y2="280.000000"  transform="rotate(0.000000,125.800000,280.000000)" style="stroke: black; stroke-width:0.25;"/>
<line x1="122.800000" y1="281.000000" x2="125.800000" y2="280.000000"  transform="rotate(0.000000,125.800000,280.000000)" style="stroke: black; stroke-width:0.25;"/>
<line x1="122.800000" y1="287.000000" x2="125.800000" y2="288.000000"  transform="rotate(0.000000,125.800000,288.000000)" style="stroke: black; stroke-width:0.25;"/>
<line x1="122.800000" y1="289.000000" x2="125.800000" y2="288.000000"  transform="rotate(0.000000,125.800000,288.000000)" style="stroke: black; stroke-width:0.25;"/>
<rect x="166.800000" y="247.000000" width="24.000000" height="24.000000" rx="0" ry="0" style="stroke:none;fill:#cccccc;"/>
<rect x="165.800000" y="246.000000" width="24.000000" height="24.000000" rx="0" ry="0" style="stroke:none;fill:#4B71A1;"/>
<text x="177.800000" y="260.000000" font-family="Arial" font-size="7" text-anchor="middle" fill="#FFFFFF">-</text>
<circle cx="167.800000" cy="248.000000" r="1"/>
<line x1="162.800000" y1="253.000000" x2="165.800000" y2="254.000000"  transform="rotate(0.000000,165.800000,254.000000)" style="stroke: black; stroke-width:0.25;"/>
<line x1="162.800000" y1="255.000000" x2="165.800000" y2="254.000000"  transform="rotate(0.000000,165.800000,254.000000)" style="stroke: black; stroke-width:0.25;"/>
<line x1="162.800000" y1="261.000000" x2="165.800000" y2="262.000000"  transform="rotate(0.000000,165.800000,262.000000)" style="stroke: black; stroke-width:0.25;"/>
<line x1="162.800000" y1="263.000000" x2="165.800000" y2="262.000000"  transform="rotate(0.000000,165.800000,262.000000)" style="stroke: black; stroke-width:0.25;"/>
<rect x="125.900000" y="321.000000" width="24.000000" height="24.000000" rx="0" ry="0" style="stroke:none;fill:#cccccc;"/>
<rect x="124.900000" y="320.000000" width="24.000000" height="24.000000" rx="0" ry="0" style="stroke:none;fill:#47945E;"/>
<text x="136.900000" y="334.000000" font-family="Arial" font-size="7" text-anchor="middle" fill="#FFFFFF">y</text>
<circle cx="126.900000" cy="322.000000" r="1"/>
<rect x="206.800000" y="263.000000" width="24.000000" height="24.000000" rx="0" ry="0" style="stroke:none;fill:#cccccc;"/>
<rect x="205.800000" y="262.000000" width="24.000000" height="24.000000" rx="0" ry="0" style="stroke:none;fill:#4B71A1;"/>
<text x="217.800000" y="276.000000" font-family="Arial" font-size="7" text-anchor="middle" fill="#FFFFFF">*</text>
<circle cx="207.800000" cy="264.000000" r="1"/>
<line x1="202.800000" y1="269.000000" x2="205.800000" y2="270.000000"  transform="rotate(0.000000,205.800000,270.000000)" style="stroke: black; stroke-width:0.25;"/>
<line x1="202.800000" y1="271.000000" x2="205.800000" y2="270.000000"  transform="rotate(0.000000,205.800000,270.000000)" style="stroke: black; stroke-width:0.25;"/>
<line x1="202.800000" y1="277.000000" x2="205.800000" y2="278.000000"  transform="rotate(0.000000,205.800000,278.000000)" style="stroke: black; stroke-width:0.25;"/>
<line x1="202.800000" y1="279.000000" x2="205.800000" y2="278.000000"  transform="rotate(0.000000,205.800000,278.000000)" style="stroke: black; stroke-width:0.25;"/>
<rect x="266.800000" y="173.000000" width="24.000000" height="24.000000" rx="0" ry="0" style="stroke:none;fill:#cccccc;"/>
<rect x="265.800000" y="172.000000" width="24.000000" height="24.000000" rx="0" ry="0" style="stroke:none;fill:#4B71A1;"/>
<text x="277.800000" y="186.000000" font-family="Arial" font-size="7" text-anchor="middle" fill="#FFFFFF">+</text>
<circle cx="267.800000" cy="174.000000" r="1"/>
<line x1="262.800000" y1="179.000000" x2="265.800000" y2="180.000000"  transform="rotate(0.000000,265.800000,180.000000)" style="stroke: black; stroke-width:0.25;"/>
<line x1="262.800000" y1="181.000000" x2="265.800000" y2="180.000000"  transform="rotate(0.000000,265.800000,180.000000)" style="stroke: black; stroke-width:0.25;"/>
<line x1="262.800000" y1="187.000000" x2="265.800000" y2="188.000000"  transform="rotate(0.000000,265.800000,188.000000)" style="stroke: black; stroke-width:0.25;"/>
<line x1="262.800000" y1="189.000000" x2="265.800000" y2="188.000000"  transform="rotate(0.000000,265.800000,188.000000)" style="stroke: black; stroke-width:0.25;"/>
<line x1="15.000000" y1="15.000000" x2="15.000000" y2="353.000000"  style="stroke: black; stroke-linecap:round; stroke-width:0.25; stroke-dasharray:3,3;"/>
<line x1="15.000000" y1="353.000000" x2="306.800000" y2="353.000000"  style="stroke: black; stroke-linecap:round; stroke-width:0.25; stroke-dasharray:3,3;"/>
<line x1="306.800000" y1="353.000000" x2="306.800000" y2="15.000000"  style="stroke: black; stroke-linecap:round; stroke-width:0.25; stroke-dasharray:3,3;"/>
<line x1="15.000000" y1="15.000000" x2="20.000000" y2="15.000000"  style="stroke: black; stroke-linecap:round; stroke-width:0.25; stroke-dasharray:3,3;"/>
<line x1="32.900000" y1="15.000000" x2="306.800000" y2="15.000000"  style="stroke: black; stroke-linecap:round; stroke-width:0.25; stroke-dasharray:3,3;"/>
<text x="20.000000" y="17.000000" font-family="Arial" font-size="7">fb</text>
<line x1="308.800000" y1="183.000000" x2="311.800000" y2="184.000000"  transform="rotate(0.000000,311.800000,184.000000)" style="stroke: black; stroke-width:0.25;"/>
<line x1="308.800000" y1="185.000000" x2="311.800000" y2="184.000000"  transform="rotate(0.000000,311.800000,184.000000)" style="stroke: black; stroke-width:0.25;"/>
<line x1="10.000000" y1="184.000000" x2="20.000000" y2="184.000000"  style="stroke:black; stroke-linecap:round; stroke-width:0.25;"/>
<line x1="20.000000" y1="184.000000" x2="24.000000" y2="184.000000"  style="stroke:black; stroke-linecap:round; stroke-width:0.25;"/>
<line x1="24.000000" y1="184.000000" x2="28.000000" y2="184.000000"  style="stroke:black; stroke-linecap:round; stroke-width:0.25;"/>
<line x1="28.000000" y1="184.000000" x2="28.000000" y2="184.000000"  style="stroke:black; stroke-linecap:round; stroke-width:0.25;"/>
<line x1="28.000000" y1="184.000000" x2="32.000000" y2="184.000000"  style="stroke:black; stroke-linecap:round; stroke-width:0.25;"/>
<line x1="88.900000" y1="152.000000" x2="92.900000" y2="152.000000"  style="stroke:black; stroke-linecap:round; stroke-width:0.25;"/>
<line x1="89.800000" y1="120.000000" x2="93.800000" y2="120.000000"  style="stroke:black; stroke-linecap:round; stroke-width:0.25;"/>
<line x1="92.900000" y1="152.000000" x2="93.800000" y2="152.000000"  style="stroke:black; stroke-linecap:round; stroke-width:0.25;"/>
<line x1="93.800000" y1="120.000000" x2="101.800000" y2="120.000000"  style="stroke:black; stroke-linecap:round; stroke-width:0.25;"/>
<line x1="93.800000" y1="140.000000" x2="101.800000" y2="140.000000"  style="stroke:black; stroke-linecap:round; stroke-width:0.25;"/>
<line x1="93.800000" y1="152.000000" x2="93.800000" y2="140.000000"  style="stroke:black; stroke-linecap:round; stroke-width:0.25;"/>
<line x1="93.800000" y1="152.000000" x2="93.800000" y2="152.000000"  style="stroke:black; stroke-linecap:round; stroke-width:0.25;"/>
<line x1="101.800000" y1="120.000000" x2="101.800000" y2="132.000000"  style="stroke:black; stroke-linecap:round; stroke-width:0.25;"/>
<line x1="101.800000" y1="132.000000" x2="101.800000" y2="132.000000"  style="stroke:black; stroke-linecap:round; stroke-width:0.25;"/>
<line x1="101.800000" y1="132.000000" x2="105.800000" y2="132.000000"  style="stroke:black; stroke-linecap:round; stroke-width:0.25;"/>
<line x1="101.800000" y1="140.000000" x2="105.800000" y2="140.000000"  style="stroke:black; stroke-linecap:round; stroke-width:0.25;"/>
<line x1="108.900000" y1="78.000000" x2="112.900000" y2="78.000000"  style="stroke:black; stroke-linecap:round; stroke-width:0.25;"/>
<line x1="108.900000" y1="300.000000" x2="112.900000" y2="300.000000"  style="stroke:black; stroke-linecap:round; stroke-width:0.25;"/>
<line x1="109.800000" y1="268.000000" x2="113.800000" y2="268.000000"  style="stroke:black; stroke-linecap:round; stroke-width:0.25;"/>
<line x1="112.900000" y1="78.000000" x2="122.900000" y2="78.000000"  style="stroke:black; stroke-linecap:round; stroke-width:0.25;"/>
<line x1="112.900000" y1="300.000000" x2="113.800000" y2="300.000000"  style="stroke:black; stroke-linecap:round; stroke-width:0.25;"/>
<line x1="113.800000" y1="268.000000" x2="121.800000" y2="268.000000"  style="stroke:black; stroke-linecap:round; stroke-width:0.25;"/>
<line x1="113.800000" y1="288.000000" x2="121.800000" y2="288.000000"  style="stroke:black; stroke-linecap:round; stroke-width:0.25;"/>
<line x1="113.800000" y1="300.000000" x2="113.800000" y2="288.000000"  style="stroke:black; stroke-linecap:round; stroke-width:0.25;"/>
<line x1="113.800000" y1="300.000000" x2="113.800000" y2="300.000000"  style="stroke:black; stroke-linecap:round; stroke-width:0.25;"/>
<line x1="121.800000" y1="268.000000" x2="121.800000" y2="280.000000"  style="stroke:black; stroke-linecap:round; stroke-width:0.25;"/>
<line x1="121.800000" y1="280.000000" x2="121.800000" y2="280.000000"  style="stroke:black; stroke-linecap:round; stroke-width:0.25;"/>
<line x1="121.800000" y1="280.000000" x2="125.800000" y2="280.000000"  style="stroke:black; stroke-linecap:round; stroke-width:0.25;"/>
<line x1="121.800000" y1="288.000000" x2="125.800000" y2="288.000000"  style="stroke:black; stroke-linecap:round; stroke-width:0.25;"/>
<line x1="122.900000" y1="78.000000" x2="133.800000" y2="78.000000"  style="stroke:black; stroke-linecap:round; stroke-width:0.25;"/>
<line x1="128.900000" y1="36.000000" x2="132.900000" y2="36.000000"  style="stroke:black; stroke-linecap:round; stroke-width:0.25;"/>
<line x1="128.900000" y1="226.000000" x2="132.900000" y2="226.000000"  style="stroke:black; stroke-linecap:round; stroke-width:0.25;"/>
<line x1="129.800000" y1="136.000000" x2="133.800000" y2="136.000000"  style="stroke:black; stroke-linecap:round; stroke-width:0.25;"/>
<line x1="132.900000" y1="36.000000" x2="173.800000" y2="36.000000"  style="stroke:black; stroke-linecap:round; stroke-width:0.25;"/>
<line x1="132.900000" y1="226.000000" x2="142.900000" y2="226.000000"  style="stroke:black; stroke-linecap:round; stroke-width:0.25;"/>
<line x1="133.800000" y1="78.000000" x2="141.800000" y2="78.000000"  style="stroke:black; stroke-linecap:round; stroke-width:0.25;"/>
<line x1="133.800000" y1="114.000000" x2="141.800000" y2="114.000000"  style="stroke:black; stroke-linecap:round; stroke-width:0.25;"/>
<line x1="133.800000" y1="136.000000" x2="133.800000" y2="114.000000"  style="stroke:black; stroke-linecap:round; stroke-width:0.25;"/>
<line x1="133.800000" y1="136.000000" x2="133.800000" y2="136.000000"  style="stroke:black; stroke-linecap:round; stroke-width:0.25;"/>
<line x1="141.800000" y1="78.000000" x2="141.800000" y2="106.000000"  style="stroke:black; stroke-linecap:round; stroke-width:0.25;"/>
<line x1="141.800000" y1="106.000000" x2="141.800000" y2="106.000000"  style="stroke:black; stroke-linecap:round; stroke-width:0.25;"/>
<line x1="141.800000" y1="106.000000" x2="145.800000" y2="106.000000"  style="stroke:black; stroke-linecap:round; stroke-width:0.25;"/>
<line x1="141.800000" y1="114.000000" x2="145.800000" y2="114.000000"  style="stroke:black; stroke-linecap:round; stroke-width:0.25;"/>
<line x1="142.900000" y1="226.000000" x2="153.800000" y2="226.000000"  style="stroke:black; stroke-linecap:round; stroke-width:0.25;"/>
<line x1="148.900000" y1="184.000000" x2="152.900000" y2="184.000000"  style="stroke:black; stroke-linecap:round; stroke-width:0.25;"/>
<line x1="148.900000" y1="332.000000" x2="152.900000" y2="332.000000"  style="stroke:black; stroke-linecap:round; stroke-width:0.25;"/>
<line x1="149.800000" y1="284.000000" x2="153.800000" y2="284.000000"  style="stroke:black; stroke-linecap:round; stroke-width:0.25;"/>
<line x1="152.900000" y1="184.000000" x2="213.800000" y2="184.000000"  style="stroke:black; stroke-linecap:round; stroke-width:0.25;"/>
<line x1="152.900000" y1="332.000000" x2="193.800000" y2="332.000000"  style="stroke:black; stroke-linecap:round; stroke-width:0.25;"/>
<line x1="153.800000" y1="226.000000" x2="161.800000" y2="226.000000"  style="stroke:black; stroke-linecap:round; stroke-width:0.25;"/>
<line x1="153.800000" y1="262.000000" x2="161.800000" y2="262.000000"  style="stroke:black; stroke-linecap:round; stroke-width:0.25;"/>
<line x1="153.800000" y1="284.000000" x2="153.800000" y2="262.000000"  style="stroke:black; stroke-linecap:round; stroke-width:0.25;"/>
<line x1="153.800000" y1="284.000000" x2="153.800000" y2="284.000000"  style="stroke:black; stroke-linecap:round; stroke-width:0.25;"/>
<line x1="161.800000" y1="226.000000" x2="161.800000" y2="254.000000"  style="stroke:black; stroke-linecap:round; stroke-width:0.25;"/>
<line x1="161.800000" y1="254.000000" x2="161.800000" y2="254.000000"  style="stroke:black; stroke-linecap:round; stroke-width:0.25;"/>
<line x1="161.800000" y1="254.000000" x2="165.800000" y2="254.000000"  style="stroke:black; stroke-linecap:round; stroke-width:0.25;"/>
<line x1="161.800000" y1="262.000000" x2="165.800000" y2="262.000000"  style="stroke:black; stroke-linecap:round; stroke-width:0.25;"/>
<line x1="169.800000" y1="110.000000" x2="173.800000" y2="110.000000"  style="stroke:black; stroke-linecap:round; stroke-width:0.25;"/>
<line x1="173.800000" y1="36.000000" x2="181.800000" y2="36.000000"  style="stroke:black; stroke-linecap:round; stroke-width:0.25;"/>
<line x1="173.800000" y1="98.000000" x2="181.800000" y2="98.000000"  style="stroke:black; stroke-linecap:round; stroke-width:0.25;"/>
<line x1="173.800000" y1="110.000000" x2="173.800000" y2="98.000000"  style="stroke:black; stroke-linecap:round; stroke-width:0.25;"/>
<line x1="173.800000" y1="110.000000" x2="173.800000" y2="110.000000"  style="stroke:black; stroke-linecap:round; stroke-width:0.25;"/>
<line x1="181.800000" y1="36.000000" x2="181.800000" y2="90.000000"  style="stroke:black; stroke-linecap:round; stroke-width:0.25;"/>
<line x1="181.800000" y1="90.000000" x2="181.800000" y2="90.000000"  style="stroke:black; stroke-linecap:round; stroke-width:0.25;"/>
<line x1="181.800000" y1="90.000000" x2="185.800000" y2="90.000000"  style="stroke:black; stroke-linecap:round; stroke-width:0.25;"/>
<line x1="181.800000" y1="98.000000" x2="185.800000" y2="98.000000"  style="stroke:black; stroke-linecap:round; stroke-width:0.25;"/>
<line x1="189.800000" y1="258.000000" x2="193.800000" y2="258.000000"  style="stroke:black; stroke-linecap:round; stroke-width:0.25;"/>
<line x1="193.800000" y1="258.000000" x2="201.800000" y2="258.000000"  style="stroke:black; stroke-linecap:round; stroke-width:0.25;"/>
<line x1="193.800000" y1="278.000000" x2="201.800000" y2="278.000000"  style="stroke:black; stroke-linecap:round; stroke-width:0.25;"/>
<line x1="193.800000" y1="332.000000" x2="193.800000" y2="278.000000"  style="stroke:black; stroke-linecap:round; stroke-width:0.25;"/>
<line x1="193.800000" y1="332.000000" x2="193.800000" y2="332.000000"  style="stroke:black; stroke-linecap:round; stroke-width:0.25;"/>
<line x1="201.800000" y1="258.000000" x2="201.800000" y2="270.000000"  style="stroke:black; stroke-linecap:round; stroke-width:0.25;"/>
<line x1="201.800000" y1="270.000000" x2="201.800000" y2="270.000000"  style="stroke:black; stroke-linecap:round; stroke-width:0.25;"/>
<line x1="201.800000" y1="270.000000" x2="205.800000" y2="270.000000"  style="stroke:black; stroke-linecap:round; stroke-width:0.25;"/>
<line x1="201.800000" y1="278.000000" x2="205.800000" y2="278.000000"  style="stroke:black; stroke-linecap:round; stroke-width:0.25;"/>
<line x1="209.800000" y1="94.000000" x2="213.800000" y2="94.000000"  style="stroke:black; stroke-linecap:round; stroke-width:0.25;"/>
<line x1="213.800000" y1="94.000000" x2="221.800000" y2="94.000000"  style="stroke:black; stroke-linecap:round; stroke-width:0.25;"/>
<line x1="213.800000" y1="114.000000" x2="221.800000" y2="114.000000"  style="stroke:black; stroke-linecap:round; stroke-width:0.25;"/>
<line x1="213.800000" y1="184.000000" x2="213.800000" y2="114.000000"  style="stroke:black; stroke-linecap:round; stroke-width:0.25;"/>
<line x1="213.800000" y1="184.000000" x2="213.800000" y2="184.000000"  style="stroke:black; stroke-linecap:round; stroke-width:0.25;"/>
<line x1="221.800000" y1="94.000000" x2="221.800000" y2="106.000000"  style="stroke:black; stroke-linecap:round; stroke-width:0.25;"/>
<line x1="221.800000" y1="106.000000" x2="221.800000" y2="106.000000"  style="stroke:black; stroke-linecap:round; stroke-width:0.25;"/>
<line x1="221.800000" y1="106.000000" x2="225.800000" y2="106.000000"  style="stroke:black; stroke-linecap:round; stroke-width:0.25;"/>
<line x1="221.800000" y1="114.000000" x2="225.800000" y2="114.000000"  style="stroke:black; stroke-linecap:round; stroke-width:0.25;"/>
<line x1="229.800000" y1="274.000000" x2="233.800000" y2="274.000000"  style="stroke:black; stroke-linecap:round; stroke-width:0.25;"/>
<line x1="233.800000" y1="274.000000" x2="253.800000" y2="274.000000"  style="stroke:black; stroke-linecap:round; stroke-width:0.25;"/>
<line x1="249.800000" y1="110.000000" x2="253.800000" y2="110.000000"  style="stroke:black; stroke-linecap:round; stroke-width:0.25;"/>
<line x1="253.800000" y1="110.000000" x2="261.800000" y2="110.000000"  style="stroke:black; stroke-linecap:round; stroke-width:0.25;"/>
<line x1="253.800000" y1="188.000000" x2="261.800000" y2="188.000000"  style="stroke:black; stroke-linecap:round; stroke-width:0.25;"/>
<line x1="253.800000" y1="274.000000" x2="253.800000" y2="188.000000"  style="stroke:black; stroke-linecap:round; stroke-width:0.25;"/>
<line x1="253.800000" y1="274.000000" x2="253.800000" y2="274.000000"  style="stroke:black; stroke-linecap:round; stroke-width:0.25;"/>
<line x1="261.800000" y1="110.000000" x2="261.800000" y2="180.000000"  style="stroke:black; stroke-linecap:round; stroke-width:0.25;"/>
<line x1="261.800000" y1="180.000000" x2="261.800000" y2="180.000000"  style="stroke:black; stroke-linecap:round; stroke-width:0.25;"/>
<line x1="261.800000" y1="180.000000" x2="265.800000" y2="180.000000"  style="stroke:black; stroke-linecap:round; stroke-width:0.25;"/>
<line x1="261.800000" y1="188.000000" x2="265.800000" y2="188.000000"  style="stroke:black; stroke-linecap:round; stroke-width:0.25;"/>
<line x1="289.800000" y1="184.000000" x2="293.800000" y2="184.000000"  style="stroke:black; stroke-linecap:round; stroke-width:0.25;"/>
<line x1="293.800000" y1="184.000000" x2="293.800000" y2="184.000000"  style="stroke:black; stroke-linecap:round; stroke-width:0.25;"/>
<line x1="293.800000" y1="184.000000" x2="297.800000" y2="184.000000"  style="stroke:black; stroke-linecap:round; stroke-width:0.25;"/>
<line x1="297.800000" y1="184.000000" x2="301.800000" y2="184.000000"  style="stroke:black; stroke-linecap:round; stroke-width:0.25;"/>
<line x1="301.800000" y1="184.000000" x2="311.800000" y2="184.000000"  style="stroke:black; stroke-linecap:round; stroke-width:0.25;"/>
</svg>
