<?xml version="1.0"?>
<svg xmlns="http://www.w3.org/2000/svg" xmlns:xlink="http://www.w3.org/1999/xlink" viewBox="0 0 240.000000 200.000000" width="120.000000mm" height="100.000000mm" version="1.1">
<a xlink:href="g-0x60014c3f86c0.svg">
<rect x="1.000000" y="1.000000" width="239.000000" height="199.000000" rx="0" ry="0" style="stroke:none;fill:#cccccc;"/>
<rect x="0.000000" y="0.000000" width="239.000000" height="199.000000" rx="0" ry="0" style="stroke:none;fill:#ffffff;"/>
</a>
<text x="10.000000" y="7.000000" font-family="Arial" font-size="7"></text>
<a xlink:href="t-0x6000040b1cb0.svg">
<rect x="25.000000" y="25.000000" width="24.000000" height="24.000000" rx="0" ry="0" style="stroke:none;fill:#cccccc;"/>
<rect x="24.000000" y="24.000000" width="24.000000" height="24.000000" rx="0" ry="0" style="stroke:none;fill:#003366;"/>
</a>
<a xlink:href="t-0x6000040b1cb0.svg">
<text x="36.000000" y="38.000000" font-family="Arial" font-size="7" text-anchor="middle" fill="#FFFFFF">t</text>
</a>
<circle cx="26.000000" cy="26.000000" r="1"/>
<a xlink:href="b-0x6000040b29a0.svg">
<rect x="25.000000" y="57.000000" width="24.000000" height="24.000000" rx="0" ry="0" style="stroke:none;fill:#cccccc;"/>
<rect x="24.000000" y="56.000000" width="24.000000" height="24.000000" rx="0" ry="0" style="stroke:none;fill:#003366;"/>
</a>
<a xlink:href="b-0x6000040b29a0.svg">
<text x="36.000000" y="70.000000" font-family="Arial" font-size="7" text-anchor="middle" fill="#FFFFFF">b</text>
</a>
<circle cx="26.000000" cy="58.000000" r="1"/>
<rect x="65.000000" y="41.000000" width="24.000000" height="24.000000" rx="0" ry="0" style="stroke:none;fill:#cccccc;"/>
<rect x="64.000000" y="40.000000" width="24.000000" height="24.000000" rx="0" ry="0" style="stroke:none;fill:#4B71A1;"/>
<text x="76.000000" y="54.000000" font-family="Arial" font-size="7" text-anchor="middle" fill="#FFFFFF">/</text>
<circle cx="66.000000" cy="42.000000" r="1"/>
<line x1="61.000000" y1="47.000000" x2="64.000000" y2="48.000000"  transform="rotate(0.000000,64.000000,48.000000)" style="stroke: black; stroke-width:0.25;"/>
<line x1="61.000000" y1="49.000000" x2="64.000000" y2="48.000000"  transform="rotate(0.000000,64.000000,48.000000)" style="stroke: black; stroke-width:0.25;"/>
<line x1="61.000000" y1="55.000000" x2="64.000000" y2="56.000000"  transform="rotate(0.000000,64.000000,56.000000)" style="stroke: black; stroke-width:0.25;"/>
<line x1="61.000000" y1="57.000000" x2="64.000000" y2="56.000000"  transform="rotate(0.000000,64.000000,56.000000)" style="stroke: black; stroke-width:0.25;"/>
<rect x="37.650000" y="89.000000" width="38.700000" height="24.000000" rx="0" ry="0" style="stroke:none;fill:#cccccc;"/>
<rect x="36.650000" y="88.000000" width="38.700000" height="24.000000" rx="0" ry="0" style="stroke:none;fill:#f44800;"/>
<text x="56.000000" y="102.000000" font-family="Arial" font-size="7" text-anchor="middle" fill="#FFFFFF">0.166667</text>
<circle cx="38.650000" cy="90.000000" r="1"/>
<rect x="105.000000" y="57.000000" width="24.000000" height="24.000000" rx="0" ry="0" style="stroke:none;fill:#cccccc;"/>
<rect x="104.000000" y="56.000000" width="24.000000" height="24.000000" rx="0" ry="0" style="stroke:none;fill:#4B71A1;"/>
<text x="116.000000" y="70.000000" font-family="Arial" font-size="7" text-anchor="middle" fill="#FFFFFF">pow</text>
<circle cx="106.000000" cy="58.000000" r="1"/>
<line x1="101.000000" y1="63.000000" x2="104.000000" y2="64.000000"  transform="rotate(0.000000,104.000000,64.000000)" style="stroke: black; stroke-width:0.25;"/>
<line x1="101.000000" y1="65.000000" x2="104.000000" y2="64.000000"  transform="rotate(0.000000,104.000000,64.000000)" style="stroke: black; stroke-width:0.25;"/>
<line x1="101.000000" y1="71.000000" x2="104.000000" y2="72.000000"  transform="rotate(0.000000,104.000000,72.000000)" style="stroke: black; stroke-width:0.25;"/>
<line x1="101.000000" y1="73.000000" x2="104.000000" y2="72.000000"  transform="rotate(0.000000,104.000000,72.000000)" style="stroke: black; stroke-width:0.25;"/>
<rect x="65.000000" y="121.000000" width="24.000000" height="24.000000" rx="0" ry="0" style="stroke:none;fill:#cccccc;"/>
<rect x="64.000000" y="120.000000" width="24.000000" height="24.000000" rx="0" ry="0" style="stroke:none;fill:#f44800;"/>
<text x="76.000000" y="134.000000" font-family="Arial" font-size="7" text-anchor="middle" fill="#FFFFFF">6</text>
<circle cx="66.000000" cy="122.000000" r="1"/>
<rect x="145.000000" y="73.000000" width="24.000000" height="24.000000" rx="0" ry="0" style="stroke:none;fill:#cccccc;"/>
<rect x="144.000000" y="72.000000" width="24.000000" height="24.000000" rx="0" ry="0" style="stroke:none;fill:#4B71A1;"/>
<text x="156.000000" y="86.000000" font-family="Arial" font-size="7" text-anchor="middle" fill="#FFFFFF">pow</text>
<circle cx="146.000000" cy="74.000000" r="1"/>
<line x1="141.000000" y1="79.000000" x2="144.000000" y2="80.000000"  transform="rotate(0.000000,144.000000,80.000000)" style="stroke: black; stroke-width:0.25;"/>
<line x1="141.000000" y1="81.000000" x2="144.000000" y2="80.000000"  transform="rotate(0.000000,144.000000,80.000000)" style="stroke: black; stroke-width:0.25;"/>
<line x1="141.000000" y1="87.000000" x2="144.000000" y2="88.000000"  transform="rotate(0.000000,144.000000,88.000000)" style="stroke: black; stroke-width:0.25;"/>
<line x1="141.000000" y1="89.000000" x2="144.000000" y2="88.000000"  transform="rotate(0.000000,144.000000,88.000000)" style="stroke: black; stroke-width:0.25;"/>
<a xlink:href="b-0x6000040b29a0.svg">
<rect x="85.000000" y="153.000000" width="24.000000" height="24.000000" rx="0" ry="0" style="stroke:none;fill:#cccccc;"/>
<rect x="84.000000" y="152.000000" width="24.000000" height="24.000000" rx="0" ry="0" style="stroke:none;fill:#003366;"/>
</a>
<a xlink:href="b-0x6000040b29a0.svg">
<text x="96.000000" y="166.000000" font-family="Arial" font-size="7" text-anchor="middle" fill="#FFFFFF">b</text>
</a>
<circle cx="86.000000" cy="154.000000" r="1"/>
<rect x="185.000000" y="89.000000" width="24.000000" height="24.000000" rx="0" ry="0" style="stroke:none;fill:#cccccc;"/>
<rect x="184.000000" y="88.000000" width="24.000000" height="24.000000" rx="0" ry="0" style="stroke:none;fill:#4B71A1;"/>
<text x="196.000000" y="102.000000" font-family="Arial" font-size="7" text-anchor="middle" fill="#FFFFFF">*</text>
<circle cx="186.000000" cy="90.000000" r="1"/>
<line x1="181.000000" y1="95.000000" x2="184.000000" y2="96.000000"  transform="rotate(0.000000,184.000000,96.000000)" style="stroke: black; stroke-width:0.25;"/>
<line x1="181.000000" y1="97.000000" x2="184.000000" y2="96.000000"  transform="rotate(0.000000,184.000000,96.000000)" style="stroke: black; stroke-width:0.25;"/>
<line x1="181.000000" y1="103.000000" x2="184.000000" y2="104.000000"  transform="rotate(0.000000,184.000000,104.000000)" style="stroke: black; stroke-width:0.25;"/>
<line x1="181.000000" y1="105.000000" x2="184.000000" y2="104.000000"  transform="rotate(0.000000,184.000000,104.000000)" style="stroke: black; stroke-width:0.25;"/>
<line x1="15.000000" y1="15.000000" x2="15.000000" y2="185.000000"  style="stroke: black; stroke-linecap:round; stroke-width:0.25; stroke-dasharray:3,3;"/>
<line x1="15.000000" y1="185.000000" x2="225.000000" y2="185.000000"  style="stroke: black; stroke-linecap:round; stroke-width:0.25; stroke-dasharray:3,3;"/>
<line x1="225.000000" y1="185.000000" x2="225.000000" y2="15.000000"  style="stroke: black; stroke-linecap:round; stroke-width:0.25; stroke-dasharray:3,3;"/>
<line x1="15.000000" y1="15.000000" x2="20.000000" y2="15.000000"  style="stroke: black; stroke-linecap:round; stroke-width:0.25; stroke-dasharray:3,3;"/>
<line x1="42.575000" y1="15.000000" x2="225.000000" y2="15.000000"  style="stroke: black; stroke-linecap:round; stroke-width:0.25; stroke-dasharray:3,3;"/>
<text x="20.000000" y="17.000000" font-family="Arial" font-size="7">fc(7)</text>
<line x1="227.000000" y1="99.000000" x2="230.000000" y2="100.000000"  transform="rotate(0.000000,230.000000,100.000000)" style="stroke: black; stroke-width:0.25;"/>
<line x1="227.000000" y1="101.000000" x2="230.000000" y2="100.000000"  transform="rotate(0.000000,230.000000,100.000000)" style="stroke: black; stroke-width:0.25;"/>
<line x1="48.000000" y1="36.000000" x2="52.000000" y2="36.000000"  style="stroke:black; stroke-linecap:round; stroke-width:0.25;"/>
<line x1="48.000000" y1="68.000000" x2="52.000000" y2="68.000000"  style="stroke:black; stroke-linecap:round; stroke-width:0.25;"/>
<line x1="52.000000" y1="36.000000" x2="60.000000" y2="36.000000"  style="stroke:black; stroke-linecap:round; stroke-width:0.25;"/>
<line x1="52.000000" y1="56.000000" x2="60.000000" y2="56.000000"  style="stroke:black; stroke-linecap:round; stroke-width:0.25;"/>
<line x1="52.000000" y1="68.000000" x2="52.000000" y2="56.000000"  style="stroke:black; stroke-linecap:round; stroke-width:0.25;"/>
<line x1="52.000000" y1="68.000000" x2="52.000000" y2="68.000000"  style="stroke:black; stroke-linecap:round; stroke-width:0.25;"/>
<line x1="60.000000" y1="36.000000" x2="60.000000" y2="48.000000"  style="stroke:black; stroke-linecap:round; stroke-width:0.25;"/>
<line x1="60.000000" y1="48.000000" x2="60.000000" y2="48.000000"  style="stroke:black; stroke-linecap:round; stroke-width:0.25;"/>
<line x1="60.000000" y1="48.000000" x2="64.000000" y2="48.000000"  style="stroke:black; stroke-linecap:round; stroke-width:0.25;"/>
<line x1="60.000000" y1="56.000000" x2="64.000000" y2="56.000000"  style="stroke:black; stroke-linecap:round; stroke-width:0.25;"/>
<line x1="75.350000" y1="100.000000" x2="79.350000" y2="100.000000"  style="stroke:black; stroke-linecap:round; stroke-width:0.25;"/>
<line x1="79.350000" y1="100.000000" x2="92.000000" y2="100.000000"  style="stroke:black; stroke-linecap:round; stroke-width:0.25;"/>
<line x1="88.000000" y1="52.000000" x2="92.000000" y2="52.000000"  style="stroke:black; stroke-linecap:round; stroke-width:0.25;"/>
<line x1="88.000000" y1="132.000000" x2="92.000000" y2="132.000000"  style="stroke:black; stroke-linecap:round; stroke-width:0.25;"/>
<line x1="92.000000" y1="52.000000" x2="100.000000" y2="52.000000"  style="stroke:black; stroke-linecap:round; stroke-width:0.25;"/>
<line x1="92.000000" y1="72.000000" x2="100.000000" y2="72.000000"  style="stroke:black; stroke-linecap:round; stroke-width:0.25;"/>
<line x1="92.000000" y1="100.000000" x2="92.000000" y2="72.000000"  style="stroke:black; stroke-linecap:round; stroke-width:0.25;"/>
<line x1="92.000000" y1="100.000000" x2="92.000000" y2="100.000000"  style="stroke:black; stroke-linecap:round; stroke-width:0.25;"/>
<line x1="92.000000" y1="132.000000" x2="132.000000" y2="132.000000"  style="stroke:black; stroke-linecap:round; stroke-width:0.25;"/>
<line x1="100.000000" y1="52.000000" x2="100.000000" y2="64.000000"  style="stroke:black; stroke-linecap:round; stroke-width:0.25;"/>
<line x1="100.000000" y1="64.000000" x2="100.000000" y2="64.000000"  style="stroke:black; stroke-linecap:round; stroke-width:0.25;"/>
<line x1="100.000000" y1="64.000000" x2="104.000000" y2="64.000000"  style="stroke:black; stroke-linecap:round; stroke-width:0.25;"/>
<line x1="100.000000" y1="72.000000" x2="104.000000" y2="72.000000"  style="stroke:black; stroke-linecap:round; stroke-width:0.25;"/>
<line x1="108.000000" y1="164.000000" x2="112.000000" y2="164.000000"  style="stroke:black; stroke-linecap:round; stroke-width:0.25;"/>
<line x1="112.000000" y1="164.000000" x2="172.000000" y2="164.000000"  style="stroke:black; stroke-linecap:round; stroke-width:0.25;"/>
<line x1="128.000000" y1="68.000000" x2="132.000000" y2="68.000000"  style="stroke:black; stroke-linecap:round; stroke-width:0.25;"/>
<line x1="132.000000" y1="68.000000" x2="140.000000" y2="68.000000"  style="stroke:black; stroke-linecap:round; stroke-width:0.25;"/>
<line x1="132.000000" y1="88.000000" x2="140.000000" y2="88.000000"  style="stroke:black; stroke-linecap:round; stroke-width:0.25;"/>
<line x1="132.000000" y1="132.000000" x2="132.000000" y2="88.000000"  style="stroke:black; stroke-linecap:round; stroke-width:0.25;"/>
<line x1="132.000000" y1="132.000000" x2="132.000000" y2="132.000000"  style="stroke:black; stroke-linecap:round; stroke-width:0.25;"/>
<line x1="140.000000" y1="68.000000" x2="140.000000" y2="80.000000"  style="stroke:black; stroke-linecap:round; stroke-width:0.25;"/>
<line x1="140.000000" y1="80.000000" x2="140.000000" y2="80.000000"  style="stroke:black; stroke-linecap:round; stroke-width:0.25;"/>
<line x1="140.000000" y1="80.000000" x2="144.000000" y2="80.000000"  style="stroke:black; stroke-linecap:round; stroke-width:0.25;"/>
<line x1="140.000000" y1="88.000000" x2="144.000000" y2="88.000000"  style="stroke:black; stroke-linecap:round; stroke-width:0.25;"/>
<line x1="168.000000" y1="84.000000" x2="172.000000" y2="84.000000"  style="stroke:black; stroke-linecap:round; stroke-width:0.25;"/>
<line x1="172.000000" y1="84.000000" x2="180.000000" y2="84.000000"  style="stroke:black; stroke-linecap:round; stroke-width:0.25;"/>
<line x1="172.000000" y1="104.000000" x2="180.000000" y2="104.000000"  style="stroke:black; stroke-linecap:round; stroke-width:0.25;"/>
<line x1="172.000000" y1="164.000000" x2="172.000000" y2="104.000000"  style="stroke:black; stroke-linecap:round; stroke-width:0.25;"/>
<line x1="172.000000" y1="164.000000" x2="172.000000" y2="164.000000"  style="stroke:black; stroke-linecap:round; stroke-width:0.25;"/>
<line x1="180.000000" y1="84.000000" x2="180.000000" y2="96.000000"  style="stroke:black; stroke-linecap:round; stroke-width:0.25;"/>
<line x1="180.000000" y1="96.000000" x2="180.000000" y2="96.000000"  style="stroke:black; stroke-linecap:round; stroke-width:0.25;"/>
<line x1="180.000000" y1="96.000000" x2="184.000000" y2="96.000000"  style="stroke:black; stroke-linecap:round; stroke-width:0.25;"/>
<line x1="180.000000" y1="104.000000" x2="184.000000" y2="104.000000"  style="stroke:black; stroke-linecap:round; stroke-width:0.25;"/>
<line x1="208.000000" y1="100.000000" x2="212.000000" y2="100.000000"  style="stroke:black; stroke-linecap:round; stroke-width:0.25;"/>
<line x1="212.000000" y1="100.000000" x2="212.000000" y2="100.000000"  style="stroke:black; stroke-linecap:round; stroke-width:0.25;"/>
<line x1="212.000000" y1="100.000000" x2="216.000000" y2="100.000000"  style="stroke:black; stroke-linecap:round; stroke-width:0.25;"/>
<line x1="216.000000" y1="100.000000" x2="220.000000" y2="100.000000"  style="stroke:black; stroke-linecap:round; stroke-width:0.25;"/>
<line x1="220.000000" y1="100.000000" x2="230.000000" y2="100.000000"  style="stroke:black; stroke-linecap:round; stroke-width:0.25;"/>
</svg>
