<?xml version="1.0"?>
<svg xmlns="http://www.w3.org/2000/svg" xmlns:xlink="http://www.w3.org/1999/xlink" viewBox="0 0 457.200000 104.000000" width="228.600000mm" height="52.000000mm" version="1.1">
<a xlink:href="feedforward-0x6000b00ae6d0.svg">
<rect x="1.000000" y="1.000000" width="456.200000" height="103.000000" rx="0" ry="0" style="stroke:none;fill:#cccccc;"/>
<rect x="0.000000" y="0.000000" width="456.200000" height="103.000000" rx="0" ry="0" style="stroke:none;fill:#ffffff;"/>
</a>
<text x="10.000000" y="7.000000" font-family="Arial" font-size="7"></text>
<rect x="25.000000" y="25.000000" width="361.200000" height="24.000000" rx="0" ry="0" style="stroke:none;fill:#cccccc;"/>
<rect x="24.000000" y="24.000000" width="361.200000" height="24.000000" rx="0" ry="0" style="stroke:none;fill:#477881;"/>
<text x="204.600000" y="38.000000" font-family="Arial" font-size="7" text-anchor="middle" fill="#FFFFFF">vslider(v:soundsgood/t:expert/h:kneecomp/kneecomp ff-fb, 50.0f, 0.0f, 100.0f, 1.0f)</text>
<circle cx="26.000000" cy="26.000000" r="1"/>
<rect x="192.700000" y="57.000000" width="25.800000" height="24.000000" rx="0" ry="0" style="stroke:none;fill:#cccccc;"/>
<rect x="191.700000" y="56.000000" width="25.800000" height="24.000000" rx="0" ry="0" style="stroke:none;fill:#f44800;"/>
<text x="204.600000" y="70.000000" font-family="Arial" font-size="7" text-anchor="middle" fill="#FFFFFF">0.01</text>
<circle cx="193.700000" cy="58.000000" r="1"/>
<rect x="402.200000" y="41.000000" width="24.000000" height="24.000000" rx="0" ry="0" style="stroke:none;fill:#cccccc;"/>
<rect x="401.200000" y="40.000000" width="24.000000" height="24.000000" rx="0" ry="0" style="stroke:none;fill:#4B71A1;"/>
<text x="413.200000" y="54.000000" font-family="Arial" font-size="7" text-anchor="middle" fill="#FFFFFF">*</text>
<circle cx="403.200000" cy="42.000000" r="1"/>
<line x1="398.200000" y1="47.000000" x2="401.200000" y2="48.000000"  transform="rotate(0.000000,401.200000,48.000000)" style="stroke: black; stroke-width:0.25;"/>
<line x1="398.200000" y1="49.000000" x2="401.200000" y2="48.000000"  transform="rotate(0.000000,401.200000,48.000000)" style="stroke: black; stroke-width:0.25;"/>
<line x1="398.200000" y1="55.000000" x2="401.200000" y2="56.000000"  transform="rotate(0.000000,401.200000,56.000000)" style="stroke: black; stroke-width:0.25;"/>
<line x1="398.200000" y1="57.000000" x2="401.200000" y2="56.000000"  transform="rotate(0.000000,401.200000,56.000000)" style="stroke: black; stroke-width:0.25;"/>
<line x1="15.000000" y1="15.000000" x2="15.000000" y2="89.000000"  style="stroke: black; stroke-linecap:round; stroke-width:0.25; stroke-dasharray:3,3;"/>
<line x1="15.000000" y1="89.000000" x2="442.200000" y2="89.000000"  style="stroke: black; stroke-linecap:round; stroke-width:0.25; stroke-dasharray:3,3;"/>
<line x1="442.200000" y1="89.000000" x2="442.200000" y2="15.000000"  style="stroke: black; stroke-linecap:round; stroke-width:0.25; stroke-dasharray:3,3;"/>
<line x1="15.000000" y1="15.000000" x2="20.000000" y2="15.000000"  style="stroke: black; stroke-linecap:round; stroke-width:0.25; stroke-dasharray:3,3;"/>
<line x1="39.350000" y1="15.000000" x2="442.200000" y2="15.000000"  style="stroke: black; stroke-linecap:round; stroke-width:0.25; stroke-dasharray:3,3;"/>
<text x="20.000000" y="17.000000" font-family="Arial" font-size="7">fffb</text>
<line x1="444.200000" y1="51.000000" x2="447.200000" y2="52.000000"  transform="rotate(0.000000,447.200000,52.000000)" style="stroke: black; stroke-width:0.25;"/>
<line x1="444.200000" y1="53.000000" x2="447.200000" y2="52.000000"  transform="rotate(0.000000,447.200000,52.000000)" style="stroke: black; stroke-width:0.25;"/>
<line x1="217.500000" y1="68.000000" x2="221.500000" y2="68.000000"  style="stroke:black; stroke-linecap:round; stroke-width:0.25;"/>
<line x1="221.500000" y1="68.000000" x2="389.200000" y2="68.000000"  style="stroke:black; stroke-linecap:round; stroke-width:0.25;"/>
<line x1="385.200000" y1="36.000000" x2="389.200000" y2="36.000000"  style="stroke:black; stroke-linecap:round; stroke-width:0.25;"/>
<line x1="389.200000" y1="36.000000" x2="397.200000" y2="36.000000"  style="stroke:black; stroke-linecap:round; stroke-width:0.25;"/>
<line x1="389.200000" y1="56.000000" x2="397.200000" y2="56.000000"  style="stroke:black; stroke-linecap:round; stroke-width:0.25;"/>
<line x1="389.200000" y1="68.000000" x2="389.200000" y2="56.000000"  style="stroke:black; stroke-linecap:round; stroke-width:0.25;"/>
<line x1="389.200000" y1="68.000000" x2="389.200000" y2="68.000000"  style="stroke:black; stroke-linecap:round; stroke-width:0.25;"/>
<line x1="397.200000" y1="36.000000" x2="397.200000" y2="48.000000"  style="stroke:black; stroke-linecap:round; stroke-width:0.25;"/>
<line x1="397.200000" y1="48.000000" x2="397.200000" y2="48.000000"  style="stroke:black; stroke-linecap:round; stroke-width:0.25;"/>
<line x1="397.200000" y1="48.000000" x2="401.200000" y2="48.000000"  style="stroke:black; stroke-linecap:round; stroke-width:0.25;"/>
<line x1="397.200000" y1="56.000000" x2="401.200000" y2="56.000000"  style="stroke:black; stroke-linecap:round; stroke-width:0.25;"/>
<line x1="425.200000" y1="52.000000" x2="429.200000" y2="52.000000"  style="stroke:black; stroke-linecap:round; stroke-width:0.25;"/>
<line x1="429.200000" y1="52.000000" x2="429.200000" y2="52.000000"  style="stroke:black; stroke-linecap:round; stroke-width:0.25;"/>
<line x1="429.200000" y1="52.000000" x2="433.200000" y2="52.000000"  style="stroke:black; stroke-linecap:round; stroke-width:0.25;"/>
<line x1="433.200000" y1="52.000000" x2="437.200000" y2="52.000000"  style="stroke:black; stroke-linecap:round; stroke-width:0.25;"/>
<line x1="437.200000" y1="52.000000" x2="447.200000" y2="52.000000"  style="stroke:black; stroke-linecap:round; stroke-width:0.25;"/>
</svg>
