<?xml version="1.0"?>
<svg xmlns="http://www.w3.org/2000/svg" xmlns:xlink="http://www.w3.org/1999/xlink" viewBox="0 0 644.800000 196.000000" width="322.400000mm" height="98.000000mm" version="1.1">
<a xlink:href="g-0x600004050d80.svg">
<rect x="1.000000" y="1.000000" width="643.800000" height="195.000000" rx="0" ry="0" style="stroke:none;fill:#cccccc;"/>
<rect x="0.000000" y="0.000000" width="643.800000" height="195.000000" rx="0" ry="0" style="stroke:none;fill:#ffffff;"/>
</a>
<text x="10.000000" y="7.000000" font-family="Arial" font-size="7"></text>
<rect x="55.000000" y="35.000000" width="387.000000" height="24.000000" rx="0" ry="0" style="stroke:none;fill:#cccccc;"/>
<rect x="54.000000" y="34.000000" width="387.000000" height="24.000000" rx="0" ry="0" style="stroke:none;fill:#477881;"/>
<text x="247.500000" y="48.000000" font-family="Arial" font-size="7" text-anchor="middle" fill="#FFFFFF">vslider(v:soundsgood/t:expert/h:eq/h:side eq/eq side freq, 600.0f, 200.0f, 5000.0f, 1.0f)</text>
<circle cx="56.000000" cy="36.000000" r="1"/>
<line x1="45.000000" y1="25.000000" x2="45.000000" y2="67.000000"  style="stroke: black; stroke-linecap:round; stroke-width:0.25; stroke-dasharray:3,3;"/>
<line x1="45.000000" y1="67.000000" x2="450.000000" y2="67.000000"  style="stroke: black; stroke-linecap:round; stroke-width:0.25; stroke-dasharray:3,3;"/>
<line x1="450.000000" y1="67.000000" x2="450.000000" y2="25.000000"  style="stroke: black; stroke-linecap:round; stroke-width:0.25; stroke-dasharray:3,3;"/>
<line x1="45.000000" y1="25.000000" x2="50.000000" y2="25.000000"  style="stroke: black; stroke-linecap:round; stroke-width:0.25; stroke-dasharray:3,3;"/>
<line x1="95.150000" y1="25.000000" x2="450.000000" y2="25.000000"  style="stroke: black; stroke-linecap:round; stroke-width:0.25; stroke-dasharray:3,3;"/>
<text x="50.000000" y="27.000000" font-family="Arial" font-size="7">eq_side_freq</text>
<rect x="35.000000" y="87.000000" width="387.000000" height="24.000000" rx="0" ry="0" style="stroke:none;fill:#cccccc;"/>
<rect x="34.000000" y="86.000000" width="387.000000" height="24.000000" rx="0" ry="0" style="stroke:none;fill:#477881;"/>
<text x="227.500000" y="100.000000" font-family="Arial" font-size="7" text-anchor="middle" fill="#FFFFFF">vslider(v:soundsgood/t:expert/h:eq/h:side eq/eq side freq, 600.0f, 200.0f, 5000.0f, 1.0f)</text>
<circle cx="36.000000" cy="88.000000" r="1"/>
<line x1="25.000000" y1="77.000000" x2="25.000000" y2="119.000000"  style="stroke: black; stroke-linecap:round; stroke-width:0.25; stroke-dasharray:3,3;"/>
<line x1="25.000000" y1="119.000000" x2="430.000000" y2="119.000000"  style="stroke: black; stroke-linecap:round; stroke-width:0.25; stroke-dasharray:3,3;"/>
<line x1="430.000000" y1="119.000000" x2="430.000000" y2="77.000000"  style="stroke: black; stroke-linecap:round; stroke-width:0.25; stroke-dasharray:3,3;"/>
<line x1="25.000000" y1="77.000000" x2="30.000000" y2="77.000000"  style="stroke: black; stroke-linecap:round; stroke-width:0.25; stroke-dasharray:3,3;"/>
<line x1="75.150000" y1="77.000000" x2="430.000000" y2="77.000000"  style="stroke: black; stroke-linecap:round; stroke-width:0.25; stroke-dasharray:3,3;"/>
<text x="30.000000" y="79.000000" font-family="Arial" font-size="7">eq_side_freq</text>
<rect x="41.450000" y="139.000000" width="374.100000" height="24.000000" rx="0" ry="0" style="stroke:none;fill:#cccccc;"/>
<rect x="40.450000" y="138.000000" width="374.100000" height="24.000000" rx="0" ry="0" style="stroke:none;fill:#477881;"/>
<text x="227.500000" y="152.000000" font-family="Arial" font-size="7" text-anchor="middle" fill="#FFFFFF">vslider(v:soundsgood/t:expert/h:eq/h:side eq/eq side bandwidth, 1.0f, 0.5f, 4.0f, 0.5f)</text>
<circle cx="42.450000" cy="140.000000" r="1"/>
<line x1="31.450000" y1="129.000000" x2="31.450000" y2="171.000000"  style="stroke: black; stroke-linecap:round; stroke-width:0.25; stroke-dasharray:3,3;"/>
<line x1="31.450000" y1="171.000000" x2="423.550000" y2="171.000000"  style="stroke: black; stroke-linecap:round; stroke-width:0.25; stroke-dasharray:3,3;"/>
<line x1="423.550000" y1="171.000000" x2="423.550000" y2="129.000000"  style="stroke: black; stroke-linecap:round; stroke-width:0.25; stroke-dasharray:3,3;"/>
<line x1="31.450000" y1="129.000000" x2="36.450000" y2="129.000000"  style="stroke: black; stroke-linecap:round; stroke-width:0.25; stroke-dasharray:3,3;"/>
<line x1="84.825000" y1="129.000000" x2="423.550000" y2="129.000000"  style="stroke: black; stroke-linecap:round; stroke-width:0.25; stroke-dasharray:3,3;"/>
<text x="36.450000" y="131.000000" font-family="Arial" font-size="7">eq_side_width</text>
<rect x="448.000000" y="113.000000" width="24.000000" height="24.000000" rx="0" ry="0" style="stroke:none;fill:#cccccc;"/>
<rect x="447.000000" y="112.000000" width="24.000000" height="24.000000" rx="0" ry="0" style="stroke:none;fill:#4B71A1;"/>
<text x="459.000000" y="126.000000" font-family="Arial" font-size="7" text-anchor="middle" fill="#FFFFFF">*</text>
<circle cx="449.000000" cy="114.000000" r="1"/>
<line x1="444.000000" y1="119.000000" x2="447.000000" y2="120.000000"  transform="rotate(0.000000,447.000000,120.000000)" style="stroke: black; stroke-width:0.25;"/>
<line x1="444.000000" y1="121.000000" x2="447.000000" y2="120.000000"  transform="rotate(0.000000,447.000000,120.000000)" style="stroke: black; stroke-width:0.25;"/>
<line x1="444.000000" y1="127.000000" x2="447.000000" y2="128.000000"  transform="rotate(0.000000,447.000000,128.000000)" style="stroke: black; stroke-width:0.25;"/>
<line x1="444.000000" y1="129.000000" x2="447.000000" y2="128.000000"  transform="rotate(0.000000,447.000000,128.000000)" style="stroke: black; stroke-width:0.25;"/>
<rect x="488.000000" y="87.000000" width="24.000000" height="24.000000" rx="0" ry="0" style="stroke:none;fill:#cccccc;"/>
<rect x="487.000000" y="86.000000" width="24.000000" height="24.000000" rx="0" ry="0" style="stroke:none;fill:#4B71A1;"/>
<text x="499.000000" y="100.000000" font-family="Arial" font-size="7" text-anchor="middle" fill="#FFFFFF">+</text>
<circle cx="489.000000" cy="88.000000" r="1"/>
<line x1="484.000000" y1="93.000000" x2="487.000000" y2="94.000000"  transform="rotate(0.000000,487.000000,94.000000)" style="stroke: black; stroke-width:0.25;"/>
<line x1="484.000000" y1="95.000000" x2="487.000000" y2="94.000000"  transform="rotate(0.000000,487.000000,94.000000)" style="stroke: black; stroke-width:0.25;"/>
<line x1="484.000000" y1="101.000000" x2="487.000000" y2="102.000000"  transform="rotate(0.000000,487.000000,102.000000)" style="stroke: black; stroke-width:0.25;"/>
<line x1="484.000000" y1="103.000000" x2="487.000000" y2="102.000000"  transform="rotate(0.000000,487.000000,102.000000)" style="stroke: black; stroke-width:0.25;"/>
<rect x="528.000000" y="83.000000" width="25.800000" height="24.000000" rx="0" ry="0" style="stroke:none;fill:#cccccc;"/>
<rect x="527.000000" y="82.000000" width="25.800000" height="24.000000" rx="0" ry="0" style="stroke:none;fill:#f44800;"/>
<text x="539.900000" y="96.000000" font-family="Arial" font-size="7" text-anchor="middle" fill="#FFFFFF">8000</text>
<circle cx="529.000000" cy="84.000000" r="1"/>
<rect x="579.800000" y="87.000000" width="24.000000" height="24.000000" rx="0" ry="0" style="stroke:none;fill:#cccccc;"/>
<rect x="578.800000" y="86.000000" width="24.000000" height="24.000000" rx="0" ry="0" style="stroke:none;fill:#4B71A1;"/>
<text x="590.800000" y="100.000000" font-family="Arial" font-size="7" text-anchor="middle" fill="#FFFFFF">min</text>
<circle cx="580.800000" cy="88.000000" r="1"/>
<line x1="575.800000" y1="93.000000" x2="578.800000" y2="94.000000"  transform="rotate(0.000000,578.800000,94.000000)" style="stroke: black; stroke-width:0.25;"/>
<line x1="575.800000" y1="95.000000" x2="578.800000" y2="94.000000"  transform="rotate(0.000000,578.800000,94.000000)" style="stroke: black; stroke-width:0.25;"/>
<line x1="575.800000" y1="101.000000" x2="578.800000" y2="102.000000"  transform="rotate(0.000000,578.800000,102.000000)" style="stroke: black; stroke-width:0.25;"/>
<line x1="575.800000" y1="103.000000" x2="578.800000" y2="102.000000"  transform="rotate(0.000000,578.800000,102.000000)" style="stroke: black; stroke-width:0.25;"/>
<line x1="569.800000" y1="77.000000" x2="569.800000" y2="119.000000"  style="stroke: black; stroke-linecap:round; stroke-width:0.25; stroke-dasharray:3,3;"/>
<line x1="569.800000" y1="119.000000" x2="611.800000" y2="119.000000"  style="stroke: black; stroke-linecap:round; stroke-width:0.25; stroke-dasharray:3,3;"/>
<line x1="611.800000" y1="119.000000" x2="611.800000" y2="77.000000"  style="stroke: black; stroke-linecap:round; stroke-width:0.25; stroke-dasharray:3,3;"/>
<line x1="569.800000" y1="77.000000" x2="574.800000" y2="77.000000"  style="stroke: black; stroke-linecap:round; stroke-width:0.25; stroke-dasharray:3,3;"/>
<line x1="611.800000" y1="77.000000" x2="611.800000" y2="77.000000"  style="stroke: black; stroke-linecap:round; stroke-width:0.25; stroke-dasharray:3,3;"/>
<text x="574.800000" y="79.000000" font-family="Arial" font-size="7">parallelMin(2)</text>
<line x1="15.000000" y1="15.000000" x2="15.000000" y2="181.000000"  style="stroke: black; stroke-linecap:round; stroke-width:0.25; stroke-dasharray:3,3;"/>
<line x1="15.000000" y1="181.000000" x2="629.800000" y2="181.000000"  style="stroke: black; stroke-linecap:round; stroke-width:0.25; stroke-dasharray:3,3;"/>
<line x1="629.800000" y1="181.000000" x2="629.800000" y2="15.000000"  style="stroke: black; stroke-linecap:round; stroke-width:0.25; stroke-dasharray:3,3;"/>
<line x1="15.000000" y1="15.000000" x2="20.000000" y2="15.000000"  style="stroke: black; stroke-linecap:round; stroke-width:0.25; stroke-dasharray:3,3;"/>
<line x1="55.475000" y1="15.000000" x2="629.800000" y2="15.000000"  style="stroke: black; stroke-linecap:round; stroke-width:0.25; stroke-dasharray:3,3;"/>
<text x="20.000000" y="17.000000" font-family="Arial" font-size="7">freq_high</text>
<line x1="631.800000" y1="97.000000" x2="634.800000" y2="98.000000"  transform="rotate(0.000000,634.800000,98.000000)" style="stroke: black; stroke-width:0.25;"/>
<line x1="631.800000" y1="99.000000" x2="634.800000" y2="98.000000"  transform="rotate(0.000000,634.800000,98.000000)" style="stroke: black; stroke-width:0.25;"/>
<line x1="414.550000" y1="150.000000" x2="418.550000" y2="150.000000"  style="stroke:black; stroke-linecap:round; stroke-width:0.25;"/>
<line x1="418.550000" y1="150.000000" x2="428.550000" y2="150.000000"  style="stroke:black; stroke-linecap:round; stroke-width:0.25;"/>
<line x1="421.000000" y1="98.000000" x2="425.000000" y2="98.000000"  style="stroke:black; stroke-linecap:round; stroke-width:0.25;"/>
<line x1="425.000000" y1="98.000000" x2="435.000000" y2="98.000000"  style="stroke:black; stroke-linecap:round; stroke-width:0.25;"/>
<line x1="428.550000" y1="150.000000" x2="435.000000" y2="150.000000"  style="stroke:black; stroke-linecap:round; stroke-width:0.25;"/>
<line x1="435.000000" y1="98.000000" x2="443.000000" y2="98.000000"  style="stroke:black; stroke-linecap:round; stroke-width:0.25;"/>
<line x1="435.000000" y1="128.000000" x2="443.000000" y2="128.000000"  style="stroke:black; stroke-linecap:round; stroke-width:0.25;"/>
<line x1="435.000000" y1="150.000000" x2="435.000000" y2="128.000000"  style="stroke:black; stroke-linecap:round; stroke-width:0.25;"/>
<line x1="435.000000" y1="150.000000" x2="435.000000" y2="150.000000"  style="stroke:black; stroke-linecap:round; stroke-width:0.25;"/>
<line x1="441.000000" y1="46.000000" x2="445.000000" y2="46.000000"  style="stroke:black; stroke-linecap:round; stroke-width:0.25;"/>
<line x1="443.000000" y1="98.000000" x2="443.000000" y2="120.000000"  style="stroke:black; stroke-linecap:round; stroke-width:0.25;"/>
<line x1="443.000000" y1="120.000000" x2="443.000000" y2="120.000000"  style="stroke:black; stroke-linecap:round; stroke-width:0.25;"/>
<line x1="443.000000" y1="120.000000" x2="447.000000" y2="120.000000"  style="stroke:black; stroke-linecap:round; stroke-width:0.25;"/>
<line x1="443.000000" y1="128.000000" x2="447.000000" y2="128.000000"  style="stroke:black; stroke-linecap:round; stroke-width:0.25;"/>
<line x1="445.000000" y1="46.000000" x2="455.000000" y2="46.000000"  style="stroke:black; stroke-linecap:round; stroke-width:0.25;"/>
<line x1="455.000000" y1="46.000000" x2="475.000000" y2="46.000000"  style="stroke:black; stroke-linecap:round; stroke-width:0.25;"/>
<line x1="471.000000" y1="124.000000" x2="475.000000" y2="124.000000"  style="stroke:black; stroke-linecap:round; stroke-width:0.25;"/>
<line x1="475.000000" y1="46.000000" x2="483.000000" y2="46.000000"  style="stroke:black; stroke-linecap:round; stroke-width:0.25;"/>
<line x1="475.000000" y1="102.000000" x2="483.000000" y2="102.000000"  style="stroke:black; stroke-linecap:round; stroke-width:0.25;"/>
<line x1="475.000000" y1="124.000000" x2="475.000000" y2="102.000000"  style="stroke:black; stroke-linecap:round; stroke-width:0.25;"/>
<line x1="475.000000" y1="124.000000" x2="475.000000" y2="124.000000"  style="stroke:black; stroke-linecap:round; stroke-width:0.25;"/>
<line x1="483.000000" y1="46.000000" x2="483.000000" y2="94.000000"  style="stroke:black; stroke-linecap:round; stroke-width:0.25;"/>
<line x1="483.000000" y1="94.000000" x2="483.000000" y2="94.000000"  style="stroke:black; stroke-linecap:round; stroke-width:0.25;"/>
<line x1="483.000000" y1="94.000000" x2="487.000000" y2="94.000000"  style="stroke:black; stroke-linecap:round; stroke-width:0.25;"/>
<line x1="483.000000" y1="102.000000" x2="487.000000" y2="102.000000"  style="stroke:black; stroke-linecap:round; stroke-width:0.25;"/>
<line x1="511.000000" y1="98.000000" x2="515.000000" y2="98.000000"  style="stroke:black; stroke-linecap:round; stroke-width:0.25;"/>
<line x1="515.000000" y1="98.000000" x2="523.000000" y2="98.000000"  style="stroke:black; stroke-linecap:round; stroke-width:0.25;"/>
<line x1="523.000000" y1="98.000000" x2="523.000000" y2="114.000000"  style="stroke:black; stroke-linecap:round; stroke-width:0.25;"/>
<line x1="523.000000" y1="114.000000" x2="523.000000" y2="114.000000"  style="stroke:black; stroke-linecap:round; stroke-width:0.25;"/>
<line x1="523.000000" y1="114.000000" x2="539.900000" y2="114.000000"  style="stroke:black; stroke-linecap:round; stroke-width:0.25;"/>
<line x1="539.900000" y1="114.000000" x2="556.800000" y2="114.000000"  style="stroke:black; stroke-linecap:round; stroke-width:0.25;"/>
<line x1="552.800000" y1="94.000000" x2="556.800000" y2="94.000000"  style="stroke:black; stroke-linecap:round; stroke-width:0.25;"/>
<line x1="556.800000" y1="94.000000" x2="564.800000" y2="94.000000"  style="stroke:black; stroke-linecap:round; stroke-width:0.25;"/>
<line x1="556.800000" y1="102.000000" x2="564.800000" y2="102.000000"  style="stroke:black; stroke-linecap:round; stroke-width:0.25;"/>
<line x1="556.800000" y1="114.000000" x2="556.800000" y2="102.000000"  style="stroke:black; stroke-linecap:round; stroke-width:0.25;"/>
<line x1="556.800000" y1="114.000000" x2="556.800000" y2="114.000000"  style="stroke:black; stroke-linecap:round; stroke-width:0.25;"/>
<line x1="564.800000" y1="94.000000" x2="574.800000" y2="94.000000"  style="stroke:black; stroke-linecap:round; stroke-width:0.25;"/>
<line x1="564.800000" y1="102.000000" x2="574.800000" y2="102.000000"  style="stroke:black; stroke-linecap:round; stroke-width:0.25;"/>
<line x1="574.800000" y1="94.000000" x2="578.800000" y2="94.000000"  style="stroke:black; stroke-linecap:round; stroke-width:0.25;"/>
<line x1="574.800000" y1="102.000000" x2="578.800000" y2="102.000000"  style="stroke:black; stroke-linecap:round; stroke-width:0.25;"/>
<line x1="602.800000" y1="98.000000" x2="606.800000" y2="98.000000"  style="stroke:black; stroke-linecap:round; stroke-width:0.25;"/>
<line x1="606.800000" y1="98.000000" x2="616.800000" y2="98.000000"  style="stroke:black; stroke-linecap:round; stroke-width:0.25;"/>
<line x1="616.800000" y1="98.000000" x2="616.800000" y2="98.000000"  style="stroke:black; stroke-linecap:round; stroke-width:0.25;"/>
<line x1="616.800000" y1="98.000000" x2="620.800000" y2="98.000000"  style="stroke:black; stroke-linecap:round; stroke-width:0.25;"/>
<line x1="620.800000" y1="98.000000" x2="624.800000" y2="98.000000"  style="stroke:black; stroke-linecap:round; stroke-width:0.25;"/>
<line x1="624.800000" y1="98.000000" x2="634.800000" y2="98.000000"  style="stroke:black; stroke-linecap:round; stroke-width:0.25;"/>
</svg>
