<?xml version="1.0"?>
<svg xmlns="http://www.w3.org/2000/svg" xmlns:xlink="http://www.w3.org/1999/xlink" viewBox="0 0 476.800000 72.000000" width="238.400000mm" height="36.000000mm" version="1.1">
<a xlink:href="in-0x6000c41fb9f0.svg">
<rect x="1.000000" y="1.000000" width="475.800000" height="71.000000" rx="0" ry="0" style="stroke:none;fill:#cccccc;"/>
<rect x="0.000000" y="0.000000" width="475.800000" height="71.000000" rx="0" ry="0" style="stroke:none;fill:#ffffff;"/>
</a>
<text x="10.000000" y="7.000000" font-family="Arial" font-size="7"></text>
<rect x="25.000000" y="25.000000" width="374.100000" height="24.000000" rx="0" ry="0" style="stroke:none;fill:#cccccc;"/>
<rect x="24.000000" y="24.000000" width="374.100000" height="24.000000" rx="0" ry="0" style="stroke:none;fill:#477881;"/>
<text x="211.050000" y="38.000000" font-family="Arial" font-size="7" text-anchor="middle" fill="#FFFFFF">vslider(v:soundsgood/t:expert/h:pre-processing/input gain, 0.0f, -100.0f, 24.0f, 1.0f)</text>
<circle cx="26.000000" cy="26.000000" r="1"/>
<a xlink:href="db2linear-0x6000c416cc60.svg">
<rect x="407.100000" y="25.000000" width="38.700000" height="24.000000" rx="0" ry="0" style="stroke:none;fill:#cccccc;"/>
<rect x="406.100000" y="24.000000" width="38.700000" height="24.000000" rx="0" ry="0" style="stroke:none;fill:#003366;"/>
</a>
<a xlink:href="db2linear-0x6000c416cc60.svg">
<text x="425.450000" y="38.000000" font-family="Arial" font-size="7" text-anchor="middle" fill="#FFFFFF">db2linear</text>
</a>
<circle cx="408.100000" cy="26.000000" r="1"/>
<line x1="403.100000" y1="35.000000" x2="406.100000" y2="36.000000"  transform="rotate(0.000000,406.100000,36.000000)" style="stroke: black; stroke-width:0.25;"/>
<line x1="403.100000" y1="37.000000" x2="406.100000" y2="36.000000"  transform="rotate(0.000000,406.100000,36.000000)" style="stroke: black; stroke-width:0.25;"/>
<line x1="15.000000" y1="15.000000" x2="15.000000" y2="57.000000"  style="stroke: black; stroke-linecap:round; stroke-width:0.25; stroke-dasharray:3,3;"/>
<line x1="15.000000" y1="57.000000" x2="461.800000" y2="57.000000"  style="stroke: black; stroke-linecap:round; stroke-width:0.25; stroke-dasharray:3,3;"/>
<line x1="461.800000" y1="57.000000" x2="461.800000" y2="15.000000"  style="stroke: black; stroke-linecap:round; stroke-width:0.25; stroke-dasharray:3,3;"/>
<line x1="15.000000" y1="15.000000" x2="20.000000" y2="15.000000"  style="stroke: black; stroke-linecap:round; stroke-width:0.25; stroke-dasharray:3,3;"/>
<line x1="29.675000" y1="15.000000" x2="461.800000" y2="15.000000"  style="stroke: black; stroke-linecap:round; stroke-width:0.25; stroke-dasharray:3,3;"/>
<text x="20.000000" y="17.000000" font-family="Arial" font-size="7">g</text>
<line x1="463.800000" y1="35.000000" x2="466.800000" y2="36.000000"  transform="rotate(0.000000,466.800000,36.000000)" style="stroke: black; stroke-width:0.25;"/>
<line x1="463.800000" y1="37.000000" x2="466.800000" y2="36.000000"  transform="rotate(0.000000,466.800000,36.000000)" style="stroke: black; stroke-width:0.25;"/>
<line x1="398.100000" y1="36.000000" x2="402.100000" y2="36.000000"  style="stroke:black; stroke-linecap:round; stroke-width:0.25;"/>
<line x1="402.100000" y1="36.000000" x2="402.100000" y2="36.000000"  style="stroke:black; stroke-linecap:round; stroke-width:0.25;"/>
<line x1="402.100000" y1="36.000000" x2="406.100000" y2="36.000000"  style="stroke:black; stroke-linecap:round; stroke-width:0.25;"/>
<line x1="444.800000" y1="36.000000" x2="448.800000" y2="36.000000"  style="stroke:black; stroke-linecap:round; stroke-width:0.25;"/>
<line x1="448.800000" y1="36.000000" x2="448.800000" y2="36.000000"  style="stroke:black; stroke-linecap:round; stroke-width:0.25;"/>
<line x1="448.800000" y1="36.000000" x2="452.800000" y2="36.000000"  style="stroke:black; stroke-linecap:round; stroke-width:0.25;"/>
<line x1="452.800000" y1="36.000000" x2="456.800000" y2="36.000000"  style="stroke:black; stroke-linecap:round; stroke-width:0.25;"/>
<line x1="456.800000" y1="36.000000" x2="466.800000" y2="36.000000"  style="stroke:black; stroke-linecap:round; stroke-width:0.25;"/>
</svg>
