<?xml version="1.0"?>
<svg xmlns="http://www.w3.org/2000/svg" xmlns:xlink="http://www.w3.org/1999/xlink" viewBox="0 0 180.000000 176.000000" width="90.000000mm" height="88.000000mm" version="1.1">
<a xlink:href="A-0x6001483a8000.svg">
<rect x="1.000000" y="1.000000" width="179.000000" height="175.000000" rx="0" ry="0" style="stroke:none;fill:#cccccc;"/>
<rect x="0.000000" y="0.000000" width="179.000000" height="175.000000" rx="0" ry="0" style="stroke:none;fill:#ffffff;"/>
</a>
<text x="10.000000" y="7.000000" font-family="Arial" font-size="7"></text>
<rect x="35.000000" y="35.000000" width="24.000000" height="24.000000" rx="0" ry="0" style="stroke:none;fill:#cccccc;"/>
<rect x="34.000000" y="34.000000" width="24.000000" height="24.000000" rx="0" ry="0" style="stroke:none;fill:#f44800;"/>
<text x="46.000000" y="48.000000" font-family="Arial" font-size="7" text-anchor="middle" fill="#FFFFFF">0</text>
<circle cx="36.000000" cy="36.000000" r="1"/>
<line x1="25.000000" y1="25.000000" x2="25.000000" y2="67.000000"  style="stroke: black; stroke-linecap:round; stroke-width:0.25; stroke-dasharray:3,3;"/>
<line x1="25.000000" y1="67.000000" x2="67.000000" y2="67.000000"  style="stroke: black; stroke-linecap:round; stroke-width:0.25; stroke-dasharray:3,3;"/>
<line x1="67.000000" y1="67.000000" x2="67.000000" y2="25.000000"  style="stroke: black; stroke-linecap:round; stroke-width:0.25; stroke-dasharray:3,3;"/>
<line x1="25.000000" y1="25.000000" x2="30.000000" y2="25.000000"  style="stroke: black; stroke-linecap:round; stroke-width:0.25; stroke-dasharray:3,3;"/>
<line x1="62.250000" y1="25.000000" x2="67.000000" y2="25.000000"  style="stroke: black; stroke-linecap:round; stroke-width:0.25; stroke-dasharray:3,3;"/>
<text x="30.000000" y="27.000000" font-family="Arial" font-size="7">clipCond</text>
<rect x="35.000000" y="77.000000" width="24.000000" height="24.000000" rx="0" ry="0" style="stroke:none;fill:#cccccc;"/>
<rect x="34.000000" y="76.000000" width="24.000000" height="24.000000" rx="0" ry="0" style="stroke:none;fill:#47945E;"/>
<text x="46.000000" y="90.000000" font-family="Arial" font-size="7" text-anchor="middle" fill="#FFFFFF">g</text>
<circle cx="36.000000" cy="78.000000" r="1"/>
<rect x="85.000000" y="51.000000" width="24.000000" height="24.000000" rx="0" ry="0" style="stroke:none;fill:#cccccc;"/>
<rect x="84.000000" y="50.000000" width="24.000000" height="24.000000" rx="0" ry="0" style="stroke:none;fill:#4B71A1;"/>
<text x="96.000000" y="64.000000" font-family="Arial" font-size="7" text-anchor="middle" fill="#FFFFFF">-</text>
<circle cx="86.000000" cy="52.000000" r="1"/>
<line x1="81.000000" y1="57.000000" x2="84.000000" y2="58.000000"  transform="rotate(0.000000,84.000000,58.000000)" style="stroke: black; stroke-width:0.25;"/>
<line x1="81.000000" y1="59.000000" x2="84.000000" y2="58.000000"  transform="rotate(0.000000,84.000000,58.000000)" style="stroke: black; stroke-width:0.25;"/>
<line x1="81.000000" y1="65.000000" x2="84.000000" y2="66.000000"  transform="rotate(0.000000,84.000000,66.000000)" style="stroke: black; stroke-width:0.25;"/>
<line x1="81.000000" y1="67.000000" x2="84.000000" y2="66.000000"  transform="rotate(0.000000,84.000000,66.000000)" style="stroke: black; stroke-width:0.25;"/>
<rect x="55.000000" y="119.000000" width="24.000000" height="24.000000" rx="0" ry="0" style="stroke:none;fill:#cccccc;"/>
<rect x="54.000000" y="118.000000" width="24.000000" height="24.000000" rx="0" ry="0" style="stroke:none;fill:#f44800;"/>
<text x="66.000000" y="132.000000" font-family="Arial" font-size="7" text-anchor="middle" fill="#FFFFFF">3</text>
<circle cx="56.000000" cy="120.000000" r="1"/>
<line x1="45.000000" y1="109.000000" x2="45.000000" y2="151.000000"  style="stroke: black; stroke-linecap:round; stroke-width:0.25; stroke-dasharray:3,3;"/>
<line x1="45.000000" y1="151.000000" x2="87.000000" y2="151.000000"  style="stroke: black; stroke-linecap:round; stroke-width:0.25; stroke-dasharray:3,3;"/>
<line x1="87.000000" y1="151.000000" x2="87.000000" y2="109.000000"  style="stroke: black; stroke-linecap:round; stroke-width:0.25; stroke-dasharray:3,3;"/>
<line x1="45.000000" y1="109.000000" x2="50.000000" y2="109.000000"  style="stroke: black; stroke-linecap:round; stroke-width:0.25; stroke-dasharray:3,3;"/>
<line x1="62.900000" y1="109.000000" x2="87.000000" y2="109.000000"  style="stroke: black; stroke-linecap:round; stroke-width:0.25; stroke-dasharray:3,3;"/>
<text x="50.000000" y="111.000000" font-family="Arial" font-size="7">Tg</text>
<rect x="125.000000" y="77.000000" width="24.000000" height="24.000000" rx="0" ry="0" style="stroke:none;fill:#cccccc;"/>
<rect x="124.000000" y="76.000000" width="24.000000" height="24.000000" rx="0" ry="0" style="stroke:none;fill:#4B71A1;"/>
<text x="136.000000" y="90.000000" font-family="Arial" font-size="7" text-anchor="middle" fill="#FFFFFF">/</text>
<circle cx="126.000000" cy="78.000000" r="1"/>
<line x1="121.000000" y1="83.000000" x2="124.000000" y2="84.000000"  transform="rotate(0.000000,124.000000,84.000000)" style="stroke: black; stroke-width:0.25;"/>
<line x1="121.000000" y1="85.000000" x2="124.000000" y2="84.000000"  transform="rotate(0.000000,124.000000,84.000000)" style="stroke: black; stroke-width:0.25;"/>
<line x1="121.000000" y1="91.000000" x2="124.000000" y2="92.000000"  transform="rotate(0.000000,124.000000,92.000000)" style="stroke: black; stroke-width:0.25;"/>
<line x1="121.000000" y1="93.000000" x2="124.000000" y2="92.000000"  transform="rotate(0.000000,124.000000,92.000000)" style="stroke: black; stroke-width:0.25;"/>
<line x1="15.000000" y1="15.000000" x2="15.000000" y2="161.000000"  style="stroke: black; stroke-linecap:round; stroke-width:0.25; stroke-dasharray:3,3;"/>
<line x1="15.000000" y1="161.000000" x2="165.000000" y2="161.000000"  style="stroke: black; stroke-linecap:round; stroke-width:0.25; stroke-dasharray:3,3;"/>
<line x1="165.000000" y1="161.000000" x2="165.000000" y2="15.000000"  style="stroke: black; stroke-linecap:round; stroke-width:0.25; stroke-dasharray:3,3;"/>
<line x1="15.000000" y1="15.000000" x2="20.000000" y2="15.000000"  style="stroke: black; stroke-linecap:round; stroke-width:0.25; stroke-dasharray:3,3;"/>
<line x1="32.900000" y1="15.000000" x2="165.000000" y2="15.000000"  style="stroke: black; stroke-linecap:round; stroke-width:0.25; stroke-dasharray:3,3;"/>
<text x="20.000000" y="17.000000" font-family="Arial" font-size="7">g3</text>
<line x1="167.000000" y1="87.000000" x2="170.000000" y2="88.000000"  transform="rotate(0.000000,170.000000,88.000000)" style="stroke: black; stroke-width:0.25;"/>
<line x1="167.000000" y1="89.000000" x2="170.000000" y2="88.000000"  transform="rotate(0.000000,170.000000,88.000000)" style="stroke: black; stroke-width:0.25;"/>
<line x1="58.000000" y1="46.000000" x2="62.000000" y2="46.000000"  style="stroke:black; stroke-linecap:round; stroke-width:0.25;"/>
<line x1="58.000000" y1="88.000000" x2="62.000000" y2="88.000000"  style="stroke:black; stroke-linecap:round; stroke-width:0.25;"/>
<line x1="62.000000" y1="46.000000" x2="72.000000" y2="46.000000"  style="stroke:black; stroke-linecap:round; stroke-width:0.25;"/>
<line x1="62.000000" y1="88.000000" x2="72.000000" y2="88.000000"  style="stroke:black; stroke-linecap:round; stroke-width:0.25;"/>
<line x1="72.000000" y1="46.000000" x2="80.000000" y2="46.000000"  style="stroke:black; stroke-linecap:round; stroke-width:0.25;"/>
<line x1="72.000000" y1="66.000000" x2="80.000000" y2="66.000000"  style="stroke:black; stroke-linecap:round; stroke-width:0.25;"/>
<line x1="72.000000" y1="88.000000" x2="72.000000" y2="66.000000"  style="stroke:black; stroke-linecap:round; stroke-width:0.25;"/>
<line x1="72.000000" y1="88.000000" x2="72.000000" y2="88.000000"  style="stroke:black; stroke-linecap:round; stroke-width:0.25;"/>
<line x1="78.000000" y1="130.000000" x2="82.000000" y2="130.000000"  style="stroke:black; stroke-linecap:round; stroke-width:0.25;"/>
<line x1="80.000000" y1="46.000000" x2="80.000000" y2="58.000000"  style="stroke:black; stroke-linecap:round; stroke-width:0.25;"/>
<line x1="80.000000" y1="58.000000" x2="80.000000" y2="58.000000"  style="stroke:black; stroke-linecap:round; stroke-width:0.25;"/>
<line x1="80.000000" y1="58.000000" x2="84.000000" y2="58.000000"  style="stroke:black; stroke-linecap:round; stroke-width:0.25;"/>
<line x1="80.000000" y1="66.000000" x2="84.000000" y2="66.000000"  style="stroke:black; stroke-linecap:round; stroke-width:0.25;"/>
<line x1="82.000000" y1="130.000000" x2="92.000000" y2="130.000000"  style="stroke:black; stroke-linecap:round; stroke-width:0.25;"/>
<line x1="92.000000" y1="130.000000" x2="112.000000" y2="130.000000"  style="stroke:black; stroke-linecap:round; stroke-width:0.25;"/>
<line x1="108.000000" y1="62.000000" x2="112.000000" y2="62.000000"  style="stroke:black; stroke-linecap:round; stroke-width:0.25;"/>
<line x1="112.000000" y1="62.000000" x2="120.000000" y2="62.000000"  style="stroke:black; stroke-linecap:round; stroke-width:0.25;"/>
<line x1="112.000000" y1="92.000000" x2="120.000000" y2="92.000000"  style="stroke:black; stroke-linecap:round; stroke-width:0.25;"/>
<line x1="112.000000" y1="130.000000" x2="112.000000" y2="92.000000"  style="stroke:black; stroke-linecap:round; stroke-width:0.25;"/>
<line x1="112.000000" y1="130.000000" x2="112.000000" y2="130.000000"  style="stroke:black; stroke-linecap:round; stroke-width:0.25;"/>
<line x1="120.000000" y1="62.000000" x2="120.000000" y2="84.000000"  style="stroke:black; stroke-linecap:round; stroke-width:0.25;"/>
<line x1="120.000000" y1="84.000000" x2="120.000000" y2="84.000000"  style="stroke:black; stroke-linecap:round; stroke-width:0.25;"/>
<line x1="120.000000" y1="84.000000" x2="124.000000" y2="84.000000"  style="stroke:black; stroke-linecap:round; stroke-width:0.25;"/>
<line x1="120.000000" y1="92.000000" x2="124.000000" y2="92.000000"  style="stroke:black; stroke-linecap:round; stroke-width:0.25;"/>
<line x1="148.000000" y1="88.000000" x2="152.000000" y2="88.000000"  style="stroke:black; stroke-linecap:round; stroke-width:0.25;"/>
<line x1="152.000000" y1="88.000000" x2="152.000000" y2="88.000000"  style="stroke:black; stroke-linecap:round; stroke-width:0.25;"/>
<line x1="152.000000" y1="88.000000" x2="156.000000" y2="88.000000"  style="stroke:black; stroke-linecap:round; stroke-width:0.25;"/>
<line x1="156.000000" y1="88.000000" x2="160.000000" y2="88.000000"  style="stroke:black; stroke-linecap:round; stroke-width:0.25;"/>
<line x1="160.000000" y1="88.000000" x2="170.000000" y2="88.000000"  style="stroke:black; stroke-linecap:round; stroke-width:0.25;"/>
</svg>
