<?xml version="1.0"?>
<svg xmlns="http://www.w3.org/2000/svg" xmlns:xlink="http://www.w3.org/1999/xlink" viewBox="0 0 611.500000 80.000000" width="305.750000mm" height="40.000000mm" version="1.1">
<a xlink:href="gate-0x6000c43bbb10.svg">
<rect x="1.000000" y="1.000000" width="610.500000" height="79.000000" rx="0" ry="0" style="stroke:none;fill:#cccccc;"/>
<rect x="0.000000" y="0.000000" width="610.500000" height="79.000000" rx="0" ry="0" style="stroke:none;fill:#ffffff;"/>
</a>
<text x="10.000000" y="7.000000" font-family="Arial" font-size="7"></text>
<a xlink:href="gate-0x6000c43120a0.svg">
<rect x="33.000000" y="29.000000" width="129.000000" height="24.000000" rx="0" ry="0" style="stroke:none;fill:#cccccc;"/>
<rect x="32.000000" y="28.000000" width="129.000000" height="24.000000" rx="0" ry="0" style="stroke:none;fill:#003366;"/>
</a>
<a xlink:href="gate-0x6000c43120a0.svg">
<text x="96.500000" y="42.000000" font-family="Arial" font-size="7" text-anchor="middle" fill="#FFFFFF">gate_gain_mon...),0.001f : *)</text>
</a>
<circle cx="34.000000" cy="30.000000" r="1"/>
<line x1="29.000000" y1="39.000000" x2="32.000000" y2="40.000000"  transform="rotate(0.000000,32.000000,40.000000)" style="stroke: black; stroke-width:0.25;"/>
<line x1="29.000000" y1="41.000000" x2="32.000000" y2="40.000000"  transform="rotate(0.000000,32.000000,40.000000)" style="stroke: black; stroke-width:0.25;"/>
<a xlink:href="linear2db-0x6000180d3210.svg">
<rect x="170.000000" y="29.000000" width="38.700000" height="24.000000" rx="0" ry="0" style="stroke:none;fill:#cccccc;"/>
<rect x="169.000000" y="28.000000" width="38.700000" height="24.000000" rx="0" ry="0" style="stroke:none;fill:#003366;"/>
</a>
<a xlink:href="linear2db-0x6000180d3210.svg">
<text x="188.350000" y="42.000000" font-family="Arial" font-size="7" text-anchor="middle" fill="#FFFFFF">linear2db</text>
</a>
<circle cx="171.000000" cy="30.000000" r="1"/>
<line x1="166.000000" y1="39.000000" x2="169.000000" y2="40.000000"  transform="rotate(0.000000,169.000000,40.000000)" style="stroke: black; stroke-width:0.25;"/>
<line x1="166.000000" y1="41.000000" x2="169.000000" y2="40.000000"  transform="rotate(0.000000,169.000000,40.000000)" style="stroke: black; stroke-width:0.25;"/>
<rect x="224.700000" y="25.000000" width="24.000000" height="24.000000" rx="0" ry="0" style="stroke:none;fill:#cccccc;"/>
<rect x="223.700000" y="24.000000" width="24.000000" height="24.000000" rx="0" ry="0" style="stroke:none;fill:#f44800;"/>
<text x="235.700000" y="38.000000" font-family="Arial" font-size="7" text-anchor="middle" fill="#FFFFFF">-70</text>
<circle cx="225.700000" cy="26.000000" r="1"/>
<rect x="264.700000" y="29.000000" width="24.000000" height="24.000000" rx="0" ry="0" style="stroke:none;fill:#cccccc;"/>
<rect x="263.700000" y="28.000000" width="24.000000" height="24.000000" rx="0" ry="0" style="stroke:none;fill:#4B71A1;"/>
<text x="275.700000" y="42.000000" font-family="Arial" font-size="7" text-anchor="middle" fill="#FFFFFF">max</text>
<circle cx="265.700000" cy="30.000000" r="1"/>
<line x1="260.700000" y1="35.000000" x2="263.700000" y2="36.000000"  transform="rotate(0.000000,263.700000,36.000000)" style="stroke: black; stroke-width:0.25;"/>
<line x1="260.700000" y1="37.000000" x2="263.700000" y2="36.000000"  transform="rotate(0.000000,263.700000,36.000000)" style="stroke: black; stroke-width:0.25;"/>
<line x1="260.700000" y1="43.000000" x2="263.700000" y2="44.000000"  transform="rotate(0.000000,263.700000,44.000000)" style="stroke: black; stroke-width:0.25;"/>
<line x1="260.700000" y1="45.000000" x2="263.700000" y2="44.000000"  transform="rotate(0.000000,263.700000,44.000000)" style="stroke: black; stroke-width:0.25;"/>
<rect x="296.700000" y="29.000000" width="283.800000" height="24.000000" rx="0" ry="0" style="stroke:none;fill:#cccccc;"/>
<rect x="295.700000" y="28.000000" width="283.800000" height="24.000000" rx="0" ry="0" style="stroke:none;fill:#477881;"/>
<text x="437.600000" y="42.000000" font-family="Arial" font-size="7" text-anchor="middle" fill="#FFFFFF">vbargraph(v:soundsgood/t:expert/h:gate/gate meter, -70.0f, 0.0f)</text>
<circle cx="297.700000" cy="30.000000" r="1"/>
<line x1="292.700000" y1="39.000000" x2="295.700000" y2="40.000000"  transform="rotate(0.000000,295.700000,40.000000)" style="stroke: black; stroke-width:0.25;"/>
<line x1="292.700000" y1="41.000000" x2="295.700000" y2="40.000000"  transform="rotate(0.000000,295.700000,40.000000)" style="stroke: black; stroke-width:0.25;"/>
<line x1="15.000000" y1="15.000000" x2="15.000000" y2="65.000000"  style="stroke: black; stroke-linecap:round; stroke-width:0.25; stroke-dasharray:3,3;"/>
<line x1="15.000000" y1="65.000000" x2="596.500000" y2="65.000000"  style="stroke: black; stroke-linecap:round; stroke-width:0.25; stroke-dasharray:3,3;"/>
<line x1="596.500000" y1="65.000000" x2="596.500000" y2="15.000000"  style="stroke: black; stroke-linecap:round; stroke-width:0.25; stroke-dasharray:3,3;"/>
<line x1="15.000000" y1="15.000000" x2="20.000000" y2="15.000000"  style="stroke: black; stroke-linecap:round; stroke-width:0.25; stroke-dasharray:3,3;"/>
<line x1="52.250000" y1="15.000000" x2="596.500000" y2="15.000000"  style="stroke: black; stroke-linecap:round; stroke-width:0.25; stroke-dasharray:3,3;"/>
<text x="20.000000" y="17.000000" font-family="Arial" font-size="7">gateview</text>
<line x1="598.500000" y1="39.000000" x2="601.500000" y2="40.000000"  transform="rotate(0.000000,601.500000,40.000000)" style="stroke: black; stroke-width:0.25;"/>
<line x1="598.500000" y1="41.000000" x2="601.500000" y2="40.000000"  transform="rotate(0.000000,601.500000,40.000000)" style="stroke: black; stroke-width:0.25;"/>
<line x1="10.000000" y1="40.000000" x2="20.000000" y2="40.000000"  style="stroke:black; stroke-linecap:round; stroke-width:0.25;"/>
<line x1="20.000000" y1="40.000000" x2="24.000000" y2="40.000000"  style="stroke:black; stroke-linecap:round; stroke-width:0.25;"/>
<line x1="24.000000" y1="40.000000" x2="28.000000" y2="40.000000"  style="stroke:black; stroke-linecap:round; stroke-width:0.25;"/>
<line x1="28.000000" y1="40.000000" x2="28.000000" y2="40.000000"  style="stroke:black; stroke-linecap:round; stroke-width:0.25;"/>
<line x1="28.000000" y1="40.000000" x2="32.000000" y2="40.000000"  style="stroke:black; stroke-linecap:round; stroke-width:0.25;"/>
<line x1="161.000000" y1="40.000000" x2="165.000000" y2="40.000000"  style="stroke:black; stroke-linecap:round; stroke-width:0.25;"/>
<line x1="165.000000" y1="40.000000" x2="165.000000" y2="40.000000"  style="stroke:black; stroke-linecap:round; stroke-width:0.25;"/>
<line x1="165.000000" y1="40.000000" x2="169.000000" y2="40.000000"  style="stroke:black; stroke-linecap:round; stroke-width:0.25;"/>
<line x1="207.700000" y1="40.000000" x2="211.700000" y2="40.000000"  style="stroke:black; stroke-linecap:round; stroke-width:0.25;"/>
<line x1="211.700000" y1="40.000000" x2="219.700000" y2="40.000000"  style="stroke:black; stroke-linecap:round; stroke-width:0.25;"/>
<line x1="219.700000" y1="40.000000" x2="219.700000" y2="56.000000"  style="stroke:black; stroke-linecap:round; stroke-width:0.25;"/>
<line x1="219.700000" y1="56.000000" x2="219.700000" y2="56.000000"  style="stroke:black; stroke-linecap:round; stroke-width:0.25;"/>
<line x1="219.700000" y1="56.000000" x2="235.700000" y2="56.000000"  style="stroke:black; stroke-linecap:round; stroke-width:0.25;"/>
<line x1="235.700000" y1="56.000000" x2="251.700000" y2="56.000000"  style="stroke:black; stroke-linecap:round; stroke-width:0.25;"/>
<line x1="247.700000" y1="36.000000" x2="251.700000" y2="36.000000"  style="stroke:black; stroke-linecap:round; stroke-width:0.25;"/>
<line x1="251.700000" y1="36.000000" x2="259.700000" y2="36.000000"  style="stroke:black; stroke-linecap:round; stroke-width:0.25;"/>
<line x1="251.700000" y1="44.000000" x2="259.700000" y2="44.000000"  style="stroke:black; stroke-linecap:round; stroke-width:0.25;"/>
<line x1="251.700000" y1="56.000000" x2="251.700000" y2="44.000000"  style="stroke:black; stroke-linecap:round; stroke-width:0.25;"/>
<line x1="251.700000" y1="56.000000" x2="251.700000" y2="56.000000"  style="stroke:black; stroke-linecap:round; stroke-width:0.25;"/>
<line x1="259.700000" y1="36.000000" x2="263.700000" y2="36.000000"  style="stroke:black; stroke-linecap:round; stroke-width:0.25;"/>
<line x1="259.700000" y1="44.000000" x2="263.700000" y2="44.000000"  style="stroke:black; stroke-linecap:round; stroke-width:0.25;"/>
<line x1="287.700000" y1="40.000000" x2="291.700000" y2="40.000000"  style="stroke:black; stroke-linecap:round; stroke-width:0.25;"/>
<line x1="291.700000" y1="40.000000" x2="291.700000" y2="40.000000"  style="stroke:black; stroke-linecap:round; stroke-width:0.25;"/>
<line x1="291.700000" y1="40.000000" x2="295.700000" y2="40.000000"  style="stroke:black; stroke-linecap:round; stroke-width:0.25;"/>
<line x1="579.500000" y1="40.000000" x2="583.500000" y2="40.000000"  style="stroke:black; stroke-linecap:round; stroke-width:0.25;"/>
<line x1="583.500000" y1="40.000000" x2="583.500000" y2="40.000000"  style="stroke:black; stroke-linecap:round; stroke-width:0.25;"/>
<line x1="583.500000" y1="40.000000" x2="587.500000" y2="40.000000"  style="stroke:black; stroke-linecap:round; stroke-width:0.25;"/>
<line x1="587.500000" y1="40.000000" x2="591.500000" y2="40.000000"  style="stroke:black; stroke-linecap:round; stroke-width:0.25;"/>
<line x1="591.500000" y1="40.000000" x2="601.500000" y2="40.000000"  style="stroke:black; stroke-linecap:round; stroke-width:0.25;"/>
</svg>
