<?xml version="1.0"?>
<svg xmlns="http://www.w3.org/2000/svg" xmlns:xlink="http://www.w3.org/1999/xlink" viewBox="0 0 329.500000 72.000000" width="164.750000mm" height="36.000000mm" version="1.1">
<a xlink:href="gateview-0x6000c4312130.svg">
<rect x="1.000000" y="1.000000" width="328.500000" height="71.000000" rx="0" ry="0" style="stroke:none;fill:#cccccc;"/>
<rect x="0.000000" y="0.000000" width="328.500000" height="71.000000" rx="0" ry="0" style="stroke:none;fill:#ffffff;"/>
</a>
<text x="10.000000" y="7.000000" font-family="Arial" font-size="7"></text>
<rect x="33.000000" y="25.000000" width="24.000000" height="24.000000" rx="0" ry="0" style="stroke:none;fill:#cccccc;"/>
<rect x="32.000000" y="24.000000" width="24.000000" height="24.000000" rx="0" ry="0" style="stroke:none;fill:#47945E;"/>
<text x="44.000000" y="38.000000" font-family="Arial" font-size="7" text-anchor="middle" fill="#FFFFFF">x</text>
<circle cx="34.000000" cy="26.000000" r="1"/>
<line x1="29.000000" y1="35.000000" x2="32.000000" y2="36.000000"  transform="rotate(0.000000,32.000000,36.000000)" style="stroke: black; stroke-width:0.25;"/>
<line x1="29.000000" y1="37.000000" x2="32.000000" y2="36.000000"  transform="rotate(0.000000,32.000000,36.000000)" style="stroke: black; stroke-width:0.25;"/>
<rect x="65.000000" y="25.000000" width="24.000000" height="24.000000" rx="0" ry="0" style="stroke:none;fill:#cccccc;"/>
<rect x="64.000000" y="24.000000" width="24.000000" height="24.000000" rx="0" ry="0" style="stroke:none;fill:#47945E;"/>
<text x="76.000000" y="38.000000" font-family="Arial" font-size="7" text-anchor="middle" fill="#FFFFFF">x</text>
<circle cx="66.000000" cy="26.000000" r="1"/>
<a xlink:href="extendedrawgate-0x6000c4332eb0.svg">
<rect x="97.000000" y="25.000000" width="64.500000" height="24.000000" rx="0" ry="0" style="stroke:none;fill:#cccccc;"/>
<rect x="96.000000" y="24.000000" width="64.500000" height="24.000000" rx="0" ry="0" style="stroke:none;fill:#003366;"/>
</a>
<a xlink:href="extendedrawgate-0x6000c4332eb0.svg">
<text x="128.250000" y="38.000000" font-family="Arial" font-size="7" text-anchor="middle" fill="#FFFFFF">extendedrawgate</text>
</a>
<circle cx="98.000000" cy="26.000000" r="1"/>
<line x1="93.000000" y1="35.000000" x2="96.000000" y2="36.000000"  transform="rotate(0.000000,96.000000,36.000000)" style="stroke: black; stroke-width:0.25;"/>
<line x1="93.000000" y1="37.000000" x2="96.000000" y2="36.000000"  transform="rotate(0.000000,96.000000,36.000000)" style="stroke: black; stroke-width:0.25;"/>
<a xlink:href="amp-0x6000c4311ef0.svg">
<rect x="169.500000" y="25.000000" width="129.000000" height="24.000000" rx="0" ry="0" style="stroke:none;fill:#cccccc;"/>
<rect x="168.500000" y="24.000000" width="129.000000" height="24.000000" rx="0" ry="0" style="stroke:none;fill:#003366;"/>
</a>
<a xlink:href="amp-0x6000c4311ef0.svg">
<text x="233.000000" y="38.000000" font-family="Arial" font-size="7" text-anchor="middle" fill="#FFFFFF">amp_follower_...),0.001f : *)</text>
</a>
<circle cx="170.500000" cy="26.000000" r="1"/>
<line x1="165.500000" y1="35.000000" x2="168.500000" y2="36.000000"  transform="rotate(0.000000,168.500000,36.000000)" style="stroke: black; stroke-width:0.25;"/>
<line x1="165.500000" y1="37.000000" x2="168.500000" y2="36.000000"  transform="rotate(0.000000,168.500000,36.000000)" style="stroke: black; stroke-width:0.25;"/>
<line x1="15.000000" y1="15.000000" x2="15.000000" y2="57.000000"  style="stroke: black; stroke-linecap:round; stroke-width:0.25; stroke-dasharray:3,3;"/>
<line x1="15.000000" y1="57.000000" x2="314.500000" y2="57.000000"  style="stroke: black; stroke-linecap:round; stroke-width:0.25; stroke-dasharray:3,3;"/>
<line x1="314.500000" y1="57.000000" x2="314.500000" y2="15.000000"  style="stroke: black; stroke-linecap:round; stroke-width:0.25; stroke-dasharray:3,3;"/>
<line x1="15.000000" y1="15.000000" x2="20.000000" y2="15.000000"  style="stroke: black; stroke-linecap:round; stroke-width:0.25; stroke-dasharray:3,3;"/>
<line x1="119.975000" y1="15.000000" x2="314.500000" y2="15.000000"  style="stroke: black; stroke-linecap:round; stroke-width:0.25; stroke-dasharray:3,3;"/>
<text x="20.000000" y="17.000000" font-family="Arial" font-size="7">gate_gain_mon...),0.001f : *)</text>
<line x1="316.500000" y1="35.000000" x2="319.500000" y2="36.000000"  transform="rotate(0.000000,319.500000,36.000000)" style="stroke: black; stroke-width:0.25;"/>
<line x1="316.500000" y1="37.000000" x2="319.500000" y2="36.000000"  transform="rotate(0.000000,319.500000,36.000000)" style="stroke: black; stroke-width:0.25;"/>
<line x1="10.000000" y1="36.000000" x2="20.000000" y2="36.000000"  style="stroke:black; stroke-linecap:round; stroke-width:0.25;"/>
<line x1="20.000000" y1="36.000000" x2="24.000000" y2="36.000000"  style="stroke:black; stroke-linecap:round; stroke-width:0.25;"/>
<line x1="24.000000" y1="36.000000" x2="28.000000" y2="36.000000"  style="stroke:black; stroke-linecap:round; stroke-width:0.25;"/>
<line x1="28.000000" y1="36.000000" x2="28.000000" y2="36.000000"  style="stroke:black; stroke-linecap:round; stroke-width:0.25;"/>
<line x1="28.000000" y1="36.000000" x2="32.000000" y2="36.000000"  style="stroke:black; stroke-linecap:round; stroke-width:0.25;"/>
<line x1="88.000000" y1="36.000000" x2="92.000000" y2="36.000000"  style="stroke:black; stroke-linecap:round; stroke-width:0.25;"/>
<line x1="92.000000" y1="36.000000" x2="92.000000" y2="36.000000"  style="stroke:black; stroke-linecap:round; stroke-width:0.25;"/>
<line x1="92.000000" y1="36.000000" x2="96.000000" y2="36.000000"  style="stroke:black; stroke-linecap:round; stroke-width:0.25;"/>
<line x1="160.500000" y1="36.000000" x2="164.500000" y2="36.000000"  style="stroke:black; stroke-linecap:round; stroke-width:0.25;"/>
<line x1="164.500000" y1="36.000000" x2="164.500000" y2="36.000000"  style="stroke:black; stroke-linecap:round; stroke-width:0.25;"/>
<line x1="164.500000" y1="36.000000" x2="168.500000" y2="36.000000"  style="stroke:black; stroke-linecap:round; stroke-width:0.25;"/>
<line x1="297.500000" y1="36.000000" x2="301.500000" y2="36.000000"  style="stroke:black; stroke-linecap:round; stroke-width:0.25;"/>
<line x1="301.500000" y1="36.000000" x2="301.500000" y2="36.000000"  style="stroke:black; stroke-linecap:round; stroke-width:0.25;"/>
<line x1="301.500000" y1="36.000000" x2="305.500000" y2="36.000000"  style="stroke:black; stroke-linecap:round; stroke-width:0.25;"/>
<line x1="305.500000" y1="36.000000" x2="309.500000" y2="36.000000"  style="stroke:black; stroke-linecap:round; stroke-width:0.25;"/>
<line x1="309.500000" y1="36.000000" x2="319.500000" y2="36.000000"  style="stroke:black; stroke-linecap:round; stroke-width:0.25;"/>
</svg>
