<?xml version="1.0"?>
<svg xmlns="http://www.w3.org/2000/svg" xmlns:xlink="http://www.w3.org/1999/xlink" viewBox="0 0 205.400000 104.000000" width="102.700000mm" height="52.000000mm" version="1.1">
<a xlink:href="holdcounter-0x6000c43329a0.svg">
<rect x="1.000000" y="1.000000" width="204.400000" height="103.000000" rx="0" ry="0" style="stroke:none;fill:#cccccc;"/>
<rect x="0.000000" y="0.000000" width="204.400000" height="103.000000" rx="0" ry="0" style="stroke:none;fill:#ffffff;"/>
</a>
<text x="10.000000" y="7.000000" font-family="Arial" font-size="7"></text>
<a xlink:href="rawgatesig-0x6000c433f720.svg">
<rect x="41.000000" y="25.000000" width="77.400000" height="24.000000" rx="0" ry="0" style="stroke:none;fill:#cccccc;"/>
<rect x="40.000000" y="24.000000" width="77.400000" height="24.000000" rx="0" ry="0" style="stroke:none;fill:#003366;"/>
</a>
<a xlink:href="rawgatesig-0x6000c433f720.svg">
<text x="78.700000" y="38.000000" font-family="Arial" font-size="7" text-anchor="middle" fill="#FFFFFF">rawgatesig(x1122)</text>
</a>
<circle cx="42.000000" cy="26.000000" r="1"/>
<a xlink:href="rawgatesig-0x6000c433f720.svg">
<rect x="25.000000" y="57.000000" width="77.400000" height="24.000000" rx="0" ry="0" style="stroke:none;fill:#cccccc;"/>
<rect x="24.000000" y="56.000000" width="77.400000" height="24.000000" rx="0" ry="0" style="stroke:none;fill:#003366;"/>
</a>
<a xlink:href="rawgatesig-0x6000c433f720.svg">
<text x="62.700000" y="70.000000" font-family="Arial" font-size="7" text-anchor="middle" fill="#FFFFFF">rawgatesig(x1122)</text>
</a>
<circle cx="26.000000" cy="58.000000" r="1"/>
<rect x="110.400000" y="57.000000" width="24.000000" height="24.000000" rx="0" ry="0" style="stroke:none;fill:#cccccc;"/>
<rect x="109.400000" y="56.000000" width="24.000000" height="24.000000" rx="0" ry="0" style="stroke:none;fill:#4B71A1;"/>
<text x="121.400000" y="70.000000" font-family="Arial" font-size="7" text-anchor="middle" fill="#FFFFFF">mem</text>
<circle cx="111.400000" cy="58.000000" r="1"/>
<line x1="106.400000" y1="67.000000" x2="109.400000" y2="68.000000"  transform="rotate(0.000000,109.400000,68.000000)" style="stroke: black; stroke-width:0.25;"/>
<line x1="106.400000" y1="69.000000" x2="109.400000" y2="68.000000"  transform="rotate(0.000000,109.400000,68.000000)" style="stroke: black; stroke-width:0.25;"/>
<rect x="150.400000" y="41.000000" width="24.000000" height="24.000000" rx="0" ry="0" style="stroke:none;fill:#cccccc;"/>
<rect x="149.400000" y="40.000000" width="24.000000" height="24.000000" rx="0" ry="0" style="stroke:none;fill:#4B71A1;"/>
<text x="161.400000" y="54.000000" font-family="Arial" font-size="7" text-anchor="middle" fill="#FFFFFF">&lt;</text>
<circle cx="151.400000" cy="42.000000" r="1"/>
<line x1="146.400000" y1="47.000000" x2="149.400000" y2="48.000000"  transform="rotate(0.000000,149.400000,48.000000)" style="stroke: black; stroke-width:0.25;"/>
<line x1="146.400000" y1="49.000000" x2="149.400000" y2="48.000000"  transform="rotate(0.000000,149.400000,48.000000)" style="stroke: black; stroke-width:0.25;"/>
<line x1="146.400000" y1="55.000000" x2="149.400000" y2="56.000000"  transform="rotate(0.000000,149.400000,56.000000)" style="stroke: black; stroke-width:0.25;"/>
<line x1="146.400000" y1="57.000000" x2="149.400000" y2="56.000000"  transform="rotate(0.000000,149.400000,56.000000)" style="stroke: black; stroke-width:0.25;"/>
<line x1="15.000000" y1="15.000000" x2="15.000000" y2="89.000000"  style="stroke: black; stroke-linecap:round; stroke-width:0.25; stroke-dasharray:3,3;"/>
<line x1="15.000000" y1="89.000000" x2="190.400000" y2="89.000000"  style="stroke: black; stroke-linecap:round; stroke-width:0.25; stroke-dasharray:3,3;"/>
<line x1="190.400000" y1="89.000000" x2="190.400000" y2="15.000000"  style="stroke: black; stroke-linecap:round; stroke-width:0.25; stroke-dasharray:3,3;"/>
<line x1="15.000000" y1="15.000000" x2="20.000000" y2="15.000000"  style="stroke: black; stroke-linecap:round; stroke-width:0.25; stroke-dasharray:3,3;"/>
<line x1="78.050000" y1="15.000000" x2="190.400000" y2="15.000000"  style="stroke: black; stroke-linecap:round; stroke-width:0.25; stroke-dasharray:3,3;"/>
<text x="20.000000" y="17.000000" font-family="Arial" font-size="7">holdreset(x1122)</text>
<line x1="192.400000" y1="51.000000" x2="195.400000" y2="52.000000"  transform="rotate(0.000000,195.400000,52.000000)" style="stroke: black; stroke-width:0.25;"/>
<line x1="192.400000" y1="53.000000" x2="195.400000" y2="52.000000"  transform="rotate(0.000000,195.400000,52.000000)" style="stroke: black; stroke-width:0.25;"/>
<line x1="101.400000" y1="68.000000" x2="105.400000" y2="68.000000"  style="stroke:black; stroke-linecap:round; stroke-width:0.25;"/>
<line x1="105.400000" y1="68.000000" x2="105.400000" y2="68.000000"  style="stroke:black; stroke-linecap:round; stroke-width:0.25;"/>
<line x1="105.400000" y1="68.000000" x2="109.400000" y2="68.000000"  style="stroke:black; stroke-linecap:round; stroke-width:0.25;"/>
<line x1="117.400000" y1="36.000000" x2="121.400000" y2="36.000000"  style="stroke:black; stroke-linecap:round; stroke-width:0.25;"/>
<line x1="121.400000" y1="36.000000" x2="137.400000" y2="36.000000"  style="stroke:black; stroke-linecap:round; stroke-width:0.25;"/>
<line x1="133.400000" y1="68.000000" x2="137.400000" y2="68.000000"  style="stroke:black; stroke-linecap:round; stroke-width:0.25;"/>
<line x1="137.400000" y1="36.000000" x2="145.400000" y2="36.000000"  style="stroke:black; stroke-linecap:round; stroke-width:0.25;"/>
<line x1="137.400000" y1="56.000000" x2="145.400000" y2="56.000000"  style="stroke:black; stroke-linecap:round; stroke-width:0.25;"/>
<line x1="137.400000" y1="68.000000" x2="137.400000" y2="56.000000"  style="stroke:black; stroke-linecap:round; stroke-width:0.25;"/>
<line x1="137.400000" y1="68.000000" x2="137.400000" y2="68.000000"  style="stroke:black; stroke-linecap:round; stroke-width:0.25;"/>
<line x1="145.400000" y1="36.000000" x2="145.400000" y2="48.000000"  style="stroke:black; stroke-linecap:round; stroke-width:0.25;"/>
<line x1="145.400000" y1="48.000000" x2="145.400000" y2="48.000000"  style="stroke:black; stroke-linecap:round; stroke-width:0.25;"/>
<line x1="145.400000" y1="48.000000" x2="149.400000" y2="48.000000"  style="stroke:black; stroke-linecap:round; stroke-width:0.25;"/>
<line x1="145.400000" y1="56.000000" x2="149.400000" y2="56.000000"  style="stroke:black; stroke-linecap:round; stroke-width:0.25;"/>
<line x1="173.400000" y1="52.000000" x2="177.400000" y2="52.000000"  style="stroke:black; stroke-linecap:round; stroke-width:0.25;"/>
<line x1="177.400000" y1="52.000000" x2="177.400000" y2="52.000000"  style="stroke:black; stroke-linecap:round; stroke-width:0.25;"/>
<line x1="177.400000" y1="52.000000" x2="181.400000" y2="52.000000"  style="stroke:black; stroke-linecap:round; stroke-width:0.25;"/>
<line x1="181.400000" y1="52.000000" x2="185.400000" y2="52.000000"  style="stroke:black; stroke-linecap:round; stroke-width:0.25;"/>
<line x1="185.400000" y1="52.000000" x2="195.400000" y2="52.000000"  style="stroke:black; stroke-linecap:round; stroke-width:0.25;"/>
</svg>
