<?xml version="1.0"?>
<svg xmlns="http://www.w3.org/2000/svg" xmlns:xlink="http://www.w3.org/1999/xlink" viewBox="0 0 237.400000 172.000000" width="118.700000mm" height="86.000000mm" version="1.1">
<a xlink:href="holdsig-0x6000c435e400.svg">
<rect x="1.000000" y="1.000000" width="236.400000" height="171.000000" rx="0" ry="0" style="stroke:none;fill:#cccccc;"/>
<rect x="0.000000" y="0.000000" width="236.400000" height="171.000000" rx="0" ry="0" style="stroke:none;fill:#ffffff;"/>
</a>
<text x="10.000000" y="7.000000" font-family="Arial" font-size="7"></text>
<a xlink:href="holdreset-0x6000c435b210.svg">
<rect x="33.000000" y="85.000000" width="77.400000" height="24.000000" rx="0" ry="0" style="stroke:none;fill:#cccccc;"/>
<rect x="32.000000" y="84.000000" width="77.400000" height="24.000000" rx="0" ry="0" style="stroke:none;fill:#003366;"/>
</a>
<a xlink:href="holdreset-0x6000c435b210.svg">
<text x="70.700000" y="98.000000" font-family="Arial" font-size="7" text-anchor="middle" fill="#FFFFFF">holdreset(x1129)</text>
</a>
<circle cx="34.000000" cy="86.000000" r="1"/>
<a xlink:href="holdsamps-0x60003809d290.svg">
<rect x="52.350000" y="117.000000" width="38.700000" height="24.000000" rx="0" ry="0" style="stroke:none;fill:#cccccc;"/>
<rect x="51.350000" y="116.000000" width="38.700000" height="24.000000" rx="0" ry="0" style="stroke:none;fill:#003366;"/>
</a>
<a xlink:href="holdsamps-0x60003809d290.svg">
<text x="70.700000" y="130.000000" font-family="Arial" font-size="7" text-anchor="middle" fill="#FFFFFF">holdsamps</text>
</a>
<circle cx="53.350000" cy="118.000000" r="1"/>
<rect x="126.400000" y="101.000000" width="24.000000" height="24.000000" rx="0" ry="0" style="stroke:none;fill:#cccccc;"/>
<rect x="125.400000" y="100.000000" width="24.000000" height="24.000000" rx="0" ry="0" style="stroke:none;fill:#4B71A1;"/>
<text x="137.400000" y="114.000000" font-family="Arial" font-size="7" text-anchor="middle" fill="#FFFFFF">*</text>
<circle cx="127.400000" cy="102.000000" r="1"/>
<line x1="122.400000" y1="107.000000" x2="125.400000" y2="108.000000"  transform="rotate(0.000000,125.400000,108.000000)" style="stroke: black; stroke-width:0.25;"/>
<line x1="122.400000" y1="109.000000" x2="125.400000" y2="108.000000"  transform="rotate(0.000000,125.400000,108.000000)" style="stroke: black; stroke-width:0.25;"/>
<line x1="122.400000" y1="115.000000" x2="125.400000" y2="116.000000"  transform="rotate(0.000000,125.400000,116.000000)" style="stroke: black; stroke-width:0.25;"/>
<line x1="122.400000" y1="117.000000" x2="125.400000" y2="116.000000"  transform="rotate(0.000000,125.400000,116.000000)" style="stroke: black; stroke-width:0.25;"/>
<rect x="166.400000" y="105.000000" width="24.000000" height="24.000000" rx="0" ry="0" style="stroke:none;fill:#cccccc;"/>
<rect x="165.400000" y="104.000000" width="24.000000" height="24.000000" rx="0" ry="0" style="stroke:none;fill:#4B71A1;"/>
<text x="177.400000" y="118.000000" font-family="Arial" font-size="7" text-anchor="middle" fill="#FFFFFF">max</text>
<circle cx="167.400000" cy="106.000000" r="1"/>
<line x1="162.400000" y1="111.000000" x2="165.400000" y2="112.000000"  transform="rotate(0.000000,165.400000,112.000000)" style="stroke: black; stroke-width:0.25;"/>
<line x1="162.400000" y1="113.000000" x2="165.400000" y2="112.000000"  transform="rotate(0.000000,165.400000,112.000000)" style="stroke: black; stroke-width:0.25;"/>
<line x1="162.400000" y1="119.000000" x2="165.400000" y2="120.000000"  transform="rotate(0.000000,165.400000,120.000000)" style="stroke: black; stroke-width:0.25;"/>
<line x1="162.400000" y1="121.000000" x2="165.400000" y2="120.000000"  transform="rotate(0.000000,165.400000,120.000000)" style="stroke: black; stroke-width:0.25;"/>
<rect x="119.700000" y="35.000000" width="24.000000" height="24.000000" rx="0" ry="0" style="stroke:none;fill:#cccccc;"/>
<rect x="118.700000" y="34.000000" width="24.000000" height="24.000000" rx="0" ry="0" style="stroke:none;fill:#f44800;"/>
<text x="130.700000" y="48.000000" font-family="Arial" font-size="7" text-anchor="middle" fill="#FFFFFF">1</text>
<circle cx="140.700000" cy="56.000000" r="1"/>
<line x1="109.700000" y1="25.000000" x2="109.700000" y2="67.000000"  style="stroke: black; stroke-linecap:round; stroke-width:0.25; stroke-dasharray:3,3;"/>
<line x1="109.700000" y1="67.000000" x2="151.700000" y2="67.000000"  style="stroke: black; stroke-linecap:round; stroke-width:0.25; stroke-dasharray:3,3;"/>
<line x1="151.700000" y1="67.000000" x2="151.700000" y2="25.000000"  style="stroke: black; stroke-linecap:round; stroke-width:0.25; stroke-dasharray:3,3;"/>
<line x1="109.700000" y1="25.000000" x2="114.700000" y2="25.000000"  style="stroke: black; stroke-linecap:round; stroke-width:0.25; stroke-dasharray:3,3;"/>
<line x1="143.725000" y1="25.000000" x2="151.700000" y2="25.000000"  style="stroke: black; stroke-linecap:round; stroke-width:0.25; stroke-dasharray:3,3;"/>
<text x="114.700000" y="27.000000" font-family="Arial" font-size="7">pow2(0)</text>
<rect x="69.700000" y="39.000000" width="24.000000" height="24.000000" rx="0" ry="0" style="stroke:none;fill:#cccccc;"/>
<rect x="68.700000" y="38.000000" width="24.000000" height="24.000000" rx="0" ry="0" style="stroke:none;fill:#4B71A1;"/>
<text x="80.700000" y="52.000000" font-family="Arial" font-size="7" text-anchor="middle" fill="#FFFFFF">-</text>
<circle cx="90.700000" cy="60.000000" r="1"/>
<line x1="95.700000" y1="53.000000" x2="92.700000" y2="54.000000"  transform="rotate(0.000000,92.700000,54.000000)" style="stroke: black; stroke-width:0.25;"/>
<line x1="95.700000" y1="55.000000" x2="92.700000" y2="54.000000"  transform="rotate(0.000000,92.700000,54.000000)" style="stroke: black; stroke-width:0.25;"/>
<line x1="95.700000" y1="45.000000" x2="92.700000" y2="46.000000"  transform="rotate(0.000000,92.700000,46.000000)" style="stroke: black; stroke-width:0.25;"/>
<line x1="95.700000" y1="47.000000" x2="92.700000" y2="46.000000"  transform="rotate(0.000000,92.700000,46.000000)" style="stroke: black; stroke-width:0.25;"/>
<line x1="191.400000" y1="116.000000" x2="191.400000" y2="112.000000"  style="stroke:black; stroke-linecap:round; stroke-width:0.25;"/>
<line x1="191.400000" y1="112.000000" x2="195.400000" y2="112.000000"  style="stroke:black; stroke-linecap:round; stroke-width:0.25;"/>
<line x1="195.400000" y1="112.000000" x2="195.400000" y2="116.000000"  style="stroke:black; stroke-linecap:round; stroke-width:0.25;"/>
<line x1="15.000000" y1="15.000000" x2="15.000000" y2="157.000000"  style="stroke: black; stroke-linecap:round; stroke-width:0.25; stroke-dasharray:3,3;"/>
<line x1="15.000000" y1="157.000000" x2="222.400000" y2="157.000000"  style="stroke: black; stroke-linecap:round; stroke-width:0.25; stroke-dasharray:3,3;"/>
<line x1="222.400000" y1="157.000000" x2="222.400000" y2="15.000000"  style="stroke: black; stroke-linecap:round; stroke-width:0.25; stroke-dasharray:3,3;"/>
<line x1="15.000000" y1="15.000000" x2="20.000000" y2="15.000000"  style="stroke: black; stroke-linecap:round; stroke-width:0.25; stroke-dasharray:3,3;"/>
<line x1="84.500000" y1="15.000000" x2="222.400000" y2="15.000000"  style="stroke: black; stroke-linecap:round; stroke-width:0.25; stroke-dasharray:3,3;"/>
<text x="20.000000" y="17.000000" font-family="Arial" font-size="7">holdcounter(x1129)</text>
<line x1="224.400000" y1="85.000000" x2="227.400000" y2="86.000000"  transform="rotate(0.000000,227.400000,86.000000)" style="stroke: black; stroke-width:0.25;"/>
<line x1="224.400000" y1="87.000000" x2="227.400000" y2="86.000000"  transform="rotate(0.000000,227.400000,86.000000)" style="stroke: black; stroke-width:0.25;"/>
<line x1="28.000000" y1="148.000000" x2="90.700000" y2="148.000000"  style="stroke:black; stroke-linecap:round; stroke-width:0.25;"/>
<line x1="28.000000" y1="50.000000" x2="28.000000" y2="50.000000"  style="stroke:black; stroke-linecap:round; stroke-width:0.25;"/>
<line x1="28.000000" y1="50.000000" x2="28.000000" y2="148.000000"  style="stroke:black; stroke-linecap:round; stroke-width:0.25;"/>
<line x1="28.000000" y1="148.000000" x2="28.000000" y2="148.000000"  style="stroke:black; stroke-linecap:round; stroke-width:0.25;"/>
<line x1="64.700000" y1="50.000000" x2="28.000000" y2="50.000000"  style="stroke:black; stroke-linecap:round; stroke-width:0.25;"/>
<line x1="68.700000" y1="50.000000" x2="64.700000" y2="50.000000"  style="stroke:black; stroke-linecap:round; stroke-width:0.25;"/>
<line x1="90.050000" y1="128.000000" x2="94.050000" y2="128.000000"  style="stroke:black; stroke-linecap:round; stroke-width:0.25;"/>
<line x1="90.700000" y1="148.000000" x2="153.400000" y2="148.000000"  style="stroke:black; stroke-linecap:round; stroke-width:0.25;"/>
<line x1="94.050000" y1="128.000000" x2="113.400000" y2="128.000000"  style="stroke:black; stroke-linecap:round; stroke-width:0.25;"/>
<line x1="96.700000" y1="46.000000" x2="92.700000" y2="46.000000"  style="stroke:black; stroke-linecap:round; stroke-width:0.25;"/>
<line x1="96.700000" y1="54.000000" x2="92.700000" y2="54.000000"  style="stroke:black; stroke-linecap:round; stroke-width:0.25;"/>
<line x1="96.700000" y1="54.000000" x2="96.700000" y2="54.000000"  style="stroke:black; stroke-linecap:round; stroke-width:0.25;"/>
<line x1="96.700000" y1="76.000000" x2="96.700000" y2="54.000000"  style="stroke:black; stroke-linecap:round; stroke-width:0.25;"/>
<line x1="104.700000" y1="46.000000" x2="96.700000" y2="46.000000"  style="stroke:black; stroke-linecap:round; stroke-width:0.25;"/>
<line x1="104.700000" y1="76.000000" x2="96.700000" y2="76.000000"  style="stroke:black; stroke-linecap:round; stroke-width:0.25;"/>
<line x1="109.400000" y1="96.000000" x2="113.400000" y2="96.000000"  style="stroke:black; stroke-linecap:round; stroke-width:0.25;"/>
<line x1="113.400000" y1="116.000000" x2="121.400000" y2="116.000000"  style="stroke:black; stroke-linecap:round; stroke-width:0.25;"/>
<line x1="113.400000" y1="128.000000" x2="113.400000" y2="116.000000"  style="stroke:black; stroke-linecap:round; stroke-width:0.25;"/>
<line x1="113.400000" y1="128.000000" x2="113.400000" y2="128.000000"  style="stroke:black; stroke-linecap:round; stroke-width:0.25;"/>
<line x1="113.400000" y1="96.000000" x2="121.400000" y2="96.000000"  style="stroke:black; stroke-linecap:round; stroke-width:0.25;"/>
<line x1="114.700000" y1="46.000000" x2="104.700000" y2="46.000000"  style="stroke:black; stroke-linecap:round; stroke-width:0.25;"/>
<line x1="118.700000" y1="46.000000" x2="114.700000" y2="46.000000"  style="stroke:black; stroke-linecap:round; stroke-width:0.25;"/>
<line x1="121.400000" y1="96.000000" x2="121.400000" y2="108.000000"  style="stroke:black; stroke-linecap:round; stroke-width:0.25;"/>
<line x1="121.400000" y1="108.000000" x2="121.400000" y2="108.000000"  style="stroke:black; stroke-linecap:round; stroke-width:0.25;"/>
<line x1="121.400000" y1="108.000000" x2="125.400000" y2="108.000000"  style="stroke:black; stroke-linecap:round; stroke-width:0.25;"/>
<line x1="121.400000" y1="116.000000" x2="125.400000" y2="116.000000"  style="stroke:black; stroke-linecap:round; stroke-width:0.25;"/>
<line x1="130.700000" y1="76.000000" x2="104.700000" y2="76.000000"  style="stroke:black; stroke-linecap:round; stroke-width:0.25;"/>
<line x1="149.400000" y1="112.000000" x2="153.400000" y2="112.000000"  style="stroke:black; stroke-linecap:round; stroke-width:0.25;"/>
<line x1="153.400000" y1="112.000000" x2="161.400000" y2="112.000000"  style="stroke:black; stroke-linecap:round; stroke-width:0.25;"/>
<line x1="153.400000" y1="120.000000" x2="161.400000" y2="120.000000"  style="stroke:black; stroke-linecap:round; stroke-width:0.25;"/>
<line x1="153.400000" y1="148.000000" x2="153.400000" y2="120.000000"  style="stroke:black; stroke-linecap:round; stroke-width:0.25;"/>
<line x1="153.400000" y1="148.000000" x2="153.400000" y2="148.000000"  style="stroke:black; stroke-linecap:round; stroke-width:0.25;"/>
<line x1="156.700000" y1="76.000000" x2="130.700000" y2="76.000000"  style="stroke:black; stroke-linecap:round; stroke-width:0.25;"/>
<line x1="161.400000" y1="112.000000" x2="165.400000" y2="112.000000"  style="stroke:black; stroke-linecap:round; stroke-width:0.25;"/>
<line x1="161.400000" y1="120.000000" x2="165.400000" y2="120.000000"  style="stroke:black; stroke-linecap:round; stroke-width:0.25;"/>
<line x1="189.400000" y1="116.000000" x2="193.400000" y2="116.000000"  style="stroke:black; stroke-linecap:round; stroke-width:0.25;"/>
<line x1="193.400000" y1="76.000000" x2="156.700000" y2="76.000000"  style="stroke:black; stroke-linecap:round; stroke-width:0.25;"/>
<line x1="193.400000" y1="76.000000" x2="193.400000" y2="76.000000"  style="stroke:black; stroke-linecap:round; stroke-width:0.25;"/>
<line x1="193.400000" y1="112.000000" x2="193.400000" y2="76.000000"  style="stroke:black; stroke-linecap:round; stroke-width:0.25;"/>
<line x1="193.400000" y1="116.000000" x2="195.400000" y2="116.000000"  style="stroke:black; stroke-linecap:round; stroke-width:0.25;"/>
<line x1="195.400000" y1="116.000000" x2="201.400000" y2="116.000000"  style="stroke:black; stroke-linecap:round; stroke-width:0.25;"/>
<line x1="201.400000" y1="86.000000" x2="209.400000" y2="86.000000"  style="stroke:black; stroke-linecap:round; stroke-width:0.25;"/>
<line x1="201.400000" y1="116.000000" x2="201.400000" y2="86.000000"  style="stroke:black; stroke-linecap:round; stroke-width:0.25;"/>
<line x1="201.400000" y1="116.000000" x2="201.400000" y2="116.000000"  style="stroke:black; stroke-linecap:round; stroke-width:0.25;"/>
<line x1="209.400000" y1="86.000000" x2="213.400000" y2="86.000000"  style="stroke:black; stroke-linecap:round; stroke-width:0.25;"/>
<line x1="213.400000" y1="86.000000" x2="217.400000" y2="86.000000"  style="stroke:black; stroke-linecap:round; stroke-width:0.25;"/>
<line x1="217.400000" y1="86.000000" x2="227.400000" y2="86.000000"  style="stroke:black; stroke-linecap:round; stroke-width:0.25;"/>
</svg>
