<?xml version="1.0"?>
<svg xmlns="http://www.w3.org/2000/svg" xmlns:xlink="http://www.w3.org/1999/xlink" viewBox="0 0 173.400000 124.000000" width="86.700000mm" height="62.000000mm" version="1.1">
<a xlink:href="extendedrawgate-0x6000c435e7f0.svg">
<rect x="1.000000" y="1.000000" width="172.400000" height="123.000000" rx="0" ry="0" style="stroke:none;fill:#cccccc;"/>
<rect x="0.000000" y="0.000000" width="172.400000" height="123.000000" rx="0" ry="0" style="stroke:none;fill:#ffffff;"/>
</a>
<text x="10.000000" y="7.000000" font-family="Arial" font-size="7"></text>
<a xlink:href="holdcounter-0x6000c435e2e0.svg">
<rect x="25.000000" y="25.000000" width="77.400000" height="24.000000" rx="0" ry="0" style="stroke:none;fill:#cccccc;"/>
<rect x="24.000000" y="24.000000" width="77.400000" height="24.000000" rx="0" ry="0" style="stroke:none;fill:#003366;"/>
</a>
<a xlink:href="holdcounter-0x6000c435e2e0.svg">
<text x="62.700000" y="38.000000" font-family="Arial" font-size="7" text-anchor="middle" fill="#FFFFFF">holdcounter(x1129)</text>
</a>
<circle cx="26.000000" cy="26.000000" r="1"/>
<rect x="51.700000" y="67.000000" width="24.000000" height="24.000000" rx="0" ry="0" style="stroke:none;fill:#cccccc;"/>
<rect x="50.700000" y="66.000000" width="24.000000" height="24.000000" rx="0" ry="0" style="stroke:none;fill:#f44800;"/>
<text x="62.700000" y="80.000000" font-family="Arial" font-size="7" text-anchor="middle" fill="#FFFFFF">0</text>
<circle cx="52.700000" cy="68.000000" r="1"/>
<line x1="41.700000" y1="57.000000" x2="41.700000" y2="99.000000"  style="stroke: black; stroke-linecap:round; stroke-width:0.25; stroke-dasharray:3,3;"/>
<line x1="41.700000" y1="99.000000" x2="83.700000" y2="99.000000"  style="stroke: black; stroke-linecap:round; stroke-width:0.25; stroke-dasharray:3,3;"/>
<line x1="83.700000" y1="99.000000" x2="83.700000" y2="57.000000"  style="stroke: black; stroke-linecap:round; stroke-width:0.25; stroke-dasharray:3,3;"/>
<line x1="41.700000" y1="57.000000" x2="46.700000" y2="57.000000"  style="stroke: black; stroke-linecap:round; stroke-width:0.25; stroke-dasharray:3,3;"/>
<line x1="78.950000" y1="57.000000" x2="83.700000" y2="57.000000"  style="stroke: black; stroke-linecap:round; stroke-width:0.25; stroke-dasharray:3,3;"/>
<text x="46.700000" y="59.000000" font-family="Arial" font-size="7">clipCond</text>
<rect x="118.400000" y="51.000000" width="24.000000" height="24.000000" rx="0" ry="0" style="stroke:none;fill:#cccccc;"/>
<rect x="117.400000" y="50.000000" width="24.000000" height="24.000000" rx="0" ry="0" style="stroke:none;fill:#4B71A1;"/>
<text x="129.400000" y="64.000000" font-family="Arial" font-size="7" text-anchor="middle" fill="#FFFFFF">&gt;</text>
<circle cx="119.400000" cy="52.000000" r="1"/>
<line x1="114.400000" y1="57.000000" x2="117.400000" y2="58.000000"  transform="rotate(0.000000,117.400000,58.000000)" style="stroke: black; stroke-width:0.25;"/>
<line x1="114.400000" y1="59.000000" x2="117.400000" y2="58.000000"  transform="rotate(0.000000,117.400000,58.000000)" style="stroke: black; stroke-width:0.25;"/>
<line x1="114.400000" y1="65.000000" x2="117.400000" y2="66.000000"  transform="rotate(0.000000,117.400000,66.000000)" style="stroke: black; stroke-width:0.25;"/>
<line x1="114.400000" y1="67.000000" x2="117.400000" y2="66.000000"  transform="rotate(0.000000,117.400000,66.000000)" style="stroke: black; stroke-width:0.25;"/>
<line x1="15.000000" y1="15.000000" x2="15.000000" y2="109.000000"  style="stroke: black; stroke-linecap:round; stroke-width:0.25; stroke-dasharray:3,3;"/>
<line x1="15.000000" y1="109.000000" x2="158.400000" y2="109.000000"  style="stroke: black; stroke-linecap:round; stroke-width:0.25; stroke-dasharray:3,3;"/>
<line x1="158.400000" y1="109.000000" x2="158.400000" y2="15.000000"  style="stroke: black; stroke-linecap:round; stroke-width:0.25; stroke-dasharray:3,3;"/>
<line x1="15.000000" y1="15.000000" x2="20.000000" y2="15.000000"  style="stroke: black; stroke-linecap:round; stroke-width:0.25; stroke-dasharray:3,3;"/>
<line x1="71.600000" y1="15.000000" x2="158.400000" y2="15.000000"  style="stroke: black; stroke-linecap:round; stroke-width:0.25; stroke-dasharray:3,3;"/>
<text x="20.000000" y="17.000000" font-family="Arial" font-size="7">holdsig(x1129)</text>
<line x1="160.400000" y1="61.000000" x2="163.400000" y2="62.000000"  transform="rotate(0.000000,163.400000,62.000000)" style="stroke: black; stroke-width:0.25;"/>
<line x1="160.400000" y1="63.000000" x2="163.400000" y2="62.000000"  transform="rotate(0.000000,163.400000,62.000000)" style="stroke: black; stroke-width:0.25;"/>
<line x1="74.700000" y1="78.000000" x2="78.700000" y2="78.000000"  style="stroke:black; stroke-linecap:round; stroke-width:0.25;"/>
<line x1="78.700000" y1="78.000000" x2="88.700000" y2="78.000000"  style="stroke:black; stroke-linecap:round; stroke-width:0.25;"/>
<line x1="88.700000" y1="78.000000" x2="105.400000" y2="78.000000"  style="stroke:black; stroke-linecap:round; stroke-width:0.25;"/>
<line x1="101.400000" y1="36.000000" x2="105.400000" y2="36.000000"  style="stroke:black; stroke-linecap:round; stroke-width:0.25;"/>
<line x1="105.400000" y1="66.000000" x2="113.400000" y2="66.000000"  style="stroke:black; stroke-linecap:round; stroke-width:0.25;"/>
<line x1="105.400000" y1="78.000000" x2="105.400000" y2="66.000000"  style="stroke:black; stroke-linecap:round; stroke-width:0.25;"/>
<line x1="105.400000" y1="78.000000" x2="105.400000" y2="78.000000"  style="stroke:black; stroke-linecap:round; stroke-width:0.25;"/>
<line x1="105.400000" y1="36.000000" x2="113.400000" y2="36.000000"  style="stroke:black; stroke-linecap:round; stroke-width:0.25;"/>
<line x1="113.400000" y1="36.000000" x2="113.400000" y2="58.000000"  style="stroke:black; stroke-linecap:round; stroke-width:0.25;"/>
<line x1="113.400000" y1="58.000000" x2="113.400000" y2="58.000000"  style="stroke:black; stroke-linecap:round; stroke-width:0.25;"/>
<line x1="113.400000" y1="58.000000" x2="117.400000" y2="58.000000"  style="stroke:black; stroke-linecap:round; stroke-width:0.25;"/>
<line x1="113.400000" y1="66.000000" x2="117.400000" y2="66.000000"  style="stroke:black; stroke-linecap:round; stroke-width:0.25;"/>
<line x1="141.400000" y1="62.000000" x2="145.400000" y2="62.000000"  style="stroke:black; stroke-linecap:round; stroke-width:0.25;"/>
<line x1="145.400000" y1="62.000000" x2="145.400000" y2="62.000000"  style="stroke:black; stroke-linecap:round; stroke-width:0.25;"/>
<line x1="145.400000" y1="62.000000" x2="149.400000" y2="62.000000"  style="stroke:black; stroke-linecap:round; stroke-width:0.25;"/>
<line x1="149.400000" y1="62.000000" x2="153.400000" y2="62.000000"  style="stroke:black; stroke-linecap:round; stroke-width:0.25;"/>
<line x1="153.400000" y1="62.000000" x2="163.400000" y2="62.000000"  style="stroke:black; stroke-linecap:round; stroke-width:0.25;"/>
</svg>
