<?xml version="1.0"?>
<svg xmlns="http://www.w3.org/2000/svg" xmlns:xlink="http://www.w3.org/1999/xlink" viewBox="0 0 248.000000 188.000000" width="124.000000mm" height="94.000000mm" version="1.1">
<a xlink:href="RMS-0x60015011b600.svg">
<rect x="1.000000" y="1.000000" width="247.000000" height="187.000000" rx="0" ry="0" style="stroke:none;fill:#cccccc;"/>
<rect x="0.000000" y="0.000000" width="247.000000" height="187.000000" rx="0" ry="0" style="stroke:none;fill:#ffffff;"/>
</a>
<text x="10.000000" y="7.000000" font-family="Arial" font-size="7"></text>
<rect x="41.000000" y="67.000000" width="24.000000" height="24.000000" rx="0" ry="0" style="stroke:none;fill:#cccccc;"/>
<rect x="40.000000" y="66.000000" width="24.000000" height="24.000000" rx="0" ry="0" style="stroke:none;fill:#47945E;"/>
<text x="52.000000" y="80.000000" font-family="Arial" font-size="7" text-anchor="middle" fill="#FFFFFF">v0</text>
<circle cx="42.000000" cy="68.000000" r="1"/>
<line x1="37.000000" y1="77.000000" x2="40.000000" y2="78.000000"  transform="rotate(0.000000,40.000000,78.000000)" style="stroke: black; stroke-width:0.25;"/>
<line x1="37.000000" y1="79.000000" x2="40.000000" y2="78.000000"  transform="rotate(0.000000,40.000000,78.000000)" style="stroke: black; stroke-width:0.25;"/>
<rect x="41.000000" y="99.000000" width="24.000000" height="24.000000" rx="0" ry="0" style="stroke:none;fill:#cccccc;"/>
<rect x="40.000000" y="98.000000" width="24.000000" height="24.000000" rx="0" ry="0" style="stroke:none;fill:#47945E;"/>
<text x="52.000000" y="112.000000" font-family="Arial" font-size="7" text-anchor="middle" fill="#FFFFFF">v1</text>
<circle cx="42.000000" cy="100.000000" r="1"/>
<line x1="37.000000" y1="109.000000" x2="40.000000" y2="110.000000"  transform="rotate(0.000000,40.000000,110.000000)" style="stroke: black; stroke-width:0.25;"/>
<line x1="37.000000" y1="111.000000" x2="40.000000" y2="110.000000"  transform="rotate(0.000000,40.000000,110.000000)" style="stroke: black; stroke-width:0.25;"/>
<rect x="113.000000" y="25.000000" width="24.000000" height="24.000000" rx="0" ry="0" style="stroke:none;fill:#cccccc;"/>
<rect x="112.000000" y="24.000000" width="24.000000" height="24.000000" rx="0" ry="0" style="stroke:none;fill:#47945E;"/>
<text x="124.000000" y="38.000000" font-family="Arial" font-size="7" text-anchor="middle" fill="#FFFFFF">v0</text>
<circle cx="114.000000" cy="26.000000" r="1"/>
<rect x="93.000000" y="67.000000" width="24.000000" height="24.000000" rx="0" ry="0" style="stroke:none;fill:#cccccc;"/>
<rect x="92.000000" y="66.000000" width="24.000000" height="24.000000" rx="0" ry="0" style="stroke:none;fill:#f44800;"/>
<text x="104.000000" y="80.000000" font-family="Arial" font-size="7" text-anchor="middle" fill="#FFFFFF">1</text>
<circle cx="94.000000" cy="68.000000" r="1"/>
<line x1="83.000000" y1="57.000000" x2="83.000000" y2="99.000000"  style="stroke: black; stroke-linecap:round; stroke-width:0.25; stroke-dasharray:3,3;"/>
<line x1="83.000000" y1="99.000000" x2="125.000000" y2="99.000000"  style="stroke: black; stroke-linecap:round; stroke-width:0.25; stroke-dasharray:3,3;"/>
<line x1="125.000000" y1="99.000000" x2="125.000000" y2="57.000000"  style="stroke: black; stroke-linecap:round; stroke-width:0.25; stroke-dasharray:3,3;"/>
<line x1="83.000000" y1="57.000000" x2="88.000000" y2="57.000000"  style="stroke: black; stroke-linecap:round; stroke-width:0.25; stroke-dasharray:3,3;"/>
<line x1="117.025000" y1="57.000000" x2="125.000000" y2="57.000000"  style="stroke: black; stroke-linecap:round; stroke-width:0.25; stroke-dasharray:3,3;"/>
<text x="88.000000" y="59.000000" font-family="Arial" font-size="7">pow2(0)</text>
<rect x="73.000000" y="109.000000" width="24.000000" height="24.000000" rx="0" ry="0" style="stroke:none;fill:#cccccc;"/>
<rect x="72.000000" y="108.000000" width="24.000000" height="24.000000" rx="0" ry="0" style="stroke:none;fill:#47945E;"/>
<text x="84.000000" y="122.000000" font-family="Arial" font-size="7" text-anchor="middle" fill="#FFFFFF">v1</text>
<circle cx="74.000000" cy="110.000000" r="1"/>
<rect x="73.000000" y="141.000000" width="24.000000" height="24.000000" rx="0" ry="0" style="stroke:none;fill:#cccccc;"/>
<rect x="72.000000" y="140.000000" width="24.000000" height="24.000000" rx="0" ry="0" style="stroke:none;fill:#47945E;"/>
<text x="84.000000" y="154.000000" font-family="Arial" font-size="7" text-anchor="middle" fill="#FFFFFF">v0</text>
<circle cx="74.000000" cy="142.000000" r="1"/>
<rect x="113.000000" y="125.000000" width="24.000000" height="24.000000" rx="0" ry="0" style="stroke:none;fill:#cccccc;"/>
<rect x="112.000000" y="124.000000" width="24.000000" height="24.000000" rx="0" ry="0" style="stroke:none;fill:#4B71A1;"/>
<text x="124.000000" y="138.000000" font-family="Arial" font-size="7" text-anchor="middle" fill="#FFFFFF">-</text>
<circle cx="114.000000" cy="126.000000" r="1"/>
<line x1="109.000000" y1="131.000000" x2="112.000000" y2="132.000000"  transform="rotate(0.000000,112.000000,132.000000)" style="stroke: black; stroke-width:0.25;"/>
<line x1="109.000000" y1="133.000000" x2="112.000000" y2="132.000000"  transform="rotate(0.000000,112.000000,132.000000)" style="stroke: black; stroke-width:0.25;"/>
<line x1="109.000000" y1="139.000000" x2="112.000000" y2="140.000000"  transform="rotate(0.000000,112.000000,140.000000)" style="stroke: black; stroke-width:0.25;"/>
<line x1="109.000000" y1="141.000000" x2="112.000000" y2="140.000000"  transform="rotate(0.000000,112.000000,140.000000)" style="stroke: black; stroke-width:0.25;"/>
<rect x="153.000000" y="99.000000" width="24.000000" height="24.000000" rx="0" ry="0" style="stroke:none;fill:#cccccc;"/>
<rect x="152.000000" y="98.000000" width="24.000000" height="24.000000" rx="0" ry="0" style="stroke:none;fill:#4B71A1;"/>
<text x="164.000000" y="112.000000" font-family="Arial" font-size="7" text-anchor="middle" fill="#FFFFFF">*</text>
<circle cx="154.000000" cy="100.000000" r="1"/>
<line x1="149.000000" y1="105.000000" x2="152.000000" y2="106.000000"  transform="rotate(0.000000,152.000000,106.000000)" style="stroke: black; stroke-width:0.25;"/>
<line x1="149.000000" y1="107.000000" x2="152.000000" y2="106.000000"  transform="rotate(0.000000,152.000000,106.000000)" style="stroke: black; stroke-width:0.25;"/>
<line x1="149.000000" y1="113.000000" x2="152.000000" y2="114.000000"  transform="rotate(0.000000,152.000000,114.000000)" style="stroke: black; stroke-width:0.25;"/>
<line x1="149.000000" y1="115.000000" x2="152.000000" y2="114.000000"  transform="rotate(0.000000,152.000000,114.000000)" style="stroke: black; stroke-width:0.25;"/>
<rect x="193.000000" y="83.000000" width="24.000000" height="24.000000" rx="0" ry="0" style="stroke:none;fill:#cccccc;"/>
<rect x="192.000000" y="82.000000" width="24.000000" height="24.000000" rx="0" ry="0" style="stroke:none;fill:#4B71A1;"/>
<text x="204.000000" y="96.000000" font-family="Arial" font-size="7" text-anchor="middle" fill="#FFFFFF">+</text>
<circle cx="194.000000" cy="84.000000" r="1"/>
<line x1="189.000000" y1="89.000000" x2="192.000000" y2="90.000000"  transform="rotate(0.000000,192.000000,90.000000)" style="stroke: black; stroke-width:0.25;"/>
<line x1="189.000000" y1="91.000000" x2="192.000000" y2="90.000000"  transform="rotate(0.000000,192.000000,90.000000)" style="stroke: black; stroke-width:0.25;"/>
<line x1="189.000000" y1="97.000000" x2="192.000000" y2="98.000000"  transform="rotate(0.000000,192.000000,98.000000)" style="stroke: black; stroke-width:0.25;"/>
<line x1="189.000000" y1="99.000000" x2="192.000000" y2="98.000000"  transform="rotate(0.000000,192.000000,98.000000)" style="stroke: black; stroke-width:0.25;"/>
<line x1="15.000000" y1="15.000000" x2="15.000000" y2="173.000000"  style="stroke: black; stroke-linecap:round; stroke-width:0.25; stroke-dasharray:3,3;"/>
<line x1="15.000000" y1="173.000000" x2="233.000000" y2="173.000000"  style="stroke: black; stroke-linecap:round; stroke-width:0.25; stroke-dasharray:3,3;"/>
<line x1="233.000000" y1="173.000000" x2="233.000000" y2="15.000000"  style="stroke: black; stroke-linecap:round; stroke-width:0.25; stroke-dasharray:3,3;"/>
<line x1="15.000000" y1="15.000000" x2="20.000000" y2="15.000000"  style="stroke: black; stroke-linecap:round; stroke-width:0.25; stroke-dasharray:3,3;"/>
<line x1="94.175000" y1="15.000000" x2="233.000000" y2="15.000000"  style="stroke: black; stroke-linecap:round; stroke-width:0.25; stroke-dasharray:3,3;"/>
<text x="20.000000" y="17.000000" font-family="Arial" font-size="7">interpolate_linear(1)</text>
<line x1="235.000000" y1="93.000000" x2="238.000000" y2="94.000000"  transform="rotate(0.000000,238.000000,94.000000)" style="stroke: black; stroke-width:0.25;"/>
<line x1="235.000000" y1="95.000000" x2="238.000000" y2="94.000000"  transform="rotate(0.000000,238.000000,94.000000)" style="stroke: black; stroke-width:0.25;"/>
<line x1="10.000000" y1="90.000000" x2="20.000000" y2="90.000000"  style="stroke:black; stroke-linecap:round; stroke-width:0.25;"/>
<line x1="10.000000" y1="98.000000" x2="20.000000" y2="98.000000"  style="stroke:black; stroke-linecap:round; stroke-width:0.25;"/>
<line x1="20.000000" y1="90.000000" x2="24.000000" y2="90.000000"  style="stroke:black; stroke-linecap:round; stroke-width:0.25;"/>
<line x1="20.000000" y1="98.000000" x2="24.000000" y2="98.000000"  style="stroke:black; stroke-linecap:round; stroke-width:0.25;"/>
<line x1="24.000000" y1="90.000000" x2="28.000000" y2="90.000000"  style="stroke:black; stroke-linecap:round; stroke-width:0.25;"/>
<line x1="24.000000" y1="98.000000" x2="28.000000" y2="98.000000"  style="stroke:black; stroke-linecap:round; stroke-width:0.25;"/>
<line x1="28.000000" y1="78.000000" x2="36.000000" y2="78.000000"  style="stroke:black; stroke-linecap:round; stroke-width:0.25;"/>
<line x1="28.000000" y1="90.000000" x2="28.000000" y2="78.000000"  style="stroke:black; stroke-linecap:round; stroke-width:0.25;"/>
<line x1="28.000000" y1="90.000000" x2="28.000000" y2="90.000000"  style="stroke:black; stroke-linecap:round; stroke-width:0.25;"/>
<line x1="28.000000" y1="98.000000" x2="36.000000" y2="98.000000"  style="stroke:black; stroke-linecap:round; stroke-width:0.25;"/>
<line x1="36.000000" y1="78.000000" x2="40.000000" y2="78.000000"  style="stroke:black; stroke-linecap:round; stroke-width:0.25;"/>
<line x1="36.000000" y1="98.000000" x2="36.000000" y2="110.000000"  style="stroke:black; stroke-linecap:round; stroke-width:0.25;"/>
<line x1="36.000000" y1="110.000000" x2="36.000000" y2="110.000000"  style="stroke:black; stroke-linecap:round; stroke-width:0.25;"/>
<line x1="36.000000" y1="110.000000" x2="40.000000" y2="110.000000"  style="stroke:black; stroke-linecap:round; stroke-width:0.25;"/>
<line x1="96.000000" y1="120.000000" x2="100.000000" y2="120.000000"  style="stroke:black; stroke-linecap:round; stroke-width:0.25;"/>
<line x1="96.000000" y1="152.000000" x2="100.000000" y2="152.000000"  style="stroke:black; stroke-linecap:round; stroke-width:0.25;"/>
<line x1="100.000000" y1="120.000000" x2="108.000000" y2="120.000000"  style="stroke:black; stroke-linecap:round; stroke-width:0.25;"/>
<line x1="100.000000" y1="140.000000" x2="108.000000" y2="140.000000"  style="stroke:black; stroke-linecap:round; stroke-width:0.25;"/>
<line x1="100.000000" y1="152.000000" x2="100.000000" y2="140.000000"  style="stroke:black; stroke-linecap:round; stroke-width:0.25;"/>
<line x1="100.000000" y1="152.000000" x2="100.000000" y2="152.000000"  style="stroke:black; stroke-linecap:round; stroke-width:0.25;"/>
<line x1="108.000000" y1="120.000000" x2="108.000000" y2="132.000000"  style="stroke:black; stroke-linecap:round; stroke-width:0.25;"/>
<line x1="108.000000" y1="132.000000" x2="108.000000" y2="132.000000"  style="stroke:black; stroke-linecap:round; stroke-width:0.25;"/>
<line x1="108.000000" y1="132.000000" x2="112.000000" y2="132.000000"  style="stroke:black; stroke-linecap:round; stroke-width:0.25;"/>
<line x1="108.000000" y1="140.000000" x2="112.000000" y2="140.000000"  style="stroke:black; stroke-linecap:round; stroke-width:0.25;"/>
<line x1="116.000000" y1="78.000000" x2="120.000000" y2="78.000000"  style="stroke:black; stroke-linecap:round; stroke-width:0.25;"/>
<line x1="120.000000" y1="78.000000" x2="130.000000" y2="78.000000"  style="stroke:black; stroke-linecap:round; stroke-width:0.25;"/>
<line x1="130.000000" y1="78.000000" x2="140.000000" y2="78.000000"  style="stroke:black; stroke-linecap:round; stroke-width:0.25;"/>
<line x1="136.000000" y1="36.000000" x2="140.000000" y2="36.000000"  style="stroke:black; stroke-linecap:round; stroke-width:0.25;"/>
<line x1="136.000000" y1="136.000000" x2="140.000000" y2="136.000000"  style="stroke:black; stroke-linecap:round; stroke-width:0.25;"/>
<line x1="140.000000" y1="36.000000" x2="180.000000" y2="36.000000"  style="stroke:black; stroke-linecap:round; stroke-width:0.25;"/>
<line x1="140.000000" y1="78.000000" x2="148.000000" y2="78.000000"  style="stroke:black; stroke-linecap:round; stroke-width:0.25;"/>
<line x1="140.000000" y1="114.000000" x2="148.000000" y2="114.000000"  style="stroke:black; stroke-linecap:round; stroke-width:0.25;"/>
<line x1="140.000000" y1="136.000000" x2="140.000000" y2="114.000000"  style="stroke:black; stroke-linecap:round; stroke-width:0.25;"/>
<line x1="140.000000" y1="136.000000" x2="140.000000" y2="136.000000"  style="stroke:black; stroke-linecap:round; stroke-width:0.25;"/>
<line x1="148.000000" y1="78.000000" x2="148.000000" y2="106.000000"  style="stroke:black; stroke-linecap:round; stroke-width:0.25;"/>
<line x1="148.000000" y1="106.000000" x2="148.000000" y2="106.000000"  style="stroke:black; stroke-linecap:round; stroke-width:0.25;"/>
<line x1="148.000000" y1="106.000000" x2="152.000000" y2="106.000000"  style="stroke:black; stroke-linecap:round; stroke-width:0.25;"/>
<line x1="148.000000" y1="114.000000" x2="152.000000" y2="114.000000"  style="stroke:black; stroke-linecap:round; stroke-width:0.25;"/>
<line x1="176.000000" y1="110.000000" x2="180.000000" y2="110.000000"  style="stroke:black; stroke-linecap:round; stroke-width:0.25;"/>
<line x1="180.000000" y1="36.000000" x2="188.000000" y2="36.000000"  style="stroke:black; stroke-linecap:round; stroke-width:0.25;"/>
<line x1="180.000000" y1="98.000000" x2="188.000000" y2="98.000000"  style="stroke:black; stroke-linecap:round; stroke-width:0.25;"/>
<line x1="180.000000" y1="110.000000" x2="180.000000" y2="98.000000"  style="stroke:black; stroke-linecap:round; stroke-width:0.25;"/>
<line x1="180.000000" y1="110.000000" x2="180.000000" y2="110.000000"  style="stroke:black; stroke-linecap:round; stroke-width:0.25;"/>
<line x1="188.000000" y1="36.000000" x2="188.000000" y2="90.000000"  style="stroke:black; stroke-linecap:round; stroke-width:0.25;"/>
<line x1="188.000000" y1="90.000000" x2="188.000000" y2="90.000000"  style="stroke:black; stroke-linecap:round; stroke-width:0.25;"/>
<line x1="188.000000" y1="90.000000" x2="192.000000" y2="90.000000"  style="stroke:black; stroke-linecap:round; stroke-width:0.25;"/>
<line x1="188.000000" y1="98.000000" x2="192.000000" y2="98.000000"  style="stroke:black; stroke-linecap:round; stroke-width:0.25;"/>
<line x1="216.000000" y1="94.000000" x2="220.000000" y2="94.000000"  style="stroke:black; stroke-linecap:round; stroke-width:0.25;"/>
<line x1="220.000000" y1="94.000000" x2="220.000000" y2="94.000000"  style="stroke:black; stroke-linecap:round; stroke-width:0.25;"/>
<line x1="220.000000" y1="94.000000" x2="224.000000" y2="94.000000"  style="stroke:black; stroke-linecap:round; stroke-width:0.25;"/>
<line x1="224.000000" y1="94.000000" x2="228.000000" y2="94.000000"  style="stroke:black; stroke-linecap:round; stroke-width:0.25;"/>
<line x1="228.000000" y1="94.000000" x2="238.000000" y2="94.000000"  style="stroke:black; stroke-linecap:round; stroke-width:0.25;"/>
</svg>
