<?xml version="1.0"?>
<svg xmlns="http://www.w3.org/2000/svg" xmlns:xlink="http://www.w3.org/1999/xlink" viewBox="0 0 575.100000 112.000000" width="287.550000mm" height="56.000000mm" version="1.1">
<a xlink:href="gain-0x60014416d440.svg">
<rect x="1.000000" y="1.000000" width="574.100000" height="111.000000" rx="0" ry="0" style="stroke:none;fill:#cccccc;"/>
<rect x="0.000000" y="0.000000" width="574.100000" height="111.000000" rx="0" ry="0" style="stroke:none;fill:#ffffff;"/>
</a>
<text x="10.000000" y="7.000000" font-family="Arial" font-size="7"></text>
<rect x="31.450000" y="29.000000" width="438.600000" height="24.000000" rx="0" ry="0" style="stroke:none;fill:#cccccc;"/>
<rect x="30.450000" y="28.000000" width="438.600000" height="24.000000" rx="0" ry="0" style="stroke:none;fill:#477881;"/>
<text x="249.750000" y="42.000000" font-family="Arial" font-size="7" text-anchor="middle" fill="#FFFFFF">vslider(v:soundsgood/t:expert/h:mscomp/h:low band/low knee, 12.0f, 0.0f, 30.0f, 0.10000000000000001f)</text>
<circle cx="32.450000" cy="30.000000" r="1"/>
<rect x="25.000000" y="61.000000" width="451.500000" height="24.000000" rx="0" ry="0" style="stroke:none;fill:#cccccc;"/>
<rect x="24.000000" y="60.000000" width="451.500000" height="24.000000" rx="0" ry="0" style="stroke:none;fill:#477881;"/>
<text x="249.750000" y="74.000000" font-family="Arial" font-size="7" text-anchor="middle" fill="#FFFFFF">vslider(v:soundsgood/t:expert/h:mscomp/h:high band/high knee, 12.0f, 0.0f, 30.0f, 0.10000000000000001f)</text>
<circle cx="26.000000" cy="62.000000" r="1"/>
<a xlink:href="LinArray-0x60013c0d1560.svg">
<rect x="492.500000" y="25.000000" width="51.600000" height="64.000000" rx="0" ry="0" style="stroke:none;fill:#cccccc;"/>
<rect x="491.500000" y="24.000000" width="51.600000" height="64.000000" rx="0" ry="0" style="stroke:none;fill:#003366;"/>
</a>
<a xlink:href="LinArray-0x60013c0d1560.svg">
<text x="517.300000" y="58.000000" font-family="Arial" font-size="7" text-anchor="middle" fill="#FFFFFF">LinArray(8)</text>
</a>
<circle cx="493.500000" cy="26.000000" r="1"/>
<line x1="488.500000" y1="51.000000" x2="491.500000" y2="52.000000"  transform="rotate(0.000000,491.500000,52.000000)" style="stroke: black; stroke-width:0.25;"/>
<line x1="488.500000" y1="53.000000" x2="491.500000" y2="52.000000"  transform="rotate(0.000000,491.500000,52.000000)" style="stroke: black; stroke-width:0.25;"/>
<line x1="488.500000" y1="59.000000" x2="491.500000" y2="60.000000"  transform="rotate(0.000000,491.500000,60.000000)" style="stroke: black; stroke-width:0.25;"/>
<line x1="488.500000" y1="61.000000" x2="491.500000" y2="60.000000"  transform="rotate(0.000000,491.500000,60.000000)" style="stroke: black; stroke-width:0.25;"/>
<line x1="15.000000" y1="15.000000" x2="15.000000" y2="97.000000"  style="stroke: black; stroke-linecap:round; stroke-width:0.25; stroke-dasharray:3,3;"/>
<line x1="15.000000" y1="97.000000" x2="560.100000" y2="97.000000"  style="stroke: black; stroke-linecap:round; stroke-width:0.25; stroke-dasharray:3,3;"/>
<line x1="560.100000" y1="97.000000" x2="560.100000" y2="15.000000"  style="stroke: black; stroke-linecap:round; stroke-width:0.25; stroke-dasharray:3,3;"/>
<line x1="15.000000" y1="15.000000" x2="20.000000" y2="15.000000"  style="stroke: black; stroke-linecap:round; stroke-width:0.25; stroke-dasharray:3,3;"/>
<line x1="58.700000" y1="15.000000" x2="560.100000" y2="15.000000"  style="stroke: black; stroke-linecap:round; stroke-width:0.25; stroke-dasharray:3,3;"/>
<text x="20.000000" y="17.000000" font-family="Arial" font-size="7">knee_array</text>
<line x1="562.100000" y1="27.000000" x2="565.100000" y2="28.000000"  transform="rotate(0.000000,565.100000,28.000000)" style="stroke: black; stroke-width:0.25;"/>
<line x1="562.100000" y1="29.000000" x2="565.100000" y2="28.000000"  transform="rotate(0.000000,565.100000,28.000000)" style="stroke: black; stroke-width:0.25;"/>
<line x1="562.100000" y1="35.000000" x2="565.100000" y2="36.000000"  transform="rotate(0.000000,565.100000,36.000000)" style="stroke: black; stroke-width:0.25;"/>
<line x1="562.100000" y1="37.000000" x2="565.100000" y2="36.000000"  transform="rotate(0.000000,565.100000,36.000000)" style="stroke: black; stroke-width:0.25;"/>
<line x1="562.100000" y1="43.000000" x2="565.100000" y2="44.000000"  transform="rotate(0.000000,565.100000,44.000000)" style="stroke: black; stroke-width:0.25;"/>
<line x1="562.100000" y1="45.000000" x2="565.100000" y2="44.000000"  transform="rotate(0.000000,565.100000,44.000000)" style="stroke: black; stroke-width:0.25;"/>
<line x1="562.100000" y1="51.000000" x2="565.100000" y2="52.000000"  transform="rotate(0.000000,565.100000,52.000000)" style="stroke: black; stroke-width:0.25;"/>
<line x1="562.100000" y1="53.000000" x2="565.100000" y2="52.000000"  transform="rotate(0.000000,565.100000,52.000000)" style="stroke: black; stroke-width:0.25;"/>
<line x1="562.100000" y1="59.000000" x2="565.100000" y2="60.000000"  transform="rotate(0.000000,565.100000,60.000000)" style="stroke: black; stroke-width:0.25;"/>
<line x1="562.100000" y1="61.000000" x2="565.100000" y2="60.000000"  transform="rotate(0.000000,565.100000,60.000000)" style="stroke: black; stroke-width:0.25;"/>
<line x1="562.100000" y1="67.000000" x2="565.100000" y2="68.000000"  transform="rotate(0.000000,565.100000,68.000000)" style="stroke: black; stroke-width:0.25;"/>
<line x1="562.100000" y1="69.000000" x2="565.100000" y2="68.000000"  transform="rotate(0.000000,565.100000,68.000000)" style="stroke: black; stroke-width:0.25;"/>
<line x1="562.100000" y1="75.000000" x2="565.100000" y2="76.000000"  transform="rotate(0.000000,565.100000,76.000000)" style="stroke: black; stroke-width:0.25;"/>
<line x1="562.100000" y1="77.000000" x2="565.100000" y2="76.000000"  transform="rotate(0.000000,565.100000,76.000000)" style="stroke: black; stroke-width:0.25;"/>
<line x1="562.100000" y1="83.000000" x2="565.100000" y2="84.000000"  transform="rotate(0.000000,565.100000,84.000000)" style="stroke: black; stroke-width:0.25;"/>
<line x1="562.100000" y1="85.000000" x2="565.100000" y2="84.000000"  transform="rotate(0.000000,565.100000,84.000000)" style="stroke: black; stroke-width:0.25;"/>
<line x1="469.050000" y1="40.000000" x2="473.050000" y2="40.000000"  style="stroke:black; stroke-linecap:round; stroke-width:0.25;"/>
<line x1="473.050000" y1="40.000000" x2="479.500000" y2="40.000000"  style="stroke:black; stroke-linecap:round; stroke-width:0.25;"/>
<line x1="475.500000" y1="72.000000" x2="479.500000" y2="72.000000"  style="stroke:black; stroke-linecap:round; stroke-width:0.25;"/>
<line x1="479.500000" y1="40.000000" x2="487.500000" y2="40.000000"  style="stroke:black; stroke-linecap:round; stroke-width:0.25;"/>
<line x1="479.500000" y1="60.000000" x2="487.500000" y2="60.000000"  style="stroke:black; stroke-linecap:round; stroke-width:0.25;"/>
<line x1="479.500000" y1="72.000000" x2="479.500000" y2="60.000000"  style="stroke:black; stroke-linecap:round; stroke-width:0.25;"/>
<line x1="479.500000" y1="72.000000" x2="479.500000" y2="72.000000"  style="stroke:black; stroke-linecap:round; stroke-width:0.25;"/>
<line x1="487.500000" y1="40.000000" x2="487.500000" y2="52.000000"  style="stroke:black; stroke-linecap:round; stroke-width:0.25;"/>
<line x1="487.500000" y1="52.000000" x2="487.500000" y2="52.000000"  style="stroke:black; stroke-linecap:round; stroke-width:0.25;"/>
<line x1="487.500000" y1="52.000000" x2="491.500000" y2="52.000000"  style="stroke:black; stroke-linecap:round; stroke-width:0.25;"/>
<line x1="487.500000" y1="60.000000" x2="491.500000" y2="60.000000"  style="stroke:black; stroke-linecap:round; stroke-width:0.25;"/>
<line x1="543.100000" y1="28.000000" x2="547.100000" y2="28.000000"  style="stroke:black; stroke-linecap:round; stroke-width:0.25;"/>
<line x1="543.100000" y1="36.000000" x2="547.100000" y2="36.000000"  style="stroke:black; stroke-linecap:round; stroke-width:0.25;"/>
<line x1="543.100000" y1="44.000000" x2="547.100000" y2="44.000000"  style="stroke:black; stroke-linecap:round; stroke-width:0.25;"/>
<line x1="543.100000" y1="52.000000" x2="547.100000" y2="52.000000"  style="stroke:black; stroke-linecap:round; stroke-width:0.25;"/>
<line x1="543.100000" y1="60.000000" x2="547.100000" y2="60.000000"  style="stroke:black; stroke-linecap:round; stroke-width:0.25;"/>
<line x1="543.100000" y1="68.000000" x2="547.100000" y2="68.000000"  style="stroke:black; stroke-linecap:round; stroke-width:0.25;"/>
<line x1="543.100000" y1="76.000000" x2="547.100000" y2="76.000000"  style="stroke:black; stroke-linecap:round; stroke-width:0.25;"/>
<line x1="543.100000" y1="84.000000" x2="547.100000" y2="84.000000"  style="stroke:black; stroke-linecap:round; stroke-width:0.25;"/>
<line x1="547.100000" y1="28.000000" x2="547.100000" y2="28.000000"  style="stroke:black; stroke-linecap:round; stroke-width:0.25;"/>
<line x1="547.100000" y1="28.000000" x2="551.100000" y2="28.000000"  style="stroke:black; stroke-linecap:round; stroke-width:0.25;"/>
<line x1="547.100000" y1="36.000000" x2="547.100000" y2="36.000000"  style="stroke:black; stroke-linecap:round; stroke-width:0.25;"/>
<line x1="547.100000" y1="36.000000" x2="551.100000" y2="36.000000"  style="stroke:black; stroke-linecap:round; stroke-width:0.25;"/>
<line x1="547.100000" y1="44.000000" x2="547.100000" y2="44.000000"  style="stroke:black; stroke-linecap:round; stroke-width:0.25;"/>
<line x1="547.100000" y1="44.000000" x2="551.100000" y2="44.000000"  style="stroke:black; stroke-linecap:round; stroke-width:0.25;"/>
<line x1="547.100000" y1="52.000000" x2="547.100000" y2="52.000000"  style="stroke:black; stroke-linecap:round; stroke-width:0.25;"/>
<line x1="547.100000" y1="52.000000" x2="551.100000" y2="52.000000"  style="stroke:black; stroke-linecap:round; stroke-width:0.25;"/>
<line x1="547.100000" y1="60.000000" x2="547.100000" y2="60.000000"  style="stroke:black; stroke-linecap:round; stroke-width:0.25;"/>
<line x1="547.100000" y1="60.000000" x2="551.100000" y2="60.000000"  style="stroke:black; stroke-linecap:round; stroke-width:0.25;"/>
<line x1="547.100000" y1="68.000000" x2="547.100000" y2="68.000000"  style="stroke:black; stroke-linecap:round; stroke-width:0.25;"/>
<line x1="547.100000" y1="68.000000" x2="551.100000" y2="68.000000"  style="stroke:black; stroke-linecap:round; stroke-width:0.25;"/>
<line x1="547.100000" y1="76.000000" x2="547.100000" y2="76.000000"  style="stroke:black; stroke-linecap:round; stroke-width:0.25;"/>
<line x1="547.100000" y1="76.000000" x2="551.100000" y2="76.000000"  style="stroke:black; stroke-linecap:round; stroke-width:0.25;"/>
<line x1="547.100000" y1="84.000000" x2="547.100000" y2="84.000000"  style="stroke:black; stroke-linecap:round; stroke-width:0.25;"/>
<line x1="547.100000" y1="84.000000" x2="551.100000" y2="84.000000"  style="stroke:black; stroke-linecap:round; stroke-width:0.25;"/>
<line x1="551.100000" y1="28.000000" x2="555.100000" y2="28.000000"  style="stroke:black; stroke-linecap:round; stroke-width:0.25;"/>
<line x1="551.100000" y1="36.000000" x2="555.100000" y2="36.000000"  style="stroke:black; stroke-linecap:round; stroke-width:0.25;"/>
<line x1="551.100000" y1="44.000000" x2="555.100000" y2="44.000000"  style="stroke:black; stroke-linecap:round; stroke-width:0.25;"/>
<line x1="551.100000" y1="52.000000" x2="555.100000" y2="52.000000"  style="stroke:black; stroke-linecap:round; stroke-width:0.25;"/>
<line x1="551.100000" y1="60.000000" x2="555.100000" y2="60.000000"  style="stroke:black; stroke-linecap:round; stroke-width:0.25;"/>
<line x1="551.100000" y1="68.000000" x2="555.100000" y2="68.000000"  style="stroke:black; stroke-linecap:round; stroke-width:0.25;"/>
<line x1="551.100000" y1="76.000000" x2="555.100000" y2="76.000000"  style="stroke:black; stroke-linecap:round; stroke-width:0.25;"/>
<line x1="551.100000" y1="84.000000" x2="555.100000" y2="84.000000"  style="stroke:black; stroke-linecap:round; stroke-width:0.25;"/>
<line x1="555.100000" y1="28.000000" x2="565.100000" y2="28.000000"  style="stroke:black; stroke-linecap:round; stroke-width:0.25;"/>
<line x1="555.100000" y1="36.000000" x2="565.100000" y2="36.000000"  style="stroke:black; stroke-linecap:round; stroke-width:0.25;"/>
<line x1="555.100000" y1="44.000000" x2="565.100000" y2="44.000000"  style="stroke:black; stroke-linecap:round; stroke-width:0.25;"/>
<line x1="555.100000" y1="52.000000" x2="565.100000" y2="52.000000"  style="stroke:black; stroke-linecap:round; stroke-width:0.25;"/>
<line x1="555.100000" y1="60.000000" x2="565.100000" y2="60.000000"  style="stroke:black; stroke-linecap:round; stroke-width:0.25;"/>
<line x1="555.100000" y1="68.000000" x2="565.100000" y2="68.000000"  style="stroke:black; stroke-linecap:round; stroke-width:0.25;"/>
<line x1="555.100000" y1="76.000000" x2="565.100000" y2="76.000000"  style="stroke:black; stroke-linecap:round; stroke-width:0.25;"/>
<line x1="555.100000" y1="84.000000" x2="565.100000" y2="84.000000"  style="stroke:black; stroke-linecap:round; stroke-width:0.25;"/>
</svg>
