<?xml version="1.0"?>
<svg xmlns="http://www.w3.org/2000/svg" xmlns:xlink="http://www.w3.org/1999/xlink" viewBox="0 0 575.500000 108.000000" width="287.750000mm" height="54.000000mm" version="1.1">
<a xlink:href="tauCenterClipped-0x60013c0145a0.svg">
<rect x="1.000000" y="1.000000" width="574.500000" height="107.000000" rx="0" ry="0" style="stroke:none;fill:#cccccc;"/>
<rect x="0.000000" y="0.000000" width="574.500000" height="107.000000" rx="0" ry="0" style="stroke:none;fill:#ffffff;"/>
</a>
<text x="10.000000" y="7.000000" font-family="Arial" font-size="7"></text>
<a xlink:href="expander-0x60013c013e70.svg">
<rect x="25.000000" y="43.000000" width="141.900000" height="24.000000" rx="0" ry="0" style="stroke:none;fill:#cccccc;"/>
<rect x="24.000000" y="42.000000" width="141.900000" height="24.000000" rx="0" ry="0" style="stroke:none;fill:#003366;"/>
</a>
<a xlink:href="expander-0x60013c013e70.svg">
<text x="94.950000" y="56.000000" font-family="Arial" font-size="7" text-anchor="middle" fill="#FFFFFF">expander(x1142,x1143 : + : abs)</text>
</a>
<circle cx="26.000000" cy="44.000000" r="1"/>
<rect x="209.900000" y="43.000000" width="24.000000" height="24.000000" rx="0" ry="0" style="stroke:none;fill:#cccccc;"/>
<rect x="208.900000" y="42.000000" width="24.000000" height="24.000000" rx="0" ry="0" style="stroke:none;fill:#f44800;"/>
<text x="220.900000" y="56.000000" font-family="Arial" font-size="7" text-anchor="middle" fill="#FFFFFF">1</text>
<circle cx="210.900000" cy="44.000000" r="1"/>
<line x1="199.900000" y1="33.000000" x2="199.900000" y2="75.000000"  style="stroke: black; stroke-linecap:round; stroke-width:0.25; stroke-dasharray:3,3;"/>
<line x1="199.900000" y1="75.000000" x2="241.900000" y2="75.000000"  style="stroke: black; stroke-linecap:round; stroke-width:0.25; stroke-dasharray:3,3;"/>
<line x1="241.900000" y1="75.000000" x2="241.900000" y2="33.000000"  style="stroke: black; stroke-linecap:round; stroke-width:0.25; stroke-dasharray:3,3;"/>
<line x1="199.900000" y1="33.000000" x2="204.900000" y2="33.000000"  style="stroke: black; stroke-linecap:round; stroke-width:0.25; stroke-dasharray:3,3;"/>
<line x1="233.925000" y1="33.000000" x2="241.900000" y2="33.000000"  style="stroke: black; stroke-linecap:round; stroke-width:0.25; stroke-dasharray:3,3;"/>
<text x="204.900000" y="35.000000" font-family="Arial" font-size="7">pow2(0)</text>
<rect x="259.900000" y="47.000000" width="24.000000" height="24.000000" rx="0" ry="0" style="stroke:none;fill:#cccccc;"/>
<rect x="258.900000" y="46.000000" width="24.000000" height="24.000000" rx="0" ry="0" style="stroke:none;fill:#4B71A1;"/>
<text x="270.900000" y="60.000000" font-family="Arial" font-size="7" text-anchor="middle" fill="#FFFFFF">-</text>
<circle cx="260.900000" cy="48.000000" r="1"/>
<line x1="255.900000" y1="53.000000" x2="258.900000" y2="54.000000"  transform="rotate(0.000000,258.900000,54.000000)" style="stroke: black; stroke-width:0.25;"/>
<line x1="255.900000" y1="55.000000" x2="258.900000" y2="54.000000"  transform="rotate(0.000000,258.900000,54.000000)" style="stroke: black; stroke-width:0.25;"/>
<line x1="255.900000" y1="61.000000" x2="258.900000" y2="62.000000"  transform="rotate(0.000000,258.900000,62.000000)" style="stroke: black; stroke-width:0.25;"/>
<line x1="255.900000" y1="63.000000" x2="258.900000" y2="62.000000"  transform="rotate(0.000000,258.900000,62.000000)" style="stroke: black; stroke-width:0.25;"/>
<a xlink:href="meter-0x600074387d50.svg">
<rect x="291.900000" y="47.000000" width="90.300000" height="24.000000" rx="0" ry="0" style="stroke:none;fill:#cccccc;"/>
<rect x="290.900000" y="46.000000" width="90.300000" height="24.000000" rx="0" ry="0" style="stroke:none;fill:#003366;"/>
</a>
<a xlink:href="meter-0x600074387d50.svg">
<text x="336.050000" y="60.000000" font-family="Arial" font-size="7" text-anchor="middle" fill="#FFFFFF">meter_leveler_brake</text>
</a>
<circle cx="292.900000" cy="48.000000" r="1"/>
<line x1="287.900000" y1="57.000000" x2="290.900000" y2="58.000000"  transform="rotate(0.000000,290.900000,58.000000)" style="stroke: black; stroke-width:0.25;"/>
<line x1="287.900000" y1="59.000000" x2="290.900000" y2="58.000000"  transform="rotate(0.000000,290.900000,58.000000)" style="stroke: black; stroke-width:0.25;"/>
<rect x="398.200000" y="43.000000" width="25.800000" height="24.000000" rx="0" ry="0" style="stroke:none;fill:#cccccc;"/>
<rect x="397.200000" y="42.000000" width="25.800000" height="24.000000" rx="0" ry="0" style="stroke:none;fill:#4B71A1;"/>
<text x="410.100000" y="56.000000" font-family="Arial" font-size="7" text-anchor="middle" fill="#FFFFFF">attach</text>
<circle cx="399.200000" cy="44.000000" r="1"/>
<line x1="394.200000" y1="49.000000" x2="397.200000" y2="50.000000"  transform="rotate(0.000000,397.200000,50.000000)" style="stroke: black; stroke-width:0.25;"/>
<line x1="394.200000" y1="51.000000" x2="397.200000" y2="50.000000"  transform="rotate(0.000000,397.200000,50.000000)" style="stroke: black; stroke-width:0.25;"/>
<line x1="394.200000" y1="57.000000" x2="397.200000" y2="58.000000"  transform="rotate(0.000000,397.200000,58.000000)" style="stroke: black; stroke-width:0.25;"/>
<line x1="394.200000" y1="59.000000" x2="397.200000" y2="58.000000"  transform="rotate(0.000000,397.200000,58.000000)" style="stroke: black; stroke-width:0.25;"/>
<a xlink:href="leveler-0x6000743c9290.svg">
<rect x="440.000000" y="47.000000" width="64.500000" height="24.000000" rx="0" ry="0" style="stroke:none;fill:#cccccc;"/>
<rect x="439.000000" y="46.000000" width="64.500000" height="24.000000" rx="0" ry="0" style="stroke:none;fill:#003366;"/>
</a>
<a xlink:href="leveler-0x6000743c9290.svg">
<text x="471.250000" y="60.000000" font-family="Arial" font-size="7" text-anchor="middle" fill="#FFFFFF">leveler_speed</text>
</a>
<circle cx="441.000000" cy="48.000000" r="1"/>
<rect x="520.500000" y="43.000000" width="24.000000" height="24.000000" rx="0" ry="0" style="stroke:none;fill:#cccccc;"/>
<rect x="519.500000" y="42.000000" width="24.000000" height="24.000000" rx="0" ry="0" style="stroke:none;fill:#4B71A1;"/>
<text x="531.500000" y="56.000000" font-family="Arial" font-size="7" text-anchor="middle" fill="#FFFFFF">*</text>
<circle cx="521.500000" cy="44.000000" r="1"/>
<line x1="516.500000" y1="49.000000" x2="519.500000" y2="50.000000"  transform="rotate(0.000000,519.500000,50.000000)" style="stroke: black; stroke-width:0.25;"/>
<line x1="516.500000" y1="51.000000" x2="519.500000" y2="50.000000"  transform="rotate(0.000000,519.500000,50.000000)" style="stroke: black; stroke-width:0.25;"/>
<line x1="516.500000" y1="57.000000" x2="519.500000" y2="58.000000"  transform="rotate(0.000000,519.500000,58.000000)" style="stroke: black; stroke-width:0.25;"/>
<line x1="516.500000" y1="59.000000" x2="519.500000" y2="58.000000"  transform="rotate(0.000000,519.500000,58.000000)" style="stroke: black; stroke-width:0.25;"/>
<line x1="15.000000" y1="15.000000" x2="15.000000" y2="93.000000"  style="stroke: black; stroke-linecap:round; stroke-width:0.25; stroke-dasharray:3,3;"/>
<line x1="15.000000" y1="93.000000" x2="560.500000" y2="93.000000"  style="stroke: black; stroke-linecap:round; stroke-width:0.25; stroke-dasharray:3,3;"/>
<line x1="560.500000" y1="93.000000" x2="560.500000" y2="15.000000"  style="stroke: black; stroke-linecap:round; stroke-width:0.25; stroke-dasharray:3,3;"/>
<line x1="15.000000" y1="15.000000" x2="20.000000" y2="15.000000"  style="stroke: black; stroke-linecap:round; stroke-width:0.25; stroke-dasharray:3,3;"/>
<line x1="142.550000" y1="15.000000" x2="560.500000" y2="15.000000"  style="stroke: black; stroke-linecap:round; stroke-width:0.25; stroke-dasharray:3,3;"/>
<text x="20.000000" y="17.000000" font-family="Arial" font-size="7">leveler_speed_brake(x1142,x1143 : +)</text>
<line x1="562.500000" y1="53.000000" x2="565.500000" y2="54.000000"  transform="rotate(0.000000,565.500000,54.000000)" style="stroke: black; stroke-width:0.25;"/>
<line x1="562.500000" y1="55.000000" x2="565.500000" y2="54.000000"  transform="rotate(0.000000,565.500000,54.000000)" style="stroke: black; stroke-width:0.25;"/>
<line x1="165.900000" y1="54.000000" x2="169.900000" y2="54.000000"  style="stroke:black; stroke-linecap:round; stroke-width:0.25;"/>
<line x1="169.900000" y1="54.000000" x2="194.900000" y2="24.000000"  style="stroke:black; stroke-linecap:round; stroke-width:0.25;"/>
<line x1="169.900000" y1="54.000000" x2="194.900000" y2="84.000000"  style="stroke:black; stroke-linecap:round; stroke-width:0.25;"/>
<line x1="194.900000" y1="24.000000" x2="290.050000" y2="24.000000"  style="stroke:black; stroke-linecap:round; stroke-width:0.25;"/>
<line x1="194.900000" y1="84.000000" x2="220.900000" y2="84.000000"  style="stroke:black; stroke-linecap:round; stroke-width:0.25;"/>
<line x1="220.900000" y1="84.000000" x2="246.900000" y2="84.000000"  style="stroke:black; stroke-linecap:round; stroke-width:0.25;"/>
<line x1="232.900000" y1="54.000000" x2="236.900000" y2="54.000000"  style="stroke:black; stroke-linecap:round; stroke-width:0.25;"/>
<line x1="236.900000" y1="54.000000" x2="246.900000" y2="54.000000"  style="stroke:black; stroke-linecap:round; stroke-width:0.25;"/>
<line x1="246.900000" y1="54.000000" x2="254.900000" y2="54.000000"  style="stroke:black; stroke-linecap:round; stroke-width:0.25;"/>
<line x1="246.900000" y1="62.000000" x2="254.900000" y2="62.000000"  style="stroke:black; stroke-linecap:round; stroke-width:0.25;"/>
<line x1="246.900000" y1="84.000000" x2="246.900000" y2="62.000000"  style="stroke:black; stroke-linecap:round; stroke-width:0.25;"/>
<line x1="246.900000" y1="84.000000" x2="246.900000" y2="84.000000"  style="stroke:black; stroke-linecap:round; stroke-width:0.25;"/>
<line x1="254.900000" y1="54.000000" x2="258.900000" y2="54.000000"  style="stroke:black; stroke-linecap:round; stroke-width:0.25;"/>
<line x1="254.900000" y1="62.000000" x2="258.900000" y2="62.000000"  style="stroke:black; stroke-linecap:round; stroke-width:0.25;"/>
<line x1="282.900000" y1="58.000000" x2="286.900000" y2="58.000000"  style="stroke:black; stroke-linecap:round; stroke-width:0.25;"/>
<line x1="286.900000" y1="58.000000" x2="286.900000" y2="58.000000"  style="stroke:black; stroke-linecap:round; stroke-width:0.25;"/>
<line x1="286.900000" y1="58.000000" x2="290.900000" y2="58.000000"  style="stroke:black; stroke-linecap:round; stroke-width:0.25;"/>
<line x1="290.050000" y1="24.000000" x2="385.200000" y2="24.000000"  style="stroke:black; stroke-linecap:round; stroke-width:0.25;"/>
<line x1="381.200000" y1="58.000000" x2="385.200000" y2="58.000000"  style="stroke:black; stroke-linecap:round; stroke-width:0.25;"/>
<line x1="385.200000" y1="58.000000" x2="393.200000" y2="58.000000"  style="stroke:black; stroke-linecap:round; stroke-width:0.25;"/>
<line x1="385.200000" y1="24.000000" x2="393.200000" y2="24.000000"  style="stroke:black; stroke-linecap:round; stroke-width:0.25;"/>
<line x1="393.200000" y1="24.000000" x2="393.200000" y2="50.000000"  style="stroke:black; stroke-linecap:round; stroke-width:0.25;"/>
<line x1="393.200000" y1="50.000000" x2="393.200000" y2="50.000000"  style="stroke:black; stroke-linecap:round; stroke-width:0.25;"/>
<line x1="393.200000" y1="50.000000" x2="397.200000" y2="50.000000"  style="stroke:black; stroke-linecap:round; stroke-width:0.25;"/>
<line x1="393.200000" y1="58.000000" x2="397.200000" y2="58.000000"  style="stroke:black; stroke-linecap:round; stroke-width:0.25;"/>
<line x1="423.000000" y1="54.000000" x2="427.000000" y2="54.000000"  style="stroke:black; stroke-linecap:round; stroke-width:0.25;"/>
<line x1="427.000000" y1="38.000000" x2="435.000000" y2="38.000000"  style="stroke:black; stroke-linecap:round; stroke-width:0.25;"/>
<line x1="427.000000" y1="54.000000" x2="427.000000" y2="38.000000"  style="stroke:black; stroke-linecap:round; stroke-width:0.25;"/>
<line x1="427.000000" y1="54.000000" x2="427.000000" y2="54.000000"  style="stroke:black; stroke-linecap:round; stroke-width:0.25;"/>
<line x1="435.000000" y1="38.000000" x2="471.250000" y2="38.000000"  style="stroke:black; stroke-linecap:round; stroke-width:0.25;"/>
<line x1="471.250000" y1="38.000000" x2="507.500000" y2="38.000000"  style="stroke:black; stroke-linecap:round; stroke-width:0.25;"/>
<line x1="503.500000" y1="58.000000" x2="507.500000" y2="58.000000"  style="stroke:black; stroke-linecap:round; stroke-width:0.25;"/>
<line x1="507.500000" y1="38.000000" x2="515.500000" y2="38.000000"  style="stroke:black; stroke-linecap:round; stroke-width:0.25;"/>
<line x1="507.500000" y1="58.000000" x2="515.500000" y2="58.000000"  style="stroke:black; stroke-linecap:round; stroke-width:0.25;"/>
<line x1="515.500000" y1="38.000000" x2="515.500000" y2="50.000000"  style="stroke:black; stroke-linecap:round; stroke-width:0.25;"/>
<line x1="515.500000" y1="50.000000" x2="515.500000" y2="50.000000"  style="stroke:black; stroke-linecap:round; stroke-width:0.25;"/>
<line x1="515.500000" y1="50.000000" x2="519.500000" y2="50.000000"  style="stroke:black; stroke-linecap:round; stroke-width:0.25;"/>
<line x1="515.500000" y1="58.000000" x2="519.500000" y2="58.000000"  style="stroke:black; stroke-linecap:round; stroke-width:0.25;"/>
<line x1="543.500000" y1="54.000000" x2="547.500000" y2="54.000000"  style="stroke:black; stroke-linecap:round; stroke-width:0.25;"/>
<line x1="547.500000" y1="54.000000" x2="547.500000" y2="54.000000"  style="stroke:black; stroke-linecap:round; stroke-width:0.25;"/>
<line x1="547.500000" y1="54.000000" x2="551.500000" y2="54.000000"  style="stroke:black; stroke-linecap:round; stroke-width:0.25;"/>
<line x1="551.500000" y1="54.000000" x2="555.500000" y2="54.000000"  style="stroke:black; stroke-linecap:round; stroke-width:0.25;"/>
<line x1="555.500000" y1="54.000000" x2="565.500000" y2="54.000000"  style="stroke:black; stroke-linecap:round; stroke-width:0.25;"/>
</svg>
