<?xml version="1.0"?>
<svg xmlns="http://www.w3.org/2000/svg" xmlns:xlink="http://www.w3.org/1999/xlink" viewBox="0 0 458.000000 188.000000" width="229.000000mm" height="94.000000mm" version="1.1">
<a xlink:href="bp2-0x60015018a640.svg">
<rect x="1.000000" y="1.000000" width="457.000000" height="187.000000" rx="0" ry="0" style="stroke:none;fill:#cccccc;"/>
<rect x="0.000000" y="0.000000" width="457.000000" height="187.000000" rx="0" ry="0" style="stroke:none;fill:#ffffff;"/>
</a>
<text x="10.000000" y="7.000000" font-family="Arial" font-size="7"></text>
<rect x="49.000000" y="35.000000" width="24.000000" height="24.000000" rx="0" ry="0" style="stroke:none;fill:#cccccc;"/>
<rect x="48.000000" y="34.000000" width="24.000000" height="24.000000" rx="0" ry="0" style="stroke:none;fill:#47945E;"/>
<text x="60.000000" y="48.000000" font-family="Arial" font-size="7" text-anchor="middle" fill="#FFFFFF">fl</text>
<circle cx="50.000000" cy="36.000000" r="1"/>
<line x1="45.000000" y1="45.000000" x2="48.000000" y2="46.000000"  transform="rotate(0.000000,48.000000,46.000000)" style="stroke: black; stroke-width:0.25;"/>
<line x1="45.000000" y1="47.000000" x2="48.000000" y2="46.000000"  transform="rotate(0.000000,48.000000,46.000000)" style="stroke: black; stroke-width:0.25;"/>
<rect x="49.000000" y="67.000000" width="24.000000" height="24.000000" rx="0" ry="0" style="stroke:none;fill:#cccccc;"/>
<rect x="48.000000" y="66.000000" width="24.000000" height="24.000000" rx="0" ry="0" style="stroke:none;fill:#47945E;"/>
<text x="60.000000" y="80.000000" font-family="Arial" font-size="7" text-anchor="middle" fill="#FFFFFF">fr</text>
<circle cx="50.000000" cy="68.000000" r="1"/>
<line x1="45.000000" y1="77.000000" x2="48.000000" y2="78.000000"  transform="rotate(0.000000,48.000000,78.000000)" style="stroke: black; stroke-width:0.25;"/>
<line x1="45.000000" y1="79.000000" x2="48.000000" y2="78.000000"  transform="rotate(0.000000,48.000000,78.000000)" style="stroke: black; stroke-width:0.25;"/>
<rect x="49.000000" y="99.000000" width="24.000000" height="24.000000" rx="0" ry="0" style="stroke:none;fill:#cccccc;"/>
<rect x="48.000000" y="98.000000" width="24.000000" height="24.000000" rx="0" ry="0" style="stroke:none;fill:#47945E;"/>
<text x="60.000000" y="112.000000" font-family="Arial" font-size="7" text-anchor="middle" fill="#FFFFFF">l</text>
<circle cx="50.000000" cy="100.000000" r="1"/>
<line x1="45.000000" y1="109.000000" x2="48.000000" y2="110.000000"  transform="rotate(0.000000,48.000000,110.000000)" style="stroke: black; stroke-width:0.25;"/>
<line x1="45.000000" y1="111.000000" x2="48.000000" y2="110.000000"  transform="rotate(0.000000,48.000000,110.000000)" style="stroke: black; stroke-width:0.25;"/>
<rect x="49.000000" y="131.000000" width="24.000000" height="24.000000" rx="0" ry="0" style="stroke:none;fill:#cccccc;"/>
<rect x="48.000000" y="130.000000" width="24.000000" height="24.000000" rx="0" ry="0" style="stroke:none;fill:#47945E;"/>
<text x="60.000000" y="144.000000" font-family="Arial" font-size="7" text-anchor="middle" fill="#FFFFFF">r</text>
<circle cx="50.000000" cy="132.000000" r="1"/>
<line x1="45.000000" y1="141.000000" x2="48.000000" y2="142.000000"  transform="rotate(0.000000,48.000000,142.000000)" style="stroke: black; stroke-width:0.25;"/>
<line x1="45.000000" y1="143.000000" x2="48.000000" y2="142.000000"  transform="rotate(0.000000,48.000000,142.000000)" style="stroke: black; stroke-width:0.25;"/>
<a xlink:href="calc-0x60013c0153b0.svg">
<rect x="81.000000" y="25.000000" width="129.000000" height="24.000000" rx="0" ry="0" style="stroke:none;fill:#cccccc;"/>
<rect x="80.000000" y="24.000000" width="129.000000" height="24.000000" rx="0" ry="0" style="stroke:none;fill:#003366;"/>
</a>
<a xlink:href="calc-0x60013c0153b0.svg">
<text x="144.500000" y="38.000000" font-family="Arial" font-size="7" text-anchor="middle" fill="#FFFFFF">calc(x1140,x1...9999995f : -)</text>
</a>
<circle cx="82.000000" cy="26.000000" r="1"/>
<rect x="113.500000" y="67.000000" width="24.000000" height="24.000000" rx="0" ry="0" style="stroke:none;fill:#cccccc;"/>
<rect x="112.500000" y="66.000000" width="24.000000" height="24.000000" rx="0" ry="0" style="stroke:none;fill:#f44800;"/>
<text x="124.500000" y="80.000000" font-family="Arial" font-size="7" text-anchor="middle" fill="#FFFFFF">1</text>
<circle cx="114.500000" cy="68.000000" r="1"/>
<line x1="103.500000" y1="57.000000" x2="103.500000" y2="99.000000"  style="stroke: black; stroke-linecap:round; stroke-width:0.25; stroke-dasharray:3,3;"/>
<line x1="103.500000" y1="99.000000" x2="145.500000" y2="99.000000"  style="stroke: black; stroke-linecap:round; stroke-width:0.25; stroke-dasharray:3,3;"/>
<line x1="145.500000" y1="99.000000" x2="145.500000" y2="57.000000"  style="stroke: black; stroke-linecap:round; stroke-width:0.25; stroke-dasharray:3,3;"/>
<line x1="103.500000" y1="57.000000" x2="108.500000" y2="57.000000"  style="stroke: black; stroke-linecap:round; stroke-width:0.25; stroke-dasharray:3,3;"/>
<line x1="137.525000" y1="57.000000" x2="145.500000" y2="57.000000"  style="stroke: black; stroke-linecap:round; stroke-width:0.25; stroke-dasharray:3,3;"/>
<text x="108.500000" y="59.000000" font-family="Arial" font-size="7">pow2(0)</text>
<a xlink:href="bp-0x6000b00b7210.svg">
<rect x="113.500000" y="109.000000" width="24.000000" height="24.000000" rx="0" ry="0" style="stroke:none;fill:#cccccc;"/>
<rect x="112.500000" y="108.000000" width="24.000000" height="24.000000" rx="0" ry="0" style="stroke:none;fill:#003366;"/>
</a>
<a xlink:href="bp-0x6000b00b7210.svg">
<text x="124.500000" y="122.000000" font-family="Arial" font-size="7" text-anchor="middle" fill="#FFFFFF">bp</text>
</a>
<circle cx="114.500000" cy="110.000000" r="1"/>
<rect x="163.500000" y="83.000000" width="24.000000" height="24.000000" rx="0" ry="0" style="stroke:none;fill:#cccccc;"/>
<rect x="162.500000" y="82.000000" width="24.000000" height="24.000000" rx="0" ry="0" style="stroke:none;fill:#4B71A1;"/>
<text x="174.500000" y="96.000000" font-family="Arial" font-size="7" text-anchor="middle" fill="#FFFFFF">-</text>
<circle cx="164.500000" cy="84.000000" r="1"/>
<line x1="159.500000" y1="89.000000" x2="162.500000" y2="90.000000"  transform="rotate(0.000000,162.500000,90.000000)" style="stroke: black; stroke-width:0.25;"/>
<line x1="159.500000" y1="91.000000" x2="162.500000" y2="90.000000"  transform="rotate(0.000000,162.500000,90.000000)" style="stroke: black; stroke-width:0.25;"/>
<line x1="159.500000" y1="97.000000" x2="162.500000" y2="98.000000"  transform="rotate(0.000000,162.500000,98.000000)" style="stroke: black; stroke-width:0.25;"/>
<line x1="159.500000" y1="99.000000" x2="162.500000" y2="98.000000"  transform="rotate(0.000000,162.500000,98.000000)" style="stroke: black; stroke-width:0.25;"/>
<rect x="226.000000" y="67.000000" width="24.000000" height="24.000000" rx="0" ry="0" style="stroke:none;fill:#cccccc;"/>
<rect x="225.000000" y="66.000000" width="24.000000" height="24.000000" rx="0" ry="0" style="stroke:none;fill:#4B71A1;"/>
<text x="237.000000" y="80.000000" font-family="Arial" font-size="7" text-anchor="middle" fill="#FFFFFF">*</text>
<circle cx="227.000000" cy="68.000000" r="1"/>
<line x1="222.000000" y1="73.000000" x2="225.000000" y2="74.000000"  transform="rotate(0.000000,225.000000,74.000000)" style="stroke: black; stroke-width:0.25;"/>
<line x1="222.000000" y1="75.000000" x2="225.000000" y2="74.000000"  transform="rotate(0.000000,225.000000,74.000000)" style="stroke: black; stroke-width:0.25;"/>
<line x1="222.000000" y1="81.000000" x2="225.000000" y2="82.000000"  transform="rotate(0.000000,225.000000,82.000000)" style="stroke: black; stroke-width:0.25;"/>
<line x1="222.000000" y1="83.000000" x2="225.000000" y2="82.000000"  transform="rotate(0.000000,225.000000,82.000000)" style="stroke: black; stroke-width:0.25;"/>
<a xlink:href="bp-0x6000b00b7210.svg">
<rect x="153.500000" y="141.000000" width="24.000000" height="24.000000" rx="0" ry="0" style="stroke:none;fill:#cccccc;"/>
<rect x="152.500000" y="140.000000" width="24.000000" height="24.000000" rx="0" ry="0" style="stroke:none;fill:#003366;"/>
</a>
<a xlink:href="bp-0x6000b00b7210.svg">
<text x="164.500000" y="154.000000" font-family="Arial" font-size="7" text-anchor="middle" fill="#FFFFFF">bp</text>
</a>
<circle cx="154.500000" cy="142.000000" r="1"/>
<rect x="266.000000" y="83.000000" width="24.000000" height="24.000000" rx="0" ry="0" style="stroke:none;fill:#cccccc;"/>
<rect x="265.000000" y="82.000000" width="24.000000" height="24.000000" rx="0" ry="0" style="stroke:none;fill:#4B71A1;"/>
<text x="277.000000" y="96.000000" font-family="Arial" font-size="7" text-anchor="middle" fill="#FFFFFF">+</text>
<circle cx="267.000000" cy="84.000000" r="1"/>
<line x1="262.000000" y1="89.000000" x2="265.000000" y2="90.000000"  transform="rotate(0.000000,265.000000,90.000000)" style="stroke: black; stroke-width:0.25;"/>
<line x1="262.000000" y1="91.000000" x2="265.000000" y2="90.000000"  transform="rotate(0.000000,265.000000,90.000000)" style="stroke: black; stroke-width:0.25;"/>
<line x1="262.000000" y1="97.000000" x2="265.000000" y2="98.000000"  transform="rotate(0.000000,265.000000,98.000000)" style="stroke: black; stroke-width:0.25;"/>
<line x1="262.000000" y1="99.000000" x2="265.000000" y2="98.000000"  transform="rotate(0.000000,265.000000,98.000000)" style="stroke: black; stroke-width:0.25;"/>
<rect x="355.000000" y="67.000000" width="24.000000" height="24.000000" rx="0" ry="0" style="stroke:none;fill:#cccccc;"/>
<rect x="354.000000" y="66.000000" width="24.000000" height="24.000000" rx="0" ry="0" style="stroke:none;fill:#47945E;"/>
<text x="366.000000" y="80.000000" font-family="Arial" font-size="7" text-anchor="middle" fill="#FFFFFF">l</text>
<circle cx="356.000000" cy="68.000000" r="1"/>
<rect x="395.000000" y="63.000000" width="24.000000" height="24.000000" rx="0" ry="0" style="stroke:none;fill:#cccccc;"/>
<rect x="394.000000" y="62.000000" width="24.000000" height="24.000000" rx="0" ry="0" style="stroke:none;fill:#4B71A1;"/>
<text x="406.000000" y="76.000000" font-family="Arial" font-size="7" text-anchor="middle" fill="#FFFFFF">*</text>
<circle cx="396.000000" cy="64.000000" r="1"/>
<line x1="391.000000" y1="69.000000" x2="394.000000" y2="70.000000"  transform="rotate(0.000000,394.000000,70.000000)" style="stroke: black; stroke-width:0.25;"/>
<line x1="391.000000" y1="71.000000" x2="394.000000" y2="70.000000"  transform="rotate(0.000000,394.000000,70.000000)" style="stroke: black; stroke-width:0.25;"/>
<line x1="391.000000" y1="77.000000" x2="394.000000" y2="78.000000"  transform="rotate(0.000000,394.000000,78.000000)" style="stroke: black; stroke-width:0.25;"/>
<line x1="391.000000" y1="79.000000" x2="394.000000" y2="78.000000"  transform="rotate(0.000000,394.000000,78.000000)" style="stroke: black; stroke-width:0.25;"/>
<rect x="355.000000" y="107.000000" width="24.000000" height="24.000000" rx="0" ry="0" style="stroke:none;fill:#cccccc;"/>
<rect x="354.000000" y="106.000000" width="24.000000" height="24.000000" rx="0" ry="0" style="stroke:none;fill:#47945E;"/>
<text x="366.000000" y="120.000000" font-family="Arial" font-size="7" text-anchor="middle" fill="#FFFFFF">r</text>
<circle cx="356.000000" cy="108.000000" r="1"/>
<rect x="395.000000" y="103.000000" width="24.000000" height="24.000000" rx="0" ry="0" style="stroke:none;fill:#cccccc;"/>
<rect x="394.000000" y="102.000000" width="24.000000" height="24.000000" rx="0" ry="0" style="stroke:none;fill:#4B71A1;"/>
<text x="406.000000" y="116.000000" font-family="Arial" font-size="7" text-anchor="middle" fill="#FFFFFF">*</text>
<circle cx="396.000000" cy="104.000000" r="1"/>
<line x1="391.000000" y1="109.000000" x2="394.000000" y2="110.000000"  transform="rotate(0.000000,394.000000,110.000000)" style="stroke: black; stroke-width:0.25;"/>
<line x1="391.000000" y1="111.000000" x2="394.000000" y2="110.000000"  transform="rotate(0.000000,394.000000,110.000000)" style="stroke: black; stroke-width:0.25;"/>
<line x1="391.000000" y1="117.000000" x2="394.000000" y2="118.000000"  transform="rotate(0.000000,394.000000,118.000000)" style="stroke: black; stroke-width:0.25;"/>
<line x1="391.000000" y1="119.000000" x2="394.000000" y2="118.000000"  transform="rotate(0.000000,394.000000,118.000000)" style="stroke: black; stroke-width:0.25;"/>
<line x1="15.000000" y1="15.000000" x2="15.000000" y2="173.000000"  style="stroke: black; stroke-linecap:round; stroke-width:0.25; stroke-dasharray:3,3;"/>
<line x1="15.000000" y1="173.000000" x2="443.000000" y2="173.000000"  style="stroke: black; stroke-linecap:round; stroke-width:0.25; stroke-dasharray:3,3;"/>
<line x1="443.000000" y1="173.000000" x2="443.000000" y2="15.000000"  style="stroke: black; stroke-linecap:round; stroke-width:0.25; stroke-dasharray:3,3;"/>
<line x1="15.000000" y1="15.000000" x2="20.000000" y2="15.000000"  style="stroke: black; stroke-linecap:round; stroke-width:0.25; stroke-dasharray:3,3;"/>
<line x1="119.975000" y1="15.000000" x2="443.000000" y2="15.000000"  style="stroke: black; stroke-linecap:round; stroke-width:0.25; stroke-dasharray:3,3;"/>
<text x="20.000000" y="17.000000" font-family="Arial" font-size="7">leveler_sc(vs...-2.0f, 1.0f))</text>
<line x1="445.000000" y1="89.000000" x2="448.000000" y2="90.000000"  transform="rotate(0.000000,448.000000,90.000000)" style="stroke: black; stroke-width:0.25;"/>
<line x1="445.000000" y1="91.000000" x2="448.000000" y2="90.000000"  transform="rotate(0.000000,448.000000,90.000000)" style="stroke: black; stroke-width:0.25;"/>
<line x1="445.000000" y1="97.000000" x2="448.000000" y2="98.000000"  transform="rotate(0.000000,448.000000,98.000000)" style="stroke: black; stroke-width:0.25;"/>
<line x1="445.000000" y1="99.000000" x2="448.000000" y2="98.000000"  transform="rotate(0.000000,448.000000,98.000000)" style="stroke: black; stroke-width:0.25;"/>
<line x1="10.000000" y1="82.000000" x2="20.000000" y2="82.000000"  style="stroke:black; stroke-linecap:round; stroke-width:0.25;"/>
<line x1="10.000000" y1="90.000000" x2="20.000000" y2="90.000000"  style="stroke:black; stroke-linecap:round; stroke-width:0.25;"/>
<line x1="10.000000" y1="98.000000" x2="20.000000" y2="98.000000"  style="stroke:black; stroke-linecap:round; stroke-width:0.25;"/>
<line x1="10.000000" y1="106.000000" x2="20.000000" y2="106.000000"  style="stroke:black; stroke-linecap:round; stroke-width:0.25;"/>
<line x1="20.000000" y1="82.000000" x2="24.000000" y2="82.000000"  style="stroke:black; stroke-linecap:round; stroke-width:0.25;"/>
<line x1="20.000000" y1="90.000000" x2="24.000000" y2="90.000000"  style="stroke:black; stroke-linecap:round; stroke-width:0.25;"/>
<line x1="20.000000" y1="98.000000" x2="24.000000" y2="98.000000"  style="stroke:black; stroke-linecap:round; stroke-width:0.25;"/>
<line x1="20.000000" y1="106.000000" x2="24.000000" y2="106.000000"  style="stroke:black; stroke-linecap:round; stroke-width:0.25;"/>
<line x1="24.000000" y1="82.000000" x2="28.000000" y2="82.000000"  style="stroke:black; stroke-linecap:round; stroke-width:0.25;"/>
<line x1="24.000000" y1="90.000000" x2="28.000000" y2="90.000000"  style="stroke:black; stroke-linecap:round; stroke-width:0.25;"/>
<line x1="24.000000" y1="98.000000" x2="28.000000" y2="98.000000"  style="stroke:black; stroke-linecap:round; stroke-width:0.25;"/>
<line x1="24.000000" y1="106.000000" x2="28.000000" y2="106.000000"  style="stroke:black; stroke-linecap:round; stroke-width:0.25;"/>
<line x1="28.000000" y1="46.000000" x2="44.000000" y2="46.000000"  style="stroke:black; stroke-linecap:round; stroke-width:0.25;"/>
<line x1="28.000000" y1="82.000000" x2="28.000000" y2="46.000000"  style="stroke:black; stroke-linecap:round; stroke-width:0.25;"/>
<line x1="28.000000" y1="82.000000" x2="28.000000" y2="82.000000"  style="stroke:black; stroke-linecap:round; stroke-width:0.25;"/>
<line x1="28.000000" y1="90.000000" x2="36.000000" y2="90.000000"  style="stroke:black; stroke-linecap:round; stroke-width:0.25;"/>
<line x1="28.000000" y1="98.000000" x2="44.000000" y2="98.000000"  style="stroke:black; stroke-linecap:round; stroke-width:0.25;"/>
<line x1="28.000000" y1="106.000000" x2="36.000000" y2="106.000000"  style="stroke:black; stroke-linecap:round; stroke-width:0.25;"/>
<line x1="36.000000" y1="78.000000" x2="44.000000" y2="78.000000"  style="stroke:black; stroke-linecap:round; stroke-width:0.25;"/>
<line x1="36.000000" y1="90.000000" x2="36.000000" y2="78.000000"  style="stroke:black; stroke-linecap:round; stroke-width:0.25;"/>
<line x1="36.000000" y1="106.000000" x2="36.000000" y2="142.000000"  style="stroke:black; stroke-linecap:round; stroke-width:0.25;"/>
<line x1="36.000000" y1="142.000000" x2="44.000000" y2="142.000000"  style="stroke:black; stroke-linecap:round; stroke-width:0.25;"/>
<line x1="44.000000" y1="46.000000" x2="48.000000" y2="46.000000"  style="stroke:black; stroke-linecap:round; stroke-width:0.25;"/>
<line x1="44.000000" y1="78.000000" x2="48.000000" y2="78.000000"  style="stroke:black; stroke-linecap:round; stroke-width:0.25;"/>
<line x1="44.000000" y1="98.000000" x2="44.000000" y2="110.000000"  style="stroke:black; stroke-linecap:round; stroke-width:0.25;"/>
<line x1="44.000000" y1="110.000000" x2="44.000000" y2="110.000000"  style="stroke:black; stroke-linecap:round; stroke-width:0.25;"/>
<line x1="44.000000" y1="110.000000" x2="48.000000" y2="110.000000"  style="stroke:black; stroke-linecap:round; stroke-width:0.25;"/>
<line x1="44.000000" y1="142.000000" x2="48.000000" y2="142.000000"  style="stroke:black; stroke-linecap:round; stroke-width:0.25;"/>
<line x1="136.500000" y1="78.000000" x2="140.500000" y2="78.000000"  style="stroke:black; stroke-linecap:round; stroke-width:0.25;"/>
<line x1="136.500000" y1="120.000000" x2="140.500000" y2="120.000000"  style="stroke:black; stroke-linecap:round; stroke-width:0.25;"/>
<line x1="140.500000" y1="78.000000" x2="150.500000" y2="78.000000"  style="stroke:black; stroke-linecap:round; stroke-width:0.25;"/>
<line x1="140.500000" y1="120.000000" x2="150.500000" y2="120.000000"  style="stroke:black; stroke-linecap:round; stroke-width:0.25;"/>
<line x1="150.500000" y1="78.000000" x2="158.500000" y2="78.000000"  style="stroke:black; stroke-linecap:round; stroke-width:0.25;"/>
<line x1="150.500000" y1="98.000000" x2="158.500000" y2="98.000000"  style="stroke:black; stroke-linecap:round; stroke-width:0.25;"/>
<line x1="150.500000" y1="120.000000" x2="150.500000" y2="98.000000"  style="stroke:black; stroke-linecap:round; stroke-width:0.25;"/>
<line x1="150.500000" y1="120.000000" x2="150.500000" y2="120.000000"  style="stroke:black; stroke-linecap:round; stroke-width:0.25;"/>
<line x1="158.500000" y1="78.000000" x2="158.500000" y2="90.000000"  style="stroke:black; stroke-linecap:round; stroke-width:0.25;"/>
<line x1="158.500000" y1="90.000000" x2="158.500000" y2="90.000000"  style="stroke:black; stroke-linecap:round; stroke-width:0.25;"/>
<line x1="158.500000" y1="90.000000" x2="162.500000" y2="90.000000"  style="stroke:black; stroke-linecap:round; stroke-width:0.25;"/>
<line x1="158.500000" y1="98.000000" x2="162.500000" y2="98.000000"  style="stroke:black; stroke-linecap:round; stroke-width:0.25;"/>
<line x1="176.500000" y1="152.000000" x2="180.500000" y2="152.000000"  style="stroke:black; stroke-linecap:round; stroke-width:0.25;"/>
<line x1="180.500000" y1="152.000000" x2="253.000000" y2="152.000000"  style="stroke:black; stroke-linecap:round; stroke-width:0.25;"/>
<line x1="186.500000" y1="94.000000" x2="190.500000" y2="94.000000"  style="stroke:black; stroke-linecap:round; stroke-width:0.25;"/>
<line x1="190.500000" y1="94.000000" x2="213.000000" y2="94.000000"  style="stroke:black; stroke-linecap:round; stroke-width:0.25;"/>
<line x1="209.000000" y1="36.000000" x2="213.000000" y2="36.000000"  style="stroke:black; stroke-linecap:round; stroke-width:0.25;"/>
<line x1="213.000000" y1="36.000000" x2="221.000000" y2="36.000000"  style="stroke:black; stroke-linecap:round; stroke-width:0.25;"/>
<line x1="213.000000" y1="82.000000" x2="221.000000" y2="82.000000"  style="stroke:black; stroke-linecap:round; stroke-width:0.25;"/>
<line x1="213.000000" y1="94.000000" x2="213.000000" y2="82.000000"  style="stroke:black; stroke-linecap:round; stroke-width:0.25;"/>
<line x1="213.000000" y1="94.000000" x2="213.000000" y2="94.000000"  style="stroke:black; stroke-linecap:round; stroke-width:0.25;"/>
<line x1="221.000000" y1="36.000000" x2="221.000000" y2="74.000000"  style="stroke:black; stroke-linecap:round; stroke-width:0.25;"/>
<line x1="221.000000" y1="74.000000" x2="221.000000" y2="74.000000"  style="stroke:black; stroke-linecap:round; stroke-width:0.25;"/>
<line x1="221.000000" y1="74.000000" x2="225.000000" y2="74.000000"  style="stroke:black; stroke-linecap:round; stroke-width:0.25;"/>
<line x1="221.000000" y1="82.000000" x2="225.000000" y2="82.000000"  style="stroke:black; stroke-linecap:round; stroke-width:0.25;"/>
<line x1="249.000000" y1="78.000000" x2="253.000000" y2="78.000000"  style="stroke:black; stroke-linecap:round; stroke-width:0.25;"/>
<line x1="253.000000" y1="78.000000" x2="261.000000" y2="78.000000"  style="stroke:black; stroke-linecap:round; stroke-width:0.25;"/>
<line x1="253.000000" y1="98.000000" x2="261.000000" y2="98.000000"  style="stroke:black; stroke-linecap:round; stroke-width:0.25;"/>
<line x1="253.000000" y1="152.000000" x2="253.000000" y2="98.000000"  style="stroke:black; stroke-linecap:round; stroke-width:0.25;"/>
<line x1="253.000000" y1="152.000000" x2="253.000000" y2="152.000000"  style="stroke:black; stroke-linecap:round; stroke-width:0.25;"/>
<line x1="261.000000" y1="78.000000" x2="261.000000" y2="90.000000"  style="stroke:black; stroke-linecap:round; stroke-width:0.25;"/>
<line x1="261.000000" y1="90.000000" x2="261.000000" y2="90.000000"  style="stroke:black; stroke-linecap:round; stroke-width:0.25;"/>
<line x1="261.000000" y1="90.000000" x2="265.000000" y2="90.000000"  style="stroke:black; stroke-linecap:round; stroke-width:0.25;"/>
<line x1="261.000000" y1="98.000000" x2="265.000000" y2="98.000000"  style="stroke:black; stroke-linecap:round; stroke-width:0.25;"/>
<line x1="289.000000" y1="94.000000" x2="293.000000" y2="94.000000"  style="stroke:black; stroke-linecap:round; stroke-width:0.25;"/>
<line x1="293.000000" y1="94.000000" x2="350.000000" y2="58.000000"  style="stroke:black; stroke-linecap:round; stroke-width:0.25;"/>
<line x1="293.000000" y1="94.000000" x2="350.000000" y2="98.000000"  style="stroke:black; stroke-linecap:round; stroke-width:0.25;"/>
<line x1="350.000000" y1="58.000000" x2="366.000000" y2="58.000000"  style="stroke:black; stroke-linecap:round; stroke-width:0.25;"/>
<line x1="350.000000" y1="98.000000" x2="366.000000" y2="98.000000"  style="stroke:black; stroke-linecap:round; stroke-width:0.25;"/>
<line x1="366.000000" y1="58.000000" x2="382.000000" y2="58.000000"  style="stroke:black; stroke-linecap:round; stroke-width:0.25;"/>
<line x1="366.000000" y1="98.000000" x2="382.000000" y2="98.000000"  style="stroke:black; stroke-linecap:round; stroke-width:0.25;"/>
<line x1="378.000000" y1="78.000000" x2="382.000000" y2="78.000000"  style="stroke:black; stroke-linecap:round; stroke-width:0.25;"/>
<line x1="378.000000" y1="118.000000" x2="382.000000" y2="118.000000"  style="stroke:black; stroke-linecap:round; stroke-width:0.25;"/>
<line x1="382.000000" y1="58.000000" x2="390.000000" y2="58.000000"  style="stroke:black; stroke-linecap:round; stroke-width:0.25;"/>
<line x1="382.000000" y1="78.000000" x2="390.000000" y2="78.000000"  style="stroke:black; stroke-linecap:round; stroke-width:0.25;"/>
<line x1="382.000000" y1="98.000000" x2="390.000000" y2="98.000000"  style="stroke:black; stroke-linecap:round; stroke-width:0.25;"/>
<line x1="382.000000" y1="118.000000" x2="390.000000" y2="118.000000"  style="stroke:black; stroke-linecap:round; stroke-width:0.25;"/>
<line x1="390.000000" y1="58.000000" x2="390.000000" y2="70.000000"  style="stroke:black; stroke-linecap:round; stroke-width:0.25;"/>
<line x1="390.000000" y1="70.000000" x2="390.000000" y2="70.000000"  style="stroke:black; stroke-linecap:round; stroke-width:0.25;"/>
<line x1="390.000000" y1="70.000000" x2="394.000000" y2="70.000000"  style="stroke:black; stroke-linecap:round; stroke-width:0.25;"/>
<line x1="390.000000" y1="78.000000" x2="394.000000" y2="78.000000"  style="stroke:black; stroke-linecap:round; stroke-width:0.25;"/>
<line x1="390.000000" y1="98.000000" x2="390.000000" y2="110.000000"  style="stroke:black; stroke-linecap:round; stroke-width:0.25;"/>
<line x1="390.000000" y1="110.000000" x2="390.000000" y2="110.000000"  style="stroke:black; stroke-linecap:round; stroke-width:0.25;"/>
<line x1="390.000000" y1="110.000000" x2="394.000000" y2="110.000000"  style="stroke:black; stroke-linecap:round; stroke-width:0.25;"/>
<line x1="390.000000" y1="118.000000" x2="394.000000" y2="118.000000"  style="stroke:black; stroke-linecap:round; stroke-width:0.25;"/>
<line x1="418.000000" y1="74.000000" x2="422.000000" y2="74.000000"  style="stroke:black; stroke-linecap:round; stroke-width:0.25;"/>
<line x1="418.000000" y1="114.000000" x2="422.000000" y2="114.000000"  style="stroke:black; stroke-linecap:round; stroke-width:0.25;"/>
<line x1="422.000000" y1="74.000000" x2="430.000000" y2="74.000000"  style="stroke:black; stroke-linecap:round; stroke-width:0.25;"/>
<line x1="422.000000" y1="98.000000" x2="430.000000" y2="98.000000"  style="stroke:black; stroke-linecap:round; stroke-width:0.25;"/>
<line x1="422.000000" y1="114.000000" x2="422.000000" y2="98.000000"  style="stroke:black; stroke-linecap:round; stroke-width:0.25;"/>
<line x1="422.000000" y1="114.000000" x2="422.000000" y2="114.000000"  style="stroke:black; stroke-linecap:round; stroke-width:0.25;"/>
<line x1="430.000000" y1="74.000000" x2="430.000000" y2="90.000000"  style="stroke:black; stroke-linecap:round; stroke-width:0.25;"/>
<line x1="430.000000" y1="90.000000" x2="430.000000" y2="90.000000"  style="stroke:black; stroke-linecap:round; stroke-width:0.25;"/>
<line x1="430.000000" y1="90.000000" x2="434.000000" y2="90.000000"  style="stroke:black; stroke-linecap:round; stroke-width:0.25;"/>
<line x1="430.000000" y1="98.000000" x2="434.000000" y2="98.000000"  style="stroke:black; stroke-linecap:round; stroke-width:0.25;"/>
<line x1="434.000000" y1="90.000000" x2="438.000000" y2="90.000000"  style="stroke:black; stroke-linecap:round; stroke-width:0.25;"/>
<line x1="434.000000" y1="98.000000" x2="438.000000" y2="98.000000"  style="stroke:black; stroke-linecap:round; stroke-width:0.25;"/>
<line x1="438.000000" y1="90.000000" x2="448.000000" y2="90.000000"  style="stroke:black; stroke-linecap:round; stroke-width:0.25;"/>
<line x1="438.000000" y1="98.000000" x2="448.000000" y2="98.000000"  style="stroke:black; stroke-linecap:round; stroke-width:0.25;"/>
</svg>
