<?xml version="1.0"?>
<svg xmlns="http://www.w3.org/2000/svg" xmlns:xlink="http://www.w3.org/1999/xlink" viewBox="0 0 436.300000 72.000000" width="218.150000mm" height="36.000000mm" version="1.1">
<a xlink:href="limit-0x6001343cfc30.svg">
<rect x="1.000000" y="1.000000" width="435.300000" height="71.000000" rx="0" ry="0" style="stroke:none;fill:#cccccc;"/>
<rect x="0.000000" y="0.000000" width="435.300000" height="71.000000" rx="0" ry="0" style="stroke:none;fill:#ffffff;"/>
</a>
<text x="10.000000" y="7.000000" font-family="Arial" font-size="7"></text>
<rect x="25.000000" y="25.000000" width="348.300000" height="24.000000" rx="0" ry="0" style="stroke:none;fill:#cccccc;"/>
<rect x="24.000000" y="24.000000" width="348.300000" height="24.000000" rx="0" ry="0" style="stroke:none;fill:#477881;"/>
<text x="198.150000" y="38.000000" font-family="Arial" font-size="7" text-anchor="middle" fill="#FFFFFF">vslider(v:soundsgood/t:expert/h:leveler/leveler max -, 20.0f, 0.0f, 60.0f, 1.0f)</text>
<circle cx="26.000000" cy="26.000000" r="1"/>
<a xlink:href="neg-0x6000fc0766d0.svg">
<rect x="381.300000" y="25.000000" width="24.000000" height="24.000000" rx="0" ry="0" style="stroke:none;fill:#cccccc;"/>
<rect x="380.300000" y="24.000000" width="24.000000" height="24.000000" rx="0" ry="0" style="stroke:none;fill:#003366;"/>
</a>
<a xlink:href="neg-0x6000fc0766d0.svg">
<text x="392.300000" y="38.000000" font-family="Arial" font-size="7" text-anchor="middle" fill="#FFFFFF">neg</text>
</a>
<circle cx="382.300000" cy="26.000000" r="1"/>
<line x1="377.300000" y1="35.000000" x2="380.300000" y2="36.000000"  transform="rotate(0.000000,380.300000,36.000000)" style="stroke: black; stroke-width:0.25;"/>
<line x1="377.300000" y1="37.000000" x2="380.300000" y2="36.000000"  transform="rotate(0.000000,380.300000,36.000000)" style="stroke: black; stroke-width:0.25;"/>
<line x1="15.000000" y1="15.000000" x2="15.000000" y2="57.000000"  style="stroke: black; stroke-linecap:round; stroke-width:0.25; stroke-dasharray:3,3;"/>
<line x1="15.000000" y1="57.000000" x2="421.300000" y2="57.000000"  style="stroke: black; stroke-linecap:round; stroke-width:0.25; stroke-dasharray:3,3;"/>
<line x1="421.300000" y1="57.000000" x2="421.300000" y2="15.000000"  style="stroke: black; stroke-linecap:round; stroke-width:0.25; stroke-dasharray:3,3;"/>
<line x1="15.000000" y1="15.000000" x2="20.000000" y2="15.000000"  style="stroke: black; stroke-linecap:round; stroke-width:0.25; stroke-dasharray:3,3;"/>
<line x1="55.475000" y1="15.000000" x2="421.300000" y2="15.000000"  style="stroke: black; stroke-linecap:round; stroke-width:0.25; stroke-dasharray:3,3;"/>
<text x="20.000000" y="17.000000" font-family="Arial" font-size="7">limit_neg</text>
<line x1="423.300000" y1="35.000000" x2="426.300000" y2="36.000000"  transform="rotate(0.000000,426.300000,36.000000)" style="stroke: black; stroke-width:0.25;"/>
<line x1="423.300000" y1="37.000000" x2="426.300000" y2="36.000000"  transform="rotate(0.000000,426.300000,36.000000)" style="stroke: black; stroke-width:0.25;"/>
<line x1="372.300000" y1="36.000000" x2="376.300000" y2="36.000000"  style="stroke:black; stroke-linecap:round; stroke-width:0.25;"/>
<line x1="376.300000" y1="36.000000" x2="376.300000" y2="36.000000"  style="stroke:black; stroke-linecap:round; stroke-width:0.25;"/>
<line x1="376.300000" y1="36.000000" x2="380.300000" y2="36.000000"  style="stroke:black; stroke-linecap:round; stroke-width:0.25;"/>
<line x1="404.300000" y1="36.000000" x2="408.300000" y2="36.000000"  style="stroke:black; stroke-linecap:round; stroke-width:0.25;"/>
<line x1="408.300000" y1="36.000000" x2="408.300000" y2="36.000000"  style="stroke:black; stroke-linecap:round; stroke-width:0.25;"/>
<line x1="408.300000" y1="36.000000" x2="412.300000" y2="36.000000"  style="stroke:black; stroke-linecap:round; stroke-width:0.25;"/>
<line x1="412.300000" y1="36.000000" x2="416.300000" y2="36.000000"  style="stroke:black; stroke-linecap:round; stroke-width:0.25;"/>
<line x1="416.300000" y1="36.000000" x2="426.300000" y2="36.000000"  style="stroke:black; stroke-linecap:round; stroke-width:0.25;"/>
</svg>
