<?xml version="1.0"?>
<svg xmlns="http://www.w3.org/2000/svg" xmlns:xlink="http://www.w3.org/1999/xlink" viewBox="0 0 595.000000 100.000000" width="297.500000mm" height="50.000000mm" version="1.1">
<a xlink:href="FB-0x60013c015290.svg">
<rect x="1.000000" y="1.000000" width="594.000000" height="99.000000" rx="0" ry="0" style="stroke:none;fill:#cccccc;"/>
<rect x="0.000000" y="0.000000" width="594.000000" height="99.000000" rx="0" ry="0" style="stroke:none;fill:#ffffff;"/>
</a>
<text x="10.000000" y="7.000000" font-family="Arial" font-size="7"></text>
<rect x="51.000000" y="35.000000" width="348.300000" height="24.000000" rx="0" ry="0" style="stroke:none;fill:#cccccc;"/>
<rect x="50.000000" y="34.000000" width="348.300000" height="24.000000" rx="0" ry="0" style="stroke:none;fill:#477881;"/>
<text x="224.150000" y="48.000000" font-family="Arial" font-size="7" text-anchor="middle" fill="#FFFFFF">vslider(v:soundsgood/t:expert/h:leveler/leveler max +, 20.0f, 0.0f, 60.0f, 1.0f)</text>
<circle cx="52.000000" cy="36.000000" r="1"/>
<line x1="41.000000" y1="25.000000" x2="41.000000" y2="67.000000"  style="stroke: black; stroke-linecap:round; stroke-width:0.25; stroke-dasharray:3,3;"/>
<line x1="41.000000" y1="67.000000" x2="407.300000" y2="67.000000"  style="stroke: black; stroke-linecap:round; stroke-width:0.25; stroke-dasharray:3,3;"/>
<line x1="407.300000" y1="67.000000" x2="407.300000" y2="25.000000"  style="stroke: black; stroke-linecap:round; stroke-width:0.25; stroke-dasharray:3,3;"/>
<line x1="41.000000" y1="25.000000" x2="46.000000" y2="25.000000"  style="stroke: black; stroke-linecap:round; stroke-width:0.25; stroke-dasharray:3,3;"/>
<line x1="81.475000" y1="25.000000" x2="407.300000" y2="25.000000"  style="stroke: black; stroke-linecap:round; stroke-width:0.25; stroke-dasharray:3,3;"/>
<text x="46.000000" y="27.000000" font-family="Arial" font-size="7">limit_pos</text>
<rect x="435.300000" y="39.000000" width="24.000000" height="24.000000" rx="0" ry="0" style="stroke:none;fill:#cccccc;"/>
<rect x="434.300000" y="38.000000" width="24.000000" height="24.000000" rx="0" ry="0" style="stroke:none;fill:#4B71A1;"/>
<text x="446.300000" y="52.000000" font-family="Arial" font-size="7" text-anchor="middle" fill="#FFFFFF">min</text>
<circle cx="436.300000" cy="40.000000" r="1"/>
<line x1="431.300000" y1="45.000000" x2="434.300000" y2="46.000000"  transform="rotate(0.000000,434.300000,46.000000)" style="stroke: black; stroke-width:0.25;"/>
<line x1="431.300000" y1="47.000000" x2="434.300000" y2="46.000000"  transform="rotate(0.000000,434.300000,46.000000)" style="stroke: black; stroke-width:0.25;"/>
<line x1="431.300000" y1="53.000000" x2="434.300000" y2="54.000000"  transform="rotate(0.000000,434.300000,54.000000)" style="stroke: black; stroke-width:0.25;"/>
<line x1="431.300000" y1="55.000000" x2="434.300000" y2="54.000000"  transform="rotate(0.000000,434.300000,54.000000)" style="stroke: black; stroke-width:0.25;"/>
<line x1="425.300000" y1="29.000000" x2="425.300000" y2="71.000000"  style="stroke: black; stroke-linecap:round; stroke-width:0.25; stroke-dasharray:3,3;"/>
<line x1="425.300000" y1="71.000000" x2="467.300000" y2="71.000000"  style="stroke: black; stroke-linecap:round; stroke-width:0.25; stroke-dasharray:3,3;"/>
<line x1="467.300000" y1="71.000000" x2="467.300000" y2="29.000000"  style="stroke: black; stroke-linecap:round; stroke-width:0.25; stroke-dasharray:3,3;"/>
<line x1="425.300000" y1="29.000000" x2="430.300000" y2="29.000000"  style="stroke: black; stroke-linecap:round; stroke-width:0.25; stroke-dasharray:3,3;"/>
<line x1="467.300000" y1="29.000000" x2="467.300000" y2="29.000000"  style="stroke: black; stroke-linecap:round; stroke-width:0.25; stroke-dasharray:3,3;"/>
<text x="430.300000" y="31.000000" font-family="Arial" font-size="7">parallelMin(2)</text>
<a xlink:href="limit-0x6000fc076760.svg">
<rect x="485.300000" y="35.000000" width="38.700000" height="24.000000" rx="0" ry="0" style="stroke:none;fill:#cccccc;"/>
<rect x="484.300000" y="34.000000" width="38.700000" height="24.000000" rx="0" ry="0" style="stroke:none;fill:#003366;"/>
</a>
<a xlink:href="limit-0x6000fc076760.svg">
<text x="503.650000" y="48.000000" font-family="Arial" font-size="7" text-anchor="middle" fill="#FFFFFF">limit_neg</text>
</a>
<circle cx="486.300000" cy="36.000000" r="1"/>
<rect x="540.000000" y="39.000000" width="24.000000" height="24.000000" rx="0" ry="0" style="stroke:none;fill:#cccccc;"/>
<rect x="539.000000" y="38.000000" width="24.000000" height="24.000000" rx="0" ry="0" style="stroke:none;fill:#4B71A1;"/>
<text x="551.000000" y="52.000000" font-family="Arial" font-size="7" text-anchor="middle" fill="#FFFFFF">max</text>
<circle cx="541.000000" cy="40.000000" r="1"/>
<line x1="536.000000" y1="45.000000" x2="539.000000" y2="46.000000"  transform="rotate(0.000000,539.000000,46.000000)" style="stroke: black; stroke-width:0.25;"/>
<line x1="536.000000" y1="47.000000" x2="539.000000" y2="46.000000"  transform="rotate(0.000000,539.000000,46.000000)" style="stroke: black; stroke-width:0.25;"/>
<line x1="536.000000" y1="53.000000" x2="539.000000" y2="54.000000"  transform="rotate(0.000000,539.000000,54.000000)" style="stroke: black; stroke-width:0.25;"/>
<line x1="536.000000" y1="55.000000" x2="539.000000" y2="54.000000"  transform="rotate(0.000000,539.000000,54.000000)" style="stroke: black; stroke-width:0.25;"/>
<line x1="15.000000" y1="15.000000" x2="15.000000" y2="85.000000"  style="stroke: black; stroke-linecap:round; stroke-width:0.25; stroke-dasharray:3,3;"/>
<line x1="15.000000" y1="85.000000" x2="580.000000" y2="85.000000"  style="stroke: black; stroke-linecap:round; stroke-width:0.25; stroke-dasharray:3,3;"/>
<line x1="580.000000" y1="85.000000" x2="580.000000" y2="15.000000"  style="stroke: black; stroke-linecap:round; stroke-width:0.25; stroke-dasharray:3,3;"/>
<line x1="15.000000" y1="15.000000" x2="20.000000" y2="15.000000"  style="stroke: black; stroke-linecap:round; stroke-width:0.25; stroke-dasharray:3,3;"/>
<line x1="119.975000" y1="15.000000" x2="580.000000" y2="15.000000"  style="stroke: black; stroke-linecap:round; stroke-width:0.25; stroke-dasharray:3,3;"/>
<text x="20.000000" y="17.000000" font-family="Arial" font-size="7">limit(vslider...60.0f, 1.0f))</text>
<line x1="582.000000" y1="49.000000" x2="585.000000" y2="50.000000"  transform="rotate(0.000000,585.000000,50.000000)" style="stroke: black; stroke-width:0.25;"/>
<line x1="582.000000" y1="51.000000" x2="585.000000" y2="50.000000"  transform="rotate(0.000000,585.000000,50.000000)" style="stroke: black; stroke-width:0.25;"/>
<line x1="10.000000" y1="50.000000" x2="20.000000" y2="50.000000"  style="stroke:black; stroke-linecap:round; stroke-width:0.25;"/>
<line x1="20.000000" y1="50.000000" x2="24.000000" y2="50.000000"  style="stroke:black; stroke-linecap:round; stroke-width:0.25;"/>
<line x1="24.000000" y1="50.000000" x2="28.000000" y2="50.000000"  style="stroke:black; stroke-linecap:round; stroke-width:0.25;"/>
<line x1="28.000000" y1="50.000000" x2="36.000000" y2="50.000000"  style="stroke:black; stroke-linecap:round; stroke-width:0.25;"/>
<line x1="36.000000" y1="50.000000" x2="36.000000" y2="76.000000"  style="stroke:black; stroke-linecap:round; stroke-width:0.25;"/>
<line x1="36.000000" y1="76.000000" x2="36.000000" y2="76.000000"  style="stroke:black; stroke-linecap:round; stroke-width:0.25;"/>
<line x1="36.000000" y1="76.000000" x2="224.150000" y2="76.000000"  style="stroke:black; stroke-linecap:round; stroke-width:0.25;"/>
<line x1="224.150000" y1="76.000000" x2="412.300000" y2="76.000000"  style="stroke:black; stroke-linecap:round; stroke-width:0.25;"/>
<line x1="398.300000" y1="46.000000" x2="402.300000" y2="46.000000"  style="stroke:black; stroke-linecap:round; stroke-width:0.25;"/>
<line x1="402.300000" y1="46.000000" x2="412.300000" y2="46.000000"  style="stroke:black; stroke-linecap:round; stroke-width:0.25;"/>
<line x1="412.300000" y1="46.000000" x2="420.300000" y2="46.000000"  style="stroke:black; stroke-linecap:round; stroke-width:0.25;"/>
<line x1="412.300000" y1="54.000000" x2="420.300000" y2="54.000000"  style="stroke:black; stroke-linecap:round; stroke-width:0.25;"/>
<line x1="412.300000" y1="76.000000" x2="412.300000" y2="54.000000"  style="stroke:black; stroke-linecap:round; stroke-width:0.25;"/>
<line x1="412.300000" y1="76.000000" x2="412.300000" y2="76.000000"  style="stroke:black; stroke-linecap:round; stroke-width:0.25;"/>
<line x1="420.300000" y1="46.000000" x2="430.300000" y2="46.000000"  style="stroke:black; stroke-linecap:round; stroke-width:0.25;"/>
<line x1="420.300000" y1="54.000000" x2="430.300000" y2="54.000000"  style="stroke:black; stroke-linecap:round; stroke-width:0.25;"/>
<line x1="430.300000" y1="46.000000" x2="434.300000" y2="46.000000"  style="stroke:black; stroke-linecap:round; stroke-width:0.25;"/>
<line x1="430.300000" y1="54.000000" x2="434.300000" y2="54.000000"  style="stroke:black; stroke-linecap:round; stroke-width:0.25;"/>
<line x1="458.300000" y1="50.000000" x2="462.300000" y2="50.000000"  style="stroke:black; stroke-linecap:round; stroke-width:0.25;"/>
<line x1="462.300000" y1="50.000000" x2="472.300000" y2="50.000000"  style="stroke:black; stroke-linecap:round; stroke-width:0.25;"/>
<line x1="472.300000" y1="50.000000" x2="480.300000" y2="50.000000"  style="stroke:black; stroke-linecap:round; stroke-width:0.25;"/>
<line x1="480.300000" y1="50.000000" x2="480.300000" y2="66.000000"  style="stroke:black; stroke-linecap:round; stroke-width:0.25;"/>
<line x1="480.300000" y1="66.000000" x2="480.300000" y2="66.000000"  style="stroke:black; stroke-linecap:round; stroke-width:0.25;"/>
<line x1="480.300000" y1="66.000000" x2="503.650000" y2="66.000000"  style="stroke:black; stroke-linecap:round; stroke-width:0.25;"/>
<line x1="503.650000" y1="66.000000" x2="527.000000" y2="66.000000"  style="stroke:black; stroke-linecap:round; stroke-width:0.25;"/>
<line x1="523.000000" y1="46.000000" x2="527.000000" y2="46.000000"  style="stroke:black; stroke-linecap:round; stroke-width:0.25;"/>
<line x1="527.000000" y1="46.000000" x2="535.000000" y2="46.000000"  style="stroke:black; stroke-linecap:round; stroke-width:0.25;"/>
<line x1="527.000000" y1="54.000000" x2="535.000000" y2="54.000000"  style="stroke:black; stroke-linecap:round; stroke-width:0.25;"/>
<line x1="527.000000" y1="66.000000" x2="527.000000" y2="54.000000"  style="stroke:black; stroke-linecap:round; stroke-width:0.25;"/>
<line x1="527.000000" y1="66.000000" x2="527.000000" y2="66.000000"  style="stroke:black; stroke-linecap:round; stroke-width:0.25;"/>
<line x1="535.000000" y1="46.000000" x2="539.000000" y2="46.000000"  style="stroke:black; stroke-linecap:round; stroke-width:0.25;"/>
<line x1="535.000000" y1="54.000000" x2="539.000000" y2="54.000000"  style="stroke:black; stroke-linecap:round; stroke-width:0.25;"/>
<line x1="563.000000" y1="50.000000" x2="567.000000" y2="50.000000"  style="stroke:black; stroke-linecap:round; stroke-width:0.25;"/>
<line x1="567.000000" y1="50.000000" x2="567.000000" y2="50.000000"  style="stroke:black; stroke-linecap:round; stroke-width:0.25;"/>
<line x1="567.000000" y1="50.000000" x2="571.000000" y2="50.000000"  style="stroke:black; stroke-linecap:round; stroke-width:0.25;"/>
<line x1="571.000000" y1="50.000000" x2="575.000000" y2="50.000000"  style="stroke:black; stroke-linecap:round; stroke-width:0.25;"/>
<line x1="575.000000" y1="50.000000" x2="585.000000" y2="50.000000"  style="stroke:black; stroke-linecap:round; stroke-width:0.25;"/>
</svg>
