<?xml version="1.0"?>
<svg xmlns="http://www.w3.org/2000/svg" xmlns:xlink="http://www.w3.org/1999/xlink" viewBox="0 0 520.800000 80.000000" width="260.400000mm" height="40.000000mm" version="1.1">
<a xlink:href="RMS-0x60015011b600.svg">
<rect x="1.000000" y="1.000000" width="519.800000" height="79.000000" rx="0" ry="0" style="stroke:none;fill:#cccccc;"/>
<rect x="0.000000" y="0.000000" width="519.800000" height="79.000000" rx="0" ry="0" style="stroke:none;fill:#ffffff;"/>
</a>
<text x="10.000000" y="7.000000" font-family="Arial" font-size="7"></text>
<a xlink:href="linear2db-0x60015011af40.svg">
<rect x="53.000000" y="33.000000" width="38.700000" height="24.000000" rx="0" ry="0" style="stroke:none;fill:#cccccc;"/>
<rect x="52.000000" y="32.000000" width="38.700000" height="24.000000" rx="0" ry="0" style="stroke:none;fill:#003366;"/>
</a>
<a xlink:href="linear2db-0x60015011af40.svg">
<text x="71.350000" y="46.000000" font-family="Arial" font-size="7" text-anchor="middle" fill="#FFFFFF">linear2db</text>
</a>
<circle cx="54.000000" cy="34.000000" r="1"/>
<line x1="49.000000" y1="43.000000" x2="52.000000" y2="44.000000"  transform="rotate(0.000000,52.000000,44.000000)" style="stroke: black; stroke-width:0.25;"/>
<line x1="49.000000" y1="45.000000" x2="52.000000" y2="44.000000"  transform="rotate(0.000000,52.000000,44.000000)" style="stroke: black; stroke-width:0.25;"/>
<rect x="99.700000" y="33.000000" width="348.300000" height="24.000000" rx="0" ry="0" style="stroke:none;fill:#cccccc;"/>
<rect x="98.700000" y="32.000000" width="348.300000" height="24.000000" rx="0" ry="0" style="stroke:none;fill:#477881;"/>
<text x="272.850000" y="46.000000" font-family="Arial" font-size="7" text-anchor="middle" fill="#FFFFFF">vbargraph(v:soundsgood/t:expert/h:limiter/limiter gain reduction, -12.0f, 0.0f)</text>
<circle cx="100.700000" cy="34.000000" r="1"/>
<line x1="95.700000" y1="43.000000" x2="98.700000" y2="44.000000"  transform="rotate(0.000000,98.700000,44.000000)" style="stroke: black; stroke-width:0.25;"/>
<line x1="95.700000" y1="45.000000" x2="98.700000" y2="44.000000"  transform="rotate(0.000000,98.700000,44.000000)" style="stroke: black; stroke-width:0.25;"/>
<rect x="464.000000" y="29.000000" width="25.800000" height="24.000000" rx="0" ry="0" style="stroke:none;fill:#cccccc;"/>
<rect x="463.000000" y="28.000000" width="25.800000" height="24.000000" rx="0" ry="0" style="stroke:none;fill:#4B71A1;"/>
<text x="475.900000" y="42.000000" font-family="Arial" font-size="7" text-anchor="middle" fill="#FFFFFF">attach</text>
<circle cx="465.000000" cy="30.000000" r="1"/>
<line x1="460.000000" y1="35.000000" x2="463.000000" y2="36.000000"  transform="rotate(0.000000,463.000000,36.000000)" style="stroke: black; stroke-width:0.25;"/>
<line x1="460.000000" y1="37.000000" x2="463.000000" y2="36.000000"  transform="rotate(0.000000,463.000000,36.000000)" style="stroke: black; stroke-width:0.25;"/>
<line x1="460.000000" y1="43.000000" x2="463.000000" y2="44.000000"  transform="rotate(0.000000,463.000000,44.000000)" style="stroke: black; stroke-width:0.25;"/>
<line x1="460.000000" y1="45.000000" x2="463.000000" y2="44.000000"  transform="rotate(0.000000,463.000000,44.000000)" style="stroke: black; stroke-width:0.25;"/>
<line x1="15.000000" y1="15.000000" x2="15.000000" y2="65.000000"  style="stroke: black; stroke-linecap:round; stroke-width:0.25; stroke-dasharray:3,3;"/>
<line x1="15.000000" y1="65.000000" x2="505.800000" y2="65.000000"  style="stroke: black; stroke-linecap:round; stroke-width:0.25; stroke-dasharray:3,3;"/>
<line x1="505.800000" y1="65.000000" x2="505.800000" y2="15.000000"  style="stroke: black; stroke-linecap:round; stroke-width:0.25; stroke-dasharray:3,3;"/>
<line x1="15.000000" y1="15.000000" x2="20.000000" y2="15.000000"  style="stroke: black; stroke-linecap:round; stroke-width:0.25; stroke-dasharray:3,3;"/>
<line x1="68.375000" y1="15.000000" x2="505.800000" y2="15.000000"  style="stroke: black; stroke-linecap:round; stroke-width:0.25; stroke-dasharray:3,3;"/>
<text x="20.000000" y="17.000000" font-family="Arial" font-size="7">limiter_meter</text>
<line x1="507.800000" y1="39.000000" x2="510.800000" y2="40.000000"  transform="rotate(0.000000,510.800000,40.000000)" style="stroke: black; stroke-width:0.25;"/>
<line x1="507.800000" y1="41.000000" x2="510.800000" y2="40.000000"  transform="rotate(0.000000,510.800000,40.000000)" style="stroke: black; stroke-width:0.25;"/>
<line x1="10.000000" y1="40.000000" x2="20.000000" y2="40.000000"  style="stroke:black; stroke-linecap:round; stroke-width:0.25;"/>
<line x1="20.000000" y1="40.000000" x2="24.000000" y2="40.000000"  style="stroke:black; stroke-linecap:round; stroke-width:0.25;"/>
<line x1="24.000000" y1="40.000000" x2="28.000000" y2="40.000000"  style="stroke:black; stroke-linecap:round; stroke-width:0.25;"/>
<line x1="28.000000" y1="40.000000" x2="28.000000" y2="40.000000"  style="stroke:black; stroke-linecap:round; stroke-width:0.25;"/>
<line x1="28.000000" y1="40.000000" x2="32.000000" y2="40.000000"  style="stroke:black; stroke-linecap:round; stroke-width:0.25;"/>
<line x1="32.000000" y1="40.000000" x2="36.000000" y2="40.000000"  style="stroke:black; stroke-linecap:round; stroke-width:0.25;"/>
<line x1="36.000000" y1="40.000000" x2="48.000000" y2="24.000000"  style="stroke:black; stroke-linecap:round; stroke-width:0.25;"/>
<line x1="36.000000" y1="40.000000" x2="48.000000" y2="44.000000"  style="stroke:black; stroke-linecap:round; stroke-width:0.25;"/>
<line x1="48.000000" y1="24.000000" x2="249.500000" y2="24.000000"  style="stroke:black; stroke-linecap:round; stroke-width:0.25;"/>
<line x1="48.000000" y1="44.000000" x2="52.000000" y2="44.000000"  style="stroke:black; stroke-linecap:round; stroke-width:0.25;"/>
<line x1="90.700000" y1="44.000000" x2="94.700000" y2="44.000000"  style="stroke:black; stroke-linecap:round; stroke-width:0.25;"/>
<line x1="94.700000" y1="44.000000" x2="94.700000" y2="44.000000"  style="stroke:black; stroke-linecap:round; stroke-width:0.25;"/>
<line x1="94.700000" y1="44.000000" x2="98.700000" y2="44.000000"  style="stroke:black; stroke-linecap:round; stroke-width:0.25;"/>
<line x1="249.500000" y1="24.000000" x2="451.000000" y2="24.000000"  style="stroke:black; stroke-linecap:round; stroke-width:0.25;"/>
<line x1="447.000000" y1="44.000000" x2="451.000000" y2="44.000000"  style="stroke:black; stroke-linecap:round; stroke-width:0.25;"/>
<line x1="451.000000" y1="24.000000" x2="459.000000" y2="24.000000"  style="stroke:black; stroke-linecap:round; stroke-width:0.25;"/>
<line x1="451.000000" y1="44.000000" x2="459.000000" y2="44.000000"  style="stroke:black; stroke-linecap:round; stroke-width:0.25;"/>
<line x1="459.000000" y1="24.000000" x2="459.000000" y2="36.000000"  style="stroke:black; stroke-linecap:round; stroke-width:0.25;"/>
<line x1="459.000000" y1="36.000000" x2="459.000000" y2="36.000000"  style="stroke:black; stroke-linecap:round; stroke-width:0.25;"/>
<line x1="459.000000" y1="36.000000" x2="463.000000" y2="36.000000"  style="stroke:black; stroke-linecap:round; stroke-width:0.25;"/>
<line x1="459.000000" y1="44.000000" x2="463.000000" y2="44.000000"  style="stroke:black; stroke-linecap:round; stroke-width:0.25;"/>
<line x1="488.800000" y1="40.000000" x2="492.800000" y2="40.000000"  style="stroke:black; stroke-linecap:round; stroke-width:0.25;"/>
<line x1="492.800000" y1="40.000000" x2="492.800000" y2="40.000000"  style="stroke:black; stroke-linecap:round; stroke-width:0.25;"/>
<line x1="492.800000" y1="40.000000" x2="496.800000" y2="40.000000"  style="stroke:black; stroke-linecap:round; stroke-width:0.25;"/>
<line x1="496.800000" y1="40.000000" x2="500.800000" y2="40.000000"  style="stroke:black; stroke-linecap:round; stroke-width:0.25;"/>
<line x1="500.800000" y1="40.000000" x2="510.800000" y2="40.000000"  style="stroke:black; stroke-linecap:round; stroke-width:0.25;"/>
</svg>
