<?xml version="1.0"?>
<svg xmlns="http://www.w3.org/2000/svg" xmlns:xlink="http://www.w3.org/1999/xlink" viewBox="0 0 550.600000 168.000000" width="275.300000mm" height="84.000000mm" version="1.1">
<a xlink:href="gain-0x60014416d440.svg">
<rect x="1.000000" y="1.000000" width="549.600000" height="167.000000" rx="0" ry="0" style="stroke:none;fill:#cccccc;"/>
<rect x="0.000000" y="0.000000" width="549.600000" height="167.000000" rx="0" ry="0" style="stroke:none;fill:#ffffff;"/>
</a>
<text x="10.000000" y="7.000000" font-family="Arial" font-size="7"></text>
<rect x="31.450000" y="25.000000" width="374.100000" height="24.000000" rx="0" ry="0" style="stroke:none;fill:#cccccc;"/>
<rect x="30.450000" y="24.000000" width="374.100000" height="24.000000" rx="0" ry="0" style="stroke:none;fill:#477881;"/>
<text x="217.500000" y="38.000000" font-family="Arial" font-size="7" text-anchor="middle" fill="#FFFFFF">vslider(v:soundsgood/t:expert/h:mscomp/h:low band/low link, 60.0f, 0.0f, 100.0f, 1.0f)</text>
<circle cx="32.450000" cy="26.000000" r="1"/>
<rect x="205.600000" y="57.000000" width="25.800000" height="24.000000" rx="0" ry="0" style="stroke:none;fill:#cccccc;"/>
<rect x="204.600000" y="56.000000" width="25.800000" height="24.000000" rx="0" ry="0" style="stroke:none;fill:#f44800;"/>
<text x="217.500000" y="70.000000" font-family="Arial" font-size="7" text-anchor="middle" fill="#FFFFFF">0.01</text>
<circle cx="206.600000" cy="58.000000" r="1"/>
<rect x="421.550000" y="41.000000" width="24.000000" height="24.000000" rx="0" ry="0" style="stroke:none;fill:#cccccc;"/>
<rect x="420.550000" y="40.000000" width="24.000000" height="24.000000" rx="0" ry="0" style="stroke:none;fill:#4B71A1;"/>
<text x="432.550000" y="54.000000" font-family="Arial" font-size="7" text-anchor="middle" fill="#FFFFFF">*</text>
<circle cx="422.550000" cy="42.000000" r="1"/>
<line x1="417.550000" y1="47.000000" x2="420.550000" y2="48.000000"  transform="rotate(0.000000,420.550000,48.000000)" style="stroke: black; stroke-width:0.25;"/>
<line x1="417.550000" y1="49.000000" x2="420.550000" y2="48.000000"  transform="rotate(0.000000,420.550000,48.000000)" style="stroke: black; stroke-width:0.25;"/>
<line x1="417.550000" y1="55.000000" x2="420.550000" y2="56.000000"  transform="rotate(0.000000,420.550000,56.000000)" style="stroke: black; stroke-width:0.25;"/>
<line x1="417.550000" y1="57.000000" x2="420.550000" y2="56.000000"  transform="rotate(0.000000,420.550000,56.000000)" style="stroke: black; stroke-width:0.25;"/>
<rect x="25.000000" y="89.000000" width="387.000000" height="24.000000" rx="0" ry="0" style="stroke:none;fill:#cccccc;"/>
<rect x="24.000000" y="88.000000" width="387.000000" height="24.000000" rx="0" ry="0" style="stroke:none;fill:#477881;"/>
<text x="217.500000" y="102.000000" font-family="Arial" font-size="7" text-anchor="middle" fill="#FFFFFF">vslider(v:soundsgood/t:expert/h:mscomp/h:high band/high link, 30.0f, 0.0f, 100.0f, 1.0f)</text>
<circle cx="26.000000" cy="90.000000" r="1"/>
<rect x="205.600000" y="121.000000" width="25.800000" height="24.000000" rx="0" ry="0" style="stroke:none;fill:#cccccc;"/>
<rect x="204.600000" y="120.000000" width="25.800000" height="24.000000" rx="0" ry="0" style="stroke:none;fill:#f44800;"/>
<text x="217.500000" y="134.000000" font-family="Arial" font-size="7" text-anchor="middle" fill="#FFFFFF">0.01</text>
<circle cx="206.600000" cy="122.000000" r="1"/>
<rect x="428.000000" y="105.000000" width="24.000000" height="24.000000" rx="0" ry="0" style="stroke:none;fill:#cccccc;"/>
<rect x="427.000000" y="104.000000" width="24.000000" height="24.000000" rx="0" ry="0" style="stroke:none;fill:#4B71A1;"/>
<text x="439.000000" y="118.000000" font-family="Arial" font-size="7" text-anchor="middle" fill="#FFFFFF">*</text>
<circle cx="429.000000" cy="106.000000" r="1"/>
<line x1="424.000000" y1="111.000000" x2="427.000000" y2="112.000000"  transform="rotate(0.000000,427.000000,112.000000)" style="stroke: black; stroke-width:0.25;"/>
<line x1="424.000000" y1="113.000000" x2="427.000000" y2="112.000000"  transform="rotate(0.000000,427.000000,112.000000)" style="stroke: black; stroke-width:0.25;"/>
<line x1="424.000000" y1="119.000000" x2="427.000000" y2="120.000000"  transform="rotate(0.000000,427.000000,120.000000)" style="stroke: black; stroke-width:0.25;"/>
<line x1="424.000000" y1="121.000000" x2="427.000000" y2="120.000000"  transform="rotate(0.000000,427.000000,120.000000)" style="stroke: black; stroke-width:0.25;"/>
<a xlink:href="LinArray-0x60013c0d1560.svg">
<rect x="468.000000" y="53.000000" width="51.600000" height="64.000000" rx="0" ry="0" style="stroke:none;fill:#cccccc;"/>
<rect x="467.000000" y="52.000000" width="51.600000" height="64.000000" rx="0" ry="0" style="stroke:none;fill:#003366;"/>
</a>
<a xlink:href="LinArray-0x60013c0d1560.svg">
<text x="492.800000" y="86.000000" font-family="Arial" font-size="7" text-anchor="middle" fill="#FFFFFF">LinArray(8)</text>
</a>
<circle cx="469.000000" cy="54.000000" r="1"/>
<line x1="464.000000" y1="79.000000" x2="467.000000" y2="80.000000"  transform="rotate(0.000000,467.000000,80.000000)" style="stroke: black; stroke-width:0.25;"/>
<line x1="464.000000" y1="81.000000" x2="467.000000" y2="80.000000"  transform="rotate(0.000000,467.000000,80.000000)" style="stroke: black; stroke-width:0.25;"/>
<line x1="464.000000" y1="87.000000" x2="467.000000" y2="88.000000"  transform="rotate(0.000000,467.000000,88.000000)" style="stroke: black; stroke-width:0.25;"/>
<line x1="464.000000" y1="89.000000" x2="467.000000" y2="88.000000"  transform="rotate(0.000000,467.000000,88.000000)" style="stroke: black; stroke-width:0.25;"/>
<line x1="15.000000" y1="15.000000" x2="15.000000" y2="153.000000"  style="stroke: black; stroke-linecap:round; stroke-width:0.25; stroke-dasharray:3,3;"/>
<line x1="15.000000" y1="153.000000" x2="535.600000" y2="153.000000"  style="stroke: black; stroke-linecap:round; stroke-width:0.25; stroke-dasharray:3,3;"/>
<line x1="535.600000" y1="153.000000" x2="535.600000" y2="15.000000"  style="stroke: black; stroke-linecap:round; stroke-width:0.25; stroke-dasharray:3,3;"/>
<line x1="15.000000" y1="15.000000" x2="20.000000" y2="15.000000"  style="stroke: black; stroke-linecap:round; stroke-width:0.25; stroke-dasharray:3,3;"/>
<line x1="58.700000" y1="15.000000" x2="535.600000" y2="15.000000"  style="stroke: black; stroke-linecap:round; stroke-width:0.25; stroke-dasharray:3,3;"/>
<text x="20.000000" y="17.000000" font-family="Arial" font-size="7">link_array</text>
<line x1="537.600000" y1="55.000000" x2="540.600000" y2="56.000000"  transform="rotate(0.000000,540.600000,56.000000)" style="stroke: black; stroke-width:0.25;"/>
<line x1="537.600000" y1="57.000000" x2="540.600000" y2="56.000000"  transform="rotate(0.000000,540.600000,56.000000)" style="stroke: black; stroke-width:0.25;"/>
<line x1="537.600000" y1="63.000000" x2="540.600000" y2="64.000000"  transform="rotate(0.000000,540.600000,64.000000)" style="stroke: black; stroke-width:0.25;"/>
<line x1="537.600000" y1="65.000000" x2="540.600000" y2="64.000000"  transform="rotate(0.000000,540.600000,64.000000)" style="stroke: black; stroke-width:0.25;"/>
<line x1="537.600000" y1="71.000000" x2="540.600000" y2="72.000000"  transform="rotate(0.000000,540.600000,72.000000)" style="stroke: black; stroke-width:0.25;"/>
<line x1="537.600000" y1="73.000000" x2="540.600000" y2="72.000000"  transform="rotate(0.000000,540.600000,72.000000)" style="stroke: black; stroke-width:0.25;"/>
<line x1="537.600000" y1="79.000000" x2="540.600000" y2="80.000000"  transform="rotate(0.000000,540.600000,80.000000)" style="stroke: black; stroke-width:0.25;"/>
<line x1="537.600000" y1="81.000000" x2="540.600000" y2="80.000000"  transform="rotate(0.000000,540.600000,80.000000)" style="stroke: black; stroke-width:0.25;"/>
<line x1="537.600000" y1="87.000000" x2="540.600000" y2="88.000000"  transform="rotate(0.000000,540.600000,88.000000)" style="stroke: black; stroke-width:0.25;"/>
<line x1="537.600000" y1="89.000000" x2="540.600000" y2="88.000000"  transform="rotate(0.000000,540.600000,88.000000)" style="stroke: black; stroke-width:0.25;"/>
<line x1="537.600000" y1="95.000000" x2="540.600000" y2="96.000000"  transform="rotate(0.000000,540.600000,96.000000)" style="stroke: black; stroke-width:0.25;"/>
<line x1="537.600000" y1="97.000000" x2="540.600000" y2="96.000000"  transform="rotate(0.000000,540.600000,96.000000)" style="stroke: black; stroke-width:0.25;"/>
<line x1="537.600000" y1="103.000000" x2="540.600000" y2="104.000000"  transform="rotate(0.000000,540.600000,104.000000)" style="stroke: black; stroke-width:0.25;"/>
<line x1="537.600000" y1="105.000000" x2="540.600000" y2="104.000000"  transform="rotate(0.000000,540.600000,104.000000)" style="stroke: black; stroke-width:0.25;"/>
<line x1="537.600000" y1="111.000000" x2="540.600000" y2="112.000000"  transform="rotate(0.000000,540.600000,112.000000)" style="stroke: black; stroke-width:0.25;"/>
<line x1="537.600000" y1="113.000000" x2="540.600000" y2="112.000000"  transform="rotate(0.000000,540.600000,112.000000)" style="stroke: black; stroke-width:0.25;"/>
<line x1="230.400000" y1="68.000000" x2="234.400000" y2="68.000000"  style="stroke:black; stroke-linecap:round; stroke-width:0.25;"/>
<line x1="230.400000" y1="132.000000" x2="234.400000" y2="132.000000"  style="stroke:black; stroke-linecap:round; stroke-width:0.25;"/>
<line x1="234.400000" y1="68.000000" x2="408.550000" y2="68.000000"  style="stroke:black; stroke-linecap:round; stroke-width:0.25;"/>
<line x1="234.400000" y1="132.000000" x2="415.000000" y2="132.000000"  style="stroke:black; stroke-linecap:round; stroke-width:0.25;"/>
<line x1="404.550000" y1="36.000000" x2="408.550000" y2="36.000000"  style="stroke:black; stroke-linecap:round; stroke-width:0.25;"/>
<line x1="408.550000" y1="36.000000" x2="416.550000" y2="36.000000"  style="stroke:black; stroke-linecap:round; stroke-width:0.25;"/>
<line x1="408.550000" y1="56.000000" x2="416.550000" y2="56.000000"  style="stroke:black; stroke-linecap:round; stroke-width:0.25;"/>
<line x1="408.550000" y1="68.000000" x2="408.550000" y2="56.000000"  style="stroke:black; stroke-linecap:round; stroke-width:0.25;"/>
<line x1="408.550000" y1="68.000000" x2="408.550000" y2="68.000000"  style="stroke:black; stroke-linecap:round; stroke-width:0.25;"/>
<line x1="411.000000" y1="100.000000" x2="415.000000" y2="100.000000"  style="stroke:black; stroke-linecap:round; stroke-width:0.25;"/>
<line x1="415.000000" y1="100.000000" x2="423.000000" y2="100.000000"  style="stroke:black; stroke-linecap:round; stroke-width:0.25;"/>
<line x1="415.000000" y1="120.000000" x2="423.000000" y2="120.000000"  style="stroke:black; stroke-linecap:round; stroke-width:0.25;"/>
<line x1="415.000000" y1="132.000000" x2="415.000000" y2="120.000000"  style="stroke:black; stroke-linecap:round; stroke-width:0.25;"/>
<line x1="415.000000" y1="132.000000" x2="415.000000" y2="132.000000"  style="stroke:black; stroke-linecap:round; stroke-width:0.25;"/>
<line x1="416.550000" y1="36.000000" x2="416.550000" y2="48.000000"  style="stroke:black; stroke-linecap:round; stroke-width:0.25;"/>
<line x1="416.550000" y1="48.000000" x2="416.550000" y2="48.000000"  style="stroke:black; stroke-linecap:round; stroke-width:0.25;"/>
<line x1="416.550000" y1="48.000000" x2="420.550000" y2="48.000000"  style="stroke:black; stroke-linecap:round; stroke-width:0.25;"/>
<line x1="416.550000" y1="56.000000" x2="420.550000" y2="56.000000"  style="stroke:black; stroke-linecap:round; stroke-width:0.25;"/>
<line x1="423.000000" y1="100.000000" x2="423.000000" y2="112.000000"  style="stroke:black; stroke-linecap:round; stroke-width:0.25;"/>
<line x1="423.000000" y1="112.000000" x2="423.000000" y2="112.000000"  style="stroke:black; stroke-linecap:round; stroke-width:0.25;"/>
<line x1="423.000000" y1="112.000000" x2="427.000000" y2="112.000000"  style="stroke:black; stroke-linecap:round; stroke-width:0.25;"/>
<line x1="423.000000" y1="120.000000" x2="427.000000" y2="120.000000"  style="stroke:black; stroke-linecap:round; stroke-width:0.25;"/>
<line x1="444.550000" y1="52.000000" x2="448.550000" y2="52.000000"  style="stroke:black; stroke-linecap:round; stroke-width:0.25;"/>
<line x1="448.550000" y1="52.000000" x2="455.000000" y2="52.000000"  style="stroke:black; stroke-linecap:round; stroke-width:0.25;"/>
<line x1="451.000000" y1="116.000000" x2="455.000000" y2="116.000000"  style="stroke:black; stroke-linecap:round; stroke-width:0.25;"/>
<line x1="455.000000" y1="52.000000" x2="463.000000" y2="52.000000"  style="stroke:black; stroke-linecap:round; stroke-width:0.25;"/>
<line x1="455.000000" y1="88.000000" x2="463.000000" y2="88.000000"  style="stroke:black; stroke-linecap:round; stroke-width:0.25;"/>
<line x1="455.000000" y1="116.000000" x2="455.000000" y2="88.000000"  style="stroke:black; stroke-linecap:round; stroke-width:0.25;"/>
<line x1="455.000000" y1="116.000000" x2="455.000000" y2="116.000000"  style="stroke:black; stroke-linecap:round; stroke-width:0.25;"/>
<line x1="463.000000" y1="52.000000" x2="463.000000" y2="80.000000"  style="stroke:black; stroke-linecap:round; stroke-width:0.25;"/>
<line x1="463.000000" y1="80.000000" x2="463.000000" y2="80.000000"  style="stroke:black; stroke-linecap:round; stroke-width:0.25;"/>
<line x1="463.000000" y1="80.000000" x2="467.000000" y2="80.000000"  style="stroke:black; stroke-linecap:round; stroke-width:0.25;"/>
<line x1="463.000000" y1="88.000000" x2="467.000000" y2="88.000000"  style="stroke:black; stroke-linecap:round; stroke-width:0.25;"/>
<line x1="518.600000" y1="56.000000" x2="522.600000" y2="56.000000"  style="stroke:black; stroke-linecap:round; stroke-width:0.25;"/>
<line x1="518.600000" y1="64.000000" x2="522.600000" y2="64.000000"  style="stroke:black; stroke-linecap:round; stroke-width:0.25;"/>
<line x1="518.600000" y1="72.000000" x2="522.600000" y2="72.000000"  style="stroke:black; stroke-linecap:round; stroke-width:0.25;"/>
<line x1="518.600000" y1="80.000000" x2="522.600000" y2="80.000000"  style="stroke:black; stroke-linecap:round; stroke-width:0.25;"/>
<line x1="518.600000" y1="88.000000" x2="522.600000" y2="88.000000"  style="stroke:black; stroke-linecap:round; stroke-width:0.25;"/>
<line x1="518.600000" y1="96.000000" x2="522.600000" y2="96.000000"  style="stroke:black; stroke-linecap:round; stroke-width:0.25;"/>
<line x1="518.600000" y1="104.000000" x2="522.600000" y2="104.000000"  style="stroke:black; stroke-linecap:round; stroke-width:0.25;"/>
<line x1="518.600000" y1="112.000000" x2="522.600000" y2="112.000000"  style="stroke:black; stroke-linecap:round; stroke-width:0.25;"/>
<line x1="522.600000" y1="56.000000" x2="522.600000" y2="56.000000"  style="stroke:black; stroke-linecap:round; stroke-width:0.25;"/>
<line x1="522.600000" y1="56.000000" x2="526.600000" y2="56.000000"  style="stroke:black; stroke-linecap:round; stroke-width:0.25;"/>
<line x1="522.600000" y1="64.000000" x2="522.600000" y2="64.000000"  style="stroke:black; stroke-linecap:round; stroke-width:0.25;"/>
<line x1="522.600000" y1="64.000000" x2="526.600000" y2="64.000000"  style="stroke:black; stroke-linecap:round; stroke-width:0.25;"/>
<line x1="522.600000" y1="72.000000" x2="522.600000" y2="72.000000"  style="stroke:black; stroke-linecap:round; stroke-width:0.25;"/>
<line x1="522.600000" y1="72.000000" x2="526.600000" y2="72.000000"  style="stroke:black; stroke-linecap:round; stroke-width:0.25;"/>
<line x1="522.600000" y1="80.000000" x2="522.600000" y2="80.000000"  style="stroke:black; stroke-linecap:round; stroke-width:0.25;"/>
<line x1="522.600000" y1="80.000000" x2="526.600000" y2="80.000000"  style="stroke:black; stroke-linecap:round; stroke-width:0.25;"/>
<line x1="522.600000" y1="88.000000" x2="522.600000" y2="88.000000"  style="stroke:black; stroke-linecap:round; stroke-width:0.25;"/>
<line x1="522.600000" y1="88.000000" x2="526.600000" y2="88.000000"  style="stroke:black; stroke-linecap:round; stroke-width:0.25;"/>
<line x1="522.600000" y1="96.000000" x2="522.600000" y2="96.000000"  style="stroke:black; stroke-linecap:round; stroke-width:0.25;"/>
<line x1="522.600000" y1="96.000000" x2="526.600000" y2="96.000000"  style="stroke:black; stroke-linecap:round; stroke-width:0.25;"/>
<line x1="522.600000" y1="104.000000" x2="522.600000" y2="104.000000"  style="stroke:black; stroke-linecap:round; stroke-width:0.25;"/>
<line x1="522.600000" y1="104.000000" x2="526.600000" y2="104.000000"  style="stroke:black; stroke-linecap:round; stroke-width:0.25;"/>
<line x1="522.600000" y1="112.000000" x2="522.600000" y2="112.000000"  style="stroke:black; stroke-linecap:round; stroke-width:0.25;"/>
<line x1="522.600000" y1="112.000000" x2="526.600000" y2="112.000000"  style="stroke:black; stroke-linecap:round; stroke-width:0.25;"/>
<line x1="526.600000" y1="56.000000" x2="530.600000" y2="56.000000"  style="stroke:black; stroke-linecap:round; stroke-width:0.25;"/>
<line x1="526.600000" y1="64.000000" x2="530.600000" y2="64.000000"  style="stroke:black; stroke-linecap:round; stroke-width:0.25;"/>
<line x1="526.600000" y1="72.000000" x2="530.600000" y2="72.000000"  style="stroke:black; stroke-linecap:round; stroke-width:0.25;"/>
<line x1="526.600000" y1="80.000000" x2="530.600000" y2="80.000000"  style="stroke:black; stroke-linecap:round; stroke-width:0.25;"/>
<line x1="526.600000" y1="88.000000" x2="530.600000" y2="88.000000"  style="stroke:black; stroke-linecap:round; stroke-width:0.25;"/>
<line x1="526.600000" y1="96.000000" x2="530.600000" y2="96.000000"  style="stroke:black; stroke-linecap:round; stroke-width:0.25;"/>
<line x1="526.600000" y1="104.000000" x2="530.600000" y2="104.000000"  style="stroke:black; stroke-linecap:round; stroke-width:0.25;"/>
<line x1="526.600000" y1="112.000000" x2="530.600000" y2="112.000000"  style="stroke:black; stroke-linecap:round; stroke-width:0.25;"/>
<line x1="530.600000" y1="56.000000" x2="540.600000" y2="56.000000"  style="stroke:black; stroke-linecap:round; stroke-width:0.25;"/>
<line x1="530.600000" y1="64.000000" x2="540.600000" y2="64.000000"  style="stroke:black; stroke-linecap:round; stroke-width:0.25;"/>
<line x1="530.600000" y1="72.000000" x2="540.600000" y2="72.000000"  style="stroke:black; stroke-linecap:round; stroke-width:0.25;"/>
<line x1="530.600000" y1="80.000000" x2="540.600000" y2="80.000000"  style="stroke:black; stroke-linecap:round; stroke-width:0.25;"/>
<line x1="530.600000" y1="88.000000" x2="540.600000" y2="88.000000"  style="stroke:black; stroke-linecap:round; stroke-width:0.25;"/>
<line x1="530.600000" y1="96.000000" x2="540.600000" y2="96.000000"  style="stroke:black; stroke-linecap:round; stroke-width:0.25;"/>
<line x1="530.600000" y1="104.000000" x2="540.600000" y2="104.000000"  style="stroke:black; stroke-linecap:round; stroke-width:0.25;"/>
<line x1="530.600000" y1="112.000000" x2="540.600000" y2="112.000000"  style="stroke:black; stroke-linecap:round; stroke-width:0.25;"/>
</svg>
