<?xml version="1.0"?>
<svg xmlns="http://www.w3.org/2000/svg" xmlns:xlink="http://www.w3.org/1999/xlink" viewBox="0 0 509.300000 112.000000" width="254.650000mm" height="56.000000mm" version="1.1">
<a xlink:href="FB-0x60013c015290.svg">
<rect x="1.000000" y="1.000000" width="508.300000" height="111.000000" rx="0" ry="0" style="stroke:none;fill:#cccccc;"/>
<rect x="0.000000" y="0.000000" width="508.300000" height="111.000000" rx="0" ry="0" style="stroke:none;fill:#ffffff;"/>
</a>
<text x="10.000000" y="7.000000" font-family="Arial" font-size="7"></text>
<a xlink:href="kfilter-0x60002c38ebe0.svg">
<rect x="41.000000" y="29.000000" width="38.700000" height="24.000000" rx="0" ry="0" style="stroke:none;fill:#cccccc;"/>
<rect x="40.000000" y="28.000000" width="38.700000" height="24.000000" rx="0" ry="0" style="stroke:none;fill:#003366;"/>
</a>
<a xlink:href="kfilter-0x60002c38ebe0.svg">
<text x="59.350000" y="42.000000" font-family="Arial" font-size="7" text-anchor="middle" fill="#FFFFFF">kfilter</text>
</a>
<circle cx="42.000000" cy="30.000000" r="1"/>
<line x1="37.000000" y1="39.000000" x2="40.000000" y2="40.000000"  transform="rotate(0.000000,40.000000,40.000000)" style="stroke: black; stroke-width:0.25;"/>
<line x1="37.000000" y1="41.000000" x2="40.000000" y2="40.000000"  transform="rotate(0.000000,40.000000,40.000000)" style="stroke: black; stroke-width:0.25;"/>
<a xlink:href="envelope-0x60012c04cea0.svg">
<rect x="87.700000" y="29.000000" width="129.000000" height="24.000000" rx="0" ry="0" style="stroke:none;fill:#cccccc;"/>
<rect x="86.700000" y="28.000000" width="129.000000" height="24.000000" rx="0" ry="0" style="stroke:none;fill:#003366;"/>
</a>
<a xlink:href="envelope-0x60012c04cea0.svg">
<text x="151.200000" y="42.000000" font-family="Arial" font-size="7" text-anchor="middle" fill="#FFFFFF">envelope(0.40000000000000002f)</text>
</a>
<circle cx="88.700000" cy="30.000000" r="1"/>
<line x1="83.700000" y1="39.000000" x2="86.700000" y2="40.000000"  transform="rotate(0.000000,86.700000,40.000000)" style="stroke: black; stroke-width:0.25;"/>
<line x1="83.700000" y1="41.000000" x2="86.700000" y2="40.000000"  transform="rotate(0.000000,86.700000,40.000000)" style="stroke: black; stroke-width:0.25;"/>
<a xlink:href="kfilter-0x60002c38ebe0.svg">
<rect x="41.000000" y="61.000000" width="38.700000" height="24.000000" rx="0" ry="0" style="stroke:none;fill:#cccccc;"/>
<rect x="40.000000" y="60.000000" width="38.700000" height="24.000000" rx="0" ry="0" style="stroke:none;fill:#003366;"/>
</a>
<a xlink:href="kfilter-0x60002c38ebe0.svg">
<text x="59.350000" y="74.000000" font-family="Arial" font-size="7" text-anchor="middle" fill="#FFFFFF">kfilter</text>
</a>
<circle cx="42.000000" cy="62.000000" r="1"/>
<line x1="37.000000" y1="71.000000" x2="40.000000" y2="72.000000"  transform="rotate(0.000000,40.000000,72.000000)" style="stroke: black; stroke-width:0.25;"/>
<line x1="37.000000" y1="73.000000" x2="40.000000" y2="72.000000"  transform="rotate(0.000000,40.000000,72.000000)" style="stroke: black; stroke-width:0.25;"/>
<a xlink:href="envelope-0x6001343cf600.svg">
<rect x="87.700000" y="61.000000" width="129.000000" height="24.000000" rx="0" ry="0" style="stroke:none;fill:#cccccc;"/>
<rect x="86.700000" y="60.000000" width="129.000000" height="24.000000" rx="0" ry="0" style="stroke:none;fill:#003366;"/>
</a>
<a xlink:href="envelope-0x6001343cf600.svg">
<text x="151.200000" y="74.000000" font-family="Arial" font-size="7" text-anchor="middle" fill="#FFFFFF">envelope(0.40000000000000002f)</text>
</a>
<circle cx="88.700000" cy="62.000000" r="1"/>
<line x1="83.700000" y1="71.000000" x2="86.700000" y2="72.000000"  transform="rotate(0.000000,86.700000,72.000000)" style="stroke: black; stroke-width:0.25;"/>
<line x1="83.700000" y1="73.000000" x2="86.700000" y2="72.000000"  transform="rotate(0.000000,86.700000,72.000000)" style="stroke: black; stroke-width:0.25;"/>
<rect x="288.250000" y="25.000000" width="38.700000" height="24.000000" rx="0" ry="0" style="stroke:none;fill:#cccccc;"/>
<rect x="287.250000" y="24.000000" width="38.700000" height="24.000000" rx="0" ry="0" style="stroke:none;fill:#f44800;"/>
<text x="306.600000" y="38.000000" font-family="Arial" font-size="7" text-anchor="middle" fill="#FFFFFF">4.34294</text>
<circle cx="289.250000" cy="26.000000" r="1"/>
<rect x="258.700000" y="57.000000" width="25.800000" height="24.000000" rx="0" ry="0" style="stroke:none;fill:#cccccc;"/>
<rect x="257.700000" y="56.000000" width="25.800000" height="24.000000" rx="0" ry="0" style="stroke:none;fill:#f44800;"/>
<text x="270.600000" y="70.000000" font-family="Arial" font-size="7" text-anchor="middle" fill="#FFFFFF">1e-12</text>
<circle cx="259.700000" cy="58.000000" r="1"/>
<rect x="300.500000" y="61.000000" width="24.000000" height="24.000000" rx="0" ry="0" style="stroke:none;fill:#cccccc;"/>
<rect x="299.500000" y="60.000000" width="24.000000" height="24.000000" rx="0" ry="0" style="stroke:none;fill:#4B71A1;"/>
<text x="311.500000" y="74.000000" font-family="Arial" font-size="7" text-anchor="middle" fill="#FFFFFF">max</text>
<circle cx="301.500000" cy="62.000000" r="1"/>
<line x1="296.500000" y1="67.000000" x2="299.500000" y2="68.000000"  transform="rotate(0.000000,299.500000,68.000000)" style="stroke: black; stroke-width:0.25;"/>
<line x1="296.500000" y1="69.000000" x2="299.500000" y2="68.000000"  transform="rotate(0.000000,299.500000,68.000000)" style="stroke: black; stroke-width:0.25;"/>
<line x1="296.500000" y1="75.000000" x2="299.500000" y2="76.000000"  transform="rotate(0.000000,299.500000,76.000000)" style="stroke: black; stroke-width:0.25;"/>
<line x1="296.500000" y1="77.000000" x2="299.500000" y2="76.000000"  transform="rotate(0.000000,299.500000,76.000000)" style="stroke: black; stroke-width:0.25;"/>
<rect x="332.500000" y="61.000000" width="24.000000" height="24.000000" rx="0" ry="0" style="stroke:none;fill:#cccccc;"/>
<rect x="331.500000" y="60.000000" width="24.000000" height="24.000000" rx="0" ry="0" style="stroke:none;fill:#4B71A1;"/>
<text x="343.500000" y="74.000000" font-family="Arial" font-size="7" text-anchor="middle" fill="#FFFFFF">log</text>
<circle cx="333.500000" cy="62.000000" r="1"/>
<line x1="328.500000" y1="71.000000" x2="331.500000" y2="72.000000"  transform="rotate(0.000000,331.500000,72.000000)" style="stroke: black; stroke-width:0.25;"/>
<line x1="328.500000" y1="73.000000" x2="331.500000" y2="72.000000"  transform="rotate(0.000000,331.500000,72.000000)" style="stroke: black; stroke-width:0.25;"/>
<rect x="372.500000" y="45.000000" width="24.000000" height="24.000000" rx="0" ry="0" style="stroke:none;fill:#cccccc;"/>
<rect x="371.500000" y="44.000000" width="24.000000" height="24.000000" rx="0" ry="0" style="stroke:none;fill:#4B71A1;"/>
<text x="383.500000" y="58.000000" font-family="Arial" font-size="7" text-anchor="middle" fill="#FFFFFF">*</text>
<circle cx="373.500000" cy="46.000000" r="1"/>
<line x1="368.500000" y1="51.000000" x2="371.500000" y2="52.000000"  transform="rotate(0.000000,371.500000,52.000000)" style="stroke: black; stroke-width:0.25;"/>
<line x1="368.500000" y1="53.000000" x2="371.500000" y2="52.000000"  transform="rotate(0.000000,371.500000,52.000000)" style="stroke: black; stroke-width:0.25;"/>
<line x1="368.500000" y1="59.000000" x2="371.500000" y2="60.000000"  transform="rotate(0.000000,371.500000,60.000000)" style="stroke: black; stroke-width:0.25;"/>
<line x1="368.500000" y1="61.000000" x2="371.500000" y2="60.000000"  transform="rotate(0.000000,371.500000,60.000000)" style="stroke: black; stroke-width:0.25;"/>
<rect x="412.500000" y="49.000000" width="25.800000" height="24.000000" rx="0" ry="0" style="stroke:none;fill:#cccccc;"/>
<rect x="411.500000" y="48.000000" width="25.800000" height="24.000000" rx="0" ry="0" style="stroke:none;fill:#f44800;"/>
<text x="424.400000" y="62.000000" font-family="Arial" font-size="7" text-anchor="middle" fill="#FFFFFF">0.691</text>
<circle cx="413.500000" cy="50.000000" r="1"/>
<rect x="454.300000" y="45.000000" width="24.000000" height="24.000000" rx="0" ry="0" style="stroke:none;fill:#cccccc;"/>
<rect x="453.300000" y="44.000000" width="24.000000" height="24.000000" rx="0" ry="0" style="stroke:none;fill:#4B71A1;"/>
<text x="465.300000" y="58.000000" font-family="Arial" font-size="7" text-anchor="middle" fill="#FFFFFF">-</text>
<circle cx="455.300000" cy="46.000000" r="1"/>
<line x1="450.300000" y1="51.000000" x2="453.300000" y2="52.000000"  transform="rotate(0.000000,453.300000,52.000000)" style="stroke: black; stroke-width:0.25;"/>
<line x1="450.300000" y1="53.000000" x2="453.300000" y2="52.000000"  transform="rotate(0.000000,453.300000,52.000000)" style="stroke: black; stroke-width:0.25;"/>
<line x1="450.300000" y1="59.000000" x2="453.300000" y2="60.000000"  transform="rotate(0.000000,453.300000,60.000000)" style="stroke: black; stroke-width:0.25;"/>
<line x1="450.300000" y1="61.000000" x2="453.300000" y2="60.000000"  transform="rotate(0.000000,453.300000,60.000000)" style="stroke: black; stroke-width:0.25;"/>
<line x1="15.000000" y1="15.000000" x2="15.000000" y2="97.000000"  style="stroke: black; stroke-linecap:round; stroke-width:0.25; stroke-dasharray:3,3;"/>
<line x1="15.000000" y1="97.000000" x2="494.300000" y2="97.000000"  style="stroke: black; stroke-linecap:round; stroke-width:0.25; stroke-dasharray:3,3;"/>
<line x1="494.300000" y1="97.000000" x2="494.300000" y2="15.000000"  style="stroke: black; stroke-linecap:round; stroke-width:0.25; stroke-dasharray:3,3;"/>
<line x1="15.000000" y1="15.000000" x2="20.000000" y2="15.000000"  style="stroke: black; stroke-linecap:round; stroke-width:0.25; stroke-dasharray:3,3;"/>
<line x1="119.975000" y1="15.000000" x2="494.300000" y2="15.000000"  style="stroke: black; stroke-linecap:round; stroke-width:0.25; stroke-dasharray:3,3;"/>
<text x="20.000000" y="17.000000" font-family="Arial" font-size="7">lk2_var(0.40000000000000002f)</text>
<line x1="496.300000" y1="55.000000" x2="499.300000" y2="56.000000"  transform="rotate(0.000000,499.300000,56.000000)" style="stroke: black; stroke-width:0.25;"/>
<line x1="496.300000" y1="57.000000" x2="499.300000" y2="56.000000"  transform="rotate(0.000000,499.300000,56.000000)" style="stroke: black; stroke-width:0.25;"/>
<line x1="10.000000" y1="52.000000" x2="20.000000" y2="52.000000"  style="stroke:black; stroke-linecap:round; stroke-width:0.25;"/>
<line x1="10.000000" y1="60.000000" x2="20.000000" y2="60.000000"  style="stroke:black; stroke-linecap:round; stroke-width:0.25;"/>
<line x1="20.000000" y1="52.000000" x2="24.000000" y2="52.000000"  style="stroke:black; stroke-linecap:round; stroke-width:0.25;"/>
<line x1="20.000000" y1="60.000000" x2="24.000000" y2="60.000000"  style="stroke:black; stroke-linecap:round; stroke-width:0.25;"/>
<line x1="24.000000" y1="52.000000" x2="28.000000" y2="52.000000"  style="stroke:black; stroke-linecap:round; stroke-width:0.25;"/>
<line x1="24.000000" y1="60.000000" x2="28.000000" y2="60.000000"  style="stroke:black; stroke-linecap:round; stroke-width:0.25;"/>
<line x1="28.000000" y1="40.000000" x2="36.000000" y2="40.000000"  style="stroke:black; stroke-linecap:round; stroke-width:0.25;"/>
<line x1="28.000000" y1="52.000000" x2="28.000000" y2="40.000000"  style="stroke:black; stroke-linecap:round; stroke-width:0.25;"/>
<line x1="28.000000" y1="52.000000" x2="28.000000" y2="52.000000"  style="stroke:black; stroke-linecap:round; stroke-width:0.25;"/>
<line x1="28.000000" y1="60.000000" x2="36.000000" y2="60.000000"  style="stroke:black; stroke-linecap:round; stroke-width:0.25;"/>
<line x1="36.000000" y1="40.000000" x2="40.000000" y2="40.000000"  style="stroke:black; stroke-linecap:round; stroke-width:0.25;"/>
<line x1="36.000000" y1="60.000000" x2="36.000000" y2="72.000000"  style="stroke:black; stroke-linecap:round; stroke-width:0.25;"/>
<line x1="36.000000" y1="72.000000" x2="36.000000" y2="72.000000"  style="stroke:black; stroke-linecap:round; stroke-width:0.25;"/>
<line x1="36.000000" y1="72.000000" x2="40.000000" y2="72.000000"  style="stroke:black; stroke-linecap:round; stroke-width:0.25;"/>
<line x1="78.700000" y1="40.000000" x2="82.700000" y2="40.000000"  style="stroke:black; stroke-linecap:round; stroke-width:0.25;"/>
<line x1="78.700000" y1="72.000000" x2="82.700000" y2="72.000000"  style="stroke:black; stroke-linecap:round; stroke-width:0.25;"/>
<line x1="82.700000" y1="40.000000" x2="82.700000" y2="40.000000"  style="stroke:black; stroke-linecap:round; stroke-width:0.25;"/>
<line x1="82.700000" y1="40.000000" x2="86.700000" y2="40.000000"  style="stroke:black; stroke-linecap:round; stroke-width:0.25;"/>
<line x1="82.700000" y1="72.000000" x2="82.700000" y2="72.000000"  style="stroke:black; stroke-linecap:round; stroke-width:0.25;"/>
<line x1="82.700000" y1="72.000000" x2="86.700000" y2="72.000000"  style="stroke:black; stroke-linecap:round; stroke-width:0.25;"/>
<line x1="215.700000" y1="40.000000" x2="219.700000" y2="40.000000"  style="stroke:black; stroke-linecap:round; stroke-width:0.25;"/>
<line x1="215.700000" y1="72.000000" x2="219.700000" y2="72.000000"  style="stroke:black; stroke-linecap:round; stroke-width:0.25;"/>
<line x1="219.700000" y1="40.000000" x2="253.700000" y2="88.000000"  style="stroke:black; stroke-linecap:round; stroke-width:0.25;"/>
<line x1="219.700000" y1="72.000000" x2="253.700000" y2="88.000000"  style="stroke:black; stroke-linecap:round; stroke-width:0.25;"/>
<line x1="253.700000" y1="88.000000" x2="270.600000" y2="88.000000"  style="stroke:black; stroke-linecap:round; stroke-width:0.25;"/>
<line x1="270.600000" y1="88.000000" x2="287.500000" y2="88.000000"  style="stroke:black; stroke-linecap:round; stroke-width:0.25;"/>
<line x1="283.500000" y1="68.000000" x2="287.500000" y2="68.000000"  style="stroke:black; stroke-linecap:round; stroke-width:0.25;"/>
<line x1="287.500000" y1="76.000000" x2="295.500000" y2="76.000000"  style="stroke:black; stroke-linecap:round; stroke-width:0.25;"/>
<line x1="287.500000" y1="88.000000" x2="287.500000" y2="76.000000"  style="stroke:black; stroke-linecap:round; stroke-width:0.25;"/>
<line x1="287.500000" y1="88.000000" x2="287.500000" y2="88.000000"  style="stroke:black; stroke-linecap:round; stroke-width:0.25;"/>
<line x1="287.500000" y1="68.000000" x2="295.500000" y2="68.000000"  style="stroke:black; stroke-linecap:round; stroke-width:0.25;"/>
<line x1="295.500000" y1="68.000000" x2="299.500000" y2="68.000000"  style="stroke:black; stroke-linecap:round; stroke-width:0.25;"/>
<line x1="295.500000" y1="76.000000" x2="299.500000" y2="76.000000"  style="stroke:black; stroke-linecap:round; stroke-width:0.25;"/>
<line x1="323.500000" y1="72.000000" x2="327.500000" y2="72.000000"  style="stroke:black; stroke-linecap:round; stroke-width:0.25;"/>
<line x1="325.950000" y1="36.000000" x2="329.950000" y2="36.000000"  style="stroke:black; stroke-linecap:round; stroke-width:0.25;"/>
<line x1="327.500000" y1="72.000000" x2="327.500000" y2="72.000000"  style="stroke:black; stroke-linecap:round; stroke-width:0.25;"/>
<line x1="327.500000" y1="72.000000" x2="331.500000" y2="72.000000"  style="stroke:black; stroke-linecap:round; stroke-width:0.25;"/>
<line x1="329.950000" y1="36.000000" x2="359.500000" y2="36.000000"  style="stroke:black; stroke-linecap:round; stroke-width:0.25;"/>
<line x1="355.500000" y1="72.000000" x2="359.500000" y2="72.000000"  style="stroke:black; stroke-linecap:round; stroke-width:0.25;"/>
<line x1="359.500000" y1="36.000000" x2="367.500000" y2="36.000000"  style="stroke:black; stroke-linecap:round; stroke-width:0.25;"/>
<line x1="359.500000" y1="60.000000" x2="367.500000" y2="60.000000"  style="stroke:black; stroke-linecap:round; stroke-width:0.25;"/>
<line x1="359.500000" y1="72.000000" x2="359.500000" y2="60.000000"  style="stroke:black; stroke-linecap:round; stroke-width:0.25;"/>
<line x1="359.500000" y1="72.000000" x2="359.500000" y2="72.000000"  style="stroke:black; stroke-linecap:round; stroke-width:0.25;"/>
<line x1="367.500000" y1="36.000000" x2="367.500000" y2="52.000000"  style="stroke:black; stroke-linecap:round; stroke-width:0.25;"/>
<line x1="367.500000" y1="52.000000" x2="367.500000" y2="52.000000"  style="stroke:black; stroke-linecap:round; stroke-width:0.25;"/>
<line x1="367.500000" y1="52.000000" x2="371.500000" y2="52.000000"  style="stroke:black; stroke-linecap:round; stroke-width:0.25;"/>
<line x1="367.500000" y1="60.000000" x2="371.500000" y2="60.000000"  style="stroke:black; stroke-linecap:round; stroke-width:0.25;"/>
<line x1="395.500000" y1="56.000000" x2="399.500000" y2="56.000000"  style="stroke:black; stroke-linecap:round; stroke-width:0.25;"/>
<line x1="399.500000" y1="40.000000" x2="407.500000" y2="40.000000"  style="stroke:black; stroke-linecap:round; stroke-width:0.25;"/>
<line x1="399.500000" y1="56.000000" x2="399.500000" y2="40.000000"  style="stroke:black; stroke-linecap:round; stroke-width:0.25;"/>
<line x1="399.500000" y1="56.000000" x2="399.500000" y2="56.000000"  style="stroke:black; stroke-linecap:round; stroke-width:0.25;"/>
<line x1="407.500000" y1="40.000000" x2="424.400000" y2="40.000000"  style="stroke:black; stroke-linecap:round; stroke-width:0.25;"/>
<line x1="424.400000" y1="40.000000" x2="441.300000" y2="40.000000"  style="stroke:black; stroke-linecap:round; stroke-width:0.25;"/>
<line x1="437.300000" y1="60.000000" x2="441.300000" y2="60.000000"  style="stroke:black; stroke-linecap:round; stroke-width:0.25;"/>
<line x1="441.300000" y1="40.000000" x2="449.300000" y2="40.000000"  style="stroke:black; stroke-linecap:round; stroke-width:0.25;"/>
<line x1="441.300000" y1="60.000000" x2="449.300000" y2="60.000000"  style="stroke:black; stroke-linecap:round; stroke-width:0.25;"/>
<line x1="449.300000" y1="40.000000" x2="449.300000" y2="52.000000"  style="stroke:black; stroke-linecap:round; stroke-width:0.25;"/>
<line x1="449.300000" y1="52.000000" x2="449.300000" y2="52.000000"  style="stroke:black; stroke-linecap:round; stroke-width:0.25;"/>
<line x1="449.300000" y1="52.000000" x2="453.300000" y2="52.000000"  style="stroke:black; stroke-linecap:round; stroke-width:0.25;"/>
<line x1="449.300000" y1="60.000000" x2="453.300000" y2="60.000000"  style="stroke:black; stroke-linecap:round; stroke-width:0.25;"/>
<line x1="477.300000" y1="56.000000" x2="481.300000" y2="56.000000"  style="stroke:black; stroke-linecap:round; stroke-width:0.25;"/>
<line x1="481.300000" y1="56.000000" x2="481.300000" y2="56.000000"  style="stroke:black; stroke-linecap:round; stroke-width:0.25;"/>
<line x1="481.300000" y1="56.000000" x2="485.300000" y2="56.000000"  style="stroke:black; stroke-linecap:round; stroke-width:0.25;"/>
<line x1="485.300000" y1="56.000000" x2="489.300000" y2="56.000000"  style="stroke:black; stroke-linecap:round; stroke-width:0.25;"/>
<line x1="489.300000" y1="56.000000" x2="499.300000" y2="56.000000"  style="stroke:black; stroke-linecap:round; stroke-width:0.25;"/>
</svg>
