<?xml version="1.0"?>
<svg xmlns="http://www.w3.org/2000/svg" xmlns:xlink="http://www.w3.org/1999/xlink" viewBox="0 0 404.300000 112.000000" width="202.150000mm" height="56.000000mm" version="1.1">
<a xlink:href="lufs-0x60015018c5a0.svg">
<rect x="1.000000" y="1.000000" width="403.300000" height="111.000000" rx="0" ry="0" style="stroke:none;fill:#cccccc;"/>
<rect x="0.000000" y="0.000000" width="403.300000" height="111.000000" rx="0" ry="0" style="stroke:none;fill:#ffffff;"/>
</a>
<text x="10.000000" y="7.000000" font-family="Arial" font-size="7"></text>
<a xlink:href="kfilter-0x60002c38ebe0.svg">
<rect x="41.000000" y="29.000000" width="38.700000" height="24.000000" rx="0" ry="0" style="stroke:none;fill:#cccccc;"/>
<rect x="40.000000" y="28.000000" width="38.700000" height="24.000000" rx="0" ry="0" style="stroke:none;fill:#003366;"/>
</a>
<a xlink:href="kfilter-0x60002c38ebe0.svg">
<text x="59.350000" y="42.000000" font-family="Arial" font-size="7" text-anchor="middle" fill="#FFFFFF">kfilter</text>
</a>
<circle cx="42.000000" cy="30.000000" r="1"/>
<line x1="37.000000" y1="39.000000" x2="40.000000" y2="40.000000"  transform="rotate(0.000000,40.000000,40.000000)" style="stroke: black; stroke-width:0.25;"/>
<line x1="37.000000" y1="41.000000" x2="40.000000" y2="40.000000"  transform="rotate(0.000000,40.000000,40.000000)" style="stroke: black; stroke-width:0.25;"/>
<a xlink:href="zi-0x6000381a5170.svg">
<rect x="87.700000" y="29.000000" width="24.000000" height="24.000000" rx="0" ry="0" style="stroke:none;fill:#cccccc;"/>
<rect x="86.700000" y="28.000000" width="24.000000" height="24.000000" rx="0" ry="0" style="stroke:none;fill:#003366;"/>
</a>
<a xlink:href="zi-0x6000381a5170.svg">
<text x="98.700000" y="42.000000" font-family="Arial" font-size="7" text-anchor="middle" fill="#FFFFFF">zi</text>
</a>
<circle cx="88.700000" cy="30.000000" r="1"/>
<line x1="83.700000" y1="39.000000" x2="86.700000" y2="40.000000"  transform="rotate(0.000000,86.700000,40.000000)" style="stroke: black; stroke-width:0.25;"/>
<line x1="83.700000" y1="41.000000" x2="86.700000" y2="40.000000"  transform="rotate(0.000000,86.700000,40.000000)" style="stroke: black; stroke-width:0.25;"/>
<a xlink:href="kfilter-0x60002c38ebe0.svg">
<rect x="41.000000" y="61.000000" width="38.700000" height="24.000000" rx="0" ry="0" style="stroke:none;fill:#cccccc;"/>
<rect x="40.000000" y="60.000000" width="38.700000" height="24.000000" rx="0" ry="0" style="stroke:none;fill:#003366;"/>
</a>
<a xlink:href="kfilter-0x60002c38ebe0.svg">
<text x="59.350000" y="74.000000" font-family="Arial" font-size="7" text-anchor="middle" fill="#FFFFFF">kfilter</text>
</a>
<circle cx="42.000000" cy="62.000000" r="1"/>
<line x1="37.000000" y1="71.000000" x2="40.000000" y2="72.000000"  transform="rotate(0.000000,40.000000,72.000000)" style="stroke: black; stroke-width:0.25;"/>
<line x1="37.000000" y1="73.000000" x2="40.000000" y2="72.000000"  transform="rotate(0.000000,40.000000,72.000000)" style="stroke: black; stroke-width:0.25;"/>
<a xlink:href="zi-0x6000381a5170.svg">
<rect x="87.700000" y="61.000000" width="24.000000" height="24.000000" rx="0" ry="0" style="stroke:none;fill:#cccccc;"/>
<rect x="86.700000" y="60.000000" width="24.000000" height="24.000000" rx="0" ry="0" style="stroke:none;fill:#003366;"/>
</a>
<a xlink:href="zi-0x6000381a5170.svg">
<text x="98.700000" y="74.000000" font-family="Arial" font-size="7" text-anchor="middle" fill="#FFFFFF">zi</text>
</a>
<circle cx="88.700000" cy="62.000000" r="1"/>
<line x1="83.700000" y1="71.000000" x2="86.700000" y2="72.000000"  transform="rotate(0.000000,86.700000,72.000000)" style="stroke: black; stroke-width:0.25;"/>
<line x1="83.700000" y1="73.000000" x2="86.700000" y2="72.000000"  transform="rotate(0.000000,86.700000,72.000000)" style="stroke: black; stroke-width:0.25;"/>
<rect x="183.250000" y="25.000000" width="38.700000" height="24.000000" rx="0" ry="0" style="stroke:none;fill:#cccccc;"/>
<rect x="182.250000" y="24.000000" width="38.700000" height="24.000000" rx="0" ry="0" style="stroke:none;fill:#f44800;"/>
<text x="201.600000" y="38.000000" font-family="Arial" font-size="7" text-anchor="middle" fill="#FFFFFF">4.34294</text>
<circle cx="184.250000" cy="26.000000" r="1"/>
<rect x="153.700000" y="57.000000" width="25.800000" height="24.000000" rx="0" ry="0" style="stroke:none;fill:#cccccc;"/>
<rect x="152.700000" y="56.000000" width="25.800000" height="24.000000" rx="0" ry="0" style="stroke:none;fill:#f44800;"/>
<text x="165.600000" y="70.000000" font-family="Arial" font-size="7" text-anchor="middle" fill="#FFFFFF">1e-12</text>
<circle cx="154.700000" cy="58.000000" r="1"/>
<rect x="195.500000" y="61.000000" width="24.000000" height="24.000000" rx="0" ry="0" style="stroke:none;fill:#cccccc;"/>
<rect x="194.500000" y="60.000000" width="24.000000" height="24.000000" rx="0" ry="0" style="stroke:none;fill:#4B71A1;"/>
<text x="206.500000" y="74.000000" font-family="Arial" font-size="7" text-anchor="middle" fill="#FFFFFF">max</text>
<circle cx="196.500000" cy="62.000000" r="1"/>
<line x1="191.500000" y1="67.000000" x2="194.500000" y2="68.000000"  transform="rotate(0.000000,194.500000,68.000000)" style="stroke: black; stroke-width:0.25;"/>
<line x1="191.500000" y1="69.000000" x2="194.500000" y2="68.000000"  transform="rotate(0.000000,194.500000,68.000000)" style="stroke: black; stroke-width:0.25;"/>
<line x1="191.500000" y1="75.000000" x2="194.500000" y2="76.000000"  transform="rotate(0.000000,194.500000,76.000000)" style="stroke: black; stroke-width:0.25;"/>
<line x1="191.500000" y1="77.000000" x2="194.500000" y2="76.000000"  transform="rotate(0.000000,194.500000,76.000000)" style="stroke: black; stroke-width:0.25;"/>
<rect x="227.500000" y="61.000000" width="24.000000" height="24.000000" rx="0" ry="0" style="stroke:none;fill:#cccccc;"/>
<rect x="226.500000" y="60.000000" width="24.000000" height="24.000000" rx="0" ry="0" style="stroke:none;fill:#4B71A1;"/>
<text x="238.500000" y="74.000000" font-family="Arial" font-size="7" text-anchor="middle" fill="#FFFFFF">log</text>
<circle cx="228.500000" cy="62.000000" r="1"/>
<line x1="223.500000" y1="71.000000" x2="226.500000" y2="72.000000"  transform="rotate(0.000000,226.500000,72.000000)" style="stroke: black; stroke-width:0.25;"/>
<line x1="223.500000" y1="73.000000" x2="226.500000" y2="72.000000"  transform="rotate(0.000000,226.500000,72.000000)" style="stroke: black; stroke-width:0.25;"/>
<rect x="267.500000" y="45.000000" width="24.000000" height="24.000000" rx="0" ry="0" style="stroke:none;fill:#cccccc;"/>
<rect x="266.500000" y="44.000000" width="24.000000" height="24.000000" rx="0" ry="0" style="stroke:none;fill:#4B71A1;"/>
<text x="278.500000" y="58.000000" font-family="Arial" font-size="7" text-anchor="middle" fill="#FFFFFF">*</text>
<circle cx="268.500000" cy="46.000000" r="1"/>
<line x1="263.500000" y1="51.000000" x2="266.500000" y2="52.000000"  transform="rotate(0.000000,266.500000,52.000000)" style="stroke: black; stroke-width:0.25;"/>
<line x1="263.500000" y1="53.000000" x2="266.500000" y2="52.000000"  transform="rotate(0.000000,266.500000,52.000000)" style="stroke: black; stroke-width:0.25;"/>
<line x1="263.500000" y1="59.000000" x2="266.500000" y2="60.000000"  transform="rotate(0.000000,266.500000,60.000000)" style="stroke: black; stroke-width:0.25;"/>
<line x1="263.500000" y1="61.000000" x2="266.500000" y2="60.000000"  transform="rotate(0.000000,266.500000,60.000000)" style="stroke: black; stroke-width:0.25;"/>
<rect x="307.500000" y="49.000000" width="25.800000" height="24.000000" rx="0" ry="0" style="stroke:none;fill:#cccccc;"/>
<rect x="306.500000" y="48.000000" width="25.800000" height="24.000000" rx="0" ry="0" style="stroke:none;fill:#f44800;"/>
<text x="319.400000" y="62.000000" font-family="Arial" font-size="7" text-anchor="middle" fill="#FFFFFF">0.691</text>
<circle cx="308.500000" cy="50.000000" r="1"/>
<rect x="349.300000" y="45.000000" width="24.000000" height="24.000000" rx="0" ry="0" style="stroke:none;fill:#cccccc;"/>
<rect x="348.300000" y="44.000000" width="24.000000" height="24.000000" rx="0" ry="0" style="stroke:none;fill:#4B71A1;"/>
<text x="360.300000" y="58.000000" font-family="Arial" font-size="7" text-anchor="middle" fill="#FFFFFF">-</text>
<circle cx="350.300000" cy="46.000000" r="1"/>
<line x1="345.300000" y1="51.000000" x2="348.300000" y2="52.000000"  transform="rotate(0.000000,348.300000,52.000000)" style="stroke: black; stroke-width:0.25;"/>
<line x1="345.300000" y1="53.000000" x2="348.300000" y2="52.000000"  transform="rotate(0.000000,348.300000,52.000000)" style="stroke: black; stroke-width:0.25;"/>
<line x1="345.300000" y1="59.000000" x2="348.300000" y2="60.000000"  transform="rotate(0.000000,348.300000,60.000000)" style="stroke: black; stroke-width:0.25;"/>
<line x1="345.300000" y1="61.000000" x2="348.300000" y2="60.000000"  transform="rotate(0.000000,348.300000,60.000000)" style="stroke: black; stroke-width:0.25;"/>
<line x1="15.000000" y1="15.000000" x2="15.000000" y2="97.000000"  style="stroke: black; stroke-linecap:round; stroke-width:0.25; stroke-dasharray:3,3;"/>
<line x1="15.000000" y1="97.000000" x2="389.300000" y2="97.000000"  style="stroke: black; stroke-linecap:round; stroke-width:0.25; stroke-dasharray:3,3;"/>
<line x1="389.300000" y1="97.000000" x2="389.300000" y2="15.000000"  style="stroke: black; stroke-linecap:round; stroke-width:0.25; stroke-dasharray:3,3;"/>
<line x1="15.000000" y1="15.000000" x2="20.000000" y2="15.000000"  style="stroke: black; stroke-linecap:round; stroke-width:0.25; stroke-dasharray:3,3;"/>
<line x1="36.125000" y1="15.000000" x2="389.300000" y2="15.000000"  style="stroke: black; stroke-linecap:round; stroke-width:0.25; stroke-dasharray:3,3;"/>
<text x="20.000000" y="17.000000" font-family="Arial" font-size="7">lk2</text>
<line x1="391.300000" y1="55.000000" x2="394.300000" y2="56.000000"  transform="rotate(0.000000,394.300000,56.000000)" style="stroke: black; stroke-width:0.25;"/>
<line x1="391.300000" y1="57.000000" x2="394.300000" y2="56.000000"  transform="rotate(0.000000,394.300000,56.000000)" style="stroke: black; stroke-width:0.25;"/>
<line x1="10.000000" y1="52.000000" x2="20.000000" y2="52.000000"  style="stroke:black; stroke-linecap:round; stroke-width:0.25;"/>
<line x1="10.000000" y1="60.000000" x2="20.000000" y2="60.000000"  style="stroke:black; stroke-linecap:round; stroke-width:0.25;"/>
<line x1="20.000000" y1="52.000000" x2="24.000000" y2="52.000000"  style="stroke:black; stroke-linecap:round; stroke-width:0.25;"/>
<line x1="20.000000" y1="60.000000" x2="24.000000" y2="60.000000"  style="stroke:black; stroke-linecap:round; stroke-width:0.25;"/>
<line x1="24.000000" y1="52.000000" x2="28.000000" y2="52.000000"  style="stroke:black; stroke-linecap:round; stroke-width:0.25;"/>
<line x1="24.000000" y1="60.000000" x2="28.000000" y2="60.000000"  style="stroke:black; stroke-linecap:round; stroke-width:0.25;"/>
<line x1="28.000000" y1="40.000000" x2="36.000000" y2="40.000000"  style="stroke:black; stroke-linecap:round; stroke-width:0.25;"/>
<line x1="28.000000" y1="52.000000" x2="28.000000" y2="40.000000"  style="stroke:black; stroke-linecap:round; stroke-width:0.25;"/>
<line x1="28.000000" y1="52.000000" x2="28.000000" y2="52.000000"  style="stroke:black; stroke-linecap:round; stroke-width:0.25;"/>
<line x1="28.000000" y1="60.000000" x2="36.000000" y2="60.000000"  style="stroke:black; stroke-linecap:round; stroke-width:0.25;"/>
<line x1="36.000000" y1="40.000000" x2="40.000000" y2="40.000000"  style="stroke:black; stroke-linecap:round; stroke-width:0.25;"/>
<line x1="36.000000" y1="60.000000" x2="36.000000" y2="72.000000"  style="stroke:black; stroke-linecap:round; stroke-width:0.25;"/>
<line x1="36.000000" y1="72.000000" x2="36.000000" y2="72.000000"  style="stroke:black; stroke-linecap:round; stroke-width:0.25;"/>
<line x1="36.000000" y1="72.000000" x2="40.000000" y2="72.000000"  style="stroke:black; stroke-linecap:round; stroke-width:0.25;"/>
<line x1="78.700000" y1="40.000000" x2="82.700000" y2="40.000000"  style="stroke:black; stroke-linecap:round; stroke-width:0.25;"/>
<line x1="78.700000" y1="72.000000" x2="82.700000" y2="72.000000"  style="stroke:black; stroke-linecap:round; stroke-width:0.25;"/>
<line x1="82.700000" y1="40.000000" x2="82.700000" y2="40.000000"  style="stroke:black; stroke-linecap:round; stroke-width:0.25;"/>
<line x1="82.700000" y1="40.000000" x2="86.700000" y2="40.000000"  style="stroke:black; stroke-linecap:round; stroke-width:0.25;"/>
<line x1="82.700000" y1="72.000000" x2="82.700000" y2="72.000000"  style="stroke:black; stroke-linecap:round; stroke-width:0.25;"/>
<line x1="82.700000" y1="72.000000" x2="86.700000" y2="72.000000"  style="stroke:black; stroke-linecap:round; stroke-width:0.25;"/>
<line x1="110.700000" y1="40.000000" x2="114.700000" y2="40.000000"  style="stroke:black; stroke-linecap:round; stroke-width:0.25;"/>
<line x1="110.700000" y1="72.000000" x2="114.700000" y2="72.000000"  style="stroke:black; stroke-linecap:round; stroke-width:0.25;"/>
<line x1="114.700000" y1="40.000000" x2="148.700000" y2="88.000000"  style="stroke:black; stroke-linecap:round; stroke-width:0.25;"/>
<line x1="114.700000" y1="72.000000" x2="148.700000" y2="88.000000"  style="stroke:black; stroke-linecap:round; stroke-width:0.25;"/>
<line x1="148.700000" y1="88.000000" x2="165.600000" y2="88.000000"  style="stroke:black; stroke-linecap:round; stroke-width:0.25;"/>
<line x1="165.600000" y1="88.000000" x2="182.500000" y2="88.000000"  style="stroke:black; stroke-linecap:round; stroke-width:0.25;"/>
<line x1="178.500000" y1="68.000000" x2="182.500000" y2="68.000000"  style="stroke:black; stroke-linecap:round; stroke-width:0.25;"/>
<line x1="182.500000" y1="68.000000" x2="190.500000" y2="68.000000"  style="stroke:black; stroke-linecap:round; stroke-width:0.25;"/>
<line x1="182.500000" y1="76.000000" x2="190.500000" y2="76.000000"  style="stroke:black; stroke-linecap:round; stroke-width:0.25;"/>
<line x1="182.500000" y1="88.000000" x2="182.500000" y2="76.000000"  style="stroke:black; stroke-linecap:round; stroke-width:0.25;"/>
<line x1="182.500000" y1="88.000000" x2="182.500000" y2="88.000000"  style="stroke:black; stroke-linecap:round; stroke-width:0.25;"/>
<line x1="190.500000" y1="68.000000" x2="194.500000" y2="68.000000"  style="stroke:black; stroke-linecap:round; stroke-width:0.25;"/>
<line x1="190.500000" y1="76.000000" x2="194.500000" y2="76.000000"  style="stroke:black; stroke-linecap:round; stroke-width:0.25;"/>
<line x1="218.500000" y1="72.000000" x2="222.500000" y2="72.000000"  style="stroke:black; stroke-linecap:round; stroke-width:0.25;"/>
<line x1="220.950000" y1="36.000000" x2="224.950000" y2="36.000000"  style="stroke:black; stroke-linecap:round; stroke-width:0.25;"/>
<line x1="222.500000" y1="72.000000" x2="222.500000" y2="72.000000"  style="stroke:black; stroke-linecap:round; stroke-width:0.25;"/>
<line x1="222.500000" y1="72.000000" x2="226.500000" y2="72.000000"  style="stroke:black; stroke-linecap:round; stroke-width:0.25;"/>
<line x1="224.950000" y1="36.000000" x2="254.500000" y2="36.000000"  style="stroke:black; stroke-linecap:round; stroke-width:0.25;"/>
<line x1="250.500000" y1="72.000000" x2="254.500000" y2="72.000000"  style="stroke:black; stroke-linecap:round; stroke-width:0.25;"/>
<line x1="254.500000" y1="36.000000" x2="262.500000" y2="36.000000"  style="stroke:black; stroke-linecap:round; stroke-width:0.25;"/>
<line x1="254.500000" y1="60.000000" x2="262.500000" y2="60.000000"  style="stroke:black; stroke-linecap:round; stroke-width:0.25;"/>
<line x1="254.500000" y1="72.000000" x2="254.500000" y2="60.000000"  style="stroke:black; stroke-linecap:round; stroke-width:0.25;"/>
<line x1="254.500000" y1="72.000000" x2="254.500000" y2="72.000000"  style="stroke:black; stroke-linecap:round; stroke-width:0.25;"/>
<line x1="262.500000" y1="36.000000" x2="262.500000" y2="52.000000"  style="stroke:black; stroke-linecap:round; stroke-width:0.25;"/>
<line x1="262.500000" y1="52.000000" x2="262.500000" y2="52.000000"  style="stroke:black; stroke-linecap:round; stroke-width:0.25;"/>
<line x1="262.500000" y1="52.000000" x2="266.500000" y2="52.000000"  style="stroke:black; stroke-linecap:round; stroke-width:0.25;"/>
<line x1="262.500000" y1="60.000000" x2="266.500000" y2="60.000000"  style="stroke:black; stroke-linecap:round; stroke-width:0.25;"/>
<line x1="290.500000" y1="56.000000" x2="294.500000" y2="56.000000"  style="stroke:black; stroke-linecap:round; stroke-width:0.25;"/>
<line x1="294.500000" y1="40.000000" x2="302.500000" y2="40.000000"  style="stroke:black; stroke-linecap:round; stroke-width:0.25;"/>
<line x1="294.500000" y1="56.000000" x2="294.500000" y2="40.000000"  style="stroke:black; stroke-linecap:round; stroke-width:0.25;"/>
<line x1="294.500000" y1="56.000000" x2="294.500000" y2="56.000000"  style="stroke:black; stroke-linecap:round; stroke-width:0.25;"/>
<line x1="302.500000" y1="40.000000" x2="319.400000" y2="40.000000"  style="stroke:black; stroke-linecap:round; stroke-width:0.25;"/>
<line x1="319.400000" y1="40.000000" x2="336.300000" y2="40.000000"  style="stroke:black; stroke-linecap:round; stroke-width:0.25;"/>
<line x1="332.300000" y1="60.000000" x2="336.300000" y2="60.000000"  style="stroke:black; stroke-linecap:round; stroke-width:0.25;"/>
<line x1="336.300000" y1="40.000000" x2="344.300000" y2="40.000000"  style="stroke:black; stroke-linecap:round; stroke-width:0.25;"/>
<line x1="336.300000" y1="60.000000" x2="344.300000" y2="60.000000"  style="stroke:black; stroke-linecap:round; stroke-width:0.25;"/>
<line x1="344.300000" y1="40.000000" x2="344.300000" y2="52.000000"  style="stroke:black; stroke-linecap:round; stroke-width:0.25;"/>
<line x1="344.300000" y1="52.000000" x2="344.300000" y2="52.000000"  style="stroke:black; stroke-linecap:round; stroke-width:0.25;"/>
<line x1="344.300000" y1="52.000000" x2="348.300000" y2="52.000000"  style="stroke:black; stroke-linecap:round; stroke-width:0.25;"/>
<line x1="344.300000" y1="60.000000" x2="348.300000" y2="60.000000"  style="stroke:black; stroke-linecap:round; stroke-width:0.25;"/>
<line x1="372.300000" y1="56.000000" x2="376.300000" y2="56.000000"  style="stroke:black; stroke-linecap:round; stroke-width:0.25;"/>
<line x1="376.300000" y1="56.000000" x2="376.300000" y2="56.000000"  style="stroke:black; stroke-linecap:round; stroke-width:0.25;"/>
<line x1="376.300000" y1="56.000000" x2="380.300000" y2="56.000000"  style="stroke:black; stroke-linecap:round; stroke-width:0.25;"/>
<line x1="380.300000" y1="56.000000" x2="384.300000" y2="56.000000"  style="stroke:black; stroke-linecap:round; stroke-width:0.25;"/>
<line x1="384.300000" y1="56.000000" x2="394.300000" y2="56.000000"  style="stroke:black; stroke-linecap:round; stroke-width:0.25;"/>
</svg>
