<?xml version="1.0"?>
<svg xmlns="http://www.w3.org/2000/svg" xmlns:xlink="http://www.w3.org/1999/xlink" viewBox="0 0 243.600000 200.000000" width="121.800000mm" height="100.000000mm" version="1.1">
<a xlink:href="lag-0x60013c36fba0.svg">
<rect x="1.000000" y="1.000000" width="242.600000" height="199.000000" rx="0" ry="0" style="stroke:none;fill:#cccccc;"/>
<rect x="0.000000" y="0.000000" width="242.600000" height="199.000000" rx="0" ry="0" style="stroke:none;fill:#ffffff;"/>
</a>
<text x="10.000000" y="7.000000" font-family="Arial" font-size="7"></text>
<rect x="33.000000" y="89.000000" width="25.800000" height="24.000000" rx="0" ry="0" style="stroke:none;fill:#cccccc;"/>
<rect x="32.000000" y="88.000000" width="25.800000" height="24.000000" rx="0" ry="0" style="stroke:none;fill:#47945E;"/>
<text x="44.900000" y="102.000000" font-family="Arial" font-size="7" text-anchor="middle" fill="#FFFFFF">yState</text>
<circle cx="34.000000" cy="90.000000" r="1"/>
<line x1="29.000000" y1="99.000000" x2="32.000000" y2="100.000000"  transform="rotate(0.000000,32.000000,100.000000)" style="stroke: black; stroke-width:0.25;"/>
<line x1="29.000000" y1="101.000000" x2="32.000000" y2="100.000000"  transform="rotate(0.000000,32.000000,100.000000)" style="stroke: black; stroke-width:0.25;"/>
<rect x="67.700000" y="25.000000" width="24.000000" height="24.000000" rx="0" ry="0" style="stroke:none;fill:#cccccc;"/>
<rect x="66.700000" y="24.000000" width="24.000000" height="24.000000" rx="0" ry="0" style="stroke:none;fill:#f44800;"/>
<text x="78.700000" y="38.000000" font-family="Arial" font-size="7" text-anchor="middle" fill="#FFFFFF">1</text>
<circle cx="68.700000" cy="26.000000" r="1"/>
<a xlink:href="coeff-0x60013c36f2a0.svg">
<rect x="66.800000" y="57.000000" width="25.800000" height="24.000000" rx="0" ry="0" style="stroke:none;fill:#cccccc;"/>
<rect x="65.800000" y="56.000000" width="25.800000" height="24.000000" rx="0" ry="0" style="stroke:none;fill:#003366;"/>
</a>
<a xlink:href="coeff-0x60013c36f2a0.svg">
<text x="78.700000" y="70.000000" font-family="Arial" font-size="7" text-anchor="middle" fill="#FFFFFF">coeff</text>
</a>
<circle cx="67.800000" cy="58.000000" r="1"/>
<rect x="108.600000" y="41.000000" width="24.000000" height="24.000000" rx="0" ry="0" style="stroke:none;fill:#cccccc;"/>
<rect x="107.600000" y="40.000000" width="24.000000" height="24.000000" rx="0" ry="0" style="stroke:none;fill:#4B71A1;"/>
<text x="119.600000" y="54.000000" font-family="Arial" font-size="7" text-anchor="middle" fill="#FFFFFF">-</text>
<circle cx="109.600000" cy="42.000000" r="1"/>
<line x1="104.600000" y1="47.000000" x2="107.600000" y2="48.000000"  transform="rotate(0.000000,107.600000,48.000000)" style="stroke: black; stroke-width:0.25;"/>
<line x1="104.600000" y1="49.000000" x2="107.600000" y2="48.000000"  transform="rotate(0.000000,107.600000,48.000000)" style="stroke: black; stroke-width:0.25;"/>
<line x1="104.600000" y1="55.000000" x2="107.600000" y2="56.000000"  transform="rotate(0.000000,107.600000,56.000000)" style="stroke: black; stroke-width:0.25;"/>
<line x1="104.600000" y1="57.000000" x2="107.600000" y2="56.000000"  transform="rotate(0.000000,107.600000,56.000000)" style="stroke: black; stroke-width:0.25;"/>
<rect x="87.700000" y="89.000000" width="24.000000" height="24.000000" rx="0" ry="0" style="stroke:none;fill:#cccccc;"/>
<rect x="86.700000" y="88.000000" width="24.000000" height="24.000000" rx="0" ry="0" style="stroke:none;fill:#47945E;"/>
<text x="98.700000" y="102.000000" font-family="Arial" font-size="7" text-anchor="middle" fill="#FFFFFF">x</text>
<circle cx="88.700000" cy="90.000000" r="1"/>
<rect x="148.600000" y="57.000000" width="24.000000" height="24.000000" rx="0" ry="0" style="stroke:none;fill:#cccccc;"/>
<rect x="147.600000" y="56.000000" width="24.000000" height="24.000000" rx="0" ry="0" style="stroke:none;fill:#4B71A1;"/>
<text x="159.600000" y="70.000000" font-family="Arial" font-size="7" text-anchor="middle" fill="#FFFFFF">*</text>
<circle cx="149.600000" cy="58.000000" r="1"/>
<line x1="144.600000" y1="63.000000" x2="147.600000" y2="64.000000"  transform="rotate(0.000000,147.600000,64.000000)" style="stroke: black; stroke-width:0.25;"/>
<line x1="144.600000" y1="65.000000" x2="147.600000" y2="64.000000"  transform="rotate(0.000000,147.600000,64.000000)" style="stroke: black; stroke-width:0.25;"/>
<line x1="144.600000" y1="71.000000" x2="147.600000" y2="72.000000"  transform="rotate(0.000000,147.600000,72.000000)" style="stroke: black; stroke-width:0.25;"/>
<line x1="144.600000" y1="73.000000" x2="147.600000" y2="72.000000"  transform="rotate(0.000000,147.600000,72.000000)" style="stroke: black; stroke-width:0.25;"/>
<a xlink:href="coeff-0x60013c36f2a0.svg">
<rect x="86.800000" y="121.000000" width="25.800000" height="24.000000" rx="0" ry="0" style="stroke:none;fill:#cccccc;"/>
<rect x="85.800000" y="120.000000" width="25.800000" height="24.000000" rx="0" ry="0" style="stroke:none;fill:#003366;"/>
</a>
<a xlink:href="coeff-0x60013c36f2a0.svg">
<text x="98.700000" y="134.000000" font-family="Arial" font-size="7" text-anchor="middle" fill="#FFFFFF">coeff</text>
</a>
<circle cx="87.800000" cy="122.000000" r="1"/>
<rect x="86.800000" y="153.000000" width="25.800000" height="24.000000" rx="0" ry="0" style="stroke:none;fill:#cccccc;"/>
<rect x="85.800000" y="152.000000" width="25.800000" height="24.000000" rx="0" ry="0" style="stroke:none;fill:#47945E;"/>
<text x="98.700000" y="166.000000" font-family="Arial" font-size="7" text-anchor="middle" fill="#FFFFFF">yState</text>
<circle cx="87.800000" cy="154.000000" r="1"/>
<rect x="128.600000" y="137.000000" width="24.000000" height="24.000000" rx="0" ry="0" style="stroke:none;fill:#cccccc;"/>
<rect x="127.600000" y="136.000000" width="24.000000" height="24.000000" rx="0" ry="0" style="stroke:none;fill:#4B71A1;"/>
<text x="139.600000" y="150.000000" font-family="Arial" font-size="7" text-anchor="middle" fill="#FFFFFF">*</text>
<circle cx="129.600000" cy="138.000000" r="1"/>
<line x1="124.600000" y1="143.000000" x2="127.600000" y2="144.000000"  transform="rotate(0.000000,127.600000,144.000000)" style="stroke: black; stroke-width:0.25;"/>
<line x1="124.600000" y1="145.000000" x2="127.600000" y2="144.000000"  transform="rotate(0.000000,127.600000,144.000000)" style="stroke: black; stroke-width:0.25;"/>
<line x1="124.600000" y1="151.000000" x2="127.600000" y2="152.000000"  transform="rotate(0.000000,127.600000,152.000000)" style="stroke: black; stroke-width:0.25;"/>
<line x1="124.600000" y1="153.000000" x2="127.600000" y2="152.000000"  transform="rotate(0.000000,127.600000,152.000000)" style="stroke: black; stroke-width:0.25;"/>
<rect x="188.600000" y="89.000000" width="24.000000" height="24.000000" rx="0" ry="0" style="stroke:none;fill:#cccccc;"/>
<rect x="187.600000" y="88.000000" width="24.000000" height="24.000000" rx="0" ry="0" style="stroke:none;fill:#4B71A1;"/>
<text x="199.600000" y="102.000000" font-family="Arial" font-size="7" text-anchor="middle" fill="#FFFFFF">+</text>
<circle cx="189.600000" cy="90.000000" r="1"/>
<line x1="184.600000" y1="95.000000" x2="187.600000" y2="96.000000"  transform="rotate(0.000000,187.600000,96.000000)" style="stroke: black; stroke-width:0.25;"/>
<line x1="184.600000" y1="97.000000" x2="187.600000" y2="96.000000"  transform="rotate(0.000000,187.600000,96.000000)" style="stroke: black; stroke-width:0.25;"/>
<line x1="184.600000" y1="103.000000" x2="187.600000" y2="104.000000"  transform="rotate(0.000000,187.600000,104.000000)" style="stroke: black; stroke-width:0.25;"/>
<line x1="184.600000" y1="105.000000" x2="187.600000" y2="104.000000"  transform="rotate(0.000000,187.600000,104.000000)" style="stroke: black; stroke-width:0.25;"/>
<line x1="15.000000" y1="15.000000" x2="15.000000" y2="185.000000"  style="stroke: black; stroke-linecap:round; stroke-width:0.25; stroke-dasharray:3,3;"/>
<line x1="15.000000" y1="185.000000" x2="228.600000" y2="185.000000"  style="stroke: black; stroke-linecap:round; stroke-width:0.25; stroke-dasharray:3,3;"/>
<line x1="228.600000" y1="185.000000" x2="228.600000" y2="15.000000"  style="stroke: black; stroke-linecap:round; stroke-width:0.25; stroke-dasharray:3,3;"/>
<line x1="15.000000" y1="15.000000" x2="20.000000" y2="15.000000"  style="stroke: black; stroke-linecap:round; stroke-width:0.25; stroke-dasharray:3,3;"/>
<line x1="39.350000" y1="15.000000" x2="228.600000" y2="15.000000"  style="stroke: black; stroke-linecap:round; stroke-width:0.25; stroke-dasharray:3,3;"/>
<text x="20.000000" y="17.000000" font-family="Arial" font-size="7">loop</text>
<line x1="230.600000" y1="99.000000" x2="233.600000" y2="100.000000"  transform="rotate(0.000000,233.600000,100.000000)" style="stroke: black; stroke-width:0.25;"/>
<line x1="230.600000" y1="101.000000" x2="233.600000" y2="100.000000"  transform="rotate(0.000000,233.600000,100.000000)" style="stroke: black; stroke-width:0.25;"/>
<line x1="10.000000" y1="100.000000" x2="20.000000" y2="100.000000"  style="stroke:black; stroke-linecap:round; stroke-width:0.25;"/>
<line x1="20.000000" y1="100.000000" x2="24.000000" y2="100.000000"  style="stroke:black; stroke-linecap:round; stroke-width:0.25;"/>
<line x1="24.000000" y1="100.000000" x2="28.000000" y2="100.000000"  style="stroke:black; stroke-linecap:round; stroke-width:0.25;"/>
<line x1="28.000000" y1="100.000000" x2="28.000000" y2="100.000000"  style="stroke:black; stroke-linecap:round; stroke-width:0.25;"/>
<line x1="28.000000" y1="100.000000" x2="32.000000" y2="100.000000"  style="stroke:black; stroke-linecap:round; stroke-width:0.25;"/>
<line x1="90.700000" y1="36.000000" x2="94.700000" y2="36.000000"  style="stroke:black; stroke-linecap:round; stroke-width:0.25;"/>
<line x1="91.600000" y1="68.000000" x2="95.600000" y2="68.000000"  style="stroke:black; stroke-linecap:round; stroke-width:0.25;"/>
<line x1="94.700000" y1="36.000000" x2="95.600000" y2="36.000000"  style="stroke:black; stroke-linecap:round; stroke-width:0.25;"/>
<line x1="95.600000" y1="36.000000" x2="103.600000" y2="36.000000"  style="stroke:black; stroke-linecap:round; stroke-width:0.25;"/>
<line x1="95.600000" y1="56.000000" x2="103.600000" y2="56.000000"  style="stroke:black; stroke-linecap:round; stroke-width:0.25;"/>
<line x1="95.600000" y1="68.000000" x2="95.600000" y2="56.000000"  style="stroke:black; stroke-linecap:round; stroke-width:0.25;"/>
<line x1="95.600000" y1="68.000000" x2="95.600000" y2="68.000000"  style="stroke:black; stroke-linecap:round; stroke-width:0.25;"/>
<line x1="103.600000" y1="36.000000" x2="103.600000" y2="48.000000"  style="stroke:black; stroke-linecap:round; stroke-width:0.25;"/>
<line x1="103.600000" y1="48.000000" x2="103.600000" y2="48.000000"  style="stroke:black; stroke-linecap:round; stroke-width:0.25;"/>
<line x1="103.600000" y1="48.000000" x2="107.600000" y2="48.000000"  style="stroke:black; stroke-linecap:round; stroke-width:0.25;"/>
<line x1="103.600000" y1="56.000000" x2="107.600000" y2="56.000000"  style="stroke:black; stroke-linecap:round; stroke-width:0.25;"/>
<line x1="110.700000" y1="100.000000" x2="114.700000" y2="100.000000"  style="stroke:black; stroke-linecap:round; stroke-width:0.25;"/>
<line x1="111.600000" y1="132.000000" x2="115.600000" y2="132.000000"  style="stroke:black; stroke-linecap:round; stroke-width:0.25;"/>
<line x1="111.600000" y1="164.000000" x2="115.600000" y2="164.000000"  style="stroke:black; stroke-linecap:round; stroke-width:0.25;"/>
<line x1="114.700000" y1="100.000000" x2="135.600000" y2="100.000000"  style="stroke:black; stroke-linecap:round; stroke-width:0.25;"/>
<line x1="115.600000" y1="132.000000" x2="123.600000" y2="132.000000"  style="stroke:black; stroke-linecap:round; stroke-width:0.25;"/>
<line x1="115.600000" y1="152.000000" x2="123.600000" y2="152.000000"  style="stroke:black; stroke-linecap:round; stroke-width:0.25;"/>
<line x1="115.600000" y1="164.000000" x2="115.600000" y2="152.000000"  style="stroke:black; stroke-linecap:round; stroke-width:0.25;"/>
<line x1="115.600000" y1="164.000000" x2="115.600000" y2="164.000000"  style="stroke:black; stroke-linecap:round; stroke-width:0.25;"/>
<line x1="123.600000" y1="132.000000" x2="123.600000" y2="144.000000"  style="stroke:black; stroke-linecap:round; stroke-width:0.25;"/>
<line x1="123.600000" y1="144.000000" x2="123.600000" y2="144.000000"  style="stroke:black; stroke-linecap:round; stroke-width:0.25;"/>
<line x1="123.600000" y1="144.000000" x2="127.600000" y2="144.000000"  style="stroke:black; stroke-linecap:round; stroke-width:0.25;"/>
<line x1="123.600000" y1="152.000000" x2="127.600000" y2="152.000000"  style="stroke:black; stroke-linecap:round; stroke-width:0.25;"/>
<line x1="131.600000" y1="52.000000" x2="135.600000" y2="52.000000"  style="stroke:black; stroke-linecap:round; stroke-width:0.25;"/>
<line x1="135.600000" y1="52.000000" x2="143.600000" y2="52.000000"  style="stroke:black; stroke-linecap:round; stroke-width:0.25;"/>
<line x1="135.600000" y1="72.000000" x2="143.600000" y2="72.000000"  style="stroke:black; stroke-linecap:round; stroke-width:0.25;"/>
<line x1="135.600000" y1="100.000000" x2="135.600000" y2="72.000000"  style="stroke:black; stroke-linecap:round; stroke-width:0.25;"/>
<line x1="135.600000" y1="100.000000" x2="135.600000" y2="100.000000"  style="stroke:black; stroke-linecap:round; stroke-width:0.25;"/>
<line x1="143.600000" y1="52.000000" x2="143.600000" y2="64.000000"  style="stroke:black; stroke-linecap:round; stroke-width:0.25;"/>
<line x1="143.600000" y1="64.000000" x2="143.600000" y2="64.000000"  style="stroke:black; stroke-linecap:round; stroke-width:0.25;"/>
<line x1="143.600000" y1="64.000000" x2="147.600000" y2="64.000000"  style="stroke:black; stroke-linecap:round; stroke-width:0.25;"/>
<line x1="143.600000" y1="72.000000" x2="147.600000" y2="72.000000"  style="stroke:black; stroke-linecap:round; stroke-width:0.25;"/>
<line x1="151.600000" y1="148.000000" x2="155.600000" y2="148.000000"  style="stroke:black; stroke-linecap:round; stroke-width:0.25;"/>
<line x1="155.600000" y1="148.000000" x2="175.600000" y2="148.000000"  style="stroke:black; stroke-linecap:round; stroke-width:0.25;"/>
<line x1="171.600000" y1="68.000000" x2="175.600000" y2="68.000000"  style="stroke:black; stroke-linecap:round; stroke-width:0.25;"/>
<line x1="175.600000" y1="68.000000" x2="183.600000" y2="68.000000"  style="stroke:black; stroke-linecap:round; stroke-width:0.25;"/>
<line x1="175.600000" y1="104.000000" x2="183.600000" y2="104.000000"  style="stroke:black; stroke-linecap:round; stroke-width:0.25;"/>
<line x1="175.600000" y1="148.000000" x2="175.600000" y2="104.000000"  style="stroke:black; stroke-linecap:round; stroke-width:0.25;"/>
<line x1="175.600000" y1="148.000000" x2="175.600000" y2="148.000000"  style="stroke:black; stroke-linecap:round; stroke-width:0.25;"/>
<line x1="183.600000" y1="68.000000" x2="183.600000" y2="96.000000"  style="stroke:black; stroke-linecap:round; stroke-width:0.25;"/>
<line x1="183.600000" y1="96.000000" x2="183.600000" y2="96.000000"  style="stroke:black; stroke-linecap:round; stroke-width:0.25;"/>
<line x1="183.600000" y1="96.000000" x2="187.600000" y2="96.000000"  style="stroke:black; stroke-linecap:round; stroke-width:0.25;"/>
<line x1="183.600000" y1="104.000000" x2="187.600000" y2="104.000000"  style="stroke:black; stroke-linecap:round; stroke-width:0.25;"/>
<line x1="211.600000" y1="100.000000" x2="215.600000" y2="100.000000"  style="stroke:black; stroke-linecap:round; stroke-width:0.25;"/>
<line x1="215.600000" y1="100.000000" x2="215.600000" y2="100.000000"  style="stroke:black; stroke-linecap:round; stroke-width:0.25;"/>
<line x1="215.600000" y1="100.000000" x2="219.600000" y2="100.000000"  style="stroke:black; stroke-linecap:round; stroke-width:0.25;"/>
<line x1="219.600000" y1="100.000000" x2="223.600000" y2="100.000000"  style="stroke:black; stroke-linecap:round; stroke-width:0.25;"/>
<line x1="223.600000" y1="100.000000" x2="233.600000" y2="100.000000"  style="stroke:black; stroke-linecap:round; stroke-width:0.25;"/>
</svg>
