<?xml version="1.0"?>
<svg xmlns="http://www.w3.org/2000/svg" xmlns:xlink="http://www.w3.org/1999/xlink" viewBox="0 0 251.600000 104.000000" width="125.800000mm" height="52.000000mm" version="1.1">
<a xlink:href="ls3-0x6001443c5440.svg">
<rect x="1.000000" y="1.000000" width="250.600000" height="103.000000" rx="0" ry="0" style="stroke:none;fill:#cccccc;"/>
<rect x="0.000000" y="0.000000" width="250.600000" height="103.000000" rx="0" ry="0" style="stroke:none;fill:#ffffff;"/>
</a>
<text x="10.000000" y="7.000000" font-family="Arial" font-size="7"></text>
<a xlink:href="tick-0x6001443d5560.svg">
<rect x="57.000000" y="41.000000" width="25.800000" height="40.000000" rx="0" ry="0" style="stroke:none;fill:#cccccc;"/>
<rect x="56.000000" y="40.000000" width="25.800000" height="40.000000" rx="0" ry="0" style="stroke:none;fill:#003366;"/>
</a>
<a xlink:href="tick-0x6001443d5560.svg">
<text x="68.900000" y="62.000000" font-family="Arial" font-size="7" text-anchor="middle" fill="#FFFFFF">tick</text>
</a>
<circle cx="58.000000" cy="42.000000" r="1"/>
<line x1="53.000000" y1="51.000000" x2="56.000000" y2="52.000000"  transform="rotate(0.000000,56.000000,52.000000)" style="stroke: black; stroke-width:0.25;"/>
<line x1="53.000000" y1="53.000000" x2="56.000000" y2="52.000000"  transform="rotate(0.000000,56.000000,52.000000)" style="stroke: black; stroke-width:0.25;"/>
<line x1="53.000000" y1="59.000000" x2="56.000000" y2="60.000000"  transform="rotate(0.000000,56.000000,60.000000)" style="stroke: black; stroke-width:0.25;"/>
<line x1="53.000000" y1="61.000000" x2="56.000000" y2="60.000000"  transform="rotate(0.000000,56.000000,60.000000)" style="stroke: black; stroke-width:0.25;"/>
<line x1="53.000000" y1="67.000000" x2="56.000000" y2="68.000000"  transform="rotate(0.000000,56.000000,68.000000)" style="stroke: black; stroke-width:0.25;"/>
<line x1="53.000000" y1="69.000000" x2="56.000000" y2="68.000000"  transform="rotate(0.000000,56.000000,68.000000)" style="stroke: black; stroke-width:0.25;"/>
<line x1="83.800000" y1="44.000000" x2="83.800000" y2="40.000000"  style="stroke:black; stroke-linecap:round; stroke-width:0.25;"/>
<line x1="83.800000" y1="40.000000" x2="87.800000" y2="40.000000"  style="stroke:black; stroke-linecap:round; stroke-width:0.25;"/>
<line x1="87.800000" y1="40.000000" x2="87.800000" y2="44.000000"  style="stroke:black; stroke-linecap:round; stroke-width:0.25;"/>
<line x1="91.800000" y1="52.000000" x2="91.800000" y2="48.000000"  style="stroke:black; stroke-linecap:round; stroke-width:0.25;"/>
<line x1="91.800000" y1="48.000000" x2="95.800000" y2="48.000000"  style="stroke:black; stroke-linecap:round; stroke-width:0.25;"/>
<line x1="95.800000" y1="48.000000" x2="95.800000" y2="52.000000"  style="stroke:black; stroke-linecap:round; stroke-width:0.25;"/>
<a xlink:href="mix-0x6001443bfa80.svg">
<rect x="130.800000" y="29.080000" width="24.000000" height="24.000000" rx="0" ry="0" style="stroke:none;fill:#cccccc;"/>
<rect x="129.800000" y="28.080000" width="24.000000" height="24.000000" rx="0" ry="0" style="stroke:none;fill:#003366;"/>
</a>
<a xlink:href="mix-0x6001443bfa80.svg">
<text x="141.800000" y="42.080000" font-family="Arial" font-size="7" text-anchor="middle" fill="#FFFFFF">mix</text>
</a>
<circle cx="131.800000" cy="30.080000" r="1"/>
<a xlink:href="dot-0x6000040078d0.svg">
<rect x="186.800000" y="29.080000" width="25.800000" height="48.000000" rx="0" ry="0" style="stroke:none;fill:#cccccc;"/>
<rect x="185.800000" y="28.080000" width="25.800000" height="48.000000" rx="0" ry="0" style="stroke:none;fill:#003366;"/>
</a>
<a xlink:href="dot-0x6000040078d0.svg">
<text x="198.700000" y="54.080000" font-family="Arial" font-size="7" text-anchor="middle" fill="#FFFFFF">dot(3)</text>
</a>
<circle cx="187.800000" cy="30.080000" r="1"/>
<line x1="182.800000" y1="31.080000" x2="185.800000" y2="32.080000"  transform="rotate(0.000000,185.800000,32.080000)" style="stroke: black; stroke-width:0.25;"/>
<line x1="182.800000" y1="33.080000" x2="185.800000" y2="32.080000"  transform="rotate(0.000000,185.800000,32.080000)" style="stroke: black; stroke-width:0.25;"/>
<line x1="182.800000" y1="39.080000" x2="185.800000" y2="40.080000"  transform="rotate(0.000000,185.800000,40.080000)" style="stroke: black; stroke-width:0.25;"/>
<line x1="182.800000" y1="41.080000" x2="185.800000" y2="40.080000"  transform="rotate(0.000000,185.800000,40.080000)" style="stroke: black; stroke-width:0.25;"/>
<line x1="182.800000" y1="47.080000" x2="185.800000" y2="48.080000"  transform="rotate(0.000000,185.800000,48.080000)" style="stroke: black; stroke-width:0.25;"/>
<line x1="182.800000" y1="49.080000" x2="185.800000" y2="48.080000"  transform="rotate(0.000000,185.800000,48.080000)" style="stroke: black; stroke-width:0.25;"/>
<line x1="182.800000" y1="55.080000" x2="185.800000" y2="56.080000"  transform="rotate(0.000000,185.800000,56.080000)" style="stroke: black; stroke-width:0.25;"/>
<line x1="182.800000" y1="57.080000" x2="185.800000" y2="56.080000"  transform="rotate(0.000000,185.800000,56.080000)" style="stroke: black; stroke-width:0.25;"/>
<line x1="182.800000" y1="63.080000" x2="185.800000" y2="64.080000"  transform="rotate(0.000000,185.800000,64.080000)" style="stroke: black; stroke-width:0.25;"/>
<line x1="182.800000" y1="65.080000" x2="185.800000" y2="64.080000"  transform="rotate(0.000000,185.800000,64.080000)" style="stroke: black; stroke-width:0.25;"/>
<line x1="182.800000" y1="71.080000" x2="185.800000" y2="72.080000"  transform="rotate(0.000000,185.800000,72.080000)" style="stroke: black; stroke-width:0.25;"/>
<line x1="182.800000" y1="73.080000" x2="185.800000" y2="72.080000"  transform="rotate(0.000000,185.800000,72.080000)" style="stroke: black; stroke-width:0.25;"/>
<line x1="15.000000" y1="15.000000" x2="15.000000" y2="89.000000"  style="stroke: black; stroke-linecap:round; stroke-width:0.25; stroke-dasharray:3,3;"/>
<line x1="15.000000" y1="89.000000" x2="236.600000" y2="89.000000"  style="stroke: black; stroke-linecap:round; stroke-width:0.25; stroke-dasharray:3,3;"/>
<line x1="236.600000" y1="89.000000" x2="236.600000" y2="15.000000"  style="stroke: black; stroke-linecap:round; stroke-width:0.25; stroke-dasharray:3,3;"/>
<line x1="15.000000" y1="15.000000" x2="20.000000" y2="15.000000"  style="stroke: black; stroke-linecap:round; stroke-width:0.25; stroke-dasharray:3,3;"/>
<line x1="119.975000" y1="15.000000" x2="236.600000" y2="15.000000"  style="stroke: black; stroke-linecap:round; stroke-width:0.25; stroke-dasharray:3,3;"/>
<text x="20.000000" y="17.000000" font-family="Arial" font-size="7">ls(((((vslide...4 : -),3 : /)</text>
<line x1="238.600000" y1="51.000000" x2="241.600000" y2="52.000000"  transform="rotate(0.000000,241.600000,52.000000)" style="stroke: black; stroke-width:0.25;"/>
<line x1="238.600000" y1="53.000000" x2="241.600000" y2="52.000000"  transform="rotate(0.000000,241.600000,52.000000)" style="stroke: black; stroke-width:0.25;"/>
<line x1="10.000000" y1="52.000000" x2="20.000000" y2="52.000000"  style="stroke:black; stroke-linecap:round; stroke-width:0.25;"/>
<line x1="20.000000" y1="52.000000" x2="24.000000" y2="52.000000"  style="stroke:black; stroke-linecap:round; stroke-width:0.25;"/>
<line x1="24.000000" y1="52.000000" x2="28.000000" y2="52.000000"  style="stroke:black; stroke-linecap:round; stroke-width:0.25;"/>
<line x1="28.000000" y1="52.000000" x2="36.000000" y2="52.000000"  style="stroke:black; stroke-linecap:round; stroke-width:0.25;"/>
<line x1="36.000000" y1="52.000000" x2="36.000000" y2="68.000000"  style="stroke:black; stroke-linecap:round; stroke-width:0.25;"/>
<line x1="36.000000" y1="68.000000" x2="36.000000" y2="68.000000"  style="stroke:black; stroke-linecap:round; stroke-width:0.25;"/>
<line x1="36.000000" y1="68.000000" x2="52.000000" y2="68.000000"  style="stroke:black; stroke-linecap:round; stroke-width:0.25;"/>
<line x1="44.000000" y1="24.000000" x2="44.000000" y2="60.000000"  style="stroke:black; stroke-linecap:round; stroke-width:0.25;"/>
<line x1="44.000000" y1="60.000000" x2="52.000000" y2="60.000000"  style="stroke:black; stroke-linecap:round; stroke-width:0.25;"/>
<line x1="52.000000" y1="52.000000" x2="56.000000" y2="52.000000"  style="stroke:black; stroke-linecap:round; stroke-width:0.25;"/>
<line x1="52.000000" y1="60.000000" x2="56.000000" y2="60.000000"  style="stroke:black; stroke-linecap:round; stroke-width:0.25;"/>
<line x1="52.000000" y1="68.000000" x2="56.000000" y2="68.000000"  style="stroke:black; stroke-linecap:round; stroke-width:0.25;"/>
<line x1="52.000000" y1="24.000000" x2="44.000000" y2="24.000000"  style="stroke:black; stroke-linecap:round; stroke-width:0.25;"/>
<line x1="52.000000" y1="32.000000" x2="52.000000" y2="32.000000"  style="stroke:black; stroke-linecap:round; stroke-width:0.25;"/>
<line x1="52.000000" y1="32.000000" x2="52.000000" y2="52.000000"  style="stroke:black; stroke-linecap:round; stroke-width:0.25;"/>
<line x1="52.000000" y1="52.000000" x2="52.000000" y2="52.000000"  style="stroke:black; stroke-linecap:round; stroke-width:0.25;"/>
<line x1="68.900000" y1="24.000000" x2="52.000000" y2="24.000000"  style="stroke:black; stroke-linecap:round; stroke-width:0.25;"/>
<line x1="68.900000" y1="32.000000" x2="52.000000" y2="32.000000"  style="stroke:black; stroke-linecap:round; stroke-width:0.25;"/>
<line x1="81.800000" y1="44.000000" x2="85.800000" y2="44.000000"  style="stroke:black; stroke-linecap:round; stroke-width:0.25;"/>
<line x1="81.800000" y1="52.000000" x2="85.800000" y2="52.000000"  style="stroke:black; stroke-linecap:round; stroke-width:0.25;"/>
<line x1="81.800000" y1="60.000000" x2="85.800000" y2="60.000000"  style="stroke:black; stroke-linecap:round; stroke-width:0.25;"/>
<line x1="81.800000" y1="68.000000" x2="85.800000" y2="68.000000"  style="stroke:black; stroke-linecap:round; stroke-width:0.25;"/>
<line x1="81.800000" y1="76.000000" x2="85.800000" y2="76.000000"  style="stroke:black; stroke-linecap:round; stroke-width:0.25;"/>
<line x1="85.800000" y1="32.000000" x2="85.800000" y2="32.000000"  style="stroke:black; stroke-linecap:round; stroke-width:0.25;"/>
<line x1="85.800000" y1="40.000000" x2="85.800000" y2="32.000000"  style="stroke:black; stroke-linecap:round; stroke-width:0.25;"/>
<line x1="85.800000" y1="44.000000" x2="87.800000" y2="44.000000"  style="stroke:black; stroke-linecap:round; stroke-width:0.25;"/>
<line x1="85.800000" y1="52.000000" x2="95.800000" y2="52.000000"  style="stroke:black; stroke-linecap:round; stroke-width:0.25;"/>
<line x1="85.800000" y1="60.000000" x2="101.800000" y2="60.000000"  style="stroke:black; stroke-linecap:round; stroke-width:0.25;"/>
<line x1="85.800000" y1="68.000000" x2="101.800000" y2="68.000000"  style="stroke:black; stroke-linecap:round; stroke-width:0.25;"/>
<line x1="85.800000" y1="76.000000" x2="101.800000" y2="76.000000"  style="stroke:black; stroke-linecap:round; stroke-width:0.25;"/>
<line x1="85.800000" y1="24.000000" x2="68.900000" y2="24.000000"  style="stroke:black; stroke-linecap:round; stroke-width:0.25;"/>
<line x1="85.800000" y1="32.000000" x2="68.900000" y2="32.000000"  style="stroke:black; stroke-linecap:round; stroke-width:0.25;"/>
<line x1="93.800000" y1="24.000000" x2="85.800000" y2="24.000000"  style="stroke:black; stroke-linecap:round; stroke-width:0.25;"/>
<line x1="93.800000" y1="48.000000" x2="93.800000" y2="24.000000"  style="stroke:black; stroke-linecap:round; stroke-width:0.25;"/>
<line x1="101.800000" y1="60.000000" x2="125.800000" y2="60.000000"  style="stroke:black; stroke-linecap:round; stroke-width:0.25;"/>
<line x1="101.800000" y1="68.000000" x2="117.800000" y2="68.000000"  style="stroke:black; stroke-linecap:round; stroke-width:0.25;"/>
<line x1="101.800000" y1="76.000000" x2="109.800000" y2="76.000000"  style="stroke:black; stroke-linecap:round; stroke-width:0.25;"/>
<line x1="109.800000" y1="76.000000" x2="109.800000" y2="76.080000"  style="stroke:black; stroke-linecap:round; stroke-width:0.25;"/>
<line x1="109.800000" y1="76.080000" x2="125.800000" y2="76.080000"  style="stroke:black; stroke-linecap:round; stroke-width:0.25;"/>
<line x1="117.800000" y1="68.000000" x2="117.800000" y2="68.080000"  style="stroke:black; stroke-linecap:round; stroke-width:0.25;"/>
<line x1="117.800000" y1="68.080000" x2="125.800000" y2="68.080000"  style="stroke:black; stroke-linecap:round; stroke-width:0.25;"/>
<line x1="125.800000" y1="60.000000" x2="125.800000" y2="60.080000"  style="stroke:black; stroke-linecap:round; stroke-width:0.25;"/>
<line x1="125.800000" y1="60.080000" x2="125.800000" y2="60.080000"  style="stroke:black; stroke-linecap:round; stroke-width:0.25;"/>
<line x1="125.800000" y1="60.080000" x2="141.800000" y2="60.080000"  style="stroke:black; stroke-linecap:round; stroke-width:0.25;"/>
<line x1="125.800000" y1="68.080000" x2="141.800000" y2="68.080000"  style="stroke:black; stroke-linecap:round; stroke-width:0.25;"/>
<line x1="125.800000" y1="76.080000" x2="141.800000" y2="76.080000"  style="stroke:black; stroke-linecap:round; stroke-width:0.25;"/>
<line x1="141.800000" y1="60.080000" x2="157.800000" y2="60.080000"  style="stroke:black; stroke-linecap:round; stroke-width:0.25;"/>
<line x1="141.800000" y1="68.080000" x2="157.800000" y2="68.080000"  style="stroke:black; stroke-linecap:round; stroke-width:0.25;"/>
<line x1="141.800000" y1="76.080000" x2="157.800000" y2="76.080000"  style="stroke:black; stroke-linecap:round; stroke-width:0.25;"/>
<line x1="153.800000" y1="32.080000" x2="157.800000" y2="32.080000"  style="stroke:black; stroke-linecap:round; stroke-width:0.25;"/>
<line x1="153.800000" y1="40.080000" x2="157.800000" y2="40.080000"  style="stroke:black; stroke-linecap:round; stroke-width:0.25;"/>
<line x1="153.800000" y1="48.080000" x2="157.800000" y2="48.080000"  style="stroke:black; stroke-linecap:round; stroke-width:0.25;"/>
<line x1="157.800000" y1="32.080000" x2="181.800000" y2="32.080000"  style="stroke:black; stroke-linecap:round; stroke-width:0.25;"/>
<line x1="157.800000" y1="40.080000" x2="181.800000" y2="40.080000"  style="stroke:black; stroke-linecap:round; stroke-width:0.25;"/>
<line x1="157.800000" y1="48.080000" x2="181.800000" y2="48.080000"  style="stroke:black; stroke-linecap:round; stroke-width:0.25;"/>
<line x1="157.800000" y1="56.080000" x2="181.800000" y2="56.080000"  style="stroke:black; stroke-linecap:round; stroke-width:0.25;"/>
<line x1="157.800000" y1="60.080000" x2="157.800000" y2="56.080000"  style="stroke:black; stroke-linecap:round; stroke-width:0.25;"/>
<line x1="157.800000" y1="60.080000" x2="157.800000" y2="60.080000"  style="stroke:black; stroke-linecap:round; stroke-width:0.25;"/>
<line x1="157.800000" y1="68.080000" x2="165.800000" y2="68.080000"  style="stroke:black; stroke-linecap:round; stroke-width:0.25;"/>
<line x1="157.800000" y1="76.080000" x2="173.800000" y2="76.080000"  style="stroke:black; stroke-linecap:round; stroke-width:0.25;"/>
<line x1="165.800000" y1="64.080000" x2="181.800000" y2="64.080000"  style="stroke:black; stroke-linecap:round; stroke-width:0.25;"/>
<line x1="165.800000" y1="68.080000" x2="165.800000" y2="64.080000"  style="stroke:black; stroke-linecap:round; stroke-width:0.25;"/>
<line x1="173.800000" y1="72.080000" x2="181.800000" y2="72.080000"  style="stroke:black; stroke-linecap:round; stroke-width:0.25;"/>
<line x1="173.800000" y1="76.080000" x2="173.800000" y2="72.080000"  style="stroke:black; stroke-linecap:round; stroke-width:0.25;"/>
<line x1="181.800000" y1="32.080000" x2="185.800000" y2="32.080000"  style="stroke:black; stroke-linecap:round; stroke-width:0.25;"/>
<line x1="181.800000" y1="40.080000" x2="185.800000" y2="40.080000"  style="stroke:black; stroke-linecap:round; stroke-width:0.25;"/>
<line x1="181.800000" y1="48.080000" x2="185.800000" y2="48.080000"  style="stroke:black; stroke-linecap:round; stroke-width:0.25;"/>
<line x1="181.800000" y1="56.080000" x2="185.800000" y2="56.080000"  style="stroke:black; stroke-linecap:round; stroke-width:0.25;"/>
<line x1="181.800000" y1="64.080000" x2="185.800000" y2="64.080000"  style="stroke:black; stroke-linecap:round; stroke-width:0.25;"/>
<line x1="181.800000" y1="72.080000" x2="185.800000" y2="72.080000"  style="stroke:black; stroke-linecap:round; stroke-width:0.25;"/>
<line x1="211.600000" y1="52.080000" x2="215.600000" y2="52.080000"  style="stroke:black; stroke-linecap:round; stroke-width:0.25;"/>
<line x1="215.600000" y1="52.000000" x2="223.600000" y2="52.000000"  style="stroke:black; stroke-linecap:round; stroke-width:0.25;"/>
<line x1="215.600000" y1="52.080000" x2="215.600000" y2="52.000000"  style="stroke:black; stroke-linecap:round; stroke-width:0.25;"/>
<line x1="215.600000" y1="52.080000" x2="215.600000" y2="52.080000"  style="stroke:black; stroke-linecap:round; stroke-width:0.25;"/>
<line x1="223.600000" y1="52.000000" x2="227.600000" y2="52.000000"  style="stroke:black; stroke-linecap:round; stroke-width:0.25;"/>
<line x1="227.600000" y1="52.000000" x2="231.600000" y2="52.000000"  style="stroke:black; stroke-linecap:round; stroke-width:0.25;"/>
<line x1="231.600000" y1="52.000000" x2="241.600000" y2="52.000000"  style="stroke:black; stroke-linecap:round; stroke-width:0.25;"/>
</svg>
