<?xml version="1.0"?>
<svg xmlns="http://www.w3.org/2000/svg" xmlns:xlink="http://www.w3.org/1999/xlink" viewBox="0 0 502.900000 136.000000" width="251.450000mm" height="68.000000mm" version="1.1">
<a xlink:href="process.svg">
<rect x="1.000000" y="1.000000" width="501.900000" height="135.000000" rx="0" ry="0" style="stroke:none;fill:#cccccc;"/>
<rect x="0.000000" y="0.000000" width="501.900000" height="135.000000" rx="0" ry="0" style="stroke:none;fill:#ffffff;"/>
</a>
<text x="10.000000" y="7.000000" font-family="Arial" font-size="7"></text>
<rect x="41.000000" y="41.000000" width="24.000000" height="24.000000" rx="0" ry="0" style="stroke:none;fill:#cccccc;"/>
<rect x="40.000000" y="40.000000" width="24.000000" height="24.000000" rx="0" ry="0" style="stroke:none;fill:#47945E;"/>
<text x="52.000000" y="54.000000" font-family="Arial" font-size="7" text-anchor="middle" fill="#FFFFFF">l</text>
<circle cx="42.000000" cy="42.000000" r="1"/>
<line x1="37.000000" y1="51.000000" x2="40.000000" y2="52.000000"  transform="rotate(0.000000,40.000000,52.000000)" style="stroke: black; stroke-width:0.25;"/>
<line x1="37.000000" y1="53.000000" x2="40.000000" y2="52.000000"  transform="rotate(0.000000,40.000000,52.000000)" style="stroke: black; stroke-width:0.25;"/>
<rect x="41.000000" y="73.000000" width="24.000000" height="24.000000" rx="0" ry="0" style="stroke:none;fill:#cccccc;"/>
<rect x="40.000000" y="72.000000" width="24.000000" height="24.000000" rx="0" ry="0" style="stroke:none;fill:#47945E;"/>
<text x="52.000000" y="86.000000" font-family="Arial" font-size="7" text-anchor="middle" fill="#FFFFFF">r</text>
<circle cx="42.000000" cy="74.000000" r="1"/>
<line x1="37.000000" y1="83.000000" x2="40.000000" y2="84.000000"  transform="rotate(0.000000,40.000000,84.000000)" style="stroke: black; stroke-width:0.25;"/>
<line x1="37.000000" y1="85.000000" x2="40.000000" y2="84.000000"  transform="rotate(0.000000,40.000000,84.000000)" style="stroke: black; stroke-width:0.25;"/>
<rect x="73.000000" y="41.000000" width="24.000000" height="24.000000" rx="0" ry="0" style="stroke:none;fill:#cccccc;"/>
<rect x="72.000000" y="40.000000" width="24.000000" height="24.000000" rx="0" ry="0" style="stroke:none;fill:#47945E;"/>
<text x="84.000000" y="54.000000" font-family="Arial" font-size="7" text-anchor="middle" fill="#FFFFFF">l</text>
<circle cx="74.000000" cy="42.000000" r="1"/>
<rect x="73.000000" y="73.000000" width="24.000000" height="24.000000" rx="0" ry="0" style="stroke:none;fill:#cccccc;"/>
<rect x="72.000000" y="72.000000" width="24.000000" height="24.000000" rx="0" ry="0" style="stroke:none;fill:#47945E;"/>
<text x="84.000000" y="86.000000" font-family="Arial" font-size="7" text-anchor="middle" fill="#FFFFFF">r</text>
<circle cx="74.000000" cy="74.000000" r="1"/>
<rect x="292.450000" y="25.000000" width="24.000000" height="24.000000" rx="0" ry="0" style="stroke:none;fill:#cccccc;"/>
<rect x="291.450000" y="24.000000" width="24.000000" height="24.000000" rx="0" ry="0" style="stroke:none;fill:#47945E;"/>
<text x="303.450000" y="38.000000" font-family="Arial" font-size="7" text-anchor="middle" fill="#FFFFFF">l</text>
<circle cx="293.450000" cy="26.000000" r="1"/>
<rect x="271.550000" y="57.000000" width="24.000000" height="24.000000" rx="0" ry="0" style="stroke:none;fill:#cccccc;"/>
<rect x="270.550000" y="56.000000" width="24.000000" height="24.000000" rx="0" ry="0" style="stroke:none;fill:#47945E;"/>
<text x="282.550000" y="70.000000" font-family="Arial" font-size="7" text-anchor="middle" fill="#FFFFFF">r</text>
<circle cx="272.550000" cy="58.000000" r="1"/>
<a xlink:href="lk2-0x6000381a5320.svg">
<rect x="145.000000" y="89.000000" width="24.000000" height="24.000000" rx="0" ry="0" style="stroke:none;fill:#cccccc;"/>
<rect x="144.000000" y="88.000000" width="24.000000" height="24.000000" rx="0" ry="0" style="stroke:none;fill:#003366;"/>
</a>
<a xlink:href="lk2-0x6000381a5320.svg">
<text x="156.000000" y="102.000000" font-family="Arial" font-size="7" text-anchor="middle" fill="#FFFFFF">lk2</text>
</a>
<circle cx="146.000000" cy="90.000000" r="1"/>
<line x1="141.000000" y1="95.000000" x2="144.000000" y2="96.000000"  transform="rotate(0.000000,144.000000,96.000000)" style="stroke: black; stroke-width:0.25;"/>
<line x1="141.000000" y1="97.000000" x2="144.000000" y2="96.000000"  transform="rotate(0.000000,144.000000,96.000000)" style="stroke: black; stroke-width:0.25;"/>
<line x1="141.000000" y1="103.000000" x2="144.000000" y2="104.000000"  transform="rotate(0.000000,144.000000,104.000000)" style="stroke: black; stroke-width:0.25;"/>
<line x1="141.000000" y1="105.000000" x2="144.000000" y2="104.000000"  transform="rotate(0.000000,144.000000,104.000000)" style="stroke: black; stroke-width:0.25;"/>
<rect x="177.000000" y="89.000000" width="245.100000" height="24.000000" rx="0" ry="0" style="stroke:none;fill:#cccccc;"/>
<rect x="176.000000" y="88.000000" width="245.100000" height="24.000000" rx="0" ry="0" style="stroke:none;fill:#477881;"/>
<text x="298.550000" y="102.000000" font-family="Arial" font-size="7" text-anchor="middle" fill="#FFFFFF">vbargraph(v:soundsgood/h:easy/out lufs-s, -70.0f, 0.0f)</text>
<circle cx="178.000000" cy="90.000000" r="1"/>
<line x1="173.000000" y1="99.000000" x2="176.000000" y2="100.000000"  transform="rotate(0.000000,176.000000,100.000000)" style="stroke: black; stroke-width:0.25;"/>
<line x1="173.000000" y1="101.000000" x2="176.000000" y2="100.000000"  transform="rotate(0.000000,176.000000,100.000000)" style="stroke: black; stroke-width:0.25;"/>
<rect x="438.100000" y="73.000000" width="25.800000" height="24.000000" rx="0" ry="0" style="stroke:none;fill:#cccccc;"/>
<rect x="437.100000" y="72.000000" width="25.800000" height="24.000000" rx="0" ry="0" style="stroke:none;fill:#4B71A1;"/>
<text x="450.000000" y="86.000000" font-family="Arial" font-size="7" text-anchor="middle" fill="#FFFFFF">attach</text>
<circle cx="439.100000" cy="74.000000" r="1"/>
<line x1="434.100000" y1="79.000000" x2="437.100000" y2="80.000000"  transform="rotate(0.000000,437.100000,80.000000)" style="stroke: black; stroke-width:0.25;"/>
<line x1="434.100000" y1="81.000000" x2="437.100000" y2="80.000000"  transform="rotate(0.000000,437.100000,80.000000)" style="stroke: black; stroke-width:0.25;"/>
<line x1="434.100000" y1="87.000000" x2="437.100000" y2="88.000000"  transform="rotate(0.000000,437.100000,88.000000)" style="stroke: black; stroke-width:0.25;"/>
<line x1="434.100000" y1="89.000000" x2="437.100000" y2="88.000000"  transform="rotate(0.000000,437.100000,88.000000)" style="stroke: black; stroke-width:0.25;"/>
<line x1="15.000000" y1="15.000000" x2="15.000000" y2="121.000000"  style="stroke: black; stroke-linecap:round; stroke-width:0.25; stroke-dasharray:3,3;"/>
<line x1="15.000000" y1="121.000000" x2="487.900000" y2="121.000000"  style="stroke: black; stroke-linecap:round; stroke-width:0.25; stroke-dasharray:3,3;"/>
<line x1="487.900000" y1="121.000000" x2="487.900000" y2="15.000000"  style="stroke: black; stroke-linecap:round; stroke-width:0.25; stroke-dasharray:3,3;"/>
<line x1="15.000000" y1="15.000000" x2="20.000000" y2="15.000000"  style="stroke: black; stroke-linecap:round; stroke-width:0.25; stroke-dasharray:3,3;"/>
<line x1="71.600000" y1="15.000000" x2="487.900000" y2="15.000000"  style="stroke: black; stroke-linecap:round; stroke-width:0.25; stroke-dasharray:3,3;"/>
<text x="20.000000" y="17.000000" font-family="Arial" font-size="7">lufs_meter_out</text>
<line x1="489.900000" y1="63.000000" x2="492.900000" y2="64.000000"  transform="rotate(0.000000,492.900000,64.000000)" style="stroke: black; stroke-width:0.25;"/>
<line x1="489.900000" y1="65.000000" x2="492.900000" y2="64.000000"  transform="rotate(0.000000,492.900000,64.000000)" style="stroke: black; stroke-width:0.25;"/>
<line x1="489.900000" y1="71.000000" x2="492.900000" y2="72.000000"  transform="rotate(0.000000,492.900000,72.000000)" style="stroke: black; stroke-width:0.25;"/>
<line x1="489.900000" y1="73.000000" x2="492.900000" y2="72.000000"  transform="rotate(0.000000,492.900000,72.000000)" style="stroke: black; stroke-width:0.25;"/>
<line x1="10.000000" y1="64.000000" x2="20.000000" y2="64.000000"  style="stroke:black; stroke-linecap:round; stroke-width:0.25;"/>
<line x1="10.000000" y1="72.000000" x2="20.000000" y2="72.000000"  style="stroke:black; stroke-linecap:round; stroke-width:0.25;"/>
<line x1="20.000000" y1="64.000000" x2="24.000000" y2="64.000000"  style="stroke:black; stroke-linecap:round; stroke-width:0.25;"/>
<line x1="20.000000" y1="72.000000" x2="24.000000" y2="72.000000"  style="stroke:black; stroke-linecap:round; stroke-width:0.25;"/>
<line x1="24.000000" y1="64.000000" x2="28.000000" y2="64.000000"  style="stroke:black; stroke-linecap:round; stroke-width:0.25;"/>
<line x1="24.000000" y1="72.000000" x2="28.000000" y2="72.000000"  style="stroke:black; stroke-linecap:round; stroke-width:0.25;"/>
<line x1="28.000000" y1="52.000000" x2="36.000000" y2="52.000000"  style="stroke:black; stroke-linecap:round; stroke-width:0.25;"/>
<line x1="28.000000" y1="64.000000" x2="28.000000" y2="52.000000"  style="stroke:black; stroke-linecap:round; stroke-width:0.25;"/>
<line x1="28.000000" y1="64.000000" x2="28.000000" y2="64.000000"  style="stroke:black; stroke-linecap:round; stroke-width:0.25;"/>
<line x1="28.000000" y1="72.000000" x2="36.000000" y2="72.000000"  style="stroke:black; stroke-linecap:round; stroke-width:0.25;"/>
<line x1="36.000000" y1="52.000000" x2="40.000000" y2="52.000000"  style="stroke:black; stroke-linecap:round; stroke-width:0.25;"/>
<line x1="36.000000" y1="72.000000" x2="36.000000" y2="84.000000"  style="stroke:black; stroke-linecap:round; stroke-width:0.25;"/>
<line x1="36.000000" y1="84.000000" x2="36.000000" y2="84.000000"  style="stroke:black; stroke-linecap:round; stroke-width:0.25;"/>
<line x1="36.000000" y1="84.000000" x2="40.000000" y2="84.000000"  style="stroke:black; stroke-linecap:round; stroke-width:0.25;"/>
<line x1="96.000000" y1="52.000000" x2="100.000000" y2="52.000000"  style="stroke:black; stroke-linecap:round; stroke-width:0.25;"/>
<line x1="96.000000" y1="84.000000" x2="100.000000" y2="84.000000"  style="stroke:black; stroke-linecap:round; stroke-width:0.25;"/>
<line x1="100.000000" y1="52.000000" x2="140.000000" y2="96.000000"  style="stroke:black; stroke-linecap:round; stroke-width:0.25;"/>
<line x1="100.000000" y1="84.000000" x2="140.000000" y2="104.000000"  style="stroke:black; stroke-linecap:round; stroke-width:0.25;"/>
<line x1="140.000000" y1="96.000000" x2="144.000000" y2="96.000000"  style="stroke:black; stroke-linecap:round; stroke-width:0.25;"/>
<line x1="140.000000" y1="104.000000" x2="144.000000" y2="104.000000"  style="stroke:black; stroke-linecap:round; stroke-width:0.25;"/>
<line x1="168.000000" y1="100.000000" x2="172.000000" y2="100.000000"  style="stroke:black; stroke-linecap:round; stroke-width:0.25;"/>
<line x1="172.000000" y1="100.000000" x2="172.000000" y2="100.000000"  style="stroke:black; stroke-linecap:round; stroke-width:0.25;"/>
<line x1="172.000000" y1="100.000000" x2="176.000000" y2="100.000000"  style="stroke:black; stroke-linecap:round; stroke-width:0.25;"/>
<line x1="294.550000" y1="68.000000" x2="298.550000" y2="68.000000"  style="stroke:black; stroke-linecap:round; stroke-width:0.25;"/>
<line x1="298.550000" y1="68.000000" x2="425.100000" y2="68.000000"  style="stroke:black; stroke-linecap:round; stroke-width:0.25;"/>
<line x1="315.450000" y1="36.000000" x2="319.450000" y2="36.000000"  style="stroke:black; stroke-linecap:round; stroke-width:0.25;"/>
<line x1="319.450000" y1="36.000000" x2="466.900000" y2="36.000000"  style="stroke:black; stroke-linecap:round; stroke-width:0.25;"/>
<line x1="421.100000" y1="100.000000" x2="425.100000" y2="100.000000"  style="stroke:black; stroke-linecap:round; stroke-width:0.25;"/>
<line x1="425.100000" y1="68.000000" x2="433.100000" y2="68.000000"  style="stroke:black; stroke-linecap:round; stroke-width:0.25;"/>
<line x1="425.100000" y1="88.000000" x2="433.100000" y2="88.000000"  style="stroke:black; stroke-linecap:round; stroke-width:0.25;"/>
<line x1="425.100000" y1="100.000000" x2="425.100000" y2="88.000000"  style="stroke:black; stroke-linecap:round; stroke-width:0.25;"/>
<line x1="425.100000" y1="100.000000" x2="425.100000" y2="100.000000"  style="stroke:black; stroke-linecap:round; stroke-width:0.25;"/>
<line x1="433.100000" y1="68.000000" x2="433.100000" y2="80.000000"  style="stroke:black; stroke-linecap:round; stroke-width:0.25;"/>
<line x1="433.100000" y1="80.000000" x2="433.100000" y2="80.000000"  style="stroke:black; stroke-linecap:round; stroke-width:0.25;"/>
<line x1="433.100000" y1="80.000000" x2="437.100000" y2="80.000000"  style="stroke:black; stroke-linecap:round; stroke-width:0.25;"/>
<line x1="433.100000" y1="88.000000" x2="437.100000" y2="88.000000"  style="stroke:black; stroke-linecap:round; stroke-width:0.25;"/>
<line x1="462.900000" y1="84.000000" x2="466.900000" y2="84.000000"  style="stroke:black; stroke-linecap:round; stroke-width:0.25;"/>
<line x1="466.900000" y1="72.000000" x2="474.900000" y2="72.000000"  style="stroke:black; stroke-linecap:round; stroke-width:0.25;"/>
<line x1="466.900000" y1="84.000000" x2="466.900000" y2="72.000000"  style="stroke:black; stroke-linecap:round; stroke-width:0.25;"/>
<line x1="466.900000" y1="84.000000" x2="466.900000" y2="84.000000"  style="stroke:black; stroke-linecap:round; stroke-width:0.25;"/>
<line x1="466.900000" y1="36.000000" x2="474.900000" y2="36.000000"  style="stroke:black; stroke-linecap:round; stroke-width:0.25;"/>
<line x1="474.900000" y1="64.000000" x2="474.900000" y2="64.000000"  style="stroke:black; stroke-linecap:round; stroke-width:0.25;"/>
<line x1="474.900000" y1="64.000000" x2="478.900000" y2="64.000000"  style="stroke:black; stroke-linecap:round; stroke-width:0.25;"/>
<line x1="474.900000" y1="72.000000" x2="474.900000" y2="72.000000"  style="stroke:black; stroke-linecap:round; stroke-width:0.25;"/>
<line x1="474.900000" y1="72.000000" x2="478.900000" y2="72.000000"  style="stroke:black; stroke-linecap:round; stroke-width:0.25;"/>
<line x1="474.900000" y1="36.000000" x2="474.900000" y2="64.000000"  style="stroke:black; stroke-linecap:round; stroke-width:0.25;"/>
<line x1="474.900000" y1="64.000000" x2="474.900000" y2="64.000000"  style="stroke:black; stroke-linecap:round; stroke-width:0.25;"/>
<line x1="478.900000" y1="64.000000" x2="482.900000" y2="64.000000"  style="stroke:black; stroke-linecap:round; stroke-width:0.25;"/>
<line x1="478.900000" y1="72.000000" x2="482.900000" y2="72.000000"  style="stroke:black; stroke-linecap:round; stroke-width:0.25;"/>
<line x1="482.900000" y1="64.000000" x2="492.900000" y2="64.000000"  style="stroke:black; stroke-linecap:round; stroke-width:0.25;"/>
<line x1="482.900000" y1="72.000000" x2="492.900000" y2="72.000000"  style="stroke:black; stroke-linecap:round; stroke-width:0.25;"/>
</svg>
