<?xml version="1.0"?>
<svg xmlns="http://www.w3.org/2000/svg" xmlns:xlink="http://www.w3.org/1999/xlink" viewBox="0 0 453.600000 80.000000" width="226.800000mm" height="40.000000mm" version="1.1">
<a xlink:href="leveler-0x60013c014000.svg">
<rect x="1.000000" y="1.000000" width="452.600000" height="79.000000" rx="0" ry="0" style="stroke:none;fill:#cccccc;"/>
<rect x="0.000000" y="0.000000" width="452.600000" height="79.000000" rx="0" ry="0" style="stroke:none;fill:#ffffff;"/>
</a>
<text x="10.000000" y="7.000000" font-family="Arial" font-size="7"></text>
<rect x="41.000000" y="33.000000" width="24.000000" height="24.000000" rx="0" ry="0" style="stroke:none;fill:#cccccc;"/>
<rect x="40.000000" y="32.000000" width="24.000000" height="24.000000" rx="0" ry="0" style="stroke:none;fill:#f44800;"/>
<text x="52.000000" y="46.000000" font-family="Arial" font-size="7" text-anchor="middle" fill="#FFFFFF">100</text>
<circle cx="42.000000" cy="34.000000" r="1"/>
<rect x="81.000000" y="29.000000" width="24.000000" height="24.000000" rx="0" ry="0" style="stroke:none;fill:#cccccc;"/>
<rect x="80.000000" y="28.000000" width="24.000000" height="24.000000" rx="0" ry="0" style="stroke:none;fill:#4B71A1;"/>
<text x="92.000000" y="42.000000" font-family="Arial" font-size="7" text-anchor="middle" fill="#FFFFFF">*</text>
<circle cx="82.000000" cy="30.000000" r="1"/>
<line x1="77.000000" y1="35.000000" x2="80.000000" y2="36.000000"  transform="rotate(0.000000,80.000000,36.000000)" style="stroke: black; stroke-width:0.25;"/>
<line x1="77.000000" y1="37.000000" x2="80.000000" y2="36.000000"  transform="rotate(0.000000,80.000000,36.000000)" style="stroke: black; stroke-width:0.25;"/>
<line x1="77.000000" y1="43.000000" x2="80.000000" y2="44.000000"  transform="rotate(0.000000,80.000000,44.000000)" style="stroke: black; stroke-width:0.25;"/>
<line x1="77.000000" y1="45.000000" x2="80.000000" y2="44.000000"  transform="rotate(0.000000,80.000000,44.000000)" style="stroke: black; stroke-width:0.25;"/>
<rect x="113.000000" y="29.000000" width="309.600000" height="24.000000" rx="0" ry="0" style="stroke:none;fill:#cccccc;"/>
<rect x="112.000000" y="28.000000" width="309.600000" height="24.000000" rx="0" ry="0" style="stroke:none;fill:#477881;"/>
<text x="266.800000" y="42.000000" font-family="Arial" font-size="7" text-anchor="middle" fill="#FFFFFF">vbargraph(v:soundsgood/t:expert/h:leveler/leveler brake, 0.0f, 100.0f)</text>
<circle cx="114.000000" cy="30.000000" r="1"/>
<line x1="109.000000" y1="39.000000" x2="112.000000" y2="40.000000"  transform="rotate(0.000000,112.000000,40.000000)" style="stroke: black; stroke-width:0.25;"/>
<line x1="109.000000" y1="41.000000" x2="112.000000" y2="40.000000"  transform="rotate(0.000000,112.000000,40.000000)" style="stroke: black; stroke-width:0.25;"/>
<line x1="15.000000" y1="15.000000" x2="15.000000" y2="65.000000"  style="stroke: black; stroke-linecap:round; stroke-width:0.25; stroke-dasharray:3,3;"/>
<line x1="15.000000" y1="65.000000" x2="438.600000" y2="65.000000"  style="stroke: black; stroke-linecap:round; stroke-width:0.25; stroke-dasharray:3,3;"/>
<line x1="438.600000" y1="65.000000" x2="438.600000" y2="15.000000"  style="stroke: black; stroke-linecap:round; stroke-width:0.25; stroke-dasharray:3,3;"/>
<line x1="15.000000" y1="15.000000" x2="20.000000" y2="15.000000"  style="stroke: black; stroke-linecap:round; stroke-width:0.25; stroke-dasharray:3,3;"/>
<line x1="87.725000" y1="15.000000" x2="438.600000" y2="15.000000"  style="stroke: black; stroke-linecap:round; stroke-width:0.25; stroke-dasharray:3,3;"/>
<text x="20.000000" y="17.000000" font-family="Arial" font-size="7">meter_leveler_brake</text>
<line x1="440.600000" y1="39.000000" x2="443.600000" y2="40.000000"  transform="rotate(0.000000,443.600000,40.000000)" style="stroke: black; stroke-width:0.25;"/>
<line x1="440.600000" y1="41.000000" x2="443.600000" y2="40.000000"  transform="rotate(0.000000,443.600000,40.000000)" style="stroke: black; stroke-width:0.25;"/>
<line x1="10.000000" y1="40.000000" x2="20.000000" y2="40.000000"  style="stroke:black; stroke-linecap:round; stroke-width:0.25;"/>
<line x1="20.000000" y1="40.000000" x2="24.000000" y2="40.000000"  style="stroke:black; stroke-linecap:round; stroke-width:0.25;"/>
<line x1="24.000000" y1="40.000000" x2="28.000000" y2="40.000000"  style="stroke:black; stroke-linecap:round; stroke-width:0.25;"/>
<line x1="28.000000" y1="24.000000" x2="36.000000" y2="24.000000"  style="stroke:black; stroke-linecap:round; stroke-width:0.25;"/>
<line x1="28.000000" y1="40.000000" x2="28.000000" y2="24.000000"  style="stroke:black; stroke-linecap:round; stroke-width:0.25;"/>
<line x1="28.000000" y1="40.000000" x2="28.000000" y2="40.000000"  style="stroke:black; stroke-linecap:round; stroke-width:0.25;"/>
<line x1="36.000000" y1="24.000000" x2="52.000000" y2="24.000000"  style="stroke:black; stroke-linecap:round; stroke-width:0.25;"/>
<line x1="52.000000" y1="24.000000" x2="68.000000" y2="24.000000"  style="stroke:black; stroke-linecap:round; stroke-width:0.25;"/>
<line x1="64.000000" y1="44.000000" x2="68.000000" y2="44.000000"  style="stroke:black; stroke-linecap:round; stroke-width:0.25;"/>
<line x1="68.000000" y1="24.000000" x2="76.000000" y2="24.000000"  style="stroke:black; stroke-linecap:round; stroke-width:0.25;"/>
<line x1="68.000000" y1="44.000000" x2="76.000000" y2="44.000000"  style="stroke:black; stroke-linecap:round; stroke-width:0.25;"/>
<line x1="76.000000" y1="24.000000" x2="76.000000" y2="36.000000"  style="stroke:black; stroke-linecap:round; stroke-width:0.25;"/>
<line x1="76.000000" y1="36.000000" x2="76.000000" y2="36.000000"  style="stroke:black; stroke-linecap:round; stroke-width:0.25;"/>
<line x1="76.000000" y1="36.000000" x2="80.000000" y2="36.000000"  style="stroke:black; stroke-linecap:round; stroke-width:0.25;"/>
<line x1="76.000000" y1="44.000000" x2="80.000000" y2="44.000000"  style="stroke:black; stroke-linecap:round; stroke-width:0.25;"/>
<line x1="104.000000" y1="40.000000" x2="108.000000" y2="40.000000"  style="stroke:black; stroke-linecap:round; stroke-width:0.25;"/>
<line x1="108.000000" y1="40.000000" x2="108.000000" y2="40.000000"  style="stroke:black; stroke-linecap:round; stroke-width:0.25;"/>
<line x1="108.000000" y1="40.000000" x2="112.000000" y2="40.000000"  style="stroke:black; stroke-linecap:round; stroke-width:0.25;"/>
<line x1="421.600000" y1="40.000000" x2="425.600000" y2="40.000000"  style="stroke:black; stroke-linecap:round; stroke-width:0.25;"/>
<line x1="425.600000" y1="40.000000" x2="425.600000" y2="40.000000"  style="stroke:black; stroke-linecap:round; stroke-width:0.25;"/>
<line x1="425.600000" y1="40.000000" x2="429.600000" y2="40.000000"  style="stroke:black; stroke-linecap:round; stroke-width:0.25;"/>
<line x1="429.600000" y1="40.000000" x2="433.600000" y2="40.000000"  style="stroke:black; stroke-linecap:round; stroke-width:0.25;"/>
<line x1="433.600000" y1="40.000000" x2="443.600000" y2="40.000000"  style="stroke:black; stroke-linecap:round; stroke-width:0.25;"/>
</svg>
