<?xml version="1.0"?>
<svg xmlns="http://www.w3.org/2000/svg" xmlns:xlink="http://www.w3.org/1999/xlink" viewBox="0 0 443.400000 80.000000" width="221.700000mm" height="40.000000mm" version="1.1">
<a xlink:href="brickwall-0x600150188cf0.svg">
<rect x="1.000000" y="1.000000" width="442.400000" height="79.000000" rx="0" ry="0" style="stroke:none;fill:#cccccc;"/>
<rect x="0.000000" y="0.000000" width="442.400000" height="79.000000" rx="0" ry="0" style="stroke:none;fill:#ffffff;"/>
</a>
<text x="10.000000" y="7.000000" font-family="Arial" font-size="7"></text>
<a xlink:href="linear2db-0x600150188750.svg">
<rect x="53.000000" y="33.000000" width="38.700000" height="24.000000" rx="0" ry="0" style="stroke:none;fill:#cccccc;"/>
<rect x="52.000000" y="32.000000" width="38.700000" height="24.000000" rx="0" ry="0" style="stroke:none;fill:#003366;"/>
</a>
<a xlink:href="linear2db-0x600150188750.svg">
<text x="71.350000" y="46.000000" font-family="Arial" font-size="7" text-anchor="middle" fill="#FFFFFF">linear2db</text>
</a>
<circle cx="54.000000" cy="34.000000" r="1"/>
<line x1="49.000000" y1="43.000000" x2="52.000000" y2="44.000000"  transform="rotate(0.000000,52.000000,44.000000)" style="stroke: black; stroke-width:0.25;"/>
<line x1="49.000000" y1="45.000000" x2="52.000000" y2="44.000000"  transform="rotate(0.000000,52.000000,44.000000)" style="stroke: black; stroke-width:0.25;"/>
<rect x="99.700000" y="33.000000" width="270.900000" height="24.000000" rx="0" ry="0" style="stroke:none;fill:#cccccc;"/>
<rect x="98.700000" y="32.000000" width="270.900000" height="24.000000" rx="0" ry="0" style="stroke:none;fill:#477881;"/>
<text x="234.150000" y="46.000000" font-family="Arial" font-size="7" text-anchor="middle" fill="#FFFFFF">vbargraph(v:soundsgood/t:expert/h:brickwall/lim, -20.0f, 0.0f)</text>
<circle cx="100.700000" cy="34.000000" r="1"/>
<line x1="95.700000" y1="43.000000" x2="98.700000" y2="44.000000"  transform="rotate(0.000000,98.700000,44.000000)" style="stroke: black; stroke-width:0.25;"/>
<line x1="95.700000" y1="45.000000" x2="98.700000" y2="44.000000"  transform="rotate(0.000000,98.700000,44.000000)" style="stroke: black; stroke-width:0.25;"/>
<rect x="386.600000" y="29.000000" width="25.800000" height="24.000000" rx="0" ry="0" style="stroke:none;fill:#cccccc;"/>
<rect x="385.600000" y="28.000000" width="25.800000" height="24.000000" rx="0" ry="0" style="stroke:none;fill:#4B71A1;"/>
<text x="398.500000" y="42.000000" font-family="Arial" font-size="7" text-anchor="middle" fill="#FFFFFF">attach</text>
<circle cx="387.600000" cy="30.000000" r="1"/>
<line x1="382.600000" y1="35.000000" x2="385.600000" y2="36.000000"  transform="rotate(0.000000,385.600000,36.000000)" style="stroke: black; stroke-width:0.25;"/>
<line x1="382.600000" y1="37.000000" x2="385.600000" y2="36.000000"  transform="rotate(0.000000,385.600000,36.000000)" style="stroke: black; stroke-width:0.25;"/>
<line x1="382.600000" y1="43.000000" x2="385.600000" y2="44.000000"  transform="rotate(0.000000,385.600000,44.000000)" style="stroke: black; stroke-width:0.25;"/>
<line x1="382.600000" y1="45.000000" x2="385.600000" y2="44.000000"  transform="rotate(0.000000,385.600000,44.000000)" style="stroke: black; stroke-width:0.25;"/>
<line x1="15.000000" y1="15.000000" x2="15.000000" y2="65.000000"  style="stroke: black; stroke-linecap:round; stroke-width:0.25; stroke-dasharray:3,3;"/>
<line x1="15.000000" y1="65.000000" x2="428.400000" y2="65.000000"  style="stroke: black; stroke-linecap:round; stroke-width:0.25; stroke-dasharray:3,3;"/>
<line x1="428.400000" y1="65.000000" x2="428.400000" y2="15.000000"  style="stroke: black; stroke-linecap:round; stroke-width:0.25; stroke-dasharray:3,3;"/>
<line x1="15.000000" y1="15.000000" x2="20.000000" y2="15.000000"  style="stroke: black; stroke-linecap:round; stroke-width:0.25; stroke-dasharray:3,3;"/>
<line x1="74.825000" y1="15.000000" x2="428.400000" y2="15.000000"  style="stroke: black; stroke-linecap:round; stroke-width:0.25; stroke-dasharray:3,3;"/>
<text x="20.000000" y="17.000000" font-family="Arial" font-size="7">meter_brickwall</text>
<line x1="430.400000" y1="39.000000" x2="433.400000" y2="40.000000"  transform="rotate(0.000000,433.400000,40.000000)" style="stroke: black; stroke-width:0.25;"/>
<line x1="430.400000" y1="41.000000" x2="433.400000" y2="40.000000"  transform="rotate(0.000000,433.400000,40.000000)" style="stroke: black; stroke-width:0.25;"/>
<line x1="10.000000" y1="40.000000" x2="20.000000" y2="40.000000"  style="stroke:black; stroke-linecap:round; stroke-width:0.25;"/>
<line x1="20.000000" y1="40.000000" x2="24.000000" y2="40.000000"  style="stroke:black; stroke-linecap:round; stroke-width:0.25;"/>
<line x1="24.000000" y1="40.000000" x2="28.000000" y2="40.000000"  style="stroke:black; stroke-linecap:round; stroke-width:0.25;"/>
<line x1="28.000000" y1="40.000000" x2="28.000000" y2="40.000000"  style="stroke:black; stroke-linecap:round; stroke-width:0.25;"/>
<line x1="28.000000" y1="40.000000" x2="32.000000" y2="40.000000"  style="stroke:black; stroke-linecap:round; stroke-width:0.25;"/>
<line x1="32.000000" y1="40.000000" x2="36.000000" y2="40.000000"  style="stroke:black; stroke-linecap:round; stroke-width:0.25;"/>
<line x1="36.000000" y1="40.000000" x2="48.000000" y2="24.000000"  style="stroke:black; stroke-linecap:round; stroke-width:0.25;"/>
<line x1="36.000000" y1="40.000000" x2="48.000000" y2="44.000000"  style="stroke:black; stroke-linecap:round; stroke-width:0.25;"/>
<line x1="48.000000" y1="24.000000" x2="210.800000" y2="24.000000"  style="stroke:black; stroke-linecap:round; stroke-width:0.25;"/>
<line x1="48.000000" y1="44.000000" x2="52.000000" y2="44.000000"  style="stroke:black; stroke-linecap:round; stroke-width:0.25;"/>
<line x1="90.700000" y1="44.000000" x2="94.700000" y2="44.000000"  style="stroke:black; stroke-linecap:round; stroke-width:0.25;"/>
<line x1="94.700000" y1="44.000000" x2="94.700000" y2="44.000000"  style="stroke:black; stroke-linecap:round; stroke-width:0.25;"/>
<line x1="94.700000" y1="44.000000" x2="98.700000" y2="44.000000"  style="stroke:black; stroke-linecap:round; stroke-width:0.25;"/>
<line x1="210.800000" y1="24.000000" x2="373.600000" y2="24.000000"  style="stroke:black; stroke-linecap:round; stroke-width:0.25;"/>
<line x1="369.600000" y1="44.000000" x2="373.600000" y2="44.000000"  style="stroke:black; stroke-linecap:round; stroke-width:0.25;"/>
<line x1="373.600000" y1="24.000000" x2="381.600000" y2="24.000000"  style="stroke:black; stroke-linecap:round; stroke-width:0.25;"/>
<line x1="373.600000" y1="44.000000" x2="381.600000" y2="44.000000"  style="stroke:black; stroke-linecap:round; stroke-width:0.25;"/>
<line x1="381.600000" y1="24.000000" x2="381.600000" y2="36.000000"  style="stroke:black; stroke-linecap:round; stroke-width:0.25;"/>
<line x1="381.600000" y1="36.000000" x2="381.600000" y2="36.000000"  style="stroke:black; stroke-linecap:round; stroke-width:0.25;"/>
<line x1="381.600000" y1="36.000000" x2="385.600000" y2="36.000000"  style="stroke:black; stroke-linecap:round; stroke-width:0.25;"/>
<line x1="381.600000" y1="44.000000" x2="385.600000" y2="44.000000"  style="stroke:black; stroke-linecap:round; stroke-width:0.25;"/>
<line x1="411.400000" y1="40.000000" x2="415.400000" y2="40.000000"  style="stroke:black; stroke-linecap:round; stroke-width:0.25;"/>
<line x1="415.400000" y1="40.000000" x2="415.400000" y2="40.000000"  style="stroke:black; stroke-linecap:round; stroke-width:0.25;"/>
<line x1="415.400000" y1="40.000000" x2="419.400000" y2="40.000000"  style="stroke:black; stroke-linecap:round; stroke-width:0.25;"/>
<line x1="419.400000" y1="40.000000" x2="423.400000" y2="40.000000"  style="stroke:black; stroke-linecap:round; stroke-width:0.25;"/>
<line x1="423.400000" y1="40.000000" x2="433.400000" y2="40.000000"  style="stroke:black; stroke-linecap:round; stroke-width:0.25;"/>
</svg>
