<?xml version="1.0"?>
<svg xmlns="http://www.w3.org/2000/svg" xmlns:xlink="http://www.w3.org/1999/xlink" viewBox="0 0 236.000000 388.000000" width="118.000000mm" height="194.000000mm" version="1.1">
<a xlink:href="hs-0x60014c3fc750.svg">
<rect x="1.000000" y="1.000000" width="235.000000" height="387.000000" rx="0" ry="0" style="stroke:none;fill:#cccccc;"/>
<rect x="0.000000" y="0.000000" width="235.000000" height="387.000000" rx="0" ry="0" style="stroke:none;fill:#ffffff;"/>
</a>
<text x="10.000000" y="7.000000" font-family="Arial" font-size="7"></text>
<a xlink:href="A-0x60014c3aaf40.svg">
<rect x="75.000000" y="25.000000" width="24.000000" height="24.000000" rx="0" ry="0" style="stroke:none;fill:#cccccc;"/>
<rect x="74.000000" y="24.000000" width="24.000000" height="24.000000" rx="0" ry="0" style="stroke:none;fill:#003366;"/>
</a>
<a xlink:href="A-0x60014c3aaf40.svg">
<text x="86.000000" y="38.000000" font-family="Arial" font-size="7" text-anchor="middle" fill="#FFFFFF">A</text>
</a>
<circle cx="76.000000" cy="26.000000" r="1"/>
<a xlink:href="A-0x60014c3aaf40.svg">
<rect x="75.000000" y="57.000000" width="24.000000" height="24.000000" rx="0" ry="0" style="stroke:none;fill:#cccccc;"/>
<rect x="74.000000" y="56.000000" width="24.000000" height="24.000000" rx="0" ry="0" style="stroke:none;fill:#003366;"/>
</a>
<a xlink:href="A-0x60014c3aaf40.svg">
<text x="86.000000" y="70.000000" font-family="Arial" font-size="7" text-anchor="middle" fill="#FFFFFF">A</text>
</a>
<circle cx="76.000000" cy="58.000000" r="1"/>
<rect x="115.000000" y="41.000000" width="24.000000" height="24.000000" rx="0" ry="0" style="stroke:none;fill:#cccccc;"/>
<rect x="114.000000" y="40.000000" width="24.000000" height="24.000000" rx="0" ry="0" style="stroke:none;fill:#4B71A1;"/>
<text x="126.000000" y="54.000000" font-family="Arial" font-size="7" text-anchor="middle" fill="#FFFFFF">*</text>
<circle cx="116.000000" cy="42.000000" r="1"/>
<line x1="111.000000" y1="47.000000" x2="114.000000" y2="48.000000"  transform="rotate(0.000000,114.000000,48.000000)" style="stroke: black; stroke-width:0.25;"/>
<line x1="111.000000" y1="49.000000" x2="114.000000" y2="48.000000"  transform="rotate(0.000000,114.000000,48.000000)" style="stroke: black; stroke-width:0.25;"/>
<line x1="111.000000" y1="55.000000" x2="114.000000" y2="56.000000"  transform="rotate(0.000000,114.000000,56.000000)" style="stroke: black; stroke-width:0.25;"/>
<line x1="111.000000" y1="57.000000" x2="114.000000" y2="56.000000"  transform="rotate(0.000000,114.000000,56.000000)" style="stroke: black; stroke-width:0.25;"/>
<rect x="55.000000" y="99.000000" width="24.000000" height="24.000000" rx="0" ry="0" style="stroke:none;fill:#cccccc;"/>
<rect x="54.000000" y="98.000000" width="24.000000" height="24.000000" rx="0" ry="0" style="stroke:none;fill:#f44800;"/>
<text x="66.000000" y="112.000000" font-family="Arial" font-size="7" text-anchor="middle" fill="#FFFFFF">2</text>
<circle cx="56.000000" cy="100.000000" r="1"/>
<line x1="45.000000" y1="89.000000" x2="45.000000" y2="131.000000"  style="stroke: black; stroke-linecap:round; stroke-width:0.25; stroke-dasharray:3,3;"/>
<line x1="45.000000" y1="131.000000" x2="87.000000" y2="131.000000"  style="stroke: black; stroke-linecap:round; stroke-width:0.25; stroke-dasharray:3,3;"/>
<line x1="87.000000" y1="131.000000" x2="87.000000" y2="89.000000"  style="stroke: black; stroke-linecap:round; stroke-width:0.25; stroke-dasharray:3,3;"/>
<line x1="45.000000" y1="89.000000" x2="50.000000" y2="89.000000"  style="stroke: black; stroke-linecap:round; stroke-width:0.25; stroke-dasharray:3,3;"/>
<line x1="59.675000" y1="89.000000" x2="87.000000" y2="89.000000"  style="stroke: black; stroke-linecap:round; stroke-width:0.25; stroke-dasharray:3,3;"/>
<text x="50.000000" y="91.000000" font-family="Arial" font-size="7">k</text>
<rect x="35.000000" y="151.000000" width="24.000000" height="24.000000" rx="0" ry="0" style="stroke:none;fill:#cccccc;"/>
<rect x="34.000000" y="150.000000" width="24.000000" height="24.000000" rx="0" ry="0" style="stroke:none;fill:#f44800;"/>
<text x="46.000000" y="164.000000" font-family="Arial" font-size="7" text-anchor="middle" fill="#FFFFFF">1</text>
<circle cx="36.000000" cy="152.000000" r="1"/>
<line x1="25.000000" y1="141.000000" x2="25.000000" y2="183.000000"  style="stroke: black; stroke-linecap:round; stroke-width:0.25; stroke-dasharray:3,3;"/>
<line x1="25.000000" y1="183.000000" x2="67.000000" y2="183.000000"  style="stroke: black; stroke-linecap:round; stroke-width:0.25; stroke-dasharray:3,3;"/>
<line x1="67.000000" y1="183.000000" x2="67.000000" y2="141.000000"  style="stroke: black; stroke-linecap:round; stroke-width:0.25; stroke-dasharray:3,3;"/>
<line x1="25.000000" y1="141.000000" x2="30.000000" y2="141.000000"  style="stroke: black; stroke-linecap:round; stroke-width:0.25; stroke-dasharray:3,3;"/>
<line x1="59.025000" y1="141.000000" x2="67.000000" y2="141.000000"  style="stroke: black; stroke-linecap:round; stroke-width:0.25; stroke-dasharray:3,3;"/>
<text x="30.000000" y="143.000000" font-family="Arial" font-size="7">pow2(0)</text>
<a xlink:href="A-0x60014c3aaf40.svg">
<rect x="35.000000" y="193.000000" width="24.000000" height="24.000000" rx="0" ry="0" style="stroke:none;fill:#cccccc;"/>
<rect x="34.000000" y="192.000000" width="24.000000" height="24.000000" rx="0" ry="0" style="stroke:none;fill:#003366;"/>
</a>
<a xlink:href="A-0x60014c3aaf40.svg">
<text x="46.000000" y="206.000000" font-family="Arial" font-size="7" text-anchor="middle" fill="#FFFFFF">A</text>
</a>
<circle cx="36.000000" cy="194.000000" r="1"/>
<rect x="85.000000" y="167.000000" width="24.000000" height="24.000000" rx="0" ry="0" style="stroke:none;fill:#cccccc;"/>
<rect x="84.000000" y="166.000000" width="24.000000" height="24.000000" rx="0" ry="0" style="stroke:none;fill:#4B71A1;"/>
<text x="96.000000" y="180.000000" font-family="Arial" font-size="7" text-anchor="middle" fill="#FFFFFF">-</text>
<circle cx="86.000000" cy="168.000000" r="1"/>
<line x1="81.000000" y1="173.000000" x2="84.000000" y2="174.000000"  transform="rotate(0.000000,84.000000,174.000000)" style="stroke: black; stroke-width:0.25;"/>
<line x1="81.000000" y1="175.000000" x2="84.000000" y2="174.000000"  transform="rotate(0.000000,84.000000,174.000000)" style="stroke: black; stroke-width:0.25;"/>
<line x1="81.000000" y1="181.000000" x2="84.000000" y2="182.000000"  transform="rotate(0.000000,84.000000,182.000000)" style="stroke: black; stroke-width:0.25;"/>
<line x1="81.000000" y1="183.000000" x2="84.000000" y2="182.000000"  transform="rotate(0.000000,84.000000,182.000000)" style="stroke: black; stroke-width:0.25;"/>
<rect x="125.000000" y="141.000000" width="24.000000" height="24.000000" rx="0" ry="0" style="stroke:none;fill:#cccccc;"/>
<rect x="124.000000" y="140.000000" width="24.000000" height="24.000000" rx="0" ry="0" style="stroke:none;fill:#4B71A1;"/>
<text x="136.000000" y="154.000000" font-family="Arial" font-size="7" text-anchor="middle" fill="#FFFFFF">*</text>
<circle cx="126.000000" cy="142.000000" r="1"/>
<line x1="121.000000" y1="147.000000" x2="124.000000" y2="148.000000"  transform="rotate(0.000000,124.000000,148.000000)" style="stroke: black; stroke-width:0.25;"/>
<line x1="121.000000" y1="149.000000" x2="124.000000" y2="148.000000"  transform="rotate(0.000000,124.000000,148.000000)" style="stroke: black; stroke-width:0.25;"/>
<line x1="121.000000" y1="155.000000" x2="124.000000" y2="156.000000"  transform="rotate(0.000000,124.000000,156.000000)" style="stroke: black; stroke-width:0.25;"/>
<line x1="121.000000" y1="157.000000" x2="124.000000" y2="156.000000"  transform="rotate(0.000000,124.000000,156.000000)" style="stroke: black; stroke-width:0.25;"/>
<a xlink:href="A-0x60014c3aaf40.svg">
<rect x="75.000000" y="225.000000" width="24.000000" height="24.000000" rx="0" ry="0" style="stroke:none;fill:#cccccc;"/>
<rect x="74.000000" y="224.000000" width="24.000000" height="24.000000" rx="0" ry="0" style="stroke:none;fill:#003366;"/>
</a>
<a xlink:href="A-0x60014c3aaf40.svg">
<text x="86.000000" y="238.000000" font-family="Arial" font-size="7" text-anchor="middle" fill="#FFFFFF">A</text>
</a>
<circle cx="76.000000" cy="226.000000" r="1"/>
<rect x="165.000000" y="157.000000" width="24.000000" height="24.000000" rx="0" ry="0" style="stroke:none;fill:#cccccc;"/>
<rect x="164.000000" y="156.000000" width="24.000000" height="24.000000" rx="0" ry="0" style="stroke:none;fill:#4B71A1;"/>
<text x="176.000000" y="170.000000" font-family="Arial" font-size="7" text-anchor="middle" fill="#FFFFFF">*</text>
<circle cx="166.000000" cy="158.000000" r="1"/>
<line x1="161.000000" y1="163.000000" x2="164.000000" y2="164.000000"  transform="rotate(0.000000,164.000000,164.000000)" style="stroke: black; stroke-width:0.25;"/>
<line x1="161.000000" y1="165.000000" x2="164.000000" y2="164.000000"  transform="rotate(0.000000,164.000000,164.000000)" style="stroke: black; stroke-width:0.25;"/>
<line x1="161.000000" y1="171.000000" x2="164.000000" y2="172.000000"  transform="rotate(0.000000,164.000000,172.000000)" style="stroke: black; stroke-width:0.25;"/>
<line x1="161.000000" y1="173.000000" x2="164.000000" y2="172.000000"  transform="rotate(0.000000,164.000000,172.000000)" style="stroke: black; stroke-width:0.25;"/>
<rect x="75.000000" y="267.000000" width="24.000000" height="24.000000" rx="0" ry="0" style="stroke:none;fill:#cccccc;"/>
<rect x="74.000000" y="266.000000" width="24.000000" height="24.000000" rx="0" ry="0" style="stroke:none;fill:#f44800;"/>
<text x="86.000000" y="280.000000" font-family="Arial" font-size="7" text-anchor="middle" fill="#FFFFFF">1</text>
<circle cx="76.000000" cy="268.000000" r="1"/>
<line x1="65.000000" y1="257.000000" x2="65.000000" y2="299.000000"  style="stroke: black; stroke-linecap:round; stroke-width:0.25; stroke-dasharray:3,3;"/>
<line x1="65.000000" y1="299.000000" x2="107.000000" y2="299.000000"  style="stroke: black; stroke-linecap:round; stroke-width:0.25; stroke-dasharray:3,3;"/>
<line x1="107.000000" y1="299.000000" x2="107.000000" y2="257.000000"  style="stroke: black; stroke-linecap:round; stroke-width:0.25; stroke-dasharray:3,3;"/>
<line x1="65.000000" y1="257.000000" x2="70.000000" y2="257.000000"  style="stroke: black; stroke-linecap:round; stroke-width:0.25; stroke-dasharray:3,3;"/>
<line x1="99.025000" y1="257.000000" x2="107.000000" y2="257.000000"  style="stroke: black; stroke-linecap:round; stroke-width:0.25; stroke-dasharray:3,3;"/>
<text x="70.000000" y="259.000000" font-family="Arial" font-size="7">pow2(0)</text>
<a xlink:href="A-0x60014c3aaf40.svg">
<rect x="55.000000" y="309.000000" width="24.000000" height="24.000000" rx="0" ry="0" style="stroke:none;fill:#cccccc;"/>
<rect x="54.000000" y="308.000000" width="24.000000" height="24.000000" rx="0" ry="0" style="stroke:none;fill:#003366;"/>
</a>
<a xlink:href="A-0x60014c3aaf40.svg">
<text x="66.000000" y="322.000000" font-family="Arial" font-size="7" text-anchor="middle" fill="#FFFFFF">A</text>
</a>
<circle cx="56.000000" cy="310.000000" r="1"/>
<a xlink:href="A-0x60014c3aaf40.svg">
<rect x="55.000000" y="341.000000" width="24.000000" height="24.000000" rx="0" ry="0" style="stroke:none;fill:#cccccc;"/>
<rect x="54.000000" y="340.000000" width="24.000000" height="24.000000" rx="0" ry="0" style="stroke:none;fill:#003366;"/>
</a>
<a xlink:href="A-0x60014c3aaf40.svg">
<text x="66.000000" y="354.000000" font-family="Arial" font-size="7" text-anchor="middle" fill="#FFFFFF">A</text>
</a>
<circle cx="56.000000" cy="342.000000" r="1"/>
<rect x="95.000000" y="325.000000" width="24.000000" height="24.000000" rx="0" ry="0" style="stroke:none;fill:#cccccc;"/>
<rect x="94.000000" y="324.000000" width="24.000000" height="24.000000" rx="0" ry="0" style="stroke:none;fill:#4B71A1;"/>
<text x="106.000000" y="338.000000" font-family="Arial" font-size="7" text-anchor="middle" fill="#FFFFFF">*</text>
<circle cx="96.000000" cy="326.000000" r="1"/>
<line x1="91.000000" y1="331.000000" x2="94.000000" y2="332.000000"  transform="rotate(0.000000,94.000000,332.000000)" style="stroke: black; stroke-width:0.25;"/>
<line x1="91.000000" y1="333.000000" x2="94.000000" y2="332.000000"  transform="rotate(0.000000,94.000000,332.000000)" style="stroke: black; stroke-width:0.25;"/>
<line x1="91.000000" y1="339.000000" x2="94.000000" y2="340.000000"  transform="rotate(0.000000,94.000000,340.000000)" style="stroke: black; stroke-width:0.25;"/>
<line x1="91.000000" y1="341.000000" x2="94.000000" y2="340.000000"  transform="rotate(0.000000,94.000000,340.000000)" style="stroke: black; stroke-width:0.25;"/>
<rect x="135.000000" y="299.000000" width="24.000000" height="24.000000" rx="0" ry="0" style="stroke:none;fill:#cccccc;"/>
<rect x="134.000000" y="298.000000" width="24.000000" height="24.000000" rx="0" ry="0" style="stroke:none;fill:#4B71A1;"/>
<text x="146.000000" y="312.000000" font-family="Arial" font-size="7" text-anchor="middle" fill="#FFFFFF">-</text>
<circle cx="136.000000" cy="300.000000" r="1"/>
<line x1="131.000000" y1="305.000000" x2="134.000000" y2="306.000000"  transform="rotate(0.000000,134.000000,306.000000)" style="stroke: black; stroke-width:0.25;"/>
<line x1="131.000000" y1="307.000000" x2="134.000000" y2="306.000000"  transform="rotate(0.000000,134.000000,306.000000)" style="stroke: black; stroke-width:0.25;"/>
<line x1="131.000000" y1="313.000000" x2="134.000000" y2="314.000000"  transform="rotate(0.000000,134.000000,314.000000)" style="stroke: black; stroke-width:0.25;"/>
<line x1="131.000000" y1="315.000000" x2="134.000000" y2="314.000000"  transform="rotate(0.000000,134.000000,314.000000)" style="stroke: black; stroke-width:0.25;"/>
<line x1="15.000000" y1="15.000000" x2="15.000000" y2="373.000000"  style="stroke: black; stroke-linecap:round; stroke-width:0.25; stroke-dasharray:3,3;"/>
<line x1="15.000000" y1="373.000000" x2="221.000000" y2="373.000000"  style="stroke: black; stroke-linecap:round; stroke-width:0.25; stroke-dasharray:3,3;"/>
<line x1="221.000000" y1="373.000000" x2="221.000000" y2="15.000000"  style="stroke: black; stroke-linecap:round; stroke-width:0.25; stroke-dasharray:3,3;"/>
<line x1="15.000000" y1="15.000000" x2="20.000000" y2="15.000000"  style="stroke: black; stroke-linecap:round; stroke-width:0.25; stroke-dasharray:3,3;"/>
<line x1="36.125000" y1="15.000000" x2="221.000000" y2="15.000000"  style="stroke: black; stroke-linecap:round; stroke-width:0.25; stroke-dasharray:3,3;"/>
<text x="20.000000" y="17.000000" font-family="Arial" font-size="7">mix</text>
<line x1="223.000000" y1="185.000000" x2="226.000000" y2="186.000000"  transform="rotate(0.000000,226.000000,186.000000)" style="stroke: black; stroke-width:0.25;"/>
<line x1="223.000000" y1="187.000000" x2="226.000000" y2="186.000000"  transform="rotate(0.000000,226.000000,186.000000)" style="stroke: black; stroke-width:0.25;"/>
<line x1="223.000000" y1="193.000000" x2="226.000000" y2="194.000000"  transform="rotate(0.000000,226.000000,194.000000)" style="stroke: black; stroke-width:0.25;"/>
<line x1="223.000000" y1="195.000000" x2="226.000000" y2="194.000000"  transform="rotate(0.000000,226.000000,194.000000)" style="stroke: black; stroke-width:0.25;"/>
<line x1="223.000000" y1="201.000000" x2="226.000000" y2="202.000000"  transform="rotate(0.000000,226.000000,202.000000)" style="stroke: black; stroke-width:0.25;"/>
<line x1="223.000000" y1="203.000000" x2="226.000000" y2="202.000000"  transform="rotate(0.000000,226.000000,202.000000)" style="stroke: black; stroke-width:0.25;"/>
<line x1="58.000000" y1="162.000000" x2="62.000000" y2="162.000000"  style="stroke:black; stroke-linecap:round; stroke-width:0.25;"/>
<line x1="58.000000" y1="204.000000" x2="62.000000" y2="204.000000"  style="stroke:black; stroke-linecap:round; stroke-width:0.25;"/>
<line x1="62.000000" y1="162.000000" x2="72.000000" y2="162.000000"  style="stroke:black; stroke-linecap:round; stroke-width:0.25;"/>
<line x1="62.000000" y1="204.000000" x2="72.000000" y2="204.000000"  style="stroke:black; stroke-linecap:round; stroke-width:0.25;"/>
<line x1="72.000000" y1="162.000000" x2="80.000000" y2="162.000000"  style="stroke:black; stroke-linecap:round; stroke-width:0.25;"/>
<line x1="72.000000" y1="182.000000" x2="80.000000" y2="182.000000"  style="stroke:black; stroke-linecap:round; stroke-width:0.25;"/>
<line x1="72.000000" y1="204.000000" x2="72.000000" y2="182.000000"  style="stroke:black; stroke-linecap:round; stroke-width:0.25;"/>
<line x1="72.000000" y1="204.000000" x2="72.000000" y2="204.000000"  style="stroke:black; stroke-linecap:round; stroke-width:0.25;"/>
<line x1="78.000000" y1="110.000000" x2="82.000000" y2="110.000000"  style="stroke:black; stroke-linecap:round; stroke-width:0.25;"/>
<line x1="78.000000" y1="320.000000" x2="82.000000" y2="320.000000"  style="stroke:black; stroke-linecap:round; stroke-width:0.25;"/>
<line x1="78.000000" y1="352.000000" x2="82.000000" y2="352.000000"  style="stroke:black; stroke-linecap:round; stroke-width:0.25;"/>
<line x1="80.000000" y1="162.000000" x2="80.000000" y2="174.000000"  style="stroke:black; stroke-linecap:round; stroke-width:0.25;"/>
<line x1="80.000000" y1="174.000000" x2="80.000000" y2="174.000000"  style="stroke:black; stroke-linecap:round; stroke-width:0.25;"/>
<line x1="80.000000" y1="174.000000" x2="84.000000" y2="174.000000"  style="stroke:black; stroke-linecap:round; stroke-width:0.25;"/>
<line x1="80.000000" y1="182.000000" x2="84.000000" y2="182.000000"  style="stroke:black; stroke-linecap:round; stroke-width:0.25;"/>
<line x1="82.000000" y1="110.000000" x2="92.000000" y2="110.000000"  style="stroke:black; stroke-linecap:round; stroke-width:0.25;"/>
<line x1="82.000000" y1="320.000000" x2="90.000000" y2="320.000000"  style="stroke:black; stroke-linecap:round; stroke-width:0.25;"/>
<line x1="82.000000" y1="340.000000" x2="90.000000" y2="340.000000"  style="stroke:black; stroke-linecap:round; stroke-width:0.25;"/>
<line x1="82.000000" y1="352.000000" x2="82.000000" y2="340.000000"  style="stroke:black; stroke-linecap:round; stroke-width:0.25;"/>
<line x1="82.000000" y1="352.000000" x2="82.000000" y2="352.000000"  style="stroke:black; stroke-linecap:round; stroke-width:0.25;"/>
<line x1="90.000000" y1="320.000000" x2="90.000000" y2="332.000000"  style="stroke:black; stroke-linecap:round; stroke-width:0.25;"/>
<line x1="90.000000" y1="332.000000" x2="90.000000" y2="332.000000"  style="stroke:black; stroke-linecap:round; stroke-width:0.25;"/>
<line x1="90.000000" y1="332.000000" x2="94.000000" y2="332.000000"  style="stroke:black; stroke-linecap:round; stroke-width:0.25;"/>
<line x1="90.000000" y1="340.000000" x2="94.000000" y2="340.000000"  style="stroke:black; stroke-linecap:round; stroke-width:0.25;"/>
<line x1="92.000000" y1="110.000000" x2="112.000000" y2="110.000000"  style="stroke:black; stroke-linecap:round; stroke-width:0.25;"/>
<line x1="98.000000" y1="36.000000" x2="102.000000" y2="36.000000"  style="stroke:black; stroke-linecap:round; stroke-width:0.25;"/>
<line x1="98.000000" y1="68.000000" x2="102.000000" y2="68.000000"  style="stroke:black; stroke-linecap:round; stroke-width:0.25;"/>
<line x1="98.000000" y1="236.000000" x2="102.000000" y2="236.000000"  style="stroke:black; stroke-linecap:round; stroke-width:0.25;"/>
<line x1="98.000000" y1="278.000000" x2="102.000000" y2="278.000000"  style="stroke:black; stroke-linecap:round; stroke-width:0.25;"/>
<line x1="102.000000" y1="36.000000" x2="110.000000" y2="36.000000"  style="stroke:black; stroke-linecap:round; stroke-width:0.25;"/>
<line x1="102.000000" y1="56.000000" x2="110.000000" y2="56.000000"  style="stroke:black; stroke-linecap:round; stroke-width:0.25;"/>
<line x1="102.000000" y1="68.000000" x2="102.000000" y2="56.000000"  style="stroke:black; stroke-linecap:round; stroke-width:0.25;"/>
<line x1="102.000000" y1="68.000000" x2="102.000000" y2="68.000000"  style="stroke:black; stroke-linecap:round; stroke-width:0.25;"/>
<line x1="102.000000" y1="236.000000" x2="152.000000" y2="236.000000"  style="stroke:black; stroke-linecap:round; stroke-width:0.25;"/>
<line x1="102.000000" y1="278.000000" x2="112.000000" y2="278.000000"  style="stroke:black; stroke-linecap:round; stroke-width:0.25;"/>
<line x1="108.000000" y1="178.000000" x2="112.000000" y2="178.000000"  style="stroke:black; stroke-linecap:round; stroke-width:0.25;"/>
<line x1="110.000000" y1="36.000000" x2="110.000000" y2="48.000000"  style="stroke:black; stroke-linecap:round; stroke-width:0.25;"/>
<line x1="110.000000" y1="48.000000" x2="110.000000" y2="48.000000"  style="stroke:black; stroke-linecap:round; stroke-width:0.25;"/>
<line x1="110.000000" y1="48.000000" x2="114.000000" y2="48.000000"  style="stroke:black; stroke-linecap:round; stroke-width:0.25;"/>
<line x1="110.000000" y1="56.000000" x2="114.000000" y2="56.000000"  style="stroke:black; stroke-linecap:round; stroke-width:0.25;"/>
<line x1="112.000000" y1="110.000000" x2="120.000000" y2="110.000000"  style="stroke:black; stroke-linecap:round; stroke-width:0.25;"/>
<line x1="112.000000" y1="156.000000" x2="120.000000" y2="156.000000"  style="stroke:black; stroke-linecap:round; stroke-width:0.25;"/>
<line x1="112.000000" y1="178.000000" x2="112.000000" y2="156.000000"  style="stroke:black; stroke-linecap:round; stroke-width:0.25;"/>
<line x1="112.000000" y1="178.000000" x2="112.000000" y2="178.000000"  style="stroke:black; stroke-linecap:round; stroke-width:0.25;"/>
<line x1="112.000000" y1="278.000000" x2="122.000000" y2="278.000000"  style="stroke:black; stroke-linecap:round; stroke-width:0.25;"/>
<line x1="118.000000" y1="336.000000" x2="122.000000" y2="336.000000"  style="stroke:black; stroke-linecap:round; stroke-width:0.25;"/>
<line x1="120.000000" y1="110.000000" x2="120.000000" y2="148.000000"  style="stroke:black; stroke-linecap:round; stroke-width:0.25;"/>
<line x1="120.000000" y1="148.000000" x2="120.000000" y2="148.000000"  style="stroke:black; stroke-linecap:round; stroke-width:0.25;"/>
<line x1="120.000000" y1="148.000000" x2="124.000000" y2="148.000000"  style="stroke:black; stroke-linecap:round; stroke-width:0.25;"/>
<line x1="120.000000" y1="156.000000" x2="124.000000" y2="156.000000"  style="stroke:black; stroke-linecap:round; stroke-width:0.25;"/>
<line x1="122.000000" y1="278.000000" x2="130.000000" y2="278.000000"  style="stroke:black; stroke-linecap:round; stroke-width:0.25;"/>
<line x1="122.000000" y1="314.000000" x2="130.000000" y2="314.000000"  style="stroke:black; stroke-linecap:round; stroke-width:0.25;"/>
<line x1="122.000000" y1="336.000000" x2="122.000000" y2="314.000000"  style="stroke:black; stroke-linecap:round; stroke-width:0.25;"/>
<line x1="122.000000" y1="336.000000" x2="122.000000" y2="336.000000"  style="stroke:black; stroke-linecap:round; stroke-width:0.25;"/>
<line x1="130.000000" y1="278.000000" x2="130.000000" y2="306.000000"  style="stroke:black; stroke-linecap:round; stroke-width:0.25;"/>
<line x1="130.000000" y1="306.000000" x2="130.000000" y2="306.000000"  style="stroke:black; stroke-linecap:round; stroke-width:0.25;"/>
<line x1="130.000000" y1="306.000000" x2="134.000000" y2="306.000000"  style="stroke:black; stroke-linecap:round; stroke-width:0.25;"/>
<line x1="130.000000" y1="314.000000" x2="134.000000" y2="314.000000"  style="stroke:black; stroke-linecap:round; stroke-width:0.25;"/>
<line x1="138.000000" y1="52.000000" x2="142.000000" y2="52.000000"  style="stroke:black; stroke-linecap:round; stroke-width:0.25;"/>
<line x1="142.000000" y1="52.000000" x2="192.000000" y2="52.000000"  style="stroke:black; stroke-linecap:round; stroke-width:0.25;"/>
<line x1="148.000000" y1="152.000000" x2="152.000000" y2="152.000000"  style="stroke:black; stroke-linecap:round; stroke-width:0.25;"/>
<line x1="152.000000" y1="152.000000" x2="160.000000" y2="152.000000"  style="stroke:black; stroke-linecap:round; stroke-width:0.25;"/>
<line x1="152.000000" y1="172.000000" x2="160.000000" y2="172.000000"  style="stroke:black; stroke-linecap:round; stroke-width:0.25;"/>
<line x1="152.000000" y1="236.000000" x2="152.000000" y2="172.000000"  style="stroke:black; stroke-linecap:round; stroke-width:0.25;"/>
<line x1="152.000000" y1="236.000000" x2="152.000000" y2="236.000000"  style="stroke:black; stroke-linecap:round; stroke-width:0.25;"/>
<line x1="158.000000" y1="310.000000" x2="162.000000" y2="310.000000"  style="stroke:black; stroke-linecap:round; stroke-width:0.25;"/>
<line x1="160.000000" y1="152.000000" x2="160.000000" y2="164.000000"  style="stroke:black; stroke-linecap:round; stroke-width:0.25;"/>
<line x1="160.000000" y1="164.000000" x2="160.000000" y2="164.000000"  style="stroke:black; stroke-linecap:round; stroke-width:0.25;"/>
<line x1="160.000000" y1="164.000000" x2="164.000000" y2="164.000000"  style="stroke:black; stroke-linecap:round; stroke-width:0.25;"/>
<line x1="160.000000" y1="172.000000" x2="164.000000" y2="172.000000"  style="stroke:black; stroke-linecap:round; stroke-width:0.25;"/>
<line x1="162.000000" y1="310.000000" x2="192.000000" y2="310.000000"  style="stroke:black; stroke-linecap:round; stroke-width:0.25;"/>
<line x1="188.000000" y1="168.000000" x2="192.000000" y2="168.000000"  style="stroke:black; stroke-linecap:round; stroke-width:0.25;"/>
<line x1="192.000000" y1="52.000000" x2="208.000000" y2="52.000000"  style="stroke:black; stroke-linecap:round; stroke-width:0.25;"/>
<line x1="192.000000" y1="168.000000" x2="200.000000" y2="168.000000"  style="stroke:black; stroke-linecap:round; stroke-width:0.25;"/>
<line x1="192.000000" y1="202.000000" x2="208.000000" y2="202.000000"  style="stroke:black; stroke-linecap:round; stroke-width:0.25;"/>
<line x1="192.000000" y1="310.000000" x2="192.000000" y2="202.000000"  style="stroke:black; stroke-linecap:round; stroke-width:0.25;"/>
<line x1="192.000000" y1="310.000000" x2="192.000000" y2="310.000000"  style="stroke:black; stroke-linecap:round; stroke-width:0.25;"/>
<line x1="200.000000" y1="168.000000" x2="200.000000" y2="194.000000"  style="stroke:black; stroke-linecap:round; stroke-width:0.25;"/>
<line x1="200.000000" y1="194.000000" x2="208.000000" y2="194.000000"  style="stroke:black; stroke-linecap:round; stroke-width:0.25;"/>
<line x1="208.000000" y1="52.000000" x2="208.000000" y2="186.000000"  style="stroke:black; stroke-linecap:round; stroke-width:0.25;"/>
<line x1="208.000000" y1="186.000000" x2="208.000000" y2="186.000000"  style="stroke:black; stroke-linecap:round; stroke-width:0.25;"/>
<line x1="208.000000" y1="186.000000" x2="212.000000" y2="186.000000"  style="stroke:black; stroke-linecap:round; stroke-width:0.25;"/>
<line x1="208.000000" y1="194.000000" x2="212.000000" y2="194.000000"  style="stroke:black; stroke-linecap:round; stroke-width:0.25;"/>
<line x1="208.000000" y1="202.000000" x2="212.000000" y2="202.000000"  style="stroke:black; stroke-linecap:round; stroke-width:0.25;"/>
<line x1="212.000000" y1="186.000000" x2="216.000000" y2="186.000000"  style="stroke:black; stroke-linecap:round; stroke-width:0.25;"/>
<line x1="212.000000" y1="194.000000" x2="216.000000" y2="194.000000"  style="stroke:black; stroke-linecap:round; stroke-width:0.25;"/>
<line x1="212.000000" y1="202.000000" x2="216.000000" y2="202.000000"  style="stroke:black; stroke-linecap:round; stroke-width:0.25;"/>
<line x1="216.000000" y1="186.000000" x2="226.000000" y2="186.000000"  style="stroke:black; stroke-linecap:round; stroke-width:0.25;"/>
<line x1="216.000000" y1="194.000000" x2="226.000000" y2="194.000000"  style="stroke:black; stroke-linecap:round; stroke-width:0.25;"/>
<line x1="216.000000" y1="202.000000" x2="226.000000" y2="202.000000"  style="stroke:black; stroke-linecap:round; stroke-width:0.25;"/>
</svg>
