<?xml version="1.0"?>
<svg xmlns="http://www.w3.org/2000/svg" xmlns:xlink="http://www.w3.org/1999/xlink" viewBox="0 0 124.000000 104.000000" width="62.000000mm" height="52.000000mm" version="1.1">
<a xlink:href="mscomp-0x60014c3ee7f0.svg">
<rect x="1.000000" y="1.000000" width="123.000000" height="103.000000" rx="0" ry="0" style="stroke:none;fill:#cccccc;"/>
<rect x="0.000000" y="0.000000" width="123.000000" height="103.000000" rx="0" ry="0" style="stroke:none;fill:#ffffff;"/>
</a>
<text x="10.000000" y="7.000000" font-family="Arial" font-size="7"></text>
<rect x="61.000000" y="25.000000" width="24.000000" height="24.000000" rx="0" ry="0" style="stroke:none;fill:#cccccc;"/>
<rect x="60.000000" y="24.000000" width="24.000000" height="24.000000" rx="0" ry="0" style="stroke:none;fill:#4B71A1;"/>
<text x="72.000000" y="38.000000" font-family="Arial" font-size="7" text-anchor="middle" fill="#FFFFFF">+</text>
<circle cx="62.000000" cy="26.000000" r="1"/>
<line x1="57.000000" y1="31.000000" x2="60.000000" y2="32.000000"  transform="rotate(0.000000,60.000000,32.000000)" style="stroke: black; stroke-width:0.25;"/>
<line x1="57.000000" y1="33.000000" x2="60.000000" y2="32.000000"  transform="rotate(0.000000,60.000000,32.000000)" style="stroke: black; stroke-width:0.25;"/>
<line x1="57.000000" y1="39.000000" x2="60.000000" y2="40.000000"  transform="rotate(0.000000,60.000000,40.000000)" style="stroke: black; stroke-width:0.25;"/>
<line x1="57.000000" y1="41.000000" x2="60.000000" y2="40.000000"  transform="rotate(0.000000,60.000000,40.000000)" style="stroke: black; stroke-width:0.25;"/>
<rect x="61.000000" y="57.000000" width="24.000000" height="24.000000" rx="0" ry="0" style="stroke:none;fill:#cccccc;"/>
<rect x="60.000000" y="56.000000" width="24.000000" height="24.000000" rx="0" ry="0" style="stroke:none;fill:#4B71A1;"/>
<text x="72.000000" y="70.000000" font-family="Arial" font-size="7" text-anchor="middle" fill="#FFFFFF">-</text>
<circle cx="62.000000" cy="58.000000" r="1"/>
<line x1="57.000000" y1="63.000000" x2="60.000000" y2="64.000000"  transform="rotate(0.000000,60.000000,64.000000)" style="stroke: black; stroke-width:0.25;"/>
<line x1="57.000000" y1="65.000000" x2="60.000000" y2="64.000000"  transform="rotate(0.000000,60.000000,64.000000)" style="stroke: black; stroke-width:0.25;"/>
<line x1="57.000000" y1="71.000000" x2="60.000000" y2="72.000000"  transform="rotate(0.000000,60.000000,72.000000)" style="stroke: black; stroke-width:0.25;"/>
<line x1="57.000000" y1="73.000000" x2="60.000000" y2="72.000000"  transform="rotate(0.000000,60.000000,72.000000)" style="stroke: black; stroke-width:0.25;"/>
<line x1="15.000000" y1="15.000000" x2="15.000000" y2="89.000000"  style="stroke: black; stroke-linecap:round; stroke-width:0.25; stroke-dasharray:3,3;"/>
<line x1="15.000000" y1="89.000000" x2="109.000000" y2="89.000000"  style="stroke: black; stroke-linecap:round; stroke-width:0.25; stroke-dasharray:3,3;"/>
<line x1="109.000000" y1="89.000000" x2="109.000000" y2="15.000000"  style="stroke: black; stroke-linecap:round; stroke-width:0.25; stroke-dasharray:3,3;"/>
<line x1="15.000000" y1="15.000000" x2="20.000000" y2="15.000000"  style="stroke: black; stroke-linecap:round; stroke-width:0.25; stroke-dasharray:3,3;"/>
<line x1="45.800000" y1="15.000000" x2="109.000000" y2="15.000000"  style="stroke: black; stroke-linecap:round; stroke-width:0.25; stroke-dasharray:3,3;"/>
<text x="20.000000" y="17.000000" font-family="Arial" font-size="7">ms_dec</text>
<line x1="111.000000" y1="47.000000" x2="114.000000" y2="48.000000"  transform="rotate(0.000000,114.000000,48.000000)" style="stroke: black; stroke-width:0.25;"/>
<line x1="111.000000" y1="49.000000" x2="114.000000" y2="48.000000"  transform="rotate(0.000000,114.000000,48.000000)" style="stroke: black; stroke-width:0.25;"/>
<line x1="111.000000" y1="55.000000" x2="114.000000" y2="56.000000"  transform="rotate(0.000000,114.000000,56.000000)" style="stroke: black; stroke-width:0.25;"/>
<line x1="111.000000" y1="57.000000" x2="114.000000" y2="56.000000"  transform="rotate(0.000000,114.000000,56.000000)" style="stroke: black; stroke-width:0.25;"/>
<line x1="10.000000" y1="48.000000" x2="20.000000" y2="48.000000"  style="stroke:black; stroke-linecap:round; stroke-width:0.25;"/>
<line x1="10.000000" y1="56.000000" x2="20.000000" y2="56.000000"  style="stroke:black; stroke-linecap:round; stroke-width:0.25;"/>
<line x1="20.000000" y1="48.000000" x2="24.000000" y2="48.000000"  style="stroke:black; stroke-linecap:round; stroke-width:0.25;"/>
<line x1="20.000000" y1="56.000000" x2="24.000000" y2="56.000000"  style="stroke:black; stroke-linecap:round; stroke-width:0.25;"/>
<line x1="24.000000" y1="48.000000" x2="28.000000" y2="48.000000"  style="stroke:black; stroke-linecap:round; stroke-width:0.25;"/>
<line x1="24.000000" y1="56.000000" x2="28.000000" y2="56.000000"  style="stroke:black; stroke-linecap:round; stroke-width:0.25;"/>
<line x1="28.000000" y1="48.000000" x2="28.000000" y2="48.000000"  style="stroke:black; stroke-linecap:round; stroke-width:0.25;"/>
<line x1="28.000000" y1="48.000000" x2="32.000000" y2="48.000000"  style="stroke:black; stroke-linecap:round; stroke-width:0.25;"/>
<line x1="28.000000" y1="56.000000" x2="28.000000" y2="56.000000"  style="stroke:black; stroke-linecap:round; stroke-width:0.25;"/>
<line x1="28.000000" y1="56.000000" x2="32.000000" y2="56.000000"  style="stroke:black; stroke-linecap:round; stroke-width:0.25;"/>
<line x1="32.000000" y1="48.000000" x2="36.000000" y2="48.000000"  style="stroke:black; stroke-linecap:round; stroke-width:0.25;"/>
<line x1="32.000000" y1="56.000000" x2="36.000000" y2="56.000000"  style="stroke:black; stroke-linecap:round; stroke-width:0.25;"/>
<line x1="36.000000" y1="48.000000" x2="56.000000" y2="32.000000"  style="stroke:black; stroke-linecap:round; stroke-width:0.25;"/>
<line x1="36.000000" y1="48.000000" x2="56.000000" y2="64.000000"  style="stroke:black; stroke-linecap:round; stroke-width:0.25;"/>
<line x1="36.000000" y1="56.000000" x2="56.000000" y2="40.000000"  style="stroke:black; stroke-linecap:round; stroke-width:0.25;"/>
<line x1="36.000000" y1="56.000000" x2="56.000000" y2="72.000000"  style="stroke:black; stroke-linecap:round; stroke-width:0.25;"/>
<line x1="56.000000" y1="32.000000" x2="60.000000" y2="32.000000"  style="stroke:black; stroke-linecap:round; stroke-width:0.25;"/>
<line x1="56.000000" y1="40.000000" x2="60.000000" y2="40.000000"  style="stroke:black; stroke-linecap:round; stroke-width:0.25;"/>
<line x1="56.000000" y1="64.000000" x2="60.000000" y2="64.000000"  style="stroke:black; stroke-linecap:round; stroke-width:0.25;"/>
<line x1="56.000000" y1="72.000000" x2="60.000000" y2="72.000000"  style="stroke:black; stroke-linecap:round; stroke-width:0.25;"/>
<line x1="84.000000" y1="36.000000" x2="88.000000" y2="36.000000"  style="stroke:black; stroke-linecap:round; stroke-width:0.25;"/>
<line x1="84.000000" y1="68.000000" x2="88.000000" y2="68.000000"  style="stroke:black; stroke-linecap:round; stroke-width:0.25;"/>
<line x1="88.000000" y1="36.000000" x2="96.000000" y2="36.000000"  style="stroke:black; stroke-linecap:round; stroke-width:0.25;"/>
<line x1="88.000000" y1="56.000000" x2="96.000000" y2="56.000000"  style="stroke:black; stroke-linecap:round; stroke-width:0.25;"/>
<line x1="88.000000" y1="68.000000" x2="88.000000" y2="56.000000"  style="stroke:black; stroke-linecap:round; stroke-width:0.25;"/>
<line x1="88.000000" y1="68.000000" x2="88.000000" y2="68.000000"  style="stroke:black; stroke-linecap:round; stroke-width:0.25;"/>
<line x1="96.000000" y1="36.000000" x2="96.000000" y2="48.000000"  style="stroke:black; stroke-linecap:round; stroke-width:0.25;"/>
<line x1="96.000000" y1="48.000000" x2="96.000000" y2="48.000000"  style="stroke:black; stroke-linecap:round; stroke-width:0.25;"/>
<line x1="96.000000" y1="48.000000" x2="100.000000" y2="48.000000"  style="stroke:black; stroke-linecap:round; stroke-width:0.25;"/>
<line x1="96.000000" y1="56.000000" x2="100.000000" y2="56.000000"  style="stroke:black; stroke-linecap:round; stroke-width:0.25;"/>
<line x1="100.000000" y1="48.000000" x2="104.000000" y2="48.000000"  style="stroke:black; stroke-linecap:round; stroke-width:0.25;"/>
<line x1="100.000000" y1="56.000000" x2="104.000000" y2="56.000000"  style="stroke:black; stroke-linecap:round; stroke-width:0.25;"/>
<line x1="104.000000" y1="48.000000" x2="114.000000" y2="48.000000"  style="stroke:black; stroke-linecap:round; stroke-width:0.25;"/>
<line x1="104.000000" y1="56.000000" x2="114.000000" y2="56.000000"  style="stroke:black; stroke-linecap:round; stroke-width:0.25;"/>
</svg>
