<?xml version="1.0"?>
<svg xmlns="http://www.w3.org/2000/svg" xmlns:xlink="http://www.w3.org/1999/xlink" viewBox="0 0 438.100000 72.000000" width="219.050000mm" height="36.000000mm" version="1.1">
<a xlink:href="outputGain-0x60014c3edc20.svg">
<rect x="1.000000" y="1.000000" width="437.100000" height="71.000000" rx="0" ry="0" style="stroke:none;fill:#cccccc;"/>
<rect x="0.000000" y="0.000000" width="437.100000" height="71.000000" rx="0" ry="0" style="stroke:none;fill:#ffffff;"/>
</a>
<text x="10.000000" y="7.000000" font-family="Arial" font-size="7"></text>
<rect x="25.000000" y="25.000000" width="335.400000" height="24.000000" rx="0" ry="0" style="stroke:none;fill:#cccccc;"/>
<rect x="24.000000" y="24.000000" width="335.400000" height="24.000000" rx="0" ry="0" style="stroke:none;fill:#477881;"/>
<text x="191.700000" y="38.000000" font-family="Arial" font-size="7" text-anchor="middle" fill="#FFFFFF">vslider(v:soundsgood/t:expert/h:mscomp/h:out/makeup, 1.0f, -6.0f, 6.0f, 0.5f)</text>
<circle cx="26.000000" cy="26.000000" r="1"/>
<a xlink:href="db2linear-0x60014c3ed9e0.svg">
<rect x="368.400000" y="25.000000" width="38.700000" height="24.000000" rx="0" ry="0" style="stroke:none;fill:#cccccc;"/>
<rect x="367.400000" y="24.000000" width="38.700000" height="24.000000" rx="0" ry="0" style="stroke:none;fill:#003366;"/>
</a>
<a xlink:href="db2linear-0x60014c3ed9e0.svg">
<text x="386.750000" y="38.000000" font-family="Arial" font-size="7" text-anchor="middle" fill="#FFFFFF">db2linear</text>
</a>
<circle cx="369.400000" cy="26.000000" r="1"/>
<line x1="364.400000" y1="35.000000" x2="367.400000" y2="36.000000"  transform="rotate(0.000000,367.400000,36.000000)" style="stroke: black; stroke-width:0.25;"/>
<line x1="364.400000" y1="37.000000" x2="367.400000" y2="36.000000"  transform="rotate(0.000000,367.400000,36.000000)" style="stroke: black; stroke-width:0.25;"/>
<line x1="15.000000" y1="15.000000" x2="15.000000" y2="57.000000"  style="stroke: black; stroke-linecap:round; stroke-width:0.25; stroke-dasharray:3,3;"/>
<line x1="15.000000" y1="57.000000" x2="423.100000" y2="57.000000"  style="stroke: black; stroke-linecap:round; stroke-width:0.25; stroke-dasharray:3,3;"/>
<line x1="423.100000" y1="57.000000" x2="423.100000" y2="15.000000"  style="stroke: black; stroke-linecap:round; stroke-width:0.25; stroke-dasharray:3,3;"/>
<line x1="15.000000" y1="15.000000" x2="20.000000" y2="15.000000"  style="stroke: black; stroke-linecap:round; stroke-width:0.25; stroke-dasharray:3,3;"/>
<line x1="71.600000" y1="15.000000" x2="423.100000" y2="15.000000"  style="stroke: black; stroke-linecap:round; stroke-width:0.25; stroke-dasharray:3,3;"/>
<text x="20.000000" y="17.000000" font-family="Arial" font-size="7">mscomp_outGain</text>
<line x1="425.100000" y1="35.000000" x2="428.100000" y2="36.000000"  transform="rotate(0.000000,428.100000,36.000000)" style="stroke: black; stroke-width:0.25;"/>
<line x1="425.100000" y1="37.000000" x2="428.100000" y2="36.000000"  transform="rotate(0.000000,428.100000,36.000000)" style="stroke: black; stroke-width:0.25;"/>
<line x1="359.400000" y1="36.000000" x2="363.400000" y2="36.000000"  style="stroke:black; stroke-linecap:round; stroke-width:0.25;"/>
<line x1="363.400000" y1="36.000000" x2="363.400000" y2="36.000000"  style="stroke:black; stroke-linecap:round; stroke-width:0.25;"/>
<line x1="363.400000" y1="36.000000" x2="367.400000" y2="36.000000"  style="stroke:black; stroke-linecap:round; stroke-width:0.25;"/>
<line x1="406.100000" y1="36.000000" x2="410.100000" y2="36.000000"  style="stroke:black; stroke-linecap:round; stroke-width:0.25;"/>
<line x1="410.100000" y1="36.000000" x2="410.100000" y2="36.000000"  style="stroke:black; stroke-linecap:round; stroke-width:0.25;"/>
<line x1="410.100000" y1="36.000000" x2="414.100000" y2="36.000000"  style="stroke:black; stroke-linecap:round; stroke-width:0.25;"/>
<line x1="414.100000" y1="36.000000" x2="418.100000" y2="36.000000"  style="stroke:black; stroke-linecap:round; stroke-width:0.25;"/>
<line x1="418.100000" y1="36.000000" x2="428.100000" y2="36.000000"  style="stroke:black; stroke-linecap:round; stroke-width:0.25;"/>
</svg>
