<?xml version="1.0"?>
<svg xmlns="http://www.w3.org/2000/svg" xmlns:xlink="http://www.w3.org/1999/xlink" viewBox="0 0 572.600000 304.000000" width="286.300000mm" height="152.000000mm" version="1.1">
<a xlink:href="bp2-0x60015018a640.svg">
<rect x="1.000000" y="1.000000" width="571.600000" height="303.000000" rx="0" ry="0" style="stroke:none;fill:#cccccc;"/>
<rect x="0.000000" y="0.000000" width="571.600000" height="303.000000" rx="0" ry="0" style="stroke:none;fill:#ffffff;"/>
</a>
<text x="10.000000" y="7.000000" font-family="Arial" font-size="7"></text>
<a xlink:href="ms-0x600000120e10.svg">
<rect x="111.000000" y="149.000000" width="25.800000" height="24.000000" rx="0" ry="0" style="stroke:none;fill:#cccccc;"/>
<rect x="110.000000" y="148.000000" width="25.800000" height="24.000000" rx="0" ry="0" style="stroke:none;fill:#003366;"/>
</a>
<a xlink:href="ms-0x600000120e10.svg">
<text x="122.900000" y="162.000000" font-family="Arial" font-size="7" text-anchor="middle" fill="#FFFFFF">ms_enc</text>
</a>
<circle cx="112.000000" cy="150.000000" r="1"/>
<line x1="107.000000" y1="155.000000" x2="110.000000" y2="156.000000"  transform="rotate(0.000000,110.000000,156.000000)" style="stroke: black; stroke-width:0.25;"/>
<line x1="107.000000" y1="157.000000" x2="110.000000" y2="156.000000"  transform="rotate(0.000000,110.000000,156.000000)" style="stroke: black; stroke-width:0.25;"/>
<line x1="107.000000" y1="163.000000" x2="110.000000" y2="164.000000"  transform="rotate(0.000000,110.000000,164.000000)" style="stroke: black; stroke-width:0.25;"/>
<line x1="107.000000" y1="165.000000" x2="110.000000" y2="164.000000"  transform="rotate(0.000000,110.000000,164.000000)" style="stroke: black; stroke-width:0.25;"/>
<a xlink:href="B-0x60014c3ede60.svg">
<rect x="144.800000" y="149.000000" width="129.000000" height="24.000000" rx="0" ry="0" style="stroke:none;fill:#cccccc;"/>
<rect x="143.800000" y="148.000000" width="129.000000" height="24.000000" rx="0" ry="0" style="stroke:none;fill:#003366;"/>
</a>
<a xlink:href="B-0x60014c3ede60.svg">
<text x="208.300000" y="162.000000" font-family="Arial" font-size="7" text-anchor="middle" fill="#FFFFFF">B_band_Compressor_N_chan(8)(2)</text>
</a>
<circle cx="145.800000" cy="150.000000" r="1"/>
<line x1="140.800000" y1="155.000000" x2="143.800000" y2="156.000000"  transform="rotate(0.000000,143.800000,156.000000)" style="stroke: black; stroke-width:0.25;"/>
<line x1="140.800000" y1="157.000000" x2="143.800000" y2="156.000000"  transform="rotate(0.000000,143.800000,156.000000)" style="stroke: black; stroke-width:0.25;"/>
<line x1="140.800000" y1="163.000000" x2="143.800000" y2="164.000000"  transform="rotate(0.000000,143.800000,164.000000)" style="stroke: black; stroke-width:0.25;"/>
<line x1="140.800000" y1="165.000000" x2="143.800000" y2="164.000000"  transform="rotate(0.000000,143.800000,164.000000)" style="stroke: black; stroke-width:0.25;"/>
<a xlink:href="ms-0x600000121290.svg">
<rect x="281.800000" y="149.000000" width="25.800000" height="24.000000" rx="0" ry="0" style="stroke:none;fill:#cccccc;"/>
<rect x="280.800000" y="148.000000" width="25.800000" height="24.000000" rx="0" ry="0" style="stroke:none;fill:#003366;"/>
</a>
<a xlink:href="ms-0x600000121290.svg">
<text x="293.700000" y="162.000000" font-family="Arial" font-size="7" text-anchor="middle" fill="#FFFFFF">ms_dec</text>
</a>
<circle cx="282.800000" cy="150.000000" r="1"/>
<line x1="277.800000" y1="155.000000" x2="280.800000" y2="156.000000"  transform="rotate(0.000000,280.800000,156.000000)" style="stroke: black; stroke-width:0.25;"/>
<line x1="277.800000" y1="157.000000" x2="280.800000" y2="156.000000"  transform="rotate(0.000000,280.800000,156.000000)" style="stroke: black; stroke-width:0.25;"/>
<line x1="277.800000" y1="163.000000" x2="280.800000" y2="164.000000"  transform="rotate(0.000000,280.800000,164.000000)" style="stroke: black; stroke-width:0.25;"/>
<line x1="277.800000" y1="165.000000" x2="280.800000" y2="164.000000"  transform="rotate(0.000000,280.800000,164.000000)" style="stroke: black; stroke-width:0.25;"/>
<a xlink:href="sm-0x60014c3ee130.svg">
<rect x="369.600000" y="33.000000" width="24.000000" height="24.000000" rx="0" ry="0" style="stroke:none;fill:#cccccc;"/>
<rect x="368.600000" y="32.000000" width="24.000000" height="24.000000" rx="0" ry="0" style="stroke:none;fill:#003366;"/>
</a>
<a xlink:href="sm-0x60014c3ee130.svg">
<text x="380.600000" y="46.000000" font-family="Arial" font-size="7" text-anchor="middle" fill="#FFFFFF">sm</text>
</a>
<circle cx="370.600000" cy="34.000000" r="1"/>
<rect x="409.600000" y="29.000000" width="24.000000" height="24.000000" rx="0" ry="0" style="stroke:none;fill:#cccccc;"/>
<rect x="408.600000" y="28.000000" width="24.000000" height="24.000000" rx="0" ry="0" style="stroke:none;fill:#4B71A1;"/>
<text x="420.600000" y="42.000000" font-family="Arial" font-size="7" text-anchor="middle" fill="#FFFFFF">*</text>
<circle cx="410.600000" cy="30.000000" r="1"/>
<line x1="405.600000" y1="35.000000" x2="408.600000" y2="36.000000"  transform="rotate(0.000000,408.600000,36.000000)" style="stroke: black; stroke-width:0.25;"/>
<line x1="405.600000" y1="37.000000" x2="408.600000" y2="36.000000"  transform="rotate(0.000000,408.600000,36.000000)" style="stroke: black; stroke-width:0.25;"/>
<line x1="405.600000" y1="43.000000" x2="408.600000" y2="44.000000"  transform="rotate(0.000000,408.600000,44.000000)" style="stroke: black; stroke-width:0.25;"/>
<line x1="405.600000" y1="45.000000" x2="408.600000" y2="44.000000"  transform="rotate(0.000000,408.600000,44.000000)" style="stroke: black; stroke-width:0.25;"/>
<a xlink:href="sm-0x60014c3ee130.svg">
<rect x="369.600000" y="73.000000" width="24.000000" height="24.000000" rx="0" ry="0" style="stroke:none;fill:#cccccc;"/>
<rect x="368.600000" y="72.000000" width="24.000000" height="24.000000" rx="0" ry="0" style="stroke:none;fill:#003366;"/>
</a>
<a xlink:href="sm-0x60014c3ee130.svg">
<text x="380.600000" y="86.000000" font-family="Arial" font-size="7" text-anchor="middle" fill="#FFFFFF">sm</text>
</a>
<circle cx="370.600000" cy="74.000000" r="1"/>
<rect x="409.600000" y="69.000000" width="24.000000" height="24.000000" rx="0" ry="0" style="stroke:none;fill:#cccccc;"/>
<rect x="408.600000" y="68.000000" width="24.000000" height="24.000000" rx="0" ry="0" style="stroke:none;fill:#4B71A1;"/>
<text x="420.600000" y="82.000000" font-family="Arial" font-size="7" text-anchor="middle" fill="#FFFFFF">*</text>
<circle cx="410.600000" cy="70.000000" r="1"/>
<line x1="405.600000" y1="75.000000" x2="408.600000" y2="76.000000"  transform="rotate(0.000000,408.600000,76.000000)" style="stroke: black; stroke-width:0.25;"/>
<line x1="405.600000" y1="77.000000" x2="408.600000" y2="76.000000"  transform="rotate(0.000000,408.600000,76.000000)" style="stroke: black; stroke-width:0.25;"/>
<line x1="405.600000" y1="83.000000" x2="408.600000" y2="84.000000"  transform="rotate(0.000000,408.600000,84.000000)" style="stroke: black; stroke-width:0.25;"/>
<line x1="405.600000" y1="85.000000" x2="408.600000" y2="84.000000"  transform="rotate(0.000000,408.600000,84.000000)" style="stroke: black; stroke-width:0.25;"/>
<rect x="349.600000" y="123.000000" width="24.000000" height="24.000000" rx="0" ry="0" style="stroke:none;fill:#cccccc;"/>
<rect x="348.600000" y="122.000000" width="24.000000" height="24.000000" rx="0" ry="0" style="stroke:none;fill:#f44800;"/>
<text x="360.600000" y="136.000000" font-family="Arial" font-size="7" text-anchor="middle" fill="#FFFFFF">1</text>
<circle cx="350.600000" cy="124.000000" r="1"/>
<line x1="339.600000" y1="113.000000" x2="339.600000" y2="155.000000"  style="stroke: black; stroke-linecap:round; stroke-width:0.25; stroke-dasharray:3,3;"/>
<line x1="339.600000" y1="155.000000" x2="381.600000" y2="155.000000"  style="stroke: black; stroke-linecap:round; stroke-width:0.25; stroke-dasharray:3,3;"/>
<line x1="381.600000" y1="155.000000" x2="381.600000" y2="113.000000"  style="stroke: black; stroke-linecap:round; stroke-width:0.25; stroke-dasharray:3,3;"/>
<line x1="339.600000" y1="113.000000" x2="344.600000" y2="113.000000"  style="stroke: black; stroke-linecap:round; stroke-width:0.25; stroke-dasharray:3,3;"/>
<line x1="373.625000" y1="113.000000" x2="381.600000" y2="113.000000"  style="stroke: black; stroke-linecap:round; stroke-width:0.25; stroke-dasharray:3,3;"/>
<text x="344.600000" y="115.000000" font-family="Arial" font-size="7">pow2(0)</text>
<a xlink:href="sm-0x60014c3ee130.svg">
<rect x="349.600000" y="165.000000" width="24.000000" height="24.000000" rx="0" ry="0" style="stroke:none;fill:#cccccc;"/>
<rect x="348.600000" y="164.000000" width="24.000000" height="24.000000" rx="0" ry="0" style="stroke:none;fill:#003366;"/>
</a>
<a xlink:href="sm-0x60014c3ee130.svg">
<text x="360.600000" y="178.000000" font-family="Arial" font-size="7" text-anchor="middle" fill="#FFFFFF">sm</text>
</a>
<circle cx="350.600000" cy="166.000000" r="1"/>
<rect x="399.600000" y="139.000000" width="24.000000" height="24.000000" rx="0" ry="0" style="stroke:none;fill:#cccccc;"/>
<rect x="398.600000" y="138.000000" width="24.000000" height="24.000000" rx="0" ry="0" style="stroke:none;fill:#4B71A1;"/>
<text x="410.600000" y="152.000000" font-family="Arial" font-size="7" text-anchor="middle" fill="#FFFFFF">-</text>
<circle cx="400.600000" cy="140.000000" r="1"/>
<line x1="395.600000" y1="145.000000" x2="398.600000" y2="146.000000"  transform="rotate(0.000000,398.600000,146.000000)" style="stroke: black; stroke-width:0.25;"/>
<line x1="395.600000" y1="147.000000" x2="398.600000" y2="146.000000"  transform="rotate(0.000000,398.600000,146.000000)" style="stroke: black; stroke-width:0.25;"/>
<line x1="395.600000" y1="153.000000" x2="398.600000" y2="154.000000"  transform="rotate(0.000000,398.600000,154.000000)" style="stroke: black; stroke-width:0.25;"/>
<line x1="395.600000" y1="155.000000" x2="398.600000" y2="154.000000"  transform="rotate(0.000000,398.600000,154.000000)" style="stroke: black; stroke-width:0.25;"/>
<rect x="439.600000" y="135.000000" width="24.000000" height="24.000000" rx="0" ry="0" style="stroke:none;fill:#cccccc;"/>
<rect x="438.600000" y="134.000000" width="24.000000" height="24.000000" rx="0" ry="0" style="stroke:none;fill:#4B71A1;"/>
<text x="450.600000" y="148.000000" font-family="Arial" font-size="7" text-anchor="middle" fill="#FFFFFF">*</text>
<circle cx="440.600000" cy="136.000000" r="1"/>
<line x1="435.600000" y1="141.000000" x2="438.600000" y2="142.000000"  transform="rotate(0.000000,438.600000,142.000000)" style="stroke: black; stroke-width:0.25;"/>
<line x1="435.600000" y1="143.000000" x2="438.600000" y2="142.000000"  transform="rotate(0.000000,438.600000,142.000000)" style="stroke: black; stroke-width:0.25;"/>
<line x1="435.600000" y1="149.000000" x2="438.600000" y2="150.000000"  transform="rotate(0.000000,438.600000,150.000000)" style="stroke: black; stroke-width:0.25;"/>
<line x1="435.600000" y1="151.000000" x2="438.600000" y2="150.000000"  transform="rotate(0.000000,438.600000,150.000000)" style="stroke: black; stroke-width:0.25;"/>
<rect x="349.600000" y="215.000000" width="24.000000" height="24.000000" rx="0" ry="0" style="stroke:none;fill:#cccccc;"/>
<rect x="348.600000" y="214.000000" width="24.000000" height="24.000000" rx="0" ry="0" style="stroke:none;fill:#f44800;"/>
<text x="360.600000" y="228.000000" font-family="Arial" font-size="7" text-anchor="middle" fill="#FFFFFF">1</text>
<circle cx="350.600000" cy="216.000000" r="1"/>
<line x1="339.600000" y1="205.000000" x2="339.600000" y2="247.000000"  style="stroke: black; stroke-linecap:round; stroke-width:0.25; stroke-dasharray:3,3;"/>
<line x1="339.600000" y1="247.000000" x2="381.600000" y2="247.000000"  style="stroke: black; stroke-linecap:round; stroke-width:0.25; stroke-dasharray:3,3;"/>
<line x1="381.600000" y1="247.000000" x2="381.600000" y2="205.000000"  style="stroke: black; stroke-linecap:round; stroke-width:0.25; stroke-dasharray:3,3;"/>
<line x1="339.600000" y1="205.000000" x2="344.600000" y2="205.000000"  style="stroke: black; stroke-linecap:round; stroke-width:0.25; stroke-dasharray:3,3;"/>
<line x1="373.625000" y1="205.000000" x2="381.600000" y2="205.000000"  style="stroke: black; stroke-linecap:round; stroke-width:0.25; stroke-dasharray:3,3;"/>
<text x="344.600000" y="207.000000" font-family="Arial" font-size="7">pow2(0)</text>
<a xlink:href="sm-0x60014c3ee130.svg">
<rect x="349.600000" y="257.000000" width="24.000000" height="24.000000" rx="0" ry="0" style="stroke:none;fill:#cccccc;"/>
<rect x="348.600000" y="256.000000" width="24.000000" height="24.000000" rx="0" ry="0" style="stroke:none;fill:#003366;"/>
</a>
<a xlink:href="sm-0x60014c3ee130.svg">
<text x="360.600000" y="270.000000" font-family="Arial" font-size="7" text-anchor="middle" fill="#FFFFFF">sm</text>
</a>
<circle cx="350.600000" cy="258.000000" r="1"/>
<rect x="399.600000" y="231.000000" width="24.000000" height="24.000000" rx="0" ry="0" style="stroke:none;fill:#cccccc;"/>
<rect x="398.600000" y="230.000000" width="24.000000" height="24.000000" rx="0" ry="0" style="stroke:none;fill:#4B71A1;"/>
<text x="410.600000" y="244.000000" font-family="Arial" font-size="7" text-anchor="middle" fill="#FFFFFF">-</text>
<circle cx="400.600000" cy="232.000000" r="1"/>
<line x1="395.600000" y1="237.000000" x2="398.600000" y2="238.000000"  transform="rotate(0.000000,398.600000,238.000000)" style="stroke: black; stroke-width:0.25;"/>
<line x1="395.600000" y1="239.000000" x2="398.600000" y2="238.000000"  transform="rotate(0.000000,398.600000,238.000000)" style="stroke: black; stroke-width:0.25;"/>
<line x1="395.600000" y1="245.000000" x2="398.600000" y2="246.000000"  transform="rotate(0.000000,398.600000,246.000000)" style="stroke: black; stroke-width:0.25;"/>
<line x1="395.600000" y1="247.000000" x2="398.600000" y2="246.000000"  transform="rotate(0.000000,398.600000,246.000000)" style="stroke: black; stroke-width:0.25;"/>
<rect x="439.600000" y="227.000000" width="24.000000" height="24.000000" rx="0" ry="0" style="stroke:none;fill:#cccccc;"/>
<rect x="438.600000" y="226.000000" width="24.000000" height="24.000000" rx="0" ry="0" style="stroke:none;fill:#4B71A1;"/>
<text x="450.600000" y="240.000000" font-family="Arial" font-size="7" text-anchor="middle" fill="#FFFFFF">*</text>
<circle cx="440.600000" cy="228.000000" r="1"/>
<line x1="435.600000" y1="233.000000" x2="438.600000" y2="234.000000"  transform="rotate(0.000000,438.600000,234.000000)" style="stroke: black; stroke-width:0.25;"/>
<line x1="435.600000" y1="235.000000" x2="438.600000" y2="234.000000"  transform="rotate(0.000000,438.600000,234.000000)" style="stroke: black; stroke-width:0.25;"/>
<line x1="435.600000" y1="241.000000" x2="438.600000" y2="242.000000"  transform="rotate(0.000000,438.600000,242.000000)" style="stroke: black; stroke-width:0.25;"/>
<line x1="435.600000" y1="243.000000" x2="438.600000" y2="242.000000"  transform="rotate(0.000000,438.600000,242.000000)" style="stroke: black; stroke-width:0.25;"/>
<line x1="15.000000" y1="15.000000" x2="15.000000" y2="289.000000"  style="stroke: black; stroke-linecap:round; stroke-width:0.25; stroke-dasharray:3,3;"/>
<line x1="15.000000" y1="289.000000" x2="557.600000" y2="289.000000"  style="stroke: black; stroke-linecap:round; stroke-width:0.25; stroke-dasharray:3,3;"/>
<line x1="557.600000" y1="289.000000" x2="557.600000" y2="15.000000"  style="stroke: black; stroke-linecap:round; stroke-width:0.25; stroke-dasharray:3,3;"/>
<line x1="15.000000" y1="15.000000" x2="20.000000" y2="15.000000"  style="stroke: black; stroke-linecap:round; stroke-width:0.25; stroke-dasharray:3,3;"/>
<line x1="55.475000" y1="15.000000" x2="557.600000" y2="15.000000"  style="stroke: black; stroke-linecap:round; stroke-width:0.25; stroke-dasharray:3,3;"/>
<text x="20.000000" y="17.000000" font-family="Arial" font-size="7">mscomp_bp</text>
<line x1="559.600000" y1="147.000000" x2="562.600000" y2="148.000000"  transform="rotate(0.000000,562.600000,148.000000)" style="stroke: black; stroke-width:0.25;"/>
<line x1="559.600000" y1="149.000000" x2="562.600000" y2="148.000000"  transform="rotate(0.000000,562.600000,148.000000)" style="stroke: black; stroke-width:0.25;"/>
<line x1="559.600000" y1="155.000000" x2="562.600000" y2="156.000000"  transform="rotate(0.000000,562.600000,156.000000)" style="stroke: black; stroke-width:0.25;"/>
<line x1="559.600000" y1="157.000000" x2="562.600000" y2="156.000000"  transform="rotate(0.000000,562.600000,156.000000)" style="stroke: black; stroke-width:0.25;"/>
<line x1="10.000000" y1="148.000000" x2="20.000000" y2="148.000000"  style="stroke:black; stroke-linecap:round; stroke-width:0.25;"/>
<line x1="10.000000" y1="156.000000" x2="20.000000" y2="156.000000"  style="stroke:black; stroke-linecap:round; stroke-width:0.25;"/>
<line x1="20.000000" y1="148.000000" x2="24.000000" y2="148.000000"  style="stroke:black; stroke-linecap:round; stroke-width:0.25;"/>
<line x1="20.000000" y1="156.000000" x2="24.000000" y2="156.000000"  style="stroke:black; stroke-linecap:round; stroke-width:0.25;"/>
<line x1="24.000000" y1="148.000000" x2="28.000000" y2="148.000000"  style="stroke:black; stroke-linecap:round; stroke-width:0.25;"/>
<line x1="24.000000" y1="156.000000" x2="28.000000" y2="156.000000"  style="stroke:black; stroke-linecap:round; stroke-width:0.25;"/>
<line x1="28.000000" y1="148.000000" x2="28.000000" y2="148.000000"  style="stroke:black; stroke-linecap:round; stroke-width:0.25;"/>
<line x1="28.000000" y1="148.000000" x2="32.000000" y2="148.000000"  style="stroke:black; stroke-linecap:round; stroke-width:0.25;"/>
<line x1="28.000000" y1="156.000000" x2="28.000000" y2="156.000000"  style="stroke:black; stroke-linecap:round; stroke-width:0.25;"/>
<line x1="28.000000" y1="156.000000" x2="32.000000" y2="156.000000"  style="stroke:black; stroke-linecap:round; stroke-width:0.25;"/>
<line x1="32.000000" y1="148.000000" x2="36.000000" y2="148.000000"  style="stroke:black; stroke-linecap:round; stroke-width:0.25;"/>
<line x1="32.000000" y1="156.000000" x2="36.000000" y2="156.000000"  style="stroke:black; stroke-linecap:round; stroke-width:0.25;"/>
<line x1="36.000000" y1="148.000000" x2="106.000000" y2="132.000000"  style="stroke:black; stroke-linecap:round; stroke-width:0.25;"/>
<line x1="36.000000" y1="148.000000" x2="106.000000" y2="156.000000"  style="stroke:black; stroke-linecap:round; stroke-width:0.25;"/>
<line x1="36.000000" y1="156.000000" x2="106.000000" y2="140.000000"  style="stroke:black; stroke-linecap:round; stroke-width:0.25;"/>
<line x1="36.000000" y1="156.000000" x2="106.000000" y2="164.000000"  style="stroke:black; stroke-linecap:round; stroke-width:0.25;"/>
<line x1="106.000000" y1="132.000000" x2="208.300000" y2="132.000000"  style="stroke:black; stroke-linecap:round; stroke-width:0.25;"/>
<line x1="106.000000" y1="140.000000" x2="208.300000" y2="140.000000"  style="stroke:black; stroke-linecap:round; stroke-width:0.25;"/>
<line x1="106.000000" y1="156.000000" x2="110.000000" y2="156.000000"  style="stroke:black; stroke-linecap:round; stroke-width:0.25;"/>
<line x1="106.000000" y1="164.000000" x2="110.000000" y2="164.000000"  style="stroke:black; stroke-linecap:round; stroke-width:0.25;"/>
<line x1="135.800000" y1="156.000000" x2="139.800000" y2="156.000000"  style="stroke:black; stroke-linecap:round; stroke-width:0.25;"/>
<line x1="135.800000" y1="164.000000" x2="139.800000" y2="164.000000"  style="stroke:black; stroke-linecap:round; stroke-width:0.25;"/>
<line x1="139.800000" y1="156.000000" x2="139.800000" y2="156.000000"  style="stroke:black; stroke-linecap:round; stroke-width:0.25;"/>
<line x1="139.800000" y1="156.000000" x2="143.800000" y2="156.000000"  style="stroke:black; stroke-linecap:round; stroke-width:0.25;"/>
<line x1="139.800000" y1="164.000000" x2="139.800000" y2="164.000000"  style="stroke:black; stroke-linecap:round; stroke-width:0.25;"/>
<line x1="139.800000" y1="164.000000" x2="143.800000" y2="164.000000"  style="stroke:black; stroke-linecap:round; stroke-width:0.25;"/>
<line x1="208.300000" y1="132.000000" x2="310.600000" y2="132.000000"  style="stroke:black; stroke-linecap:round; stroke-width:0.25;"/>
<line x1="208.300000" y1="140.000000" x2="310.600000" y2="140.000000"  style="stroke:black; stroke-linecap:round; stroke-width:0.25;"/>
<line x1="272.800000" y1="156.000000" x2="276.800000" y2="156.000000"  style="stroke:black; stroke-linecap:round; stroke-width:0.25;"/>
<line x1="272.800000" y1="164.000000" x2="276.800000" y2="164.000000"  style="stroke:black; stroke-linecap:round; stroke-width:0.25;"/>
<line x1="276.800000" y1="156.000000" x2="276.800000" y2="156.000000"  style="stroke:black; stroke-linecap:round; stroke-width:0.25;"/>
<line x1="276.800000" y1="156.000000" x2="280.800000" y2="156.000000"  style="stroke:black; stroke-linecap:round; stroke-width:0.25;"/>
<line x1="276.800000" y1="164.000000" x2="276.800000" y2="164.000000"  style="stroke:black; stroke-linecap:round; stroke-width:0.25;"/>
<line x1="276.800000" y1="164.000000" x2="280.800000" y2="164.000000"  style="stroke:black; stroke-linecap:round; stroke-width:0.25;"/>
<line x1="306.600000" y1="156.000000" x2="310.600000" y2="156.000000"  style="stroke:black; stroke-linecap:round; stroke-width:0.25;"/>
<line x1="306.600000" y1="164.000000" x2="310.600000" y2="164.000000"  style="stroke:black; stroke-linecap:round; stroke-width:0.25;"/>
<line x1="310.600000" y1="24.000000" x2="334.600000" y2="24.000000"  style="stroke:black; stroke-linecap:round; stroke-width:0.25;"/>
<line x1="310.600000" y1="132.000000" x2="310.600000" y2="24.000000"  style="stroke:black; stroke-linecap:round; stroke-width:0.25;"/>
<line x1="310.600000" y1="132.000000" x2="310.600000" y2="132.000000"  style="stroke:black; stroke-linecap:round; stroke-width:0.25;"/>
<line x1="310.600000" y1="140.000000" x2="318.600000" y2="140.000000"  style="stroke:black; stroke-linecap:round; stroke-width:0.25;"/>
<line x1="310.600000" y1="156.000000" x2="326.600000" y2="156.000000"  style="stroke:black; stroke-linecap:round; stroke-width:0.25;"/>
<line x1="310.600000" y1="164.000000" x2="334.600000" y2="164.000000"  style="stroke:black; stroke-linecap:round; stroke-width:0.25;"/>
<line x1="318.600000" y1="64.000000" x2="334.600000" y2="64.000000"  style="stroke:black; stroke-linecap:round; stroke-width:0.25;"/>
<line x1="318.600000" y1="140.000000" x2="318.600000" y2="64.000000"  style="stroke:black; stroke-linecap:round; stroke-width:0.25;"/>
<line x1="326.600000" y1="104.000000" x2="334.600000" y2="104.000000"  style="stroke:black; stroke-linecap:round; stroke-width:0.25;"/>
<line x1="326.600000" y1="156.000000" x2="326.600000" y2="104.000000"  style="stroke:black; stroke-linecap:round; stroke-width:0.25;"/>
<line x1="334.600000" y1="24.000000" x2="364.600000" y2="24.000000"  style="stroke:black; stroke-linecap:round; stroke-width:0.25;"/>
<line x1="334.600000" y1="64.000000" x2="364.600000" y2="64.000000"  style="stroke:black; stroke-linecap:round; stroke-width:0.25;"/>
<line x1="334.600000" y1="104.000000" x2="380.600000" y2="104.000000"  style="stroke:black; stroke-linecap:round; stroke-width:0.25;"/>
<line x1="334.600000" y1="164.000000" x2="334.600000" y2="196.000000"  style="stroke:black; stroke-linecap:round; stroke-width:0.25;"/>
<line x1="334.600000" y1="196.000000" x2="334.600000" y2="196.000000"  style="stroke:black; stroke-linecap:round; stroke-width:0.25;"/>
<line x1="334.600000" y1="196.000000" x2="380.600000" y2="196.000000"  style="stroke:black; stroke-linecap:round; stroke-width:0.25;"/>
<line x1="364.600000" y1="24.000000" x2="380.600000" y2="24.000000"  style="stroke:black; stroke-linecap:round; stroke-width:0.25;"/>
<line x1="364.600000" y1="64.000000" x2="380.600000" y2="64.000000"  style="stroke:black; stroke-linecap:round; stroke-width:0.25;"/>
<line x1="372.600000" y1="134.000000" x2="376.600000" y2="134.000000"  style="stroke:black; stroke-linecap:round; stroke-width:0.25;"/>
<line x1="372.600000" y1="176.000000" x2="376.600000" y2="176.000000"  style="stroke:black; stroke-linecap:round; stroke-width:0.25;"/>
<line x1="372.600000" y1="226.000000" x2="376.600000" y2="226.000000"  style="stroke:black; stroke-linecap:round; stroke-width:0.25;"/>
<line x1="372.600000" y1="268.000000" x2="376.600000" y2="268.000000"  style="stroke:black; stroke-linecap:round; stroke-width:0.25;"/>
<line x1="376.600000" y1="134.000000" x2="386.600000" y2="134.000000"  style="stroke:black; stroke-linecap:round; stroke-width:0.25;"/>
<line x1="376.600000" y1="176.000000" x2="386.600000" y2="176.000000"  style="stroke:black; stroke-linecap:round; stroke-width:0.25;"/>
<line x1="376.600000" y1="226.000000" x2="386.600000" y2="226.000000"  style="stroke:black; stroke-linecap:round; stroke-width:0.25;"/>
<line x1="376.600000" y1="268.000000" x2="386.600000" y2="268.000000"  style="stroke:black; stroke-linecap:round; stroke-width:0.25;"/>
<line x1="380.600000" y1="24.000000" x2="396.600000" y2="24.000000"  style="stroke:black; stroke-linecap:round; stroke-width:0.25;"/>
<line x1="380.600000" y1="64.000000" x2="396.600000" y2="64.000000"  style="stroke:black; stroke-linecap:round; stroke-width:0.25;"/>
<line x1="380.600000" y1="104.000000" x2="426.600000" y2="104.000000"  style="stroke:black; stroke-linecap:round; stroke-width:0.25;"/>
<line x1="380.600000" y1="196.000000" x2="426.600000" y2="196.000000"  style="stroke:black; stroke-linecap:round; stroke-width:0.25;"/>
<line x1="386.600000" y1="134.000000" x2="394.600000" y2="134.000000"  style="stroke:black; stroke-linecap:round; stroke-width:0.25;"/>
<line x1="386.600000" y1="154.000000" x2="394.600000" y2="154.000000"  style="stroke:black; stroke-linecap:round; stroke-width:0.25;"/>
<line x1="386.600000" y1="176.000000" x2="386.600000" y2="154.000000"  style="stroke:black; stroke-linecap:round; stroke-width:0.25;"/>
<line x1="386.600000" y1="176.000000" x2="386.600000" y2="176.000000"  style="stroke:black; stroke-linecap:round; stroke-width:0.25;"/>
<line x1="386.600000" y1="226.000000" x2="394.600000" y2="226.000000"  style="stroke:black; stroke-linecap:round; stroke-width:0.25;"/>
<line x1="386.600000" y1="246.000000" x2="394.600000" y2="246.000000"  style="stroke:black; stroke-linecap:round; stroke-width:0.25;"/>
<line x1="386.600000" y1="268.000000" x2="386.600000" y2="246.000000"  style="stroke:black; stroke-linecap:round; stroke-width:0.25;"/>
<line x1="386.600000" y1="268.000000" x2="386.600000" y2="268.000000"  style="stroke:black; stroke-linecap:round; stroke-width:0.25;"/>
<line x1="392.600000" y1="44.000000" x2="396.600000" y2="44.000000"  style="stroke:black; stroke-linecap:round; stroke-width:0.25;"/>
<line x1="392.600000" y1="84.000000" x2="396.600000" y2="84.000000"  style="stroke:black; stroke-linecap:round; stroke-width:0.25;"/>
<line x1="394.600000" y1="134.000000" x2="394.600000" y2="146.000000"  style="stroke:black; stroke-linecap:round; stroke-width:0.25;"/>
<line x1="394.600000" y1="146.000000" x2="394.600000" y2="146.000000"  style="stroke:black; stroke-linecap:round; stroke-width:0.25;"/>
<line x1="394.600000" y1="146.000000" x2="398.600000" y2="146.000000"  style="stroke:black; stroke-linecap:round; stroke-width:0.25;"/>
<line x1="394.600000" y1="154.000000" x2="398.600000" y2="154.000000"  style="stroke:black; stroke-linecap:round; stroke-width:0.25;"/>
<line x1="394.600000" y1="226.000000" x2="394.600000" y2="238.000000"  style="stroke:black; stroke-linecap:round; stroke-width:0.25;"/>
<line x1="394.600000" y1="238.000000" x2="394.600000" y2="238.000000"  style="stroke:black; stroke-linecap:round; stroke-width:0.25;"/>
<line x1="394.600000" y1="238.000000" x2="398.600000" y2="238.000000"  style="stroke:black; stroke-linecap:round; stroke-width:0.25;"/>
<line x1="394.600000" y1="246.000000" x2="398.600000" y2="246.000000"  style="stroke:black; stroke-linecap:round; stroke-width:0.25;"/>
<line x1="396.600000" y1="24.000000" x2="404.600000" y2="24.000000"  style="stroke:black; stroke-linecap:round; stroke-width:0.25;"/>
<line x1="396.600000" y1="44.000000" x2="404.600000" y2="44.000000"  style="stroke:black; stroke-linecap:round; stroke-width:0.25;"/>
<line x1="396.600000" y1="64.000000" x2="404.600000" y2="64.000000"  style="stroke:black; stroke-linecap:round; stroke-width:0.25;"/>
<line x1="396.600000" y1="84.000000" x2="404.600000" y2="84.000000"  style="stroke:black; stroke-linecap:round; stroke-width:0.25;"/>
<line x1="404.600000" y1="24.000000" x2="404.600000" y2="36.000000"  style="stroke:black; stroke-linecap:round; stroke-width:0.25;"/>
<line x1="404.600000" y1="36.000000" x2="404.600000" y2="36.000000"  style="stroke:black; stroke-linecap:round; stroke-width:0.25;"/>
<line x1="404.600000" y1="36.000000" x2="408.600000" y2="36.000000"  style="stroke:black; stroke-linecap:round; stroke-width:0.25;"/>
<line x1="404.600000" y1="44.000000" x2="408.600000" y2="44.000000"  style="stroke:black; stroke-linecap:round; stroke-width:0.25;"/>
<line x1="404.600000" y1="64.000000" x2="404.600000" y2="76.000000"  style="stroke:black; stroke-linecap:round; stroke-width:0.25;"/>
<line x1="404.600000" y1="76.000000" x2="404.600000" y2="76.000000"  style="stroke:black; stroke-linecap:round; stroke-width:0.25;"/>
<line x1="404.600000" y1="76.000000" x2="408.600000" y2="76.000000"  style="stroke:black; stroke-linecap:round; stroke-width:0.25;"/>
<line x1="404.600000" y1="84.000000" x2="408.600000" y2="84.000000"  style="stroke:black; stroke-linecap:round; stroke-width:0.25;"/>
<line x1="422.600000" y1="150.000000" x2="426.600000" y2="150.000000"  style="stroke:black; stroke-linecap:round; stroke-width:0.25;"/>
<line x1="422.600000" y1="242.000000" x2="426.600000" y2="242.000000"  style="stroke:black; stroke-linecap:round; stroke-width:0.25;"/>
<line x1="426.600000" y1="104.000000" x2="434.600000" y2="104.000000"  style="stroke:black; stroke-linecap:round; stroke-width:0.25;"/>
<line x1="426.600000" y1="150.000000" x2="434.600000" y2="150.000000"  style="stroke:black; stroke-linecap:round; stroke-width:0.25;"/>
<line x1="426.600000" y1="196.000000" x2="434.600000" y2="196.000000"  style="stroke:black; stroke-linecap:round; stroke-width:0.25;"/>
<line x1="426.600000" y1="242.000000" x2="434.600000" y2="242.000000"  style="stroke:black; stroke-linecap:round; stroke-width:0.25;"/>
<line x1="432.600000" y1="40.000000" x2="436.600000" y2="40.000000"  style="stroke:black; stroke-linecap:round; stroke-width:0.25;"/>
<line x1="432.600000" y1="80.000000" x2="436.600000" y2="80.000000"  style="stroke:black; stroke-linecap:round; stroke-width:0.25;"/>
<line x1="434.600000" y1="104.000000" x2="434.600000" y2="142.000000"  style="stroke:black; stroke-linecap:round; stroke-width:0.25;"/>
<line x1="434.600000" y1="142.000000" x2="434.600000" y2="142.000000"  style="stroke:black; stroke-linecap:round; stroke-width:0.25;"/>
<line x1="434.600000" y1="142.000000" x2="438.600000" y2="142.000000"  style="stroke:black; stroke-linecap:round; stroke-width:0.25;"/>
<line x1="434.600000" y1="150.000000" x2="438.600000" y2="150.000000"  style="stroke:black; stroke-linecap:round; stroke-width:0.25;"/>
<line x1="434.600000" y1="196.000000" x2="434.600000" y2="234.000000"  style="stroke:black; stroke-linecap:round; stroke-width:0.25;"/>
<line x1="434.600000" y1="234.000000" x2="434.600000" y2="234.000000"  style="stroke:black; stroke-linecap:round; stroke-width:0.25;"/>
<line x1="434.600000" y1="234.000000" x2="438.600000" y2="234.000000"  style="stroke:black; stroke-linecap:round; stroke-width:0.25;"/>
<line x1="434.600000" y1="242.000000" x2="438.600000" y2="242.000000"  style="stroke:black; stroke-linecap:round; stroke-width:0.25;"/>
<line x1="436.600000" y1="40.000000" x2="466.600000" y2="40.000000"  style="stroke:black; stroke-linecap:round; stroke-width:0.25;"/>
<line x1="436.600000" y1="80.000000" x2="466.600000" y2="80.000000"  style="stroke:black; stroke-linecap:round; stroke-width:0.25;"/>
<line x1="462.600000" y1="146.000000" x2="466.600000" y2="146.000000"  style="stroke:black; stroke-linecap:round; stroke-width:0.25;"/>
<line x1="462.600000" y1="238.000000" x2="466.600000" y2="238.000000"  style="stroke:black; stroke-linecap:round; stroke-width:0.25;"/>
<line x1="466.600000" y1="40.000000" x2="536.600000" y2="148.000000"  style="stroke:black; stroke-linecap:round; stroke-width:0.25;"/>
<line x1="466.600000" y1="80.000000" x2="536.600000" y2="156.000000"  style="stroke:black; stroke-linecap:round; stroke-width:0.25;"/>
<line x1="466.600000" y1="146.000000" x2="536.600000" y2="148.000000"  style="stroke:black; stroke-linecap:round; stroke-width:0.25;"/>
<line x1="466.600000" y1="238.000000" x2="536.600000" y2="156.000000"  style="stroke:black; stroke-linecap:round; stroke-width:0.25;"/>
<line x1="536.600000" y1="148.000000" x2="540.600000" y2="148.000000"  style="stroke:black; stroke-linecap:round; stroke-width:0.25;"/>
<line x1="536.600000" y1="156.000000" x2="540.600000" y2="156.000000"  style="stroke:black; stroke-linecap:round; stroke-width:0.25;"/>
<line x1="540.600000" y1="148.000000" x2="544.600000" y2="148.000000"  style="stroke:black; stroke-linecap:round; stroke-width:0.25;"/>
<line x1="540.600000" y1="156.000000" x2="544.600000" y2="156.000000"  style="stroke:black; stroke-linecap:round; stroke-width:0.25;"/>
<line x1="544.600000" y1="148.000000" x2="544.600000" y2="148.000000"  style="stroke:black; stroke-linecap:round; stroke-width:0.25;"/>
<line x1="544.600000" y1="148.000000" x2="548.600000" y2="148.000000"  style="stroke:black; stroke-linecap:round; stroke-width:0.25;"/>
<line x1="544.600000" y1="156.000000" x2="544.600000" y2="156.000000"  style="stroke:black; stroke-linecap:round; stroke-width:0.25;"/>
<line x1="544.600000" y1="156.000000" x2="548.600000" y2="156.000000"  style="stroke:black; stroke-linecap:round; stroke-width:0.25;"/>
<line x1="548.600000" y1="148.000000" x2="552.600000" y2="148.000000"  style="stroke:black; stroke-linecap:round; stroke-width:0.25;"/>
<line x1="548.600000" y1="156.000000" x2="552.600000" y2="156.000000"  style="stroke:black; stroke-linecap:round; stroke-width:0.25;"/>
<line x1="552.600000" y1="148.000000" x2="562.600000" y2="148.000000"  style="stroke:black; stroke-linecap:round; stroke-width:0.25;"/>
<line x1="552.600000" y1="156.000000" x2="562.600000" y2="156.000000"  style="stroke:black; stroke-linecap:round; stroke-width:0.25;"/>
</svg>
