<?xml version="1.0"?>
<svg xmlns="http://www.w3.org/2000/svg" xmlns:xlink="http://www.w3.org/1999/xlink" viewBox="0 0 498.800000 252.000000" width="249.400000mm" height="126.000000mm" version="1.1">
<a xlink:href="sequentialOperat-0x60003013a0a0.svg">
<rect x="1.000000" y="1.000000" width="497.800000" height="251.000000" rx="0" ry="0" style="stroke:none;fill:#cccccc;"/>
<rect x="0.000000" y="0.000000" width="497.800000" height="251.000000" rx="0" ry="0" style="stroke:none;fill:#ffffff;"/>
</a>
<text x="10.000000" y="7.000000" font-family="Arial" font-size="7"></text>
<rect x="208.000000" y="195.000000" width="25.800000" height="24.000000" rx="0" ry="0" style="stroke:none;fill:#cccccc;"/>
<rect x="207.000000" y="194.000000" width="25.800000" height="24.000000" rx="0" ry="0" style="stroke:none;fill:#f44800;"/>
<text x="219.900000" y="208.000000" font-family="Arial" font-size="7" text-anchor="middle" fill="#FFFFFF">131072</text>
<circle cx="209.000000" cy="196.000000" r="1"/>
<line x1="198.000000" y1="185.000000" x2="198.000000" y2="227.000000"  style="stroke: black; stroke-linecap:round; stroke-width:0.25; stroke-dasharray:3,3;"/>
<line x1="198.000000" y1="227.000000" x2="241.800000" y2="227.000000"  style="stroke: black; stroke-linecap:round; stroke-width:0.25; stroke-dasharray:3,3;"/>
<line x1="241.800000" y1="227.000000" x2="241.800000" y2="185.000000"  style="stroke: black; stroke-linecap:round; stroke-width:0.25; stroke-dasharray:3,3;"/>
<line x1="198.000000" y1="185.000000" x2="203.000000" y2="185.000000"  style="stroke: black; stroke-linecap:round; stroke-width:0.25; stroke-dasharray:3,3;"/>
<line x1="235.250000" y1="185.000000" x2="241.800000" y2="185.000000"  style="stroke: black; stroke-linecap:round; stroke-width:0.25; stroke-dasharray:3,3;"/>
<text x="203.000000" y="187.000000" font-family="Arial" font-size="7">pow2(17)</text>
<rect x="259.800000" y="191.000000" width="24.000000" height="24.000000" rx="0" ry="0" style="stroke:none;fill:#cccccc;"/>
<rect x="258.800000" y="190.000000" width="24.000000" height="24.000000" rx="0" ry="0" style="stroke:none;fill:#4B71A1;"/>
<text x="270.800000" y="204.000000" font-family="Arial" font-size="7" text-anchor="middle" fill="#FFFFFF">@</text>
<circle cx="260.800000" cy="192.000000" r="1"/>
<line x1="255.800000" y1="197.000000" x2="258.800000" y2="198.000000"  transform="rotate(0.000000,258.800000,198.000000)" style="stroke: black; stroke-width:0.25;"/>
<line x1="255.800000" y1="199.000000" x2="258.800000" y2="198.000000"  transform="rotate(0.000000,258.800000,198.000000)" style="stroke: black; stroke-width:0.25;"/>
<line x1="255.800000" y1="205.000000" x2="258.800000" y2="206.000000"  transform="rotate(0.000000,258.800000,206.000000)" style="stroke: black; stroke-width:0.25;"/>
<line x1="255.800000" y1="207.000000" x2="258.800000" y2="206.000000"  transform="rotate(0.000000,258.800000,206.000000)" style="stroke: black; stroke-width:0.25;"/>
<rect x="299.800000" y="187.000000" width="24.000000" height="24.000000" rx="0" ry="0" style="stroke:none;fill:#cccccc;"/>
<rect x="298.800000" y="186.000000" width="24.000000" height="24.000000" rx="0" ry="0" style="stroke:none;fill:#4B71A1;"/>
<text x="310.800000" y="200.000000" font-family="Arial" font-size="7" text-anchor="middle" fill="#FFFFFF">+</text>
<circle cx="300.800000" cy="188.000000" r="1"/>
<line x1="295.800000" y1="193.000000" x2="298.800000" y2="194.000000"  transform="rotate(0.000000,298.800000,194.000000)" style="stroke: black; stroke-width:0.25;"/>
<line x1="295.800000" y1="195.000000" x2="298.800000" y2="194.000000"  transform="rotate(0.000000,298.800000,194.000000)" style="stroke: black; stroke-width:0.25;"/>
<line x1="295.800000" y1="201.000000" x2="298.800000" y2="202.000000"  transform="rotate(0.000000,298.800000,202.000000)" style="stroke: black; stroke-width:0.25;"/>
<line x1="295.800000" y1="203.000000" x2="298.800000" y2="202.000000"  transform="rotate(0.000000,298.800000,202.000000)" style="stroke: black; stroke-width:0.25;"/>
<line x1="15.000000" y1="15.000000" x2="15.000000" y2="237.000000"  style="stroke: black; stroke-linecap:round; stroke-width:0.25; stroke-dasharray:3,3;"/>
<line x1="15.000000" y1="237.000000" x2="483.800000" y2="237.000000"  style="stroke: black; stroke-linecap:round; stroke-width:0.25; stroke-dasharray:3,3;"/>
<line x1="483.800000" y1="237.000000" x2="483.800000" y2="15.000000"  style="stroke: black; stroke-linecap:round; stroke-width:0.25; stroke-dasharray:3,3;"/>
<line x1="15.000000" y1="15.000000" x2="20.000000" y2="15.000000"  style="stroke: black; stroke-linecap:round; stroke-width:0.25; stroke-dasharray:3,3;"/>
<line x1="65.150000" y1="15.000000" x2="483.800000" y2="15.000000"  style="stroke: black; stroke-linecap:round; stroke-width:0.25; stroke-dasharray:3,3;"/>
<text x="20.000000" y="17.000000" font-family="Arial" font-size="7">operator(17)</text>
<line x1="485.800000" y1="53.000000" x2="488.800000" y2="54.000000"  transform="rotate(0.000000,488.800000,54.000000)" style="stroke: black; stroke-width:0.25;"/>
<line x1="485.800000" y1="55.000000" x2="488.800000" y2="54.000000"  transform="rotate(0.000000,488.800000,54.000000)" style="stroke: black; stroke-width:0.25;"/>
<line x1="485.800000" y1="61.000000" x2="488.800000" y2="62.000000"  transform="rotate(0.000000,488.800000,62.000000)" style="stroke: black; stroke-width:0.25;"/>
<line x1="485.800000" y1="63.000000" x2="488.800000" y2="62.000000"  transform="rotate(0.000000,488.800000,62.000000)" style="stroke: black; stroke-width:0.25;"/>
<line x1="485.800000" y1="69.000000" x2="488.800000" y2="70.000000"  transform="rotate(0.000000,488.800000,70.000000)" style="stroke: black; stroke-width:0.25;"/>
<line x1="485.800000" y1="71.000000" x2="488.800000" y2="70.000000"  transform="rotate(0.000000,488.800000,70.000000)" style="stroke: black; stroke-width:0.25;"/>
<line x1="485.800000" y1="77.000000" x2="488.800000" y2="78.000000"  transform="rotate(0.000000,488.800000,78.000000)" style="stroke: black; stroke-width:0.25;"/>
<line x1="485.800000" y1="79.000000" x2="488.800000" y2="78.000000"  transform="rotate(0.000000,488.800000,78.000000)" style="stroke: black; stroke-width:0.25;"/>
<line x1="485.800000" y1="85.000000" x2="488.800000" y2="86.000000"  transform="rotate(0.000000,488.800000,86.000000)" style="stroke: black; stroke-width:0.25;"/>
<line x1="485.800000" y1="87.000000" x2="488.800000" y2="86.000000"  transform="rotate(0.000000,488.800000,86.000000)" style="stroke: black; stroke-width:0.25;"/>
<line x1="485.800000" y1="93.000000" x2="488.800000" y2="94.000000"  transform="rotate(0.000000,488.800000,94.000000)" style="stroke: black; stroke-width:0.25;"/>
<line x1="485.800000" y1="95.000000" x2="488.800000" y2="94.000000"  transform="rotate(0.000000,488.800000,94.000000)" style="stroke: black; stroke-width:0.25;"/>
<line x1="485.800000" y1="101.000000" x2="488.800000" y2="102.000000"  transform="rotate(0.000000,488.800000,102.000000)" style="stroke: black; stroke-width:0.25;"/>
<line x1="485.800000" y1="103.000000" x2="488.800000" y2="102.000000"  transform="rotate(0.000000,488.800000,102.000000)" style="stroke: black; stroke-width:0.25;"/>
<line x1="485.800000" y1="109.000000" x2="488.800000" y2="110.000000"  transform="rotate(0.000000,488.800000,110.000000)" style="stroke: black; stroke-width:0.25;"/>
<line x1="485.800000" y1="111.000000" x2="488.800000" y2="110.000000"  transform="rotate(0.000000,488.800000,110.000000)" style="stroke: black; stroke-width:0.25;"/>
<line x1="485.800000" y1="117.000000" x2="488.800000" y2="118.000000"  transform="rotate(0.000000,488.800000,118.000000)" style="stroke: black; stroke-width:0.25;"/>
<line x1="485.800000" y1="119.000000" x2="488.800000" y2="118.000000"  transform="rotate(0.000000,488.800000,118.000000)" style="stroke: black; stroke-width:0.25;"/>
<line x1="485.800000" y1="125.000000" x2="488.800000" y2="126.000000"  transform="rotate(0.000000,488.800000,126.000000)" style="stroke: black; stroke-width:0.25;"/>
<line x1="485.800000" y1="127.000000" x2="488.800000" y2="126.000000"  transform="rotate(0.000000,488.800000,126.000000)" style="stroke: black; stroke-width:0.25;"/>
<line x1="485.800000" y1="133.000000" x2="488.800000" y2="134.000000"  transform="rotate(0.000000,488.800000,134.000000)" style="stroke: black; stroke-width:0.25;"/>
<line x1="485.800000" y1="135.000000" x2="488.800000" y2="134.000000"  transform="rotate(0.000000,488.800000,134.000000)" style="stroke: black; stroke-width:0.25;"/>
<line x1="485.800000" y1="141.000000" x2="488.800000" y2="142.000000"  transform="rotate(0.000000,488.800000,142.000000)" style="stroke: black; stroke-width:0.25;"/>
<line x1="485.800000" y1="143.000000" x2="488.800000" y2="142.000000"  transform="rotate(0.000000,488.800000,142.000000)" style="stroke: black; stroke-width:0.25;"/>
<line x1="485.800000" y1="149.000000" x2="488.800000" y2="150.000000"  transform="rotate(0.000000,488.800000,150.000000)" style="stroke: black; stroke-width:0.25;"/>
<line x1="485.800000" y1="151.000000" x2="488.800000" y2="150.000000"  transform="rotate(0.000000,488.800000,150.000000)" style="stroke: black; stroke-width:0.25;"/>
<line x1="485.800000" y1="157.000000" x2="488.800000" y2="158.000000"  transform="rotate(0.000000,488.800000,158.000000)" style="stroke: black; stroke-width:0.25;"/>
<line x1="485.800000" y1="159.000000" x2="488.800000" y2="158.000000"  transform="rotate(0.000000,488.800000,158.000000)" style="stroke: black; stroke-width:0.25;"/>
<line x1="485.800000" y1="165.000000" x2="488.800000" y2="166.000000"  transform="rotate(0.000000,488.800000,166.000000)" style="stroke: black; stroke-width:0.25;"/>
<line x1="485.800000" y1="167.000000" x2="488.800000" y2="166.000000"  transform="rotate(0.000000,488.800000,166.000000)" style="stroke: black; stroke-width:0.25;"/>
<line x1="485.800000" y1="173.000000" x2="488.800000" y2="174.000000"  transform="rotate(0.000000,488.800000,174.000000)" style="stroke: black; stroke-width:0.25;"/>
<line x1="485.800000" y1="175.000000" x2="488.800000" y2="174.000000"  transform="rotate(0.000000,488.800000,174.000000)" style="stroke: black; stroke-width:0.25;"/>
<line x1="485.800000" y1="181.000000" x2="488.800000" y2="182.000000"  transform="rotate(0.000000,488.800000,182.000000)" style="stroke: black; stroke-width:0.25;"/>
<line x1="485.800000" y1="183.000000" x2="488.800000" y2="182.000000"  transform="rotate(0.000000,488.800000,182.000000)" style="stroke: black; stroke-width:0.25;"/>
<line x1="485.800000" y1="189.000000" x2="488.800000" y2="190.000000"  transform="rotate(0.000000,488.800000,190.000000)" style="stroke: black; stroke-width:0.25;"/>
<line x1="485.800000" y1="191.000000" x2="488.800000" y2="190.000000"  transform="rotate(0.000000,488.800000,190.000000)" style="stroke: black; stroke-width:0.25;"/>
<line x1="485.800000" y1="197.000000" x2="488.800000" y2="198.000000"  transform="rotate(0.000000,488.800000,198.000000)" style="stroke: black; stroke-width:0.25;"/>
<line x1="485.800000" y1="199.000000" x2="488.800000" y2="198.000000"  transform="rotate(0.000000,488.800000,198.000000)" style="stroke: black; stroke-width:0.25;"/>
<line x1="10.000000" y1="58.000000" x2="20.000000" y2="58.000000"  style="stroke:black; stroke-linecap:round; stroke-width:0.25;"/>
<line x1="10.000000" y1="66.000000" x2="20.000000" y2="66.000000"  style="stroke:black; stroke-linecap:round; stroke-width:0.25;"/>
<line x1="10.000000" y1="74.000000" x2="20.000000" y2="74.000000"  style="stroke:black; stroke-linecap:round; stroke-width:0.25;"/>
<line x1="10.000000" y1="82.000000" x2="20.000000" y2="82.000000"  style="stroke:black; stroke-linecap:round; stroke-width:0.25;"/>
<line x1="10.000000" y1="90.000000" x2="20.000000" y2="90.000000"  style="stroke:black; stroke-linecap:round; stroke-width:0.25;"/>
<line x1="10.000000" y1="98.000000" x2="20.000000" y2="98.000000"  style="stroke:black; stroke-linecap:round; stroke-width:0.25;"/>
<line x1="10.000000" y1="106.000000" x2="20.000000" y2="106.000000"  style="stroke:black; stroke-linecap:round; stroke-width:0.25;"/>
<line x1="10.000000" y1="114.000000" x2="20.000000" y2="114.000000"  style="stroke:black; stroke-linecap:round; stroke-width:0.25;"/>
<line x1="10.000000" y1="122.000000" x2="20.000000" y2="122.000000"  style="stroke:black; stroke-linecap:round; stroke-width:0.25;"/>
<line x1="10.000000" y1="130.000000" x2="20.000000" y2="130.000000"  style="stroke:black; stroke-linecap:round; stroke-width:0.25;"/>
<line x1="10.000000" y1="138.000000" x2="20.000000" y2="138.000000"  style="stroke:black; stroke-linecap:round; stroke-width:0.25;"/>
<line x1="10.000000" y1="146.000000" x2="20.000000" y2="146.000000"  style="stroke:black; stroke-linecap:round; stroke-width:0.25;"/>
<line x1="10.000000" y1="154.000000" x2="20.000000" y2="154.000000"  style="stroke:black; stroke-linecap:round; stroke-width:0.25;"/>
<line x1="10.000000" y1="162.000000" x2="20.000000" y2="162.000000"  style="stroke:black; stroke-linecap:round; stroke-width:0.25;"/>
<line x1="10.000000" y1="170.000000" x2="20.000000" y2="170.000000"  style="stroke:black; stroke-linecap:round; stroke-width:0.25;"/>
<line x1="10.000000" y1="178.000000" x2="20.000000" y2="178.000000"  style="stroke:black; stroke-linecap:round; stroke-width:0.25;"/>
<line x1="10.000000" y1="186.000000" x2="20.000000" y2="186.000000"  style="stroke:black; stroke-linecap:round; stroke-width:0.25;"/>
<line x1="10.000000" y1="194.000000" x2="20.000000" y2="194.000000"  style="stroke:black; stroke-linecap:round; stroke-width:0.25;"/>
<line x1="20.000000" y1="58.000000" x2="24.000000" y2="58.000000"  style="stroke:black; stroke-linecap:round; stroke-width:0.25;"/>
<line x1="20.000000" y1="66.000000" x2="24.000000" y2="66.000000"  style="stroke:black; stroke-linecap:round; stroke-width:0.25;"/>
<line x1="20.000000" y1="74.000000" x2="24.000000" y2="74.000000"  style="stroke:black; stroke-linecap:round; stroke-width:0.25;"/>
<line x1="20.000000" y1="82.000000" x2="24.000000" y2="82.000000"  style="stroke:black; stroke-linecap:round; stroke-width:0.25;"/>
<line x1="20.000000" y1="90.000000" x2="24.000000" y2="90.000000"  style="stroke:black; stroke-linecap:round; stroke-width:0.25;"/>
<line x1="20.000000" y1="98.000000" x2="24.000000" y2="98.000000"  style="stroke:black; stroke-linecap:round; stroke-width:0.25;"/>
<line x1="20.000000" y1="106.000000" x2="24.000000" y2="106.000000"  style="stroke:black; stroke-linecap:round; stroke-width:0.25;"/>
<line x1="20.000000" y1="114.000000" x2="24.000000" y2="114.000000"  style="stroke:black; stroke-linecap:round; stroke-width:0.25;"/>
<line x1="20.000000" y1="122.000000" x2="24.000000" y2="122.000000"  style="stroke:black; stroke-linecap:round; stroke-width:0.25;"/>
<line x1="20.000000" y1="130.000000" x2="24.000000" y2="130.000000"  style="stroke:black; stroke-linecap:round; stroke-width:0.25;"/>
<line x1="20.000000" y1="138.000000" x2="24.000000" y2="138.000000"  style="stroke:black; stroke-linecap:round; stroke-width:0.25;"/>
<line x1="20.000000" y1="146.000000" x2="24.000000" y2="146.000000"  style="stroke:black; stroke-linecap:round; stroke-width:0.25;"/>
<line x1="20.000000" y1="154.000000" x2="24.000000" y2="154.000000"  style="stroke:black; stroke-linecap:round; stroke-width:0.25;"/>
<line x1="20.000000" y1="162.000000" x2="24.000000" y2="162.000000"  style="stroke:black; stroke-linecap:round; stroke-width:0.25;"/>
<line x1="20.000000" y1="170.000000" x2="24.000000" y2="170.000000"  style="stroke:black; stroke-linecap:round; stroke-width:0.25;"/>
<line x1="20.000000" y1="178.000000" x2="24.000000" y2="178.000000"  style="stroke:black; stroke-linecap:round; stroke-width:0.25;"/>
<line x1="20.000000" y1="186.000000" x2="24.000000" y2="186.000000"  style="stroke:black; stroke-linecap:round; stroke-width:0.25;"/>
<line x1="20.000000" y1="194.000000" x2="24.000000" y2="194.000000"  style="stroke:black; stroke-linecap:round; stroke-width:0.25;"/>
<line x1="24.000000" y1="58.000000" x2="28.000000" y2="58.000000"  style="stroke:black; stroke-linecap:round; stroke-width:0.25;"/>
<line x1="24.000000" y1="66.000000" x2="28.000000" y2="66.000000"  style="stroke:black; stroke-linecap:round; stroke-width:0.25;"/>
<line x1="24.000000" y1="74.000000" x2="28.000000" y2="74.000000"  style="stroke:black; stroke-linecap:round; stroke-width:0.25;"/>
<line x1="24.000000" y1="82.000000" x2="28.000000" y2="82.000000"  style="stroke:black; stroke-linecap:round; stroke-width:0.25;"/>
<line x1="24.000000" y1="90.000000" x2="28.000000" y2="90.000000"  style="stroke:black; stroke-linecap:round; stroke-width:0.25;"/>
<line x1="24.000000" y1="98.000000" x2="28.000000" y2="98.000000"  style="stroke:black; stroke-linecap:round; stroke-width:0.25;"/>
<line x1="24.000000" y1="106.000000" x2="28.000000" y2="106.000000"  style="stroke:black; stroke-linecap:round; stroke-width:0.25;"/>
<line x1="24.000000" y1="114.000000" x2="28.000000" y2="114.000000"  style="stroke:black; stroke-linecap:round; stroke-width:0.25;"/>
<line x1="24.000000" y1="122.000000" x2="28.000000" y2="122.000000"  style="stroke:black; stroke-linecap:round; stroke-width:0.25;"/>
<line x1="24.000000" y1="130.000000" x2="28.000000" y2="130.000000"  style="stroke:black; stroke-linecap:round; stroke-width:0.25;"/>
<line x1="24.000000" y1="138.000000" x2="28.000000" y2="138.000000"  style="stroke:black; stroke-linecap:round; stroke-width:0.25;"/>
<line x1="24.000000" y1="146.000000" x2="28.000000" y2="146.000000"  style="stroke:black; stroke-linecap:round; stroke-width:0.25;"/>
<line x1="24.000000" y1="154.000000" x2="28.000000" y2="154.000000"  style="stroke:black; stroke-linecap:round; stroke-width:0.25;"/>
<line x1="24.000000" y1="162.000000" x2="28.000000" y2="162.000000"  style="stroke:black; stroke-linecap:round; stroke-width:0.25;"/>
<line x1="24.000000" y1="170.000000" x2="28.000000" y2="170.000000"  style="stroke:black; stroke-linecap:round; stroke-width:0.25;"/>
<line x1="24.000000" y1="178.000000" x2="28.000000" y2="178.000000"  style="stroke:black; stroke-linecap:round; stroke-width:0.25;"/>
<line x1="24.000000" y1="186.000000" x2="28.000000" y2="186.000000"  style="stroke:black; stroke-linecap:round; stroke-width:0.25;"/>
<line x1="24.000000" y1="194.000000" x2="28.000000" y2="194.000000"  style="stroke:black; stroke-linecap:round; stroke-width:0.25;"/>
<line x1="28.000000" y1="24.000000" x2="164.000000" y2="24.000000"  style="stroke:black; stroke-linecap:round; stroke-width:0.25;"/>
<line x1="28.000000" y1="58.000000" x2="28.000000" y2="24.000000"  style="stroke:black; stroke-linecap:round; stroke-width:0.25;"/>
<line x1="28.000000" y1="58.000000" x2="28.000000" y2="58.000000"  style="stroke:black; stroke-linecap:round; stroke-width:0.25;"/>
<line x1="28.000000" y1="66.000000" x2="36.000000" y2="66.000000"  style="stroke:black; stroke-linecap:round; stroke-width:0.25;"/>
<line x1="28.000000" y1="74.000000" x2="44.000000" y2="74.000000"  style="stroke:black; stroke-linecap:round; stroke-width:0.25;"/>
<line x1="28.000000" y1="82.000000" x2="52.000000" y2="82.000000"  style="stroke:black; stroke-linecap:round; stroke-width:0.25;"/>
<line x1="28.000000" y1="90.000000" x2="60.000000" y2="90.000000"  style="stroke:black; stroke-linecap:round; stroke-width:0.25;"/>
<line x1="28.000000" y1="98.000000" x2="68.000000" y2="98.000000"  style="stroke:black; stroke-linecap:round; stroke-width:0.25;"/>
<line x1="28.000000" y1="106.000000" x2="76.000000" y2="106.000000"  style="stroke:black; stroke-linecap:round; stroke-width:0.25;"/>
<line x1="28.000000" y1="114.000000" x2="84.000000" y2="114.000000"  style="stroke:black; stroke-linecap:round; stroke-width:0.25;"/>
<line x1="28.000000" y1="122.000000" x2="92.000000" y2="122.000000"  style="stroke:black; stroke-linecap:round; stroke-width:0.25;"/>
<line x1="28.000000" y1="130.000000" x2="100.000000" y2="130.000000"  style="stroke:black; stroke-linecap:round; stroke-width:0.25;"/>
<line x1="28.000000" y1="138.000000" x2="108.000000" y2="138.000000"  style="stroke:black; stroke-linecap:round; stroke-width:0.25;"/>
<line x1="28.000000" y1="146.000000" x2="116.000000" y2="146.000000"  style="stroke:black; stroke-linecap:round; stroke-width:0.25;"/>
<line x1="28.000000" y1="154.000000" x2="124.000000" y2="154.000000"  style="stroke:black; stroke-linecap:round; stroke-width:0.25;"/>
<line x1="28.000000" y1="162.000000" x2="132.000000" y2="162.000000"  style="stroke:black; stroke-linecap:round; stroke-width:0.25;"/>
<line x1="28.000000" y1="170.000000" x2="140.000000" y2="170.000000"  style="stroke:black; stroke-linecap:round; stroke-width:0.25;"/>
<line x1="28.000000" y1="178.000000" x2="148.000000" y2="178.000000"  style="stroke:black; stroke-linecap:round; stroke-width:0.25;"/>
<line x1="28.000000" y1="186.000000" x2="156.000000" y2="186.000000"  style="stroke:black; stroke-linecap:round; stroke-width:0.25;"/>
<line x1="28.000000" y1="194.000000" x2="164.000000" y2="194.000000"  style="stroke:black; stroke-linecap:round; stroke-width:0.25;"/>
<line x1="36.000000" y1="32.000000" x2="164.000000" y2="32.000000"  style="stroke:black; stroke-linecap:round; stroke-width:0.25;"/>
<line x1="36.000000" y1="66.000000" x2="36.000000" y2="32.000000"  style="stroke:black; stroke-linecap:round; stroke-width:0.25;"/>
<line x1="44.000000" y1="40.000000" x2="164.000000" y2="40.000000"  style="stroke:black; stroke-linecap:round; stroke-width:0.25;"/>
<line x1="44.000000" y1="74.000000" x2="44.000000" y2="40.000000"  style="stroke:black; stroke-linecap:round; stroke-width:0.25;"/>
<line x1="52.000000" y1="48.000000" x2="164.000000" y2="48.000000"  style="stroke:black; stroke-linecap:round; stroke-width:0.25;"/>
<line x1="52.000000" y1="82.000000" x2="52.000000" y2="48.000000"  style="stroke:black; stroke-linecap:round; stroke-width:0.25;"/>
<line x1="60.000000" y1="56.000000" x2="164.000000" y2="56.000000"  style="stroke:black; stroke-linecap:round; stroke-width:0.25;"/>
<line x1="60.000000" y1="90.000000" x2="60.000000" y2="56.000000"  style="stroke:black; stroke-linecap:round; stroke-width:0.25;"/>
<line x1="68.000000" y1="64.000000" x2="164.000000" y2="64.000000"  style="stroke:black; stroke-linecap:round; stroke-width:0.25;"/>
<line x1="68.000000" y1="98.000000" x2="68.000000" y2="64.000000"  style="stroke:black; stroke-linecap:round; stroke-width:0.25;"/>
<line x1="76.000000" y1="72.000000" x2="164.000000" y2="72.000000"  style="stroke:black; stroke-linecap:round; stroke-width:0.25;"/>
<line x1="76.000000" y1="106.000000" x2="76.000000" y2="72.000000"  style="stroke:black; stroke-linecap:round; stroke-width:0.25;"/>
<line x1="84.000000" y1="80.000000" x2="164.000000" y2="80.000000"  style="stroke:black; stroke-linecap:round; stroke-width:0.25;"/>
<line x1="84.000000" y1="114.000000" x2="84.000000" y2="80.000000"  style="stroke:black; stroke-linecap:round; stroke-width:0.25;"/>
<line x1="92.000000" y1="88.000000" x2="164.000000" y2="88.000000"  style="stroke:black; stroke-linecap:round; stroke-width:0.25;"/>
<line x1="92.000000" y1="122.000000" x2="92.000000" y2="88.000000"  style="stroke:black; stroke-linecap:round; stroke-width:0.25;"/>
<line x1="100.000000" y1="96.000000" x2="164.000000" y2="96.000000"  style="stroke:black; stroke-linecap:round; stroke-width:0.25;"/>
<line x1="100.000000" y1="130.000000" x2="100.000000" y2="96.000000"  style="stroke:black; stroke-linecap:round; stroke-width:0.25;"/>
<line x1="108.000000" y1="104.000000" x2="164.000000" y2="104.000000"  style="stroke:black; stroke-linecap:round; stroke-width:0.25;"/>
<line x1="108.000000" y1="138.000000" x2="108.000000" y2="104.000000"  style="stroke:black; stroke-linecap:round; stroke-width:0.25;"/>
<line x1="116.000000" y1="112.000000" x2="164.000000" y2="112.000000"  style="stroke:black; stroke-linecap:round; stroke-width:0.25;"/>
<line x1="116.000000" y1="146.000000" x2="116.000000" y2="112.000000"  style="stroke:black; stroke-linecap:round; stroke-width:0.25;"/>
<line x1="124.000000" y1="120.000000" x2="164.000000" y2="120.000000"  style="stroke:black; stroke-linecap:round; stroke-width:0.25;"/>
<line x1="124.000000" y1="154.000000" x2="124.000000" y2="120.000000"  style="stroke:black; stroke-linecap:round; stroke-width:0.25;"/>
<line x1="132.000000" y1="128.000000" x2="164.000000" y2="128.000000"  style="stroke:black; stroke-linecap:round; stroke-width:0.25;"/>
<line x1="132.000000" y1="162.000000" x2="132.000000" y2="128.000000"  style="stroke:black; stroke-linecap:round; stroke-width:0.25;"/>
<line x1="140.000000" y1="136.000000" x2="164.000000" y2="136.000000"  style="stroke:black; stroke-linecap:round; stroke-width:0.25;"/>
<line x1="140.000000" y1="170.000000" x2="140.000000" y2="136.000000"  style="stroke:black; stroke-linecap:round; stroke-width:0.25;"/>
<line x1="148.000000" y1="144.000000" x2="164.000000" y2="144.000000"  style="stroke:black; stroke-linecap:round; stroke-width:0.25;"/>
<line x1="148.000000" y1="178.000000" x2="148.000000" y2="144.000000"  style="stroke:black; stroke-linecap:round; stroke-width:0.25;"/>
<line x1="156.000000" y1="152.000000" x2="164.000000" y2="152.000000"  style="stroke:black; stroke-linecap:round; stroke-width:0.25;"/>
<line x1="156.000000" y1="186.000000" x2="156.000000" y2="152.000000"  style="stroke:black; stroke-linecap:round; stroke-width:0.25;"/>
<line x1="164.000000" y1="24.000000" x2="245.400000" y2="24.000000"  style="stroke:black; stroke-linecap:round; stroke-width:0.25;"/>
<line x1="164.000000" y1="32.000000" x2="245.400000" y2="32.000000"  style="stroke:black; stroke-linecap:round; stroke-width:0.25;"/>
<line x1="164.000000" y1="40.000000" x2="245.400000" y2="40.000000"  style="stroke:black; stroke-linecap:round; stroke-width:0.25;"/>
<line x1="164.000000" y1="48.000000" x2="245.400000" y2="48.000000"  style="stroke:black; stroke-linecap:round; stroke-width:0.25;"/>
<line x1="164.000000" y1="56.000000" x2="245.400000" y2="56.000000"  style="stroke:black; stroke-linecap:round; stroke-width:0.25;"/>
<line x1="164.000000" y1="64.000000" x2="245.400000" y2="64.000000"  style="stroke:black; stroke-linecap:round; stroke-width:0.25;"/>
<line x1="164.000000" y1="72.000000" x2="245.400000" y2="72.000000"  style="stroke:black; stroke-linecap:round; stroke-width:0.25;"/>
<line x1="164.000000" y1="80.000000" x2="245.400000" y2="80.000000"  style="stroke:black; stroke-linecap:round; stroke-width:0.25;"/>
<line x1="164.000000" y1="88.000000" x2="245.400000" y2="88.000000"  style="stroke:black; stroke-linecap:round; stroke-width:0.25;"/>
<line x1="164.000000" y1="96.000000" x2="245.400000" y2="96.000000"  style="stroke:black; stroke-linecap:round; stroke-width:0.25;"/>
<line x1="164.000000" y1="104.000000" x2="245.400000" y2="104.000000"  style="stroke:black; stroke-linecap:round; stroke-width:0.25;"/>
<line x1="164.000000" y1="112.000000" x2="245.400000" y2="112.000000"  style="stroke:black; stroke-linecap:round; stroke-width:0.25;"/>
<line x1="164.000000" y1="120.000000" x2="245.400000" y2="120.000000"  style="stroke:black; stroke-linecap:round; stroke-width:0.25;"/>
<line x1="164.000000" y1="128.000000" x2="245.400000" y2="128.000000"  style="stroke:black; stroke-linecap:round; stroke-width:0.25;"/>
<line x1="164.000000" y1="136.000000" x2="245.400000" y2="136.000000"  style="stroke:black; stroke-linecap:round; stroke-width:0.25;"/>
<line x1="164.000000" y1="144.000000" x2="245.400000" y2="144.000000"  style="stroke:black; stroke-linecap:round; stroke-width:0.25;"/>
<line x1="164.000000" y1="152.000000" x2="245.400000" y2="152.000000"  style="stroke:black; stroke-linecap:round; stroke-width:0.25;"/>
<line x1="164.000000" y1="194.000000" x2="168.000000" y2="194.000000"  style="stroke:black; stroke-linecap:round; stroke-width:0.25;"/>
<line x1="168.000000" y1="194.000000" x2="172.000000" y2="194.000000"  style="stroke:black; stroke-linecap:round; stroke-width:0.25;"/>
<line x1="172.000000" y1="194.000000" x2="193.000000" y2="160.000000"  style="stroke:black; stroke-linecap:round; stroke-width:0.25;"/>
<line x1="172.000000" y1="194.000000" x2="193.000000" y2="168.000000"  style="stroke:black; stroke-linecap:round; stroke-width:0.25;"/>
<line x1="172.000000" y1="194.000000" x2="193.000000" y2="176.000000"  style="stroke:black; stroke-linecap:round; stroke-width:0.25;"/>
<line x1="193.000000" y1="160.000000" x2="259.900000" y2="160.000000"  style="stroke:black; stroke-linecap:round; stroke-width:0.25;"/>
<line x1="193.000000" y1="168.000000" x2="239.900000" y2="168.000000"  style="stroke:black; stroke-linecap:round; stroke-width:0.25;"/>
<line x1="193.000000" y1="176.000000" x2="219.900000" y2="176.000000"  style="stroke:black; stroke-linecap:round; stroke-width:0.25;"/>
<line x1="219.900000" y1="176.000000" x2="246.800000" y2="176.000000"  style="stroke:black; stroke-linecap:round; stroke-width:0.25;"/>
<line x1="232.800000" y1="206.000000" x2="236.800000" y2="206.000000"  style="stroke:black; stroke-linecap:round; stroke-width:0.25;"/>
<line x1="236.800000" y1="206.000000" x2="246.800000" y2="206.000000"  style="stroke:black; stroke-linecap:round; stroke-width:0.25;"/>
<line x1="239.900000" y1="168.000000" x2="286.800000" y2="168.000000"  style="stroke:black; stroke-linecap:round; stroke-width:0.25;"/>
<line x1="245.400000" y1="24.000000" x2="326.800000" y2="24.000000"  style="stroke:black; stroke-linecap:round; stroke-width:0.25;"/>
<line x1="245.400000" y1="32.000000" x2="326.800000" y2="32.000000"  style="stroke:black; stroke-linecap:round; stroke-width:0.25;"/>
<line x1="245.400000" y1="40.000000" x2="326.800000" y2="40.000000"  style="stroke:black; stroke-linecap:round; stroke-width:0.25;"/>
<line x1="245.400000" y1="48.000000" x2="326.800000" y2="48.000000"  style="stroke:black; stroke-linecap:round; stroke-width:0.25;"/>
<line x1="245.400000" y1="56.000000" x2="326.800000" y2="56.000000"  style="stroke:black; stroke-linecap:round; stroke-width:0.25;"/>
<line x1="245.400000" y1="64.000000" x2="326.800000" y2="64.000000"  style="stroke:black; stroke-linecap:round; stroke-width:0.25;"/>
<line x1="245.400000" y1="72.000000" x2="326.800000" y2="72.000000"  style="stroke:black; stroke-linecap:round; stroke-width:0.25;"/>
<line x1="245.400000" y1="80.000000" x2="326.800000" y2="80.000000"  style="stroke:black; stroke-linecap:round; stroke-width:0.25;"/>
<line x1="245.400000" y1="88.000000" x2="326.800000" y2="88.000000"  style="stroke:black; stroke-linecap:round; stroke-width:0.25;"/>
<line x1="245.400000" y1="96.000000" x2="326.800000" y2="96.000000"  style="stroke:black; stroke-linecap:round; stroke-width:0.25;"/>
<line x1="245.400000" y1="104.000000" x2="326.800000" y2="104.000000"  style="stroke:black; stroke-linecap:round; stroke-width:0.25;"/>
<line x1="245.400000" y1="112.000000" x2="326.800000" y2="112.000000"  style="stroke:black; stroke-linecap:round; stroke-width:0.25;"/>
<line x1="245.400000" y1="120.000000" x2="326.800000" y2="120.000000"  style="stroke:black; stroke-linecap:round; stroke-width:0.25;"/>
<line x1="245.400000" y1="128.000000" x2="326.800000" y2="128.000000"  style="stroke:black; stroke-linecap:round; stroke-width:0.25;"/>
<line x1="245.400000" y1="136.000000" x2="326.800000" y2="136.000000"  style="stroke:black; stroke-linecap:round; stroke-width:0.25;"/>
<line x1="245.400000" y1="144.000000" x2="326.800000" y2="144.000000"  style="stroke:black; stroke-linecap:round; stroke-width:0.25;"/>
<line x1="245.400000" y1="152.000000" x2="326.800000" y2="152.000000"  style="stroke:black; stroke-linecap:round; stroke-width:0.25;"/>
<line x1="246.800000" y1="176.000000" x2="254.800000" y2="176.000000"  style="stroke:black; stroke-linecap:round; stroke-width:0.25;"/>
<line x1="246.800000" y1="206.000000" x2="254.800000" y2="206.000000"  style="stroke:black; stroke-linecap:round; stroke-width:0.25;"/>
<line x1="254.800000" y1="176.000000" x2="254.800000" y2="198.000000"  style="stroke:black; stroke-linecap:round; stroke-width:0.25;"/>
<line x1="254.800000" y1="198.000000" x2="254.800000" y2="198.000000"  style="stroke:black; stroke-linecap:round; stroke-width:0.25;"/>
<line x1="254.800000" y1="198.000000" x2="258.800000" y2="198.000000"  style="stroke:black; stroke-linecap:round; stroke-width:0.25;"/>
<line x1="254.800000" y1="206.000000" x2="258.800000" y2="206.000000"  style="stroke:black; stroke-linecap:round; stroke-width:0.25;"/>
<line x1="259.900000" y1="160.000000" x2="326.800000" y2="160.000000"  style="stroke:black; stroke-linecap:round; stroke-width:0.25;"/>
<line x1="282.800000" y1="202.000000" x2="286.800000" y2="202.000000"  style="stroke:black; stroke-linecap:round; stroke-width:0.25;"/>
<line x1="286.800000" y1="168.000000" x2="294.800000" y2="168.000000"  style="stroke:black; stroke-linecap:round; stroke-width:0.25;"/>
<line x1="286.800000" y1="202.000000" x2="294.800000" y2="202.000000"  style="stroke:black; stroke-linecap:round; stroke-width:0.25;"/>
<line x1="294.800000" y1="168.000000" x2="294.800000" y2="194.000000"  style="stroke:black; stroke-linecap:round; stroke-width:0.25;"/>
<line x1="294.800000" y1="194.000000" x2="294.800000" y2="194.000000"  style="stroke:black; stroke-linecap:round; stroke-width:0.25;"/>
<line x1="294.800000" y1="194.000000" x2="298.800000" y2="194.000000"  style="stroke:black; stroke-linecap:round; stroke-width:0.25;"/>
<line x1="294.800000" y1="202.000000" x2="298.800000" y2="202.000000"  style="stroke:black; stroke-linecap:round; stroke-width:0.25;"/>
<line x1="322.800000" y1="198.000000" x2="326.800000" y2="198.000000"  style="stroke:black; stroke-linecap:round; stroke-width:0.25;"/>
<line x1="326.800000" y1="160.000000" x2="334.800000" y2="160.000000"  style="stroke:black; stroke-linecap:round; stroke-width:0.25;"/>
<line x1="326.800000" y1="24.000000" x2="470.800000" y2="24.000000"  style="stroke:black; stroke-linecap:round; stroke-width:0.25;"/>
<line x1="326.800000" y1="32.000000" x2="462.800000" y2="32.000000"  style="stroke:black; stroke-linecap:round; stroke-width:0.25;"/>
<line x1="326.800000" y1="40.000000" x2="454.800000" y2="40.000000"  style="stroke:black; stroke-linecap:round; stroke-width:0.25;"/>
<line x1="326.800000" y1="48.000000" x2="446.800000" y2="48.000000"  style="stroke:black; stroke-linecap:round; stroke-width:0.25;"/>
<line x1="326.800000" y1="56.000000" x2="438.800000" y2="56.000000"  style="stroke:black; stroke-linecap:round; stroke-width:0.25;"/>
<line x1="326.800000" y1="64.000000" x2="430.800000" y2="64.000000"  style="stroke:black; stroke-linecap:round; stroke-width:0.25;"/>
<line x1="326.800000" y1="72.000000" x2="422.800000" y2="72.000000"  style="stroke:black; stroke-linecap:round; stroke-width:0.25;"/>
<line x1="326.800000" y1="80.000000" x2="414.800000" y2="80.000000"  style="stroke:black; stroke-linecap:round; stroke-width:0.25;"/>
<line x1="326.800000" y1="88.000000" x2="406.800000" y2="88.000000"  style="stroke:black; stroke-linecap:round; stroke-width:0.25;"/>
<line x1="326.800000" y1="96.000000" x2="398.800000" y2="96.000000"  style="stroke:black; stroke-linecap:round; stroke-width:0.25;"/>
<line x1="326.800000" y1="104.000000" x2="390.800000" y2="104.000000"  style="stroke:black; stroke-linecap:round; stroke-width:0.25;"/>
<line x1="326.800000" y1="112.000000" x2="382.800000" y2="112.000000"  style="stroke:black; stroke-linecap:round; stroke-width:0.25;"/>
<line x1="326.800000" y1="120.000000" x2="374.800000" y2="120.000000"  style="stroke:black; stroke-linecap:round; stroke-width:0.25;"/>
<line x1="326.800000" y1="128.000000" x2="366.800000" y2="128.000000"  style="stroke:black; stroke-linecap:round; stroke-width:0.25;"/>
<line x1="326.800000" y1="136.000000" x2="358.800000" y2="136.000000"  style="stroke:black; stroke-linecap:round; stroke-width:0.25;"/>
<line x1="326.800000" y1="144.000000" x2="350.800000" y2="144.000000"  style="stroke:black; stroke-linecap:round; stroke-width:0.25;"/>
<line x1="326.800000" y1="152.000000" x2="342.800000" y2="152.000000"  style="stroke:black; stroke-linecap:round; stroke-width:0.25;"/>
<line x1="326.800000" y1="198.000000" x2="470.800000" y2="198.000000"  style="stroke:black; stroke-linecap:round; stroke-width:0.25;"/>
<line x1="334.800000" y1="160.000000" x2="334.800000" y2="190.000000"  style="stroke:black; stroke-linecap:round; stroke-width:0.25;"/>
<line x1="334.800000" y1="190.000000" x2="470.800000" y2="190.000000"  style="stroke:black; stroke-linecap:round; stroke-width:0.25;"/>
<line x1="342.800000" y1="152.000000" x2="342.800000" y2="182.000000"  style="stroke:black; stroke-linecap:round; stroke-width:0.25;"/>
<line x1="342.800000" y1="182.000000" x2="470.800000" y2="182.000000"  style="stroke:black; stroke-linecap:round; stroke-width:0.25;"/>
<line x1="350.800000" y1="144.000000" x2="350.800000" y2="174.000000"  style="stroke:black; stroke-linecap:round; stroke-width:0.25;"/>
<line x1="350.800000" y1="174.000000" x2="470.800000" y2="174.000000"  style="stroke:black; stroke-linecap:round; stroke-width:0.25;"/>
<line x1="358.800000" y1="136.000000" x2="358.800000" y2="166.000000"  style="stroke:black; stroke-linecap:round; stroke-width:0.25;"/>
<line x1="358.800000" y1="166.000000" x2="470.800000" y2="166.000000"  style="stroke:black; stroke-linecap:round; stroke-width:0.25;"/>
<line x1="366.800000" y1="128.000000" x2="366.800000" y2="158.000000"  style="stroke:black; stroke-linecap:round; stroke-width:0.25;"/>
<line x1="366.800000" y1="158.000000" x2="470.800000" y2="158.000000"  style="stroke:black; stroke-linecap:round; stroke-width:0.25;"/>
<line x1="374.800000" y1="120.000000" x2="374.800000" y2="150.000000"  style="stroke:black; stroke-linecap:round; stroke-width:0.25;"/>
<line x1="374.800000" y1="150.000000" x2="470.800000" y2="150.000000"  style="stroke:black; stroke-linecap:round; stroke-width:0.25;"/>
<line x1="382.800000" y1="112.000000" x2="382.800000" y2="142.000000"  style="stroke:black; stroke-linecap:round; stroke-width:0.25;"/>
<line x1="382.800000" y1="142.000000" x2="470.800000" y2="142.000000"  style="stroke:black; stroke-linecap:round; stroke-width:0.25;"/>
<line x1="390.800000" y1="104.000000" x2="390.800000" y2="134.000000"  style="stroke:black; stroke-linecap:round; stroke-width:0.25;"/>
<line x1="390.800000" y1="134.000000" x2="470.800000" y2="134.000000"  style="stroke:black; stroke-linecap:round; stroke-width:0.25;"/>
<line x1="398.800000" y1="96.000000" x2="398.800000" y2="126.000000"  style="stroke:black; stroke-linecap:round; stroke-width:0.25;"/>
<line x1="398.800000" y1="126.000000" x2="470.800000" y2="126.000000"  style="stroke:black; stroke-linecap:round; stroke-width:0.25;"/>
<line x1="406.800000" y1="88.000000" x2="406.800000" y2="118.000000"  style="stroke:black; stroke-linecap:round; stroke-width:0.25;"/>
<line x1="406.800000" y1="118.000000" x2="470.800000" y2="118.000000"  style="stroke:black; stroke-linecap:round; stroke-width:0.25;"/>
<line x1="414.800000" y1="80.000000" x2="414.800000" y2="110.000000"  style="stroke:black; stroke-linecap:round; stroke-width:0.25;"/>
<line x1="414.800000" y1="110.000000" x2="470.800000" y2="110.000000"  style="stroke:black; stroke-linecap:round; stroke-width:0.25;"/>
<line x1="422.800000" y1="72.000000" x2="422.800000" y2="102.000000"  style="stroke:black; stroke-linecap:round; stroke-width:0.25;"/>
<line x1="422.800000" y1="102.000000" x2="470.800000" y2="102.000000"  style="stroke:black; stroke-linecap:round; stroke-width:0.25;"/>
<line x1="430.800000" y1="64.000000" x2="430.800000" y2="94.000000"  style="stroke:black; stroke-linecap:round; stroke-width:0.25;"/>
<line x1="430.800000" y1="94.000000" x2="470.800000" y2="94.000000"  style="stroke:black; stroke-linecap:round; stroke-width:0.25;"/>
<line x1="438.800000" y1="56.000000" x2="438.800000" y2="86.000000"  style="stroke:black; stroke-linecap:round; stroke-width:0.25;"/>
<line x1="438.800000" y1="86.000000" x2="470.800000" y2="86.000000"  style="stroke:black; stroke-linecap:round; stroke-width:0.25;"/>
<line x1="446.800000" y1="48.000000" x2="446.800000" y2="78.000000"  style="stroke:black; stroke-linecap:round; stroke-width:0.25;"/>
<line x1="446.800000" y1="78.000000" x2="470.800000" y2="78.000000"  style="stroke:black; stroke-linecap:round; stroke-width:0.25;"/>
<line x1="454.800000" y1="40.000000" x2="454.800000" y2="70.000000"  style="stroke:black; stroke-linecap:round; stroke-width:0.25;"/>
<line x1="454.800000" y1="70.000000" x2="470.800000" y2="70.000000"  style="stroke:black; stroke-linecap:round; stroke-width:0.25;"/>
<line x1="462.800000" y1="32.000000" x2="462.800000" y2="62.000000"  style="stroke:black; stroke-linecap:round; stroke-width:0.25;"/>
<line x1="462.800000" y1="62.000000" x2="470.800000" y2="62.000000"  style="stroke:black; stroke-linecap:round; stroke-width:0.25;"/>
<line x1="470.800000" y1="24.000000" x2="470.800000" y2="54.000000"  style="stroke:black; stroke-linecap:round; stroke-width:0.25;"/>
<line x1="470.800000" y1="54.000000" x2="470.800000" y2="54.000000"  style="stroke:black; stroke-linecap:round; stroke-width:0.25;"/>
<line x1="470.800000" y1="54.000000" x2="474.800000" y2="54.000000"  style="stroke:black; stroke-linecap:round; stroke-width:0.25;"/>
<line x1="470.800000" y1="62.000000" x2="474.800000" y2="62.000000"  style="stroke:black; stroke-linecap:round; stroke-width:0.25;"/>
<line x1="470.800000" y1="70.000000" x2="474.800000" y2="70.000000"  style="stroke:black; stroke-linecap:round; stroke-width:0.25;"/>
<line x1="470.800000" y1="78.000000" x2="474.800000" y2="78.000000"  style="stroke:black; stroke-linecap:round; stroke-width:0.25;"/>
<line x1="470.800000" y1="86.000000" x2="474.800000" y2="86.000000"  style="stroke:black; stroke-linecap:round; stroke-width:0.25;"/>
<line x1="470.800000" y1="94.000000" x2="474.800000" y2="94.000000"  style="stroke:black; stroke-linecap:round; stroke-width:0.25;"/>
<line x1="470.800000" y1="102.000000" x2="474.800000" y2="102.000000"  style="stroke:black; stroke-linecap:round; stroke-width:0.25;"/>
<line x1="470.800000" y1="110.000000" x2="474.800000" y2="110.000000"  style="stroke:black; stroke-linecap:round; stroke-width:0.25;"/>
<line x1="470.800000" y1="118.000000" x2="474.800000" y2="118.000000"  style="stroke:black; stroke-linecap:round; stroke-width:0.25;"/>
<line x1="470.800000" y1="126.000000" x2="474.800000" y2="126.000000"  style="stroke:black; stroke-linecap:round; stroke-width:0.25;"/>
<line x1="470.800000" y1="134.000000" x2="474.800000" y2="134.000000"  style="stroke:black; stroke-linecap:round; stroke-width:0.25;"/>
<line x1="470.800000" y1="142.000000" x2="474.800000" y2="142.000000"  style="stroke:black; stroke-linecap:round; stroke-width:0.25;"/>
<line x1="470.800000" y1="150.000000" x2="474.800000" y2="150.000000"  style="stroke:black; stroke-linecap:round; stroke-width:0.25;"/>
<line x1="470.800000" y1="158.000000" x2="474.800000" y2="158.000000"  style="stroke:black; stroke-linecap:round; stroke-width:0.25;"/>
<line x1="470.800000" y1="166.000000" x2="474.800000" y2="166.000000"  style="stroke:black; stroke-linecap:round; stroke-width:0.25;"/>
<line x1="470.800000" y1="174.000000" x2="474.800000" y2="174.000000"  style="stroke:black; stroke-linecap:round; stroke-width:0.25;"/>
<line x1="470.800000" y1="182.000000" x2="474.800000" y2="182.000000"  style="stroke:black; stroke-linecap:round; stroke-width:0.25;"/>
<line x1="470.800000" y1="190.000000" x2="474.800000" y2="190.000000"  style="stroke:black; stroke-linecap:round; stroke-width:0.25;"/>
<line x1="470.800000" y1="198.000000" x2="474.800000" y2="198.000000"  style="stroke:black; stroke-linecap:round; stroke-width:0.25;"/>
<line x1="474.800000" y1="54.000000" x2="478.800000" y2="54.000000"  style="stroke:black; stroke-linecap:round; stroke-width:0.25;"/>
<line x1="474.800000" y1="62.000000" x2="478.800000" y2="62.000000"  style="stroke:black; stroke-linecap:round; stroke-width:0.25;"/>
<line x1="474.800000" y1="70.000000" x2="478.800000" y2="70.000000"  style="stroke:black; stroke-linecap:round; stroke-width:0.25;"/>
<line x1="474.800000" y1="78.000000" x2="478.800000" y2="78.000000"  style="stroke:black; stroke-linecap:round; stroke-width:0.25;"/>
<line x1="474.800000" y1="86.000000" x2="478.800000" y2="86.000000"  style="stroke:black; stroke-linecap:round; stroke-width:0.25;"/>
<line x1="474.800000" y1="94.000000" x2="478.800000" y2="94.000000"  style="stroke:black; stroke-linecap:round; stroke-width:0.25;"/>
<line x1="474.800000" y1="102.000000" x2="478.800000" y2="102.000000"  style="stroke:black; stroke-linecap:round; stroke-width:0.25;"/>
<line x1="474.800000" y1="110.000000" x2="478.800000" y2="110.000000"  style="stroke:black; stroke-linecap:round; stroke-width:0.25;"/>
<line x1="474.800000" y1="118.000000" x2="478.800000" y2="118.000000"  style="stroke:black; stroke-linecap:round; stroke-width:0.25;"/>
<line x1="474.800000" y1="126.000000" x2="478.800000" y2="126.000000"  style="stroke:black; stroke-linecap:round; stroke-width:0.25;"/>
<line x1="474.800000" y1="134.000000" x2="478.800000" y2="134.000000"  style="stroke:black; stroke-linecap:round; stroke-width:0.25;"/>
<line x1="474.800000" y1="142.000000" x2="478.800000" y2="142.000000"  style="stroke:black; stroke-linecap:round; stroke-width:0.25;"/>
<line x1="474.800000" y1="150.000000" x2="478.800000" y2="150.000000"  style="stroke:black; stroke-linecap:round; stroke-width:0.25;"/>
<line x1="474.800000" y1="158.000000" x2="478.800000" y2="158.000000"  style="stroke:black; stroke-linecap:round; stroke-width:0.25;"/>
<line x1="474.800000" y1="166.000000" x2="478.800000" y2="166.000000"  style="stroke:black; stroke-linecap:round; stroke-width:0.25;"/>
<line x1="474.800000" y1="174.000000" x2="478.800000" y2="174.000000"  style="stroke:black; stroke-linecap:round; stroke-width:0.25;"/>
<line x1="474.800000" y1="182.000000" x2="478.800000" y2="182.000000"  style="stroke:black; stroke-linecap:round; stroke-width:0.25;"/>
<line x1="474.800000" y1="190.000000" x2="478.800000" y2="190.000000"  style="stroke:black; stroke-linecap:round; stroke-width:0.25;"/>
<line x1="474.800000" y1="198.000000" x2="478.800000" y2="198.000000"  style="stroke:black; stroke-linecap:round; stroke-width:0.25;"/>
<line x1="478.800000" y1="54.000000" x2="488.800000" y2="54.000000"  style="stroke:black; stroke-linecap:round; stroke-width:0.25;"/>
<line x1="478.800000" y1="62.000000" x2="488.800000" y2="62.000000"  style="stroke:black; stroke-linecap:round; stroke-width:0.25;"/>
<line x1="478.800000" y1="70.000000" x2="488.800000" y2="70.000000"  style="stroke:black; stroke-linecap:round; stroke-width:0.25;"/>
<line x1="478.800000" y1="78.000000" x2="488.800000" y2="78.000000"  style="stroke:black; stroke-linecap:round; stroke-width:0.25;"/>
<line x1="478.800000" y1="86.000000" x2="488.800000" y2="86.000000"  style="stroke:black; stroke-linecap:round; stroke-width:0.25;"/>
<line x1="478.800000" y1="94.000000" x2="488.800000" y2="94.000000"  style="stroke:black; stroke-linecap:round; stroke-width:0.25;"/>
<line x1="478.800000" y1="102.000000" x2="488.800000" y2="102.000000"  style="stroke:black; stroke-linecap:round; stroke-width:0.25;"/>
<line x1="478.800000" y1="110.000000" x2="488.800000" y2="110.000000"  style="stroke:black; stroke-linecap:round; stroke-width:0.25;"/>
<line x1="478.800000" y1="118.000000" x2="488.800000" y2="118.000000"  style="stroke:black; stroke-linecap:round; stroke-width:0.25;"/>
<line x1="478.800000" y1="126.000000" x2="488.800000" y2="126.000000"  style="stroke:black; stroke-linecap:round; stroke-width:0.25;"/>
<line x1="478.800000" y1="134.000000" x2="488.800000" y2="134.000000"  style="stroke:black; stroke-linecap:round; stroke-width:0.25;"/>
<line x1="478.800000" y1="142.000000" x2="488.800000" y2="142.000000"  style="stroke:black; stroke-linecap:round; stroke-width:0.25;"/>
<line x1="478.800000" y1="150.000000" x2="488.800000" y2="150.000000"  style="stroke:black; stroke-linecap:round; stroke-width:0.25;"/>
<line x1="478.800000" y1="158.000000" x2="488.800000" y2="158.000000"  style="stroke:black; stroke-linecap:round; stroke-width:0.25;"/>
<line x1="478.800000" y1="166.000000" x2="488.800000" y2="166.000000"  style="stroke:black; stroke-linecap:round; stroke-width:0.25;"/>
<line x1="478.800000" y1="174.000000" x2="488.800000" y2="174.000000"  style="stroke:black; stroke-linecap:round; stroke-width:0.25;"/>
<line x1="478.800000" y1="182.000000" x2="488.800000" y2="182.000000"  style="stroke:black; stroke-linecap:round; stroke-width:0.25;"/>
<line x1="478.800000" y1="190.000000" x2="488.800000" y2="190.000000"  style="stroke:black; stroke-linecap:round; stroke-width:0.25;"/>
<line x1="478.800000" y1="198.000000" x2="488.800000" y2="198.000000"  style="stroke:black; stroke-linecap:round; stroke-width:0.25;"/>
</svg>
