<?xml version="1.0"?>
<svg xmlns="http://www.w3.org/2000/svg" xmlns:xlink="http://www.w3.org/1999/xlink" viewBox="0 0 268.000000 504.000000" width="134.000000mm" height="252.000000mm" version="1.1">
<a xlink:href="correlate-0x6000c40ea490.svg">
<rect x="1.000000" y="1.000000" width="267.000000" height="503.000000" rx="0" ry="0" style="stroke:none;fill:#cccccc;"/>
<rect x="0.000000" y="0.000000" width="267.000000" height="503.000000" rx="0" ry="0" style="stroke:none;fill:#ffffff;"/>
</a>
<text x="10.000000" y="7.000000" font-family="Arial" font-size="7"></text>
<rect x="55.000000" y="25.000000" width="24.000000" height="24.000000" rx="0" ry="0" style="stroke:none;fill:#cccccc;"/>
<rect x="54.000000" y="24.000000" width="24.000000" height="24.000000" rx="0" ry="0" style="stroke:none;fill:#47945E;"/>
<text x="66.000000" y="38.000000" font-family="Arial" font-size="7" text-anchor="middle" fill="#FFFFFF">l</text>
<circle cx="56.000000" cy="26.000000" r="1"/>
<a xlink:href="corr-0x6000c40e9050.svg">
<rect x="47.650000" y="57.000000" width="38.700000" height="24.000000" rx="0" ry="0" style="stroke:none;fill:#cccccc;"/>
<rect x="46.650000" y="56.000000" width="38.700000" height="24.000000" rx="0" ry="0" style="stroke:none;fill:#003366;"/>
</a>
<a xlink:href="corr-0x6000c40e9050.svg">
<text x="66.000000" y="70.000000" font-family="Arial" font-size="7" text-anchor="middle" fill="#FFFFFF">corr_neg1</text>
</a>
<circle cx="48.650000" cy="58.000000" r="1"/>
<rect x="102.350000" y="41.000000" width="24.000000" height="24.000000" rx="0" ry="0" style="stroke:none;fill:#cccccc;"/>
<rect x="101.350000" y="40.000000" width="24.000000" height="24.000000" rx="0" ry="0" style="stroke:none;fill:#4B71A1;"/>
<text x="113.350000" y="54.000000" font-family="Arial" font-size="7" text-anchor="middle" fill="#FFFFFF">*</text>
<circle cx="103.350000" cy="42.000000" r="1"/>
<line x1="98.350000" y1="47.000000" x2="101.350000" y2="48.000000"  transform="rotate(0.000000,101.350000,48.000000)" style="stroke: black; stroke-width:0.25;"/>
<line x1="98.350000" y1="49.000000" x2="101.350000" y2="48.000000"  transform="rotate(0.000000,101.350000,48.000000)" style="stroke: black; stroke-width:0.25;"/>
<line x1="98.350000" y1="55.000000" x2="101.350000" y2="56.000000"  transform="rotate(0.000000,101.350000,56.000000)" style="stroke: black; stroke-width:0.25;"/>
<line x1="98.350000" y1="57.000000" x2="101.350000" y2="56.000000"  transform="rotate(0.000000,101.350000,56.000000)" style="stroke: black; stroke-width:0.25;"/>
<rect x="35.000000" y="99.000000" width="24.000000" height="24.000000" rx="0" ry="0" style="stroke:none;fill:#cccccc;"/>
<rect x="34.000000" y="98.000000" width="24.000000" height="24.000000" rx="0" ry="0" style="stroke:none;fill:#f44800;"/>
<text x="46.000000" y="112.000000" font-family="Arial" font-size="7" text-anchor="middle" fill="#FFFFFF">0</text>
<circle cx="36.000000" cy="100.000000" r="1"/>
<line x1="25.000000" y1="89.000000" x2="25.000000" y2="131.000000"  style="stroke: black; stroke-linecap:round; stroke-width:0.25; stroke-dasharray:3,3;"/>
<line x1="25.000000" y1="131.000000" x2="67.000000" y2="131.000000"  style="stroke: black; stroke-linecap:round; stroke-width:0.25; stroke-dasharray:3,3;"/>
<line x1="67.000000" y1="131.000000" x2="67.000000" y2="89.000000"  style="stroke: black; stroke-linecap:round; stroke-width:0.25; stroke-dasharray:3,3;"/>
<line x1="25.000000" y1="89.000000" x2="30.000000" y2="89.000000"  style="stroke: black; stroke-linecap:round; stroke-width:0.25; stroke-dasharray:3,3;"/>
<line x1="62.250000" y1="89.000000" x2="67.000000" y2="89.000000"  style="stroke: black; stroke-linecap:round; stroke-width:0.25; stroke-dasharray:3,3;"/>
<text x="30.000000" y="91.000000" font-family="Arial" font-size="7">clipCond</text>
<rect x="35.000000" y="141.000000" width="24.000000" height="24.000000" rx="0" ry="0" style="stroke:none;fill:#cccccc;"/>
<rect x="34.000000" y="140.000000" width="24.000000" height="24.000000" rx="0" ry="0" style="stroke:none;fill:#47945E;"/>
<text x="46.000000" y="154.000000" font-family="Arial" font-size="7" text-anchor="middle" fill="#FFFFFF">r</text>
<circle cx="36.000000" cy="142.000000" r="1"/>
<rect x="85.000000" y="115.000000" width="24.000000" height="24.000000" rx="0" ry="0" style="stroke:none;fill:#cccccc;"/>
<rect x="84.000000" y="114.000000" width="24.000000" height="24.000000" rx="0" ry="0" style="stroke:none;fill:#4B71A1;"/>
<text x="96.000000" y="128.000000" font-family="Arial" font-size="7" text-anchor="middle" fill="#FFFFFF">-</text>
<circle cx="86.000000" cy="116.000000" r="1"/>
<line x1="81.000000" y1="121.000000" x2="84.000000" y2="122.000000"  transform="rotate(0.000000,84.000000,122.000000)" style="stroke: black; stroke-width:0.25;"/>
<line x1="81.000000" y1="123.000000" x2="84.000000" y2="122.000000"  transform="rotate(0.000000,84.000000,122.000000)" style="stroke: black; stroke-width:0.25;"/>
<line x1="81.000000" y1="129.000000" x2="84.000000" y2="130.000000"  transform="rotate(0.000000,84.000000,130.000000)" style="stroke: black; stroke-width:0.25;"/>
<line x1="81.000000" y1="131.000000" x2="84.000000" y2="130.000000"  transform="rotate(0.000000,84.000000,130.000000)" style="stroke: black; stroke-width:0.25;"/>
<a xlink:href="corr-0x6000c40e9050.svg">
<rect x="47.650000" y="173.000000" width="38.700000" height="24.000000" rx="0" ry="0" style="stroke:none;fill:#cccccc;"/>
<rect x="46.650000" y="172.000000" width="38.700000" height="24.000000" rx="0" ry="0" style="stroke:none;fill:#003366;"/>
</a>
<a xlink:href="corr-0x6000c40e9050.svg">
<text x="66.000000" y="186.000000" font-family="Arial" font-size="7" text-anchor="middle" fill="#FFFFFF">corr_neg1</text>
</a>
<circle cx="48.650000" cy="174.000000" r="1"/>
<rect x="125.000000" y="131.000000" width="24.000000" height="24.000000" rx="0" ry="0" style="stroke:none;fill:#cccccc;"/>
<rect x="124.000000" y="130.000000" width="24.000000" height="24.000000" rx="0" ry="0" style="stroke:none;fill:#4B71A1;"/>
<text x="136.000000" y="144.000000" font-family="Arial" font-size="7" text-anchor="middle" fill="#FFFFFF">*</text>
<circle cx="126.000000" cy="132.000000" r="1"/>
<line x1="121.000000" y1="137.000000" x2="124.000000" y2="138.000000"  transform="rotate(0.000000,124.000000,138.000000)" style="stroke: black; stroke-width:0.25;"/>
<line x1="121.000000" y1="139.000000" x2="124.000000" y2="138.000000"  transform="rotate(0.000000,124.000000,138.000000)" style="stroke: black; stroke-width:0.25;"/>
<line x1="121.000000" y1="145.000000" x2="124.000000" y2="146.000000"  transform="rotate(0.000000,124.000000,146.000000)" style="stroke: black; stroke-width:0.25;"/>
<line x1="121.000000" y1="147.000000" x2="124.000000" y2="146.000000"  transform="rotate(0.000000,124.000000,146.000000)" style="stroke: black; stroke-width:0.25;"/>
<rect x="165.000000" y="99.000000" width="24.000000" height="24.000000" rx="0" ry="0" style="stroke:none;fill:#cccccc;"/>
<rect x="164.000000" y="98.000000" width="24.000000" height="24.000000" rx="0" ry="0" style="stroke:none;fill:#4B71A1;"/>
<text x="176.000000" y="112.000000" font-family="Arial" font-size="7" text-anchor="middle" fill="#FFFFFF">+</text>
<circle cx="166.000000" cy="100.000000" r="1"/>
<line x1="161.000000" y1="105.000000" x2="164.000000" y2="106.000000"  transform="rotate(0.000000,164.000000,106.000000)" style="stroke: black; stroke-width:0.25;"/>
<line x1="161.000000" y1="107.000000" x2="164.000000" y2="106.000000"  transform="rotate(0.000000,164.000000,106.000000)" style="stroke: black; stroke-width:0.25;"/>
<line x1="161.000000" y1="113.000000" x2="164.000000" y2="114.000000"  transform="rotate(0.000000,164.000000,114.000000)" style="stroke: black; stroke-width:0.25;"/>
<line x1="161.000000" y1="115.000000" x2="164.000000" y2="114.000000"  transform="rotate(0.000000,164.000000,114.000000)" style="stroke: black; stroke-width:0.25;"/>
<rect x="95.000000" y="215.000000" width="24.000000" height="24.000000" rx="0" ry="0" style="stroke:none;fill:#cccccc;"/>
<rect x="94.000000" y="214.000000" width="24.000000" height="24.000000" rx="0" ry="0" style="stroke:none;fill:#f44800;"/>
<text x="106.000000" y="228.000000" font-family="Arial" font-size="7" text-anchor="middle" fill="#FFFFFF">2</text>
<circle cx="96.000000" cy="216.000000" r="1"/>
<line x1="85.000000" y1="205.000000" x2="85.000000" y2="247.000000"  style="stroke: black; stroke-linecap:round; stroke-width:0.25; stroke-dasharray:3,3;"/>
<line x1="85.000000" y1="247.000000" x2="127.000000" y2="247.000000"  style="stroke: black; stroke-linecap:round; stroke-width:0.25; stroke-dasharray:3,3;"/>
<line x1="127.000000" y1="247.000000" x2="127.000000" y2="205.000000"  style="stroke: black; stroke-linecap:round; stroke-width:0.25; stroke-dasharray:3,3;"/>
<line x1="85.000000" y1="205.000000" x2="90.000000" y2="205.000000"  style="stroke: black; stroke-linecap:round; stroke-width:0.25; stroke-dasharray:3,3;"/>
<line x1="99.675000" y1="205.000000" x2="127.000000" y2="205.000000"  style="stroke: black; stroke-linecap:round; stroke-width:0.25; stroke-dasharray:3,3;"/>
<text x="90.000000" y="207.000000" font-family="Arial" font-size="7">N</text>
<rect x="205.000000" y="125.000000" width="24.000000" height="24.000000" rx="0" ry="0" style="stroke:none;fill:#cccccc;"/>
<rect x="204.000000" y="124.000000" width="24.000000" height="24.000000" rx="0" ry="0" style="stroke:none;fill:#4B71A1;"/>
<text x="216.000000" y="138.000000" font-family="Arial" font-size="7" text-anchor="middle" fill="#FFFFFF">/</text>
<circle cx="206.000000" cy="126.000000" r="1"/>
<line x1="201.000000" y1="131.000000" x2="204.000000" y2="132.000000"  transform="rotate(0.000000,204.000000,132.000000)" style="stroke: black; stroke-width:0.25;"/>
<line x1="201.000000" y1="133.000000" x2="204.000000" y2="132.000000"  transform="rotate(0.000000,204.000000,132.000000)" style="stroke: black; stroke-width:0.25;"/>
<line x1="201.000000" y1="139.000000" x2="204.000000" y2="140.000000"  transform="rotate(0.000000,204.000000,140.000000)" style="stroke: black; stroke-width:0.25;"/>
<line x1="201.000000" y1="141.000000" x2="204.000000" y2="140.000000"  transform="rotate(0.000000,204.000000,140.000000)" style="stroke: black; stroke-width:0.25;"/>
<rect x="55.000000" y="257.000000" width="24.000000" height="24.000000" rx="0" ry="0" style="stroke:none;fill:#cccccc;"/>
<rect x="54.000000" y="256.000000" width="24.000000" height="24.000000" rx="0" ry="0" style="stroke:none;fill:#47945E;"/>
<text x="66.000000" y="270.000000" font-family="Arial" font-size="7" text-anchor="middle" fill="#FFFFFF">l</text>
<circle cx="56.000000" cy="258.000000" r="1"/>
<a xlink:href="corr-0x6000c40e9050.svg">
<rect x="47.650000" y="289.000000" width="38.700000" height="24.000000" rx="0" ry="0" style="stroke:none;fill:#cccccc;"/>
<rect x="46.650000" y="288.000000" width="38.700000" height="24.000000" rx="0" ry="0" style="stroke:none;fill:#003366;"/>
</a>
<a xlink:href="corr-0x6000c40e9050.svg">
<text x="66.000000" y="302.000000" font-family="Arial" font-size="7" text-anchor="middle" fill="#FFFFFF">corr_neg1</text>
</a>
<circle cx="48.650000" cy="290.000000" r="1"/>
<rect x="102.350000" y="273.000000" width="24.000000" height="24.000000" rx="0" ry="0" style="stroke:none;fill:#cccccc;"/>
<rect x="101.350000" y="272.000000" width="24.000000" height="24.000000" rx="0" ry="0" style="stroke:none;fill:#4B71A1;"/>
<text x="113.350000" y="286.000000" font-family="Arial" font-size="7" text-anchor="middle" fill="#FFFFFF">*</text>
<circle cx="103.350000" cy="274.000000" r="1"/>
<line x1="98.350000" y1="279.000000" x2="101.350000" y2="280.000000"  transform="rotate(0.000000,101.350000,280.000000)" style="stroke: black; stroke-width:0.25;"/>
<line x1="98.350000" y1="281.000000" x2="101.350000" y2="280.000000"  transform="rotate(0.000000,101.350000,280.000000)" style="stroke: black; stroke-width:0.25;"/>
<line x1="98.350000" y1="287.000000" x2="101.350000" y2="288.000000"  transform="rotate(0.000000,101.350000,288.000000)" style="stroke: black; stroke-width:0.25;"/>
<line x1="98.350000" y1="289.000000" x2="101.350000" y2="288.000000"  transform="rotate(0.000000,101.350000,288.000000)" style="stroke: black; stroke-width:0.25;"/>
<rect x="35.000000" y="331.000000" width="24.000000" height="24.000000" rx="0" ry="0" style="stroke:none;fill:#cccccc;"/>
<rect x="34.000000" y="330.000000" width="24.000000" height="24.000000" rx="0" ry="0" style="stroke:none;fill:#f44800;"/>
<text x="46.000000" y="344.000000" font-family="Arial" font-size="7" text-anchor="middle" fill="#FFFFFF">0</text>
<circle cx="36.000000" cy="332.000000" r="1"/>
<line x1="25.000000" y1="321.000000" x2="25.000000" y2="363.000000"  style="stroke: black; stroke-linecap:round; stroke-width:0.25; stroke-dasharray:3,3;"/>
<line x1="25.000000" y1="363.000000" x2="67.000000" y2="363.000000"  style="stroke: black; stroke-linecap:round; stroke-width:0.25; stroke-dasharray:3,3;"/>
<line x1="67.000000" y1="363.000000" x2="67.000000" y2="321.000000"  style="stroke: black; stroke-linecap:round; stroke-width:0.25; stroke-dasharray:3,3;"/>
<line x1="25.000000" y1="321.000000" x2="30.000000" y2="321.000000"  style="stroke: black; stroke-linecap:round; stroke-width:0.25; stroke-dasharray:3,3;"/>
<line x1="62.250000" y1="321.000000" x2="67.000000" y2="321.000000"  style="stroke: black; stroke-linecap:round; stroke-width:0.25; stroke-dasharray:3,3;"/>
<text x="30.000000" y="323.000000" font-family="Arial" font-size="7">clipCond</text>
<rect x="35.000000" y="373.000000" width="24.000000" height="24.000000" rx="0" ry="0" style="stroke:none;fill:#cccccc;"/>
<rect x="34.000000" y="372.000000" width="24.000000" height="24.000000" rx="0" ry="0" style="stroke:none;fill:#47945E;"/>
<text x="46.000000" y="386.000000" font-family="Arial" font-size="7" text-anchor="middle" fill="#FFFFFF">r</text>
<circle cx="36.000000" cy="374.000000" r="1"/>
<rect x="85.000000" y="347.000000" width="24.000000" height="24.000000" rx="0" ry="0" style="stroke:none;fill:#cccccc;"/>
<rect x="84.000000" y="346.000000" width="24.000000" height="24.000000" rx="0" ry="0" style="stroke:none;fill:#4B71A1;"/>
<text x="96.000000" y="360.000000" font-family="Arial" font-size="7" text-anchor="middle" fill="#FFFFFF">-</text>
<circle cx="86.000000" cy="348.000000" r="1"/>
<line x1="81.000000" y1="353.000000" x2="84.000000" y2="354.000000"  transform="rotate(0.000000,84.000000,354.000000)" style="stroke: black; stroke-width:0.25;"/>
<line x1="81.000000" y1="355.000000" x2="84.000000" y2="354.000000"  transform="rotate(0.000000,84.000000,354.000000)" style="stroke: black; stroke-width:0.25;"/>
<line x1="81.000000" y1="361.000000" x2="84.000000" y2="362.000000"  transform="rotate(0.000000,84.000000,362.000000)" style="stroke: black; stroke-width:0.25;"/>
<line x1="81.000000" y1="363.000000" x2="84.000000" y2="362.000000"  transform="rotate(0.000000,84.000000,362.000000)" style="stroke: black; stroke-width:0.25;"/>
<a xlink:href="corr-0x6000c40e9050.svg">
<rect x="47.650000" y="405.000000" width="38.700000" height="24.000000" rx="0" ry="0" style="stroke:none;fill:#cccccc;"/>
<rect x="46.650000" y="404.000000" width="38.700000" height="24.000000" rx="0" ry="0" style="stroke:none;fill:#003366;"/>
</a>
<a xlink:href="corr-0x6000c40e9050.svg">
<text x="66.000000" y="418.000000" font-family="Arial" font-size="7" text-anchor="middle" fill="#FFFFFF">corr_neg1</text>
</a>
<circle cx="48.650000" cy="406.000000" r="1"/>
<rect x="125.000000" y="363.000000" width="24.000000" height="24.000000" rx="0" ry="0" style="stroke:none;fill:#cccccc;"/>
<rect x="124.000000" y="362.000000" width="24.000000" height="24.000000" rx="0" ry="0" style="stroke:none;fill:#4B71A1;"/>
<text x="136.000000" y="376.000000" font-family="Arial" font-size="7" text-anchor="middle" fill="#FFFFFF">*</text>
<circle cx="126.000000" cy="364.000000" r="1"/>
<line x1="121.000000" y1="369.000000" x2="124.000000" y2="370.000000"  transform="rotate(0.000000,124.000000,370.000000)" style="stroke: black; stroke-width:0.25;"/>
<line x1="121.000000" y1="371.000000" x2="124.000000" y2="370.000000"  transform="rotate(0.000000,124.000000,370.000000)" style="stroke: black; stroke-width:0.25;"/>
<line x1="121.000000" y1="377.000000" x2="124.000000" y2="378.000000"  transform="rotate(0.000000,124.000000,378.000000)" style="stroke: black; stroke-width:0.25;"/>
<line x1="121.000000" y1="379.000000" x2="124.000000" y2="378.000000"  transform="rotate(0.000000,124.000000,378.000000)" style="stroke: black; stroke-width:0.25;"/>
<rect x="165.000000" y="331.000000" width="24.000000" height="24.000000" rx="0" ry="0" style="stroke:none;fill:#cccccc;"/>
<rect x="164.000000" y="330.000000" width="24.000000" height="24.000000" rx="0" ry="0" style="stroke:none;fill:#4B71A1;"/>
<text x="176.000000" y="344.000000" font-family="Arial" font-size="7" text-anchor="middle" fill="#FFFFFF">+</text>
<circle cx="166.000000" cy="332.000000" r="1"/>
<line x1="161.000000" y1="337.000000" x2="164.000000" y2="338.000000"  transform="rotate(0.000000,164.000000,338.000000)" style="stroke: black; stroke-width:0.25;"/>
<line x1="161.000000" y1="339.000000" x2="164.000000" y2="338.000000"  transform="rotate(0.000000,164.000000,338.000000)" style="stroke: black; stroke-width:0.25;"/>
<line x1="161.000000" y1="345.000000" x2="164.000000" y2="346.000000"  transform="rotate(0.000000,164.000000,346.000000)" style="stroke: black; stroke-width:0.25;"/>
<line x1="161.000000" y1="347.000000" x2="164.000000" y2="346.000000"  transform="rotate(0.000000,164.000000,346.000000)" style="stroke: black; stroke-width:0.25;"/>
<rect x="95.000000" y="447.000000" width="24.000000" height="24.000000" rx="0" ry="0" style="stroke:none;fill:#cccccc;"/>
<rect x="94.000000" y="446.000000" width="24.000000" height="24.000000" rx="0" ry="0" style="stroke:none;fill:#f44800;"/>
<text x="106.000000" y="460.000000" font-family="Arial" font-size="7" text-anchor="middle" fill="#FFFFFF">2</text>
<circle cx="96.000000" cy="448.000000" r="1"/>
<line x1="85.000000" y1="437.000000" x2="85.000000" y2="479.000000"  style="stroke: black; stroke-linecap:round; stroke-width:0.25; stroke-dasharray:3,3;"/>
<line x1="85.000000" y1="479.000000" x2="127.000000" y2="479.000000"  style="stroke: black; stroke-linecap:round; stroke-width:0.25; stroke-dasharray:3,3;"/>
<line x1="127.000000" y1="479.000000" x2="127.000000" y2="437.000000"  style="stroke: black; stroke-linecap:round; stroke-width:0.25; stroke-dasharray:3,3;"/>
<line x1="85.000000" y1="437.000000" x2="90.000000" y2="437.000000"  style="stroke: black; stroke-linecap:round; stroke-width:0.25; stroke-dasharray:3,3;"/>
<line x1="99.675000" y1="437.000000" x2="127.000000" y2="437.000000"  style="stroke: black; stroke-linecap:round; stroke-width:0.25; stroke-dasharray:3,3;"/>
<text x="90.000000" y="439.000000" font-family="Arial" font-size="7">N</text>
<rect x="205.000000" y="357.000000" width="24.000000" height="24.000000" rx="0" ry="0" style="stroke:none;fill:#cccccc;"/>
<rect x="204.000000" y="356.000000" width="24.000000" height="24.000000" rx="0" ry="0" style="stroke:none;fill:#4B71A1;"/>
<text x="216.000000" y="370.000000" font-family="Arial" font-size="7" text-anchor="middle" fill="#FFFFFF">/</text>
<circle cx="206.000000" cy="358.000000" r="1"/>
<line x1="201.000000" y1="363.000000" x2="204.000000" y2="364.000000"  transform="rotate(0.000000,204.000000,364.000000)" style="stroke: black; stroke-width:0.25;"/>
<line x1="201.000000" y1="365.000000" x2="204.000000" y2="364.000000"  transform="rotate(0.000000,204.000000,364.000000)" style="stroke: black; stroke-width:0.25;"/>
<line x1="201.000000" y1="371.000000" x2="204.000000" y2="372.000000"  transform="rotate(0.000000,204.000000,372.000000)" style="stroke: black; stroke-width:0.25;"/>
<line x1="201.000000" y1="373.000000" x2="204.000000" y2="372.000000"  transform="rotate(0.000000,204.000000,372.000000)" style="stroke: black; stroke-width:0.25;"/>
<line x1="15.000000" y1="15.000000" x2="15.000000" y2="489.000000"  style="stroke: black; stroke-linecap:round; stroke-width:0.25; stroke-dasharray:3,3;"/>
<line x1="15.000000" y1="489.000000" x2="253.000000" y2="489.000000"  style="stroke: black; stroke-linecap:round; stroke-width:0.25; stroke-dasharray:3,3;"/>
<line x1="253.000000" y1="489.000000" x2="253.000000" y2="15.000000"  style="stroke: black; stroke-linecap:round; stroke-width:0.25; stroke-dasharray:3,3;"/>
<line x1="15.000000" y1="15.000000" x2="20.000000" y2="15.000000"  style="stroke: black; stroke-linecap:round; stroke-width:0.25; stroke-dasharray:3,3;"/>
<line x1="52.250000" y1="15.000000" x2="253.000000" y2="15.000000"  style="stroke: black; stroke-linecap:round; stroke-width:0.25; stroke-dasharray:3,3;"/>
<text x="20.000000" y="17.000000" font-family="Arial" font-size="7">out_neg1</text>
<line x1="255.000000" y1="247.000000" x2="258.000000" y2="248.000000"  transform="rotate(0.000000,258.000000,248.000000)" style="stroke: black; stroke-width:0.25;"/>
<line x1="255.000000" y1="249.000000" x2="258.000000" y2="248.000000"  transform="rotate(0.000000,258.000000,248.000000)" style="stroke: black; stroke-width:0.25;"/>
<line x1="255.000000" y1="255.000000" x2="258.000000" y2="256.000000"  transform="rotate(0.000000,258.000000,256.000000)" style="stroke: black; stroke-width:0.25;"/>
<line x1="255.000000" y1="257.000000" x2="258.000000" y2="256.000000"  transform="rotate(0.000000,258.000000,256.000000)" style="stroke: black; stroke-width:0.25;"/>
<line x1="58.000000" y1="110.000000" x2="62.000000" y2="110.000000"  style="stroke:black; stroke-linecap:round; stroke-width:0.25;"/>
<line x1="58.000000" y1="152.000000" x2="62.000000" y2="152.000000"  style="stroke:black; stroke-linecap:round; stroke-width:0.25;"/>
<line x1="58.000000" y1="342.000000" x2="62.000000" y2="342.000000"  style="stroke:black; stroke-linecap:round; stroke-width:0.25;"/>
<line x1="58.000000" y1="384.000000" x2="62.000000" y2="384.000000"  style="stroke:black; stroke-linecap:round; stroke-width:0.25;"/>
<line x1="62.000000" y1="110.000000" x2="72.000000" y2="110.000000"  style="stroke:black; stroke-linecap:round; stroke-width:0.25;"/>
<line x1="62.000000" y1="152.000000" x2="72.000000" y2="152.000000"  style="stroke:black; stroke-linecap:round; stroke-width:0.25;"/>
<line x1="62.000000" y1="342.000000" x2="72.000000" y2="342.000000"  style="stroke:black; stroke-linecap:round; stroke-width:0.25;"/>
<line x1="62.000000" y1="384.000000" x2="72.000000" y2="384.000000"  style="stroke:black; stroke-linecap:round; stroke-width:0.25;"/>
<line x1="72.000000" y1="110.000000" x2="80.000000" y2="110.000000"  style="stroke:black; stroke-linecap:round; stroke-width:0.25;"/>
<line x1="72.000000" y1="130.000000" x2="80.000000" y2="130.000000"  style="stroke:black; stroke-linecap:round; stroke-width:0.25;"/>
<line x1="72.000000" y1="152.000000" x2="72.000000" y2="130.000000"  style="stroke:black; stroke-linecap:round; stroke-width:0.25;"/>
<line x1="72.000000" y1="152.000000" x2="72.000000" y2="152.000000"  style="stroke:black; stroke-linecap:round; stroke-width:0.25;"/>
<line x1="72.000000" y1="342.000000" x2="80.000000" y2="342.000000"  style="stroke:black; stroke-linecap:round; stroke-width:0.25;"/>
<line x1="72.000000" y1="362.000000" x2="80.000000" y2="362.000000"  style="stroke:black; stroke-linecap:round; stroke-width:0.25;"/>
<line x1="72.000000" y1="384.000000" x2="72.000000" y2="362.000000"  style="stroke:black; stroke-linecap:round; stroke-width:0.25;"/>
<line x1="72.000000" y1="384.000000" x2="72.000000" y2="384.000000"  style="stroke:black; stroke-linecap:round; stroke-width:0.25;"/>
<line x1="78.000000" y1="36.000000" x2="82.000000" y2="36.000000"  style="stroke:black; stroke-linecap:round; stroke-width:0.25;"/>
<line x1="78.000000" y1="268.000000" x2="82.000000" y2="268.000000"  style="stroke:black; stroke-linecap:round; stroke-width:0.25;"/>
<line x1="80.000000" y1="110.000000" x2="80.000000" y2="122.000000"  style="stroke:black; stroke-linecap:round; stroke-width:0.25;"/>
<line x1="80.000000" y1="122.000000" x2="80.000000" y2="122.000000"  style="stroke:black; stroke-linecap:round; stroke-width:0.25;"/>
<line x1="80.000000" y1="122.000000" x2="84.000000" y2="122.000000"  style="stroke:black; stroke-linecap:round; stroke-width:0.25;"/>
<line x1="80.000000" y1="130.000000" x2="84.000000" y2="130.000000"  style="stroke:black; stroke-linecap:round; stroke-width:0.25;"/>
<line x1="80.000000" y1="342.000000" x2="80.000000" y2="354.000000"  style="stroke:black; stroke-linecap:round; stroke-width:0.25;"/>
<line x1="80.000000" y1="354.000000" x2="80.000000" y2="354.000000"  style="stroke:black; stroke-linecap:round; stroke-width:0.25;"/>
<line x1="80.000000" y1="354.000000" x2="84.000000" y2="354.000000"  style="stroke:black; stroke-linecap:round; stroke-width:0.25;"/>
<line x1="80.000000" y1="362.000000" x2="84.000000" y2="362.000000"  style="stroke:black; stroke-linecap:round; stroke-width:0.25;"/>
<line x1="82.000000" y1="36.000000" x2="89.350000" y2="36.000000"  style="stroke:black; stroke-linecap:round; stroke-width:0.25;"/>
<line x1="82.000000" y1="268.000000" x2="89.350000" y2="268.000000"  style="stroke:black; stroke-linecap:round; stroke-width:0.25;"/>
<line x1="85.350000" y1="68.000000" x2="89.350000" y2="68.000000"  style="stroke:black; stroke-linecap:round; stroke-width:0.25;"/>
<line x1="85.350000" y1="184.000000" x2="89.350000" y2="184.000000"  style="stroke:black; stroke-linecap:round; stroke-width:0.25;"/>
<line x1="85.350000" y1="300.000000" x2="89.350000" y2="300.000000"  style="stroke:black; stroke-linecap:round; stroke-width:0.25;"/>
<line x1="85.350000" y1="416.000000" x2="89.350000" y2="416.000000"  style="stroke:black; stroke-linecap:round; stroke-width:0.25;"/>
<line x1="89.350000" y1="36.000000" x2="97.350000" y2="36.000000"  style="stroke:black; stroke-linecap:round; stroke-width:0.25;"/>
<line x1="89.350000" y1="56.000000" x2="97.350000" y2="56.000000"  style="stroke:black; stroke-linecap:round; stroke-width:0.25;"/>
<line x1="89.350000" y1="68.000000" x2="89.350000" y2="56.000000"  style="stroke:black; stroke-linecap:round; stroke-width:0.25;"/>
<line x1="89.350000" y1="68.000000" x2="89.350000" y2="68.000000"  style="stroke:black; stroke-linecap:round; stroke-width:0.25;"/>
<line x1="89.350000" y1="184.000000" x2="112.000000" y2="184.000000"  style="stroke:black; stroke-linecap:round; stroke-width:0.25;"/>
<line x1="89.350000" y1="268.000000" x2="97.350000" y2="268.000000"  style="stroke:black; stroke-linecap:round; stroke-width:0.25;"/>
<line x1="89.350000" y1="288.000000" x2="97.350000" y2="288.000000"  style="stroke:black; stroke-linecap:round; stroke-width:0.25;"/>
<line x1="89.350000" y1="300.000000" x2="89.350000" y2="288.000000"  style="stroke:black; stroke-linecap:round; stroke-width:0.25;"/>
<line x1="89.350000" y1="300.000000" x2="89.350000" y2="300.000000"  style="stroke:black; stroke-linecap:round; stroke-width:0.25;"/>
<line x1="89.350000" y1="416.000000" x2="112.000000" y2="416.000000"  style="stroke:black; stroke-linecap:round; stroke-width:0.25;"/>
<line x1="97.350000" y1="36.000000" x2="97.350000" y2="48.000000"  style="stroke:black; stroke-linecap:round; stroke-width:0.25;"/>
<line x1="97.350000" y1="48.000000" x2="97.350000" y2="48.000000"  style="stroke:black; stroke-linecap:round; stroke-width:0.25;"/>
<line x1="97.350000" y1="48.000000" x2="101.350000" y2="48.000000"  style="stroke:black; stroke-linecap:round; stroke-width:0.25;"/>
<line x1="97.350000" y1="56.000000" x2="101.350000" y2="56.000000"  style="stroke:black; stroke-linecap:round; stroke-width:0.25;"/>
<line x1="97.350000" y1="268.000000" x2="97.350000" y2="280.000000"  style="stroke:black; stroke-linecap:round; stroke-width:0.25;"/>
<line x1="97.350000" y1="280.000000" x2="97.350000" y2="280.000000"  style="stroke:black; stroke-linecap:round; stroke-width:0.25;"/>
<line x1="97.350000" y1="280.000000" x2="101.350000" y2="280.000000"  style="stroke:black; stroke-linecap:round; stroke-width:0.25;"/>
<line x1="97.350000" y1="288.000000" x2="101.350000" y2="288.000000"  style="stroke:black; stroke-linecap:round; stroke-width:0.25;"/>
<line x1="108.000000" y1="126.000000" x2="112.000000" y2="126.000000"  style="stroke:black; stroke-linecap:round; stroke-width:0.25;"/>
<line x1="108.000000" y1="358.000000" x2="112.000000" y2="358.000000"  style="stroke:black; stroke-linecap:round; stroke-width:0.25;"/>
<line x1="112.000000" y1="126.000000" x2="120.000000" y2="126.000000"  style="stroke:black; stroke-linecap:round; stroke-width:0.25;"/>
<line x1="112.000000" y1="146.000000" x2="120.000000" y2="146.000000"  style="stroke:black; stroke-linecap:round; stroke-width:0.25;"/>
<line x1="112.000000" y1="184.000000" x2="112.000000" y2="146.000000"  style="stroke:black; stroke-linecap:round; stroke-width:0.25;"/>
<line x1="112.000000" y1="184.000000" x2="112.000000" y2="184.000000"  style="stroke:black; stroke-linecap:round; stroke-width:0.25;"/>
<line x1="112.000000" y1="358.000000" x2="120.000000" y2="358.000000"  style="stroke:black; stroke-linecap:round; stroke-width:0.25;"/>
<line x1="112.000000" y1="378.000000" x2="120.000000" y2="378.000000"  style="stroke:black; stroke-linecap:round; stroke-width:0.25;"/>
<line x1="112.000000" y1="416.000000" x2="112.000000" y2="378.000000"  style="stroke:black; stroke-linecap:round; stroke-width:0.25;"/>
<line x1="112.000000" y1="416.000000" x2="112.000000" y2="416.000000"  style="stroke:black; stroke-linecap:round; stroke-width:0.25;"/>
<line x1="118.000000" y1="226.000000" x2="122.000000" y2="226.000000"  style="stroke:black; stroke-linecap:round; stroke-width:0.25;"/>
<line x1="118.000000" y1="458.000000" x2="122.000000" y2="458.000000"  style="stroke:black; stroke-linecap:round; stroke-width:0.25;"/>
<line x1="120.000000" y1="126.000000" x2="120.000000" y2="138.000000"  style="stroke:black; stroke-linecap:round; stroke-width:0.25;"/>
<line x1="120.000000" y1="138.000000" x2="120.000000" y2="138.000000"  style="stroke:black; stroke-linecap:round; stroke-width:0.25;"/>
<line x1="120.000000" y1="138.000000" x2="124.000000" y2="138.000000"  style="stroke:black; stroke-linecap:round; stroke-width:0.25;"/>
<line x1="120.000000" y1="146.000000" x2="124.000000" y2="146.000000"  style="stroke:black; stroke-linecap:round; stroke-width:0.25;"/>
<line x1="120.000000" y1="358.000000" x2="120.000000" y2="370.000000"  style="stroke:black; stroke-linecap:round; stroke-width:0.25;"/>
<line x1="120.000000" y1="370.000000" x2="120.000000" y2="370.000000"  style="stroke:black; stroke-linecap:round; stroke-width:0.25;"/>
<line x1="120.000000" y1="370.000000" x2="124.000000" y2="370.000000"  style="stroke:black; stroke-linecap:round; stroke-width:0.25;"/>
<line x1="120.000000" y1="378.000000" x2="124.000000" y2="378.000000"  style="stroke:black; stroke-linecap:round; stroke-width:0.25;"/>
<line x1="122.000000" y1="226.000000" x2="132.000000" y2="226.000000"  style="stroke:black; stroke-linecap:round; stroke-width:0.25;"/>
<line x1="122.000000" y1="458.000000" x2="132.000000" y2="458.000000"  style="stroke:black; stroke-linecap:round; stroke-width:0.25;"/>
<line x1="125.350000" y1="52.000000" x2="129.350000" y2="52.000000"  style="stroke:black; stroke-linecap:round; stroke-width:0.25;"/>
<line x1="125.350000" y1="284.000000" x2="129.350000" y2="284.000000"  style="stroke:black; stroke-linecap:round; stroke-width:0.25;"/>
<line x1="129.350000" y1="52.000000" x2="152.000000" y2="52.000000"  style="stroke:black; stroke-linecap:round; stroke-width:0.25;"/>
<line x1="129.350000" y1="284.000000" x2="152.000000" y2="284.000000"  style="stroke:black; stroke-linecap:round; stroke-width:0.25;"/>
<line x1="132.000000" y1="226.000000" x2="192.000000" y2="226.000000"  style="stroke:black; stroke-linecap:round; stroke-width:0.25;"/>
<line x1="132.000000" y1="458.000000" x2="192.000000" y2="458.000000"  style="stroke:black; stroke-linecap:round; stroke-width:0.25;"/>
<line x1="148.000000" y1="142.000000" x2="152.000000" y2="142.000000"  style="stroke:black; stroke-linecap:round; stroke-width:0.25;"/>
<line x1="148.000000" y1="374.000000" x2="152.000000" y2="374.000000"  style="stroke:black; stroke-linecap:round; stroke-width:0.25;"/>
<line x1="152.000000" y1="52.000000" x2="160.000000" y2="52.000000"  style="stroke:black; stroke-linecap:round; stroke-width:0.25;"/>
<line x1="152.000000" y1="114.000000" x2="160.000000" y2="114.000000"  style="stroke:black; stroke-linecap:round; stroke-width:0.25;"/>
<line x1="152.000000" y1="142.000000" x2="152.000000" y2="114.000000"  style="stroke:black; stroke-linecap:round; stroke-width:0.25;"/>
<line x1="152.000000" y1="142.000000" x2="152.000000" y2="142.000000"  style="stroke:black; stroke-linecap:round; stroke-width:0.25;"/>
<line x1="152.000000" y1="284.000000" x2="160.000000" y2="284.000000"  style="stroke:black; stroke-linecap:round; stroke-width:0.25;"/>
<line x1="152.000000" y1="346.000000" x2="160.000000" y2="346.000000"  style="stroke:black; stroke-linecap:round; stroke-width:0.25;"/>
<line x1="152.000000" y1="374.000000" x2="152.000000" y2="346.000000"  style="stroke:black; stroke-linecap:round; stroke-width:0.25;"/>
<line x1="152.000000" y1="374.000000" x2="152.000000" y2="374.000000"  style="stroke:black; stroke-linecap:round; stroke-width:0.25;"/>
<line x1="160.000000" y1="52.000000" x2="160.000000" y2="106.000000"  style="stroke:black; stroke-linecap:round; stroke-width:0.25;"/>
<line x1="160.000000" y1="106.000000" x2="160.000000" y2="106.000000"  style="stroke:black; stroke-linecap:round; stroke-width:0.25;"/>
<line x1="160.000000" y1="106.000000" x2="164.000000" y2="106.000000"  style="stroke:black; stroke-linecap:round; stroke-width:0.25;"/>
<line x1="160.000000" y1="114.000000" x2="164.000000" y2="114.000000"  style="stroke:black; stroke-linecap:round; stroke-width:0.25;"/>
<line x1="160.000000" y1="284.000000" x2="160.000000" y2="338.000000"  style="stroke:black; stroke-linecap:round; stroke-width:0.25;"/>
<line x1="160.000000" y1="338.000000" x2="160.000000" y2="338.000000"  style="stroke:black; stroke-linecap:round; stroke-width:0.25;"/>
<line x1="160.000000" y1="338.000000" x2="164.000000" y2="338.000000"  style="stroke:black; stroke-linecap:round; stroke-width:0.25;"/>
<line x1="160.000000" y1="346.000000" x2="164.000000" y2="346.000000"  style="stroke:black; stroke-linecap:round; stroke-width:0.25;"/>
<line x1="188.000000" y1="110.000000" x2="192.000000" y2="110.000000"  style="stroke:black; stroke-linecap:round; stroke-width:0.25;"/>
<line x1="188.000000" y1="342.000000" x2="192.000000" y2="342.000000"  style="stroke:black; stroke-linecap:round; stroke-width:0.25;"/>
<line x1="192.000000" y1="110.000000" x2="200.000000" y2="110.000000"  style="stroke:black; stroke-linecap:round; stroke-width:0.25;"/>
<line x1="192.000000" y1="140.000000" x2="200.000000" y2="140.000000"  style="stroke:black; stroke-linecap:round; stroke-width:0.25;"/>
<line x1="192.000000" y1="226.000000" x2="192.000000" y2="140.000000"  style="stroke:black; stroke-linecap:round; stroke-width:0.25;"/>
<line x1="192.000000" y1="226.000000" x2="192.000000" y2="226.000000"  style="stroke:black; stroke-linecap:round; stroke-width:0.25;"/>
<line x1="192.000000" y1="342.000000" x2="200.000000" y2="342.000000"  style="stroke:black; stroke-linecap:round; stroke-width:0.25;"/>
<line x1="192.000000" y1="372.000000" x2="200.000000" y2="372.000000"  style="stroke:black; stroke-linecap:round; stroke-width:0.25;"/>
<line x1="192.000000" y1="458.000000" x2="192.000000" y2="372.000000"  style="stroke:black; stroke-linecap:round; stroke-width:0.25;"/>
<line x1="192.000000" y1="458.000000" x2="192.000000" y2="458.000000"  style="stroke:black; stroke-linecap:round; stroke-width:0.25;"/>
<line x1="200.000000" y1="110.000000" x2="200.000000" y2="132.000000"  style="stroke:black; stroke-linecap:round; stroke-width:0.25;"/>
<line x1="200.000000" y1="132.000000" x2="200.000000" y2="132.000000"  style="stroke:black; stroke-linecap:round; stroke-width:0.25;"/>
<line x1="200.000000" y1="132.000000" x2="204.000000" y2="132.000000"  style="stroke:black; stroke-linecap:round; stroke-width:0.25;"/>
<line x1="200.000000" y1="140.000000" x2="204.000000" y2="140.000000"  style="stroke:black; stroke-linecap:round; stroke-width:0.25;"/>
<line x1="200.000000" y1="342.000000" x2="200.000000" y2="364.000000"  style="stroke:black; stroke-linecap:round; stroke-width:0.25;"/>
<line x1="200.000000" y1="364.000000" x2="200.000000" y2="364.000000"  style="stroke:black; stroke-linecap:round; stroke-width:0.25;"/>
<line x1="200.000000" y1="364.000000" x2="204.000000" y2="364.000000"  style="stroke:black; stroke-linecap:round; stroke-width:0.25;"/>
<line x1="200.000000" y1="372.000000" x2="204.000000" y2="372.000000"  style="stroke:black; stroke-linecap:round; stroke-width:0.25;"/>
<line x1="228.000000" y1="136.000000" x2="232.000000" y2="136.000000"  style="stroke:black; stroke-linecap:round; stroke-width:0.25;"/>
<line x1="228.000000" y1="368.000000" x2="232.000000" y2="368.000000"  style="stroke:black; stroke-linecap:round; stroke-width:0.25;"/>
<line x1="232.000000" y1="136.000000" x2="240.000000" y2="136.000000"  style="stroke:black; stroke-linecap:round; stroke-width:0.25;"/>
<line x1="232.000000" y1="256.000000" x2="240.000000" y2="256.000000"  style="stroke:black; stroke-linecap:round; stroke-width:0.25;"/>
<line x1="232.000000" y1="368.000000" x2="232.000000" y2="256.000000"  style="stroke:black; stroke-linecap:round; stroke-width:0.25;"/>
<line x1="232.000000" y1="368.000000" x2="232.000000" y2="368.000000"  style="stroke:black; stroke-linecap:round; stroke-width:0.25;"/>
<line x1="240.000000" y1="136.000000" x2="240.000000" y2="248.000000"  style="stroke:black; stroke-linecap:round; stroke-width:0.25;"/>
<line x1="240.000000" y1="248.000000" x2="240.000000" y2="248.000000"  style="stroke:black; stroke-linecap:round; stroke-width:0.25;"/>
<line x1="240.000000" y1="248.000000" x2="244.000000" y2="248.000000"  style="stroke:black; stroke-linecap:round; stroke-width:0.25;"/>
<line x1="240.000000" y1="256.000000" x2="244.000000" y2="256.000000"  style="stroke:black; stroke-linecap:round; stroke-width:0.25;"/>
<line x1="244.000000" y1="248.000000" x2="248.000000" y2="248.000000"  style="stroke:black; stroke-linecap:round; stroke-width:0.25;"/>
<line x1="244.000000" y1="256.000000" x2="248.000000" y2="256.000000"  style="stroke:black; stroke-linecap:round; stroke-width:0.25;"/>
<line x1="248.000000" y1="248.000000" x2="258.000000" y2="248.000000"  style="stroke:black; stroke-linecap:round; stroke-width:0.25;"/>
<line x1="248.000000" y1="256.000000" x2="258.000000" y2="256.000000"  style="stroke:black; stroke-linecap:round; stroke-width:0.25;"/>
</svg>
