<?xml version="1.0"?>
<svg xmlns="http://www.w3.org/2000/svg" xmlns:xlink="http://www.w3.org/1999/xlink" viewBox="0 0 222.700000 400.000000" width="111.350000mm" height="200.000000mm" version="1.1">
<a xlink:href="correlate-0x6000c40ea490.svg">
<rect x="1.000000" y="1.000000" width="221.700000" height="399.000000" rx="0" ry="0" style="stroke:none;fill:#cccccc;"/>
<rect x="0.000000" y="0.000000" width="221.700000" height="399.000000" rx="0" ry="0" style="stroke:none;fill:#ffffff;"/>
</a>
<text x="10.000000" y="7.000000" font-family="Arial" font-size="7"></text>
<rect x="32.350000" y="25.000000" width="24.000000" height="24.000000" rx="0" ry="0" style="stroke:none;fill:#cccccc;"/>
<rect x="31.350000" y="24.000000" width="24.000000" height="24.000000" rx="0" ry="0" style="stroke:none;fill:#47945E;"/>
<text x="43.350000" y="38.000000" font-family="Arial" font-size="7" text-anchor="middle" fill="#FFFFFF">l</text>
<circle cx="33.350000" cy="26.000000" r="1"/>
<a xlink:href="corr-0x6000c40e8ab0.svg">
<rect x="25.000000" y="57.000000" width="38.700000" height="24.000000" rx="0" ry="0" style="stroke:none;fill:#cccccc;"/>
<rect x="24.000000" y="56.000000" width="38.700000" height="24.000000" rx="0" ry="0" style="stroke:none;fill:#003366;"/>
</a>
<a xlink:href="corr-0x6000c40e8ab0.svg">
<text x="43.350000" y="70.000000" font-family="Arial" font-size="7" text-anchor="middle" fill="#FFFFFF">corr_pos1</text>
</a>
<circle cx="26.000000" cy="58.000000" r="1"/>
<rect x="79.700000" y="41.000000" width="24.000000" height="24.000000" rx="0" ry="0" style="stroke:none;fill:#cccccc;"/>
<rect x="78.700000" y="40.000000" width="24.000000" height="24.000000" rx="0" ry="0" style="stroke:none;fill:#4B71A1;"/>
<text x="90.700000" y="54.000000" font-family="Arial" font-size="7" text-anchor="middle" fill="#FFFFFF">*</text>
<circle cx="80.700000" cy="42.000000" r="1"/>
<line x1="75.700000" y1="47.000000" x2="78.700000" y2="48.000000"  transform="rotate(0.000000,78.700000,48.000000)" style="stroke: black; stroke-width:0.25;"/>
<line x1="75.700000" y1="49.000000" x2="78.700000" y2="48.000000"  transform="rotate(0.000000,78.700000,48.000000)" style="stroke: black; stroke-width:0.25;"/>
<line x1="75.700000" y1="55.000000" x2="78.700000" y2="56.000000"  transform="rotate(0.000000,78.700000,56.000000)" style="stroke: black; stroke-width:0.25;"/>
<line x1="75.700000" y1="57.000000" x2="78.700000" y2="56.000000"  transform="rotate(0.000000,78.700000,56.000000)" style="stroke: black; stroke-width:0.25;"/>
<rect x="32.350000" y="89.000000" width="24.000000" height="24.000000" rx="0" ry="0" style="stroke:none;fill:#cccccc;"/>
<rect x="31.350000" y="88.000000" width="24.000000" height="24.000000" rx="0" ry="0" style="stroke:none;fill:#47945E;"/>
<text x="43.350000" y="102.000000" font-family="Arial" font-size="7" text-anchor="middle" fill="#FFFFFF">r</text>
<circle cx="33.350000" cy="90.000000" r="1"/>
<a xlink:href="corr-0x6000c40e8ab0.svg">
<rect x="25.000000" y="121.000000" width="38.700000" height="24.000000" rx="0" ry="0" style="stroke:none;fill:#cccccc;"/>
<rect x="24.000000" y="120.000000" width="38.700000" height="24.000000" rx="0" ry="0" style="stroke:none;fill:#003366;"/>
</a>
<a xlink:href="corr-0x6000c40e8ab0.svg">
<text x="43.350000" y="134.000000" font-family="Arial" font-size="7" text-anchor="middle" fill="#FFFFFF">corr_pos1</text>
</a>
<circle cx="26.000000" cy="122.000000" r="1"/>
<rect x="79.700000" y="105.000000" width="24.000000" height="24.000000" rx="0" ry="0" style="stroke:none;fill:#cccccc;"/>
<rect x="78.700000" y="104.000000" width="24.000000" height="24.000000" rx="0" ry="0" style="stroke:none;fill:#4B71A1;"/>
<text x="90.700000" y="118.000000" font-family="Arial" font-size="7" text-anchor="middle" fill="#FFFFFF">*</text>
<circle cx="80.700000" cy="106.000000" r="1"/>
<line x1="75.700000" y1="111.000000" x2="78.700000" y2="112.000000"  transform="rotate(0.000000,78.700000,112.000000)" style="stroke: black; stroke-width:0.25;"/>
<line x1="75.700000" y1="113.000000" x2="78.700000" y2="112.000000"  transform="rotate(0.000000,78.700000,112.000000)" style="stroke: black; stroke-width:0.25;"/>
<line x1="75.700000" y1="119.000000" x2="78.700000" y2="120.000000"  transform="rotate(0.000000,78.700000,120.000000)" style="stroke: black; stroke-width:0.25;"/>
<line x1="75.700000" y1="121.000000" x2="78.700000" y2="120.000000"  transform="rotate(0.000000,78.700000,120.000000)" style="stroke: black; stroke-width:0.25;"/>
<rect x="119.700000" y="73.000000" width="24.000000" height="24.000000" rx="0" ry="0" style="stroke:none;fill:#cccccc;"/>
<rect x="118.700000" y="72.000000" width="24.000000" height="24.000000" rx="0" ry="0" style="stroke:none;fill:#4B71A1;"/>
<text x="130.700000" y="86.000000" font-family="Arial" font-size="7" text-anchor="middle" fill="#FFFFFF">+</text>
<circle cx="120.700000" cy="74.000000" r="1"/>
<line x1="115.700000" y1="79.000000" x2="118.700000" y2="80.000000"  transform="rotate(0.000000,118.700000,80.000000)" style="stroke: black; stroke-width:0.25;"/>
<line x1="115.700000" y1="81.000000" x2="118.700000" y2="80.000000"  transform="rotate(0.000000,118.700000,80.000000)" style="stroke: black; stroke-width:0.25;"/>
<line x1="115.700000" y1="87.000000" x2="118.700000" y2="88.000000"  transform="rotate(0.000000,118.700000,88.000000)" style="stroke: black; stroke-width:0.25;"/>
<line x1="115.700000" y1="89.000000" x2="118.700000" y2="88.000000"  transform="rotate(0.000000,118.700000,88.000000)" style="stroke: black; stroke-width:0.25;"/>
<rect x="72.350000" y="163.000000" width="24.000000" height="24.000000" rx="0" ry="0" style="stroke:none;fill:#cccccc;"/>
<rect x="71.350000" y="162.000000" width="24.000000" height="24.000000" rx="0" ry="0" style="stroke:none;fill:#f44800;"/>
<text x="83.350000" y="176.000000" font-family="Arial" font-size="7" text-anchor="middle" fill="#FFFFFF">2</text>
<circle cx="73.350000" cy="164.000000" r="1"/>
<line x1="62.350000" y1="153.000000" x2="62.350000" y2="195.000000"  style="stroke: black; stroke-linecap:round; stroke-width:0.25; stroke-dasharray:3,3;"/>
<line x1="62.350000" y1="195.000000" x2="104.350000" y2="195.000000"  style="stroke: black; stroke-linecap:round; stroke-width:0.25; stroke-dasharray:3,3;"/>
<line x1="104.350000" y1="195.000000" x2="104.350000" y2="153.000000"  style="stroke: black; stroke-linecap:round; stroke-width:0.25; stroke-dasharray:3,3;"/>
<line x1="62.350000" y1="153.000000" x2="67.350000" y2="153.000000"  style="stroke: black; stroke-linecap:round; stroke-width:0.25; stroke-dasharray:3,3;"/>
<line x1="77.025000" y1="153.000000" x2="104.350000" y2="153.000000"  style="stroke: black; stroke-linecap:round; stroke-width:0.25; stroke-dasharray:3,3;"/>
<text x="67.350000" y="155.000000" font-family="Arial" font-size="7">N</text>
<rect x="159.700000" y="99.000000" width="24.000000" height="24.000000" rx="0" ry="0" style="stroke:none;fill:#cccccc;"/>
<rect x="158.700000" y="98.000000" width="24.000000" height="24.000000" rx="0" ry="0" style="stroke:none;fill:#4B71A1;"/>
<text x="170.700000" y="112.000000" font-family="Arial" font-size="7" text-anchor="middle" fill="#FFFFFF">/</text>
<circle cx="160.700000" cy="100.000000" r="1"/>
<line x1="155.700000" y1="105.000000" x2="158.700000" y2="106.000000"  transform="rotate(0.000000,158.700000,106.000000)" style="stroke: black; stroke-width:0.25;"/>
<line x1="155.700000" y1="107.000000" x2="158.700000" y2="106.000000"  transform="rotate(0.000000,158.700000,106.000000)" style="stroke: black; stroke-width:0.25;"/>
<line x1="155.700000" y1="113.000000" x2="158.700000" y2="114.000000"  transform="rotate(0.000000,158.700000,114.000000)" style="stroke: black; stroke-width:0.25;"/>
<line x1="155.700000" y1="115.000000" x2="158.700000" y2="114.000000"  transform="rotate(0.000000,158.700000,114.000000)" style="stroke: black; stroke-width:0.25;"/>
<rect x="32.350000" y="205.000000" width="24.000000" height="24.000000" rx="0" ry="0" style="stroke:none;fill:#cccccc;"/>
<rect x="31.350000" y="204.000000" width="24.000000" height="24.000000" rx="0" ry="0" style="stroke:none;fill:#47945E;"/>
<text x="43.350000" y="218.000000" font-family="Arial" font-size="7" text-anchor="middle" fill="#FFFFFF">l</text>
<circle cx="33.350000" cy="206.000000" r="1"/>
<a xlink:href="corr-0x6000c40e8ab0.svg">
<rect x="25.000000" y="237.000000" width="38.700000" height="24.000000" rx="0" ry="0" style="stroke:none;fill:#cccccc;"/>
<rect x="24.000000" y="236.000000" width="38.700000" height="24.000000" rx="0" ry="0" style="stroke:none;fill:#003366;"/>
</a>
<a xlink:href="corr-0x6000c40e8ab0.svg">
<text x="43.350000" y="250.000000" font-family="Arial" font-size="7" text-anchor="middle" fill="#FFFFFF">corr_pos1</text>
</a>
<circle cx="26.000000" cy="238.000000" r="1"/>
<rect x="79.700000" y="221.000000" width="24.000000" height="24.000000" rx="0" ry="0" style="stroke:none;fill:#cccccc;"/>
<rect x="78.700000" y="220.000000" width="24.000000" height="24.000000" rx="0" ry="0" style="stroke:none;fill:#4B71A1;"/>
<text x="90.700000" y="234.000000" font-family="Arial" font-size="7" text-anchor="middle" fill="#FFFFFF">*</text>
<circle cx="80.700000" cy="222.000000" r="1"/>
<line x1="75.700000" y1="227.000000" x2="78.700000" y2="228.000000"  transform="rotate(0.000000,78.700000,228.000000)" style="stroke: black; stroke-width:0.25;"/>
<line x1="75.700000" y1="229.000000" x2="78.700000" y2="228.000000"  transform="rotate(0.000000,78.700000,228.000000)" style="stroke: black; stroke-width:0.25;"/>
<line x1="75.700000" y1="235.000000" x2="78.700000" y2="236.000000"  transform="rotate(0.000000,78.700000,236.000000)" style="stroke: black; stroke-width:0.25;"/>
<line x1="75.700000" y1="237.000000" x2="78.700000" y2="236.000000"  transform="rotate(0.000000,78.700000,236.000000)" style="stroke: black; stroke-width:0.25;"/>
<rect x="32.350000" y="269.000000" width="24.000000" height="24.000000" rx="0" ry="0" style="stroke:none;fill:#cccccc;"/>
<rect x="31.350000" y="268.000000" width="24.000000" height="24.000000" rx="0" ry="0" style="stroke:none;fill:#47945E;"/>
<text x="43.350000" y="282.000000" font-family="Arial" font-size="7" text-anchor="middle" fill="#FFFFFF">r</text>
<circle cx="33.350000" cy="270.000000" r="1"/>
<a xlink:href="corr-0x6000c40e8ab0.svg">
<rect x="25.000000" y="301.000000" width="38.700000" height="24.000000" rx="0" ry="0" style="stroke:none;fill:#cccccc;"/>
<rect x="24.000000" y="300.000000" width="38.700000" height="24.000000" rx="0" ry="0" style="stroke:none;fill:#003366;"/>
</a>
<a xlink:href="corr-0x6000c40e8ab0.svg">
<text x="43.350000" y="314.000000" font-family="Arial" font-size="7" text-anchor="middle" fill="#FFFFFF">corr_pos1</text>
</a>
<circle cx="26.000000" cy="302.000000" r="1"/>
<rect x="79.700000" y="285.000000" width="24.000000" height="24.000000" rx="0" ry="0" style="stroke:none;fill:#cccccc;"/>
<rect x="78.700000" y="284.000000" width="24.000000" height="24.000000" rx="0" ry="0" style="stroke:none;fill:#4B71A1;"/>
<text x="90.700000" y="298.000000" font-family="Arial" font-size="7" text-anchor="middle" fill="#FFFFFF">*</text>
<circle cx="80.700000" cy="286.000000" r="1"/>
<line x1="75.700000" y1="291.000000" x2="78.700000" y2="292.000000"  transform="rotate(0.000000,78.700000,292.000000)" style="stroke: black; stroke-width:0.25;"/>
<line x1="75.700000" y1="293.000000" x2="78.700000" y2="292.000000"  transform="rotate(0.000000,78.700000,292.000000)" style="stroke: black; stroke-width:0.25;"/>
<line x1="75.700000" y1="299.000000" x2="78.700000" y2="300.000000"  transform="rotate(0.000000,78.700000,300.000000)" style="stroke: black; stroke-width:0.25;"/>
<line x1="75.700000" y1="301.000000" x2="78.700000" y2="300.000000"  transform="rotate(0.000000,78.700000,300.000000)" style="stroke: black; stroke-width:0.25;"/>
<rect x="119.700000" y="253.000000" width="24.000000" height="24.000000" rx="0" ry="0" style="stroke:none;fill:#cccccc;"/>
<rect x="118.700000" y="252.000000" width="24.000000" height="24.000000" rx="0" ry="0" style="stroke:none;fill:#4B71A1;"/>
<text x="130.700000" y="266.000000" font-family="Arial" font-size="7" text-anchor="middle" fill="#FFFFFF">+</text>
<circle cx="120.700000" cy="254.000000" r="1"/>
<line x1="115.700000" y1="259.000000" x2="118.700000" y2="260.000000"  transform="rotate(0.000000,118.700000,260.000000)" style="stroke: black; stroke-width:0.25;"/>
<line x1="115.700000" y1="261.000000" x2="118.700000" y2="260.000000"  transform="rotate(0.000000,118.700000,260.000000)" style="stroke: black; stroke-width:0.25;"/>
<line x1="115.700000" y1="267.000000" x2="118.700000" y2="268.000000"  transform="rotate(0.000000,118.700000,268.000000)" style="stroke: black; stroke-width:0.25;"/>
<line x1="115.700000" y1="269.000000" x2="118.700000" y2="268.000000"  transform="rotate(0.000000,118.700000,268.000000)" style="stroke: black; stroke-width:0.25;"/>
<rect x="72.350000" y="343.000000" width="24.000000" height="24.000000" rx="0" ry="0" style="stroke:none;fill:#cccccc;"/>
<rect x="71.350000" y="342.000000" width="24.000000" height="24.000000" rx="0" ry="0" style="stroke:none;fill:#f44800;"/>
<text x="83.350000" y="356.000000" font-family="Arial" font-size="7" text-anchor="middle" fill="#FFFFFF">2</text>
<circle cx="73.350000" cy="344.000000" r="1"/>
<line x1="62.350000" y1="333.000000" x2="62.350000" y2="375.000000"  style="stroke: black; stroke-linecap:round; stroke-width:0.25; stroke-dasharray:3,3;"/>
<line x1="62.350000" y1="375.000000" x2="104.350000" y2="375.000000"  style="stroke: black; stroke-linecap:round; stroke-width:0.25; stroke-dasharray:3,3;"/>
<line x1="104.350000" y1="375.000000" x2="104.350000" y2="333.000000"  style="stroke: black; stroke-linecap:round; stroke-width:0.25; stroke-dasharray:3,3;"/>
<line x1="62.350000" y1="333.000000" x2="67.350000" y2="333.000000"  style="stroke: black; stroke-linecap:round; stroke-width:0.25; stroke-dasharray:3,3;"/>
<line x1="77.025000" y1="333.000000" x2="104.350000" y2="333.000000"  style="stroke: black; stroke-linecap:round; stroke-width:0.25; stroke-dasharray:3,3;"/>
<text x="67.350000" y="335.000000" font-family="Arial" font-size="7">N</text>
<rect x="159.700000" y="279.000000" width="24.000000" height="24.000000" rx="0" ry="0" style="stroke:none;fill:#cccccc;"/>
<rect x="158.700000" y="278.000000" width="24.000000" height="24.000000" rx="0" ry="0" style="stroke:none;fill:#4B71A1;"/>
<text x="170.700000" y="292.000000" font-family="Arial" font-size="7" text-anchor="middle" fill="#FFFFFF">/</text>
<circle cx="160.700000" cy="280.000000" r="1"/>
<line x1="155.700000" y1="285.000000" x2="158.700000" y2="286.000000"  transform="rotate(0.000000,158.700000,286.000000)" style="stroke: black; stroke-width:0.25;"/>
<line x1="155.700000" y1="287.000000" x2="158.700000" y2="286.000000"  transform="rotate(0.000000,158.700000,286.000000)" style="stroke: black; stroke-width:0.25;"/>
<line x1="155.700000" y1="293.000000" x2="158.700000" y2="294.000000"  transform="rotate(0.000000,158.700000,294.000000)" style="stroke: black; stroke-width:0.25;"/>
<line x1="155.700000" y1="295.000000" x2="158.700000" y2="294.000000"  transform="rotate(0.000000,158.700000,294.000000)" style="stroke: black; stroke-width:0.25;"/>
<line x1="15.000000" y1="15.000000" x2="15.000000" y2="385.000000"  style="stroke: black; stroke-linecap:round; stroke-width:0.25; stroke-dasharray:3,3;"/>
<line x1="15.000000" y1="385.000000" x2="207.700000" y2="385.000000"  style="stroke: black; stroke-linecap:round; stroke-width:0.25; stroke-dasharray:3,3;"/>
<line x1="207.700000" y1="385.000000" x2="207.700000" y2="15.000000"  style="stroke: black; stroke-linecap:round; stroke-width:0.25; stroke-dasharray:3,3;"/>
<line x1="15.000000" y1="15.000000" x2="20.000000" y2="15.000000"  style="stroke: black; stroke-linecap:round; stroke-width:0.25; stroke-dasharray:3,3;"/>
<line x1="52.250000" y1="15.000000" x2="207.700000" y2="15.000000"  style="stroke: black; stroke-linecap:round; stroke-width:0.25; stroke-dasharray:3,3;"/>
<text x="20.000000" y="17.000000" font-family="Arial" font-size="7">out_pos1</text>
<line x1="209.700000" y1="195.000000" x2="212.700000" y2="196.000000"  transform="rotate(0.000000,212.700000,196.000000)" style="stroke: black; stroke-width:0.25;"/>
<line x1="209.700000" y1="197.000000" x2="212.700000" y2="196.000000"  transform="rotate(0.000000,212.700000,196.000000)" style="stroke: black; stroke-width:0.25;"/>
<line x1="209.700000" y1="203.000000" x2="212.700000" y2="204.000000"  transform="rotate(0.000000,212.700000,204.000000)" style="stroke: black; stroke-width:0.25;"/>
<line x1="209.700000" y1="205.000000" x2="212.700000" y2="204.000000"  transform="rotate(0.000000,212.700000,204.000000)" style="stroke: black; stroke-width:0.25;"/>
<line x1="55.350000" y1="36.000000" x2="59.350000" y2="36.000000"  style="stroke:black; stroke-linecap:round; stroke-width:0.25;"/>
<line x1="55.350000" y1="100.000000" x2="59.350000" y2="100.000000"  style="stroke:black; stroke-linecap:round; stroke-width:0.25;"/>
<line x1="55.350000" y1="216.000000" x2="59.350000" y2="216.000000"  style="stroke:black; stroke-linecap:round; stroke-width:0.25;"/>
<line x1="55.350000" y1="280.000000" x2="59.350000" y2="280.000000"  style="stroke:black; stroke-linecap:round; stroke-width:0.25;"/>
<line x1="59.350000" y1="36.000000" x2="66.700000" y2="36.000000"  style="stroke:black; stroke-linecap:round; stroke-width:0.25;"/>
<line x1="59.350000" y1="100.000000" x2="66.700000" y2="100.000000"  style="stroke:black; stroke-linecap:round; stroke-width:0.25;"/>
<line x1="59.350000" y1="216.000000" x2="66.700000" y2="216.000000"  style="stroke:black; stroke-linecap:round; stroke-width:0.25;"/>
<line x1="59.350000" y1="280.000000" x2="66.700000" y2="280.000000"  style="stroke:black; stroke-linecap:round; stroke-width:0.25;"/>
<line x1="62.700000" y1="68.000000" x2="66.700000" y2="68.000000"  style="stroke:black; stroke-linecap:round; stroke-width:0.25;"/>
<line x1="62.700000" y1="132.000000" x2="66.700000" y2="132.000000"  style="stroke:black; stroke-linecap:round; stroke-width:0.25;"/>
<line x1="62.700000" y1="248.000000" x2="66.700000" y2="248.000000"  style="stroke:black; stroke-linecap:round; stroke-width:0.25;"/>
<line x1="62.700000" y1="312.000000" x2="66.700000" y2="312.000000"  style="stroke:black; stroke-linecap:round; stroke-width:0.25;"/>
<line x1="66.700000" y1="36.000000" x2="74.700000" y2="36.000000"  style="stroke:black; stroke-linecap:round; stroke-width:0.25;"/>
<line x1="66.700000" y1="56.000000" x2="74.700000" y2="56.000000"  style="stroke:black; stroke-linecap:round; stroke-width:0.25;"/>
<line x1="66.700000" y1="68.000000" x2="66.700000" y2="56.000000"  style="stroke:black; stroke-linecap:round; stroke-width:0.25;"/>
<line x1="66.700000" y1="68.000000" x2="66.700000" y2="68.000000"  style="stroke:black; stroke-linecap:round; stroke-width:0.25;"/>
<line x1="66.700000" y1="100.000000" x2="74.700000" y2="100.000000"  style="stroke:black; stroke-linecap:round; stroke-width:0.25;"/>
<line x1="66.700000" y1="120.000000" x2="74.700000" y2="120.000000"  style="stroke:black; stroke-linecap:round; stroke-width:0.25;"/>
<line x1="66.700000" y1="132.000000" x2="66.700000" y2="120.000000"  style="stroke:black; stroke-linecap:round; stroke-width:0.25;"/>
<line x1="66.700000" y1="132.000000" x2="66.700000" y2="132.000000"  style="stroke:black; stroke-linecap:round; stroke-width:0.25;"/>
<line x1="66.700000" y1="216.000000" x2="74.700000" y2="216.000000"  style="stroke:black; stroke-linecap:round; stroke-width:0.25;"/>
<line x1="66.700000" y1="236.000000" x2="74.700000" y2="236.000000"  style="stroke:black; stroke-linecap:round; stroke-width:0.25;"/>
<line x1="66.700000" y1="248.000000" x2="66.700000" y2="236.000000"  style="stroke:black; stroke-linecap:round; stroke-width:0.25;"/>
<line x1="66.700000" y1="248.000000" x2="66.700000" y2="248.000000"  style="stroke:black; stroke-linecap:round; stroke-width:0.25;"/>
<line x1="66.700000" y1="280.000000" x2="74.700000" y2="280.000000"  style="stroke:black; stroke-linecap:round; stroke-width:0.25;"/>
<line x1="66.700000" y1="300.000000" x2="74.700000" y2="300.000000"  style="stroke:black; stroke-linecap:round; stroke-width:0.25;"/>
<line x1="66.700000" y1="312.000000" x2="66.700000" y2="300.000000"  style="stroke:black; stroke-linecap:round; stroke-width:0.25;"/>
<line x1="66.700000" y1="312.000000" x2="66.700000" y2="312.000000"  style="stroke:black; stroke-linecap:round; stroke-width:0.25;"/>
<line x1="74.700000" y1="36.000000" x2="74.700000" y2="48.000000"  style="stroke:black; stroke-linecap:round; stroke-width:0.25;"/>
<line x1="74.700000" y1="48.000000" x2="74.700000" y2="48.000000"  style="stroke:black; stroke-linecap:round; stroke-width:0.25;"/>
<line x1="74.700000" y1="48.000000" x2="78.700000" y2="48.000000"  style="stroke:black; stroke-linecap:round; stroke-width:0.25;"/>
<line x1="74.700000" y1="56.000000" x2="78.700000" y2="56.000000"  style="stroke:black; stroke-linecap:round; stroke-width:0.25;"/>
<line x1="74.700000" y1="100.000000" x2="74.700000" y2="112.000000"  style="stroke:black; stroke-linecap:round; stroke-width:0.25;"/>
<line x1="74.700000" y1="112.000000" x2="74.700000" y2="112.000000"  style="stroke:black; stroke-linecap:round; stroke-width:0.25;"/>
<line x1="74.700000" y1="112.000000" x2="78.700000" y2="112.000000"  style="stroke:black; stroke-linecap:round; stroke-width:0.25;"/>
<line x1="74.700000" y1="120.000000" x2="78.700000" y2="120.000000"  style="stroke:black; stroke-linecap:round; stroke-width:0.25;"/>
<line x1="74.700000" y1="216.000000" x2="74.700000" y2="228.000000"  style="stroke:black; stroke-linecap:round; stroke-width:0.25;"/>
<line x1="74.700000" y1="228.000000" x2="74.700000" y2="228.000000"  style="stroke:black; stroke-linecap:round; stroke-width:0.25;"/>
<line x1="74.700000" y1="228.000000" x2="78.700000" y2="228.000000"  style="stroke:black; stroke-linecap:round; stroke-width:0.25;"/>
<line x1="74.700000" y1="236.000000" x2="78.700000" y2="236.000000"  style="stroke:black; stroke-linecap:round; stroke-width:0.25;"/>
<line x1="74.700000" y1="280.000000" x2="74.700000" y2="292.000000"  style="stroke:black; stroke-linecap:round; stroke-width:0.25;"/>
<line x1="74.700000" y1="292.000000" x2="74.700000" y2="292.000000"  style="stroke:black; stroke-linecap:round; stroke-width:0.25;"/>
<line x1="74.700000" y1="292.000000" x2="78.700000" y2="292.000000"  style="stroke:black; stroke-linecap:round; stroke-width:0.25;"/>
<line x1="74.700000" y1="300.000000" x2="78.700000" y2="300.000000"  style="stroke:black; stroke-linecap:round; stroke-width:0.25;"/>
<line x1="95.350000" y1="174.000000" x2="99.350000" y2="174.000000"  style="stroke:black; stroke-linecap:round; stroke-width:0.25;"/>
<line x1="95.350000" y1="354.000000" x2="99.350000" y2="354.000000"  style="stroke:black; stroke-linecap:round; stroke-width:0.25;"/>
<line x1="99.350000" y1="174.000000" x2="109.350000" y2="174.000000"  style="stroke:black; stroke-linecap:round; stroke-width:0.25;"/>
<line x1="99.350000" y1="354.000000" x2="109.350000" y2="354.000000"  style="stroke:black; stroke-linecap:round; stroke-width:0.25;"/>
<line x1="102.700000" y1="52.000000" x2="106.700000" y2="52.000000"  style="stroke:black; stroke-linecap:round; stroke-width:0.25;"/>
<line x1="102.700000" y1="116.000000" x2="106.700000" y2="116.000000"  style="stroke:black; stroke-linecap:round; stroke-width:0.25;"/>
<line x1="102.700000" y1="232.000000" x2="106.700000" y2="232.000000"  style="stroke:black; stroke-linecap:round; stroke-width:0.25;"/>
<line x1="102.700000" y1="296.000000" x2="106.700000" y2="296.000000"  style="stroke:black; stroke-linecap:round; stroke-width:0.25;"/>
<line x1="106.700000" y1="52.000000" x2="114.700000" y2="52.000000"  style="stroke:black; stroke-linecap:round; stroke-width:0.25;"/>
<line x1="106.700000" y1="88.000000" x2="114.700000" y2="88.000000"  style="stroke:black; stroke-linecap:round; stroke-width:0.25;"/>
<line x1="106.700000" y1="116.000000" x2="106.700000" y2="88.000000"  style="stroke:black; stroke-linecap:round; stroke-width:0.25;"/>
<line x1="106.700000" y1="116.000000" x2="106.700000" y2="116.000000"  style="stroke:black; stroke-linecap:round; stroke-width:0.25;"/>
<line x1="106.700000" y1="232.000000" x2="114.700000" y2="232.000000"  style="stroke:black; stroke-linecap:round; stroke-width:0.25;"/>
<line x1="106.700000" y1="268.000000" x2="114.700000" y2="268.000000"  style="stroke:black; stroke-linecap:round; stroke-width:0.25;"/>
<line x1="106.700000" y1="296.000000" x2="106.700000" y2="268.000000"  style="stroke:black; stroke-linecap:round; stroke-width:0.25;"/>
<line x1="106.700000" y1="296.000000" x2="106.700000" y2="296.000000"  style="stroke:black; stroke-linecap:round; stroke-width:0.25;"/>
<line x1="109.350000" y1="174.000000" x2="146.700000" y2="174.000000"  style="stroke:black; stroke-linecap:round; stroke-width:0.25;"/>
<line x1="109.350000" y1="354.000000" x2="146.700000" y2="354.000000"  style="stroke:black; stroke-linecap:round; stroke-width:0.25;"/>
<line x1="114.700000" y1="52.000000" x2="114.700000" y2="80.000000"  style="stroke:black; stroke-linecap:round; stroke-width:0.25;"/>
<line x1="114.700000" y1="80.000000" x2="114.700000" y2="80.000000"  style="stroke:black; stroke-linecap:round; stroke-width:0.25;"/>
<line x1="114.700000" y1="80.000000" x2="118.700000" y2="80.000000"  style="stroke:black; stroke-linecap:round; stroke-width:0.25;"/>
<line x1="114.700000" y1="88.000000" x2="118.700000" y2="88.000000"  style="stroke:black; stroke-linecap:round; stroke-width:0.25;"/>
<line x1="114.700000" y1="232.000000" x2="114.700000" y2="260.000000"  style="stroke:black; stroke-linecap:round; stroke-width:0.25;"/>
<line x1="114.700000" y1="260.000000" x2="114.700000" y2="260.000000"  style="stroke:black; stroke-linecap:round; stroke-width:0.25;"/>
<line x1="114.700000" y1="260.000000" x2="118.700000" y2="260.000000"  style="stroke:black; stroke-linecap:round; stroke-width:0.25;"/>
<line x1="114.700000" y1="268.000000" x2="118.700000" y2="268.000000"  style="stroke:black; stroke-linecap:round; stroke-width:0.25;"/>
<line x1="142.700000" y1="84.000000" x2="146.700000" y2="84.000000"  style="stroke:black; stroke-linecap:round; stroke-width:0.25;"/>
<line x1="142.700000" y1="264.000000" x2="146.700000" y2="264.000000"  style="stroke:black; stroke-linecap:round; stroke-width:0.25;"/>
<line x1="146.700000" y1="84.000000" x2="154.700000" y2="84.000000"  style="stroke:black; stroke-linecap:round; stroke-width:0.25;"/>
<line x1="146.700000" y1="114.000000" x2="154.700000" y2="114.000000"  style="stroke:black; stroke-linecap:round; stroke-width:0.25;"/>
<line x1="146.700000" y1="174.000000" x2="146.700000" y2="114.000000"  style="stroke:black; stroke-linecap:round; stroke-width:0.25;"/>
<line x1="146.700000" y1="174.000000" x2="146.700000" y2="174.000000"  style="stroke:black; stroke-linecap:round; stroke-width:0.25;"/>
<line x1="146.700000" y1="264.000000" x2="154.700000" y2="264.000000"  style="stroke:black; stroke-linecap:round; stroke-width:0.25;"/>
<line x1="146.700000" y1="294.000000" x2="154.700000" y2="294.000000"  style="stroke:black; stroke-linecap:round; stroke-width:0.25;"/>
<line x1="146.700000" y1="354.000000" x2="146.700000" y2="294.000000"  style="stroke:black; stroke-linecap:round; stroke-width:0.25;"/>
<line x1="146.700000" y1="354.000000" x2="146.700000" y2="354.000000"  style="stroke:black; stroke-linecap:round; stroke-width:0.25;"/>
<line x1="154.700000" y1="84.000000" x2="154.700000" y2="106.000000"  style="stroke:black; stroke-linecap:round; stroke-width:0.25;"/>
<line x1="154.700000" y1="106.000000" x2="154.700000" y2="106.000000"  style="stroke:black; stroke-linecap:round; stroke-width:0.25;"/>
<line x1="154.700000" y1="106.000000" x2="158.700000" y2="106.000000"  style="stroke:black; stroke-linecap:round; stroke-width:0.25;"/>
<line x1="154.700000" y1="114.000000" x2="158.700000" y2="114.000000"  style="stroke:black; stroke-linecap:round; stroke-width:0.25;"/>
<line x1="154.700000" y1="264.000000" x2="154.700000" y2="286.000000"  style="stroke:black; stroke-linecap:round; stroke-width:0.25;"/>
<line x1="154.700000" y1="286.000000" x2="154.700000" y2="286.000000"  style="stroke:black; stroke-linecap:round; stroke-width:0.25;"/>
<line x1="154.700000" y1="286.000000" x2="158.700000" y2="286.000000"  style="stroke:black; stroke-linecap:round; stroke-width:0.25;"/>
<line x1="154.700000" y1="294.000000" x2="158.700000" y2="294.000000"  style="stroke:black; stroke-linecap:round; stroke-width:0.25;"/>
<line x1="182.700000" y1="110.000000" x2="186.700000" y2="110.000000"  style="stroke:black; stroke-linecap:round; stroke-width:0.25;"/>
<line x1="182.700000" y1="290.000000" x2="186.700000" y2="290.000000"  style="stroke:black; stroke-linecap:round; stroke-width:0.25;"/>
<line x1="186.700000" y1="110.000000" x2="194.700000" y2="110.000000"  style="stroke:black; stroke-linecap:round; stroke-width:0.25;"/>
<line x1="186.700000" y1="204.000000" x2="194.700000" y2="204.000000"  style="stroke:black; stroke-linecap:round; stroke-width:0.25;"/>
<line x1="186.700000" y1="290.000000" x2="186.700000" y2="204.000000"  style="stroke:black; stroke-linecap:round; stroke-width:0.25;"/>
<line x1="186.700000" y1="290.000000" x2="186.700000" y2="290.000000"  style="stroke:black; stroke-linecap:round; stroke-width:0.25;"/>
<line x1="194.700000" y1="110.000000" x2="194.700000" y2="196.000000"  style="stroke:black; stroke-linecap:round; stroke-width:0.25;"/>
<line x1="194.700000" y1="196.000000" x2="194.700000" y2="196.000000"  style="stroke:black; stroke-linecap:round; stroke-width:0.25;"/>
<line x1="194.700000" y1="196.000000" x2="198.700000" y2="196.000000"  style="stroke:black; stroke-linecap:round; stroke-width:0.25;"/>
<line x1="194.700000" y1="204.000000" x2="198.700000" y2="204.000000"  style="stroke:black; stroke-linecap:round; stroke-width:0.25;"/>
<line x1="198.700000" y1="196.000000" x2="202.700000" y2="196.000000"  style="stroke:black; stroke-linecap:round; stroke-width:0.25;"/>
<line x1="198.700000" y1="204.000000" x2="202.700000" y2="204.000000"  style="stroke:black; stroke-linecap:round; stroke-width:0.25;"/>
<line x1="202.700000" y1="196.000000" x2="212.700000" y2="196.000000"  style="stroke:black; stroke-linecap:round; stroke-width:0.25;"/>
<line x1="202.700000" y1="204.000000" x2="212.700000" y2="204.000000"  style="stroke:black; stroke-linecap:round; stroke-width:0.25;"/>
</svg>
