<?xml version="1.0"?>
<svg xmlns="http://www.w3.org/2000/svg" xmlns:xlink="http://www.w3.org/1999/xlink" viewBox="0 0 184.500000 120.000000" width="92.250000mm" height="60.000000mm" version="1.1">
<a xlink:href="B-0x60014c3ede60.svg">
<rect x="1.000000" y="1.000000" width="183.500000" height="119.000000" rx="0" ry="0" style="stroke:none;fill:#cccccc;"/>
<rect x="0.000000" y="0.000000" width="183.500000" height="119.000000" rx="0" ry="0" style="stroke:none;fill:#ffffff;"/>
</a>
<text x="10.000000" y="7.000000" font-family="Arial" font-size="7"></text>
<a xlink:href="mscomp-0x60014c3eda70.svg">
<rect x="41.000000" y="33.000000" width="64.500000" height="24.000000" rx="0" ry="0" style="stroke:none;fill:#cccccc;"/>
<rect x="40.000000" y="32.000000" width="64.500000" height="24.000000" rx="0" ry="0" style="stroke:none;fill:#003366;"/>
</a>
<a xlink:href="mscomp-0x60014c3eda70.svg">
<text x="72.250000" y="46.000000" font-family="Arial" font-size="7" text-anchor="middle" fill="#FFFFFF">mscomp_outGain</text>
</a>
<circle cx="42.000000" cy="34.000000" r="1"/>
<rect x="121.500000" y="29.000000" width="24.000000" height="24.000000" rx="0" ry="0" style="stroke:none;fill:#cccccc;"/>
<rect x="120.500000" y="28.000000" width="24.000000" height="24.000000" rx="0" ry="0" style="stroke:none;fill:#4B71A1;"/>
<text x="132.500000" y="42.000000" font-family="Arial" font-size="7" text-anchor="middle" fill="#FFFFFF">*</text>
<circle cx="122.500000" cy="30.000000" r="1"/>
<line x1="117.500000" y1="35.000000" x2="120.500000" y2="36.000000"  transform="rotate(0.000000,120.500000,36.000000)" style="stroke: black; stroke-width:0.25;"/>
<line x1="117.500000" y1="37.000000" x2="120.500000" y2="36.000000"  transform="rotate(0.000000,120.500000,36.000000)" style="stroke: black; stroke-width:0.25;"/>
<line x1="117.500000" y1="43.000000" x2="120.500000" y2="44.000000"  transform="rotate(0.000000,120.500000,44.000000)" style="stroke: black; stroke-width:0.25;"/>
<line x1="117.500000" y1="45.000000" x2="120.500000" y2="44.000000"  transform="rotate(0.000000,120.500000,44.000000)" style="stroke: black; stroke-width:0.25;"/>
<a xlink:href="mscomp-0x60014c3eda70.svg">
<rect x="41.000000" y="73.000000" width="64.500000" height="24.000000" rx="0" ry="0" style="stroke:none;fill:#cccccc;"/>
<rect x="40.000000" y="72.000000" width="64.500000" height="24.000000" rx="0" ry="0" style="stroke:none;fill:#003366;"/>
</a>
<a xlink:href="mscomp-0x60014c3eda70.svg">
<text x="72.250000" y="86.000000" font-family="Arial" font-size="7" text-anchor="middle" fill="#FFFFFF">mscomp_outGain</text>
</a>
<circle cx="42.000000" cy="74.000000" r="1"/>
<rect x="121.500000" y="69.000000" width="24.000000" height="24.000000" rx="0" ry="0" style="stroke:none;fill:#cccccc;"/>
<rect x="120.500000" y="68.000000" width="24.000000" height="24.000000" rx="0" ry="0" style="stroke:none;fill:#4B71A1;"/>
<text x="132.500000" y="82.000000" font-family="Arial" font-size="7" text-anchor="middle" fill="#FFFFFF">*</text>
<circle cx="122.500000" cy="70.000000" r="1"/>
<line x1="117.500000" y1="75.000000" x2="120.500000" y2="76.000000"  transform="rotate(0.000000,120.500000,76.000000)" style="stroke: black; stroke-width:0.25;"/>
<line x1="117.500000" y1="77.000000" x2="120.500000" y2="76.000000"  transform="rotate(0.000000,120.500000,76.000000)" style="stroke: black; stroke-width:0.25;"/>
<line x1="117.500000" y1="83.000000" x2="120.500000" y2="84.000000"  transform="rotate(0.000000,120.500000,84.000000)" style="stroke: black; stroke-width:0.25;"/>
<line x1="117.500000" y1="85.000000" x2="120.500000" y2="84.000000"  transform="rotate(0.000000,120.500000,84.000000)" style="stroke: black; stroke-width:0.25;"/>
<line x1="15.000000" y1="15.000000" x2="15.000000" y2="105.000000"  style="stroke: black; stroke-linecap:round; stroke-width:0.25; stroke-dasharray:3,3;"/>
<line x1="15.000000" y1="105.000000" x2="169.500000" y2="105.000000"  style="stroke: black; stroke-linecap:round; stroke-width:0.25; stroke-dasharray:3,3;"/>
<line x1="169.500000" y1="105.000000" x2="169.500000" y2="15.000000"  style="stroke: black; stroke-linecap:round; stroke-width:0.25; stroke-dasharray:3,3;"/>
<line x1="15.000000" y1="15.000000" x2="20.000000" y2="15.000000"  style="stroke: black; stroke-linecap:round; stroke-width:0.25; stroke-dasharray:3,3;"/>
<line x1="58.700000" y1="15.000000" x2="169.500000" y2="15.000000"  style="stroke: black; stroke-linecap:round; stroke-width:0.25; stroke-dasharray:3,3;"/>
<text x="20.000000" y="17.000000" font-family="Arial" font-size="7">outputGain</text>
<line x1="171.500000" y1="55.000000" x2="174.500000" y2="56.000000"  transform="rotate(0.000000,174.500000,56.000000)" style="stroke: black; stroke-width:0.25;"/>
<line x1="171.500000" y1="57.000000" x2="174.500000" y2="56.000000"  transform="rotate(0.000000,174.500000,56.000000)" style="stroke: black; stroke-width:0.25;"/>
<line x1="171.500000" y1="63.000000" x2="174.500000" y2="64.000000"  transform="rotate(0.000000,174.500000,64.000000)" style="stroke: black; stroke-width:0.25;"/>
<line x1="171.500000" y1="65.000000" x2="174.500000" y2="64.000000"  transform="rotate(0.000000,174.500000,64.000000)" style="stroke: black; stroke-width:0.25;"/>
<line x1="10.000000" y1="56.000000" x2="20.000000" y2="56.000000"  style="stroke:black; stroke-linecap:round; stroke-width:0.25;"/>
<line x1="10.000000" y1="64.000000" x2="20.000000" y2="64.000000"  style="stroke:black; stroke-linecap:round; stroke-width:0.25;"/>
<line x1="20.000000" y1="56.000000" x2="24.000000" y2="56.000000"  style="stroke:black; stroke-linecap:round; stroke-width:0.25;"/>
<line x1="20.000000" y1="64.000000" x2="24.000000" y2="64.000000"  style="stroke:black; stroke-linecap:round; stroke-width:0.25;"/>
<line x1="24.000000" y1="56.000000" x2="28.000000" y2="56.000000"  style="stroke:black; stroke-linecap:round; stroke-width:0.25;"/>
<line x1="24.000000" y1="64.000000" x2="28.000000" y2="64.000000"  style="stroke:black; stroke-linecap:round; stroke-width:0.25;"/>
<line x1="28.000000" y1="24.000000" x2="36.000000" y2="24.000000"  style="stroke:black; stroke-linecap:round; stroke-width:0.25;"/>
<line x1="28.000000" y1="56.000000" x2="28.000000" y2="24.000000"  style="stroke:black; stroke-linecap:round; stroke-width:0.25;"/>
<line x1="28.000000" y1="56.000000" x2="28.000000" y2="56.000000"  style="stroke:black; stroke-linecap:round; stroke-width:0.25;"/>
<line x1="28.000000" y1="64.000000" x2="36.000000" y2="64.000000"  style="stroke:black; stroke-linecap:round; stroke-width:0.25;"/>
<line x1="36.000000" y1="24.000000" x2="72.250000" y2="24.000000"  style="stroke:black; stroke-linecap:round; stroke-width:0.25;"/>
<line x1="36.000000" y1="64.000000" x2="72.250000" y2="64.000000"  style="stroke:black; stroke-linecap:round; stroke-width:0.25;"/>
<line x1="72.250000" y1="24.000000" x2="108.500000" y2="24.000000"  style="stroke:black; stroke-linecap:round; stroke-width:0.25;"/>
<line x1="72.250000" y1="64.000000" x2="108.500000" y2="64.000000"  style="stroke:black; stroke-linecap:round; stroke-width:0.25;"/>
<line x1="104.500000" y1="44.000000" x2="108.500000" y2="44.000000"  style="stroke:black; stroke-linecap:round; stroke-width:0.25;"/>
<line x1="104.500000" y1="84.000000" x2="108.500000" y2="84.000000"  style="stroke:black; stroke-linecap:round; stroke-width:0.25;"/>
<line x1="108.500000" y1="24.000000" x2="116.500000" y2="24.000000"  style="stroke:black; stroke-linecap:round; stroke-width:0.25;"/>
<line x1="108.500000" y1="44.000000" x2="116.500000" y2="44.000000"  style="stroke:black; stroke-linecap:round; stroke-width:0.25;"/>
<line x1="108.500000" y1="64.000000" x2="116.500000" y2="64.000000"  style="stroke:black; stroke-linecap:round; stroke-width:0.25;"/>
<line x1="108.500000" y1="84.000000" x2="116.500000" y2="84.000000"  style="stroke:black; stroke-linecap:round; stroke-width:0.25;"/>
<line x1="116.500000" y1="24.000000" x2="116.500000" y2="36.000000"  style="stroke:black; stroke-linecap:round; stroke-width:0.25;"/>
<line x1="116.500000" y1="36.000000" x2="116.500000" y2="36.000000"  style="stroke:black; stroke-linecap:round; stroke-width:0.25;"/>
<line x1="116.500000" y1="36.000000" x2="120.500000" y2="36.000000"  style="stroke:black; stroke-linecap:round; stroke-width:0.25;"/>
<line x1="116.500000" y1="44.000000" x2="120.500000" y2="44.000000"  style="stroke:black; stroke-linecap:round; stroke-width:0.25;"/>
<line x1="116.500000" y1="64.000000" x2="116.500000" y2="76.000000"  style="stroke:black; stroke-linecap:round; stroke-width:0.25;"/>
<line x1="116.500000" y1="76.000000" x2="116.500000" y2="76.000000"  style="stroke:black; stroke-linecap:round; stroke-width:0.25;"/>
<line x1="116.500000" y1="76.000000" x2="120.500000" y2="76.000000"  style="stroke:black; stroke-linecap:round; stroke-width:0.25;"/>
<line x1="116.500000" y1="84.000000" x2="120.500000" y2="84.000000"  style="stroke:black; stroke-linecap:round; stroke-width:0.25;"/>
<line x1="144.500000" y1="40.000000" x2="148.500000" y2="40.000000"  style="stroke:black; stroke-linecap:round; stroke-width:0.25;"/>
<line x1="144.500000" y1="80.000000" x2="148.500000" y2="80.000000"  style="stroke:black; stroke-linecap:round; stroke-width:0.25;"/>
<line x1="148.500000" y1="40.000000" x2="156.500000" y2="40.000000"  style="stroke:black; stroke-linecap:round; stroke-width:0.25;"/>
<line x1="148.500000" y1="64.000000" x2="156.500000" y2="64.000000"  style="stroke:black; stroke-linecap:round; stroke-width:0.25;"/>
<line x1="148.500000" y1="80.000000" x2="148.500000" y2="64.000000"  style="stroke:black; stroke-linecap:round; stroke-width:0.25;"/>
<line x1="148.500000" y1="80.000000" x2="148.500000" y2="80.000000"  style="stroke:black; stroke-linecap:round; stroke-width:0.25;"/>
<line x1="156.500000" y1="40.000000" x2="156.500000" y2="56.000000"  style="stroke:black; stroke-linecap:round; stroke-width:0.25;"/>
<line x1="156.500000" y1="56.000000" x2="156.500000" y2="56.000000"  style="stroke:black; stroke-linecap:round; stroke-width:0.25;"/>
<line x1="156.500000" y1="56.000000" x2="160.500000" y2="56.000000"  style="stroke:black; stroke-linecap:round; stroke-width:0.25;"/>
<line x1="156.500000" y1="64.000000" x2="160.500000" y2="64.000000"  style="stroke:black; stroke-linecap:round; stroke-width:0.25;"/>
<line x1="160.500000" y1="56.000000" x2="164.500000" y2="56.000000"  style="stroke:black; stroke-linecap:round; stroke-width:0.25;"/>
<line x1="160.500000" y1="64.000000" x2="164.500000" y2="64.000000"  style="stroke:black; stroke-linecap:round; stroke-width:0.25;"/>
<line x1="164.500000" y1="56.000000" x2="174.500000" y2="56.000000"  style="stroke:black; stroke-linecap:round; stroke-width:0.25;"/>
<line x1="164.500000" y1="64.000000" x2="174.500000" y2="64.000000"  style="stroke:black; stroke-linecap:round; stroke-width:0.25;"/>
</svg>
