<?xml version="1.0"?>
<svg xmlns="http://www.w3.org/2000/svg" xmlns:xlink="http://www.w3.org/1999/xlink" viewBox="0 0 728.100000 72.000000" width="364.050000mm" height="36.000000mm" version="1.1">
<a xlink:href="expander-0x60013c013e70.svg">
<rect x="1.000000" y="1.000000" width="727.100000" height="71.000000" rx="0" ry="0" style="stroke:none;fill:#cccccc;"/>
<rect x="0.000000" y="0.000000" width="727.100000" height="71.000000" rx="0" ry="0" style="stroke:none;fill:#ffffff;"/>
</a>
<text x="10.000000" y="7.000000" font-family="Arial" font-size="7"></text>
<a xlink:href="level-0x60013c1e4750.svg">
<rect x="33.000000" y="25.000000" width="167.700000" height="24.000000" rx="0" ry="0" style="stroke:none;fill:#cccccc;"/>
<rect x="32.000000" y="24.000000" width="167.700000" height="24.000000" rx="0" ry="0" style="stroke:none;fill:#003366;"/>
</a>
<a xlink:href="level-0x60013c1e4750.svg">
<text x="115.850000" y="38.000000" font-family="Arial" font-size="7" text-anchor="middle" fill="#FFFFFF">level(0.10000000000000001f)(19200.0f)</text>
</a>
<circle cx="34.000000" cy="26.000000" r="1"/>
<line x1="29.000000" y1="35.000000" x2="32.000000" y2="36.000000"  transform="rotate(0.000000,32.000000,36.000000)" style="stroke: black; stroke-width:0.25;"/>
<line x1="29.000000" y1="37.000000" x2="32.000000" y2="36.000000"  transform="rotate(0.000000,32.000000,36.000000)" style="stroke: black; stroke-width:0.25;"/>
<a xlink:href="bypass1-0x60013c1c46c0.svg">
<rect x="208.700000" y="25.000000" width="129.000000" height="24.000000" rx="0" ry="0" style="stroke:none;fill:#cccccc;"/>
<rect x="207.700000" y="24.000000" width="129.000000" height="24.000000" rx="0" ry="0" style="stroke:none;fill:#003366;"/>
</a>
<a xlink:href="bypass1-0x60013c1c46c0.svg">
<text x="272.200000" y="38.000000" font-family="Arial" font-size="7" text-anchor="middle" fill="#FFFFFF">bypass1(1)(cl..., lenv = {}])</text>
</a>
<circle cx="209.700000" cy="26.000000" r="1"/>
<line x1="204.700000" y1="35.000000" x2="207.700000" y2="36.000000"  transform="rotate(0.000000,207.700000,36.000000)" style="stroke: black; stroke-width:0.25;"/>
<line x1="204.700000" y1="37.000000" x2="207.700000" y2="36.000000"  transform="rotate(0.000000,207.700000,36.000000)" style="stroke: black; stroke-width:0.25;"/>
<a xlink:href="linear2db-0x60013c1c70f0.svg">
<rect x="345.700000" y="25.000000" width="38.700000" height="24.000000" rx="0" ry="0" style="stroke:none;fill:#cccccc;"/>
<rect x="344.700000" y="24.000000" width="38.700000" height="24.000000" rx="0" ry="0" style="stroke:none;fill:#003366;"/>
</a>
<a xlink:href="linear2db-0x60013c1c70f0.svg">
<text x="364.050000" y="38.000000" font-family="Arial" font-size="7" text-anchor="middle" fill="#FFFFFF">linear2db</text>
</a>
<circle cx="346.700000" cy="26.000000" r="1"/>
<line x1="341.700000" y1="35.000000" x2="344.700000" y2="36.000000"  transform="rotate(0.000000,344.700000,36.000000)" style="stroke: black; stroke-width:0.25;"/>
<line x1="341.700000" y1="37.000000" x2="344.700000" y2="36.000000"  transform="rotate(0.000000,344.700000,36.000000)" style="stroke: black; stroke-width:0.25;"/>
<a xlink:href="gain-0x60013c03f2a0.svg">
<rect x="392.400000" y="25.000000" width="167.700000" height="24.000000" rx="0" ry="0" style="stroke:none;fill:#cccccc;"/>
<rect x="391.400000" y="24.000000" width="167.700000" height="24.000000" rx="0" ry="0" style="stroke:none;fill:#003366;"/>
</a>
<a xlink:href="gain-0x60013c03f2a0.svg">
<text x="475.250000" y="38.000000" font-family="Arial" font-size="7" text-anchor="middle" fill="#FFFFFF">gain_computer... 0.0f, 1.0f))(-120)(12)</text>
</a>
<circle cx="393.400000" cy="26.000000" r="1"/>
<line x1="388.400000" y1="35.000000" x2="391.400000" y2="36.000000"  transform="rotate(0.000000,391.400000,36.000000)" style="stroke: black; stroke-width:0.25;"/>
<line x1="388.400000" y1="37.000000" x2="391.400000" y2="36.000000"  transform="rotate(0.000000,391.400000,36.000000)" style="stroke: black; stroke-width:0.25;"/>
<a xlink:href="bypass1-0x60013c012010.svg">
<rect x="568.100000" y="25.000000" width="129.000000" height="24.000000" rx="0" ry="0" style="stroke:none;fill:#cccccc;"/>
<rect x="567.100000" y="24.000000" width="129.000000" height="24.000000" rx="0" ry="0" style="stroke:none;fill:#003366;"/>
</a>
<a xlink:href="bypass1-0x60013c012010.svg">
<text x="631.600000" y="38.000000" font-family="Arial" font-size="7" text-anchor="middle" fill="#FFFFFF">bypass1(0)(cl..., lenv = {}])</text>
</a>
<circle cx="569.100000" cy="26.000000" r="1"/>
<line x1="564.100000" y1="35.000000" x2="567.100000" y2="36.000000"  transform="rotate(0.000000,567.100000,36.000000)" style="stroke: black; stroke-width:0.25;"/>
<line x1="564.100000" y1="37.000000" x2="567.100000" y2="36.000000"  transform="rotate(0.000000,567.100000,36.000000)" style="stroke: black; stroke-width:0.25;"/>
<line x1="15.000000" y1="15.000000" x2="15.000000" y2="57.000000"  style="stroke: black; stroke-linecap:round; stroke-width:0.25; stroke-dasharray:3,3;"/>
<line x1="15.000000" y1="57.000000" x2="713.100000" y2="57.000000"  style="stroke: black; stroke-linecap:round; stroke-width:0.25; stroke-dasharray:3,3;"/>
<line x1="713.100000" y1="57.000000" x2="713.100000" y2="15.000000"  style="stroke: black; stroke-linecap:round; stroke-width:0.25; stroke-dasharray:3,3;"/>
<line x1="15.000000" y1="15.000000" x2="20.000000" y2="15.000000"  style="stroke: black; stroke-linecap:round; stroke-width:0.25; stroke-dasharray:3,3;"/>
<line x1="142.550000" y1="15.000000" x2="713.100000" y2="15.000000"  style="stroke: black; stroke-linecap:round; stroke-width:0.25; stroke-dasharray:3,3;"/>
<text x="20.000000" y="17.000000" font-family="Arial" font-size="7">peak_expansio...99999999999f)(12)(1)</text>
<line x1="715.100000" y1="35.000000" x2="718.100000" y2="36.000000"  transform="rotate(0.000000,718.100000,36.000000)" style="stroke: black; stroke-width:0.25;"/>
<line x1="715.100000" y1="37.000000" x2="718.100000" y2="36.000000"  transform="rotate(0.000000,718.100000,36.000000)" style="stroke: black; stroke-width:0.25;"/>
<line x1="10.000000" y1="36.000000" x2="20.000000" y2="36.000000"  style="stroke:black; stroke-linecap:round; stroke-width:0.25;"/>
<line x1="20.000000" y1="36.000000" x2="24.000000" y2="36.000000"  style="stroke:black; stroke-linecap:round; stroke-width:0.25;"/>
<line x1="24.000000" y1="36.000000" x2="28.000000" y2="36.000000"  style="stroke:black; stroke-linecap:round; stroke-width:0.25;"/>
<line x1="28.000000" y1="36.000000" x2="28.000000" y2="36.000000"  style="stroke:black; stroke-linecap:round; stroke-width:0.25;"/>
<line x1="28.000000" y1="36.000000" x2="32.000000" y2="36.000000"  style="stroke:black; stroke-linecap:round; stroke-width:0.25;"/>
<line x1="199.700000" y1="36.000000" x2="203.700000" y2="36.000000"  style="stroke:black; stroke-linecap:round; stroke-width:0.25;"/>
<line x1="203.700000" y1="36.000000" x2="203.700000" y2="36.000000"  style="stroke:black; stroke-linecap:round; stroke-width:0.25;"/>
<line x1="203.700000" y1="36.000000" x2="207.700000" y2="36.000000"  style="stroke:black; stroke-linecap:round; stroke-width:0.25;"/>
<line x1="336.700000" y1="36.000000" x2="340.700000" y2="36.000000"  style="stroke:black; stroke-linecap:round; stroke-width:0.25;"/>
<line x1="340.700000" y1="36.000000" x2="340.700000" y2="36.000000"  style="stroke:black; stroke-linecap:round; stroke-width:0.25;"/>
<line x1="340.700000" y1="36.000000" x2="344.700000" y2="36.000000"  style="stroke:black; stroke-linecap:round; stroke-width:0.25;"/>
<line x1="383.400000" y1="36.000000" x2="387.400000" y2="36.000000"  style="stroke:black; stroke-linecap:round; stroke-width:0.25;"/>
<line x1="387.400000" y1="36.000000" x2="387.400000" y2="36.000000"  style="stroke:black; stroke-linecap:round; stroke-width:0.25;"/>
<line x1="387.400000" y1="36.000000" x2="391.400000" y2="36.000000"  style="stroke:black; stroke-linecap:round; stroke-width:0.25;"/>
<line x1="559.100000" y1="36.000000" x2="563.100000" y2="36.000000"  style="stroke:black; stroke-linecap:round; stroke-width:0.25;"/>
<line x1="563.100000" y1="36.000000" x2="563.100000" y2="36.000000"  style="stroke:black; stroke-linecap:round; stroke-width:0.25;"/>
<line x1="563.100000" y1="36.000000" x2="567.100000" y2="36.000000"  style="stroke:black; stroke-linecap:round; stroke-width:0.25;"/>
<line x1="696.100000" y1="36.000000" x2="700.100000" y2="36.000000"  style="stroke:black; stroke-linecap:round; stroke-width:0.25;"/>
<line x1="700.100000" y1="36.000000" x2="700.100000" y2="36.000000"  style="stroke:black; stroke-linecap:round; stroke-width:0.25;"/>
<line x1="700.100000" y1="36.000000" x2="704.100000" y2="36.000000"  style="stroke:black; stroke-linecap:round; stroke-width:0.25;"/>
<line x1="704.100000" y1="36.000000" x2="708.100000" y2="36.000000"  style="stroke:black; stroke-linecap:round; stroke-width:0.25;"/>
<line x1="708.100000" y1="36.000000" x2="718.100000" y2="36.000000"  style="stroke:black; stroke-linecap:round; stroke-width:0.25;"/>
</svg>
