<?xml version="1.0"?>
<svg xmlns="http://www.w3.org/2000/svg" xmlns:xlink="http://www.w3.org/1999/xlink" viewBox="0 0 551.100000 212.000000" width="275.550000mm" height="106.000000mm" version="1.1">
<a xlink:href="bp2-0x60015018a640.svg">
<rect x="1.000000" y="1.000000" width="550.100000" height="211.000000" rx="0" ry="0" style="stroke:none;fill:#cccccc;"/>
<rect x="0.000000" y="0.000000" width="550.100000" height="211.000000" rx="0" ry="0" style="stroke:none;fill:#ffffff;"/>
</a>
<text x="10.000000" y="7.000000" font-family="Arial" font-size="7"></text>
<polygon fill="#ffffff" stroke="black" stroke-width=".25" points="85.000000,98.500000 94.000000,102.000000 85.000000,105.500000"/>
<circle  fill="#ffffff" stroke="black" stroke-width=".25" cx="95.500000" cy="102.000000" r="1.500000"/>
<rect x="152.000000" y="43.000000" width="245.100000" height="24.000000" rx="0" ry="0" style="stroke:none;fill:#cccccc;"/>
<rect x="151.000000" y="42.000000" width="245.100000" height="24.000000" rx="0" ry="0" style="stroke:none;fill:#477881;"/>
<text x="273.550000" y="56.000000" font-family="Arial" font-size="7" text-anchor="middle" fill="#FFFFFF">checkbox(v:soundsgood/t:expert/h:pre-processing/phase L)</text>
<circle cx="153.000000" cy="44.000000" r="1"/>
<line x1="142.000000" y1="33.000000" x2="142.000000" y2="75.000000"  style="stroke: black; stroke-linecap:round; stroke-width:0.25; stroke-dasharray:3,3;"/>
<line x1="142.000000" y1="75.000000" x2="405.100000" y2="75.000000"  style="stroke: black; stroke-linecap:round; stroke-width:0.25; stroke-dasharray:3,3;"/>
<line x1="405.100000" y1="75.000000" x2="405.100000" y2="33.000000"  style="stroke: black; stroke-linecap:round; stroke-width:0.25; stroke-dasharray:3,3;"/>
<line x1="142.000000" y1="33.000000" x2="147.000000" y2="33.000000"  style="stroke: black; stroke-linecap:round; stroke-width:0.25; stroke-dasharray:3,3;"/>
<line x1="159.900000" y1="33.000000" x2="405.100000" y2="33.000000"  style="stroke: black; stroke-linecap:round; stroke-width:0.25; stroke-dasharray:3,3;"/>
<text x="147.000000" y="35.000000" font-family="Arial" font-size="7">sw</text>
<rect x="423.100000" y="39.000000" width="24.000000" height="24.000000" rx="0" ry="0" style="stroke:none;fill:#cccccc;"/>
<rect x="422.100000" y="38.000000" width="24.000000" height="24.000000" rx="0" ry="0" style="stroke:none;fill:#4B71A1;"/>
<text x="434.100000" y="52.000000" font-family="Arial" font-size="7" text-anchor="middle" fill="#FFFFFF">*</text>
<circle cx="424.100000" cy="40.000000" r="1"/>
<line x1="419.100000" y1="45.000000" x2="422.100000" y2="46.000000"  transform="rotate(0.000000,422.100000,46.000000)" style="stroke: black; stroke-width:0.25;"/>
<line x1="419.100000" y1="47.000000" x2="422.100000" y2="46.000000"  transform="rotate(0.000000,422.100000,46.000000)" style="stroke: black; stroke-width:0.25;"/>
<line x1="419.100000" y1="53.000000" x2="422.100000" y2="54.000000"  transform="rotate(0.000000,422.100000,54.000000)" style="stroke: black; stroke-width:0.25;"/>
<line x1="419.100000" y1="55.000000" x2="422.100000" y2="54.000000"  transform="rotate(0.000000,422.100000,54.000000)" style="stroke: black; stroke-width:0.25;"/>
<rect x="242.550000" y="103.000000" width="24.000000" height="24.000000" rx="0" ry="0" style="stroke:none;fill:#cccccc;"/>
<rect x="241.550000" y="102.000000" width="24.000000" height="24.000000" rx="0" ry="0" style="stroke:none;fill:#f44800;"/>
<text x="253.550000" y="116.000000" font-family="Arial" font-size="7" text-anchor="middle" fill="#FFFFFF">1</text>
<circle cx="243.550000" cy="104.000000" r="1"/>
<line x1="232.550000" y1="93.000000" x2="232.550000" y2="135.000000"  style="stroke: black; stroke-linecap:round; stroke-width:0.25; stroke-dasharray:3,3;"/>
<line x1="232.550000" y1="135.000000" x2="274.550000" y2="135.000000"  style="stroke: black; stroke-linecap:round; stroke-width:0.25; stroke-dasharray:3,3;"/>
<line x1="274.550000" y1="135.000000" x2="274.550000" y2="93.000000"  style="stroke: black; stroke-linecap:round; stroke-width:0.25; stroke-dasharray:3,3;"/>
<line x1="232.550000" y1="93.000000" x2="237.550000" y2="93.000000"  style="stroke: black; stroke-linecap:round; stroke-width:0.25; stroke-dasharray:3,3;"/>
<line x1="266.575000" y1="93.000000" x2="274.550000" y2="93.000000"  style="stroke: black; stroke-linecap:round; stroke-width:0.25; stroke-dasharray:3,3;"/>
<text x="237.550000" y="95.000000" font-family="Arial" font-size="7">pow2(0)</text>
<rect x="132.000000" y="155.000000" width="245.100000" height="24.000000" rx="0" ry="0" style="stroke:none;fill:#cccccc;"/>
<rect x="131.000000" y="154.000000" width="245.100000" height="24.000000" rx="0" ry="0" style="stroke:none;fill:#477881;"/>
<text x="253.550000" y="168.000000" font-family="Arial" font-size="7" text-anchor="middle" fill="#FFFFFF">checkbox(v:soundsgood/t:expert/h:pre-processing/phase L)</text>
<circle cx="133.000000" cy="156.000000" r="1"/>
<line x1="122.000000" y1="145.000000" x2="122.000000" y2="187.000000"  style="stroke: black; stroke-linecap:round; stroke-width:0.25; stroke-dasharray:3,3;"/>
<line x1="122.000000" y1="187.000000" x2="385.100000" y2="187.000000"  style="stroke: black; stroke-linecap:round; stroke-width:0.25; stroke-dasharray:3,3;"/>
<line x1="385.100000" y1="187.000000" x2="385.100000" y2="145.000000"  style="stroke: black; stroke-linecap:round; stroke-width:0.25; stroke-dasharray:3,3;"/>
<line x1="122.000000" y1="145.000000" x2="127.000000" y2="145.000000"  style="stroke: black; stroke-linecap:round; stroke-width:0.25; stroke-dasharray:3,3;"/>
<line x1="139.900000" y1="145.000000" x2="385.100000" y2="145.000000"  style="stroke: black; stroke-linecap:round; stroke-width:0.25; stroke-dasharray:3,3;"/>
<text x="127.000000" y="147.000000" font-family="Arial" font-size="7">sw</text>
<rect x="403.100000" y="129.000000" width="24.000000" height="24.000000" rx="0" ry="0" style="stroke:none;fill:#cccccc;"/>
<rect x="402.100000" y="128.000000" width="24.000000" height="24.000000" rx="0" ry="0" style="stroke:none;fill:#4B71A1;"/>
<text x="414.100000" y="142.000000" font-family="Arial" font-size="7" text-anchor="middle" fill="#FFFFFF">-</text>
<circle cx="404.100000" cy="130.000000" r="1"/>
<line x1="399.100000" y1="135.000000" x2="402.100000" y2="136.000000"  transform="rotate(0.000000,402.100000,136.000000)" style="stroke: black; stroke-width:0.25;"/>
<line x1="399.100000" y1="137.000000" x2="402.100000" y2="136.000000"  transform="rotate(0.000000,402.100000,136.000000)" style="stroke: black; stroke-width:0.25;"/>
<line x1="399.100000" y1="143.000000" x2="402.100000" y2="144.000000"  transform="rotate(0.000000,402.100000,144.000000)" style="stroke: black; stroke-width:0.25;"/>
<line x1="399.100000" y1="145.000000" x2="402.100000" y2="144.000000"  transform="rotate(0.000000,402.100000,144.000000)" style="stroke: black; stroke-width:0.25;"/>
<rect x="443.100000" y="125.000000" width="24.000000" height="24.000000" rx="0" ry="0" style="stroke:none;fill:#cccccc;"/>
<rect x="442.100000" y="124.000000" width="24.000000" height="24.000000" rx="0" ry="0" style="stroke:none;fill:#4B71A1;"/>
<text x="454.100000" y="138.000000" font-family="Arial" font-size="7" text-anchor="middle" fill="#FFFFFF">*</text>
<circle cx="444.100000" cy="126.000000" r="1"/>
<line x1="439.100000" y1="131.000000" x2="442.100000" y2="132.000000"  transform="rotate(0.000000,442.100000,132.000000)" style="stroke: black; stroke-width:0.25;"/>
<line x1="439.100000" y1="133.000000" x2="442.100000" y2="132.000000"  transform="rotate(0.000000,442.100000,132.000000)" style="stroke: black; stroke-width:0.25;"/>
<line x1="439.100000" y1="139.000000" x2="442.100000" y2="140.000000"  transform="rotate(0.000000,442.100000,140.000000)" style="stroke: black; stroke-width:0.25;"/>
<line x1="439.100000" y1="141.000000" x2="442.100000" y2="140.000000"  transform="rotate(0.000000,442.100000,140.000000)" style="stroke: black; stroke-width:0.25;"/>
<line x1="15.000000" y1="15.000000" x2="15.000000" y2="197.000000"  style="stroke: black; stroke-linecap:round; stroke-width:0.25; stroke-dasharray:3,3;"/>
<line x1="15.000000" y1="197.000000" x2="536.100000" y2="197.000000"  style="stroke: black; stroke-linecap:round; stroke-width:0.25; stroke-dasharray:3,3;"/>
<line x1="536.100000" y1="197.000000" x2="536.100000" y2="15.000000"  style="stroke: black; stroke-linecap:round; stroke-width:0.25; stroke-dasharray:3,3;"/>
<line x1="15.000000" y1="15.000000" x2="20.000000" y2="15.000000"  style="stroke: black; stroke-linecap:round; stroke-width:0.25; stroke-dasharray:3,3;"/>
<line x1="71.600000" y1="15.000000" x2="536.100000" y2="15.000000"  style="stroke: black; stroke-linecap:round; stroke-width:0.25; stroke-dasharray:3,3;"/>
<text x="20.000000" y="17.000000" font-family="Arial" font-size="7">phase_invert_L</text>
<line x1="538.100000" y1="105.000000" x2="541.100000" y2="106.000000"  transform="rotate(0.000000,541.100000,106.000000)" style="stroke: black; stroke-width:0.25;"/>
<line x1="538.100000" y1="107.000000" x2="541.100000" y2="106.000000"  transform="rotate(0.000000,541.100000,106.000000)" style="stroke: black; stroke-width:0.25;"/>
<line x1="10.000000" y1="106.000000" x2="20.000000" y2="106.000000"  style="stroke:black; stroke-linecap:round; stroke-width:0.25;"/>
<line x1="20.000000" y1="106.000000" x2="24.000000" y2="106.000000"  style="stroke:black; stroke-linecap:round; stroke-width:0.25;"/>
<line x1="24.000000" y1="106.000000" x2="28.000000" y2="106.000000"  style="stroke:black; stroke-linecap:round; stroke-width:0.25;"/>
<line x1="28.000000" y1="106.000000" x2="28.000000" y2="106.000000"  style="stroke:black; stroke-linecap:round; stroke-width:0.25;"/>
<line x1="28.000000" y1="106.000000" x2="32.000000" y2="106.000000"  style="stroke:black; stroke-linecap:round; stroke-width:0.25;"/>
<line x1="32.000000" y1="106.000000" x2="36.000000" y2="106.000000"  style="stroke:black; stroke-linecap:round; stroke-width:0.25;"/>
<line x1="36.000000" y1="106.000000" x2="81.000000" y2="102.000000"  style="stroke:black; stroke-linecap:round; stroke-width:0.25;"/>
<line x1="36.000000" y1="106.000000" x2="81.000000" y2="110.000000"  style="stroke:black; stroke-linecap:round; stroke-width:0.25;"/>
<line x1="81.000000" y1="102.000000" x2="81.000000" y2="102.000000"  style="stroke:black; stroke-linecap:round; stroke-width:0.25;"/>
<line x1="81.000000" y1="102.000000" x2="85.000000" y2="102.000000"  style="stroke:black; stroke-linecap:round; stroke-width:0.25;"/>
<line x1="81.000000" y1="110.000000" x2="81.000000" y2="110.000000"  style="stroke:black; stroke-linecap:round; stroke-width:0.25;"/>
<line x1="81.000000" y1="110.000000" x2="91.000000" y2="110.000000"  style="stroke:black; stroke-linecap:round; stroke-width:0.25;"/>
<line x1="91.000000" y1="110.000000" x2="101.000000" y2="110.000000"  style="stroke:black; stroke-linecap:round; stroke-width:0.25;"/>
<line x1="97.000000" y1="102.000000" x2="101.000000" y2="102.000000"  style="stroke:black; stroke-linecap:round; stroke-width:0.25;"/>
<line x1="101.000000" y1="24.000000" x2="117.000000" y2="24.000000"  style="stroke:black; stroke-linecap:round; stroke-width:0.25;"/>
<line x1="101.000000" y1="102.000000" x2="101.000000" y2="24.000000"  style="stroke:black; stroke-linecap:round; stroke-width:0.25;"/>
<line x1="101.000000" y1="102.000000" x2="101.000000" y2="102.000000"  style="stroke:black; stroke-linecap:round; stroke-width:0.25;"/>
<line x1="101.000000" y1="110.000000" x2="109.000000" y2="110.000000"  style="stroke:black; stroke-linecap:round; stroke-width:0.25;"/>
<line x1="109.000000" y1="84.000000" x2="117.000000" y2="84.000000"  style="stroke:black; stroke-linecap:round; stroke-width:0.25;"/>
<line x1="109.000000" y1="110.000000" x2="109.000000" y2="84.000000"  style="stroke:black; stroke-linecap:round; stroke-width:0.25;"/>
<line x1="117.000000" y1="24.000000" x2="137.000000" y2="24.000000"  style="stroke:black; stroke-linecap:round; stroke-width:0.25;"/>
<line x1="117.000000" y1="84.000000" x2="273.550000" y2="84.000000"  style="stroke:black; stroke-linecap:round; stroke-width:0.25;"/>
<line x1="137.000000" y1="24.000000" x2="273.550000" y2="24.000000"  style="stroke:black; stroke-linecap:round; stroke-width:0.25;"/>
<line x1="265.550000" y1="114.000000" x2="269.550000" y2="114.000000"  style="stroke:black; stroke-linecap:round; stroke-width:0.25;"/>
<line x1="269.550000" y1="114.000000" x2="279.550000" y2="114.000000"  style="stroke:black; stroke-linecap:round; stroke-width:0.25;"/>
<line x1="273.550000" y1="24.000000" x2="410.100000" y2="24.000000"  style="stroke:black; stroke-linecap:round; stroke-width:0.25;"/>
<line x1="273.550000" y1="84.000000" x2="430.100000" y2="84.000000"  style="stroke:black; stroke-linecap:round; stroke-width:0.25;"/>
<line x1="279.550000" y1="114.000000" x2="390.100000" y2="114.000000"  style="stroke:black; stroke-linecap:round; stroke-width:0.25;"/>
<line x1="376.100000" y1="166.000000" x2="380.100000" y2="166.000000"  style="stroke:black; stroke-linecap:round; stroke-width:0.25;"/>
<line x1="380.100000" y1="166.000000" x2="390.100000" y2="166.000000"  style="stroke:black; stroke-linecap:round; stroke-width:0.25;"/>
<line x1="390.100000" y1="114.000000" x2="398.100000" y2="114.000000"  style="stroke:black; stroke-linecap:round; stroke-width:0.25;"/>
<line x1="390.100000" y1="144.000000" x2="398.100000" y2="144.000000"  style="stroke:black; stroke-linecap:round; stroke-width:0.25;"/>
<line x1="390.100000" y1="166.000000" x2="390.100000" y2="144.000000"  style="stroke:black; stroke-linecap:round; stroke-width:0.25;"/>
<line x1="390.100000" y1="166.000000" x2="390.100000" y2="166.000000"  style="stroke:black; stroke-linecap:round; stroke-width:0.25;"/>
<line x1="396.100000" y1="54.000000" x2="400.100000" y2="54.000000"  style="stroke:black; stroke-linecap:round; stroke-width:0.25;"/>
<line x1="398.100000" y1="114.000000" x2="398.100000" y2="136.000000"  style="stroke:black; stroke-linecap:round; stroke-width:0.25;"/>
<line x1="398.100000" y1="136.000000" x2="398.100000" y2="136.000000"  style="stroke:black; stroke-linecap:round; stroke-width:0.25;"/>
<line x1="398.100000" y1="136.000000" x2="402.100000" y2="136.000000"  style="stroke:black; stroke-linecap:round; stroke-width:0.25;"/>
<line x1="398.100000" y1="144.000000" x2="402.100000" y2="144.000000"  style="stroke:black; stroke-linecap:round; stroke-width:0.25;"/>
<line x1="400.100000" y1="54.000000" x2="410.100000" y2="54.000000"  style="stroke:black; stroke-linecap:round; stroke-width:0.25;"/>
<line x1="410.100000" y1="24.000000" x2="418.100000" y2="24.000000"  style="stroke:black; stroke-linecap:round; stroke-width:0.25;"/>
<line x1="410.100000" y1="54.000000" x2="418.100000" y2="54.000000"  style="stroke:black; stroke-linecap:round; stroke-width:0.25;"/>
<line x1="418.100000" y1="24.000000" x2="418.100000" y2="46.000000"  style="stroke:black; stroke-linecap:round; stroke-width:0.25;"/>
<line x1="418.100000" y1="46.000000" x2="418.100000" y2="46.000000"  style="stroke:black; stroke-linecap:round; stroke-width:0.25;"/>
<line x1="418.100000" y1="46.000000" x2="422.100000" y2="46.000000"  style="stroke:black; stroke-linecap:round; stroke-width:0.25;"/>
<line x1="418.100000" y1="54.000000" x2="422.100000" y2="54.000000"  style="stroke:black; stroke-linecap:round; stroke-width:0.25;"/>
<line x1="426.100000" y1="140.000000" x2="430.100000" y2="140.000000"  style="stroke:black; stroke-linecap:round; stroke-width:0.25;"/>
<line x1="430.100000" y1="84.000000" x2="438.100000" y2="84.000000"  style="stroke:black; stroke-linecap:round; stroke-width:0.25;"/>
<line x1="430.100000" y1="140.000000" x2="438.100000" y2="140.000000"  style="stroke:black; stroke-linecap:round; stroke-width:0.25;"/>
<line x1="438.100000" y1="84.000000" x2="438.100000" y2="132.000000"  style="stroke:black; stroke-linecap:round; stroke-width:0.25;"/>
<line x1="438.100000" y1="132.000000" x2="438.100000" y2="132.000000"  style="stroke:black; stroke-linecap:round; stroke-width:0.25;"/>
<line x1="438.100000" y1="132.000000" x2="442.100000" y2="132.000000"  style="stroke:black; stroke-linecap:round; stroke-width:0.25;"/>
<line x1="438.100000" y1="140.000000" x2="442.100000" y2="140.000000"  style="stroke:black; stroke-linecap:round; stroke-width:0.25;"/>
<line x1="446.100000" y1="50.000000" x2="450.100000" y2="50.000000"  style="stroke:black; stroke-linecap:round; stroke-width:0.25;"/>
<line x1="450.100000" y1="50.000000" x2="470.100000" y2="50.000000"  style="stroke:black; stroke-linecap:round; stroke-width:0.25;"/>
<line x1="466.100000" y1="136.000000" x2="470.100000" y2="136.000000"  style="stroke:black; stroke-linecap:round; stroke-width:0.25;"/>
<line x1="470.100000" y1="50.000000" x2="515.100000" y2="106.000000"  style="stroke:black; stroke-linecap:round; stroke-width:0.25;"/>
<line x1="470.100000" y1="136.000000" x2="515.100000" y2="106.000000"  style="stroke:black; stroke-linecap:round; stroke-width:0.25;"/>
<line x1="515.100000" y1="106.000000" x2="519.100000" y2="106.000000"  style="stroke:black; stroke-linecap:round; stroke-width:0.25;"/>
<line x1="519.100000" y1="106.000000" x2="523.100000" y2="106.000000"  style="stroke:black; stroke-linecap:round; stroke-width:0.25;"/>
<line x1="523.100000" y1="106.000000" x2="523.100000" y2="106.000000"  style="stroke:black; stroke-linecap:round; stroke-width:0.25;"/>
<line x1="523.100000" y1="106.000000" x2="527.100000" y2="106.000000"  style="stroke:black; stroke-linecap:round; stroke-width:0.25;"/>
<line x1="527.100000" y1="106.000000" x2="531.100000" y2="106.000000"  style="stroke:black; stroke-linecap:round; stroke-width:0.25;"/>
<line x1="531.100000" y1="106.000000" x2="541.100000" y2="106.000000"  style="stroke:black; stroke-linecap:round; stroke-width:0.25;"/>
</svg>
