<?xml version="1.0"?>
<svg xmlns="http://www.w3.org/2000/svg" xmlns:xlink="http://www.w3.org/1999/xlink" viewBox="0 0 507.000000 80.000000" width="253.500000mm" height="40.000000mm" version="1.1">
<a xlink:href="sc-0x60013c0efba0.svg">
<rect x="1.000000" y="1.000000" width="506.000000" height="79.000000" rx="0" ry="0" style="stroke:none;fill:#cccccc;"/>
<rect x="0.000000" y="0.000000" width="506.000000" height="79.000000" rx="0" ry="0" style="stroke:none;fill:#ffffff;"/>
</a>
<text x="10.000000" y="7.000000" font-family="Arial" font-size="7"></text>
<rect x="41.000000" y="33.000000" width="361.200000" height="24.000000" rx="0" ry="0" style="stroke:none;fill:#cccccc;"/>
<rect x="40.000000" y="32.000000" width="361.200000" height="24.000000" rx="0" ry="0" style="stroke:none;fill:#477881;"/>
<text x="220.600000" y="46.000000" font-family="Arial" font-size="7" text-anchor="middle" fill="#FFFFFF">vslider(v:soundsgood/t:expert/h:kneecomp/kneecomp makeup, 0.0f, -10.0f, 10.0f, 0.5f)</text>
<circle cx="42.000000" cy="34.000000" r="1"/>
<a xlink:href="smoo-0x6000b00b7180.svg">
<rect x="410.200000" y="33.000000" width="25.800000" height="24.000000" rx="0" ry="0" style="stroke:none;fill:#cccccc;"/>
<rect x="409.200000" y="32.000000" width="25.800000" height="24.000000" rx="0" ry="0" style="stroke:none;fill:#003366;"/>
</a>
<a xlink:href="smoo-0x6000b00b7180.svg">
<text x="422.100000" y="46.000000" font-family="Arial" font-size="7" text-anchor="middle" fill="#FFFFFF">smoo</text>
</a>
<circle cx="411.200000" cy="34.000000" r="1"/>
<line x1="406.200000" y1="43.000000" x2="409.200000" y2="44.000000"  transform="rotate(0.000000,409.200000,44.000000)" style="stroke: black; stroke-width:0.25;"/>
<line x1="406.200000" y1="45.000000" x2="409.200000" y2="44.000000"  transform="rotate(0.000000,409.200000,44.000000)" style="stroke: black; stroke-width:0.25;"/>
<rect x="452.000000" y="29.000000" width="24.000000" height="24.000000" rx="0" ry="0" style="stroke:none;fill:#cccccc;"/>
<rect x="451.000000" y="28.000000" width="24.000000" height="24.000000" rx="0" ry="0" style="stroke:none;fill:#4B71A1;"/>
<text x="463.000000" y="42.000000" font-family="Arial" font-size="7" text-anchor="middle" fill="#FFFFFF">+</text>
<circle cx="453.000000" cy="30.000000" r="1"/>
<line x1="448.000000" y1="35.000000" x2="451.000000" y2="36.000000"  transform="rotate(0.000000,451.000000,36.000000)" style="stroke: black; stroke-width:0.25;"/>
<line x1="448.000000" y1="37.000000" x2="451.000000" y2="36.000000"  transform="rotate(0.000000,451.000000,36.000000)" style="stroke: black; stroke-width:0.25;"/>
<line x1="448.000000" y1="43.000000" x2="451.000000" y2="44.000000"  transform="rotate(0.000000,451.000000,44.000000)" style="stroke: black; stroke-width:0.25;"/>
<line x1="448.000000" y1="45.000000" x2="451.000000" y2="44.000000"  transform="rotate(0.000000,451.000000,44.000000)" style="stroke: black; stroke-width:0.25;"/>
<line x1="15.000000" y1="15.000000" x2="15.000000" y2="65.000000"  style="stroke: black; stroke-linecap:round; stroke-width:0.25; stroke-dasharray:3,3;"/>
<line x1="15.000000" y1="65.000000" x2="492.000000" y2="65.000000"  style="stroke: black; stroke-linecap:round; stroke-width:0.25; stroke-dasharray:3,3;"/>
<line x1="492.000000" y1="65.000000" x2="492.000000" y2="15.000000"  style="stroke: black; stroke-linecap:round; stroke-width:0.25; stroke-dasharray:3,3;"/>
<line x1="15.000000" y1="15.000000" x2="20.000000" y2="15.000000"  style="stroke: black; stroke-linecap:round; stroke-width:0.25; stroke-dasharray:3,3;"/>
<line x1="55.475000" y1="15.000000" x2="492.000000" y2="15.000000"  style="stroke: black; stroke-linecap:round; stroke-width:0.25; stroke-dasharray:3,3;"/>
<text x="20.000000" y="17.000000" font-family="Arial" font-size="7">post_gain</text>
<line x1="494.000000" y1="39.000000" x2="497.000000" y2="40.000000"  transform="rotate(0.000000,497.000000,40.000000)" style="stroke: black; stroke-width:0.25;"/>
<line x1="494.000000" y1="41.000000" x2="497.000000" y2="40.000000"  transform="rotate(0.000000,497.000000,40.000000)" style="stroke: black; stroke-width:0.25;"/>
<line x1="10.000000" y1="40.000000" x2="20.000000" y2="40.000000"  style="stroke:black; stroke-linecap:round; stroke-width:0.25;"/>
<line x1="20.000000" y1="40.000000" x2="24.000000" y2="40.000000"  style="stroke:black; stroke-linecap:round; stroke-width:0.25;"/>
<line x1="24.000000" y1="40.000000" x2="28.000000" y2="40.000000"  style="stroke:black; stroke-linecap:round; stroke-width:0.25;"/>
<line x1="28.000000" y1="24.000000" x2="36.000000" y2="24.000000"  style="stroke:black; stroke-linecap:round; stroke-width:0.25;"/>
<line x1="28.000000" y1="40.000000" x2="28.000000" y2="24.000000"  style="stroke:black; stroke-linecap:round; stroke-width:0.25;"/>
<line x1="28.000000" y1="40.000000" x2="28.000000" y2="40.000000"  style="stroke:black; stroke-linecap:round; stroke-width:0.25;"/>
<line x1="36.000000" y1="24.000000" x2="237.500000" y2="24.000000"  style="stroke:black; stroke-linecap:round; stroke-width:0.25;"/>
<line x1="237.500000" y1="24.000000" x2="439.000000" y2="24.000000"  style="stroke:black; stroke-linecap:round; stroke-width:0.25;"/>
<line x1="401.200000" y1="44.000000" x2="405.200000" y2="44.000000"  style="stroke:black; stroke-linecap:round; stroke-width:0.25;"/>
<line x1="405.200000" y1="44.000000" x2="405.200000" y2="44.000000"  style="stroke:black; stroke-linecap:round; stroke-width:0.25;"/>
<line x1="405.200000" y1="44.000000" x2="409.200000" y2="44.000000"  style="stroke:black; stroke-linecap:round; stroke-width:0.25;"/>
<line x1="435.000000" y1="44.000000" x2="439.000000" y2="44.000000"  style="stroke:black; stroke-linecap:round; stroke-width:0.25;"/>
<line x1="439.000000" y1="24.000000" x2="447.000000" y2="24.000000"  style="stroke:black; stroke-linecap:round; stroke-width:0.25;"/>
<line x1="439.000000" y1="44.000000" x2="447.000000" y2="44.000000"  style="stroke:black; stroke-linecap:round; stroke-width:0.25;"/>
<line x1="447.000000" y1="24.000000" x2="447.000000" y2="36.000000"  style="stroke:black; stroke-linecap:round; stroke-width:0.25;"/>
<line x1="447.000000" y1="36.000000" x2="447.000000" y2="36.000000"  style="stroke:black; stroke-linecap:round; stroke-width:0.25;"/>
<line x1="447.000000" y1="36.000000" x2="451.000000" y2="36.000000"  style="stroke:black; stroke-linecap:round; stroke-width:0.25;"/>
<line x1="447.000000" y1="44.000000" x2="451.000000" y2="44.000000"  style="stroke:black; stroke-linecap:round; stroke-width:0.25;"/>
<line x1="475.000000" y1="40.000000" x2="479.000000" y2="40.000000"  style="stroke:black; stroke-linecap:round; stroke-width:0.25;"/>
<line x1="479.000000" y1="40.000000" x2="479.000000" y2="40.000000"  style="stroke:black; stroke-linecap:round; stroke-width:0.25;"/>
<line x1="479.000000" y1="40.000000" x2="483.000000" y2="40.000000"  style="stroke:black; stroke-linecap:round; stroke-width:0.25;"/>
<line x1="483.000000" y1="40.000000" x2="487.000000" y2="40.000000"  style="stroke:black; stroke-linecap:round; stroke-width:0.25;"/>
<line x1="487.000000" y1="40.000000" x2="497.000000" y2="40.000000"  style="stroke:black; stroke-linecap:round; stroke-width:0.25;"/>
</svg>
