<?xml version="1.0"?>
<svg xmlns="http://www.w3.org/2000/svg" xmlns:xlink="http://www.w3.org/1999/xlink" viewBox="0 0 338.000000 72.000000" width="169.000000mm" height="36.000000mm" version="1.1">
<rect x="1.000000" y="1.000000" width="337.000000" height="71.000000" rx="0" ry="0" style="stroke:none;fill:#cccccc;"/>
<rect x="0.000000" y="0.000000" width="337.000000" height="71.000000" rx="0" ry="0" style="stroke:none;fill:#ffffff;"/>
<text x="10.000000" y="7.000000" font-family="Arial" font-size="7"></text>
<a xlink:href="bp2-0x60015018a640.svg">
<rect x="33.000000" y="25.000000" width="129.000000" height="24.000000" rx="0" ry="0" style="stroke:none;fill:#cccccc;"/>
<rect x="32.000000" y="24.000000" width="129.000000" height="24.000000" rx="0" ry="0" style="stroke:none;fill:#003366;"/>
</a>
<a xlink:href="bp2-0x60015018a640.svg">
<text x="96.500000" y="38.000000" font-family="Arial" font-size="7" text-anchor="middle" fill="#FFFFFF">bp2(checkbox(...(_,_))~(_,_))</text>
</a>
<circle cx="34.000000" cy="26.000000" r="1"/>
<line x1="29.000000" y1="31.000000" x2="32.000000" y2="32.000000"  transform="rotate(0.000000,32.000000,32.000000)" style="stroke: black; stroke-width:0.25;"/>
<line x1="29.000000" y1="33.000000" x2="32.000000" y2="32.000000"  transform="rotate(0.000000,32.000000,32.000000)" style="stroke: black; stroke-width:0.25;"/>
<line x1="29.000000" y1="39.000000" x2="32.000000" y2="40.000000"  transform="rotate(0.000000,32.000000,40.000000)" style="stroke: black; stroke-width:0.25;"/>
<line x1="29.000000" y1="41.000000" x2="32.000000" y2="40.000000"  transform="rotate(0.000000,32.000000,40.000000)" style="stroke: black; stroke-width:0.25;"/>
<a xlink:href="lufs-0x60015018c5a0.svg">
<rect x="170.000000" y="25.000000" width="64.500000" height="24.000000" rx="0" ry="0" style="stroke:none;fill:#cccccc;"/>
<rect x="169.000000" y="24.000000" width="64.500000" height="24.000000" rx="0" ry="0" style="stroke:none;fill:#003366;"/>
</a>
<a xlink:href="lufs-0x60015018c5a0.svg">
<text x="201.250000" y="38.000000" font-family="Arial" font-size="7" text-anchor="middle" fill="#FFFFFF">lufs_meter_out</text>
</a>
<circle cx="171.000000" cy="26.000000" r="1"/>
<line x1="166.000000" y1="31.000000" x2="169.000000" y2="32.000000"  transform="rotate(0.000000,169.000000,32.000000)" style="stroke: black; stroke-width:0.25;"/>
<line x1="166.000000" y1="33.000000" x2="169.000000" y2="32.000000"  transform="rotate(0.000000,169.000000,32.000000)" style="stroke: black; stroke-width:0.25;"/>
<line x1="166.000000" y1="39.000000" x2="169.000000" y2="40.000000"  transform="rotate(0.000000,169.000000,40.000000)" style="stroke: black; stroke-width:0.25;"/>
<line x1="166.000000" y1="41.000000" x2="169.000000" y2="40.000000"  transform="rotate(0.000000,169.000000,40.000000)" style="stroke: black; stroke-width:0.25;"/>
<a xlink:href="peakmeter-0x60015013bb10.svg">
<rect x="242.500000" y="25.000000" width="64.500000" height="24.000000" rx="0" ry="0" style="stroke:none;fill:#cccccc;"/>
<rect x="241.500000" y="24.000000" width="64.500000" height="24.000000" rx="0" ry="0" style="stroke:none;fill:#003366;"/>
</a>
<a xlink:href="peakmeter-0x60015013bb10.svg">
<text x="273.750000" y="38.000000" font-family="Arial" font-size="7" text-anchor="middle" fill="#FFFFFF">peakmeter_out</text>
</a>
<circle cx="243.500000" cy="26.000000" r="1"/>
<line x1="238.500000" y1="31.000000" x2="241.500000" y2="32.000000"  transform="rotate(0.000000,241.500000,32.000000)" style="stroke: black; stroke-width:0.25;"/>
<line x1="238.500000" y1="33.000000" x2="241.500000" y2="32.000000"  transform="rotate(0.000000,241.500000,32.000000)" style="stroke: black; stroke-width:0.25;"/>
<line x1="238.500000" y1="39.000000" x2="241.500000" y2="40.000000"  transform="rotate(0.000000,241.500000,40.000000)" style="stroke: black; stroke-width:0.25;"/>
<line x1="238.500000" y1="41.000000" x2="241.500000" y2="40.000000"  transform="rotate(0.000000,241.500000,40.000000)" style="stroke: black; stroke-width:0.25;"/>
<line x1="15.000000" y1="15.000000" x2="15.000000" y2="57.000000"  style="stroke: black; stroke-linecap:round; stroke-width:0.25; stroke-dasharray:3,3;"/>
<line x1="15.000000" y1="57.000000" x2="323.000000" y2="57.000000"  style="stroke: black; stroke-linecap:round; stroke-width:0.25; stroke-dasharray:3,3;"/>
<line x1="323.000000" y1="57.000000" x2="323.000000" y2="15.000000"  style="stroke: black; stroke-linecap:round; stroke-width:0.25; stroke-dasharray:3,3;"/>
<line x1="15.000000" y1="15.000000" x2="20.000000" y2="15.000000"  style="stroke: black; stroke-linecap:round; stroke-width:0.25; stroke-dasharray:3,3;"/>
<line x1="49.025000" y1="15.000000" x2="323.000000" y2="15.000000"  style="stroke: black; stroke-linecap:round; stroke-width:0.25; stroke-dasharray:3,3;"/>
<text x="20.000000" y="17.000000" font-family="Arial" font-size="7">process</text>
<line x1="325.000000" y1="31.000000" x2="328.000000" y2="32.000000"  transform="rotate(0.000000,328.000000,32.000000)" style="stroke: black; stroke-width:0.25;"/>
<line x1="325.000000" y1="33.000000" x2="328.000000" y2="32.000000"  transform="rotate(0.000000,328.000000,32.000000)" style="stroke: black; stroke-width:0.25;"/>
<line x1="325.000000" y1="39.000000" x2="328.000000" y2="40.000000"  transform="rotate(0.000000,328.000000,40.000000)" style="stroke: black; stroke-width:0.25;"/>
<line x1="325.000000" y1="41.000000" x2="328.000000" y2="40.000000"  transform="rotate(0.000000,328.000000,40.000000)" style="stroke: black; stroke-width:0.25;"/>
<line x1="10.000000" y1="32.000000" x2="20.000000" y2="32.000000"  style="stroke:black; stroke-linecap:round; stroke-width:0.25;"/>
<line x1="10.000000" y1="40.000000" x2="20.000000" y2="40.000000"  style="stroke:black; stroke-linecap:round; stroke-width:0.25;"/>
<line x1="20.000000" y1="32.000000" x2="24.000000" y2="32.000000"  style="stroke:black; stroke-linecap:round; stroke-width:0.25;"/>
<line x1="20.000000" y1="40.000000" x2="24.000000" y2="40.000000"  style="stroke:black; stroke-linecap:round; stroke-width:0.25;"/>
<line x1="24.000000" y1="32.000000" x2="28.000000" y2="32.000000"  style="stroke:black; stroke-linecap:round; stroke-width:0.25;"/>
<line x1="24.000000" y1="40.000000" x2="28.000000" y2="40.000000"  style="stroke:black; stroke-linecap:round; stroke-width:0.25;"/>
<line x1="28.000000" y1="32.000000" x2="28.000000" y2="32.000000"  style="stroke:black; stroke-linecap:round; stroke-width:0.25;"/>
<line x1="28.000000" y1="32.000000" x2="32.000000" y2="32.000000"  style="stroke:black; stroke-linecap:round; stroke-width:0.25;"/>
<line x1="28.000000" y1="40.000000" x2="28.000000" y2="40.000000"  style="stroke:black; stroke-linecap:round; stroke-width:0.25;"/>
<line x1="28.000000" y1="40.000000" x2="32.000000" y2="40.000000"  style="stroke:black; stroke-linecap:round; stroke-width:0.25;"/>
<line x1="161.000000" y1="32.000000" x2="165.000000" y2="32.000000"  style="stroke:black; stroke-linecap:round; stroke-width:0.25;"/>
<line x1="161.000000" y1="40.000000" x2="165.000000" y2="40.000000"  style="stroke:black; stroke-linecap:round; stroke-width:0.25;"/>
<line x1="165.000000" y1="32.000000" x2="165.000000" y2="32.000000"  style="stroke:black; stroke-linecap:round; stroke-width:0.25;"/>
<line x1="165.000000" y1="32.000000" x2="169.000000" y2="32.000000"  style="stroke:black; stroke-linecap:round; stroke-width:0.25;"/>
<line x1="165.000000" y1="40.000000" x2="165.000000" y2="40.000000"  style="stroke:black; stroke-linecap:round; stroke-width:0.25;"/>
<line x1="165.000000" y1="40.000000" x2="169.000000" y2="40.000000"  style="stroke:black; stroke-linecap:round; stroke-width:0.25;"/>
<line x1="233.500000" y1="32.000000" x2="237.500000" y2="32.000000"  style="stroke:black; stroke-linecap:round; stroke-width:0.25;"/>
<line x1="233.500000" y1="40.000000" x2="237.500000" y2="40.000000"  style="stroke:black; stroke-linecap:round; stroke-width:0.25;"/>
<line x1="237.500000" y1="32.000000" x2="237.500000" y2="32.000000"  style="stroke:black; stroke-linecap:round; stroke-width:0.25;"/>
<line x1="237.500000" y1="32.000000" x2="241.500000" y2="32.000000"  style="stroke:black; stroke-linecap:round; stroke-width:0.25;"/>
<line x1="237.500000" y1="40.000000" x2="237.500000" y2="40.000000"  style="stroke:black; stroke-linecap:round; stroke-width:0.25;"/>
<line x1="237.500000" y1="40.000000" x2="241.500000" y2="40.000000"  style="stroke:black; stroke-linecap:round; stroke-width:0.25;"/>
<line x1="306.000000" y1="32.000000" x2="310.000000" y2="32.000000"  style="stroke:black; stroke-linecap:round; stroke-width:0.25;"/>
<line x1="306.000000" y1="40.000000" x2="310.000000" y2="40.000000"  style="stroke:black; stroke-linecap:round; stroke-width:0.25;"/>
<line x1="310.000000" y1="32.000000" x2="310.000000" y2="32.000000"  style="stroke:black; stroke-linecap:round; stroke-width:0.25;"/>
<line x1="310.000000" y1="32.000000" x2="314.000000" y2="32.000000"  style="stroke:black; stroke-linecap:round; stroke-width:0.25;"/>
<line x1="310.000000" y1="40.000000" x2="310.000000" y2="40.000000"  style="stroke:black; stroke-linecap:round; stroke-width:0.25;"/>
<line x1="310.000000" y1="40.000000" x2="314.000000" y2="40.000000"  style="stroke:black; stroke-linecap:round; stroke-width:0.25;"/>
<line x1="314.000000" y1="32.000000" x2="318.000000" y2="32.000000"  style="stroke:black; stroke-linecap:round; stroke-width:0.25;"/>
<line x1="314.000000" y1="40.000000" x2="318.000000" y2="40.000000"  style="stroke:black; stroke-linecap:round; stroke-width:0.25;"/>
<line x1="318.000000" y1="32.000000" x2="328.000000" y2="32.000000"  style="stroke:black; stroke-linecap:round; stroke-width:0.25;"/>
<line x1="318.000000" y1="40.000000" x2="328.000000" y2="40.000000"  style="stroke:black; stroke-linecap:round; stroke-width:0.25;"/>
</svg>
