<?xml version="1.0"?>
<svg xmlns="http://www.w3.org/2000/svg" xmlns:xlink="http://www.w3.org/1999/xlink" viewBox="0 0 225.000000 104.000000" width="112.500000mm" height="52.000000mm" version="1.1">
<a xlink:href="extendedrawgate-0x6000c4332eb0.svg">
<rect x="1.000000" y="1.000000" width="224.000000" height="103.000000" rx="0" ry="0" style="stroke:none;fill:#cccccc;"/>
<rect x="0.000000" y="0.000000" width="224.000000" height="103.000000" rx="0" ry="0" style="stroke:none;fill:#ffffff;"/>
</a>
<text x="10.000000" y="7.000000" font-family="Arial" font-size="7"></text>
<rect x="54.150000" y="25.000000" width="24.000000" height="24.000000" rx="0" ry="0" style="stroke:none;fill:#cccccc;"/>
<rect x="53.150000" y="24.000000" width="24.000000" height="24.000000" rx="0" ry="0" style="stroke:none;fill:#47945E;"/>
<text x="65.150000" y="38.000000" font-family="Arial" font-size="7" text-anchor="middle" fill="#FFFFFF">x</text>
<circle cx="55.150000" cy="26.000000" r="1"/>
<a xlink:href="inlevel-0x6000c433b690.svg">
<rect x="86.150000" y="25.000000" width="38.700000" height="24.000000" rx="0" ry="0" style="stroke:none;fill:#cccccc;"/>
<rect x="85.150000" y="24.000000" width="38.700000" height="24.000000" rx="0" ry="0" style="stroke:none;fill:#003366;"/>
</a>
<a xlink:href="inlevel-0x6000c433b690.svg">
<text x="104.500000" y="38.000000" font-family="Arial" font-size="7" text-anchor="middle" fill="#FFFFFF">inlevel</text>
</a>
<circle cx="87.150000" cy="26.000000" r="1"/>
<line x1="82.150000" y1="35.000000" x2="85.150000" y2="36.000000"  transform="rotate(0.000000,85.150000,36.000000)" style="stroke: black; stroke-width:0.25;"/>
<line x1="82.150000" y1="37.000000" x2="85.150000" y2="36.000000"  transform="rotate(0.000000,85.150000,36.000000)" style="stroke: black; stroke-width:0.25;"/>
<a xlink:href="db2linear-0x6000380a67f0.svg">
<rect x="25.000000" y="57.000000" width="129.000000" height="24.000000" rx="0" ry="0" style="stroke:none;fill:#cccccc;"/>
<rect x="24.000000" y="56.000000" width="129.000000" height="24.000000" rx="0" ry="0" style="stroke:none;fill:#003366;"/>
</a>
<a xlink:href="db2linear-0x6000380a67f0.svg">
<text x="88.500000" y="70.000000" font-family="Arial" font-size="7" text-anchor="middle" fill="#FFFFFF">db2linear(vsl... 0.0f, 1.0f))</text>
</a>
<circle cx="26.000000" cy="58.000000" r="1"/>
<rect x="170.000000" y="41.000000" width="24.000000" height="24.000000" rx="0" ry="0" style="stroke:none;fill:#cccccc;"/>
<rect x="169.000000" y="40.000000" width="24.000000" height="24.000000" rx="0" ry="0" style="stroke:none;fill:#4B71A1;"/>
<text x="181.000000" y="54.000000" font-family="Arial" font-size="7" text-anchor="middle" fill="#FFFFFF">&gt;</text>
<circle cx="171.000000" cy="42.000000" r="1"/>
<line x1="166.000000" y1="47.000000" x2="169.000000" y2="48.000000"  transform="rotate(0.000000,169.000000,48.000000)" style="stroke: black; stroke-width:0.25;"/>
<line x1="166.000000" y1="49.000000" x2="169.000000" y2="48.000000"  transform="rotate(0.000000,169.000000,48.000000)" style="stroke: black; stroke-width:0.25;"/>
<line x1="166.000000" y1="55.000000" x2="169.000000" y2="56.000000"  transform="rotate(0.000000,169.000000,56.000000)" style="stroke: black; stroke-width:0.25;"/>
<line x1="166.000000" y1="57.000000" x2="169.000000" y2="56.000000"  transform="rotate(0.000000,169.000000,56.000000)" style="stroke: black; stroke-width:0.25;"/>
<line x1="15.000000" y1="15.000000" x2="15.000000" y2="89.000000"  style="stroke: black; stroke-linecap:round; stroke-width:0.25; stroke-dasharray:3,3;"/>
<line x1="15.000000" y1="89.000000" x2="210.000000" y2="89.000000"  style="stroke: black; stroke-linecap:round; stroke-width:0.25; stroke-dasharray:3,3;"/>
<line x1="210.000000" y1="89.000000" x2="210.000000" y2="15.000000"  style="stroke: black; stroke-linecap:round; stroke-width:0.25; stroke-dasharray:3,3;"/>
<line x1="15.000000" y1="15.000000" x2="20.000000" y2="15.000000"  style="stroke: black; stroke-linecap:round; stroke-width:0.25; stroke-dasharray:3,3;"/>
<line x1="81.275000" y1="15.000000" x2="210.000000" y2="15.000000"  style="stroke: black; stroke-linecap:round; stroke-width:0.25; stroke-dasharray:3,3;"/>
<text x="20.000000" y="17.000000" font-family="Arial" font-size="7">rawgatesig(x1122)</text>
<line x1="212.000000" y1="51.000000" x2="215.000000" y2="52.000000"  transform="rotate(0.000000,215.000000,52.000000)" style="stroke: black; stroke-width:0.25;"/>
<line x1="212.000000" y1="53.000000" x2="215.000000" y2="52.000000"  transform="rotate(0.000000,215.000000,52.000000)" style="stroke: black; stroke-width:0.25;"/>
<line x1="77.150000" y1="36.000000" x2="81.150000" y2="36.000000"  style="stroke:black; stroke-linecap:round; stroke-width:0.25;"/>
<line x1="81.150000" y1="36.000000" x2="81.150000" y2="36.000000"  style="stroke:black; stroke-linecap:round; stroke-width:0.25;"/>
<line x1="81.150000" y1="36.000000" x2="85.150000" y2="36.000000"  style="stroke:black; stroke-linecap:round; stroke-width:0.25;"/>
<line x1="123.850000" y1="36.000000" x2="127.850000" y2="36.000000"  style="stroke:black; stroke-linecap:round; stroke-width:0.25;"/>
<line x1="127.850000" y1="36.000000" x2="157.000000" y2="36.000000"  style="stroke:black; stroke-linecap:round; stroke-width:0.25;"/>
<line x1="153.000000" y1="68.000000" x2="157.000000" y2="68.000000"  style="stroke:black; stroke-linecap:round; stroke-width:0.25;"/>
<line x1="157.000000" y1="36.000000" x2="165.000000" y2="36.000000"  style="stroke:black; stroke-linecap:round; stroke-width:0.25;"/>
<line x1="157.000000" y1="56.000000" x2="165.000000" y2="56.000000"  style="stroke:black; stroke-linecap:round; stroke-width:0.25;"/>
<line x1="157.000000" y1="68.000000" x2="157.000000" y2="56.000000"  style="stroke:black; stroke-linecap:round; stroke-width:0.25;"/>
<line x1="157.000000" y1="68.000000" x2="157.000000" y2="68.000000"  style="stroke:black; stroke-linecap:round; stroke-width:0.25;"/>
<line x1="165.000000" y1="36.000000" x2="165.000000" y2="48.000000"  style="stroke:black; stroke-linecap:round; stroke-width:0.25;"/>
<line x1="165.000000" y1="48.000000" x2="165.000000" y2="48.000000"  style="stroke:black; stroke-linecap:round; stroke-width:0.25;"/>
<line x1="165.000000" y1="48.000000" x2="169.000000" y2="48.000000"  style="stroke:black; stroke-linecap:round; stroke-width:0.25;"/>
<line x1="165.000000" y1="56.000000" x2="169.000000" y2="56.000000"  style="stroke:black; stroke-linecap:round; stroke-width:0.25;"/>
<line x1="193.000000" y1="52.000000" x2="197.000000" y2="52.000000"  style="stroke:black; stroke-linecap:round; stroke-width:0.25;"/>
<line x1="197.000000" y1="52.000000" x2="197.000000" y2="52.000000"  style="stroke:black; stroke-linecap:round; stroke-width:0.25;"/>
<line x1="197.000000" y1="52.000000" x2="201.000000" y2="52.000000"  style="stroke:black; stroke-linecap:round; stroke-width:0.25;"/>
<line x1="201.000000" y1="52.000000" x2="205.000000" y2="52.000000"  style="stroke:black; stroke-linecap:round; stroke-width:0.25;"/>
<line x1="205.000000" y1="52.000000" x2="215.000000" y2="52.000000"  style="stroke:black; stroke-linecap:round; stroke-width:0.25;"/>
</svg>
