<?xml version="1.0"?>
<svg xmlns="http://www.w3.org/2000/svg" xmlns:xlink="http://www.w3.org/1999/xlink" viewBox="0 0 470.100000 104.000000" width="235.050000mm" height="52.000000mm" version="1.1">
<a xlink:href="tauCenterClipped-0x60002c036f40.svg">
<rect x="1.000000" y="1.000000" width="469.100000" height="103.000000" rx="0" ry="0" style="stroke:none;fill:#cccccc;"/>
<rect x="0.000000" y="0.000000" width="469.100000" height="103.000000" rx="0" ry="0" style="stroke:none;fill:#ffffff;"/>
</a>
<text x="10.000000" y="7.000000" font-family="Arial" font-size="7"></text>
<rect x="25.000000" y="25.000000" width="374.100000" height="24.000000" rx="0" ry="0" style="stroke:none;fill:#cccccc;"/>
<rect x="24.000000" y="24.000000" width="374.100000" height="24.000000" rx="0" ry="0" style="stroke:none;fill:#477881;"/>
<text x="211.050000" y="38.000000" font-family="Arial" font-size="7" text-anchor="middle" fill="#FFFFFF">vslider(v:soundsgood/t:expert/h:brickwall/brickwall release, 75.0f, 5.0f, 100.0f, 1.0f)</text>
<circle cx="26.000000" cy="26.000000" r="1"/>
<rect x="199.150000" y="57.000000" width="25.800000" height="24.000000" rx="0" ry="0" style="stroke:none;fill:#cccccc;"/>
<rect x="198.150000" y="56.000000" width="25.800000" height="24.000000" rx="0" ry="0" style="stroke:none;fill:#f44800;"/>
<text x="211.050000" y="70.000000" font-family="Arial" font-size="7" text-anchor="middle" fill="#FFFFFF">0.001</text>
<circle cx="200.150000" cy="58.000000" r="1"/>
<rect x="415.100000" y="41.000000" width="24.000000" height="24.000000" rx="0" ry="0" style="stroke:none;fill:#cccccc;"/>
<rect x="414.100000" y="40.000000" width="24.000000" height="24.000000" rx="0" ry="0" style="stroke:none;fill:#4B71A1;"/>
<text x="426.100000" y="54.000000" font-family="Arial" font-size="7" text-anchor="middle" fill="#FFFFFF">*</text>
<circle cx="416.100000" cy="42.000000" r="1"/>
<line x1="411.100000" y1="47.000000" x2="414.100000" y2="48.000000"  transform="rotate(0.000000,414.100000,48.000000)" style="stroke: black; stroke-width:0.25;"/>
<line x1="411.100000" y1="49.000000" x2="414.100000" y2="48.000000"  transform="rotate(0.000000,414.100000,48.000000)" style="stroke: black; stroke-width:0.25;"/>
<line x1="411.100000" y1="55.000000" x2="414.100000" y2="56.000000"  transform="rotate(0.000000,414.100000,56.000000)" style="stroke: black; stroke-width:0.25;"/>
<line x1="411.100000" y1="57.000000" x2="414.100000" y2="56.000000"  transform="rotate(0.000000,414.100000,56.000000)" style="stroke: black; stroke-width:0.25;"/>
<line x1="15.000000" y1="15.000000" x2="15.000000" y2="89.000000"  style="stroke: black; stroke-linecap:round; stroke-width:0.25; stroke-dasharray:3,3;"/>
<line x1="15.000000" y1="89.000000" x2="455.100000" y2="89.000000"  style="stroke: black; stroke-linecap:round; stroke-width:0.25; stroke-dasharray:3,3;"/>
<line x1="455.100000" y1="89.000000" x2="455.100000" y2="15.000000"  style="stroke: black; stroke-linecap:round; stroke-width:0.25; stroke-dasharray:3,3;"/>
<line x1="15.000000" y1="15.000000" x2="20.000000" y2="15.000000"  style="stroke: black; stroke-linecap:round; stroke-width:0.25; stroke-dasharray:3,3;"/>
<line x1="36.125000" y1="15.000000" x2="455.100000" y2="15.000000"  style="stroke: black; stroke-linecap:round; stroke-width:0.25; stroke-dasharray:3,3;"/>
<text x="20.000000" y="17.000000" font-family="Arial" font-size="7">rel</text>
<line x1="457.100000" y1="51.000000" x2="460.100000" y2="52.000000"  transform="rotate(0.000000,460.100000,52.000000)" style="stroke: black; stroke-width:0.25;"/>
<line x1="457.100000" y1="53.000000" x2="460.100000" y2="52.000000"  transform="rotate(0.000000,460.100000,52.000000)" style="stroke: black; stroke-width:0.25;"/>
<line x1="223.950000" y1="68.000000" x2="227.950000" y2="68.000000"  style="stroke:black; stroke-linecap:round; stroke-width:0.25;"/>
<line x1="227.950000" y1="68.000000" x2="402.100000" y2="68.000000"  style="stroke:black; stroke-linecap:round; stroke-width:0.25;"/>
<line x1="398.100000" y1="36.000000" x2="402.100000" y2="36.000000"  style="stroke:black; stroke-linecap:round; stroke-width:0.25;"/>
<line x1="402.100000" y1="36.000000" x2="410.100000" y2="36.000000"  style="stroke:black; stroke-linecap:round; stroke-width:0.25;"/>
<line x1="402.100000" y1="56.000000" x2="410.100000" y2="56.000000"  style="stroke:black; stroke-linecap:round; stroke-width:0.25;"/>
<line x1="402.100000" y1="68.000000" x2="402.100000" y2="56.000000"  style="stroke:black; stroke-linecap:round; stroke-width:0.25;"/>
<line x1="402.100000" y1="68.000000" x2="402.100000" y2="68.000000"  style="stroke:black; stroke-linecap:round; stroke-width:0.25;"/>
<line x1="410.100000" y1="36.000000" x2="410.100000" y2="48.000000"  style="stroke:black; stroke-linecap:round; stroke-width:0.25;"/>
<line x1="410.100000" y1="48.000000" x2="410.100000" y2="48.000000"  style="stroke:black; stroke-linecap:round; stroke-width:0.25;"/>
<line x1="410.100000" y1="48.000000" x2="414.100000" y2="48.000000"  style="stroke:black; stroke-linecap:round; stroke-width:0.25;"/>
<line x1="410.100000" y1="56.000000" x2="414.100000" y2="56.000000"  style="stroke:black; stroke-linecap:round; stroke-width:0.25;"/>
<line x1="438.100000" y1="52.000000" x2="442.100000" y2="52.000000"  style="stroke:black; stroke-linecap:round; stroke-width:0.25;"/>
<line x1="442.100000" y1="52.000000" x2="442.100000" y2="52.000000"  style="stroke:black; stroke-linecap:round; stroke-width:0.25;"/>
<line x1="442.100000" y1="52.000000" x2="446.100000" y2="52.000000"  style="stroke:black; stroke-linecap:round; stroke-width:0.25;"/>
<line x1="446.100000" y1="52.000000" x2="450.100000" y2="52.000000"  style="stroke:black; stroke-linecap:round; stroke-width:0.25;"/>
<line x1="450.100000" y1="52.000000" x2="460.100000" y2="52.000000"  style="stroke:black; stroke-linecap:round; stroke-width:0.25;"/>
</svg>
