<?xml version="1.0"?>
<svg xmlns="http://www.w3.org/2000/svg" xmlns:xlink="http://www.w3.org/1999/xlink" viewBox="0 0 1432.000000 128.000000" width="716.000000mm" height="64.000000mm" version="1.1">
<a xlink:href="apply-0x60014c3eca20.svg">
<rect x="1.000000" y="1.000000" width="1431.000000" height="127.000000" rx="0" ry="0" style="stroke:none;fill:#cccccc;"/>
<rect x="0.000000" y="0.000000" width="1431.000000" height="127.000000" rx="0" ry="0" style="stroke:none;fill:#ffffff;"/>
</a>
<text x="10.000000" y="7.000000" font-family="Arial" font-size="7"></text>
<a xlink:href="ls3-0x60014419c990.svg">
<rect x="89.000000" y="81.000000" width="129.000000" height="24.000000" rx="0" ry="0" style="stroke:none;fill:#cccccc;"/>
<rect x="88.000000" y="80.000000" width="129.000000" height="24.000000" rx="0" ry="0" style="stroke:none;fill:#003366;"/>
</a>
<a xlink:href="ls3-0x60014419c990.svg">
<text x="152.500000" y="94.000000" font-family="Arial" font-size="7" text-anchor="middle" fill="#FFFFFF">ls3(((((vslid..._ : max) : *)</text>
</a>
<circle cx="90.000000" cy="82.000000" r="1"/>
<line x1="85.000000" y1="87.000000" x2="88.000000" y2="88.000000"  transform="rotate(0.000000,88.000000,88.000000)" style="stroke: black; stroke-width:0.25;"/>
<line x1="85.000000" y1="89.000000" x2="88.000000" y2="88.000000"  transform="rotate(0.000000,88.000000,88.000000)" style="stroke: black; stroke-width:0.25;"/>
<line x1="85.000000" y1="95.000000" x2="88.000000" y2="96.000000"  transform="rotate(0.000000,88.000000,96.000000)" style="stroke: black; stroke-width:0.25;"/>
<line x1="85.000000" y1="97.000000" x2="88.000000" y2="96.000000"  transform="rotate(0.000000,88.000000,96.000000)" style="stroke: black; stroke-width:0.25;"/>
<a xlink:href="bs3-0x600144007cc0.svg">
<rect x="282.000000" y="77.000000" width="129.000000" height="24.000000" rx="0" ry="0" style="stroke:none;fill:#cccccc;"/>
<rect x="281.000000" y="76.000000" width="129.000000" height="24.000000" rx="0" ry="0" style="stroke:none;fill:#003366;"/>
</a>
<a xlink:href="bs3-0x600144007cc0.svg">
<text x="345.500000" y="90.000000" font-family="Arial" font-size="7" text-anchor="middle" fill="#FFFFFF">bs3(((((vslid..._ : max) : *)</text>
</a>
<circle cx="283.000000" cy="78.000000" r="1"/>
<line x1="278.000000" y1="83.000000" x2="281.000000" y2="84.000000"  transform="rotate(0.000000,281.000000,84.000000)" style="stroke: black; stroke-width:0.25;"/>
<line x1="278.000000" y1="85.000000" x2="281.000000" y2="84.000000"  transform="rotate(0.000000,281.000000,84.000000)" style="stroke: black; stroke-width:0.25;"/>
<line x1="278.000000" y1="91.000000" x2="281.000000" y2="92.000000"  transform="rotate(0.000000,281.000000,92.000000)" style="stroke: black; stroke-width:0.25;"/>
<line x1="278.000000" y1="93.000000" x2="281.000000" y2="92.000000"  transform="rotate(0.000000,281.000000,92.000000)" style="stroke: black; stroke-width:0.25;"/>
<a xlink:href="bs3-0x6001440e37b0.svg">
<rect x="467.000000" y="73.000000" width="129.000000" height="24.000000" rx="0" ry="0" style="stroke:none;fill:#cccccc;"/>
<rect x="466.000000" y="72.000000" width="129.000000" height="24.000000" rx="0" ry="0" style="stroke:none;fill:#003366;"/>
</a>
<a xlink:href="bs3-0x6001440e37b0.svg">
<text x="530.500000" y="86.000000" font-family="Arial" font-size="7" text-anchor="middle" fill="#FFFFFF">bs3(((((vslid..._ : max) : *)</text>
</a>
<circle cx="468.000000" cy="74.000000" r="1"/>
<line x1="463.000000" y1="79.000000" x2="466.000000" y2="80.000000"  transform="rotate(0.000000,466.000000,80.000000)" style="stroke: black; stroke-width:0.25;"/>
<line x1="463.000000" y1="81.000000" x2="466.000000" y2="80.000000"  transform="rotate(0.000000,466.000000,80.000000)" style="stroke: black; stroke-width:0.25;"/>
<line x1="463.000000" y1="87.000000" x2="466.000000" y2="88.000000"  transform="rotate(0.000000,466.000000,88.000000)" style="stroke: black; stroke-width:0.25;"/>
<line x1="463.000000" y1="89.000000" x2="466.000000" y2="88.000000"  transform="rotate(0.000000,466.000000,88.000000)" style="stroke: black; stroke-width:0.25;"/>
<a xlink:href="bs3-0x600144340bd0.svg">
<rect x="644.000000" y="69.000000" width="129.000000" height="24.000000" rx="0" ry="0" style="stroke:none;fill:#cccccc;"/>
<rect x="643.000000" y="68.000000" width="129.000000" height="24.000000" rx="0" ry="0" style="stroke:none;fill:#003366;"/>
</a>
<a xlink:href="bs3-0x600144340bd0.svg">
<text x="707.500000" y="82.000000" font-family="Arial" font-size="7" text-anchor="middle" fill="#FFFFFF">bs3(((((vslid..._ : max) : *)</text>
</a>
<circle cx="645.000000" cy="70.000000" r="1"/>
<line x1="640.000000" y1="75.000000" x2="643.000000" y2="76.000000"  transform="rotate(0.000000,643.000000,76.000000)" style="stroke: black; stroke-width:0.25;"/>
<line x1="640.000000" y1="77.000000" x2="643.000000" y2="76.000000"  transform="rotate(0.000000,643.000000,76.000000)" style="stroke: black; stroke-width:0.25;"/>
<line x1="640.000000" y1="83.000000" x2="643.000000" y2="84.000000"  transform="rotate(0.000000,643.000000,84.000000)" style="stroke: black; stroke-width:0.25;"/>
<line x1="640.000000" y1="85.000000" x2="643.000000" y2="84.000000"  transform="rotate(0.000000,643.000000,84.000000)" style="stroke: black; stroke-width:0.25;"/>
<a xlink:href="bs3-0x6001440def40.svg">
<rect x="813.000000" y="65.000000" width="129.000000" height="24.000000" rx="0" ry="0" style="stroke:none;fill:#cccccc;"/>
<rect x="812.000000" y="64.000000" width="129.000000" height="24.000000" rx="0" ry="0" style="stroke:none;fill:#003366;"/>
</a>
<a xlink:href="bs3-0x6001440def40.svg">
<text x="876.500000" y="78.000000" font-family="Arial" font-size="7" text-anchor="middle" fill="#FFFFFF">bs3(((((vslid..._ : max) : *)</text>
</a>
<circle cx="814.000000" cy="66.000000" r="1"/>
<line x1="809.000000" y1="71.000000" x2="812.000000" y2="72.000000"  transform="rotate(0.000000,812.000000,72.000000)" style="stroke: black; stroke-width:0.25;"/>
<line x1="809.000000" y1="73.000000" x2="812.000000" y2="72.000000"  transform="rotate(0.000000,812.000000,72.000000)" style="stroke: black; stroke-width:0.25;"/>
<line x1="809.000000" y1="79.000000" x2="812.000000" y2="80.000000"  transform="rotate(0.000000,812.000000,80.000000)" style="stroke: black; stroke-width:0.25;"/>
<line x1="809.000000" y1="81.000000" x2="812.000000" y2="80.000000"  transform="rotate(0.000000,812.000000,80.000000)" style="stroke: black; stroke-width:0.25;"/>
<a xlink:href="bs3-0x60014818bb10.svg">
<rect x="974.000000" y="61.000000" width="129.000000" height="24.000000" rx="0" ry="0" style="stroke:none;fill:#cccccc;"/>
<rect x="973.000000" y="60.000000" width="129.000000" height="24.000000" rx="0" ry="0" style="stroke:none;fill:#003366;"/>
</a>
<a xlink:href="bs3-0x60014818bb10.svg">
<text x="1037.500000" y="74.000000" font-family="Arial" font-size="7" text-anchor="middle" fill="#FFFFFF">bs3(((((vslid..._ : max) : *)</text>
</a>
<circle cx="975.000000" cy="62.000000" r="1"/>
<line x1="970.000000" y1="67.000000" x2="973.000000" y2="68.000000"  transform="rotate(0.000000,973.000000,68.000000)" style="stroke: black; stroke-width:0.25;"/>
<line x1="970.000000" y1="69.000000" x2="973.000000" y2="68.000000"  transform="rotate(0.000000,973.000000,68.000000)" style="stroke: black; stroke-width:0.25;"/>
<line x1="970.000000" y1="75.000000" x2="973.000000" y2="76.000000"  transform="rotate(0.000000,973.000000,76.000000)" style="stroke: black; stroke-width:0.25;"/>
<line x1="970.000000" y1="77.000000" x2="973.000000" y2="76.000000"  transform="rotate(0.000000,973.000000,76.000000)" style="stroke: black; stroke-width:0.25;"/>
<a xlink:href="bs3-0x6001443f9050.svg">
<rect x="1127.000000" y="57.000000" width="129.000000" height="24.000000" rx="0" ry="0" style="stroke:none;fill:#cccccc;"/>
<rect x="1126.000000" y="56.000000" width="129.000000" height="24.000000" rx="0" ry="0" style="stroke:none;fill:#003366;"/>
</a>
<a xlink:href="bs3-0x6001443f9050.svg">
<text x="1190.500000" y="70.000000" font-family="Arial" font-size="7" text-anchor="middle" fill="#FFFFFF">bs3(((((vslid..._ : max) : *)</text>
</a>
<circle cx="1128.000000" cy="58.000000" r="1"/>
<line x1="1123.000000" y1="63.000000" x2="1126.000000" y2="64.000000"  transform="rotate(0.000000,1126.000000,64.000000)" style="stroke: black; stroke-width:0.25;"/>
<line x1="1123.000000" y1="65.000000" x2="1126.000000" y2="64.000000"  transform="rotate(0.000000,1126.000000,64.000000)" style="stroke: black; stroke-width:0.25;"/>
<line x1="1123.000000" y1="71.000000" x2="1126.000000" y2="72.000000"  transform="rotate(0.000000,1126.000000,72.000000)" style="stroke: black; stroke-width:0.25;"/>
<line x1="1123.000000" y1="73.000000" x2="1126.000000" y2="72.000000"  transform="rotate(0.000000,1126.000000,72.000000)" style="stroke: black; stroke-width:0.25;"/>
<a xlink:href="hs3-0x6001480a1a70.svg">
<rect x="1272.000000" y="53.000000" width="129.000000" height="24.000000" rx="0" ry="0" style="stroke:none;fill:#cccccc;"/>
<rect x="1271.000000" y="52.000000" width="129.000000" height="24.000000" rx="0" ry="0" style="stroke:none;fill:#003366;"/>
</a>
<a xlink:href="hs3-0x6001480a1a70.svg">
<text x="1335.500000" y="66.000000" font-family="Arial" font-size="7" text-anchor="middle" fill="#FFFFFF">hs3(((((vslid..._ : max) : *)</text>
</a>
<circle cx="1273.000000" cy="54.000000" r="1"/>
<line x1="1268.000000" y1="59.000000" x2="1271.000000" y2="60.000000"  transform="rotate(0.000000,1271.000000,60.000000)" style="stroke: black; stroke-width:0.25;"/>
<line x1="1268.000000" y1="61.000000" x2="1271.000000" y2="60.000000"  transform="rotate(0.000000,1271.000000,60.000000)" style="stroke: black; stroke-width:0.25;"/>
<line x1="1268.000000" y1="67.000000" x2="1271.000000" y2="68.000000"  transform="rotate(0.000000,1271.000000,68.000000)" style="stroke: black; stroke-width:0.25;"/>
<line x1="1268.000000" y1="69.000000" x2="1271.000000" y2="68.000000"  transform="rotate(0.000000,1271.000000,68.000000)" style="stroke: black; stroke-width:0.25;"/>
<line x1="15.000000" y1="15.000000" x2="15.000000" y2="113.000000"  style="stroke: black; stroke-linecap:round; stroke-width:0.25; stroke-dasharray:3,3;"/>
<line x1="15.000000" y1="113.000000" x2="1417.000000" y2="113.000000"  style="stroke: black; stroke-linecap:round; stroke-width:0.25; stroke-dasharray:3,3;"/>
<line x1="1417.000000" y1="113.000000" x2="1417.000000" y2="15.000000"  style="stroke: black; stroke-linecap:round; stroke-width:0.25; stroke-dasharray:3,3;"/>
<line x1="15.000000" y1="15.000000" x2="20.000000" y2="15.000000"  style="stroke: black; stroke-linecap:round; stroke-width:0.25; stroke-dasharray:3,3;"/>
<line x1="119.975000" y1="15.000000" x2="1417.000000" y2="15.000000"  style="stroke: black; stroke-linecap:round; stroke-width:0.25; stroke-dasharray:3,3;"/>
<text x="20.000000" y="17.000000" font-family="Arial" font-size="7">shelfcascade(... : max) : *))</text>
<line x1="1419.000000" y1="63.000000" x2="1422.000000" y2="64.000000"  transform="rotate(0.000000,1422.000000,64.000000)" style="stroke: black; stroke-width:0.25;"/>
<line x1="1419.000000" y1="65.000000" x2="1422.000000" y2="64.000000"  transform="rotate(0.000000,1422.000000,64.000000)" style="stroke: black; stroke-width:0.25;"/>
<line x1="10.000000" y1="32.000000" x2="20.000000" y2="32.000000"  style="stroke:black; stroke-linecap:round; stroke-width:0.25;"/>
<line x1="10.000000" y1="40.000000" x2="20.000000" y2="40.000000"  style="stroke:black; stroke-linecap:round; stroke-width:0.25;"/>
<line x1="10.000000" y1="48.000000" x2="20.000000" y2="48.000000"  style="stroke:black; stroke-linecap:round; stroke-width:0.25;"/>
<line x1="10.000000" y1="56.000000" x2="20.000000" y2="56.000000"  style="stroke:black; stroke-linecap:round; stroke-width:0.25;"/>
<line x1="10.000000" y1="64.000000" x2="20.000000" y2="64.000000"  style="stroke:black; stroke-linecap:round; stroke-width:0.25;"/>
<line x1="10.000000" y1="72.000000" x2="20.000000" y2="72.000000"  style="stroke:black; stroke-linecap:round; stroke-width:0.25;"/>
<line x1="10.000000" y1="80.000000" x2="20.000000" y2="80.000000"  style="stroke:black; stroke-linecap:round; stroke-width:0.25;"/>
<line x1="10.000000" y1="88.000000" x2="20.000000" y2="88.000000"  style="stroke:black; stroke-linecap:round; stroke-width:0.25;"/>
<line x1="10.000000" y1="96.000000" x2="20.000000" y2="96.000000"  style="stroke:black; stroke-linecap:round; stroke-width:0.25;"/>
<line x1="20.000000" y1="32.000000" x2="24.000000" y2="32.000000"  style="stroke:black; stroke-linecap:round; stroke-width:0.25;"/>
<line x1="20.000000" y1="40.000000" x2="24.000000" y2="40.000000"  style="stroke:black; stroke-linecap:round; stroke-width:0.25;"/>
<line x1="20.000000" y1="48.000000" x2="24.000000" y2="48.000000"  style="stroke:black; stroke-linecap:round; stroke-width:0.25;"/>
<line x1="20.000000" y1="56.000000" x2="24.000000" y2="56.000000"  style="stroke:black; stroke-linecap:round; stroke-width:0.25;"/>
<line x1="20.000000" y1="64.000000" x2="24.000000" y2="64.000000"  style="stroke:black; stroke-linecap:round; stroke-width:0.25;"/>
<line x1="20.000000" y1="72.000000" x2="24.000000" y2="72.000000"  style="stroke:black; stroke-linecap:round; stroke-width:0.25;"/>
<line x1="20.000000" y1="80.000000" x2="24.000000" y2="80.000000"  style="stroke:black; stroke-linecap:round; stroke-width:0.25;"/>
<line x1="20.000000" y1="88.000000" x2="24.000000" y2="88.000000"  style="stroke:black; stroke-linecap:round; stroke-width:0.25;"/>
<line x1="20.000000" y1="96.000000" x2="24.000000" y2="96.000000"  style="stroke:black; stroke-linecap:round; stroke-width:0.25;"/>
<line x1="24.000000" y1="32.000000" x2="28.000000" y2="32.000000"  style="stroke:black; stroke-linecap:round; stroke-width:0.25;"/>
<line x1="24.000000" y1="40.000000" x2="28.000000" y2="40.000000"  style="stroke:black; stroke-linecap:round; stroke-width:0.25;"/>
<line x1="24.000000" y1="48.000000" x2="28.000000" y2="48.000000"  style="stroke:black; stroke-linecap:round; stroke-width:0.25;"/>
<line x1="24.000000" y1="56.000000" x2="28.000000" y2="56.000000"  style="stroke:black; stroke-linecap:round; stroke-width:0.25;"/>
<line x1="24.000000" y1="64.000000" x2="28.000000" y2="64.000000"  style="stroke:black; stroke-linecap:round; stroke-width:0.25;"/>
<line x1="24.000000" y1="72.000000" x2="28.000000" y2="72.000000"  style="stroke:black; stroke-linecap:round; stroke-width:0.25;"/>
<line x1="24.000000" y1="80.000000" x2="28.000000" y2="80.000000"  style="stroke:black; stroke-linecap:round; stroke-width:0.25;"/>
<line x1="24.000000" y1="88.000000" x2="28.000000" y2="88.000000"  style="stroke:black; stroke-linecap:round; stroke-width:0.25;"/>
<line x1="24.000000" y1="96.000000" x2="28.000000" y2="96.000000"  style="stroke:black; stroke-linecap:round; stroke-width:0.25;"/>
<line x1="28.000000" y1="24.000000" x2="84.000000" y2="24.000000"  style="stroke:black; stroke-linecap:round; stroke-width:0.25;"/>
<line x1="28.000000" y1="32.000000" x2="28.000000" y2="24.000000"  style="stroke:black; stroke-linecap:round; stroke-width:0.25;"/>
<line x1="28.000000" y1="32.000000" x2="28.000000" y2="32.000000"  style="stroke:black; stroke-linecap:round; stroke-width:0.25;"/>
<line x1="28.000000" y1="40.000000" x2="36.000000" y2="40.000000"  style="stroke:black; stroke-linecap:round; stroke-width:0.25;"/>
<line x1="28.000000" y1="48.000000" x2="44.000000" y2="48.000000"  style="stroke:black; stroke-linecap:round; stroke-width:0.25;"/>
<line x1="28.000000" y1="56.000000" x2="52.000000" y2="56.000000"  style="stroke:black; stroke-linecap:round; stroke-width:0.25;"/>
<line x1="28.000000" y1="64.000000" x2="60.000000" y2="64.000000"  style="stroke:black; stroke-linecap:round; stroke-width:0.25;"/>
<line x1="28.000000" y1="72.000000" x2="68.000000" y2="72.000000"  style="stroke:black; stroke-linecap:round; stroke-width:0.25;"/>
<line x1="28.000000" y1="80.000000" x2="76.000000" y2="80.000000"  style="stroke:black; stroke-linecap:round; stroke-width:0.25;"/>
<line x1="28.000000" y1="88.000000" x2="84.000000" y2="88.000000"  style="stroke:black; stroke-linecap:round; stroke-width:0.25;"/>
<line x1="28.000000" y1="96.000000" x2="84.000000" y2="96.000000"  style="stroke:black; stroke-linecap:round; stroke-width:0.25;"/>
<line x1="36.000000" y1="32.000000" x2="84.000000" y2="32.000000"  style="stroke:black; stroke-linecap:round; stroke-width:0.25;"/>
<line x1="36.000000" y1="40.000000" x2="36.000000" y2="32.000000"  style="stroke:black; stroke-linecap:round; stroke-width:0.25;"/>
<line x1="44.000000" y1="40.000000" x2="84.000000" y2="40.000000"  style="stroke:black; stroke-linecap:round; stroke-width:0.25;"/>
<line x1="44.000000" y1="48.000000" x2="44.000000" y2="40.000000"  style="stroke:black; stroke-linecap:round; stroke-width:0.25;"/>
<line x1="52.000000" y1="48.000000" x2="84.000000" y2="48.000000"  style="stroke:black; stroke-linecap:round; stroke-width:0.25;"/>
<line x1="52.000000" y1="56.000000" x2="52.000000" y2="48.000000"  style="stroke:black; stroke-linecap:round; stroke-width:0.25;"/>
<line x1="60.000000" y1="56.000000" x2="84.000000" y2="56.000000"  style="stroke:black; stroke-linecap:round; stroke-width:0.25;"/>
<line x1="60.000000" y1="64.000000" x2="60.000000" y2="56.000000"  style="stroke:black; stroke-linecap:round; stroke-width:0.25;"/>
<line x1="68.000000" y1="64.000000" x2="84.000000" y2="64.000000"  style="stroke:black; stroke-linecap:round; stroke-width:0.25;"/>
<line x1="68.000000" y1="72.000000" x2="68.000000" y2="64.000000"  style="stroke:black; stroke-linecap:round; stroke-width:0.25;"/>
<line x1="76.000000" y1="72.000000" x2="84.000000" y2="72.000000"  style="stroke:black; stroke-linecap:round; stroke-width:0.25;"/>
<line x1="76.000000" y1="80.000000" x2="76.000000" y2="72.000000"  style="stroke:black; stroke-linecap:round; stroke-width:0.25;"/>
<line x1="84.000000" y1="24.000000" x2="152.500000" y2="24.000000"  style="stroke:black; stroke-linecap:round; stroke-width:0.25;"/>
<line x1="84.000000" y1="32.000000" x2="152.500000" y2="32.000000"  style="stroke:black; stroke-linecap:round; stroke-width:0.25;"/>
<line x1="84.000000" y1="40.000000" x2="152.500000" y2="40.000000"  style="stroke:black; stroke-linecap:round; stroke-width:0.25;"/>
<line x1="84.000000" y1="48.000000" x2="152.500000" y2="48.000000"  style="stroke:black; stroke-linecap:round; stroke-width:0.25;"/>
<line x1="84.000000" y1="56.000000" x2="152.500000" y2="56.000000"  style="stroke:black; stroke-linecap:round; stroke-width:0.25;"/>
<line x1="84.000000" y1="64.000000" x2="152.500000" y2="64.000000"  style="stroke:black; stroke-linecap:round; stroke-width:0.25;"/>
<line x1="84.000000" y1="72.000000" x2="152.500000" y2="72.000000"  style="stroke:black; stroke-linecap:round; stroke-width:0.25;"/>
<line x1="84.000000" y1="88.000000" x2="88.000000" y2="88.000000"  style="stroke:black; stroke-linecap:round; stroke-width:0.25;"/>
<line x1="84.000000" y1="96.000000" x2="88.000000" y2="96.000000"  style="stroke:black; stroke-linecap:round; stroke-width:0.25;"/>
<line x1="152.500000" y1="24.000000" x2="221.000000" y2="24.000000"  style="stroke:black; stroke-linecap:round; stroke-width:0.25;"/>
<line x1="152.500000" y1="32.000000" x2="221.000000" y2="32.000000"  style="stroke:black; stroke-linecap:round; stroke-width:0.25;"/>
<line x1="152.500000" y1="40.000000" x2="221.000000" y2="40.000000"  style="stroke:black; stroke-linecap:round; stroke-width:0.25;"/>
<line x1="152.500000" y1="48.000000" x2="221.000000" y2="48.000000"  style="stroke:black; stroke-linecap:round; stroke-width:0.25;"/>
<line x1="152.500000" y1="56.000000" x2="221.000000" y2="56.000000"  style="stroke:black; stroke-linecap:round; stroke-width:0.25;"/>
<line x1="152.500000" y1="64.000000" x2="221.000000" y2="64.000000"  style="stroke:black; stroke-linecap:round; stroke-width:0.25;"/>
<line x1="152.500000" y1="72.000000" x2="221.000000" y2="72.000000"  style="stroke:black; stroke-linecap:round; stroke-width:0.25;"/>
<line x1="217.000000" y1="92.000000" x2="221.000000" y2="92.000000"  style="stroke:black; stroke-linecap:round; stroke-width:0.25;"/>
<line x1="221.000000" y1="24.000000" x2="277.000000" y2="24.000000"  style="stroke:black; stroke-linecap:round; stroke-width:0.25;"/>
<line x1="221.000000" y1="32.000000" x2="269.000000" y2="32.000000"  style="stroke:black; stroke-linecap:round; stroke-width:0.25;"/>
<line x1="221.000000" y1="40.000000" x2="261.000000" y2="40.000000"  style="stroke:black; stroke-linecap:round; stroke-width:0.25;"/>
<line x1="221.000000" y1="48.000000" x2="253.000000" y2="48.000000"  style="stroke:black; stroke-linecap:round; stroke-width:0.25;"/>
<line x1="221.000000" y1="56.000000" x2="245.000000" y2="56.000000"  style="stroke:black; stroke-linecap:round; stroke-width:0.25;"/>
<line x1="221.000000" y1="64.000000" x2="237.000000" y2="64.000000"  style="stroke:black; stroke-linecap:round; stroke-width:0.25;"/>
<line x1="221.000000" y1="72.000000" x2="229.000000" y2="72.000000"  style="stroke:black; stroke-linecap:round; stroke-width:0.25;"/>
<line x1="221.000000" y1="92.000000" x2="277.000000" y2="92.000000"  style="stroke:black; stroke-linecap:round; stroke-width:0.25;"/>
<line x1="229.000000" y1="72.000000" x2="229.000000" y2="84.000000"  style="stroke:black; stroke-linecap:round; stroke-width:0.25;"/>
<line x1="229.000000" y1="84.000000" x2="277.000000" y2="84.000000"  style="stroke:black; stroke-linecap:round; stroke-width:0.25;"/>
<line x1="237.000000" y1="64.000000" x2="237.000000" y2="68.000000"  style="stroke:black; stroke-linecap:round; stroke-width:0.25;"/>
<line x1="237.000000" y1="68.000000" x2="277.000000" y2="68.000000"  style="stroke:black; stroke-linecap:round; stroke-width:0.25;"/>
<line x1="245.000000" y1="56.000000" x2="245.000000" y2="60.000000"  style="stroke:black; stroke-linecap:round; stroke-width:0.25;"/>
<line x1="245.000000" y1="60.000000" x2="277.000000" y2="60.000000"  style="stroke:black; stroke-linecap:round; stroke-width:0.25;"/>
<line x1="253.000000" y1="48.000000" x2="253.000000" y2="52.000000"  style="stroke:black; stroke-linecap:round; stroke-width:0.25;"/>
<line x1="253.000000" y1="52.000000" x2="277.000000" y2="52.000000"  style="stroke:black; stroke-linecap:round; stroke-width:0.25;"/>
<line x1="261.000000" y1="40.000000" x2="261.000000" y2="44.000000"  style="stroke:black; stroke-linecap:round; stroke-width:0.25;"/>
<line x1="261.000000" y1="44.000000" x2="277.000000" y2="44.000000"  style="stroke:black; stroke-linecap:round; stroke-width:0.25;"/>
<line x1="269.000000" y1="32.000000" x2="269.000000" y2="36.000000"  style="stroke:black; stroke-linecap:round; stroke-width:0.25;"/>
<line x1="269.000000" y1="36.000000" x2="277.000000" y2="36.000000"  style="stroke:black; stroke-linecap:round; stroke-width:0.25;"/>
<line x1="277.000000" y1="24.000000" x2="277.000000" y2="28.000000"  style="stroke:black; stroke-linecap:round; stroke-width:0.25;"/>
<line x1="277.000000" y1="28.000000" x2="277.000000" y2="28.000000"  style="stroke:black; stroke-linecap:round; stroke-width:0.25;"/>
<line x1="277.000000" y1="28.000000" x2="345.500000" y2="28.000000"  style="stroke:black; stroke-linecap:round; stroke-width:0.25;"/>
<line x1="277.000000" y1="36.000000" x2="345.500000" y2="36.000000"  style="stroke:black; stroke-linecap:round; stroke-width:0.25;"/>
<line x1="277.000000" y1="44.000000" x2="345.500000" y2="44.000000"  style="stroke:black; stroke-linecap:round; stroke-width:0.25;"/>
<line x1="277.000000" y1="52.000000" x2="345.500000" y2="52.000000"  style="stroke:black; stroke-linecap:round; stroke-width:0.25;"/>
<line x1="277.000000" y1="60.000000" x2="345.500000" y2="60.000000"  style="stroke:black; stroke-linecap:round; stroke-width:0.25;"/>
<line x1="277.000000" y1="68.000000" x2="345.500000" y2="68.000000"  style="stroke:black; stroke-linecap:round; stroke-width:0.25;"/>
<line x1="277.000000" y1="84.000000" x2="281.000000" y2="84.000000"  style="stroke:black; stroke-linecap:round; stroke-width:0.25;"/>
<line x1="277.000000" y1="92.000000" x2="281.000000" y2="92.000000"  style="stroke:black; stroke-linecap:round; stroke-width:0.25;"/>
<line x1="345.500000" y1="28.000000" x2="414.000000" y2="28.000000"  style="stroke:black; stroke-linecap:round; stroke-width:0.25;"/>
<line x1="345.500000" y1="36.000000" x2="414.000000" y2="36.000000"  style="stroke:black; stroke-linecap:round; stroke-width:0.25;"/>
<line x1="345.500000" y1="44.000000" x2="414.000000" y2="44.000000"  style="stroke:black; stroke-linecap:round; stroke-width:0.25;"/>
<line x1="345.500000" y1="52.000000" x2="414.000000" y2="52.000000"  style="stroke:black; stroke-linecap:round; stroke-width:0.25;"/>
<line x1="345.500000" y1="60.000000" x2="414.000000" y2="60.000000"  style="stroke:black; stroke-linecap:round; stroke-width:0.25;"/>
<line x1="345.500000" y1="68.000000" x2="414.000000" y2="68.000000"  style="stroke:black; stroke-linecap:round; stroke-width:0.25;"/>
<line x1="410.000000" y1="88.000000" x2="414.000000" y2="88.000000"  style="stroke:black; stroke-linecap:round; stroke-width:0.25;"/>
<line x1="414.000000" y1="28.000000" x2="462.000000" y2="28.000000"  style="stroke:black; stroke-linecap:round; stroke-width:0.25;"/>
<line x1="414.000000" y1="36.000000" x2="454.000000" y2="36.000000"  style="stroke:black; stroke-linecap:round; stroke-width:0.25;"/>
<line x1="414.000000" y1="44.000000" x2="446.000000" y2="44.000000"  style="stroke:black; stroke-linecap:round; stroke-width:0.25;"/>
<line x1="414.000000" y1="52.000000" x2="438.000000" y2="52.000000"  style="stroke:black; stroke-linecap:round; stroke-width:0.25;"/>
<line x1="414.000000" y1="60.000000" x2="430.000000" y2="60.000000"  style="stroke:black; stroke-linecap:round; stroke-width:0.25;"/>
<line x1="414.000000" y1="68.000000" x2="422.000000" y2="68.000000"  style="stroke:black; stroke-linecap:round; stroke-width:0.25;"/>
<line x1="414.000000" y1="88.000000" x2="462.000000" y2="88.000000"  style="stroke:black; stroke-linecap:round; stroke-width:0.25;"/>
<line x1="422.000000" y1="68.000000" x2="422.000000" y2="80.000000"  style="stroke:black; stroke-linecap:round; stroke-width:0.25;"/>
<line x1="422.000000" y1="80.000000" x2="462.000000" y2="80.000000"  style="stroke:black; stroke-linecap:round; stroke-width:0.25;"/>
<line x1="430.000000" y1="60.000000" x2="430.000000" y2="64.000000"  style="stroke:black; stroke-linecap:round; stroke-width:0.25;"/>
<line x1="430.000000" y1="64.000000" x2="462.000000" y2="64.000000"  style="stroke:black; stroke-linecap:round; stroke-width:0.25;"/>
<line x1="438.000000" y1="52.000000" x2="438.000000" y2="56.000000"  style="stroke:black; stroke-linecap:round; stroke-width:0.25;"/>
<line x1="438.000000" y1="56.000000" x2="462.000000" y2="56.000000"  style="stroke:black; stroke-linecap:round; stroke-width:0.25;"/>
<line x1="446.000000" y1="44.000000" x2="446.000000" y2="48.000000"  style="stroke:black; stroke-linecap:round; stroke-width:0.25;"/>
<line x1="446.000000" y1="48.000000" x2="462.000000" y2="48.000000"  style="stroke:black; stroke-linecap:round; stroke-width:0.25;"/>
<line x1="454.000000" y1="36.000000" x2="454.000000" y2="40.000000"  style="stroke:black; stroke-linecap:round; stroke-width:0.25;"/>
<line x1="454.000000" y1="40.000000" x2="462.000000" y2="40.000000"  style="stroke:black; stroke-linecap:round; stroke-width:0.25;"/>
<line x1="462.000000" y1="28.000000" x2="462.000000" y2="32.000000"  style="stroke:black; stroke-linecap:round; stroke-width:0.25;"/>
<line x1="462.000000" y1="32.000000" x2="462.000000" y2="32.000000"  style="stroke:black; stroke-linecap:round; stroke-width:0.25;"/>
<line x1="462.000000" y1="32.000000" x2="530.500000" y2="32.000000"  style="stroke:black; stroke-linecap:round; stroke-width:0.25;"/>
<line x1="462.000000" y1="40.000000" x2="530.500000" y2="40.000000"  style="stroke:black; stroke-linecap:round; stroke-width:0.25;"/>
<line x1="462.000000" y1="48.000000" x2="530.500000" y2="48.000000"  style="stroke:black; stroke-linecap:round; stroke-width:0.25;"/>
<line x1="462.000000" y1="56.000000" x2="530.500000" y2="56.000000"  style="stroke:black; stroke-linecap:round; stroke-width:0.25;"/>
<line x1="462.000000" y1="64.000000" x2="530.500000" y2="64.000000"  style="stroke:black; stroke-linecap:round; stroke-width:0.25;"/>
<line x1="462.000000" y1="80.000000" x2="466.000000" y2="80.000000"  style="stroke:black; stroke-linecap:round; stroke-width:0.25;"/>
<line x1="462.000000" y1="88.000000" x2="466.000000" y2="88.000000"  style="stroke:black; stroke-linecap:round; stroke-width:0.25;"/>
<line x1="530.500000" y1="32.000000" x2="599.000000" y2="32.000000"  style="stroke:black; stroke-linecap:round; stroke-width:0.25;"/>
<line x1="530.500000" y1="40.000000" x2="599.000000" y2="40.000000"  style="stroke:black; stroke-linecap:round; stroke-width:0.25;"/>
<line x1="530.500000" y1="48.000000" x2="599.000000" y2="48.000000"  style="stroke:black; stroke-linecap:round; stroke-width:0.25;"/>
<line x1="530.500000" y1="56.000000" x2="599.000000" y2="56.000000"  style="stroke:black; stroke-linecap:round; stroke-width:0.25;"/>
<line x1="530.500000" y1="64.000000" x2="599.000000" y2="64.000000"  style="stroke:black; stroke-linecap:round; stroke-width:0.25;"/>
<line x1="595.000000" y1="84.000000" x2="599.000000" y2="84.000000"  style="stroke:black; stroke-linecap:round; stroke-width:0.25;"/>
<line x1="599.000000" y1="32.000000" x2="639.000000" y2="32.000000"  style="stroke:black; stroke-linecap:round; stroke-width:0.25;"/>
<line x1="599.000000" y1="40.000000" x2="631.000000" y2="40.000000"  style="stroke:black; stroke-linecap:round; stroke-width:0.25;"/>
<line x1="599.000000" y1="48.000000" x2="623.000000" y2="48.000000"  style="stroke:black; stroke-linecap:round; stroke-width:0.25;"/>
<line x1="599.000000" y1="56.000000" x2="615.000000" y2="56.000000"  style="stroke:black; stroke-linecap:round; stroke-width:0.25;"/>
<line x1="599.000000" y1="64.000000" x2="607.000000" y2="64.000000"  style="stroke:black; stroke-linecap:round; stroke-width:0.25;"/>
<line x1="599.000000" y1="84.000000" x2="639.000000" y2="84.000000"  style="stroke:black; stroke-linecap:round; stroke-width:0.25;"/>
<line x1="607.000000" y1="64.000000" x2="607.000000" y2="76.000000"  style="stroke:black; stroke-linecap:round; stroke-width:0.25;"/>
<line x1="607.000000" y1="76.000000" x2="639.000000" y2="76.000000"  style="stroke:black; stroke-linecap:round; stroke-width:0.25;"/>
<line x1="615.000000" y1="56.000000" x2="615.000000" y2="60.000000"  style="stroke:black; stroke-linecap:round; stroke-width:0.25;"/>
<line x1="615.000000" y1="60.000000" x2="639.000000" y2="60.000000"  style="stroke:black; stroke-linecap:round; stroke-width:0.25;"/>
<line x1="623.000000" y1="48.000000" x2="623.000000" y2="52.000000"  style="stroke:black; stroke-linecap:round; stroke-width:0.25;"/>
<line x1="623.000000" y1="52.000000" x2="639.000000" y2="52.000000"  style="stroke:black; stroke-linecap:round; stroke-width:0.25;"/>
<line x1="631.000000" y1="40.000000" x2="631.000000" y2="44.000000"  style="stroke:black; stroke-linecap:round; stroke-width:0.25;"/>
<line x1="631.000000" y1="44.000000" x2="639.000000" y2="44.000000"  style="stroke:black; stroke-linecap:round; stroke-width:0.25;"/>
<line x1="639.000000" y1="32.000000" x2="639.000000" y2="36.000000"  style="stroke:black; stroke-linecap:round; stroke-width:0.25;"/>
<line x1="639.000000" y1="36.000000" x2="639.000000" y2="36.000000"  style="stroke:black; stroke-linecap:round; stroke-width:0.25;"/>
<line x1="639.000000" y1="36.000000" x2="707.500000" y2="36.000000"  style="stroke:black; stroke-linecap:round; stroke-width:0.25;"/>
<line x1="639.000000" y1="44.000000" x2="707.500000" y2="44.000000"  style="stroke:black; stroke-linecap:round; stroke-width:0.25;"/>
<line x1="639.000000" y1="52.000000" x2="707.500000" y2="52.000000"  style="stroke:black; stroke-linecap:round; stroke-width:0.25;"/>
<line x1="639.000000" y1="60.000000" x2="707.500000" y2="60.000000"  style="stroke:black; stroke-linecap:round; stroke-width:0.25;"/>
<line x1="639.000000" y1="76.000000" x2="643.000000" y2="76.000000"  style="stroke:black; stroke-linecap:round; stroke-width:0.25;"/>
<line x1="639.000000" y1="84.000000" x2="643.000000" y2="84.000000"  style="stroke:black; stroke-linecap:round; stroke-width:0.25;"/>
<line x1="707.500000" y1="36.000000" x2="776.000000" y2="36.000000"  style="stroke:black; stroke-linecap:round; stroke-width:0.25;"/>
<line x1="707.500000" y1="44.000000" x2="776.000000" y2="44.000000"  style="stroke:black; stroke-linecap:round; stroke-width:0.25;"/>
<line x1="707.500000" y1="52.000000" x2="776.000000" y2="52.000000"  style="stroke:black; stroke-linecap:round; stroke-width:0.25;"/>
<line x1="707.500000" y1="60.000000" x2="776.000000" y2="60.000000"  style="stroke:black; stroke-linecap:round; stroke-width:0.25;"/>
<line x1="772.000000" y1="80.000000" x2="776.000000" y2="80.000000"  style="stroke:black; stroke-linecap:round; stroke-width:0.25;"/>
<line x1="776.000000" y1="36.000000" x2="808.000000" y2="36.000000"  style="stroke:black; stroke-linecap:round; stroke-width:0.25;"/>
<line x1="776.000000" y1="44.000000" x2="800.000000" y2="44.000000"  style="stroke:black; stroke-linecap:round; stroke-width:0.25;"/>
<line x1="776.000000" y1="52.000000" x2="792.000000" y2="52.000000"  style="stroke:black; stroke-linecap:round; stroke-width:0.25;"/>
<line x1="776.000000" y1="60.000000" x2="784.000000" y2="60.000000"  style="stroke:black; stroke-linecap:round; stroke-width:0.25;"/>
<line x1="776.000000" y1="80.000000" x2="808.000000" y2="80.000000"  style="stroke:black; stroke-linecap:round; stroke-width:0.25;"/>
<line x1="784.000000" y1="60.000000" x2="784.000000" y2="72.000000"  style="stroke:black; stroke-linecap:round; stroke-width:0.25;"/>
<line x1="784.000000" y1="72.000000" x2="808.000000" y2="72.000000"  style="stroke:black; stroke-linecap:round; stroke-width:0.25;"/>
<line x1="792.000000" y1="52.000000" x2="792.000000" y2="56.000000"  style="stroke:black; stroke-linecap:round; stroke-width:0.25;"/>
<line x1="792.000000" y1="56.000000" x2="808.000000" y2="56.000000"  style="stroke:black; stroke-linecap:round; stroke-width:0.25;"/>
<line x1="800.000000" y1="44.000000" x2="800.000000" y2="48.000000"  style="stroke:black; stroke-linecap:round; stroke-width:0.25;"/>
<line x1="800.000000" y1="48.000000" x2="808.000000" y2="48.000000"  style="stroke:black; stroke-linecap:round; stroke-width:0.25;"/>
<line x1="808.000000" y1="36.000000" x2="808.000000" y2="40.000000"  style="stroke:black; stroke-linecap:round; stroke-width:0.25;"/>
<line x1="808.000000" y1="40.000000" x2="808.000000" y2="40.000000"  style="stroke:black; stroke-linecap:round; stroke-width:0.25;"/>
<line x1="808.000000" y1="40.000000" x2="876.500000" y2="40.000000"  style="stroke:black; stroke-linecap:round; stroke-width:0.25;"/>
<line x1="808.000000" y1="48.000000" x2="876.500000" y2="48.000000"  style="stroke:black; stroke-linecap:round; stroke-width:0.25;"/>
<line x1="808.000000" y1="56.000000" x2="876.500000" y2="56.000000"  style="stroke:black; stroke-linecap:round; stroke-width:0.25;"/>
<line x1="808.000000" y1="72.000000" x2="812.000000" y2="72.000000"  style="stroke:black; stroke-linecap:round; stroke-width:0.25;"/>
<line x1="808.000000" y1="80.000000" x2="812.000000" y2="80.000000"  style="stroke:black; stroke-linecap:round; stroke-width:0.25;"/>
<line x1="876.500000" y1="40.000000" x2="945.000000" y2="40.000000"  style="stroke:black; stroke-linecap:round; stroke-width:0.25;"/>
<line x1="876.500000" y1="48.000000" x2="945.000000" y2="48.000000"  style="stroke:black; stroke-linecap:round; stroke-width:0.25;"/>
<line x1="876.500000" y1="56.000000" x2="945.000000" y2="56.000000"  style="stroke:black; stroke-linecap:round; stroke-width:0.25;"/>
<line x1="941.000000" y1="76.000000" x2="945.000000" y2="76.000000"  style="stroke:black; stroke-linecap:round; stroke-width:0.25;"/>
<line x1="945.000000" y1="40.000000" x2="969.000000" y2="40.000000"  style="stroke:black; stroke-linecap:round; stroke-width:0.25;"/>
<line x1="945.000000" y1="48.000000" x2="961.000000" y2="48.000000"  style="stroke:black; stroke-linecap:round; stroke-width:0.25;"/>
<line x1="945.000000" y1="56.000000" x2="953.000000" y2="56.000000"  style="stroke:black; stroke-linecap:round; stroke-width:0.25;"/>
<line x1="945.000000" y1="76.000000" x2="969.000000" y2="76.000000"  style="stroke:black; stroke-linecap:round; stroke-width:0.25;"/>
<line x1="953.000000" y1="56.000000" x2="953.000000" y2="68.000000"  style="stroke:black; stroke-linecap:round; stroke-width:0.25;"/>
<line x1="953.000000" y1="68.000000" x2="969.000000" y2="68.000000"  style="stroke:black; stroke-linecap:round; stroke-width:0.25;"/>
<line x1="961.000000" y1="48.000000" x2="961.000000" y2="52.000000"  style="stroke:black; stroke-linecap:round; stroke-width:0.25;"/>
<line x1="961.000000" y1="52.000000" x2="969.000000" y2="52.000000"  style="stroke:black; stroke-linecap:round; stroke-width:0.25;"/>
<line x1="969.000000" y1="40.000000" x2="969.000000" y2="44.000000"  style="stroke:black; stroke-linecap:round; stroke-width:0.25;"/>
<line x1="969.000000" y1="44.000000" x2="969.000000" y2="44.000000"  style="stroke:black; stroke-linecap:round; stroke-width:0.25;"/>
<line x1="969.000000" y1="44.000000" x2="1037.500000" y2="44.000000"  style="stroke:black; stroke-linecap:round; stroke-width:0.25;"/>
<line x1="969.000000" y1="52.000000" x2="1037.500000" y2="52.000000"  style="stroke:black; stroke-linecap:round; stroke-width:0.25;"/>
<line x1="969.000000" y1="68.000000" x2="973.000000" y2="68.000000"  style="stroke:black; stroke-linecap:round; stroke-width:0.25;"/>
<line x1="969.000000" y1="76.000000" x2="973.000000" y2="76.000000"  style="stroke:black; stroke-linecap:round; stroke-width:0.25;"/>
<line x1="1037.500000" y1="44.000000" x2="1106.000000" y2="44.000000"  style="stroke:black; stroke-linecap:round; stroke-width:0.25;"/>
<line x1="1037.500000" y1="52.000000" x2="1106.000000" y2="52.000000"  style="stroke:black; stroke-linecap:round; stroke-width:0.25;"/>
<line x1="1102.000000" y1="72.000000" x2="1106.000000" y2="72.000000"  style="stroke:black; stroke-linecap:round; stroke-width:0.25;"/>
<line x1="1106.000000" y1="44.000000" x2="1122.000000" y2="44.000000"  style="stroke:black; stroke-linecap:round; stroke-width:0.25;"/>
<line x1="1106.000000" y1="52.000000" x2="1114.000000" y2="52.000000"  style="stroke:black; stroke-linecap:round; stroke-width:0.25;"/>
<line x1="1106.000000" y1="72.000000" x2="1122.000000" y2="72.000000"  style="stroke:black; stroke-linecap:round; stroke-width:0.25;"/>
<line x1="1114.000000" y1="52.000000" x2="1114.000000" y2="64.000000"  style="stroke:black; stroke-linecap:round; stroke-width:0.25;"/>
<line x1="1114.000000" y1="64.000000" x2="1122.000000" y2="64.000000"  style="stroke:black; stroke-linecap:round; stroke-width:0.25;"/>
<line x1="1122.000000" y1="44.000000" x2="1122.000000" y2="48.000000"  style="stroke:black; stroke-linecap:round; stroke-width:0.25;"/>
<line x1="1122.000000" y1="48.000000" x2="1122.000000" y2="48.000000"  style="stroke:black; stroke-linecap:round; stroke-width:0.25;"/>
<line x1="1122.000000" y1="48.000000" x2="1190.500000" y2="48.000000"  style="stroke:black; stroke-linecap:round; stroke-width:0.25;"/>
<line x1="1122.000000" y1="64.000000" x2="1126.000000" y2="64.000000"  style="stroke:black; stroke-linecap:round; stroke-width:0.25;"/>
<line x1="1122.000000" y1="72.000000" x2="1126.000000" y2="72.000000"  style="stroke:black; stroke-linecap:round; stroke-width:0.25;"/>
<line x1="1190.500000" y1="48.000000" x2="1259.000000" y2="48.000000"  style="stroke:black; stroke-linecap:round; stroke-width:0.25;"/>
<line x1="1255.000000" y1="68.000000" x2="1259.000000" y2="68.000000"  style="stroke:black; stroke-linecap:round; stroke-width:0.25;"/>
<line x1="1259.000000" y1="48.000000" x2="1267.000000" y2="48.000000"  style="stroke:black; stroke-linecap:round; stroke-width:0.25;"/>
<line x1="1259.000000" y1="68.000000" x2="1267.000000" y2="68.000000"  style="stroke:black; stroke-linecap:round; stroke-width:0.25;"/>
<line x1="1267.000000" y1="48.000000" x2="1267.000000" y2="60.000000"  style="stroke:black; stroke-linecap:round; stroke-width:0.25;"/>
<line x1="1267.000000" y1="60.000000" x2="1267.000000" y2="60.000000"  style="stroke:black; stroke-linecap:round; stroke-width:0.25;"/>
<line x1="1267.000000" y1="60.000000" x2="1271.000000" y2="60.000000"  style="stroke:black; stroke-linecap:round; stroke-width:0.25;"/>
<line x1="1267.000000" y1="68.000000" x2="1271.000000" y2="68.000000"  style="stroke:black; stroke-linecap:round; stroke-width:0.25;"/>
<line x1="1400.000000" y1="64.000000" x2="1404.000000" y2="64.000000"  style="stroke:black; stroke-linecap:round; stroke-width:0.25;"/>
<line x1="1404.000000" y1="64.000000" x2="1404.000000" y2="64.000000"  style="stroke:black; stroke-linecap:round; stroke-width:0.25;"/>
<line x1="1404.000000" y1="64.000000" x2="1408.000000" y2="64.000000"  style="stroke:black; stroke-linecap:round; stroke-width:0.25;"/>
<line x1="1408.000000" y1="64.000000" x2="1412.000000" y2="64.000000"  style="stroke:black; stroke-linecap:round; stroke-width:0.25;"/>
<line x1="1412.000000" y1="64.000000" x2="1422.000000" y2="64.000000"  style="stroke:black; stroke-linecap:round; stroke-width:0.25;"/>
</svg>
