<?xml version="1.0"?>
<svg xmlns="http://www.w3.org/2000/svg" xmlns:xlink="http://www.w3.org/1999/xlink" viewBox="0 0 276.600000 80.000000" width="138.300000mm" height="40.000000mm" version="1.1">
<a xlink:href="eq-0x6000c43a8ea0.svg">
<rect x="1.000000" y="1.000000" width="275.600000" height="79.000000" rx="0" ry="0" style="stroke:none;fill:#cccccc;"/>
<rect x="0.000000" y="0.000000" width="275.600000" height="79.000000" rx="0" ry="0" style="stroke:none;fill:#ffffff;"/>
</a>
<text x="10.000000" y="7.000000" font-family="Arial" font-size="7"></text>
<a xlink:href="ms-0x600000120e10.svg">
<rect x="33.000000" y="29.000000" width="25.800000" height="24.000000" rx="0" ry="0" style="stroke:none;fill:#cccccc;"/>
<rect x="32.000000" y="28.000000" width="25.800000" height="24.000000" rx="0" ry="0" style="stroke:none;fill:#003366;"/>
</a>
<a xlink:href="ms-0x600000120e10.svg">
<text x="44.900000" y="42.000000" font-family="Arial" font-size="7" text-anchor="middle" fill="#FFFFFF">ms_enc</text>
</a>
<circle cx="34.000000" cy="30.000000" r="1"/>
<line x1="29.000000" y1="35.000000" x2="32.000000" y2="36.000000"  transform="rotate(0.000000,32.000000,36.000000)" style="stroke: black; stroke-width:0.25;"/>
<line x1="29.000000" y1="37.000000" x2="32.000000" y2="36.000000"  transform="rotate(0.000000,32.000000,36.000000)" style="stroke: black; stroke-width:0.25;"/>
<line x1="29.000000" y1="43.000000" x2="32.000000" y2="44.000000"  transform="rotate(0.000000,32.000000,44.000000)" style="stroke: black; stroke-width:0.25;"/>
<line x1="29.000000" y1="45.000000" x2="32.000000" y2="44.000000"  transform="rotate(0.000000,32.000000,44.000000)" style="stroke: black; stroke-width:0.25;"/>
<a xlink:href="band-0x6000c43a8bd0.svg">
<rect x="74.800000" y="33.000000" width="129.000000" height="24.000000" rx="0" ry="0" style="stroke:none;fill:#cccccc;"/>
<rect x="73.800000" y="32.000000" width="129.000000" height="24.000000" rx="0" ry="0" style="stroke:none;fill:#003366;"/>
</a>
<a xlink:href="band-0x6000c43a8bd0.svg">
<text x="138.300000" y="46.000000" font-family="Arial" font-size="7" text-anchor="middle" fill="#FFFFFF">band_shelf(vs...12.0f, 0.5f))</text>
</a>
<circle cx="75.800000" cy="34.000000" r="1"/>
<line x1="70.800000" y1="43.000000" x2="73.800000" y2="44.000000"  transform="rotate(0.000000,73.800000,44.000000)" style="stroke: black; stroke-width:0.25;"/>
<line x1="70.800000" y1="45.000000" x2="73.800000" y2="44.000000"  transform="rotate(0.000000,73.800000,44.000000)" style="stroke: black; stroke-width:0.25;"/>
<a xlink:href="ms-0x600000121290.svg">
<rect x="219.800000" y="29.000000" width="25.800000" height="24.000000" rx="0" ry="0" style="stroke:none;fill:#cccccc;"/>
<rect x="218.800000" y="28.000000" width="25.800000" height="24.000000" rx="0" ry="0" style="stroke:none;fill:#003366;"/>
</a>
<a xlink:href="ms-0x600000121290.svg">
<text x="231.700000" y="42.000000" font-family="Arial" font-size="7" text-anchor="middle" fill="#FFFFFF">ms_dec</text>
</a>
<circle cx="220.800000" cy="30.000000" r="1"/>
<line x1="215.800000" y1="35.000000" x2="218.800000" y2="36.000000"  transform="rotate(0.000000,218.800000,36.000000)" style="stroke: black; stroke-width:0.25;"/>
<line x1="215.800000" y1="37.000000" x2="218.800000" y2="36.000000"  transform="rotate(0.000000,218.800000,36.000000)" style="stroke: black; stroke-width:0.25;"/>
<line x1="215.800000" y1="43.000000" x2="218.800000" y2="44.000000"  transform="rotate(0.000000,218.800000,44.000000)" style="stroke: black; stroke-width:0.25;"/>
<line x1="215.800000" y1="45.000000" x2="218.800000" y2="44.000000"  transform="rotate(0.000000,218.800000,44.000000)" style="stroke: black; stroke-width:0.25;"/>
<line x1="15.000000" y1="15.000000" x2="15.000000" y2="65.000000"  style="stroke: black; stroke-linecap:round; stroke-width:0.25; stroke-dasharray:3,3;"/>
<line x1="15.000000" y1="65.000000" x2="261.600000" y2="65.000000"  style="stroke: black; stroke-linecap:round; stroke-width:0.25; stroke-dasharray:3,3;"/>
<line x1="261.600000" y1="65.000000" x2="261.600000" y2="15.000000"  style="stroke: black; stroke-linecap:round; stroke-width:0.25; stroke-dasharray:3,3;"/>
<line x1="15.000000" y1="15.000000" x2="20.000000" y2="15.000000"  style="stroke: black; stroke-linecap:round; stroke-width:0.25; stroke-dasharray:3,3;"/>
<line x1="55.475000" y1="15.000000" x2="261.600000" y2="15.000000"  style="stroke: black; stroke-linecap:round; stroke-width:0.25; stroke-dasharray:3,3;"/>
<text x="20.000000" y="17.000000" font-family="Arial" font-size="7">side_eq_b</text>
<line x1="263.600000" y1="35.000000" x2="266.600000" y2="36.000000"  transform="rotate(0.000000,266.600000,36.000000)" style="stroke: black; stroke-width:0.25;"/>
<line x1="263.600000" y1="37.000000" x2="266.600000" y2="36.000000"  transform="rotate(0.000000,266.600000,36.000000)" style="stroke: black; stroke-width:0.25;"/>
<line x1="263.600000" y1="43.000000" x2="266.600000" y2="44.000000"  transform="rotate(0.000000,266.600000,44.000000)" style="stroke: black; stroke-width:0.25;"/>
<line x1="263.600000" y1="45.000000" x2="266.600000" y2="44.000000"  transform="rotate(0.000000,266.600000,44.000000)" style="stroke: black; stroke-width:0.25;"/>
<line x1="10.000000" y1="36.000000" x2="20.000000" y2="36.000000"  style="stroke:black; stroke-linecap:round; stroke-width:0.25;"/>
<line x1="10.000000" y1="44.000000" x2="20.000000" y2="44.000000"  style="stroke:black; stroke-linecap:round; stroke-width:0.25;"/>
<line x1="20.000000" y1="36.000000" x2="24.000000" y2="36.000000"  style="stroke:black; stroke-linecap:round; stroke-width:0.25;"/>
<line x1="20.000000" y1="44.000000" x2="24.000000" y2="44.000000"  style="stroke:black; stroke-linecap:round; stroke-width:0.25;"/>
<line x1="24.000000" y1="36.000000" x2="28.000000" y2="36.000000"  style="stroke:black; stroke-linecap:round; stroke-width:0.25;"/>
<line x1="24.000000" y1="44.000000" x2="28.000000" y2="44.000000"  style="stroke:black; stroke-linecap:round; stroke-width:0.25;"/>
<line x1="28.000000" y1="36.000000" x2="28.000000" y2="36.000000"  style="stroke:black; stroke-linecap:round; stroke-width:0.25;"/>
<line x1="28.000000" y1="36.000000" x2="32.000000" y2="36.000000"  style="stroke:black; stroke-linecap:round; stroke-width:0.25;"/>
<line x1="28.000000" y1="44.000000" x2="28.000000" y2="44.000000"  style="stroke:black; stroke-linecap:round; stroke-width:0.25;"/>
<line x1="28.000000" y1="44.000000" x2="32.000000" y2="44.000000"  style="stroke:black; stroke-linecap:round; stroke-width:0.25;"/>
<line x1="57.800000" y1="36.000000" x2="61.800000" y2="36.000000"  style="stroke:black; stroke-linecap:round; stroke-width:0.25;"/>
<line x1="57.800000" y1="44.000000" x2="61.800000" y2="44.000000"  style="stroke:black; stroke-linecap:round; stroke-width:0.25;"/>
<line x1="61.800000" y1="24.000000" x2="69.800000" y2="24.000000"  style="stroke:black; stroke-linecap:round; stroke-width:0.25;"/>
<line x1="61.800000" y1="36.000000" x2="61.800000" y2="24.000000"  style="stroke:black; stroke-linecap:round; stroke-width:0.25;"/>
<line x1="61.800000" y1="36.000000" x2="61.800000" y2="36.000000"  style="stroke:black; stroke-linecap:round; stroke-width:0.25;"/>
<line x1="61.800000" y1="44.000000" x2="69.800000" y2="44.000000"  style="stroke:black; stroke-linecap:round; stroke-width:0.25;"/>
<line x1="69.800000" y1="44.000000" x2="73.800000" y2="44.000000"  style="stroke:black; stroke-linecap:round; stroke-width:0.25;"/>
<line x1="69.800000" y1="24.000000" x2="138.300000" y2="24.000000"  style="stroke:black; stroke-linecap:round; stroke-width:0.25;"/>
<line x1="138.300000" y1="24.000000" x2="206.800000" y2="24.000000"  style="stroke:black; stroke-linecap:round; stroke-width:0.25;"/>
<line x1="202.800000" y1="44.000000" x2="206.800000" y2="44.000000"  style="stroke:black; stroke-linecap:round; stroke-width:0.25;"/>
<line x1="206.800000" y1="24.000000" x2="214.800000" y2="24.000000"  style="stroke:black; stroke-linecap:round; stroke-width:0.25;"/>
<line x1="206.800000" y1="44.000000" x2="214.800000" y2="44.000000"  style="stroke:black; stroke-linecap:round; stroke-width:0.25;"/>
<line x1="214.800000" y1="24.000000" x2="214.800000" y2="36.000000"  style="stroke:black; stroke-linecap:round; stroke-width:0.25;"/>
<line x1="214.800000" y1="36.000000" x2="214.800000" y2="36.000000"  style="stroke:black; stroke-linecap:round; stroke-width:0.25;"/>
<line x1="214.800000" y1="36.000000" x2="218.800000" y2="36.000000"  style="stroke:black; stroke-linecap:round; stroke-width:0.25;"/>
<line x1="214.800000" y1="44.000000" x2="218.800000" y2="44.000000"  style="stroke:black; stroke-linecap:round; stroke-width:0.25;"/>
<line x1="244.600000" y1="36.000000" x2="248.600000" y2="36.000000"  style="stroke:black; stroke-linecap:round; stroke-width:0.25;"/>
<line x1="244.600000" y1="44.000000" x2="248.600000" y2="44.000000"  style="stroke:black; stroke-linecap:round; stroke-width:0.25;"/>
<line x1="248.600000" y1="36.000000" x2="248.600000" y2="36.000000"  style="stroke:black; stroke-linecap:round; stroke-width:0.25;"/>
<line x1="248.600000" y1="36.000000" x2="252.600000" y2="36.000000"  style="stroke:black; stroke-linecap:round; stroke-width:0.25;"/>
<line x1="248.600000" y1="44.000000" x2="248.600000" y2="44.000000"  style="stroke:black; stroke-linecap:round; stroke-width:0.25;"/>
<line x1="248.600000" y1="44.000000" x2="252.600000" y2="44.000000"  style="stroke:black; stroke-linecap:round; stroke-width:0.25;"/>
<line x1="252.600000" y1="36.000000" x2="256.600000" y2="36.000000"  style="stroke:black; stroke-linecap:round; stroke-width:0.25;"/>
<line x1="252.600000" y1="44.000000" x2="256.600000" y2="44.000000"  style="stroke:black; stroke-linecap:round; stroke-width:0.25;"/>
<line x1="256.600000" y1="36.000000" x2="266.600000" y2="36.000000"  style="stroke:black; stroke-linecap:round; stroke-width:0.25;"/>
<line x1="256.600000" y1="44.000000" x2="266.600000" y2="44.000000"  style="stroke:black; stroke-linecap:round; stroke-width:0.25;"/>
</svg>
