<?xml version="1.0"?>
<svg xmlns="http://www.w3.org/2000/svg" xmlns:xlink="http://www.w3.org/1999/xlink" viewBox="0 0 401.000000 140.000000" width="200.500000mm" height="70.000000mm" version="1.1">
<a xlink:href="slidingMean-0x6000b008a400.svg">
<rect x="1.000000" y="1.000000" width="400.000000" height="139.000000" rx="0" ry="0" style="stroke:none;fill:#cccccc;"/>
<rect x="0.000000" y="0.000000" width="400.000000" height="139.000000" rx="0" ry="0" style="stroke:none;fill:#ffffff;"/>
</a>
<text x="10.000000" y="7.000000" font-family="Arial" font-size="7"></text>
<rect x="59.000000" y="63.000000" width="24.000000" height="24.000000" rx="0" ry="0" style="stroke:none;fill:#cccccc;"/>
<rect x="58.000000" y="62.000000" width="24.000000" height="24.000000" rx="0" ry="0" style="stroke:none;fill:#4B71A1;"/>
<text x="70.000000" y="76.000000" font-family="Arial" font-size="7" text-anchor="middle" fill="#FFFFFF">+</text>
<circle cx="60.000000" cy="64.000000" r="1"/>
<line x1="55.000000" y1="69.000000" x2="58.000000" y2="70.000000"  transform="rotate(0.000000,58.000000,70.000000)" style="stroke: black; stroke-width:0.25;"/>
<line x1="55.000000" y1="71.000000" x2="58.000000" y2="70.000000"  transform="rotate(0.000000,58.000000,70.000000)" style="stroke: black; stroke-width:0.25;"/>
<line x1="55.000000" y1="77.000000" x2="58.000000" y2="78.000000"  transform="rotate(0.000000,58.000000,78.000000)" style="stroke: black; stroke-width:0.25;"/>
<line x1="55.000000" y1="79.000000" x2="58.000000" y2="78.000000"  transform="rotate(0.000000,58.000000,78.000000)" style="stroke: black; stroke-width:0.25;"/>
<line x1="84.000000" y1="74.000000" x2="84.000000" y2="70.000000"  style="stroke:black; stroke-linecap:round; stroke-width:0.25;"/>
<line x1="84.000000" y1="70.000000" x2="88.000000" y2="70.000000"  style="stroke:black; stroke-linecap:round; stroke-width:0.25;"/>
<line x1="88.000000" y1="70.000000" x2="88.000000" y2="74.000000"  style="stroke:black; stroke-linecap:round; stroke-width:0.25;"/>
<line x1="41.000000" y1="45.000000" x2="41.000000" y2="95.000000"  style="stroke: black; stroke-linecap:round; stroke-width:0.25; stroke-dasharray:3,3;"/>
<line x1="41.000000" y1="95.000000" x2="99.000000" y2="95.000000"  style="stroke: black; stroke-linecap:round; stroke-width:0.25; stroke-dasharray:3,3;"/>
<line x1="99.000000" y1="95.000000" x2="99.000000" y2="45.000000"  style="stroke: black; stroke-linecap:round; stroke-width:0.25; stroke-dasharray:3,3;"/>
<line x1="41.000000" y1="45.000000" x2="46.000000" y2="45.000000"  style="stroke: black; stroke-linecap:round; stroke-width:0.25; stroke-dasharray:3,3;"/>
<line x1="84.700000" y1="45.000000" x2="99.000000" y2="45.000000"  style="stroke: black; stroke-linecap:round; stroke-width:0.25; stroke-dasharray:3,3;"/>
<text x="46.000000" y="47.000000" font-family="Arial" font-size="7">integrator</text>
<rect x="159.000000" y="51.000000" width="24.000000" height="24.000000" rx="0" ry="0" style="stroke:none;fill:#cccccc;"/>
<rect x="158.000000" y="50.000000" width="24.000000" height="24.000000" rx="0" ry="0" style="stroke:none;fill:#f44800;"/>
<text x="170.000000" y="64.000000" font-family="Arial" font-size="7" text-anchor="middle" fill="#FFFFFF">0</text>
<circle cx="160.000000" cy="52.000000" r="1"/>
<line x1="149.000000" y1="41.000000" x2="149.000000" y2="83.000000"  style="stroke: black; stroke-linecap:round; stroke-width:0.25; stroke-dasharray:3,3;"/>
<line x1="149.000000" y1="83.000000" x2="191.000000" y2="83.000000"  style="stroke: black; stroke-linecap:round; stroke-width:0.25; stroke-dasharray:3,3;"/>
<line x1="191.000000" y1="83.000000" x2="191.000000" y2="41.000000"  style="stroke: black; stroke-linecap:round; stroke-width:0.25; stroke-dasharray:3,3;"/>
<line x1="149.000000" y1="41.000000" x2="154.000000" y2="41.000000"  style="stroke: black; stroke-linecap:round; stroke-width:0.25; stroke-dasharray:3,3;"/>
<line x1="186.250000" y1="41.000000" x2="191.000000" y2="41.000000"  style="stroke: black; stroke-linecap:round; stroke-width:0.25; stroke-dasharray:3,3;"/>
<text x="154.000000" y="43.000000" font-family="Arial" font-size="7">clipCond</text>
<a xlink:href="s-0x6000b0091050.svg">
<rect x="159.000000" y="93.000000" width="24.000000" height="24.000000" rx="0" ry="0" style="stroke:none;fill:#cccccc;"/>
<rect x="158.000000" y="92.000000" width="24.000000" height="24.000000" rx="0" ry="0" style="stroke:none;fill:#003366;"/>
</a>
<a xlink:href="s-0x6000b0091050.svg">
<text x="170.000000" y="106.000000" font-family="Arial" font-size="7" text-anchor="middle" fill="#FFFFFF">s</text>
</a>
<circle cx="160.000000" cy="94.000000" r="1"/>
<rect x="209.000000" y="67.000000" width="24.000000" height="24.000000" rx="0" ry="0" style="stroke:none;fill:#cccccc;"/>
<rect x="208.000000" y="66.000000" width="24.000000" height="24.000000" rx="0" ry="0" style="stroke:none;fill:#4B71A1;"/>
<text x="220.000000" y="80.000000" font-family="Arial" font-size="7" text-anchor="middle" fill="#FFFFFF">max</text>
<circle cx="210.000000" cy="68.000000" r="1"/>
<line x1="205.000000" y1="73.000000" x2="208.000000" y2="74.000000"  transform="rotate(0.000000,208.000000,74.000000)" style="stroke: black; stroke-width:0.25;"/>
<line x1="205.000000" y1="75.000000" x2="208.000000" y2="74.000000"  transform="rotate(0.000000,208.000000,74.000000)" style="stroke: black; stroke-width:0.25;"/>
<line x1="205.000000" y1="81.000000" x2="208.000000" y2="82.000000"  transform="rotate(0.000000,208.000000,82.000000)" style="stroke: black; stroke-width:0.25;"/>
<line x1="205.000000" y1="83.000000" x2="208.000000" y2="82.000000"  transform="rotate(0.000000,208.000000,82.000000)" style="stroke: black; stroke-width:0.25;"/>
<rect x="241.000000" y="67.000000" width="24.000000" height="24.000000" rx="0" ry="0" style="stroke:none;fill:#cccccc;"/>
<rect x="240.000000" y="66.000000" width="24.000000" height="24.000000" rx="0" ry="0" style="stroke:none;fill:#4B71A1;"/>
<text x="252.000000" y="80.000000" font-family="Arial" font-size="7" text-anchor="middle" fill="#FFFFFF">int</text>
<circle cx="242.000000" cy="68.000000" r="1"/>
<line x1="237.000000" y1="77.000000" x2="240.000000" y2="78.000000"  transform="rotate(0.000000,240.000000,78.000000)" style="stroke: black; stroke-width:0.25;"/>
<line x1="237.000000" y1="79.000000" x2="240.000000" y2="78.000000"  transform="rotate(0.000000,240.000000,78.000000)" style="stroke: black; stroke-width:0.25;"/>
<rect x="281.000000" y="63.000000" width="24.000000" height="24.000000" rx="0" ry="0" style="stroke:none;fill:#cccccc;"/>
<rect x="280.000000" y="62.000000" width="24.000000" height="24.000000" rx="0" ry="0" style="stroke:none;fill:#4B71A1;"/>
<text x="292.000000" y="76.000000" font-family="Arial" font-size="7" text-anchor="middle" fill="#FFFFFF">@</text>
<circle cx="282.000000" cy="64.000000" r="1"/>
<line x1="277.000000" y1="69.000000" x2="280.000000" y2="70.000000"  transform="rotate(0.000000,280.000000,70.000000)" style="stroke: black; stroke-width:0.25;"/>
<line x1="277.000000" y1="71.000000" x2="280.000000" y2="70.000000"  transform="rotate(0.000000,280.000000,70.000000)" style="stroke: black; stroke-width:0.25;"/>
<line x1="277.000000" y1="77.000000" x2="280.000000" y2="78.000000"  transform="rotate(0.000000,280.000000,78.000000)" style="stroke: black; stroke-width:0.25;"/>
<line x1="277.000000" y1="79.000000" x2="280.000000" y2="78.000000"  transform="rotate(0.000000,280.000000,78.000000)" style="stroke: black; stroke-width:0.25;"/>
<rect x="346.000000" y="59.000000" width="24.000000" height="24.000000" rx="0" ry="0" style="stroke:none;fill:#cccccc;"/>
<rect x="345.000000" y="58.000000" width="24.000000" height="24.000000" rx="0" ry="0" style="stroke:none;fill:#4B71A1;"/>
<text x="357.000000" y="72.000000" font-family="Arial" font-size="7" text-anchor="middle" fill="#FFFFFF">-</text>
<circle cx="347.000000" cy="60.000000" r="1"/>
<line x1="342.000000" y1="65.000000" x2="345.000000" y2="66.000000"  transform="rotate(0.000000,345.000000,66.000000)" style="stroke: black; stroke-width:0.25;"/>
<line x1="342.000000" y1="67.000000" x2="345.000000" y2="66.000000"  transform="rotate(0.000000,345.000000,66.000000)" style="stroke: black; stroke-width:0.25;"/>
<line x1="342.000000" y1="73.000000" x2="345.000000" y2="74.000000"  transform="rotate(0.000000,345.000000,74.000000)" style="stroke: black; stroke-width:0.25;"/>
<line x1="342.000000" y1="75.000000" x2="345.000000" y2="74.000000"  transform="rotate(0.000000,345.000000,74.000000)" style="stroke: black; stroke-width:0.25;"/>
<line x1="15.000000" y1="15.000000" x2="15.000000" y2="125.000000"  style="stroke: black; stroke-linecap:round; stroke-width:0.25; stroke-dasharray:3,3;"/>
<line x1="15.000000" y1="125.000000" x2="386.000000" y2="125.000000"  style="stroke: black; stroke-linecap:round; stroke-width:0.25; stroke-dasharray:3,3;"/>
<line x1="386.000000" y1="125.000000" x2="386.000000" y2="15.000000"  style="stroke: black; stroke-linecap:round; stroke-width:0.25; stroke-dasharray:3,3;"/>
<line x1="15.000000" y1="15.000000" x2="20.000000" y2="15.000000"  style="stroke: black; stroke-linecap:round; stroke-width:0.25; stroke-dasharray:3,3;"/>
<line x1="119.975000" y1="15.000000" x2="386.000000" y2="15.000000"  style="stroke: black; stroke-linecap:round; stroke-width:0.25; stroke-dasharray:3,3;"/>
<text x="20.000000" y="17.000000" font-family="Arial" font-size="7">slidingSum((v... : 1,_ : max)</text>
<line x1="388.000000" y1="69.000000" x2="391.000000" y2="70.000000"  transform="rotate(0.000000,391.000000,70.000000)" style="stroke: black; stroke-width:0.25;"/>
<line x1="388.000000" y1="71.000000" x2="391.000000" y2="70.000000"  transform="rotate(0.000000,391.000000,70.000000)" style="stroke: black; stroke-width:0.25;"/>
<line x1="10.000000" y1="70.000000" x2="20.000000" y2="70.000000"  style="stroke:black; stroke-linecap:round; stroke-width:0.25;"/>
<line x1="20.000000" y1="70.000000" x2="24.000000" y2="70.000000"  style="stroke:black; stroke-linecap:round; stroke-width:0.25;"/>
<line x1="24.000000" y1="70.000000" x2="28.000000" y2="70.000000"  style="stroke:black; stroke-linecap:round; stroke-width:0.25;"/>
<line x1="28.000000" y1="70.000000" x2="36.000000" y2="70.000000"  style="stroke:black; stroke-linecap:round; stroke-width:0.25;"/>
<line x1="36.000000" y1="70.000000" x2="36.000000" y2="78.000000"  style="stroke:black; stroke-linecap:round; stroke-width:0.25;"/>
<line x1="36.000000" y1="78.000000" x2="36.000000" y2="78.000000"  style="stroke:black; stroke-linecap:round; stroke-width:0.25;"/>
<line x1="36.000000" y1="78.000000" x2="46.000000" y2="78.000000"  style="stroke:black; stroke-linecap:round; stroke-width:0.25;"/>
<line x1="46.000000" y1="78.000000" x2="54.000000" y2="78.000000"  style="stroke:black; stroke-linecap:round; stroke-width:0.25;"/>
<line x1="54.000000" y1="54.000000" x2="54.000000" y2="54.000000"  style="stroke:black; stroke-linecap:round; stroke-width:0.25;"/>
<line x1="54.000000" y1="54.000000" x2="54.000000" y2="70.000000"  style="stroke:black; stroke-linecap:round; stroke-width:0.25;"/>
<line x1="54.000000" y1="70.000000" x2="54.000000" y2="70.000000"  style="stroke:black; stroke-linecap:round; stroke-width:0.25;"/>
<line x1="54.000000" y1="70.000000" x2="58.000000" y2="70.000000"  style="stroke:black; stroke-linecap:round; stroke-width:0.25;"/>
<line x1="54.000000" y1="78.000000" x2="58.000000" y2="78.000000"  style="stroke:black; stroke-linecap:round; stroke-width:0.25;"/>
<line x1="70.000000" y1="54.000000" x2="54.000000" y2="54.000000"  style="stroke:black; stroke-linecap:round; stroke-width:0.25;"/>
<line x1="82.000000" y1="74.000000" x2="86.000000" y2="74.000000"  style="stroke:black; stroke-linecap:round; stroke-width:0.25;"/>
<line x1="86.000000" y1="54.000000" x2="70.000000" y2="54.000000"  style="stroke:black; stroke-linecap:round; stroke-width:0.25;"/>
<line x1="86.000000" y1="54.000000" x2="86.000000" y2="54.000000"  style="stroke:black; stroke-linecap:round; stroke-width:0.25;"/>
<line x1="86.000000" y1="70.000000" x2="86.000000" y2="54.000000"  style="stroke:black; stroke-linecap:round; stroke-width:0.25;"/>
<line x1="86.000000" y1="74.000000" x2="88.000000" y2="74.000000"  style="stroke:black; stroke-linecap:round; stroke-width:0.25;"/>
<line x1="88.000000" y1="74.000000" x2="94.000000" y2="74.000000"  style="stroke:black; stroke-linecap:round; stroke-width:0.25;"/>
<line x1="94.000000" y1="74.000000" x2="104.000000" y2="74.000000"  style="stroke:black; stroke-linecap:round; stroke-width:0.25;"/>
<line x1="104.000000" y1="74.000000" x2="144.000000" y2="24.000000"  style="stroke:black; stroke-linecap:round; stroke-width:0.25;"/>
<line x1="104.000000" y1="74.000000" x2="144.000000" y2="32.000000"  style="stroke:black; stroke-linecap:round; stroke-width:0.25;"/>
<line x1="144.000000" y1="24.000000" x2="226.000000" y2="24.000000"  style="stroke:black; stroke-linecap:round; stroke-width:0.25;"/>
<line x1="144.000000" y1="32.000000" x2="206.000000" y2="32.000000"  style="stroke:black; stroke-linecap:round; stroke-width:0.25;"/>
<line x1="182.000000" y1="62.000000" x2="186.000000" y2="62.000000"  style="stroke:black; stroke-linecap:round; stroke-width:0.25;"/>
<line x1="182.000000" y1="104.000000" x2="186.000000" y2="104.000000"  style="stroke:black; stroke-linecap:round; stroke-width:0.25;"/>
<line x1="186.000000" y1="62.000000" x2="196.000000" y2="62.000000"  style="stroke:black; stroke-linecap:round; stroke-width:0.25;"/>
<line x1="186.000000" y1="104.000000" x2="196.000000" y2="104.000000"  style="stroke:black; stroke-linecap:round; stroke-width:0.25;"/>
<line x1="196.000000" y1="62.000000" x2="204.000000" y2="62.000000"  style="stroke:black; stroke-linecap:round; stroke-width:0.25;"/>
<line x1="196.000000" y1="82.000000" x2="204.000000" y2="82.000000"  style="stroke:black; stroke-linecap:round; stroke-width:0.25;"/>
<line x1="196.000000" y1="104.000000" x2="196.000000" y2="82.000000"  style="stroke:black; stroke-linecap:round; stroke-width:0.25;"/>
<line x1="196.000000" y1="104.000000" x2="196.000000" y2="104.000000"  style="stroke:black; stroke-linecap:round; stroke-width:0.25;"/>
<line x1="204.000000" y1="62.000000" x2="204.000000" y2="74.000000"  style="stroke:black; stroke-linecap:round; stroke-width:0.25;"/>
<line x1="204.000000" y1="74.000000" x2="204.000000" y2="74.000000"  style="stroke:black; stroke-linecap:round; stroke-width:0.25;"/>
<line x1="204.000000" y1="74.000000" x2="208.000000" y2="74.000000"  style="stroke:black; stroke-linecap:round; stroke-width:0.25;"/>
<line x1="204.000000" y1="82.000000" x2="208.000000" y2="82.000000"  style="stroke:black; stroke-linecap:round; stroke-width:0.25;"/>
<line x1="206.000000" y1="32.000000" x2="268.000000" y2="32.000000"  style="stroke:black; stroke-linecap:round; stroke-width:0.25;"/>
<line x1="226.000000" y1="24.000000" x2="308.000000" y2="24.000000"  style="stroke:black; stroke-linecap:round; stroke-width:0.25;"/>
<line x1="232.000000" y1="78.000000" x2="236.000000" y2="78.000000"  style="stroke:black; stroke-linecap:round; stroke-width:0.25;"/>
<line x1="236.000000" y1="78.000000" x2="236.000000" y2="78.000000"  style="stroke:black; stroke-linecap:round; stroke-width:0.25;"/>
<line x1="236.000000" y1="78.000000" x2="240.000000" y2="78.000000"  style="stroke:black; stroke-linecap:round; stroke-width:0.25;"/>
<line x1="264.000000" y1="78.000000" x2="268.000000" y2="78.000000"  style="stroke:black; stroke-linecap:round; stroke-width:0.25;"/>
<line x1="268.000000" y1="32.000000" x2="276.000000" y2="32.000000"  style="stroke:black; stroke-linecap:round; stroke-width:0.25;"/>
<line x1="268.000000" y1="78.000000" x2="276.000000" y2="78.000000"  style="stroke:black; stroke-linecap:round; stroke-width:0.25;"/>
<line x1="276.000000" y1="32.000000" x2="276.000000" y2="70.000000"  style="stroke:black; stroke-linecap:round; stroke-width:0.25;"/>
<line x1="276.000000" y1="70.000000" x2="276.000000" y2="70.000000"  style="stroke:black; stroke-linecap:round; stroke-width:0.25;"/>
<line x1="276.000000" y1="70.000000" x2="280.000000" y2="70.000000"  style="stroke:black; stroke-linecap:round; stroke-width:0.25;"/>
<line x1="276.000000" y1="78.000000" x2="280.000000" y2="78.000000"  style="stroke:black; stroke-linecap:round; stroke-width:0.25;"/>
<line x1="304.000000" y1="74.000000" x2="308.000000" y2="74.000000"  style="stroke:black; stroke-linecap:round; stroke-width:0.25;"/>
<line x1="308.000000" y1="24.000000" x2="341.000000" y2="66.000000"  style="stroke:black; stroke-linecap:round; stroke-width:0.25;"/>
<line x1="308.000000" y1="74.000000" x2="341.000000" y2="74.000000"  style="stroke:black; stroke-linecap:round; stroke-width:0.25;"/>
<line x1="341.000000" y1="66.000000" x2="345.000000" y2="66.000000"  style="stroke:black; stroke-linecap:round; stroke-width:0.25;"/>
<line x1="341.000000" y1="74.000000" x2="345.000000" y2="74.000000"  style="stroke:black; stroke-linecap:round; stroke-width:0.25;"/>
<line x1="369.000000" y1="70.000000" x2="373.000000" y2="70.000000"  style="stroke:black; stroke-linecap:round; stroke-width:0.25;"/>
<line x1="373.000000" y1="70.000000" x2="373.000000" y2="70.000000"  style="stroke:black; stroke-linecap:round; stroke-width:0.25;"/>
<line x1="373.000000" y1="70.000000" x2="377.000000" y2="70.000000"  style="stroke:black; stroke-linecap:round; stroke-width:0.25;"/>
<line x1="377.000000" y1="70.000000" x2="381.000000" y2="70.000000"  style="stroke:black; stroke-linecap:round; stroke-width:0.25;"/>
<line x1="381.000000" y1="70.000000" x2="391.000000" y2="70.000000"  style="stroke:black; stroke-linecap:round; stroke-width:0.25;"/>
</svg>
