<?xml version="1.0"?>
<svg xmlns="http://www.w3.org/2000/svg" xmlns:xlink="http://www.w3.org/1999/xlink" viewBox="0 0 193.000000 72.000000" width="96.500000mm" height="36.000000mm" version="1.1">
<a xlink:href="bp2-0x60015018a640.svg">
<rect x="1.000000" y="1.000000" width="192.000000" height="71.000000" rx="0" ry="0" style="stroke:none;fill:#cccccc;"/>
<rect x="0.000000" y="0.000000" width="192.000000" height="71.000000" rx="0" ry="0" style="stroke:none;fill:#ffffff;"/>
</a>
<text x="10.000000" y="7.000000" font-family="Arial" font-size="7"></text>
<rect x="25.000000" y="25.000000" width="103.200000" height="24.000000" rx="0" ry="0" style="stroke:none;fill:#cccccc;"/>
<rect x="24.000000" y="24.000000" width="103.200000" height="24.000000" rx="0" ry="0" style="stroke:none;fill:#477881;"/>
<text x="75.600000" y="38.000000" font-family="Arial" font-size="7" text-anchor="middle" fill="#FFFFFF">checkbox(global bypass)</text>
<circle cx="26.000000" cy="26.000000" r="1"/>
<a xlink:href="smoo-0x6000b00b7180.svg">
<rect x="136.200000" y="25.000000" width="25.800000" height="24.000000" rx="0" ry="0" style="stroke:none;fill:#cccccc;"/>
<rect x="135.200000" y="24.000000" width="25.800000" height="24.000000" rx="0" ry="0" style="stroke:none;fill:#003366;"/>
</a>
<a xlink:href="smoo-0x6000b00b7180.svg">
<text x="148.100000" y="38.000000" font-family="Arial" font-size="7" text-anchor="middle" fill="#FFFFFF">smoo</text>
</a>
<circle cx="137.200000" cy="26.000000" r="1"/>
<line x1="132.200000" y1="35.000000" x2="135.200000" y2="36.000000"  transform="rotate(0.000000,135.200000,36.000000)" style="stroke: black; stroke-width:0.25;"/>
<line x1="132.200000" y1="37.000000" x2="135.200000" y2="36.000000"  transform="rotate(0.000000,135.200000,36.000000)" style="stroke: black; stroke-width:0.25;"/>
<line x1="15.000000" y1="15.000000" x2="15.000000" y2="57.000000"  style="stroke: black; stroke-linecap:round; stroke-width:0.25; stroke-dasharray:3,3;"/>
<line x1="15.000000" y1="57.000000" x2="178.000000" y2="57.000000"  style="stroke: black; stroke-linecap:round; stroke-width:0.25; stroke-dasharray:3,3;"/>
<line x1="178.000000" y1="57.000000" x2="178.000000" y2="15.000000"  style="stroke: black; stroke-linecap:round; stroke-width:0.25; stroke-dasharray:3,3;"/>
<line x1="15.000000" y1="15.000000" x2="20.000000" y2="15.000000"  style="stroke: black; stroke-linecap:round; stroke-width:0.25; stroke-dasharray:3,3;"/>
<line x1="32.900000" y1="15.000000" x2="178.000000" y2="15.000000"  style="stroke: black; stroke-linecap:round; stroke-width:0.25; stroke-dasharray:3,3;"/>
<text x="20.000000" y="17.000000" font-family="Arial" font-size="7">sm</text>
<line x1="180.000000" y1="35.000000" x2="183.000000" y2="36.000000"  transform="rotate(0.000000,183.000000,36.000000)" style="stroke: black; stroke-width:0.25;"/>
<line x1="180.000000" y1="37.000000" x2="183.000000" y2="36.000000"  transform="rotate(0.000000,183.000000,36.000000)" style="stroke: black; stroke-width:0.25;"/>
<line x1="127.200000" y1="36.000000" x2="131.200000" y2="36.000000"  style="stroke:black; stroke-linecap:round; stroke-width:0.25;"/>
<line x1="131.200000" y1="36.000000" x2="131.200000" y2="36.000000"  style="stroke:black; stroke-linecap:round; stroke-width:0.25;"/>
<line x1="131.200000" y1="36.000000" x2="135.200000" y2="36.000000"  style="stroke:black; stroke-linecap:round; stroke-width:0.25;"/>
<line x1="161.000000" y1="36.000000" x2="165.000000" y2="36.000000"  style="stroke:black; stroke-linecap:round; stroke-width:0.25;"/>
<line x1="165.000000" y1="36.000000" x2="165.000000" y2="36.000000"  style="stroke:black; stroke-linecap:round; stroke-width:0.25;"/>
<line x1="165.000000" y1="36.000000" x2="169.000000" y2="36.000000"  style="stroke:black; stroke-linecap:round; stroke-width:0.25;"/>
<line x1="169.000000" y1="36.000000" x2="173.000000" y2="36.000000"  style="stroke:black; stroke-linecap:round; stroke-width:0.25;"/>
<line x1="173.000000" y1="36.000000" x2="183.000000" y2="36.000000"  style="stroke:black; stroke-linecap:round; stroke-width:0.25;"/>
</svg>
