<?xml version="1.0"?>
<svg xmlns="http://www.w3.org/2000/svg" xmlns:xlink="http://www.w3.org/1999/xlink" viewBox="0 0 388.000000 360.000000" width="194.000000mm" height="180.000000mm" version="1.1">
<a xlink:href="kfilter-0x60002c38ebe0.svg">
<rect x="1.000000" y="1.000000" width="387.000000" height="359.000000" rx="0" ry="0" style="stroke:none;fill:#cccccc;"/>
<rect x="0.000000" y="0.000000" width="387.000000" height="359.000000" rx="0" ry="0" style="stroke:none;fill:#ffffff;"/>
</a>
<text x="10.000000" y="7.000000" font-family="Arial" font-size="7"></text>
<a xlink:href="b2-0x60002c3918c0.svg">
<rect x="97.000000" y="233.000000" width="24.000000" height="24.000000" rx="0" ry="0" style="stroke:none;fill:#cccccc;"/>
<rect x="96.000000" y="232.000000" width="24.000000" height="24.000000" rx="0" ry="0" style="stroke:none;fill:#003366;"/>
</a>
<a xlink:href="b2-0x60002c3918c0.svg">
<text x="108.000000" y="246.000000" font-family="Arial" font-size="7" text-anchor="middle" fill="#FFFFFF">b2</text>
</a>
<circle cx="98.000000" cy="234.000000" r="1"/>
<rect x="137.000000" y="229.000000" width="24.000000" height="24.000000" rx="0" ry="0" style="stroke:none;fill:#cccccc;"/>
<rect x="136.000000" y="228.000000" width="24.000000" height="24.000000" rx="0" ry="0" style="stroke:none;fill:#4B71A1;"/>
<text x="148.000000" y="242.000000" font-family="Arial" font-size="7" text-anchor="middle" fill="#FFFFFF">*</text>
<circle cx="138.000000" cy="230.000000" r="1"/>
<line x1="133.000000" y1="235.000000" x2="136.000000" y2="236.000000"  transform="rotate(0.000000,136.000000,236.000000)" style="stroke: black; stroke-width:0.25;"/>
<line x1="133.000000" y1="237.000000" x2="136.000000" y2="236.000000"  transform="rotate(0.000000,136.000000,236.000000)" style="stroke: black; stroke-width:0.25;"/>
<line x1="133.000000" y1="243.000000" x2="136.000000" y2="244.000000"  transform="rotate(0.000000,136.000000,244.000000)" style="stroke: black; stroke-width:0.25;"/>
<line x1="133.000000" y1="245.000000" x2="136.000000" y2="244.000000"  transform="rotate(0.000000,136.000000,244.000000)" style="stroke: black; stroke-width:0.25;"/>
<rect x="169.000000" y="229.000000" width="24.000000" height="24.000000" rx="0" ry="0" style="stroke:none;fill:#cccccc;"/>
<rect x="168.000000" y="228.000000" width="24.000000" height="24.000000" rx="0" ry="0" style="stroke:none;fill:#4B71A1;"/>
<text x="180.000000" y="242.000000" font-family="Arial" font-size="7" text-anchor="middle" fill="#FFFFFF">mem</text>
<circle cx="170.000000" cy="230.000000" r="1"/>
<line x1="165.000000" y1="239.000000" x2="168.000000" y2="240.000000"  transform="rotate(0.000000,168.000000,240.000000)" style="stroke: black; stroke-width:0.25;"/>
<line x1="165.000000" y1="241.000000" x2="168.000000" y2="240.000000"  transform="rotate(0.000000,168.000000,240.000000)" style="stroke: black; stroke-width:0.25;"/>
<a xlink:href="b1-0x60002c392640.svg">
<rect x="97.000000" y="273.000000" width="24.000000" height="24.000000" rx="0" ry="0" style="stroke:none;fill:#cccccc;"/>
<rect x="96.000000" y="272.000000" width="24.000000" height="24.000000" rx="0" ry="0" style="stroke:none;fill:#003366;"/>
</a>
<a xlink:href="b1-0x60002c392640.svg">
<text x="108.000000" y="286.000000" font-family="Arial" font-size="7" text-anchor="middle" fill="#FFFFFF">b1</text>
</a>
<circle cx="98.000000" cy="274.000000" r="1"/>
<rect x="137.000000" y="269.000000" width="24.000000" height="24.000000" rx="0" ry="0" style="stroke:none;fill:#cccccc;"/>
<rect x="136.000000" y="268.000000" width="24.000000" height="24.000000" rx="0" ry="0" style="stroke:none;fill:#4B71A1;"/>
<text x="148.000000" y="282.000000" font-family="Arial" font-size="7" text-anchor="middle" fill="#FFFFFF">*</text>
<circle cx="138.000000" cy="270.000000" r="1"/>
<line x1="133.000000" y1="275.000000" x2="136.000000" y2="276.000000"  transform="rotate(0.000000,136.000000,276.000000)" style="stroke: black; stroke-width:0.25;"/>
<line x1="133.000000" y1="277.000000" x2="136.000000" y2="276.000000"  transform="rotate(0.000000,136.000000,276.000000)" style="stroke: black; stroke-width:0.25;"/>
<line x1="133.000000" y1="283.000000" x2="136.000000" y2="284.000000"  transform="rotate(0.000000,136.000000,284.000000)" style="stroke: black; stroke-width:0.25;"/>
<line x1="133.000000" y1="285.000000" x2="136.000000" y2="284.000000"  transform="rotate(0.000000,136.000000,284.000000)" style="stroke: black; stroke-width:0.25;"/>
<rect x="169.000000" y="269.000000" width="24.000000" height="24.000000" rx="0" ry="0" style="stroke:none;fill:#cccccc;"/>
<rect x="168.000000" y="268.000000" width="24.000000" height="24.000000" rx="0" ry="0" style="stroke:none;fill:#4B71A1;"/>
<text x="180.000000" y="282.000000" font-family="Arial" font-size="7" text-anchor="middle" fill="#FFFFFF">mem</text>
<circle cx="170.000000" cy="270.000000" r="1"/>
<line x1="165.000000" y1="279.000000" x2="168.000000" y2="280.000000"  transform="rotate(0.000000,168.000000,280.000000)" style="stroke: black; stroke-width:0.25;"/>
<line x1="165.000000" y1="281.000000" x2="168.000000" y2="280.000000"  transform="rotate(0.000000,168.000000,280.000000)" style="stroke: black; stroke-width:0.25;"/>
<a xlink:href="b2-0x60002c3918c0.svg">
<rect x="113.000000" y="313.000000" width="24.000000" height="24.000000" rx="0" ry="0" style="stroke:none;fill:#cccccc;"/>
<rect x="112.000000" y="312.000000" width="24.000000" height="24.000000" rx="0" ry="0" style="stroke:none;fill:#003366;"/>
</a>
<a xlink:href="b2-0x60002c3918c0.svg">
<text x="124.000000" y="326.000000" font-family="Arial" font-size="7" text-anchor="middle" fill="#FFFFFF">b2</text>
</a>
<circle cx="114.000000" cy="314.000000" r="1"/>
<rect x="153.000000" y="309.000000" width="24.000000" height="24.000000" rx="0" ry="0" style="stroke:none;fill:#cccccc;"/>
<rect x="152.000000" y="308.000000" width="24.000000" height="24.000000" rx="0" ry="0" style="stroke:none;fill:#4B71A1;"/>
<text x="164.000000" y="322.000000" font-family="Arial" font-size="7" text-anchor="middle" fill="#FFFFFF">*</text>
<circle cx="154.000000" cy="310.000000" r="1"/>
<line x1="149.000000" y1="315.000000" x2="152.000000" y2="316.000000"  transform="rotate(0.000000,152.000000,316.000000)" style="stroke: black; stroke-width:0.25;"/>
<line x1="149.000000" y1="317.000000" x2="152.000000" y2="316.000000"  transform="rotate(0.000000,152.000000,316.000000)" style="stroke: black; stroke-width:0.25;"/>
<line x1="149.000000" y1="323.000000" x2="152.000000" y2="324.000000"  transform="rotate(0.000000,152.000000,324.000000)" style="stroke: black; stroke-width:0.25;"/>
<line x1="149.000000" y1="325.000000" x2="152.000000" y2="324.000000"  transform="rotate(0.000000,152.000000,324.000000)" style="stroke: black; stroke-width:0.25;"/>
<rect x="233.000000" y="257.000000" width="24.000000" height="24.000000" rx="0" ry="0" style="stroke:none;fill:#cccccc;"/>
<rect x="232.000000" y="256.000000" width="24.000000" height="24.000000" rx="0" ry="0" style="stroke:none;fill:#4B71A1;"/>
<text x="244.000000" y="270.000000" font-family="Arial" font-size="7" text-anchor="middle" fill="#FFFFFF">+</text>
<circle cx="234.000000" cy="258.000000" r="1"/>
<line x1="229.000000" y1="263.000000" x2="232.000000" y2="264.000000"  transform="rotate(0.000000,232.000000,264.000000)" style="stroke: black; stroke-width:0.25;"/>
<line x1="229.000000" y1="265.000000" x2="232.000000" y2="264.000000"  transform="rotate(0.000000,232.000000,264.000000)" style="stroke: black; stroke-width:0.25;"/>
<line x1="229.000000" y1="271.000000" x2="232.000000" y2="272.000000"  transform="rotate(0.000000,232.000000,272.000000)" style="stroke: black; stroke-width:0.25;"/>
<line x1="229.000000" y1="273.000000" x2="232.000000" y2="272.000000"  transform="rotate(0.000000,232.000000,272.000000)" style="stroke: black; stroke-width:0.25;"/>
<rect x="265.000000" y="257.000000" width="24.000000" height="24.000000" rx="0" ry="0" style="stroke:none;fill:#cccccc;"/>
<rect x="264.000000" y="256.000000" width="24.000000" height="24.000000" rx="0" ry="0" style="stroke:none;fill:#4B71A1;"/>
<text x="276.000000" y="270.000000" font-family="Arial" font-size="7" text-anchor="middle" fill="#FFFFFF">mem</text>
<circle cx="266.000000" cy="258.000000" r="1"/>
<line x1="261.000000" y1="267.000000" x2="264.000000" y2="268.000000"  transform="rotate(0.000000,264.000000,268.000000)" style="stroke: black; stroke-width:0.25;"/>
<line x1="261.000000" y1="269.000000" x2="264.000000" y2="268.000000"  transform="rotate(0.000000,264.000000,268.000000)" style="stroke: black; stroke-width:0.25;"/>
<rect x="223.000000" y="159.000000" width="24.000000" height="24.000000" rx="0" ry="0" style="stroke:none;fill:#cccccc;"/>
<rect x="222.000000" y="158.000000" width="24.000000" height="24.000000" rx="0" ry="0" style="stroke:none;fill:#f44800;"/>
<text x="234.000000" y="172.000000" font-family="Arial" font-size="7" text-anchor="middle" fill="#FFFFFF">0</text>
<circle cx="244.000000" cy="180.000000" r="1"/>
<line x1="213.000000" y1="149.000000" x2="213.000000" y2="191.000000"  style="stroke: black; stroke-linecap:round; stroke-width:0.25; stroke-dasharray:3,3;"/>
<line x1="213.000000" y1="191.000000" x2="255.000000" y2="191.000000"  style="stroke: black; stroke-linecap:round; stroke-width:0.25; stroke-dasharray:3,3;"/>
<line x1="255.000000" y1="191.000000" x2="255.000000" y2="149.000000"  style="stroke: black; stroke-linecap:round; stroke-width:0.25; stroke-dasharray:3,3;"/>
<line x1="213.000000" y1="149.000000" x2="218.000000" y2="149.000000"  style="stroke: black; stroke-linecap:round; stroke-width:0.25; stroke-dasharray:3,3;"/>
<line x1="250.250000" y1="149.000000" x2="255.000000" y2="149.000000"  style="stroke: black; stroke-linecap:round; stroke-width:0.25; stroke-dasharray:3,3;"/>
<text x="218.000000" y="151.000000" font-family="Arial" font-size="7">clipCond</text>
<a xlink:href="a1-0x60002c390b40.svg">
<rect x="223.000000" y="117.000000" width="24.000000" height="24.000000" rx="0" ry="0" style="stroke:none;fill:#cccccc;"/>
<rect x="222.000000" y="116.000000" width="24.000000" height="24.000000" rx="0" ry="0" style="stroke:none;fill:#003366;"/>
</a>
<a xlink:href="a1-0x60002c390b40.svg">
<text x="234.000000" y="130.000000" font-family="Arial" font-size="7" text-anchor="middle" fill="#FFFFFF">a1</text>
</a>
<circle cx="244.000000" cy="138.000000" r="1"/>
<rect x="173.000000" y="143.000000" width="24.000000" height="24.000000" rx="0" ry="0" style="stroke:none;fill:#cccccc;"/>
<rect x="172.000000" y="142.000000" width="24.000000" height="24.000000" rx="0" ry="0" style="stroke:none;fill:#4B71A1;"/>
<text x="184.000000" y="156.000000" font-family="Arial" font-size="7" text-anchor="middle" fill="#FFFFFF">-</text>
<circle cx="194.000000" cy="164.000000" r="1"/>
<line x1="199.000000" y1="157.000000" x2="196.000000" y2="158.000000"  transform="rotate(0.000000,196.000000,158.000000)" style="stroke: black; stroke-width:0.25;"/>
<line x1="199.000000" y1="159.000000" x2="196.000000" y2="158.000000"  transform="rotate(0.000000,196.000000,158.000000)" style="stroke: black; stroke-width:0.25;"/>
<line x1="199.000000" y1="149.000000" x2="196.000000" y2="150.000000"  transform="rotate(0.000000,196.000000,150.000000)" style="stroke: black; stroke-width:0.25;"/>
<line x1="199.000000" y1="151.000000" x2="196.000000" y2="150.000000"  transform="rotate(0.000000,196.000000,150.000000)" style="stroke: black; stroke-width:0.25;"/>
<rect x="133.000000" y="147.000000" width="24.000000" height="24.000000" rx="0" ry="0" style="stroke:none;fill:#cccccc;"/>
<rect x="132.000000" y="146.000000" width="24.000000" height="24.000000" rx="0" ry="0" style="stroke:none;fill:#4B71A1;"/>
<text x="144.000000" y="160.000000" font-family="Arial" font-size="7" text-anchor="middle" fill="#FFFFFF">*</text>
<circle cx="154.000000" cy="168.000000" r="1"/>
<line x1="159.000000" y1="161.000000" x2="156.000000" y2="162.000000"  transform="rotate(0.000000,156.000000,162.000000)" style="stroke: black; stroke-width:0.25;"/>
<line x1="159.000000" y1="163.000000" x2="156.000000" y2="162.000000"  transform="rotate(0.000000,156.000000,162.000000)" style="stroke: black; stroke-width:0.25;"/>
<line x1="159.000000" y1="153.000000" x2="156.000000" y2="154.000000"  transform="rotate(0.000000,156.000000,154.000000)" style="stroke: black; stroke-width:0.25;"/>
<line x1="159.000000" y1="155.000000" x2="156.000000" y2="154.000000"  transform="rotate(0.000000,156.000000,154.000000)" style="stroke: black; stroke-width:0.25;"/>
<line x1="334.000000" y1="272.000000" x2="334.000000" y2="268.000000"  style="stroke:black; stroke-linecap:round; stroke-width:0.25;"/>
<line x1="334.000000" y1="268.000000" x2="338.000000" y2="268.000000"  style="stroke:black; stroke-linecap:round; stroke-width:0.25;"/>
<line x1="338.000000" y1="268.000000" x2="338.000000" y2="272.000000"  style="stroke:black; stroke-linecap:round; stroke-width:0.25;"/>
<rect x="223.000000" y="67.000000" width="24.000000" height="24.000000" rx="0" ry="0" style="stroke:none;fill:#cccccc;"/>
<rect x="222.000000" y="66.000000" width="24.000000" height="24.000000" rx="0" ry="0" style="stroke:none;fill:#f44800;"/>
<text x="234.000000" y="80.000000" font-family="Arial" font-size="7" text-anchor="middle" fill="#FFFFFF">0</text>
<circle cx="244.000000" cy="88.000000" r="1"/>
<line x1="213.000000" y1="57.000000" x2="213.000000" y2="99.000000"  style="stroke: black; stroke-linecap:round; stroke-width:0.25; stroke-dasharray:3,3;"/>
<line x1="213.000000" y1="99.000000" x2="255.000000" y2="99.000000"  style="stroke: black; stroke-linecap:round; stroke-width:0.25; stroke-dasharray:3,3;"/>
<line x1="255.000000" y1="99.000000" x2="255.000000" y2="57.000000"  style="stroke: black; stroke-linecap:round; stroke-width:0.25; stroke-dasharray:3,3;"/>
<line x1="213.000000" y1="57.000000" x2="218.000000" y2="57.000000"  style="stroke: black; stroke-linecap:round; stroke-width:0.25; stroke-dasharray:3,3;"/>
<line x1="250.250000" y1="57.000000" x2="255.000000" y2="57.000000"  style="stroke: black; stroke-linecap:round; stroke-width:0.25; stroke-dasharray:3,3;"/>
<text x="218.000000" y="59.000000" font-family="Arial" font-size="7">clipCond</text>
<a xlink:href="a2-0x60002c39f7b0.svg">
<rect x="223.000000" y="25.000000" width="24.000000" height="24.000000" rx="0" ry="0" style="stroke:none;fill:#cccccc;"/>
<rect x="222.000000" y="24.000000" width="24.000000" height="24.000000" rx="0" ry="0" style="stroke:none;fill:#003366;"/>
</a>
<a xlink:href="a2-0x60002c39f7b0.svg">
<text x="234.000000" y="38.000000" font-family="Arial" font-size="7" text-anchor="middle" fill="#FFFFFF">a2</text>
</a>
<circle cx="244.000000" cy="46.000000" r="1"/>
<rect x="173.000000" y="51.000000" width="24.000000" height="24.000000" rx="0" ry="0" style="stroke:none;fill:#cccccc;"/>
<rect x="172.000000" y="50.000000" width="24.000000" height="24.000000" rx="0" ry="0" style="stroke:none;fill:#4B71A1;"/>
<text x="184.000000" y="64.000000" font-family="Arial" font-size="7" text-anchor="middle" fill="#FFFFFF">-</text>
<circle cx="194.000000" cy="72.000000" r="1"/>
<line x1="199.000000" y1="65.000000" x2="196.000000" y2="66.000000"  transform="rotate(0.000000,196.000000,66.000000)" style="stroke: black; stroke-width:0.25;"/>
<line x1="199.000000" y1="67.000000" x2="196.000000" y2="66.000000"  transform="rotate(0.000000,196.000000,66.000000)" style="stroke: black; stroke-width:0.25;"/>
<line x1="199.000000" y1="57.000000" x2="196.000000" y2="58.000000"  transform="rotate(0.000000,196.000000,58.000000)" style="stroke: black; stroke-width:0.25;"/>
<line x1="199.000000" y1="59.000000" x2="196.000000" y2="58.000000"  transform="rotate(0.000000,196.000000,58.000000)" style="stroke: black; stroke-width:0.25;"/>
<rect x="133.000000" y="55.000000" width="24.000000" height="24.000000" rx="0" ry="0" style="stroke:none;fill:#cccccc;"/>
<rect x="132.000000" y="54.000000" width="24.000000" height="24.000000" rx="0" ry="0" style="stroke:none;fill:#4B71A1;"/>
<text x="144.000000" y="68.000000" font-family="Arial" font-size="7" text-anchor="middle" fill="#FFFFFF">*</text>
<circle cx="154.000000" cy="76.000000" r="1"/>
<line x1="159.000000" y1="69.000000" x2="156.000000" y2="70.000000"  transform="rotate(0.000000,156.000000,70.000000)" style="stroke: black; stroke-width:0.25;"/>
<line x1="159.000000" y1="71.000000" x2="156.000000" y2="70.000000"  transform="rotate(0.000000,156.000000,70.000000)" style="stroke: black; stroke-width:0.25;"/>
<line x1="159.000000" y1="61.000000" x2="156.000000" y2="62.000000"  transform="rotate(0.000000,156.000000,62.000000)" style="stroke: black; stroke-width:0.25;"/>
<line x1="159.000000" y1="63.000000" x2="156.000000" y2="62.000000"  transform="rotate(0.000000,156.000000,62.000000)" style="stroke: black; stroke-width:0.25;"/>
<line x1="342.000000" y1="272.000000" x2="342.000000" y2="268.000000"  style="stroke:black; stroke-linecap:round; stroke-width:0.25;"/>
<line x1="342.000000" y1="268.000000" x2="346.000000" y2="268.000000"  style="stroke:black; stroke-linecap:round; stroke-width:0.25;"/>
<line x1="346.000000" y1="268.000000" x2="346.000000" y2="272.000000"  style="stroke:black; stroke-linecap:round; stroke-width:0.25;"/>
<line x1="15.000000" y1="15.000000" x2="15.000000" y2="345.000000"  style="stroke: black; stroke-linecap:round; stroke-width:0.25; stroke-dasharray:3,3;"/>
<line x1="15.000000" y1="345.000000" x2="373.000000" y2="345.000000"  style="stroke: black; stroke-linecap:round; stroke-width:0.25; stroke-dasharray:3,3;"/>
<line x1="373.000000" y1="345.000000" x2="373.000000" y2="15.000000"  style="stroke: black; stroke-linecap:round; stroke-width:0.25; stroke-dasharray:3,3;"/>
<line x1="15.000000" y1="15.000000" x2="20.000000" y2="15.000000"  style="stroke: black; stroke-linecap:round; stroke-width:0.25; stroke-dasharray:3,3;"/>
<line x1="45.800000" y1="15.000000" x2="373.000000" y2="15.000000"  style="stroke: black; stroke-linecap:round; stroke-width:0.25; stroke-dasharray:3,3;"/>
<text x="20.000000" y="17.000000" font-family="Arial" font-size="7">stage2</text>
<line x1="375.000000" y1="179.000000" x2="378.000000" y2="180.000000"  transform="rotate(0.000000,378.000000,180.000000)" style="stroke: black; stroke-width:0.25;"/>
<line x1="375.000000" y1="181.000000" x2="378.000000" y2="180.000000"  transform="rotate(0.000000,378.000000,180.000000)" style="stroke: black; stroke-width:0.25;"/>
<line x1="10.000000" y1="180.000000" x2="20.000000" y2="180.000000"  style="stroke:black; stroke-linecap:round; stroke-width:0.25;"/>
<line x1="20.000000" y1="180.000000" x2="24.000000" y2="180.000000"  style="stroke:black; stroke-linecap:round; stroke-width:0.25;"/>
<line x1="24.000000" y1="180.000000" x2="28.000000" y2="180.000000"  style="stroke:black; stroke-linecap:round; stroke-width:0.25;"/>
<line x1="28.000000" y1="180.000000" x2="28.000000" y2="180.000000"  style="stroke:black; stroke-linecap:round; stroke-width:0.25;"/>
<line x1="28.000000" y1="180.000000" x2="36.000000" y2="180.000000"  style="stroke:black; stroke-linecap:round; stroke-width:0.25;"/>
<line x1="36.000000" y1="180.000000" x2="36.000000" y2="280.000000"  style="stroke:black; stroke-linecap:round; stroke-width:0.25;"/>
<line x1="36.000000" y1="280.000000" x2="36.000000" y2="280.000000"  style="stroke:black; stroke-linecap:round; stroke-width:0.25;"/>
<line x1="36.000000" y1="280.000000" x2="44.000000" y2="280.000000"  style="stroke:black; stroke-linecap:round; stroke-width:0.25;"/>
<line x1="44.000000" y1="66.000000" x2="44.000000" y2="66.000000"  style="stroke:black; stroke-linecap:round; stroke-width:0.25;"/>
<line x1="44.000000" y1="66.000000" x2="44.000000" y2="216.000000"  style="stroke:black; stroke-linecap:round; stroke-width:0.25;"/>
<line x1="44.000000" y1="216.000000" x2="44.000000" y2="216.000000"  style="stroke:black; stroke-linecap:round; stroke-width:0.25;"/>
<line x1="44.000000" y1="216.000000" x2="52.000000" y2="216.000000"  style="stroke:black; stroke-linecap:round; stroke-width:0.25;"/>
<line x1="44.000000" y1="280.000000" x2="52.000000" y2="280.000000"  style="stroke:black; stroke-linecap:round; stroke-width:0.25;"/>
<line x1="52.000000" y1="158.000000" x2="52.000000" y2="158.000000"  style="stroke:black; stroke-linecap:round; stroke-width:0.25;"/>
<line x1="52.000000" y1="158.000000" x2="52.000000" y2="208.000000"  style="stroke:black; stroke-linecap:round; stroke-width:0.25;"/>
<line x1="52.000000" y1="208.000000" x2="52.000000" y2="208.000000"  style="stroke:black; stroke-linecap:round; stroke-width:0.25;"/>
<line x1="52.000000" y1="208.000000" x2="124.000000" y2="208.000000"  style="stroke:black; stroke-linecap:round; stroke-width:0.25;"/>
<line x1="52.000000" y1="216.000000" x2="124.000000" y2="216.000000"  style="stroke:black; stroke-linecap:round; stroke-width:0.25;"/>
<line x1="52.000000" y1="280.000000" x2="56.000000" y2="280.000000"  style="stroke:black; stroke-linecap:round; stroke-width:0.25;"/>
<line x1="56.000000" y1="280.000000" x2="60.000000" y2="280.000000"  style="stroke:black; stroke-linecap:round; stroke-width:0.25;"/>
<line x1="60.000000" y1="280.000000" x2="92.000000" y2="224.000000"  style="stroke:black; stroke-linecap:round; stroke-width:0.25;"/>
<line x1="60.000000" y1="280.000000" x2="92.000000" y2="264.000000"  style="stroke:black; stroke-linecap:round; stroke-width:0.25;"/>
<line x1="60.000000" y1="280.000000" x2="92.000000" y2="304.000000"  style="stroke:black; stroke-linecap:round; stroke-width:0.25;"/>
<line x1="92.000000" y1="224.000000" x2="108.000000" y2="224.000000"  style="stroke:black; stroke-linecap:round; stroke-width:0.25;"/>
<line x1="92.000000" y1="264.000000" x2="108.000000" y2="264.000000"  style="stroke:black; stroke-linecap:round; stroke-width:0.25;"/>
<line x1="92.000000" y1="304.000000" x2="108.000000" y2="304.000000"  style="stroke:black; stroke-linecap:round; stroke-width:0.25;"/>
<line x1="108.000000" y1="224.000000" x2="124.000000" y2="224.000000"  style="stroke:black; stroke-linecap:round; stroke-width:0.25;"/>
<line x1="108.000000" y1="264.000000" x2="124.000000" y2="264.000000"  style="stroke:black; stroke-linecap:round; stroke-width:0.25;"/>
<line x1="108.000000" y1="304.000000" x2="124.000000" y2="304.000000"  style="stroke:black; stroke-linecap:round; stroke-width:0.25;"/>
<line x1="120.000000" y1="244.000000" x2="124.000000" y2="244.000000"  style="stroke:black; stroke-linecap:round; stroke-width:0.25;"/>
<line x1="120.000000" y1="284.000000" x2="124.000000" y2="284.000000"  style="stroke:black; stroke-linecap:round; stroke-width:0.25;"/>
<line x1="124.000000" y1="208.000000" x2="196.000000" y2="208.000000"  style="stroke:black; stroke-linecap:round; stroke-width:0.25;"/>
<line x1="124.000000" y1="216.000000" x2="196.000000" y2="216.000000"  style="stroke:black; stroke-linecap:round; stroke-width:0.25;"/>
<line x1="124.000000" y1="224.000000" x2="132.000000" y2="224.000000"  style="stroke:black; stroke-linecap:round; stroke-width:0.25;"/>
<line x1="124.000000" y1="244.000000" x2="132.000000" y2="244.000000"  style="stroke:black; stroke-linecap:round; stroke-width:0.25;"/>
<line x1="124.000000" y1="264.000000" x2="132.000000" y2="264.000000"  style="stroke:black; stroke-linecap:round; stroke-width:0.25;"/>
<line x1="124.000000" y1="284.000000" x2="132.000000" y2="284.000000"  style="stroke:black; stroke-linecap:round; stroke-width:0.25;"/>
<line x1="124.000000" y1="304.000000" x2="140.000000" y2="304.000000"  style="stroke:black; stroke-linecap:round; stroke-width:0.25;"/>
<line x1="128.000000" y1="66.000000" x2="44.000000" y2="66.000000"  style="stroke:black; stroke-linecap:round; stroke-width:0.25;"/>
<line x1="128.000000" y1="158.000000" x2="52.000000" y2="158.000000"  style="stroke:black; stroke-linecap:round; stroke-width:0.25;"/>
<line x1="132.000000" y1="66.000000" x2="128.000000" y2="66.000000"  style="stroke:black; stroke-linecap:round; stroke-width:0.25;"/>
<line x1="132.000000" y1="158.000000" x2="128.000000" y2="158.000000"  style="stroke:black; stroke-linecap:round; stroke-width:0.25;"/>
<line x1="132.000000" y1="224.000000" x2="132.000000" y2="236.000000"  style="stroke:black; stroke-linecap:round; stroke-width:0.25;"/>
<line x1="132.000000" y1="236.000000" x2="132.000000" y2="236.000000"  style="stroke:black; stroke-linecap:round; stroke-width:0.25;"/>
<line x1="132.000000" y1="236.000000" x2="136.000000" y2="236.000000"  style="stroke:black; stroke-linecap:round; stroke-width:0.25;"/>
<line x1="132.000000" y1="244.000000" x2="136.000000" y2="244.000000"  style="stroke:black; stroke-linecap:round; stroke-width:0.25;"/>
<line x1="132.000000" y1="264.000000" x2="132.000000" y2="276.000000"  style="stroke:black; stroke-linecap:round; stroke-width:0.25;"/>
<line x1="132.000000" y1="276.000000" x2="132.000000" y2="276.000000"  style="stroke:black; stroke-linecap:round; stroke-width:0.25;"/>
<line x1="132.000000" y1="276.000000" x2="136.000000" y2="276.000000"  style="stroke:black; stroke-linecap:round; stroke-width:0.25;"/>
<line x1="132.000000" y1="284.000000" x2="136.000000" y2="284.000000"  style="stroke:black; stroke-linecap:round; stroke-width:0.25;"/>
<line x1="136.000000" y1="324.000000" x2="140.000000" y2="324.000000"  style="stroke:black; stroke-linecap:round; stroke-width:0.25;"/>
<line x1="140.000000" y1="304.000000" x2="148.000000" y2="304.000000"  style="stroke:black; stroke-linecap:round; stroke-width:0.25;"/>
<line x1="140.000000" y1="324.000000" x2="148.000000" y2="324.000000"  style="stroke:black; stroke-linecap:round; stroke-width:0.25;"/>
<line x1="148.000000" y1="304.000000" x2="148.000000" y2="316.000000"  style="stroke:black; stroke-linecap:round; stroke-width:0.25;"/>
<line x1="148.000000" y1="316.000000" x2="148.000000" y2="316.000000"  style="stroke:black; stroke-linecap:round; stroke-width:0.25;"/>
<line x1="148.000000" y1="316.000000" x2="152.000000" y2="316.000000"  style="stroke:black; stroke-linecap:round; stroke-width:0.25;"/>
<line x1="148.000000" y1="324.000000" x2="152.000000" y2="324.000000"  style="stroke:black; stroke-linecap:round; stroke-width:0.25;"/>
<line x1="160.000000" y1="62.000000" x2="156.000000" y2="62.000000"  style="stroke:black; stroke-linecap:round; stroke-width:0.25;"/>
<line x1="160.000000" y1="70.000000" x2="156.000000" y2="70.000000"  style="stroke:black; stroke-linecap:round; stroke-width:0.25;"/>
<line x1="160.000000" y1="70.000000" x2="160.000000" y2="70.000000"  style="stroke:black; stroke-linecap:round; stroke-width:0.25;"/>
<line x1="160.000000" y1="108.000000" x2="160.000000" y2="70.000000"  style="stroke:black; stroke-linecap:round; stroke-width:0.25;"/>
<line x1="160.000000" y1="154.000000" x2="156.000000" y2="154.000000"  style="stroke:black; stroke-linecap:round; stroke-width:0.25;"/>
<line x1="160.000000" y1="162.000000" x2="156.000000" y2="162.000000"  style="stroke:black; stroke-linecap:round; stroke-width:0.25;"/>
<line x1="160.000000" y1="162.000000" x2="160.000000" y2="162.000000"  style="stroke:black; stroke-linecap:round; stroke-width:0.25;"/>
<line x1="160.000000" y1="200.000000" x2="160.000000" y2="162.000000"  style="stroke:black; stroke-linecap:round; stroke-width:0.25;"/>
<line x1="160.000000" y1="240.000000" x2="164.000000" y2="240.000000"  style="stroke:black; stroke-linecap:round; stroke-width:0.25;"/>
<line x1="160.000000" y1="280.000000" x2="164.000000" y2="280.000000"  style="stroke:black; stroke-linecap:round; stroke-width:0.25;"/>
<line x1="164.000000" y1="240.000000" x2="164.000000" y2="240.000000"  style="stroke:black; stroke-linecap:round; stroke-width:0.25;"/>
<line x1="164.000000" y1="240.000000" x2="168.000000" y2="240.000000"  style="stroke:black; stroke-linecap:round; stroke-width:0.25;"/>
<line x1="164.000000" y1="280.000000" x2="164.000000" y2="280.000000"  style="stroke:black; stroke-linecap:round; stroke-width:0.25;"/>
<line x1="164.000000" y1="280.000000" x2="168.000000" y2="280.000000"  style="stroke:black; stroke-linecap:round; stroke-width:0.25;"/>
<line x1="168.000000" y1="62.000000" x2="160.000000" y2="62.000000"  style="stroke:black; stroke-linecap:round; stroke-width:0.25;"/>
<line x1="168.000000" y1="108.000000" x2="160.000000" y2="108.000000"  style="stroke:black; stroke-linecap:round; stroke-width:0.25;"/>
<line x1="168.000000" y1="154.000000" x2="160.000000" y2="154.000000"  style="stroke:black; stroke-linecap:round; stroke-width:0.25;"/>
<line x1="168.000000" y1="200.000000" x2="160.000000" y2="200.000000"  style="stroke:black; stroke-linecap:round; stroke-width:0.25;"/>
<line x1="172.000000" y1="62.000000" x2="168.000000" y2="62.000000"  style="stroke:black; stroke-linecap:round; stroke-width:0.25;"/>
<line x1="172.000000" y1="154.000000" x2="168.000000" y2="154.000000"  style="stroke:black; stroke-linecap:round; stroke-width:0.25;"/>
<line x1="176.000000" y1="320.000000" x2="180.000000" y2="320.000000"  style="stroke:black; stroke-linecap:round; stroke-width:0.25;"/>
<line x1="180.000000" y1="320.000000" x2="196.000000" y2="320.000000"  style="stroke:black; stroke-linecap:round; stroke-width:0.25;"/>
<line x1="192.000000" y1="240.000000" x2="196.000000" y2="240.000000"  style="stroke:black; stroke-linecap:round; stroke-width:0.25;"/>
<line x1="192.000000" y1="280.000000" x2="196.000000" y2="280.000000"  style="stroke:black; stroke-linecap:round; stroke-width:0.25;"/>
<line x1="196.000000" y1="208.000000" x2="228.000000" y2="208.000000"  style="stroke:black; stroke-linecap:round; stroke-width:0.25;"/>
<line x1="196.000000" y1="216.000000" x2="220.000000" y2="216.000000"  style="stroke:black; stroke-linecap:round; stroke-width:0.25;"/>
<line x1="196.000000" y1="240.000000" x2="212.000000" y2="240.000000"  style="stroke:black; stroke-linecap:round; stroke-width:0.25;"/>
<line x1="196.000000" y1="280.000000" x2="204.000000" y2="280.000000"  style="stroke:black; stroke-linecap:round; stroke-width:0.25;"/>
<line x1="196.000000" y1="296.000000" x2="228.000000" y2="296.000000"  style="stroke:black; stroke-linecap:round; stroke-width:0.25;"/>
<line x1="196.000000" y1="320.000000" x2="196.000000" y2="296.000000"  style="stroke:black; stroke-linecap:round; stroke-width:0.25;"/>
<line x1="196.000000" y1="320.000000" x2="196.000000" y2="320.000000"  style="stroke:black; stroke-linecap:round; stroke-width:0.25;"/>
<line x1="200.000000" y1="58.000000" x2="196.000000" y2="58.000000"  style="stroke:black; stroke-linecap:round; stroke-width:0.25;"/>
<line x1="200.000000" y1="66.000000" x2="196.000000" y2="66.000000"  style="stroke:black; stroke-linecap:round; stroke-width:0.25;"/>
<line x1="200.000000" y1="66.000000" x2="200.000000" y2="66.000000"  style="stroke:black; stroke-linecap:round; stroke-width:0.25;"/>
<line x1="200.000000" y1="78.000000" x2="200.000000" y2="66.000000"  style="stroke:black; stroke-linecap:round; stroke-width:0.25;"/>
<line x1="200.000000" y1="150.000000" x2="196.000000" y2="150.000000"  style="stroke:black; stroke-linecap:round; stroke-width:0.25;"/>
<line x1="200.000000" y1="158.000000" x2="196.000000" y2="158.000000"  style="stroke:black; stroke-linecap:round; stroke-width:0.25;"/>
<line x1="200.000000" y1="158.000000" x2="200.000000" y2="158.000000"  style="stroke:black; stroke-linecap:round; stroke-width:0.25;"/>
<line x1="200.000000" y1="170.000000" x2="200.000000" y2="158.000000"  style="stroke:black; stroke-linecap:round; stroke-width:0.25;"/>
<line x1="204.000000" y1="280.000000" x2="204.000000" y2="288.000000"  style="stroke:black; stroke-linecap:round; stroke-width:0.25;"/>
<line x1="204.000000" y1="288.000000" x2="228.000000" y2="288.000000"  style="stroke:black; stroke-linecap:round; stroke-width:0.25;"/>
<line x1="208.000000" y1="36.000000" x2="208.000000" y2="36.000000"  style="stroke:black; stroke-linecap:round; stroke-width:0.25;"/>
<line x1="208.000000" y1="36.000000" x2="208.000000" y2="58.000000"  style="stroke:black; stroke-linecap:round; stroke-width:0.25;"/>
<line x1="208.000000" y1="58.000000" x2="200.000000" y2="58.000000"  style="stroke:black; stroke-linecap:round; stroke-width:0.25;"/>
<line x1="208.000000" y1="78.000000" x2="200.000000" y2="78.000000"  style="stroke:black; stroke-linecap:round; stroke-width:0.25;"/>
<line x1="208.000000" y1="128.000000" x2="208.000000" y2="128.000000"  style="stroke:black; stroke-linecap:round; stroke-width:0.25;"/>
<line x1="208.000000" y1="128.000000" x2="208.000000" y2="150.000000"  style="stroke:black; stroke-linecap:round; stroke-width:0.25;"/>
<line x1="208.000000" y1="150.000000" x2="200.000000" y2="150.000000"  style="stroke:black; stroke-linecap:round; stroke-width:0.25;"/>
<line x1="208.000000" y1="170.000000" x2="200.000000" y2="170.000000"  style="stroke:black; stroke-linecap:round; stroke-width:0.25;"/>
<line x1="212.000000" y1="240.000000" x2="212.000000" y2="272.000000"  style="stroke:black; stroke-linecap:round; stroke-width:0.25;"/>
<line x1="212.000000" y1="272.000000" x2="228.000000" y2="272.000000"  style="stroke:black; stroke-linecap:round; stroke-width:0.25;"/>
<line x1="214.000000" y1="108.000000" x2="168.000000" y2="108.000000"  style="stroke:black; stroke-linecap:round; stroke-width:0.25;"/>
<line x1="214.000000" y1="200.000000" x2="168.000000" y2="200.000000"  style="stroke:black; stroke-linecap:round; stroke-width:0.25;"/>
<line x1="218.000000" y1="36.000000" x2="208.000000" y2="36.000000"  style="stroke:black; stroke-linecap:round; stroke-width:0.25;"/>
<line x1="218.000000" y1="78.000000" x2="208.000000" y2="78.000000"  style="stroke:black; stroke-linecap:round; stroke-width:0.25;"/>
<line x1="218.000000" y1="128.000000" x2="208.000000" y2="128.000000"  style="stroke:black; stroke-linecap:round; stroke-width:0.25;"/>
<line x1="218.000000" y1="170.000000" x2="208.000000" y2="170.000000"  style="stroke:black; stroke-linecap:round; stroke-width:0.25;"/>
<line x1="220.000000" y1="216.000000" x2="220.000000" y2="264.000000"  style="stroke:black; stroke-linecap:round; stroke-width:0.25;"/>
<line x1="220.000000" y1="264.000000" x2="228.000000" y2="264.000000"  style="stroke:black; stroke-linecap:round; stroke-width:0.25;"/>
<line x1="222.000000" y1="36.000000" x2="218.000000" y2="36.000000"  style="stroke:black; stroke-linecap:round; stroke-width:0.25;"/>
<line x1="222.000000" y1="78.000000" x2="218.000000" y2="78.000000"  style="stroke:black; stroke-linecap:round; stroke-width:0.25;"/>
<line x1="222.000000" y1="128.000000" x2="218.000000" y2="128.000000"  style="stroke:black; stroke-linecap:round; stroke-width:0.25;"/>
<line x1="222.000000" y1="170.000000" x2="218.000000" y2="170.000000"  style="stroke:black; stroke-linecap:round; stroke-width:0.25;"/>
<line x1="228.000000" y1="208.000000" x2="228.000000" y2="248.000000"  style="stroke:black; stroke-linecap:round; stroke-width:0.25;"/>
<line x1="228.000000" y1="248.000000" x2="228.000000" y2="248.000000"  style="stroke:black; stroke-linecap:round; stroke-width:0.25;"/>
<line x1="228.000000" y1="248.000000" x2="260.000000" y2="248.000000"  style="stroke:black; stroke-linecap:round; stroke-width:0.25;"/>
<line x1="228.000000" y1="264.000000" x2="232.000000" y2="264.000000"  style="stroke:black; stroke-linecap:round; stroke-width:0.25;"/>
<line x1="228.000000" y1="272.000000" x2="232.000000" y2="272.000000"  style="stroke:black; stroke-linecap:round; stroke-width:0.25;"/>
<line x1="228.000000" y1="288.000000" x2="260.000000" y2="288.000000"  style="stroke:black; stroke-linecap:round; stroke-width:0.25;"/>
<line x1="228.000000" y1="296.000000" x2="260.000000" y2="296.000000"  style="stroke:black; stroke-linecap:round; stroke-width:0.25;"/>
<line x1="256.000000" y1="268.000000" x2="260.000000" y2="268.000000"  style="stroke:black; stroke-linecap:round; stroke-width:0.25;"/>
<line x1="260.000000" y1="108.000000" x2="214.000000" y2="108.000000"  style="stroke:black; stroke-linecap:round; stroke-width:0.25;"/>
<line x1="260.000000" y1="200.000000" x2="214.000000" y2="200.000000"  style="stroke:black; stroke-linecap:round; stroke-width:0.25;"/>
<line x1="260.000000" y1="248.000000" x2="292.000000" y2="248.000000"  style="stroke:black; stroke-linecap:round; stroke-width:0.25;"/>
<line x1="260.000000" y1="268.000000" x2="260.000000" y2="268.000000"  style="stroke:black; stroke-linecap:round; stroke-width:0.25;"/>
<line x1="260.000000" y1="268.000000" x2="264.000000" y2="268.000000"  style="stroke:black; stroke-linecap:round; stroke-width:0.25;"/>
<line x1="260.000000" y1="288.000000" x2="292.000000" y2="288.000000"  style="stroke:black; stroke-linecap:round; stroke-width:0.25;"/>
<line x1="260.000000" y1="296.000000" x2="292.000000" y2="296.000000"  style="stroke:black; stroke-linecap:round; stroke-width:0.25;"/>
<line x1="288.000000" y1="268.000000" x2="292.000000" y2="268.000000"  style="stroke:black; stroke-linecap:round; stroke-width:0.25;"/>
<line x1="292.000000" y1="248.000000" x2="328.000000" y2="272.000000"  style="stroke:black; stroke-linecap:round; stroke-width:0.25;"/>
<line x1="292.000000" y1="268.000000" x2="328.000000" y2="272.000000"  style="stroke:black; stroke-linecap:round; stroke-width:0.25;"/>
<line x1="292.000000" y1="288.000000" x2="328.000000" y2="272.000000"  style="stroke:black; stroke-linecap:round; stroke-width:0.25;"/>
<line x1="292.000000" y1="296.000000" x2="328.000000" y2="272.000000"  style="stroke:black; stroke-linecap:round; stroke-width:0.25;"/>
<line x1="328.000000" y1="272.000000" x2="332.000000" y2="272.000000"  style="stroke:black; stroke-linecap:round; stroke-width:0.25;"/>
<line x1="332.000000" y1="272.000000" x2="336.000000" y2="272.000000"  style="stroke:black; stroke-linecap:round; stroke-width:0.25;"/>
<line x1="336.000000" y1="200.000000" x2="260.000000" y2="200.000000"  style="stroke:black; stroke-linecap:round; stroke-width:0.25;"/>
<line x1="336.000000" y1="200.000000" x2="336.000000" y2="200.000000"  style="stroke:black; stroke-linecap:round; stroke-width:0.25;"/>
<line x1="336.000000" y1="268.000000" x2="336.000000" y2="200.000000"  style="stroke:black; stroke-linecap:round; stroke-width:0.25;"/>
<line x1="336.000000" y1="272.000000" x2="338.000000" y2="272.000000"  style="stroke:black; stroke-linecap:round; stroke-width:0.25;"/>
<line x1="338.000000" y1="272.000000" x2="344.000000" y2="272.000000"  style="stroke:black; stroke-linecap:round; stroke-width:0.25;"/>
<line x1="344.000000" y1="108.000000" x2="260.000000" y2="108.000000"  style="stroke:black; stroke-linecap:round; stroke-width:0.25;"/>
<line x1="344.000000" y1="108.000000" x2="344.000000" y2="108.000000"  style="stroke:black; stroke-linecap:round; stroke-width:0.25;"/>
<line x1="344.000000" y1="268.000000" x2="344.000000" y2="108.000000"  style="stroke:black; stroke-linecap:round; stroke-width:0.25;"/>
<line x1="344.000000" y1="272.000000" x2="346.000000" y2="272.000000"  style="stroke:black; stroke-linecap:round; stroke-width:0.25;"/>
<line x1="346.000000" y1="272.000000" x2="352.000000" y2="272.000000"  style="stroke:black; stroke-linecap:round; stroke-width:0.25;"/>
<line x1="352.000000" y1="180.000000" x2="360.000000" y2="180.000000"  style="stroke:black; stroke-linecap:round; stroke-width:0.25;"/>
<line x1="352.000000" y1="272.000000" x2="352.000000" y2="180.000000"  style="stroke:black; stroke-linecap:round; stroke-width:0.25;"/>
<line x1="352.000000" y1="272.000000" x2="352.000000" y2="272.000000"  style="stroke:black; stroke-linecap:round; stroke-width:0.25;"/>
<line x1="360.000000" y1="180.000000" x2="360.000000" y2="180.000000"  style="stroke:black; stroke-linecap:round; stroke-width:0.25;"/>
<line x1="360.000000" y1="180.000000" x2="364.000000" y2="180.000000"  style="stroke:black; stroke-linecap:round; stroke-width:0.25;"/>
<line x1="364.000000" y1="180.000000" x2="368.000000" y2="180.000000"  style="stroke:black; stroke-linecap:round; stroke-width:0.25;"/>
<line x1="368.000000" y1="180.000000" x2="378.000000" y2="180.000000"  style="stroke:black; stroke-linecap:round; stroke-width:0.25;"/>
</svg>
