<?xml version="1.0"?>
<svg xmlns="http://www.w3.org/2000/svg" xmlns:xlink="http://www.w3.org/1999/xlink" viewBox="0 0 279.700000 156.000000" width="139.850000mm" height="78.000000mm" version="1.1">
<a xlink:href="envelope-0x6001343cf600.svg">
<rect x="1.000000" y="1.000000" width="278.700000" height="155.000000" rx="0" ry="0" style="stroke:none;fill:#cccccc;"/>
<rect x="0.000000" y="0.000000" width="278.700000" height="155.000000" rx="0" ry="0" style="stroke:none;fill:#ffffff;"/>
</a>
<text x="10.000000" y="7.000000" font-family="Arial" font-size="7"></text>
<a xlink:href="slidingSump-0x600044120cf0.svg">
<rect x="41.000000" y="25.000000" width="167.700000" height="24.000000" rx="0" ry="0" style="stroke:none;fill:#cccccc;"/>
<rect x="40.000000" y="24.000000" width="167.700000" height="24.000000" rx="0" ry="0" style="stroke:none;fill:#003366;"/>
</a>
<a xlink:href="slidingSump-0x600044120cf0.svg">
<text x="123.850000" y="38.000000" font-family="Arial" font-size="7" text-anchor="middle" fill="#FFFFFF">slidingSump(0...) : * : rint)(576000)</text>
</a>
<circle cx="42.000000" cy="26.000000" r="1"/>
<line x1="37.000000" y1="35.000000" x2="40.000000" y2="36.000000"  transform="rotate(0.000000,40.000000,36.000000)" style="stroke: black; stroke-width:0.25;"/>
<line x1="37.000000" y1="37.000000" x2="40.000000" y2="36.000000"  transform="rotate(0.000000,40.000000,36.000000)" style="stroke: black; stroke-width:0.25;"/>
<rect x="75.950000" y="67.000000" width="24.000000" height="24.000000" rx="0" ry="0" style="stroke:none;fill:#cccccc;"/>
<rect x="74.950000" y="66.000000" width="24.000000" height="24.000000" rx="0" ry="0" style="stroke:none;fill:#f44800;"/>
<text x="86.950000" y="80.000000" font-family="Arial" font-size="7" text-anchor="middle" fill="#FFFFFF">0.4</text>
<circle cx="76.950000" cy="68.000000" r="1"/>
<line x1="65.950000" y1="57.000000" x2="65.950000" y2="99.000000"  style="stroke: black; stroke-linecap:round; stroke-width:0.25; stroke-dasharray:3,3;"/>
<line x1="65.950000" y1="99.000000" x2="107.950000" y2="99.000000"  style="stroke: black; stroke-linecap:round; stroke-width:0.25; stroke-dasharray:3,3;"/>
<line x1="107.950000" y1="99.000000" x2="107.950000" y2="57.000000"  style="stroke: black; stroke-linecap:round; stroke-width:0.25; stroke-dasharray:3,3;"/>
<line x1="65.950000" y1="57.000000" x2="70.950000" y2="57.000000"  style="stroke: black; stroke-linecap:round; stroke-width:0.25; stroke-dasharray:3,3;"/>
<line x1="96.750000" y1="57.000000" x2="107.950000" y2="57.000000"  style="stroke: black; stroke-linecap:round; stroke-width:0.25; stroke-dasharray:3,3;"/>
<text x="70.950000" y="59.000000" font-family="Arial" font-size="7">length</text>
<a xlink:href="SR-0x6000003ba520.svg">
<rect x="75.950000" y="109.000000" width="24.000000" height="24.000000" rx="0" ry="0" style="stroke:none;fill:#cccccc;"/>
<rect x="74.950000" y="108.000000" width="24.000000" height="24.000000" rx="0" ry="0" style="stroke:none;fill:#003366;"/>
</a>
<a xlink:href="SR-0x6000003ba520.svg">
<text x="86.950000" y="122.000000" font-family="Arial" font-size="7" text-anchor="middle" fill="#FFFFFF">SR</text>
</a>
<circle cx="76.950000" cy="110.000000" r="1"/>
<rect x="125.950000" y="83.000000" width="24.000000" height="24.000000" rx="0" ry="0" style="stroke:none;fill:#cccccc;"/>
<rect x="124.950000" y="82.000000" width="24.000000" height="24.000000" rx="0" ry="0" style="stroke:none;fill:#4B71A1;"/>
<text x="136.950000" y="96.000000" font-family="Arial" font-size="7" text-anchor="middle" fill="#FFFFFF">*</text>
<circle cx="126.950000" cy="84.000000" r="1"/>
<line x1="121.950000" y1="89.000000" x2="124.950000" y2="90.000000"  transform="rotate(0.000000,124.950000,90.000000)" style="stroke: black; stroke-width:0.25;"/>
<line x1="121.950000" y1="91.000000" x2="124.950000" y2="90.000000"  transform="rotate(0.000000,124.950000,90.000000)" style="stroke: black; stroke-width:0.25;"/>
<line x1="121.950000" y1="97.000000" x2="124.950000" y2="98.000000"  transform="rotate(0.000000,124.950000,98.000000)" style="stroke: black; stroke-width:0.25;"/>
<line x1="121.950000" y1="99.000000" x2="124.950000" y2="98.000000"  transform="rotate(0.000000,124.950000,98.000000)" style="stroke: black; stroke-width:0.25;"/>
<rect x="157.950000" y="83.000000" width="25.800000" height="24.000000" rx="0" ry="0" style="stroke:none;fill:#cccccc;"/>
<rect x="156.950000" y="82.000000" width="25.800000" height="24.000000" rx="0" ry="0" style="stroke:none;fill:#4B71A1;"/>
<text x="169.850000" y="96.000000" font-family="Arial" font-size="7" text-anchor="middle" fill="#FFFFFF">rint</text>
<circle cx="158.950000" cy="84.000000" r="1"/>
<line x1="153.950000" y1="93.000000" x2="156.950000" y2="94.000000"  transform="rotate(0.000000,156.950000,94.000000)" style="stroke: black; stroke-width:0.25;"/>
<line x1="153.950000" y1="95.000000" x2="156.950000" y2="94.000000"  transform="rotate(0.000000,156.950000,94.000000)" style="stroke: black; stroke-width:0.25;"/>
<rect x="224.700000" y="67.000000" width="24.000000" height="24.000000" rx="0" ry="0" style="stroke:none;fill:#cccccc;"/>
<rect x="223.700000" y="66.000000" width="24.000000" height="24.000000" rx="0" ry="0" style="stroke:none;fill:#4B71A1;"/>
<text x="235.700000" y="80.000000" font-family="Arial" font-size="7" text-anchor="middle" fill="#FFFFFF">/</text>
<circle cx="225.700000" cy="68.000000" r="1"/>
<line x1="220.700000" y1="73.000000" x2="223.700000" y2="74.000000"  transform="rotate(0.000000,223.700000,74.000000)" style="stroke: black; stroke-width:0.25;"/>
<line x1="220.700000" y1="75.000000" x2="223.700000" y2="74.000000"  transform="rotate(0.000000,223.700000,74.000000)" style="stroke: black; stroke-width:0.25;"/>
<line x1="220.700000" y1="81.000000" x2="223.700000" y2="82.000000"  transform="rotate(0.000000,223.700000,82.000000)" style="stroke: black; stroke-width:0.25;"/>
<line x1="220.700000" y1="83.000000" x2="223.700000" y2="82.000000"  transform="rotate(0.000000,223.700000,82.000000)" style="stroke: black; stroke-width:0.25;"/>
<line x1="15.000000" y1="15.000000" x2="15.000000" y2="141.000000"  style="stroke: black; stroke-linecap:round; stroke-width:0.25; stroke-dasharray:3,3;"/>
<line x1="15.000000" y1="141.000000" x2="264.700000" y2="141.000000"  style="stroke: black; stroke-linecap:round; stroke-width:0.25; stroke-dasharray:3,3;"/>
<line x1="264.700000" y1="141.000000" x2="264.700000" y2="15.000000"  style="stroke: black; stroke-linecap:round; stroke-width:0.25; stroke-dasharray:3,3;"/>
<line x1="15.000000" y1="15.000000" x2="20.000000" y2="15.000000"  style="stroke: black; stroke-linecap:round; stroke-width:0.25; stroke-dasharray:3,3;"/>
<line x1="119.975000" y1="15.000000" x2="264.700000" y2="15.000000"  style="stroke: black; stroke-linecap:round; stroke-width:0.25; stroke-dasharray:3,3;"/>
<text x="20.000000" y="17.000000" font-family="Arial" font-size="7">sump(0.400000...) : * : rint)</text>
<line x1="266.700000" y1="77.000000" x2="269.700000" y2="78.000000"  transform="rotate(0.000000,269.700000,78.000000)" style="stroke: black; stroke-width:0.25;"/>
<line x1="266.700000" y1="79.000000" x2="269.700000" y2="78.000000"  transform="rotate(0.000000,269.700000,78.000000)" style="stroke: black; stroke-width:0.25;"/>
<line x1="10.000000" y1="78.000000" x2="20.000000" y2="78.000000"  style="stroke:black; stroke-linecap:round; stroke-width:0.25;"/>
<line x1="20.000000" y1="78.000000" x2="24.000000" y2="78.000000"  style="stroke:black; stroke-linecap:round; stroke-width:0.25;"/>
<line x1="24.000000" y1="78.000000" x2="28.000000" y2="78.000000"  style="stroke:black; stroke-linecap:round; stroke-width:0.25;"/>
<line x1="28.000000" y1="36.000000" x2="36.000000" y2="36.000000"  style="stroke:black; stroke-linecap:round; stroke-width:0.25;"/>
<line x1="28.000000" y1="78.000000" x2="28.000000" y2="36.000000"  style="stroke:black; stroke-linecap:round; stroke-width:0.25;"/>
<line x1="28.000000" y1="78.000000" x2="28.000000" y2="78.000000"  style="stroke:black; stroke-linecap:round; stroke-width:0.25;"/>
<line x1="36.000000" y1="36.000000" x2="40.000000" y2="36.000000"  style="stroke:black; stroke-linecap:round; stroke-width:0.25;"/>
<line x1="98.950000" y1="78.000000" x2="102.950000" y2="78.000000"  style="stroke:black; stroke-linecap:round; stroke-width:0.25;"/>
<line x1="98.950000" y1="120.000000" x2="102.950000" y2="120.000000"  style="stroke:black; stroke-linecap:round; stroke-width:0.25;"/>
<line x1="102.950000" y1="78.000000" x2="112.950000" y2="78.000000"  style="stroke:black; stroke-linecap:round; stroke-width:0.25;"/>
<line x1="102.950000" y1="120.000000" x2="112.950000" y2="120.000000"  style="stroke:black; stroke-linecap:round; stroke-width:0.25;"/>
<line x1="112.950000" y1="78.000000" x2="120.950000" y2="78.000000"  style="stroke:black; stroke-linecap:round; stroke-width:0.25;"/>
<line x1="112.950000" y1="98.000000" x2="120.950000" y2="98.000000"  style="stroke:black; stroke-linecap:round; stroke-width:0.25;"/>
<line x1="112.950000" y1="120.000000" x2="112.950000" y2="98.000000"  style="stroke:black; stroke-linecap:round; stroke-width:0.25;"/>
<line x1="112.950000" y1="120.000000" x2="112.950000" y2="120.000000"  style="stroke:black; stroke-linecap:round; stroke-width:0.25;"/>
<line x1="120.950000" y1="78.000000" x2="120.950000" y2="90.000000"  style="stroke:black; stroke-linecap:round; stroke-width:0.25;"/>
<line x1="120.950000" y1="90.000000" x2="120.950000" y2="90.000000"  style="stroke:black; stroke-linecap:round; stroke-width:0.25;"/>
<line x1="120.950000" y1="90.000000" x2="124.950000" y2="90.000000"  style="stroke:black; stroke-linecap:round; stroke-width:0.25;"/>
<line x1="120.950000" y1="98.000000" x2="124.950000" y2="98.000000"  style="stroke:black; stroke-linecap:round; stroke-width:0.25;"/>
<line x1="148.950000" y1="94.000000" x2="152.950000" y2="94.000000"  style="stroke:black; stroke-linecap:round; stroke-width:0.25;"/>
<line x1="152.950000" y1="94.000000" x2="152.950000" y2="94.000000"  style="stroke:black; stroke-linecap:round; stroke-width:0.25;"/>
<line x1="152.950000" y1="94.000000" x2="156.950000" y2="94.000000"  style="stroke:black; stroke-linecap:round; stroke-width:0.25;"/>
<line x1="182.750000" y1="94.000000" x2="186.750000" y2="94.000000"  style="stroke:black; stroke-linecap:round; stroke-width:0.25;"/>
<line x1="186.750000" y1="94.000000" x2="211.700000" y2="94.000000"  style="stroke:black; stroke-linecap:round; stroke-width:0.25;"/>
<line x1="207.700000" y1="36.000000" x2="211.700000" y2="36.000000"  style="stroke:black; stroke-linecap:round; stroke-width:0.25;"/>
<line x1="211.700000" y1="36.000000" x2="219.700000" y2="36.000000"  style="stroke:black; stroke-linecap:round; stroke-width:0.25;"/>
<line x1="211.700000" y1="82.000000" x2="219.700000" y2="82.000000"  style="stroke:black; stroke-linecap:round; stroke-width:0.25;"/>
<line x1="211.700000" y1="94.000000" x2="211.700000" y2="82.000000"  style="stroke:black; stroke-linecap:round; stroke-width:0.25;"/>
<line x1="211.700000" y1="94.000000" x2="211.700000" y2="94.000000"  style="stroke:black; stroke-linecap:round; stroke-width:0.25;"/>
<line x1="219.700000" y1="36.000000" x2="219.700000" y2="74.000000"  style="stroke:black; stroke-linecap:round; stroke-width:0.25;"/>
<line x1="219.700000" y1="74.000000" x2="219.700000" y2="74.000000"  style="stroke:black; stroke-linecap:round; stroke-width:0.25;"/>
<line x1="219.700000" y1="74.000000" x2="223.700000" y2="74.000000"  style="stroke:black; stroke-linecap:round; stroke-width:0.25;"/>
<line x1="219.700000" y1="82.000000" x2="223.700000" y2="82.000000"  style="stroke:black; stroke-linecap:round; stroke-width:0.25;"/>
<line x1="247.700000" y1="78.000000" x2="251.700000" y2="78.000000"  style="stroke:black; stroke-linecap:round; stroke-width:0.25;"/>
<line x1="251.700000" y1="78.000000" x2="251.700000" y2="78.000000"  style="stroke:black; stroke-linecap:round; stroke-width:0.25;"/>
<line x1="251.700000" y1="78.000000" x2="255.700000" y2="78.000000"  style="stroke:black; stroke-linecap:round; stroke-width:0.25;"/>
<line x1="255.700000" y1="78.000000" x2="259.700000" y2="78.000000"  style="stroke:black; stroke-linecap:round; stroke-width:0.25;"/>
<line x1="259.700000" y1="78.000000" x2="269.700000" y2="78.000000"  style="stroke:black; stroke-linecap:round; stroke-width:0.25;"/>
</svg>
