<?xml version="1.0"?>
<svg xmlns="http://www.w3.org/2000/svg" xmlns:xlink="http://www.w3.org/1999/xlink" viewBox="0 0 354.000000 124.000000" width="177.000000mm" height="62.000000mm" version="1.1">
<a xlink:href="sm-0x6000c405e520.svg">
<rect x="1.000000" y="1.000000" width="353.000000" height="123.000000" rx="0" ry="0" style="stroke:none;fill:#cccccc;"/>
<rect x="0.000000" y="0.000000" width="353.000000" height="123.000000" rx="0" ry="0" style="stroke:none;fill:#ffffff;"/>
</a>
<text x="10.000000" y="7.000000" font-family="Arial" font-size="7"></text>
<rect x="142.000000" y="35.000000" width="24.000000" height="24.000000" rx="0" ry="0" style="stroke:none;fill:#cccccc;"/>
<rect x="141.000000" y="34.000000" width="24.000000" height="24.000000" rx="0" ry="0" style="stroke:none;fill:#f44800;"/>
<text x="153.000000" y="48.000000" font-family="Arial" font-size="7" text-anchor="middle" fill="#FFFFFF">1</text>
<circle cx="143.000000" cy="36.000000" r="1"/>
<line x1="132.000000" y1="25.000000" x2="132.000000" y2="67.000000"  style="stroke: black; stroke-linecap:round; stroke-width:0.25; stroke-dasharray:3,3;"/>
<line x1="132.000000" y1="67.000000" x2="174.000000" y2="67.000000"  style="stroke: black; stroke-linecap:round; stroke-width:0.25; stroke-dasharray:3,3;"/>
<line x1="174.000000" y1="67.000000" x2="174.000000" y2="25.000000"  style="stroke: black; stroke-linecap:round; stroke-width:0.25; stroke-dasharray:3,3;"/>
<line x1="132.000000" y1="25.000000" x2="137.000000" y2="25.000000"  style="stroke: black; stroke-linecap:round; stroke-width:0.25; stroke-dasharray:3,3;"/>
<line x1="166.025000" y1="25.000000" x2="174.000000" y2="25.000000"  style="stroke: black; stroke-linecap:round; stroke-width:0.25; stroke-dasharray:3,3;"/>
<text x="137.000000" y="27.000000" font-family="Arial" font-size="7">pow2(0)</text>
<rect x="25.000000" y="77.000000" width="258.000000" height="24.000000" rx="0" ry="0" style="stroke:none;fill:#cccccc;"/>
<rect x="24.000000" y="76.000000" width="258.000000" height="24.000000" rx="0" ry="0" style="stroke:none;fill:#477881;"/>
<text x="153.000000" y="90.000000" font-family="Arial" font-size="7" text-anchor="middle" fill="#FFFFFF">checkbox(v:soundsgood/t:expert/h:pre-processing/dc blocker)</text>
<circle cx="26.000000" cy="78.000000" r="1"/>
<rect x="299.000000" y="51.000000" width="24.000000" height="24.000000" rx="0" ry="0" style="stroke:none;fill:#cccccc;"/>
<rect x="298.000000" y="50.000000" width="24.000000" height="24.000000" rx="0" ry="0" style="stroke:none;fill:#4B71A1;"/>
<text x="310.000000" y="64.000000" font-family="Arial" font-size="7" text-anchor="middle" fill="#FFFFFF">-</text>
<circle cx="300.000000" cy="52.000000" r="1"/>
<line x1="295.000000" y1="57.000000" x2="298.000000" y2="58.000000"  transform="rotate(0.000000,298.000000,58.000000)" style="stroke: black; stroke-width:0.25;"/>
<line x1="295.000000" y1="59.000000" x2="298.000000" y2="58.000000"  transform="rotate(0.000000,298.000000,58.000000)" style="stroke: black; stroke-width:0.25;"/>
<line x1="295.000000" y1="65.000000" x2="298.000000" y2="66.000000"  transform="rotate(0.000000,298.000000,66.000000)" style="stroke: black; stroke-width:0.25;"/>
<line x1="295.000000" y1="67.000000" x2="298.000000" y2="66.000000"  transform="rotate(0.000000,298.000000,66.000000)" style="stroke: black; stroke-width:0.25;"/>
<line x1="15.000000" y1="15.000000" x2="15.000000" y2="109.000000"  style="stroke: black; stroke-linecap:round; stroke-width:0.25; stroke-dasharray:3,3;"/>
<line x1="15.000000" y1="109.000000" x2="339.000000" y2="109.000000"  style="stroke: black; stroke-linecap:round; stroke-width:0.25; stroke-dasharray:3,3;"/>
<line x1="339.000000" y1="109.000000" x2="339.000000" y2="15.000000"  style="stroke: black; stroke-linecap:round; stroke-width:0.25; stroke-dasharray:3,3;"/>
<line x1="15.000000" y1="15.000000" x2="20.000000" y2="15.000000"  style="stroke: black; stroke-linecap:round; stroke-width:0.25; stroke-dasharray:3,3;"/>
<line x1="32.900000" y1="15.000000" x2="339.000000" y2="15.000000"  style="stroke: black; stroke-linecap:round; stroke-width:0.25; stroke-dasharray:3,3;"/>
<text x="20.000000" y="17.000000" font-family="Arial" font-size="7">sw</text>
<line x1="341.000000" y1="61.000000" x2="344.000000" y2="62.000000"  transform="rotate(0.000000,344.000000,62.000000)" style="stroke: black; stroke-width:0.25;"/>
<line x1="341.000000" y1="63.000000" x2="344.000000" y2="62.000000"  transform="rotate(0.000000,344.000000,62.000000)" style="stroke: black; stroke-width:0.25;"/>
<line x1="165.000000" y1="46.000000" x2="169.000000" y2="46.000000"  style="stroke:black; stroke-linecap:round; stroke-width:0.25;"/>
<line x1="169.000000" y1="46.000000" x2="179.000000" y2="46.000000"  style="stroke:black; stroke-linecap:round; stroke-width:0.25;"/>
<line x1="179.000000" y1="46.000000" x2="286.000000" y2="46.000000"  style="stroke:black; stroke-linecap:round; stroke-width:0.25;"/>
<line x1="282.000000" y1="88.000000" x2="286.000000" y2="88.000000"  style="stroke:black; stroke-linecap:round; stroke-width:0.25;"/>
<line x1="286.000000" y1="46.000000" x2="294.000000" y2="46.000000"  style="stroke:black; stroke-linecap:round; stroke-width:0.25;"/>
<line x1="286.000000" y1="66.000000" x2="294.000000" y2="66.000000"  style="stroke:black; stroke-linecap:round; stroke-width:0.25;"/>
<line x1="286.000000" y1="88.000000" x2="286.000000" y2="66.000000"  style="stroke:black; stroke-linecap:round; stroke-width:0.25;"/>
<line x1="286.000000" y1="88.000000" x2="286.000000" y2="88.000000"  style="stroke:black; stroke-linecap:round; stroke-width:0.25;"/>
<line x1="294.000000" y1="46.000000" x2="294.000000" y2="58.000000"  style="stroke:black; stroke-linecap:round; stroke-width:0.25;"/>
<line x1="294.000000" y1="58.000000" x2="294.000000" y2="58.000000"  style="stroke:black; stroke-linecap:round; stroke-width:0.25;"/>
<line x1="294.000000" y1="58.000000" x2="298.000000" y2="58.000000"  style="stroke:black; stroke-linecap:round; stroke-width:0.25;"/>
<line x1="294.000000" y1="66.000000" x2="298.000000" y2="66.000000"  style="stroke:black; stroke-linecap:round; stroke-width:0.25;"/>
<line x1="322.000000" y1="62.000000" x2="326.000000" y2="62.000000"  style="stroke:black; stroke-linecap:round; stroke-width:0.25;"/>
<line x1="326.000000" y1="62.000000" x2="326.000000" y2="62.000000"  style="stroke:black; stroke-linecap:round; stroke-width:0.25;"/>
<line x1="326.000000" y1="62.000000" x2="330.000000" y2="62.000000"  style="stroke:black; stroke-linecap:round; stroke-width:0.25;"/>
<line x1="330.000000" y1="62.000000" x2="334.000000" y2="62.000000"  style="stroke:black; stroke-linecap:round; stroke-width:0.25;"/>
<line x1="334.000000" y1="62.000000" x2="344.000000" y2="62.000000"  style="stroke:black; stroke-linecap:round; stroke-width:0.25;"/>
</svg>
