<?xml version="1.0"?>
<svg xmlns="http://www.w3.org/2000/svg" xmlns:xlink="http://www.w3.org/1999/xlink" viewBox="0 0 207.600000 100.000000" width="103.800000mm" height="50.000000mm" version="1.1">
<a xlink:href="LogArray-0x60013c0cfcc0.svg">
<rect x="1.000000" y="1.000000" width="206.600000" height="99.000000" rx="0" ry="0" style="stroke:none;fill:#cccccc;"/>
<rect x="0.000000" y="0.000000" width="206.600000" height="99.000000" rx="0" ry="0" style="stroke:none;fill:#ffffff;"/>
</a>
<text x="10.000000" y="7.000000" font-family="Arial" font-size="7"></text>
<rect x="25.000000" y="39.000000" width="24.000000" height="24.000000" rx="0" ry="0" style="stroke:none;fill:#cccccc;"/>
<rect x="24.000000" y="38.000000" width="24.000000" height="24.000000" rx="0" ry="0" style="stroke:none;fill:#47945E;"/>
<text x="36.000000" y="52.000000" font-family="Arial" font-size="7" text-anchor="middle" fill="#FFFFFF">top</text>
<circle cx="26.000000" cy="40.000000" r="1"/>
<rect x="75.000000" y="35.000000" width="51.600000" height="24.000000" rx="0" ry="0" style="stroke:none;fill:#cccccc;"/>
<rect x="74.000000" y="34.000000" width="51.600000" height="24.000000" rx="0" ry="0" style="stroke:none;fill:#f44800;"/>
<text x="99.800000" y="48.000000" font-family="Arial" font-size="7" text-anchor="middle" fill="#FFFFFF">1.19209e-07</text>
<circle cx="76.000000" cy="36.000000" r="1"/>
<line x1="65.000000" y1="25.000000" x2="65.000000" y2="67.000000"  style="stroke: black; stroke-linecap:round; stroke-width:0.25; stroke-dasharray:3,3;"/>
<line x1="65.000000" y1="67.000000" x2="134.600000" y2="67.000000"  style="stroke: black; stroke-linecap:round; stroke-width:0.25; stroke-dasharray:3,3;"/>
<line x1="134.600000" y1="67.000000" x2="134.600000" y2="25.000000"  style="stroke: black; stroke-linecap:round; stroke-width:0.25; stroke-dasharray:3,3;"/>
<line x1="65.000000" y1="25.000000" x2="70.000000" y2="25.000000"  style="stroke: black; stroke-linecap:round; stroke-width:0.25; stroke-dasharray:3,3;"/>
<line x1="99.025000" y1="25.000000" x2="134.600000" y2="25.000000"  style="stroke: black; stroke-linecap:round; stroke-width:0.25; stroke-dasharray:3,3;"/>
<text x="70.000000" y="27.000000" font-family="Arial" font-size="7">EPSILON</text>
<rect x="152.600000" y="39.000000" width="24.000000" height="24.000000" rx="0" ry="0" style="stroke:none;fill:#cccccc;"/>
<rect x="151.600000" y="38.000000" width="24.000000" height="24.000000" rx="0" ry="0" style="stroke:none;fill:#4B71A1;"/>
<text x="163.600000" y="52.000000" font-family="Arial" font-size="7" text-anchor="middle" fill="#FFFFFF">max</text>
<circle cx="153.600000" cy="40.000000" r="1"/>
<line x1="148.600000" y1="45.000000" x2="151.600000" y2="46.000000"  transform="rotate(0.000000,151.600000,46.000000)" style="stroke: black; stroke-width:0.25;"/>
<line x1="148.600000" y1="47.000000" x2="151.600000" y2="46.000000"  transform="rotate(0.000000,151.600000,46.000000)" style="stroke: black; stroke-width:0.25;"/>
<line x1="148.600000" y1="53.000000" x2="151.600000" y2="54.000000"  transform="rotate(0.000000,151.600000,54.000000)" style="stroke: black; stroke-width:0.25;"/>
<line x1="148.600000" y1="55.000000" x2="151.600000" y2="54.000000"  transform="rotate(0.000000,151.600000,54.000000)" style="stroke: black; stroke-width:0.25;"/>
<line x1="15.000000" y1="15.000000" x2="15.000000" y2="85.000000"  style="stroke: black; stroke-linecap:round; stroke-width:0.25; stroke-dasharray:3,3;"/>
<line x1="15.000000" y1="85.000000" x2="192.600000" y2="85.000000"  style="stroke: black; stroke-linecap:round; stroke-width:0.25; stroke-dasharray:3,3;"/>
<line x1="192.600000" y1="85.000000" x2="192.600000" y2="15.000000"  style="stroke: black; stroke-linecap:round; stroke-width:0.25; stroke-dasharray:3,3;"/>
<line x1="15.000000" y1="15.000000" x2="20.000000" y2="15.000000"  style="stroke: black; stroke-linecap:round; stroke-width:0.25; stroke-dasharray:3,3;"/>
<line x1="29.675000" y1="15.000000" x2="192.600000" y2="15.000000"  style="stroke: black; stroke-linecap:round; stroke-width:0.25; stroke-dasharray:3,3;"/>
<text x="20.000000" y="17.000000" font-family="Arial" font-size="7">t</text>
<line x1="194.600000" y1="49.000000" x2="197.600000" y2="50.000000"  transform="rotate(0.000000,197.600000,50.000000)" style="stroke: black; stroke-width:0.25;"/>
<line x1="194.600000" y1="51.000000" x2="197.600000" y2="50.000000"  transform="rotate(0.000000,197.600000,50.000000)" style="stroke: black; stroke-width:0.25;"/>
<line x1="48.000000" y1="50.000000" x2="52.000000" y2="50.000000"  style="stroke:black; stroke-linecap:round; stroke-width:0.25;"/>
<line x1="52.000000" y1="50.000000" x2="60.000000" y2="50.000000"  style="stroke:black; stroke-linecap:round; stroke-width:0.25;"/>
<line x1="60.000000" y1="50.000000" x2="60.000000" y2="76.000000"  style="stroke:black; stroke-linecap:round; stroke-width:0.25;"/>
<line x1="60.000000" y1="76.000000" x2="60.000000" y2="76.000000"  style="stroke:black; stroke-linecap:round; stroke-width:0.25;"/>
<line x1="60.000000" y1="76.000000" x2="99.800000" y2="76.000000"  style="stroke:black; stroke-linecap:round; stroke-width:0.25;"/>
<line x1="99.800000" y1="76.000000" x2="139.600000" y2="76.000000"  style="stroke:black; stroke-linecap:round; stroke-width:0.25;"/>
<line x1="125.600000" y1="46.000000" x2="129.600000" y2="46.000000"  style="stroke:black; stroke-linecap:round; stroke-width:0.25;"/>
<line x1="129.600000" y1="46.000000" x2="139.600000" y2="46.000000"  style="stroke:black; stroke-linecap:round; stroke-width:0.25;"/>
<line x1="139.600000" y1="46.000000" x2="147.600000" y2="46.000000"  style="stroke:black; stroke-linecap:round; stroke-width:0.25;"/>
<line x1="139.600000" y1="54.000000" x2="147.600000" y2="54.000000"  style="stroke:black; stroke-linecap:round; stroke-width:0.25;"/>
<line x1="139.600000" y1="76.000000" x2="139.600000" y2="54.000000"  style="stroke:black; stroke-linecap:round; stroke-width:0.25;"/>
<line x1="139.600000" y1="76.000000" x2="139.600000" y2="76.000000"  style="stroke:black; stroke-linecap:round; stroke-width:0.25;"/>
<line x1="147.600000" y1="46.000000" x2="151.600000" y2="46.000000"  style="stroke:black; stroke-linecap:round; stroke-width:0.25;"/>
<line x1="147.600000" y1="54.000000" x2="151.600000" y2="54.000000"  style="stroke:black; stroke-linecap:round; stroke-width:0.25;"/>
<line x1="175.600000" y1="50.000000" x2="179.600000" y2="50.000000"  style="stroke:black; stroke-linecap:round; stroke-width:0.25;"/>
<line x1="179.600000" y1="50.000000" x2="179.600000" y2="50.000000"  style="stroke:black; stroke-linecap:round; stroke-width:0.25;"/>
<line x1="179.600000" y1="50.000000" x2="183.600000" y2="50.000000"  style="stroke:black; stroke-linecap:round; stroke-width:0.25;"/>
<line x1="183.600000" y1="50.000000" x2="187.600000" y2="50.000000"  style="stroke:black; stroke-linecap:round; stroke-width:0.25;"/>
<line x1="187.600000" y1="50.000000" x2="197.600000" y2="50.000000"  style="stroke:black; stroke-linecap:round; stroke-width:0.25;"/>
</svg>
