<?xml version="1.0"?>
<svg xmlns="http://www.w3.org/2000/svg" xmlns:xlink="http://www.w3.org/1999/xlink" viewBox="0 0 642.200000 100.000000" width="321.100000mm" height="50.000000mm" version="1.1">
<a xlink:href="fc-0x6000040b3210.svg">
<rect x="1.000000" y="1.000000" width="641.200000" height="99.000000" rx="0" ry="0" style="stroke:none;fill:#cccccc;"/>
<rect x="0.000000" y="0.000000" width="641.200000" height="99.000000" rx="0" ry="0" style="stroke:none;fill:#ffffff;"/>
</a>
<text x="10.000000" y="7.000000" font-family="Arial" font-size="7"></text>
<rect x="35.000000" y="39.000000" width="438.600000" height="24.000000" rx="0" ry="0" style="stroke:none;fill:#cccccc;"/>
<rect x="34.000000" y="38.000000" width="438.600000" height="24.000000" rx="0" ry="0" style="stroke:none;fill:#477881;"/>
<text x="253.300000" y="52.000000" font-family="Arial" font-size="7" text-anchor="middle" fill="#FFFFFF">vslider(v:soundsgood/t:expert/h:mscomp/h:high band/high crossover, 8000.0f, 5000.0f, 20000.0f, 1.0f)</text>
<circle cx="36.000000" cy="40.000000" r="1"/>
<line x1="25.000000" y1="29.000000" x2="25.000000" y2="71.000000"  style="stroke: black; stroke-linecap:round; stroke-width:0.25; stroke-dasharray:3,3;"/>
<line x1="25.000000" y1="71.000000" x2="481.600000" y2="71.000000"  style="stroke: black; stroke-linecap:round; stroke-width:0.25; stroke-dasharray:3,3;"/>
<line x1="481.600000" y1="71.000000" x2="481.600000" y2="29.000000"  style="stroke: black; stroke-linecap:round; stroke-width:0.25; stroke-dasharray:3,3;"/>
<line x1="25.000000" y1="29.000000" x2="30.000000" y2="29.000000"  style="stroke: black; stroke-linecap:round; stroke-width:0.25; stroke-dasharray:3,3;"/>
<line x1="42.900000" y1="29.000000" x2="481.600000" y2="29.000000"  style="stroke: black; stroke-linecap:round; stroke-width:0.25; stroke-dasharray:3,3;"/>
<text x="30.000000" y="31.000000" font-family="Arial" font-size="7">fh</text>
<rect x="509.600000" y="35.000000" width="51.600000" height="24.000000" rx="0" ry="0" style="stroke:none;fill:#cccccc;"/>
<rect x="508.600000" y="34.000000" width="51.600000" height="24.000000" rx="0" ry="0" style="stroke:none;fill:#f44800;"/>
<text x="534.400000" y="48.000000" font-family="Arial" font-size="7" text-anchor="middle" fill="#FFFFFF">1.19209e-07</text>
<circle cx="510.600000" cy="36.000000" r="1"/>
<line x1="499.600000" y1="25.000000" x2="499.600000" y2="67.000000"  style="stroke: black; stroke-linecap:round; stroke-width:0.25; stroke-dasharray:3,3;"/>
<line x1="499.600000" y1="67.000000" x2="569.200000" y2="67.000000"  style="stroke: black; stroke-linecap:round; stroke-width:0.25; stroke-dasharray:3,3;"/>
<line x1="569.200000" y1="67.000000" x2="569.200000" y2="25.000000"  style="stroke: black; stroke-linecap:round; stroke-width:0.25; stroke-dasharray:3,3;"/>
<line x1="499.600000" y1="25.000000" x2="504.600000" y2="25.000000"  style="stroke: black; stroke-linecap:round; stroke-width:0.25; stroke-dasharray:3,3;"/>
<line x1="533.625000" y1="25.000000" x2="569.200000" y2="25.000000"  style="stroke: black; stroke-linecap:round; stroke-width:0.25; stroke-dasharray:3,3;"/>
<text x="504.600000" y="27.000000" font-family="Arial" font-size="7">EPSILON</text>
<rect x="587.200000" y="39.000000" width="24.000000" height="24.000000" rx="0" ry="0" style="stroke:none;fill:#cccccc;"/>
<rect x="586.200000" y="38.000000" width="24.000000" height="24.000000" rx="0" ry="0" style="stroke:none;fill:#4B71A1;"/>
<text x="598.200000" y="52.000000" font-family="Arial" font-size="7" text-anchor="middle" fill="#FFFFFF">max</text>
<circle cx="588.200000" cy="40.000000" r="1"/>
<line x1="583.200000" y1="45.000000" x2="586.200000" y2="46.000000"  transform="rotate(0.000000,586.200000,46.000000)" style="stroke: black; stroke-width:0.25;"/>
<line x1="583.200000" y1="47.000000" x2="586.200000" y2="46.000000"  transform="rotate(0.000000,586.200000,46.000000)" style="stroke: black; stroke-width:0.25;"/>
<line x1="583.200000" y1="53.000000" x2="586.200000" y2="54.000000"  transform="rotate(0.000000,586.200000,54.000000)" style="stroke: black; stroke-width:0.25;"/>
<line x1="583.200000" y1="55.000000" x2="586.200000" y2="54.000000"  transform="rotate(0.000000,586.200000,54.000000)" style="stroke: black; stroke-width:0.25;"/>
<line x1="15.000000" y1="15.000000" x2="15.000000" y2="85.000000"  style="stroke: black; stroke-linecap:round; stroke-width:0.25; stroke-dasharray:3,3;"/>
<line x1="15.000000" y1="85.000000" x2="627.200000" y2="85.000000"  style="stroke: black; stroke-linecap:round; stroke-width:0.25; stroke-dasharray:3,3;"/>
<line x1="627.200000" y1="85.000000" x2="627.200000" y2="15.000000"  style="stroke: black; stroke-linecap:round; stroke-width:0.25; stroke-dasharray:3,3;"/>
<line x1="15.000000" y1="15.000000" x2="20.000000" y2="15.000000"  style="stroke: black; stroke-linecap:round; stroke-width:0.25; stroke-dasharray:3,3;"/>
<line x1="29.675000" y1="15.000000" x2="627.200000" y2="15.000000"  style="stroke: black; stroke-linecap:round; stroke-width:0.25; stroke-dasharray:3,3;"/>
<text x="20.000000" y="17.000000" font-family="Arial" font-size="7">t</text>
<line x1="629.200000" y1="49.000000" x2="632.200000" y2="50.000000"  transform="rotate(0.000000,632.200000,50.000000)" style="stroke: black; stroke-width:0.25;"/>
<line x1="629.200000" y1="51.000000" x2="632.200000" y2="50.000000"  transform="rotate(0.000000,632.200000,50.000000)" style="stroke: black; stroke-width:0.25;"/>
<line x1="472.600000" y1="50.000000" x2="476.600000" y2="50.000000"  style="stroke:black; stroke-linecap:round; stroke-width:0.25;"/>
<line x1="476.600000" y1="50.000000" x2="486.600000" y2="50.000000"  style="stroke:black; stroke-linecap:round; stroke-width:0.25;"/>
<line x1="486.600000" y1="50.000000" x2="494.600000" y2="50.000000"  style="stroke:black; stroke-linecap:round; stroke-width:0.25;"/>
<line x1="494.600000" y1="50.000000" x2="494.600000" y2="76.000000"  style="stroke:black; stroke-linecap:round; stroke-width:0.25;"/>
<line x1="494.600000" y1="76.000000" x2="494.600000" y2="76.000000"  style="stroke:black; stroke-linecap:round; stroke-width:0.25;"/>
<line x1="494.600000" y1="76.000000" x2="534.400000" y2="76.000000"  style="stroke:black; stroke-linecap:round; stroke-width:0.25;"/>
<line x1="534.400000" y1="76.000000" x2="574.200000" y2="76.000000"  style="stroke:black; stroke-linecap:round; stroke-width:0.25;"/>
<line x1="560.200000" y1="46.000000" x2="564.200000" y2="46.000000"  style="stroke:black; stroke-linecap:round; stroke-width:0.25;"/>
<line x1="564.200000" y1="46.000000" x2="574.200000" y2="46.000000"  style="stroke:black; stroke-linecap:round; stroke-width:0.25;"/>
<line x1="574.200000" y1="46.000000" x2="582.200000" y2="46.000000"  style="stroke:black; stroke-linecap:round; stroke-width:0.25;"/>
<line x1="574.200000" y1="54.000000" x2="582.200000" y2="54.000000"  style="stroke:black; stroke-linecap:round; stroke-width:0.25;"/>
<line x1="574.200000" y1="76.000000" x2="574.200000" y2="54.000000"  style="stroke:black; stroke-linecap:round; stroke-width:0.25;"/>
<line x1="574.200000" y1="76.000000" x2="574.200000" y2="76.000000"  style="stroke:black; stroke-linecap:round; stroke-width:0.25;"/>
<line x1="582.200000" y1="46.000000" x2="586.200000" y2="46.000000"  style="stroke:black; stroke-linecap:round; stroke-width:0.25;"/>
<line x1="582.200000" y1="54.000000" x2="586.200000" y2="54.000000"  style="stroke:black; stroke-linecap:round; stroke-width:0.25;"/>
<line x1="610.200000" y1="50.000000" x2="614.200000" y2="50.000000"  style="stroke:black; stroke-linecap:round; stroke-width:0.25;"/>
<line x1="614.200000" y1="50.000000" x2="614.200000" y2="50.000000"  style="stroke:black; stroke-linecap:round; stroke-width:0.25;"/>
<line x1="614.200000" y1="50.000000" x2="618.200000" y2="50.000000"  style="stroke:black; stroke-linecap:round; stroke-width:0.25;"/>
<line x1="618.200000" y1="50.000000" x2="622.200000" y2="50.000000"  style="stroke:black; stroke-linecap:round; stroke-width:0.25;"/>
<line x1="622.200000" y1="50.000000" x2="632.200000" y2="50.000000"  style="stroke:black; stroke-linecap:round; stroke-width:0.25;"/>
</svg>
