<?xml version="1.0"?>
<svg xmlns="http://www.w3.org/2000/svg" xmlns:xlink="http://www.w3.org/1999/xlink" viewBox="0 0 483.000000 124.000000" width="241.500000mm" height="62.000000mm" version="1.1">
<a xlink:href="gain-0x60013c0e8e10.svg">
<rect x="1.000000" y="1.000000" width="482.000000" height="123.000000" rx="0" ry="0" style="stroke:none;fill:#cccccc;"/>
<rect x="0.000000" y="0.000000" width="482.000000" height="123.000000" rx="0" ry="0" style="stroke:none;fill:#ffffff;"/>
</a>
<text x="10.000000" y="7.000000" font-family="Arial" font-size="7"></text>
<rect x="76.600000" y="35.000000" width="283.800000" height="24.000000" rx="0" ry="0" style="stroke:none;fill:#cccccc;"/>
<rect x="75.600000" y="34.000000" width="283.800000" height="24.000000" rx="0" ry="0" style="stroke:none;fill:#477881;"/>
<text x="217.500000" y="48.000000" font-family="Arial" font-size="7" text-anchor="middle" fill="#FFFFFF">vslider(v:soundsgood/h:easy/Target, -18.0f, -50.0f, -2.0f, 1.0f)</text>
<circle cx="77.600000" cy="36.000000" r="1"/>
<line x1="66.600000" y1="25.000000" x2="66.600000" y2="67.000000"  style="stroke: black; stroke-linecap:round; stroke-width:0.25; stroke-dasharray:3,3;"/>
<line x1="66.600000" y1="67.000000" x2="368.400000" y2="67.000000"  style="stroke: black; stroke-linecap:round; stroke-width:0.25; stroke-dasharray:3,3;"/>
<line x1="368.400000" y1="67.000000" x2="368.400000" y2="25.000000"  style="stroke: black; stroke-linecap:round; stroke-width:0.25; stroke-dasharray:3,3;"/>
<line x1="66.600000" y1="25.000000" x2="71.600000" y2="25.000000"  style="stroke: black; stroke-linecap:round; stroke-width:0.25; stroke-dasharray:3,3;"/>
<line x1="97.400000" y1="25.000000" x2="368.400000" y2="25.000000"  style="stroke: black; stroke-linecap:round; stroke-width:0.25; stroke-dasharray:3,3;"/>
<text x="71.600000" y="27.000000" font-family="Arial" font-size="7">target</text>
<rect x="25.000000" y="77.000000" width="387.000000" height="24.000000" rx="0" ry="0" style="stroke:none;fill:#cccccc;"/>
<rect x="24.000000" y="76.000000" width="387.000000" height="24.000000" rx="0" ry="0" style="stroke:none;fill:#477881;"/>
<text x="217.500000" y="90.000000" font-family="Arial" font-size="7" text-anchor="middle" fill="#FFFFFF">vslider(v:soundsgood/t:expert/h:kneecomp/kneecomp tar-thresh, -6.0f, -12.0f, 6.0f, 1.0f)</text>
<circle cx="26.000000" cy="78.000000" r="1"/>
<rect x="428.000000" y="51.000000" width="24.000000" height="24.000000" rx="0" ry="0" style="stroke:none;fill:#cccccc;"/>
<rect x="427.000000" y="50.000000" width="24.000000" height="24.000000" rx="0" ry="0" style="stroke:none;fill:#4B71A1;"/>
<text x="439.000000" y="64.000000" font-family="Arial" font-size="7" text-anchor="middle" fill="#FFFFFF">+</text>
<circle cx="429.000000" cy="52.000000" r="1"/>
<line x1="424.000000" y1="57.000000" x2="427.000000" y2="58.000000"  transform="rotate(0.000000,427.000000,58.000000)" style="stroke: black; stroke-width:0.25;"/>
<line x1="424.000000" y1="59.000000" x2="427.000000" y2="58.000000"  transform="rotate(0.000000,427.000000,58.000000)" style="stroke: black; stroke-width:0.25;"/>
<line x1="424.000000" y1="65.000000" x2="427.000000" y2="66.000000"  transform="rotate(0.000000,427.000000,66.000000)" style="stroke: black; stroke-width:0.25;"/>
<line x1="424.000000" y1="67.000000" x2="427.000000" y2="66.000000"  transform="rotate(0.000000,427.000000,66.000000)" style="stroke: black; stroke-width:0.25;"/>
<line x1="15.000000" y1="15.000000" x2="15.000000" y2="109.000000"  style="stroke: black; stroke-linecap:round; stroke-width:0.25; stroke-dasharray:3,3;"/>
<line x1="15.000000" y1="109.000000" x2="468.000000" y2="109.000000"  style="stroke: black; stroke-linecap:round; stroke-width:0.25; stroke-dasharray:3,3;"/>
<line x1="468.000000" y1="109.000000" x2="468.000000" y2="15.000000"  style="stroke: black; stroke-linecap:round; stroke-width:0.25; stroke-dasharray:3,3;"/>
<line x1="15.000000" y1="15.000000" x2="20.000000" y2="15.000000"  style="stroke: black; stroke-linecap:round; stroke-width:0.25; stroke-dasharray:3,3;"/>
<line x1="45.800000" y1="15.000000" x2="468.000000" y2="15.000000"  style="stroke: black; stroke-linecap:round; stroke-width:0.25; stroke-dasharray:3,3;"/>
<text x="20.000000" y="17.000000" font-family="Arial" font-size="7">thresh</text>
<line x1="470.000000" y1="61.000000" x2="473.000000" y2="62.000000"  transform="rotate(0.000000,473.000000,62.000000)" style="stroke: black; stroke-width:0.25;"/>
<line x1="470.000000" y1="63.000000" x2="473.000000" y2="62.000000"  transform="rotate(0.000000,473.000000,62.000000)" style="stroke: black; stroke-width:0.25;"/>
<line x1="359.400000" y1="46.000000" x2="363.400000" y2="46.000000"  style="stroke:black; stroke-linecap:round; stroke-width:0.25;"/>
<line x1="363.400000" y1="46.000000" x2="373.400000" y2="46.000000"  style="stroke:black; stroke-linecap:round; stroke-width:0.25;"/>
<line x1="373.400000" y1="46.000000" x2="415.000000" y2="46.000000"  style="stroke:black; stroke-linecap:round; stroke-width:0.25;"/>
<line x1="411.000000" y1="88.000000" x2="415.000000" y2="88.000000"  style="stroke:black; stroke-linecap:round; stroke-width:0.25;"/>
<line x1="415.000000" y1="46.000000" x2="423.000000" y2="46.000000"  style="stroke:black; stroke-linecap:round; stroke-width:0.25;"/>
<line x1="415.000000" y1="66.000000" x2="423.000000" y2="66.000000"  style="stroke:black; stroke-linecap:round; stroke-width:0.25;"/>
<line x1="415.000000" y1="88.000000" x2="415.000000" y2="66.000000"  style="stroke:black; stroke-linecap:round; stroke-width:0.25;"/>
<line x1="415.000000" y1="88.000000" x2="415.000000" y2="88.000000"  style="stroke:black; stroke-linecap:round; stroke-width:0.25;"/>
<line x1="423.000000" y1="46.000000" x2="423.000000" y2="58.000000"  style="stroke:black; stroke-linecap:round; stroke-width:0.25;"/>
<line x1="423.000000" y1="58.000000" x2="423.000000" y2="58.000000"  style="stroke:black; stroke-linecap:round; stroke-width:0.25;"/>
<line x1="423.000000" y1="58.000000" x2="427.000000" y2="58.000000"  style="stroke:black; stroke-linecap:round; stroke-width:0.25;"/>
<line x1="423.000000" y1="66.000000" x2="427.000000" y2="66.000000"  style="stroke:black; stroke-linecap:round; stroke-width:0.25;"/>
<line x1="451.000000" y1="62.000000" x2="455.000000" y2="62.000000"  style="stroke:black; stroke-linecap:round; stroke-width:0.25;"/>
<line x1="455.000000" y1="62.000000" x2="455.000000" y2="62.000000"  style="stroke:black; stroke-linecap:round; stroke-width:0.25;"/>
<line x1="455.000000" y1="62.000000" x2="459.000000" y2="62.000000"  style="stroke:black; stroke-linecap:round; stroke-width:0.25;"/>
<line x1="459.000000" y1="62.000000" x2="463.000000" y2="62.000000"  style="stroke:black; stroke-linecap:round; stroke-width:0.25;"/>
<line x1="463.000000" y1="62.000000" x2="473.000000" y2="62.000000"  style="stroke:black; stroke-linecap:round; stroke-width:0.25;"/>
</svg>
