<?xml version="1.0"?>
<svg xmlns="http://www.w3.org/2000/svg" xmlns:xlink="http://www.w3.org/1999/xlink" viewBox="0 0 261.800000 368.000000" width="130.900000mm" height="184.000000mm" version="1.1">
<a xlink:href="ls-0x6001440f3720.svg">
<rect x="1.000000" y="1.000000" width="260.800000" height="367.000000" rx="0" ry="0" style="stroke:none;fill:#cccccc;"/>
<rect x="0.000000" y="0.000000" width="260.800000" height="367.000000" rx="0" ry="0" style="stroke:none;fill:#ffffff;"/>
</a>
<text x="10.000000" y="7.000000" font-family="Arial" font-size="7"></text>
<rect x="41.000000" y="141.000000" width="25.800000" height="24.000000" rx="0" ry="0" style="stroke:none;fill:#cccccc;"/>
<rect x="40.000000" y="140.000000" width="25.800000" height="24.000000" rx="0" ry="0" style="stroke:none;fill:#47945E;"/>
<text x="52.900000" y="154.000000" font-family="Arial" font-size="7" text-anchor="middle" fill="#FFFFFF">ic1eq</text>
<circle cx="42.000000" cy="142.000000" r="1"/>
<line x1="37.000000" y1="151.000000" x2="40.000000" y2="152.000000"  transform="rotate(0.000000,40.000000,152.000000)" style="stroke: black; stroke-width:0.25;"/>
<line x1="37.000000" y1="153.000000" x2="40.000000" y2="152.000000"  transform="rotate(0.000000,40.000000,152.000000)" style="stroke: black; stroke-width:0.25;"/>
<rect x="41.000000" y="173.000000" width="25.800000" height="24.000000" rx="0" ry="0" style="stroke:none;fill:#cccccc;"/>
<rect x="40.000000" y="172.000000" width="25.800000" height="24.000000" rx="0" ry="0" style="stroke:none;fill:#47945E;"/>
<text x="52.900000" y="186.000000" font-family="Arial" font-size="7" text-anchor="middle" fill="#FFFFFF">ic2eq</text>
<circle cx="42.000000" cy="174.000000" r="1"/>
<line x1="37.000000" y1="183.000000" x2="40.000000" y2="184.000000"  transform="rotate(0.000000,40.000000,184.000000)" style="stroke: black; stroke-width:0.25;"/>
<line x1="37.000000" y1="185.000000" x2="40.000000" y2="184.000000"  transform="rotate(0.000000,40.000000,184.000000)" style="stroke: black; stroke-width:0.25;"/>
<rect x="41.900000" y="205.000000" width="24.000000" height="24.000000" rx="0" ry="0" style="stroke:none;fill:#cccccc;"/>
<rect x="40.900000" y="204.000000" width="24.000000" height="24.000000" rx="0" ry="0" style="stroke:none;fill:#47945E;"/>
<text x="52.900000" y="218.000000" font-family="Arial" font-size="7" text-anchor="middle" fill="#FFFFFF">v0</text>
<circle cx="42.900000" cy="206.000000" r="1"/>
<line x1="37.900000" y1="215.000000" x2="40.900000" y2="216.000000"  transform="rotate(0.000000,40.900000,216.000000)" style="stroke: black; stroke-width:0.25;"/>
<line x1="37.900000" y1="217.000000" x2="40.900000" y2="216.000000"  transform="rotate(0.000000,40.900000,216.000000)" style="stroke: black; stroke-width:0.25;"/>
<rect x="84.800000" y="35.000000" width="24.000000" height="24.000000" rx="0" ry="0" style="stroke:none;fill:#cccccc;"/>
<rect x="83.800000" y="34.000000" width="24.000000" height="24.000000" rx="0" ry="0" style="stroke:none;fill:#f44800;"/>
<text x="95.800000" y="48.000000" font-family="Arial" font-size="7" text-anchor="middle" fill="#FFFFFF">2</text>
<circle cx="85.800000" cy="36.000000" r="1"/>
<line x1="74.800000" y1="25.000000" x2="74.800000" y2="67.000000"  style="stroke: black; stroke-linecap:round; stroke-width:0.25; stroke-dasharray:3,3;"/>
<line x1="74.800000" y1="67.000000" x2="116.800000" y2="67.000000"  style="stroke: black; stroke-linecap:round; stroke-width:0.25; stroke-dasharray:3,3;"/>
<line x1="116.800000" y1="67.000000" x2="116.800000" y2="25.000000"  style="stroke: black; stroke-linecap:round; stroke-width:0.25; stroke-dasharray:3,3;"/>
<line x1="74.800000" y1="25.000000" x2="79.800000" y2="25.000000"  style="stroke: black; stroke-linecap:round; stroke-width:0.25; stroke-dasharray:3,3;"/>
<line x1="89.475000" y1="25.000000" x2="116.800000" y2="25.000000"  style="stroke: black; stroke-linecap:round; stroke-width:0.25; stroke-dasharray:3,3;"/>
<text x="79.800000" y="27.000000" font-family="Arial" font-size="7">N</text>
<a xlink:href="v1-0x6001440f1e60.svg">
<rect x="84.800000" y="77.000000" width="24.000000" height="24.000000" rx="0" ry="0" style="stroke:none;fill:#cccccc;"/>
<rect x="83.800000" y="76.000000" width="24.000000" height="24.000000" rx="0" ry="0" style="stroke:none;fill:#003366;"/>
</a>
<a xlink:href="v1-0x6001440f1e60.svg">
<text x="95.800000" y="90.000000" font-family="Arial" font-size="7" text-anchor="middle" fill="#FFFFFF">v1</text>
</a>
<circle cx="85.800000" cy="78.000000" r="1"/>
<rect x="134.800000" y="51.000000" width="24.000000" height="24.000000" rx="0" ry="0" style="stroke:none;fill:#cccccc;"/>
<rect x="133.800000" y="50.000000" width="24.000000" height="24.000000" rx="0" ry="0" style="stroke:none;fill:#4B71A1;"/>
<text x="145.800000" y="64.000000" font-family="Arial" font-size="7" text-anchor="middle" fill="#FFFFFF">*</text>
<circle cx="135.800000" cy="52.000000" r="1"/>
<line x1="130.800000" y1="57.000000" x2="133.800000" y2="58.000000"  transform="rotate(0.000000,133.800000,58.000000)" style="stroke: black; stroke-width:0.25;"/>
<line x1="130.800000" y1="59.000000" x2="133.800000" y2="58.000000"  transform="rotate(0.000000,133.800000,58.000000)" style="stroke: black; stroke-width:0.25;"/>
<line x1="130.800000" y1="65.000000" x2="133.800000" y2="66.000000"  transform="rotate(0.000000,133.800000,66.000000)" style="stroke: black; stroke-width:0.25;"/>
<line x1="130.800000" y1="67.000000" x2="133.800000" y2="66.000000"  transform="rotate(0.000000,133.800000,66.000000)" style="stroke: black; stroke-width:0.25;"/>
<rect x="103.900000" y="109.000000" width="25.800000" height="24.000000" rx="0" ry="0" style="stroke:none;fill:#cccccc;"/>
<rect x="102.900000" y="108.000000" width="25.800000" height="24.000000" rx="0" ry="0" style="stroke:none;fill:#47945E;"/>
<text x="115.800000" y="122.000000" font-family="Arial" font-size="7" text-anchor="middle" fill="#FFFFFF">ic1eq</text>
<circle cx="104.900000" cy="110.000000" r="1"/>
<rect x="174.800000" y="67.000000" width="24.000000" height="24.000000" rx="0" ry="0" style="stroke:none;fill:#cccccc;"/>
<rect x="173.800000" y="66.000000" width="24.000000" height="24.000000" rx="0" ry="0" style="stroke:none;fill:#4B71A1;"/>
<text x="185.800000" y="80.000000" font-family="Arial" font-size="7" text-anchor="middle" fill="#FFFFFF">-</text>
<circle cx="175.800000" cy="68.000000" r="1"/>
<line x1="170.800000" y1="73.000000" x2="173.800000" y2="74.000000"  transform="rotate(0.000000,173.800000,74.000000)" style="stroke: black; stroke-width:0.25;"/>
<line x1="170.800000" y1="75.000000" x2="173.800000" y2="74.000000"  transform="rotate(0.000000,173.800000,74.000000)" style="stroke: black; stroke-width:0.25;"/>
<line x1="170.800000" y1="81.000000" x2="173.800000" y2="82.000000"  transform="rotate(0.000000,173.800000,82.000000)" style="stroke: black; stroke-width:0.25;"/>
<line x1="170.800000" y1="83.000000" x2="173.800000" y2="82.000000"  transform="rotate(0.000000,173.800000,82.000000)" style="stroke: black; stroke-width:0.25;"/>
<rect x="84.800000" y="151.000000" width="24.000000" height="24.000000" rx="0" ry="0" style="stroke:none;fill:#cccccc;"/>
<rect x="83.800000" y="150.000000" width="24.000000" height="24.000000" rx="0" ry="0" style="stroke:none;fill:#f44800;"/>
<text x="95.800000" y="164.000000" font-family="Arial" font-size="7" text-anchor="middle" fill="#FFFFFF">2</text>
<circle cx="85.800000" cy="152.000000" r="1"/>
<line x1="74.800000" y1="141.000000" x2="74.800000" y2="183.000000"  style="stroke: black; stroke-linecap:round; stroke-width:0.25; stroke-dasharray:3,3;"/>
<line x1="74.800000" y1="183.000000" x2="116.800000" y2="183.000000"  style="stroke: black; stroke-linecap:round; stroke-width:0.25; stroke-dasharray:3,3;"/>
<line x1="116.800000" y1="183.000000" x2="116.800000" y2="141.000000"  style="stroke: black; stroke-linecap:round; stroke-width:0.25; stroke-dasharray:3,3;"/>
<line x1="74.800000" y1="141.000000" x2="79.800000" y2="141.000000"  style="stroke: black; stroke-linecap:round; stroke-width:0.25; stroke-dasharray:3,3;"/>
<line x1="89.475000" y1="141.000000" x2="116.800000" y2="141.000000"  style="stroke: black; stroke-linecap:round; stroke-width:0.25; stroke-dasharray:3,3;"/>
<text x="79.800000" y="143.000000" font-family="Arial" font-size="7">N</text>
<a xlink:href="v2-0x6001440f2eb0.svg">
<rect x="84.800000" y="193.000000" width="24.000000" height="24.000000" rx="0" ry="0" style="stroke:none;fill:#cccccc;"/>
<rect x="83.800000" y="192.000000" width="24.000000" height="24.000000" rx="0" ry="0" style="stroke:none;fill:#003366;"/>
</a>
<a xlink:href="v2-0x6001440f2eb0.svg">
<text x="95.800000" y="206.000000" font-family="Arial" font-size="7" text-anchor="middle" fill="#FFFFFF">v2</text>
</a>
<circle cx="85.800000" cy="194.000000" r="1"/>
<rect x="134.800000" y="167.000000" width="24.000000" height="24.000000" rx="0" ry="0" style="stroke:none;fill:#cccccc;"/>
<rect x="133.800000" y="166.000000" width="24.000000" height="24.000000" rx="0" ry="0" style="stroke:none;fill:#4B71A1;"/>
<text x="145.800000" y="180.000000" font-family="Arial" font-size="7" text-anchor="middle" fill="#FFFFFF">*</text>
<circle cx="135.800000" cy="168.000000" r="1"/>
<line x1="130.800000" y1="173.000000" x2="133.800000" y2="174.000000"  transform="rotate(0.000000,133.800000,174.000000)" style="stroke: black; stroke-width:0.25;"/>
<line x1="130.800000" y1="175.000000" x2="133.800000" y2="174.000000"  transform="rotate(0.000000,133.800000,174.000000)" style="stroke: black; stroke-width:0.25;"/>
<line x1="130.800000" y1="181.000000" x2="133.800000" y2="182.000000"  transform="rotate(0.000000,133.800000,182.000000)" style="stroke: black; stroke-width:0.25;"/>
<line x1="130.800000" y1="183.000000" x2="133.800000" y2="182.000000"  transform="rotate(0.000000,133.800000,182.000000)" style="stroke: black; stroke-width:0.25;"/>
<rect x="103.900000" y="225.000000" width="25.800000" height="24.000000" rx="0" ry="0" style="stroke:none;fill:#cccccc;"/>
<rect x="102.900000" y="224.000000" width="25.800000" height="24.000000" rx="0" ry="0" style="stroke:none;fill:#47945E;"/>
<text x="115.800000" y="238.000000" font-family="Arial" font-size="7" text-anchor="middle" fill="#FFFFFF">ic2eq</text>
<circle cx="104.900000" cy="226.000000" r="1"/>
<rect x="174.800000" y="183.000000" width="24.000000" height="24.000000" rx="0" ry="0" style="stroke:none;fill:#cccccc;"/>
<rect x="173.800000" y="182.000000" width="24.000000" height="24.000000" rx="0" ry="0" style="stroke:none;fill:#4B71A1;"/>
<text x="185.800000" y="196.000000" font-family="Arial" font-size="7" text-anchor="middle" fill="#FFFFFF">-</text>
<circle cx="175.800000" cy="184.000000" r="1"/>
<line x1="170.800000" y1="189.000000" x2="173.800000" y2="190.000000"  transform="rotate(0.000000,173.800000,190.000000)" style="stroke: black; stroke-width:0.25;"/>
<line x1="170.800000" y1="191.000000" x2="173.800000" y2="190.000000"  transform="rotate(0.000000,173.800000,190.000000)" style="stroke: black; stroke-width:0.25;"/>
<line x1="170.800000" y1="197.000000" x2="173.800000" y2="198.000000"  transform="rotate(0.000000,173.800000,198.000000)" style="stroke: black; stroke-width:0.25;"/>
<line x1="170.800000" y1="199.000000" x2="173.800000" y2="198.000000"  transform="rotate(0.000000,173.800000,198.000000)" style="stroke: black; stroke-width:0.25;"/>
<rect x="124.800000" y="257.000000" width="24.000000" height="24.000000" rx="0" ry="0" style="stroke:none;fill:#cccccc;"/>
<rect x="123.800000" y="256.000000" width="24.000000" height="24.000000" rx="0" ry="0" style="stroke:none;fill:#47945E;"/>
<text x="135.800000" y="270.000000" font-family="Arial" font-size="7" text-anchor="middle" fill="#FFFFFF">v0</text>
<circle cx="125.800000" cy="258.000000" r="1"/>
<a xlink:href="v1-0x6001440f1e60.svg">
<rect x="124.800000" y="289.000000" width="24.000000" height="24.000000" rx="0" ry="0" style="stroke:none;fill:#cccccc;"/>
<rect x="123.800000" y="288.000000" width="24.000000" height="24.000000" rx="0" ry="0" style="stroke:none;fill:#003366;"/>
</a>
<a xlink:href="v1-0x6001440f1e60.svg">
<text x="135.800000" y="302.000000" font-family="Arial" font-size="7" text-anchor="middle" fill="#FFFFFF">v1</text>
</a>
<circle cx="125.800000" cy="290.000000" r="1"/>
<a xlink:href="v2-0x6001440f2eb0.svg">
<rect x="124.800000" y="321.000000" width="24.000000" height="24.000000" rx="0" ry="0" style="stroke:none;fill:#cccccc;"/>
<rect x="123.800000" y="320.000000" width="24.000000" height="24.000000" rx="0" ry="0" style="stroke:none;fill:#003366;"/>
</a>
<a xlink:href="v2-0x6001440f2eb0.svg">
<text x="135.800000" y="334.000000" font-family="Arial" font-size="7" text-anchor="middle" fill="#FFFFFF">v2</text>
</a>
<circle cx="125.800000" cy="322.000000" r="1"/>
<line x1="15.000000" y1="15.000000" x2="15.000000" y2="353.000000"  style="stroke: black; stroke-linecap:round; stroke-width:0.25; stroke-dasharray:3,3;"/>
<line x1="15.000000" y1="353.000000" x2="246.800000" y2="353.000000"  style="stroke: black; stroke-linecap:round; stroke-width:0.25; stroke-dasharray:3,3;"/>
<line x1="246.800000" y1="353.000000" x2="246.800000" y2="15.000000"  style="stroke: black; stroke-linecap:round; stroke-width:0.25; stroke-dasharray:3,3;"/>
<line x1="15.000000" y1="15.000000" x2="20.000000" y2="15.000000"  style="stroke: black; stroke-linecap:round; stroke-width:0.25; stroke-dasharray:3,3;"/>
<line x1="39.350000" y1="15.000000" x2="246.800000" y2="15.000000"  style="stroke: black; stroke-linecap:round; stroke-width:0.25; stroke-dasharray:3,3;"/>
<text x="20.000000" y="17.000000" font-family="Arial" font-size="7">tick</text>
<line x1="248.800000" y1="167.000000" x2="251.800000" y2="168.000000"  transform="rotate(0.000000,251.800000,168.000000)" style="stroke: black; stroke-width:0.25;"/>
<line x1="248.800000" y1="169.000000" x2="251.800000" y2="168.000000"  transform="rotate(0.000000,251.800000,168.000000)" style="stroke: black; stroke-width:0.25;"/>
<line x1="248.800000" y1="175.000000" x2="251.800000" y2="176.000000"  transform="rotate(0.000000,251.800000,176.000000)" style="stroke: black; stroke-width:0.25;"/>
<line x1="248.800000" y1="177.000000" x2="251.800000" y2="176.000000"  transform="rotate(0.000000,251.800000,176.000000)" style="stroke: black; stroke-width:0.25;"/>
<line x1="248.800000" y1="183.000000" x2="251.800000" y2="184.000000"  transform="rotate(0.000000,251.800000,184.000000)" style="stroke: black; stroke-width:0.25;"/>
<line x1="248.800000" y1="185.000000" x2="251.800000" y2="184.000000"  transform="rotate(0.000000,251.800000,184.000000)" style="stroke: black; stroke-width:0.25;"/>
<line x1="248.800000" y1="191.000000" x2="251.800000" y2="192.000000"  transform="rotate(0.000000,251.800000,192.000000)" style="stroke: black; stroke-width:0.25;"/>
<line x1="248.800000" y1="193.000000" x2="251.800000" y2="192.000000"  transform="rotate(0.000000,251.800000,192.000000)" style="stroke: black; stroke-width:0.25;"/>
<line x1="248.800000" y1="199.000000" x2="251.800000" y2="200.000000"  transform="rotate(0.000000,251.800000,200.000000)" style="stroke: black; stroke-width:0.25;"/>
<line x1="248.800000" y1="201.000000" x2="251.800000" y2="200.000000"  transform="rotate(0.000000,251.800000,200.000000)" style="stroke: black; stroke-width:0.25;"/>
<line x1="10.000000" y1="176.000000" x2="20.000000" y2="176.000000"  style="stroke:black; stroke-linecap:round; stroke-width:0.25;"/>
<line x1="10.000000" y1="184.000000" x2="20.000000" y2="184.000000"  style="stroke:black; stroke-linecap:round; stroke-width:0.25;"/>
<line x1="10.000000" y1="192.000000" x2="20.000000" y2="192.000000"  style="stroke:black; stroke-linecap:round; stroke-width:0.25;"/>
<line x1="20.000000" y1="176.000000" x2="24.000000" y2="176.000000"  style="stroke:black; stroke-linecap:round; stroke-width:0.25;"/>
<line x1="20.000000" y1="184.000000" x2="24.000000" y2="184.000000"  style="stroke:black; stroke-linecap:round; stroke-width:0.25;"/>
<line x1="20.000000" y1="192.000000" x2="24.000000" y2="192.000000"  style="stroke:black; stroke-linecap:round; stroke-width:0.25;"/>
<line x1="24.000000" y1="176.000000" x2="28.000000" y2="176.000000"  style="stroke:black; stroke-linecap:round; stroke-width:0.25;"/>
<line x1="24.000000" y1="184.000000" x2="28.000000" y2="184.000000"  style="stroke:black; stroke-linecap:round; stroke-width:0.25;"/>
<line x1="24.000000" y1="192.000000" x2="28.000000" y2="192.000000"  style="stroke:black; stroke-linecap:round; stroke-width:0.25;"/>
<line x1="28.000000" y1="152.000000" x2="36.000000" y2="152.000000"  style="stroke:black; stroke-linecap:round; stroke-width:0.25;"/>
<line x1="28.000000" y1="176.000000" x2="28.000000" y2="152.000000"  style="stroke:black; stroke-linecap:round; stroke-width:0.25;"/>
<line x1="28.000000" y1="176.000000" x2="28.000000" y2="176.000000"  style="stroke:black; stroke-linecap:round; stroke-width:0.25;"/>
<line x1="28.000000" y1="184.000000" x2="36.000000" y2="184.000000"  style="stroke:black; stroke-linecap:round; stroke-width:0.25;"/>
<line x1="28.000000" y1="192.000000" x2="36.000000" y2="192.000000"  style="stroke:black; stroke-linecap:round; stroke-width:0.25;"/>
<line x1="36.000000" y1="152.000000" x2="40.000000" y2="152.000000"  style="stroke:black; stroke-linecap:round; stroke-width:0.25;"/>
<line x1="36.000000" y1="184.000000" x2="40.000000" y2="184.000000"  style="stroke:black; stroke-linecap:round; stroke-width:0.25;"/>
<line x1="36.000000" y1="192.000000" x2="36.000000" y2="216.000000"  style="stroke:black; stroke-linecap:round; stroke-width:0.25;"/>
<line x1="36.000000" y1="216.000000" x2="36.000000" y2="216.000000"  style="stroke:black; stroke-linecap:round; stroke-width:0.25;"/>
<line x1="36.000000" y1="216.000000" x2="36.900000" y2="216.000000"  style="stroke:black; stroke-linecap:round; stroke-width:0.25;"/>
<line x1="36.900000" y1="216.000000" x2="40.900000" y2="216.000000"  style="stroke:black; stroke-linecap:round; stroke-width:0.25;"/>
<line x1="107.800000" y1="46.000000" x2="111.800000" y2="46.000000"  style="stroke:black; stroke-linecap:round; stroke-width:0.25;"/>
<line x1="107.800000" y1="88.000000" x2="111.800000" y2="88.000000"  style="stroke:black; stroke-linecap:round; stroke-width:0.25;"/>
<line x1="107.800000" y1="162.000000" x2="111.800000" y2="162.000000"  style="stroke:black; stroke-linecap:round; stroke-width:0.25;"/>
<line x1="107.800000" y1="204.000000" x2="111.800000" y2="204.000000"  style="stroke:black; stroke-linecap:round; stroke-width:0.25;"/>
<line x1="111.800000" y1="46.000000" x2="121.800000" y2="46.000000"  style="stroke:black; stroke-linecap:round; stroke-width:0.25;"/>
<line x1="111.800000" y1="88.000000" x2="121.800000" y2="88.000000"  style="stroke:black; stroke-linecap:round; stroke-width:0.25;"/>
<line x1="111.800000" y1="162.000000" x2="121.800000" y2="162.000000"  style="stroke:black; stroke-linecap:round; stroke-width:0.25;"/>
<line x1="111.800000" y1="204.000000" x2="121.800000" y2="204.000000"  style="stroke:black; stroke-linecap:round; stroke-width:0.25;"/>
<line x1="121.800000" y1="46.000000" x2="129.800000" y2="46.000000"  style="stroke:black; stroke-linecap:round; stroke-width:0.25;"/>
<line x1="121.800000" y1="66.000000" x2="129.800000" y2="66.000000"  style="stroke:black; stroke-linecap:round; stroke-width:0.25;"/>
<line x1="121.800000" y1="88.000000" x2="121.800000" y2="66.000000"  style="stroke:black; stroke-linecap:round; stroke-width:0.25;"/>
<line x1="121.800000" y1="88.000000" x2="121.800000" y2="88.000000"  style="stroke:black; stroke-linecap:round; stroke-width:0.25;"/>
<line x1="121.800000" y1="162.000000" x2="129.800000" y2="162.000000"  style="stroke:black; stroke-linecap:round; stroke-width:0.25;"/>
<line x1="121.800000" y1="182.000000" x2="129.800000" y2="182.000000"  style="stroke:black; stroke-linecap:round; stroke-width:0.25;"/>
<line x1="121.800000" y1="204.000000" x2="121.800000" y2="182.000000"  style="stroke:black; stroke-linecap:round; stroke-width:0.25;"/>
<line x1="121.800000" y1="204.000000" x2="121.800000" y2="204.000000"  style="stroke:black; stroke-linecap:round; stroke-width:0.25;"/>
<line x1="128.700000" y1="120.000000" x2="132.700000" y2="120.000000"  style="stroke:black; stroke-linecap:round; stroke-width:0.25;"/>
<line x1="128.700000" y1="236.000000" x2="132.700000" y2="236.000000"  style="stroke:black; stroke-linecap:round; stroke-width:0.25;"/>
<line x1="129.800000" y1="46.000000" x2="129.800000" y2="58.000000"  style="stroke:black; stroke-linecap:round; stroke-width:0.25;"/>
<line x1="129.800000" y1="58.000000" x2="129.800000" y2="58.000000"  style="stroke:black; stroke-linecap:round; stroke-width:0.25;"/>
<line x1="129.800000" y1="58.000000" x2="133.800000" y2="58.000000"  style="stroke:black; stroke-linecap:round; stroke-width:0.25;"/>
<line x1="129.800000" y1="66.000000" x2="133.800000" y2="66.000000"  style="stroke:black; stroke-linecap:round; stroke-width:0.25;"/>
<line x1="129.800000" y1="162.000000" x2="129.800000" y2="174.000000"  style="stroke:black; stroke-linecap:round; stroke-width:0.25;"/>
<line x1="129.800000" y1="174.000000" x2="129.800000" y2="174.000000"  style="stroke:black; stroke-linecap:round; stroke-width:0.25;"/>
<line x1="129.800000" y1="174.000000" x2="133.800000" y2="174.000000"  style="stroke:black; stroke-linecap:round; stroke-width:0.25;"/>
<line x1="129.800000" y1="182.000000" x2="133.800000" y2="182.000000"  style="stroke:black; stroke-linecap:round; stroke-width:0.25;"/>
<line x1="132.700000" y1="120.000000" x2="161.800000" y2="120.000000"  style="stroke:black; stroke-linecap:round; stroke-width:0.25;"/>
<line x1="132.700000" y1="236.000000" x2="161.800000" y2="236.000000"  style="stroke:black; stroke-linecap:round; stroke-width:0.25;"/>
<line x1="147.800000" y1="268.000000" x2="151.800000" y2="268.000000"  style="stroke:black; stroke-linecap:round; stroke-width:0.25;"/>
<line x1="147.800000" y1="300.000000" x2="151.800000" y2="300.000000"  style="stroke:black; stroke-linecap:round; stroke-width:0.25;"/>
<line x1="147.800000" y1="332.000000" x2="151.800000" y2="332.000000"  style="stroke:black; stroke-linecap:round; stroke-width:0.25;"/>
<line x1="151.800000" y1="268.000000" x2="201.800000" y2="268.000000"  style="stroke:black; stroke-linecap:round; stroke-width:0.25;"/>
<line x1="151.800000" y1="300.000000" x2="201.800000" y2="300.000000"  style="stroke:black; stroke-linecap:round; stroke-width:0.25;"/>
<line x1="151.800000" y1="332.000000" x2="201.800000" y2="332.000000"  style="stroke:black; stroke-linecap:round; stroke-width:0.25;"/>
<line x1="157.800000" y1="62.000000" x2="161.800000" y2="62.000000"  style="stroke:black; stroke-linecap:round; stroke-width:0.25;"/>
<line x1="157.800000" y1="178.000000" x2="161.800000" y2="178.000000"  style="stroke:black; stroke-linecap:round; stroke-width:0.25;"/>
<line x1="161.800000" y1="82.000000" x2="169.800000" y2="82.000000"  style="stroke:black; stroke-linecap:round; stroke-width:0.25;"/>
<line x1="161.800000" y1="120.000000" x2="161.800000" y2="82.000000"  style="stroke:black; stroke-linecap:round; stroke-width:0.25;"/>
<line x1="161.800000" y1="120.000000" x2="161.800000" y2="120.000000"  style="stroke:black; stroke-linecap:round; stroke-width:0.25;"/>
<line x1="161.800000" y1="198.000000" x2="169.800000" y2="198.000000"  style="stroke:black; stroke-linecap:round; stroke-width:0.25;"/>
<line x1="161.800000" y1="236.000000" x2="161.800000" y2="198.000000"  style="stroke:black; stroke-linecap:round; stroke-width:0.25;"/>
<line x1="161.800000" y1="236.000000" x2="161.800000" y2="236.000000"  style="stroke:black; stroke-linecap:round; stroke-width:0.25;"/>
<line x1="161.800000" y1="62.000000" x2="169.800000" y2="62.000000"  style="stroke:black; stroke-linecap:round; stroke-width:0.25;"/>
<line x1="161.800000" y1="178.000000" x2="169.800000" y2="178.000000"  style="stroke:black; stroke-linecap:round; stroke-width:0.25;"/>
<line x1="169.800000" y1="62.000000" x2="169.800000" y2="74.000000"  style="stroke:black; stroke-linecap:round; stroke-width:0.25;"/>
<line x1="169.800000" y1="74.000000" x2="169.800000" y2="74.000000"  style="stroke:black; stroke-linecap:round; stroke-width:0.25;"/>
<line x1="169.800000" y1="74.000000" x2="173.800000" y2="74.000000"  style="stroke:black; stroke-linecap:round; stroke-width:0.25;"/>
<line x1="169.800000" y1="82.000000" x2="173.800000" y2="82.000000"  style="stroke:black; stroke-linecap:round; stroke-width:0.25;"/>
<line x1="169.800000" y1="178.000000" x2="169.800000" y2="190.000000"  style="stroke:black; stroke-linecap:round; stroke-width:0.25;"/>
<line x1="169.800000" y1="190.000000" x2="169.800000" y2="190.000000"  style="stroke:black; stroke-linecap:round; stroke-width:0.25;"/>
<line x1="169.800000" y1="190.000000" x2="173.800000" y2="190.000000"  style="stroke:black; stroke-linecap:round; stroke-width:0.25;"/>
<line x1="169.800000" y1="198.000000" x2="173.800000" y2="198.000000"  style="stroke:black; stroke-linecap:round; stroke-width:0.25;"/>
<line x1="197.800000" y1="78.000000" x2="201.800000" y2="78.000000"  style="stroke:black; stroke-linecap:round; stroke-width:0.25;"/>
<line x1="197.800000" y1="194.000000" x2="201.800000" y2="194.000000"  style="stroke:black; stroke-linecap:round; stroke-width:0.25;"/>
<line x1="201.800000" y1="78.000000" x2="233.800000" y2="78.000000"  style="stroke:black; stroke-linecap:round; stroke-width:0.25;"/>
<line x1="201.800000" y1="176.000000" x2="233.800000" y2="176.000000"  style="stroke:black; stroke-linecap:round; stroke-width:0.25;"/>
<line x1="201.800000" y1="194.000000" x2="201.800000" y2="176.000000"  style="stroke:black; stroke-linecap:round; stroke-width:0.25;"/>
<line x1="201.800000" y1="194.000000" x2="201.800000" y2="194.000000"  style="stroke:black; stroke-linecap:round; stroke-width:0.25;"/>
<line x1="201.800000" y1="268.000000" x2="209.800000" y2="268.000000"  style="stroke:black; stroke-linecap:round; stroke-width:0.25;"/>
<line x1="201.800000" y1="300.000000" x2="217.800000" y2="300.000000"  style="stroke:black; stroke-linecap:round; stroke-width:0.25;"/>
<line x1="201.800000" y1="332.000000" x2="225.800000" y2="332.000000"  style="stroke:black; stroke-linecap:round; stroke-width:0.25;"/>
<line x1="209.800000" y1="184.000000" x2="233.800000" y2="184.000000"  style="stroke:black; stroke-linecap:round; stroke-width:0.25;"/>
<line x1="209.800000" y1="268.000000" x2="209.800000" y2="184.000000"  style="stroke:black; stroke-linecap:round; stroke-width:0.25;"/>
<line x1="217.800000" y1="192.000000" x2="233.800000" y2="192.000000"  style="stroke:black; stroke-linecap:round; stroke-width:0.25;"/>
<line x1="217.800000" y1="300.000000" x2="217.800000" y2="192.000000"  style="stroke:black; stroke-linecap:round; stroke-width:0.25;"/>
<line x1="225.800000" y1="200.000000" x2="233.800000" y2="200.000000"  style="stroke:black; stroke-linecap:round; stroke-width:0.25;"/>
<line x1="225.800000" y1="332.000000" x2="225.800000" y2="200.000000"  style="stroke:black; stroke-linecap:round; stroke-width:0.25;"/>
<line x1="233.800000" y1="78.000000" x2="233.800000" y2="168.000000"  style="stroke:black; stroke-linecap:round; stroke-width:0.25;"/>
<line x1="233.800000" y1="168.000000" x2="233.800000" y2="168.000000"  style="stroke:black; stroke-linecap:round; stroke-width:0.25;"/>
<line x1="233.800000" y1="168.000000" x2="237.800000" y2="168.000000"  style="stroke:black; stroke-linecap:round; stroke-width:0.25;"/>
<line x1="233.800000" y1="176.000000" x2="237.800000" y2="176.000000"  style="stroke:black; stroke-linecap:round; stroke-width:0.25;"/>
<line x1="233.800000" y1="184.000000" x2="237.800000" y2="184.000000"  style="stroke:black; stroke-linecap:round; stroke-width:0.25;"/>
<line x1="233.800000" y1="192.000000" x2="237.800000" y2="192.000000"  style="stroke:black; stroke-linecap:round; stroke-width:0.25;"/>
<line x1="233.800000" y1="200.000000" x2="237.800000" y2="200.000000"  style="stroke:black; stroke-linecap:round; stroke-width:0.25;"/>
<line x1="237.800000" y1="168.000000" x2="241.800000" y2="168.000000"  style="stroke:black; stroke-linecap:round; stroke-width:0.25;"/>
<line x1="237.800000" y1="176.000000" x2="241.800000" y2="176.000000"  style="stroke:black; stroke-linecap:round; stroke-width:0.25;"/>
<line x1="237.800000" y1="184.000000" x2="241.800000" y2="184.000000"  style="stroke:black; stroke-linecap:round; stroke-width:0.25;"/>
<line x1="237.800000" y1="192.000000" x2="241.800000" y2="192.000000"  style="stroke:black; stroke-linecap:round; stroke-width:0.25;"/>
<line x1="237.800000" y1="200.000000" x2="241.800000" y2="200.000000"  style="stroke:black; stroke-linecap:round; stroke-width:0.25;"/>
<line x1="241.800000" y1="168.000000" x2="251.800000" y2="168.000000"  style="stroke:black; stroke-linecap:round; stroke-width:0.25;"/>
<line x1="241.800000" y1="176.000000" x2="251.800000" y2="176.000000"  style="stroke:black; stroke-linecap:round; stroke-width:0.25;"/>
<line x1="241.800000" y1="184.000000" x2="251.800000" y2="184.000000"  style="stroke:black; stroke-linecap:round; stroke-width:0.25;"/>
<line x1="241.800000" y1="192.000000" x2="251.800000" y2="192.000000"  style="stroke:black; stroke-linecap:round; stroke-width:0.25;"/>
<line x1="241.800000" y1="200.000000" x2="251.800000" y2="200.000000"  style="stroke:black; stroke-linecap:round; stroke-width:0.25;"/>
</svg>
