<?xml version="1.0"?>
<svg xmlns="http://www.w3.org/2000/svg" xmlns:xlink="http://www.w3.org/1999/xlink" viewBox="0 0 263.000000 108.000000" width="131.500000mm" height="54.000000mm" version="1.1">
<a xlink:href="dcblockerat-0x6000003890e0.svg">
<rect x="1.000000" y="1.000000" width="262.000000" height="107.000000" rx="0" ry="0" style="stroke:none;fill:#cccccc;"/>
<rect x="0.000000" y="0.000000" width="262.000000" height="107.000000" rx="0" ry="0" style="stroke:none;fill:#ffffff;"/>
</a>
<text x="10.000000" y="7.000000" font-family="Arial" font-size="7"></text>
<rect x="60.000000" y="47.000000" width="24.000000" height="24.000000" rx="0" ry="0" style="stroke:none;fill:#cccccc;"/>
<rect x="59.000000" y="46.000000" width="24.000000" height="24.000000" rx="0" ry="0" style="stroke:none;fill:#4B71A1;"/>
<text x="71.000000" y="60.000000" font-family="Arial" font-size="7" text-anchor="middle" fill="#FFFFFF">mem</text>
<circle cx="61.000000" cy="48.000000" r="1"/>
<line x1="56.000000" y1="57.000000" x2="59.000000" y2="58.000000"  transform="rotate(0.000000,59.000000,58.000000)" style="stroke: black; stroke-width:0.25;"/>
<line x1="56.000000" y1="59.000000" x2="59.000000" y2="58.000000"  transform="rotate(0.000000,59.000000,58.000000)" style="stroke: black; stroke-width:0.25;"/>
<rect x="118.000000" y="51.000000" width="24.000000" height="24.000000" rx="0" ry="0" style="stroke:none;fill:#cccccc;"/>
<rect x="117.000000" y="50.000000" width="24.000000" height="24.000000" rx="0" ry="0" style="stroke:none;fill:#f44800;"/>
<text x="129.000000" y="64.000000" font-family="Arial" font-size="7" text-anchor="middle" fill="#FFFFFF">1</text>
<circle cx="119.000000" cy="52.000000" r="1"/>
<line x1="108.000000" y1="41.000000" x2="108.000000" y2="83.000000"  style="stroke: black; stroke-linecap:round; stroke-width:0.25; stroke-dasharray:3,3;"/>
<line x1="108.000000" y1="83.000000" x2="150.000000" y2="83.000000"  style="stroke: black; stroke-linecap:round; stroke-width:0.25; stroke-dasharray:3,3;"/>
<line x1="150.000000" y1="83.000000" x2="150.000000" y2="41.000000"  style="stroke: black; stroke-linecap:round; stroke-width:0.25; stroke-dasharray:3,3;"/>
<line x1="108.000000" y1="41.000000" x2="113.000000" y2="41.000000"  style="stroke: black; stroke-linecap:round; stroke-width:0.25; stroke-dasharray:3,3;"/>
<line x1="142.025000" y1="41.000000" x2="150.000000" y2="41.000000"  style="stroke: black; stroke-linecap:round; stroke-width:0.25; stroke-dasharray:3,3;"/>
<text x="113.000000" y="43.000000" font-family="Arial" font-size="7">pow2(0)</text>
<rect x="168.000000" y="47.000000" width="24.000000" height="24.000000" rx="0" ry="0" style="stroke:none;fill:#cccccc;"/>
<rect x="167.000000" y="46.000000" width="24.000000" height="24.000000" rx="0" ry="0" style="stroke:none;fill:#4B71A1;"/>
<text x="179.000000" y="60.000000" font-family="Arial" font-size="7" text-anchor="middle" fill="#FFFFFF">*</text>
<circle cx="169.000000" cy="48.000000" r="1"/>
<line x1="164.000000" y1="53.000000" x2="167.000000" y2="54.000000"  transform="rotate(0.000000,167.000000,54.000000)" style="stroke: black; stroke-width:0.25;"/>
<line x1="164.000000" y1="55.000000" x2="167.000000" y2="54.000000"  transform="rotate(0.000000,167.000000,54.000000)" style="stroke: black; stroke-width:0.25;"/>
<line x1="164.000000" y1="61.000000" x2="167.000000" y2="62.000000"  transform="rotate(0.000000,167.000000,62.000000)" style="stroke: black; stroke-width:0.25;"/>
<line x1="164.000000" y1="63.000000" x2="167.000000" y2="62.000000"  transform="rotate(0.000000,167.000000,62.000000)" style="stroke: black; stroke-width:0.25;"/>
<rect x="208.000000" y="43.000000" width="24.000000" height="24.000000" rx="0" ry="0" style="stroke:none;fill:#cccccc;"/>
<rect x="207.000000" y="42.000000" width="24.000000" height="24.000000" rx="0" ry="0" style="stroke:none;fill:#4B71A1;"/>
<text x="219.000000" y="56.000000" font-family="Arial" font-size="7" text-anchor="middle" fill="#FFFFFF">-</text>
<circle cx="209.000000" cy="44.000000" r="1"/>
<line x1="204.000000" y1="49.000000" x2="207.000000" y2="50.000000"  transform="rotate(0.000000,207.000000,50.000000)" style="stroke: black; stroke-width:0.25;"/>
<line x1="204.000000" y1="51.000000" x2="207.000000" y2="50.000000"  transform="rotate(0.000000,207.000000,50.000000)" style="stroke: black; stroke-width:0.25;"/>
<line x1="204.000000" y1="57.000000" x2="207.000000" y2="58.000000"  transform="rotate(0.000000,207.000000,58.000000)" style="stroke: black; stroke-width:0.25;"/>
<line x1="204.000000" y1="59.000000" x2="207.000000" y2="58.000000"  transform="rotate(0.000000,207.000000,58.000000)" style="stroke: black; stroke-width:0.25;"/>
<line x1="15.000000" y1="15.000000" x2="15.000000" y2="93.000000"  style="stroke: black; stroke-linecap:round; stroke-width:0.25; stroke-dasharray:3,3;"/>
<line x1="15.000000" y1="93.000000" x2="248.000000" y2="93.000000"  style="stroke: black; stroke-linecap:round; stroke-width:0.25; stroke-dasharray:3,3;"/>
<line x1="248.000000" y1="93.000000" x2="248.000000" y2="15.000000"  style="stroke: black; stroke-linecap:round; stroke-width:0.25; stroke-dasharray:3,3;"/>
<line x1="15.000000" y1="15.000000" x2="20.000000" y2="15.000000"  style="stroke: black; stroke-linecap:round; stroke-width:0.25; stroke-dasharray:3,3;"/>
<line x1="49.025000" y1="15.000000" x2="248.000000" y2="15.000000"  style="stroke: black; stroke-linecap:round; stroke-width:0.25; stroke-dasharray:3,3;"/>
<text x="20.000000" y="17.000000" font-family="Arial" font-size="7">zero(1)</text>
<line x1="250.000000" y1="53.000000" x2="253.000000" y2="54.000000"  transform="rotate(0.000000,253.000000,54.000000)" style="stroke: black; stroke-width:0.25;"/>
<line x1="250.000000" y1="55.000000" x2="253.000000" y2="54.000000"  transform="rotate(0.000000,253.000000,54.000000)" style="stroke: black; stroke-width:0.25;"/>
<line x1="10.000000" y1="54.000000" x2="20.000000" y2="54.000000"  style="stroke:black; stroke-linecap:round; stroke-width:0.25;"/>
<line x1="20.000000" y1="54.000000" x2="24.000000" y2="54.000000"  style="stroke:black; stroke-linecap:round; stroke-width:0.25;"/>
<line x1="24.000000" y1="54.000000" x2="28.000000" y2="54.000000"  style="stroke:black; stroke-linecap:round; stroke-width:0.25;"/>
<line x1="28.000000" y1="54.000000" x2="28.000000" y2="54.000000"  style="stroke:black; stroke-linecap:round; stroke-width:0.25;"/>
<line x1="28.000000" y1="54.000000" x2="32.000000" y2="54.000000"  style="stroke:black; stroke-linecap:round; stroke-width:0.25;"/>
<line x1="32.000000" y1="54.000000" x2="36.000000" y2="54.000000"  style="stroke:black; stroke-linecap:round; stroke-width:0.25;"/>
<line x1="36.000000" y1="54.000000" x2="55.000000" y2="38.000000"  style="stroke:black; stroke-linecap:round; stroke-width:0.25;"/>
<line x1="36.000000" y1="54.000000" x2="55.000000" y2="58.000000"  style="stroke:black; stroke-linecap:round; stroke-width:0.25;"/>
<line x1="55.000000" y1="38.000000" x2="71.000000" y2="38.000000"  style="stroke:black; stroke-linecap:round; stroke-width:0.25;"/>
<line x1="55.000000" y1="58.000000" x2="59.000000" y2="58.000000"  style="stroke:black; stroke-linecap:round; stroke-width:0.25;"/>
<line x1="71.000000" y1="38.000000" x2="87.000000" y2="38.000000"  style="stroke:black; stroke-linecap:round; stroke-width:0.25;"/>
<line x1="83.000000" y1="58.000000" x2="87.000000" y2="58.000000"  style="stroke:black; stroke-linecap:round; stroke-width:0.25;"/>
<line x1="87.000000" y1="24.000000" x2="103.000000" y2="24.000000"  style="stroke:black; stroke-linecap:round; stroke-width:0.25;"/>
<line x1="87.000000" y1="38.000000" x2="87.000000" y2="24.000000"  style="stroke:black; stroke-linecap:round; stroke-width:0.25;"/>
<line x1="87.000000" y1="38.000000" x2="87.000000" y2="38.000000"  style="stroke:black; stroke-linecap:round; stroke-width:0.25;"/>
<line x1="87.000000" y1="58.000000" x2="95.000000" y2="58.000000"  style="stroke:black; stroke-linecap:round; stroke-width:0.25;"/>
<line x1="95.000000" y1="32.000000" x2="103.000000" y2="32.000000"  style="stroke:black; stroke-linecap:round; stroke-width:0.25;"/>
<line x1="95.000000" y1="58.000000" x2="95.000000" y2="32.000000"  style="stroke:black; stroke-linecap:round; stroke-width:0.25;"/>
<line x1="103.000000" y1="24.000000" x2="149.000000" y2="24.000000"  style="stroke:black; stroke-linecap:round; stroke-width:0.25;"/>
<line x1="103.000000" y1="32.000000" x2="129.000000" y2="32.000000"  style="stroke:black; stroke-linecap:round; stroke-width:0.25;"/>
<line x1="129.000000" y1="32.000000" x2="155.000000" y2="32.000000"  style="stroke:black; stroke-linecap:round; stroke-width:0.25;"/>
<line x1="141.000000" y1="62.000000" x2="145.000000" y2="62.000000"  style="stroke:black; stroke-linecap:round; stroke-width:0.25;"/>
<line x1="145.000000" y1="62.000000" x2="155.000000" y2="62.000000"  style="stroke:black; stroke-linecap:round; stroke-width:0.25;"/>
<line x1="149.000000" y1="24.000000" x2="195.000000" y2="24.000000"  style="stroke:black; stroke-linecap:round; stroke-width:0.25;"/>
<line x1="155.000000" y1="32.000000" x2="163.000000" y2="32.000000"  style="stroke:black; stroke-linecap:round; stroke-width:0.25;"/>
<line x1="155.000000" y1="62.000000" x2="163.000000" y2="62.000000"  style="stroke:black; stroke-linecap:round; stroke-width:0.25;"/>
<line x1="163.000000" y1="32.000000" x2="163.000000" y2="54.000000"  style="stroke:black; stroke-linecap:round; stroke-width:0.25;"/>
<line x1="163.000000" y1="54.000000" x2="163.000000" y2="54.000000"  style="stroke:black; stroke-linecap:round; stroke-width:0.25;"/>
<line x1="163.000000" y1="54.000000" x2="167.000000" y2="54.000000"  style="stroke:black; stroke-linecap:round; stroke-width:0.25;"/>
<line x1="163.000000" y1="62.000000" x2="167.000000" y2="62.000000"  style="stroke:black; stroke-linecap:round; stroke-width:0.25;"/>
<line x1="191.000000" y1="58.000000" x2="195.000000" y2="58.000000"  style="stroke:black; stroke-linecap:round; stroke-width:0.25;"/>
<line x1="195.000000" y1="24.000000" x2="203.000000" y2="24.000000"  style="stroke:black; stroke-linecap:round; stroke-width:0.25;"/>
<line x1="195.000000" y1="58.000000" x2="203.000000" y2="58.000000"  style="stroke:black; stroke-linecap:round; stroke-width:0.25;"/>
<line x1="203.000000" y1="24.000000" x2="203.000000" y2="50.000000"  style="stroke:black; stroke-linecap:round; stroke-width:0.25;"/>
<line x1="203.000000" y1="50.000000" x2="203.000000" y2="50.000000"  style="stroke:black; stroke-linecap:round; stroke-width:0.25;"/>
<line x1="203.000000" y1="50.000000" x2="207.000000" y2="50.000000"  style="stroke:black; stroke-linecap:round; stroke-width:0.25;"/>
<line x1="203.000000" y1="58.000000" x2="207.000000" y2="58.000000"  style="stroke:black; stroke-linecap:round; stroke-width:0.25;"/>
<line x1="231.000000" y1="54.000000" x2="235.000000" y2="54.000000"  style="stroke:black; stroke-linecap:round; stroke-width:0.25;"/>
<line x1="235.000000" y1="54.000000" x2="235.000000" y2="54.000000"  style="stroke:black; stroke-linecap:round; stroke-width:0.25;"/>
<line x1="235.000000" y1="54.000000" x2="239.000000" y2="54.000000"  style="stroke:black; stroke-linecap:round; stroke-width:0.25;"/>
<line x1="239.000000" y1="54.000000" x2="243.000000" y2="54.000000"  style="stroke:black; stroke-linecap:round; stroke-width:0.25;"/>
<line x1="243.000000" y1="54.000000" x2="253.000000" y2="54.000000"  style="stroke:black; stroke-linecap:round; stroke-width:0.25;"/>
</svg>
